<svg width="147" height="120" viewBox="0 0 147 120" fill="none" xmlns="http://www.w3.org/2000/svg">
<path d="M134.932 119.763C135.26 119.853 134.164 119.794 134.892 119.928C134.74 119.938 134.588 119.947 134.436 119.956C134.397 119.906 134.358 119.856 134.32 119.806C134.523 119.792 134.727 119.777 134.932 119.762C134.932 119.762 134.932 119.763 134.932 119.763ZM135.21 119.138C135.024 119.28 134.43 119.318 135.071 119.449C135.122 119.401 135.174 119.352 135.225 119.303C135.448 119.341 135.672 119.379 135.895 119.416C135.975 119.398 136.055 119.379 136.135 119.361C136.236 119.446 136.338 119.531 136.439 119.616C136.349 119.603 136.257 119.591 136.167 119.578C135.809 119.647 135.491 119.666 135.005 119.679C135.047 119.699 135.09 119.719 135.133 119.739C134.886 119.705 134.64 119.67 134.394 119.636C134.608 119.603 134.846 119.566 135.044 119.534C134.727 119.401 134.17 119.475 133.879 119.503C133.484 119.541 133.573 119.478 133.28 119.504C133.233 119.508 133.228 119.558 133.135 119.559C132.668 119.563 131.761 119.536 132.292 119.421C133.06 119.436 133.716 119.343 134.47 119.377C134.271 119.243 134.668 119.197 135.21 119.138ZM121.087 119.564C121.32 119.499 121.794 119.525 122.116 119.57C122.116 119.57 122.117 119.57 122.117 119.57C122.188 119.58 122.348 119.667 122.117 119.663C121.74 119.657 121.558 119.521 121.361 119.613C121.272 119.596 121.179 119.581 121.087 119.564ZM120.269 119.572C120.038 119.539 120.142 119.436 120.432 119.464C120.432 119.464 120.432 119.464 120.432 119.464C120.552 119.475 120.315 119.556 120.748 119.474C120.837 119.538 120.924 119.596 121.011 119.658C120.905 119.659 120.808 119.661 120.697 119.662C120.772 119.556 120.499 119.605 120.269 119.572ZM131.901 119.478C131.865 119.573 132.017 119.572 132.276 119.638C132.032 119.635 131.787 119.632 131.544 119.629C131.663 119.578 131.782 119.529 131.901 119.478ZM137.644 119.493C137.645 119.493 137.645 119.493 137.645 119.493C137.725 119.478 137.806 119.463 137.885 119.449C137.933 119.482 137.98 119.516 138.028 119.55C138.311 119.518 138.595 119.486 138.878 119.454C138.844 119.557 138.336 119.541 138.056 119.613C137.64 119.582 137.439 119.522 137.412 119.435C137.489 119.454 137.566 119.474 137.644 119.493ZM69.591 119.082C69.4964 119.111 69.4029 119.139 69.3083 119.168C69.4341 119.181 69.559 119.191 69.6858 119.206C70.0177 119.082 70.0489 119.192 70.4836 119.184C71.8162 119.16 71.4627 118.968 72.6662 119.25C71.7 119.237 72.0713 119.369 71.4887 119.472C71.368 119.394 71.9453 119.218 71.5541 119.182C70.8801 119.264 70.2319 119.341 69.484 119.394C69.5059 119.408 69.5276 119.421 69.5495 119.435C69.6681 119.426 69.7857 119.418 69.9043 119.409C69.7763 119.445 69.6512 119.481 69.5212 119.517C69.6856 119.435 69.2667 119.481 69.3227 119.387C69.3477 119.345 69.5328 119.287 69.6421 119.247C69.3602 119.226 69.0711 119.206 68.7861 119.185C68.9337 119.151 69.0813 119.118 69.2279 119.085C69.3485 119.084 69.4682 119.083 69.5888 119.082C69.5896 119.082 69.5903 119.082 69.591 119.082ZM8.92123 119.517C9.27911 119.42 9.92945 119.404 10.2717 119.512C9.82126 119.513 9.3717 119.515 8.92123 119.517ZM137.385 119.363C137.426 119.379 137.465 119.395 137.506 119.412C137.327 119.443 137.147 119.473 136.968 119.504C136.934 119.456 136.898 119.408 136.863 119.36C137.037 119.361 137.212 119.362 137.385 119.363ZM125.939 119.416C126.07 119.413 126.082 119.414 126.245 119.421C126.245 119.421 126.245 119.421 126.244 119.421C126.309 119.424 126.85 119.452 126.789 119.488C126.521 119.489 126.235 119.488 125.96 119.488C125.952 119.464 125.95 119.44 125.939 119.416ZM129.099 119.437C129.099 119.437 129.1 119.437 129.1 119.437C129.198 119.443 129.29 119.454 129.391 119.457C129.028 119.514 128.971 119.411 128.641 119.44C128.311 119.47 128.107 119.527 127.828 119.384C127.932 119.363 128.044 119.333 128.151 119.308C128.619 119.365 128.745 119.311 129.12 119.255C129.113 119.316 129.106 119.376 129.099 119.437ZM75.5241 119.37C75.6135 119.3 75.7133 119.369 75.7237 119.37C75.7235 119.37 75.7233 119.37 75.7231 119.37C76.5155 119.305 75.62 119.409 76.3679 119.42C76.2566 119.437 76.1471 119.456 76.0369 119.474C75.8664 119.44 75.6905 119.401 75.5241 119.37ZM101.271 119.377C101.279 119.397 101.287 119.418 101.295 119.438C100.845 119.434 100.731 119.514 100.357 119.441C100.662 119.419 100.967 119.398 101.271 119.377C101.271 119.377 101.271 119.377 101.271 119.377ZM123.674 119.267C124.173 119.228 124.541 119.21 125.02 119.272C125.02 119.273 125.02 119.273 125.021 119.273C125.048 119.277 124.915 119.319 124.951 119.33C125.05 119.324 125.152 119.314 125.251 119.306C125.265 119.341 125.278 119.375 125.291 119.409C125.01 119.399 124.729 119.39 124.448 119.38C124.489 119.4 124.532 119.42 124.573 119.44C124.334 119.45 124.096 119.461 123.857 119.471C123.94 119.415 124.023 119.358 124.105 119.302C123.961 119.29 123.818 119.279 123.674 119.267ZM93.7895 119.153C93.8685 119.175 93.7221 119.212 93.8449 119.232C93.9677 119.251 94.194 119.209 94.1409 119.272C93.9756 119.281 93.8021 119.29 93.6337 119.299C94.1756 119.413 94.7164 119.31 94.7247 119.451C94.2045 119.414 93.7768 119.431 93.2733 119.47C93.2941 119.358 93.7978 119.262 93.4807 119.157C93.5826 119.156 93.6896 119.154 93.7883 119.153C93.7887 119.153 93.7891 119.153 93.7895 119.153ZM144.665 117.964C144.973 117.972 145.679 117.927 146.068 117.992C146.164 118.008 146.483 118.215 146.481 118.242C146.472 118.335 146.082 118.347 146.499 118.407C146.359 118.408 146.223 118.411 146.084 118.413C146.109 118.475 146.133 118.536 146.157 118.598C146.327 118.589 146.497 118.579 146.666 118.57C146.675 118.59 146.683 118.611 146.691 118.631C146.082 118.632 146.441 118.711 146.125 118.785C146.416 118.822 146.71 118.859 147 118.896C146.833 118.892 146.635 118.888 146.487 118.883C146.467 118.988 146.82 118.963 146.88 118.982C147.22 119.092 145.489 119.037 145.347 119.189C145.623 119.206 145.914 119.223 146.197 119.24C146.116 119.259 146.033 119.277 145.952 119.296C145.31 119.191 144.591 119.154 143.843 119.088C143.775 119.092 143.708 119.097 143.641 119.101C143.661 119.148 143.679 119.196 143.699 119.243C143.597 119.248 143.494 119.254 143.392 119.26C143.693 119.104 143.276 119.106 142.774 119.01C143.041 118.956 143.371 118.989 143.348 118.887C142.431 118.965 141.356 118.854 140.464 118.943C140.242 118.965 140.243 119.097 139.722 119.085C139.74 119.07 139.743 119.044 139.754 119.025C138.853 119.088 138.307 119.126 137.37 119.061C137.424 119.109 137.478 119.156 137.532 119.204C137.73 119.18 137.929 119.156 138.127 119.133C138.262 119.211 138.062 119.245 138.655 119.244C139.141 119.244 138.852 119.209 138.984 119.186C139.163 119.154 139.32 119.217 139.512 119.181C139.661 119.154 139.5 119.09 139.888 119.106C139.732 119.19 139.573 119.276 139.416 119.361C139.321 119.342 139.227 119.323 139.133 119.304C139.228 119.281 139.322 119.259 139.418 119.237C139.081 119.277 138.763 119.315 138.414 119.357C138.528 119.236 138.167 119.281 137.972 119.295C137.667 119.318 137.928 119.234 137.728 119.248C137.529 119.262 137.313 119.355 136.952 119.335C137.146 119.282 136.883 119.233 136.933 119.184C136.984 119.134 137.366 119.123 136.999 119.069C136.294 119.11 137.059 119.299 136.583 119.33C136.011 119.367 135.875 119.058 136.045 118.992C136.18 118.94 136.641 118.95 136.777 118.898C135.95 118.805 135.942 118.99 135.801 119.026C135.287 119.158 135.632 118.806 135.024 118.933C135.035 118.867 135.044 118.808 135.056 118.745C134.951 118.757 134.881 118.773 134.754 118.783C135.128 118.911 134.822 118.905 134.665 118.906C134.417 118.906 134.8 118.968 134.734 118.985C134.557 119.028 134.278 119.008 134.449 119.065C134.372 119.038 134.289 119.012 134.21 118.986C133.92 119.019 133.241 119.293 133.888 119.238C133.827 119.34 133.618 119.291 133.455 119.275C133.291 119.26 133.294 119.325 133.151 119.313C132.58 119.265 132.953 119.154 133.044 119.067C132.29 119.127 133.028 119.166 131.941 119.206C131.836 119.277 132.338 119.353 131.92 119.394C131.843 119.271 131.535 119.182 130.935 119.141C130.877 119.17 130.819 119.198 130.76 119.227C130.433 119.113 130.6 118.994 129.994 119.135C130.319 118.876 130.095 119.042 129.552 118.936C129.442 118.915 129.697 118.861 129.543 118.834C129.473 118.821 129.304 118.862 129.133 118.831C129.05 118.815 128.661 118.715 128.391 118.762C128.589 118.888 128.077 118.995 128.516 119.099C127.705 119.074 127.137 119.134 128.046 118.963C127.84 118.925 127.634 118.887 127.428 118.849C127.284 118.879 127.14 118.909 126.995 118.938C126.973 118.835 126.995 118.806 126.429 118.824C126.675 118.8 126.919 118.775 127.166 118.75C127.174 118.729 127.208 118.708 127.2 118.687C126.898 118.727 126.048 118.744 125.842 118.772C125.636 118.799 126.034 118.807 125.975 118.833C125.481 119.054 125.52 118.891 125.165 118.929C124.957 118.951 125.454 118.976 125.343 118.985C124.93 119.02 124.739 118.903 124.373 118.902C124.503 118.968 124.632 119.035 124.759 119.103C124.375 119.099 123.947 119.098 123.59 119.12C123.45 119.128 123.556 119.177 123.533 119.181C123.419 119.198 122.957 119.225 122.909 119.225C122.541 119.225 122.53 119.157 122.172 119.153C122.313 119.147 122.445 119.142 122.582 119.136C122.644 119.026 122.708 118.915 122.771 118.803C122.42 118.795 122.069 118.787 121.718 118.779C121.975 118.816 122.233 118.853 122.489 118.89C122.088 118.98 121.686 119.07 121.285 119.16C121.076 119.105 120.867 119.05 120.658 118.994C120.09 119.009 120.205 119.233 119.935 119.037C119.768 119.053 119.601 119.07 119.433 119.086C119.457 119.058 119.481 119.03 119.505 119.002C119.303 119.019 119.101 119.037 118.899 119.054C119.111 119.153 119.319 119.257 119.53 119.353C119.132 119.374 119.125 119.291 119.066 119.27C118.908 119.214 118.597 119.289 118.472 119.238C118.43 119.22 118.819 119.165 118.685 119.101C118.659 119.089 118.137 118.854 117.805 118.909C117.811 118.951 117.837 119.003 117.85 119.049C117.403 119.075 117.175 118.853 117.234 118.791C116.996 118.835 116.648 118.838 116.599 118.906C116.477 118.908 116.357 118.91 116.235 118.911C116.362 118.746 115.854 118.776 115.821 118.918C116.03 118.922 116.239 118.926 116.448 118.929C116.29 119.103 116.926 119.209 115.603 119.047C115.351 118.956 116.053 119.059 115.847 118.992C115.489 118.952 115.153 118.985 114.813 118.922C114.39 118.843 114.91 118.767 113.924 118.868C116.1 119.119 113.626 119.038 112.604 119.116C112.323 118.867 111.461 118.789 110.272 118.862C110.396 118.932 110.77 118.896 110.985 118.919C111.201 118.941 110.968 118.982 111.236 119.015C111.504 119.047 112.074 119.091 112.346 119.14C112.116 119.179 110.98 119.271 111.731 119.16C111.171 119.092 110.907 119.021 110.213 119.009C110.005 119.116 110.02 119.184 109.343 119.187C109.743 119.037 108.974 118.933 109.143 118.778C109.623 118.814 109.355 118.964 109.633 119.036C109.661 119.044 110.109 119.006 110.213 119.009C109.761 118.873 109.605 118.823 109.883 118.662C109.563 118.676 109.365 118.656 109.336 118.733C109.269 118.7 109.202 118.666 109.137 118.633C109.033 118.634 108.939 118.637 108.829 118.636C108.981 118.752 108.686 118.681 108.477 118.733C108.268 118.786 108.549 118.877 107.975 118.879C108.166 118.906 108.341 118.929 108.526 118.955C108.156 118.984 107.784 119.014 107.414 119.044C107.674 119.115 108.238 119.22 108.222 119.313C108.052 119.278 107.467 119.34 107.404 119.342C107.156 119.352 107.291 119.293 107.272 119.292C106.883 119.263 106.563 119.283 106.415 119.194C106.123 119.234 105.902 119.211 105.592 119.214C105.422 119.215 105.455 119.28 105.355 119.268C104.691 119.185 105.324 119.101 104.043 119.261C104.198 119.307 104.351 119.354 104.506 119.4C104.362 119.417 104.218 119.434 104.073 119.451C103.977 119.443 103.881 119.435 103.784 119.426C103.786 119.328 103.789 119.229 103.791 119.13C103.684 119.124 103.578 119.119 103.472 119.114C103.654 119.104 103.836 119.094 104.018 119.085C104.035 119.067 104.051 119.05 104.067 119.033C103.797 119.006 103.527 118.979 103.257 118.951C103.252 118.986 103.246 119.02 103.241 119.055C102.632 119.007 102.617 118.978 102.038 119.072C101.591 119.071 101.228 119.215 100.97 119.275C100.877 119.256 100.785 119.237 100.691 119.217C100.632 119.246 100.572 119.274 100.512 119.303C100.395 119.263 100.276 119.223 100.158 119.184C100.093 119.274 100.059 119.302 100.517 119.334C100.36 119.446 99.5528 119.397 99.2241 119.359C98.9747 119.33 99.2514 119.237 99.2202 119.225C99.1161 119.187 98.705 119.22 98.6187 119.214C98.2536 119.187 97.9977 119.192 97.6679 119.171C97.6037 119.167 97.4243 119.108 97.409 119.106C97.2904 119.096 96.9977 119.067 96.9644 119.066C95.2472 119.022 97.0821 119.279 95.4853 119.252C95.5332 119.286 95.5771 119.319 95.6239 119.353C95.5033 119.355 95.3814 119.357 95.2608 119.359C95.1079 119.331 95.2929 119.28 94.9891 119.321C95.0089 119.279 95.0288 119.238 95.0496 119.196C94.9175 119.218 94.7901 119.241 94.6549 119.263C94.4426 119.118 93.6678 119.085 93.7229 118.915C93.7416 118.857 94.2909 118.798 94.0007 118.736C93.7648 118.724 93.9245 118.793 93.8283 118.796C93.1333 118.822 93.1737 118.725 92.8897 118.75C92.845 118.792 92.798 118.834 92.7522 118.876C92.6451 118.864 92.5377 118.852 92.4295 118.84C92.4046 118.868 92.3786 118.896 92.3536 118.924C92.4545 118.926 92.5681 118.927 92.6607 118.929C92.5316 119.038 91.346 119.086 91.7981 118.994C91.9822 118.956 92.3194 118.972 92.1063 118.844C91.789 118.863 91.4291 118.882 91.0951 118.9C91.0847 118.873 91.075 118.845 91.0646 118.818C90.6146 118.835 91.0239 118.945 91.0231 119.004C90.9201 119.006 90.8161 119.007 90.7132 119.009C90.6695 118.982 90.628 118.955 90.5823 118.929C90.5781 118.971 90.5205 119.07 90.2137 119.033C90.0164 119.009 90.3271 118.902 89.9509 118.917C89.979 118.983 90.1149 119.064 89.6959 119.085C89.6543 119.016 89.5967 118.953 89.5645 118.88C89.0434 118.947 88.8063 118.84 88.1946 118.917C87.8066 118.966 87.275 119.139 87.0243 118.872C86.7404 118.865 86.8305 118.932 86.7465 118.947C86.3502 119.017 86.0553 118.891 85.9815 118.883C85.5104 118.836 85.2992 118.879 84.9154 118.82C84.9362 118.869 84.9475 118.916 84.9642 118.964C85.3158 118.89 85.4939 118.893 85.987 118.909C85.8216 118.919 85.6562 118.93 85.4908 118.939C85.5179 118.98 85.5447 119.02 85.5707 119.06C87.0958 118.902 86.74 119.151 85.4615 119.206C85.3512 119.132 85.2369 119.058 85.1277 118.983C84.3891 119.096 84.0415 118.998 83.2062 118.975C83.1069 118.972 82.7452 119.015 82.5897 119.017C82.5923 119.017 82.5949 119.017 82.5975 119.018C82.5008 119.088 82.6318 119.12 82.6474 119.183C82.5632 119.191 82.4788 119.199 82.3946 119.206C82.2064 119.159 82.2726 119.119 81.9023 119.131C81.9522 119.178 82.0015 119.226 82.0514 119.274C81.6457 119.275 81.3802 119.223 81.0025 119.246C81.066 119.228 81.1287 119.21 81.1921 119.192C80.3703 119.146 81.0243 118.866 80.4032 119.005C80.3637 118.981 80.3252 118.956 80.2857 118.932C80.5416 118.926 80.7976 118.92 81.0524 118.914C81.0576 118.879 81.0632 118.845 81.0674 118.81C80.7938 118.821 80.5189 118.831 80.2452 118.842C80.445 118.819 80.6459 118.795 80.8456 118.772C80.5284 118.756 80.211 118.739 79.8938 118.723C80.2307 118.85 79.7939 118.865 79.876 118.991C79.3142 118.886 78.873 118.748 78.0022 118.837C77.8296 118.854 77.9234 118.942 77.4334 118.835C77.552 118.975 76.9382 119.041 77.017 119.174C77.1876 119.167 77.3645 119.163 77.5299 119.155C77.3416 119.109 77.3104 118.982 77.5964 118.945C77.9615 118.897 78.4941 118.985 78.4723 118.844C78.6179 118.85 78.7533 118.854 78.8948 118.86C78.8365 118.895 78.7795 118.93 78.7223 118.965C79.1248 118.91 79.3776 118.928 79.5711 119.016C79.0916 119.036 78.6131 119.056 78.1336 119.076C78.2042 119.082 78.2758 119.088 78.3465 119.094C77.9834 119.184 78.3579 119.27 77.6807 119.289C77.6848 119.248 77.6882 119.206 77.6923 119.165C77.4457 119.275 76.7707 119.275 76.986 119.401C76.7821 119.362 76.7406 119.338 76.6251 119.406C76.0873 119.31 75.7418 119.188 75.9332 119.043C75.7335 119.066 75.5337 119.09 75.335 119.113C75.4505 119.153 75.5661 119.192 75.6815 119.232C75.334 119.229 74.9841 119.227 74.6376 119.225C74.6044 119.107 75.3064 119.189 75.1039 119.084C75.0633 119.063 74.8763 119.108 74.8272 119.096C74.3092 118.968 75.1224 119.061 74.9697 118.962C74.1978 118.932 74.8155 118.767 73.7523 118.905C73.7242 118.871 73.694 118.837 73.668 118.803C73.2989 118.801 73.3288 118.878 73.0116 118.892C72.8129 118.901 72.5636 118.766 72.3441 118.858C72.305 118.875 72.6741 119.04 71.8984 119.032C71.2964 119.027 71.5469 118.91 71.2215 118.869C70.8959 118.828 70.151 118.989 69.9314 118.807C70.102 118.831 70.3193 118.844 70.5086 118.864C70.5855 118.828 70.6605 118.793 70.7364 118.757C70.3036 118.803 69.8563 118.749 69.565 118.834C68.9876 118.704 68.3419 118.825 68.5166 118.971C68.7067 118.95 68.4999 118.886 68.7639 118.927C68.791 118.961 68.8194 118.995 68.8465 119.029C68.3971 119.025 68.085 119.026 68.2899 118.922C68.2202 118.92 68.1512 118.917 68.0815 118.915C68.069 118.99 68.0579 119.066 68.0454 119.141C67.9622 119.149 67.8786 119.158 67.7954 119.166C67.7029 119.15 67.6101 119.133 67.5165 119.116C67.6424 118.997 67.8568 118.993 67.1473 118.926C67.1452 118.968 67.1422 119.009 67.1401 119.05C66.5461 118.997 66.5304 118.898 65.7846 118.901C66.3568 118.758 66.6698 119.012 66.6678 118.725C66.8114 118.744 66.9561 118.763 67.0996 118.782C67.1215 118.74 67.1431 118.698 67.1639 118.657C66.3931 118.679 65.1127 118.952 64.5966 118.771C64.5342 118.793 64.4715 118.812 64.4081 118.836C63.9025 118.727 63.6841 118.973 63.1713 118.831C63.1183 118.816 63.2291 118.585 62.5614 118.593C62.5781 118.623 62.5867 118.674 62.6002 118.712C62.4557 118.693 62.3119 118.674 62.1684 118.655C62.1424 118.683 62.1151 118.711 62.0891 118.739C62.3357 118.749 62.5815 118.76 62.8281 118.771C62.6232 118.781 62.417 118.79 62.2122 118.8C62.4795 118.845 62.6 118.845 62.4389 118.918C62.2069 118.922 61.9746 118.927 61.7426 118.931C61.7187 118.95 61.695 118.969 61.6711 118.987C61.7834 119.043 61.8969 119.097 62.0093 119.153C61.4048 119.108 60.8794 119.106 60.4154 118.997C60.3363 118.978 60.616 118.906 60.0772 118.971C60.0689 118.933 60.0544 118.902 60.0451 118.866C59.3855 118.974 59.1688 118.942 58.4811 118.864C58.9264 118.936 58.5291 118.889 58.4157 118.928C58.338 118.955 58.6413 118.951 58.607 118.979C58.5727 119.006 58.1786 119.118 58.5155 119.132C59.3416 118.902 59.5666 119.177 60.6277 119.067C60.4644 119.096 60.2999 119.126 60.1365 119.155C60.2135 119.175 60.2823 119.194 60.3655 119.215C59.7737 119.17 60.0615 119.199 59.8183 119.235C59.5749 119.27 59.1324 119.3 58.836 119.31C58.7426 119.313 58.8411 119.261 58.6303 119.257C58.4867 119.253 58.0944 119.33 58.0038 119.24C57.9445 119.181 58.5748 119.02 57.7033 119.02C57.5393 118.963 57.9571 118.981 57.9661 118.974C58.0421 118.905 57.5063 118.854 57.2587 118.906C57.2387 118.911 57.4342 118.964 57.2216 118.985C56.717 119.035 56.4256 118.974 56.0989 118.891C56.0636 118.988 55.639 119.104 55.1105 119.068C55.0834 119.095 55.0577 119.123 55.0306 119.151C55.1127 119.137 55.1947 119.122 55.2768 119.108C55.3663 119.125 55.461 119.138 55.5484 119.158C55.017 119.182 54.9418 119.315 54.6869 119.364C53.8148 119.531 54.3433 119.178 54.5007 119.117C54.614 119.142 54.7237 119.169 54.8361 119.195C54.8236 119.162 54.8109 119.128 54.7995 119.094C53.4939 119.095 54.6006 118.875 53.938 118.812C53.7673 118.978 53.2806 118.994 52.6606 118.889C52.592 118.889 52.5231 118.89 52.4544 118.891C52.443 118.915 52.4432 118.952 52.4245 118.968C51.6775 118.996 51.5445 118.74 51.4737 118.716C51.1596 118.609 50.9149 118.757 50.8223 118.759C50.4322 118.764 50.3188 118.698 49.9475 118.726C49.5481 118.757 49.8212 118.807 49.6997 118.853C49.6022 118.889 49.2871 118.895 49.1569 118.932C49.2086 118.902 49.2661 118.872 49.3177 118.841C48.9037 118.8 48.5654 118.759 48.0953 118.749C47.5647 118.972 47.1134 118.596 47.2964 118.901C47.7417 118.922 47.9906 118.957 48.2289 119.035C47.9366 119.045 47.6441 119.054 47.3518 119.064C47.2666 119.031 47.206 118.998 47.1051 118.964C46.8867 119.035 46.3803 119.004 46.1815 119.025C45.2504 119.123 45.5385 119.245 44.6886 119.041C45.3011 119.021 45.3002 118.922 45.9077 118.935C45.7766 118.865 45.4679 118.879 45.6676 118.794C45.0799 118.815 45.2699 118.891 45.0412 118.958C44.8439 119.016 44.4466 119.019 44.469 119.095C44.4284 119.053 44.397 119.013 44.3565 118.972C43.9758 118.972 43.5951 118.972 43.2145 118.973C43.3767 118.93 43.5389 118.886 43.7012 118.843C43.5786 118.827 43.4557 118.811 43.3331 118.794C42.3968 118.929 40.7822 118.682 41.0402 119.02C40.5887 119.031 40.5322 118.988 40.2867 118.925C40.2597 118.95 40.2334 118.972 40.2064 119C39.9151 118.973 39.6916 119.07 39.4347 119.045C39.1778 119.02 39.114 118.929 39.0765 119.082C38.9101 119.038 38.7446 119.001 38.5792 118.961C38.4794 118.995 38.3797 119.03 38.281 119.064C38.1249 119.046 37.9686 119.028 37.8125 119.01C37.7291 119.083 37.1156 119.051 36.8451 119.1C36.5884 119.021 36.5954 118.774 35.9914 118.818C36.007 118.88 36.0223 118.941 36.0379 119.002C35.8996 118.989 35.761 118.977 35.6216 118.964C35.6133 118.944 35.6061 118.924 35.5977 118.904C35.6685 118.91 35.7382 118.916 35.809 118.922C35.7476 118.889 35.6875 118.855 35.6271 118.821C35.416 118.871 35.2045 118.921 34.9924 118.972C35.2784 119.01 35.5645 119.048 35.8505 119.086C35.4916 119.131 35.2418 119.086 34.9297 119.136C34.6582 119.051 34.7585 119.003 34.8687 118.911C34.7679 118.918 34.6658 118.926 34.5649 118.934C34.6315 118.842 34.4608 118.787 35.0506 118.794C35.01 118.768 34.9687 118.743 34.9292 118.716C34.8324 118.72 34.7697 118.698 34.6636 118.708C34.3744 118.735 34.1526 118.897 34.1724 118.954C34.1831 118.984 34.4683 118.927 34.4568 118.969C34.4286 119.071 33.7744 119.025 34.7179 119.128C34.4048 119.193 34.3349 119.144 33.9895 119.125C34.0165 119.159 34.0428 119.193 34.0687 119.228C33.9086 119.212 33.7482 119.196 33.5881 119.18C33.8107 119.005 32.6299 118.939 33.6929 118.786C33.3788 118.778 33.0657 118.77 32.7526 118.762C32.8171 118.744 32.8816 118.726 32.9461 118.708C33.0876 118.718 33.2282 118.727 33.3697 118.736C33.2033 118.703 33.0366 118.671 32.8702 118.638C32.4769 118.678 32.3228 118.741 32.1428 118.819C32.6004 118.875 32.4509 118.798 32.8075 118.783C32.7951 118.832 32.8115 118.877 32.7804 118.928C32.5961 118.827 31.995 118.901 31.8556 118.906C31.4314 118.921 31.7641 118.821 31.4803 118.819C31.1963 118.817 30.8613 118.876 30.6293 118.777C30.6335 118.833 30.6521 118.89 30.6687 118.94C30.2266 118.959 30.3148 118.893 30.269 118.885C29.5387 118.745 29.1424 118.863 28.307 118.877C28.4131 118.894 28.5203 118.91 28.6274 118.926C27.9972 119.044 28.4218 119.008 28.9689 119.047C28.4561 119.035 28.1623 119.135 27.8003 119.165C27.4383 119.195 26.8175 119.143 26.5906 119.103C27.1098 119.038 27.6697 119.081 28.246 119.063C28.1805 119.007 28.1168 118.959 28.0492 118.897C27.6987 119.015 27.4956 118.936 27.3801 118.92C27.041 118.874 27.0517 118.976 26.8468 118.867C26.8551 118.904 26.8612 118.936 26.8695 118.971C26.1694 118.955 25.4142 118.889 24.9585 119.028C24.9169 118.937 24.8855 118.85 24.8377 118.758C24.5412 118.826 24.2873 118.756 24.0377 118.772C23.7891 118.788 23.8837 118.861 23.5914 118.889C23.5373 118.895 23.4246 118.849 23.2915 118.883C23.157 118.916 22.6611 119.169 22.6018 118.948C22.3511 118.947 22.1139 118.939 21.8684 118.936C22.1076 118.923 22.347 118.911 22.5852 118.899C22.3813 118.845 22.1787 118.792 21.9748 118.739C21.9488 118.786 21.9227 118.835 21.8978 118.882C21.3485 118.94 20.9498 118.862 20.3954 118.88C20.3028 118.883 20.5212 118.977 20.1104 118.953C19.6995 118.929 19.3946 118.754 18.6945 118.822C18.6591 118.825 18.4518 118.96 18.2011 118.867C18.144 118.845 18.3842 118.814 18.2532 118.786C18.1221 118.759 17.5373 118.736 17.4915 118.67C17.4977 118.693 17.5342 118.718 17.5519 118.741C17.4521 118.753 17.3512 118.764 17.2503 118.775C17.241 118.733 17.2309 118.692 17.2215 118.651C16.6473 118.747 16.3505 118.903 15.4996 118.852C15.7388 118.911 15.9782 118.972 16.2164 119.031C16.2819 118.989 16.3476 118.947 16.4121 118.905C16.8042 118.922 17.1975 118.938 17.5896 118.955C17.6541 118.907 17.7175 118.86 17.782 118.812C17.886 118.818 17.989 118.824 18.093 118.83C18.067 118.865 18.0408 118.899 18.0137 118.934C18.2197 118.925 18.4259 118.917 18.6308 118.908C18.2136 119.112 17.4658 118.891 17.5198 119.062C17.4272 119.035 17.3346 119.008 17.242 118.982C17.2014 119.064 17.0132 119.041 16.6815 119.028C16.7575 119.068 16.8413 119.109 16.911 119.15C16.5885 119.092 16.0165 119.098 15.6825 119.076C15.5359 119.066 15.6824 119.006 15.6387 118.999C15.4151 118.962 14.9875 119.067 14.8981 119.058C14.3634 119.009 14.0159 118.811 13.4323 118.942C14.0346 118.974 13.7069 118.96 13.9212 119.033C13.9883 119.056 14.7665 119.103 13.7921 119.082C13.6778 119.079 11.9097 118.942 12.4909 118.837C12.2048 118.871 11.9808 118.909 11.7187 118.945C11.0778 118.668 11.2996 118.928 11.4858 119.072C11.3807 119.072 11.2808 119.074 11.1726 119.074C11.4025 118.923 10.2312 118.914 9.83375 118.99C9.7006 119.015 10.0729 119.063 9.76501 119.086C9.61838 119.075 9.45204 119.062 9.29711 119.05C9.52181 119.145 9.08082 119.182 9.087 119.279C8.80509 119.192 8.58946 119.009 8.74439 118.91C8.51139 118.95 8.27719 118.991 8.0442 119.031C8.15239 119.054 8.26198 119.077 8.37017 119.1C7.60864 119.039 6.62947 119.177 6.47029 118.974C6.36938 118.975 6.2674 118.976 6.16649 118.978C6.13528 119.012 6.10512 119.047 6.07391 119.081C5.6173 119.051 5.16173 119.021 4.70513 118.991C5.11169 118.97 5.20847 118.921 5.63483 118.961C5.47053 118.921 5.30317 118.882 5.14198 118.842C4.5001 118.949 4.41254 119.018 3.44612 118.987C3.40242 118.985 2.67221 118.896 2.64725 118.887C2.53286 118.848 2.7065 118.79 2.65556 118.77C2.51407 118.714 1.65433 118.572 1.67097 118.551C1.88112 118.289 4.77377 118.286 5.55611 118.272C13.6707 118.133 21.6066 118.319 29.6702 118.288C29.7531 118.287 29.717 118.248 29.7523 118.247C29.9718 118.237 30.1873 118.297 30.2684 118.3C30.4418 118.305 30.3463 118.249 30.473 118.249C31.7817 118.25 33.0168 118.283 34.3265 118.273C34.4118 118.272 34.3247 118.317 34.4746 118.309C34.5519 118.305 34.794 118.237 34.9685 118.235C35.5781 118.232 36.0902 118.254 36.7331 118.253C37.0848 118.252 37.6123 118.258 38.0054 118.257C38.1791 118.257 38.36 118.225 38.5316 118.224C38.775 118.223 38.7253 118.286 38.7627 118.29C38.9271 118.307 38.9499 118.238 39.1059 118.239C39.3961 118.243 39.4118 118.289 39.78 118.285C40.0432 118.282 40.6456 118.246 40.9775 118.235C41.7536 118.289 42.7316 118.267 43.4556 118.25C43.8842 118.239 43.9239 118.304 44.0987 118.304C44.7145 118.302 45.1818 118.22 45.7602 118.217C46.5278 118.213 47.208 118.268 47.9517 118.272C48.0723 118.273 48.0446 118.213 48.1629 118.212C48.6009 118.206 49.161 118.195 49.5511 118.204C49.9859 118.213 50.1463 118.299 50.5717 118.282C50.6965 118.277 50.733 118.201 50.942 118.191C51.2759 118.176 51.6421 118.243 51.8751 118.25C52.1945 118.26 51.9167 118.183 52.3474 118.193C52.3651 118.194 52.4296 118.249 52.522 118.246C52.7915 118.239 52.7647 118.195 53.159 118.199C53.1969 118.2 53.7197 118.253 53.7716 118.253C54.0775 118.254 54.6933 118.272 54.8743 118.261C55.5214 118.221 55.012 118.138 55.5623 118.318C55.8046 118.274 56.045 118.23 56.3019 118.187C56.1304 118.227 56.8262 118.284 56.8751 118.281C57.2795 118.251 57.0386 118.18 57.5514 118.192C56.8742 118.354 58.2131 118.213 58.5116 118.209C59.9493 118.189 61.2562 118.229 62.7011 118.228C63.1849 118.228 63.8331 118.193 64.3449 118.194C64.4642 118.194 64.374 118.233 64.4791 118.233C64.5838 118.234 64.4676 118.191 64.5872 118.193C65.331 118.208 65.9138 118.289 66.5951 118.188C66.6283 118.203 66.6272 118.214 66.6822 118.23C67.2398 118.139 68.3137 118.262 68.7173 118.278C69.3487 118.304 69.5099 118.243 69.9686 118.255C70.5751 118.272 71.4857 118.392 71.079 118.194C71.4951 118.188 71.8956 118.186 72.3159 118.204C72.3626 118.206 72.3304 118.257 72.3491 118.258C72.4677 118.265 72.5063 118.22 72.5864 118.218C72.8036 118.212 72.4492 118.266 72.7588 118.251C72.9221 118.243 73.0149 118.204 73.4684 118.203C76.2024 118.199 79.1706 118.213 81.9733 118.219C82.1657 118.22 82.039 118.171 82.2804 118.174C83.1189 118.185 84.6198 118.267 85.3428 118.256C86.0658 118.245 85.9027 118.173 86.3551 118.144C86.4425 118.138 86.3709 118.178 86.4499 118.179C86.9815 118.183 87.6153 118.246 88.046 118.256C88.3308 118.262 88.308 118.198 88.5056 118.194C88.8 118.187 89.103 118.251 89.2601 118.253C89.9987 118.263 90.5063 118.211 91.196 118.237C91.169 118.223 91.1512 118.21 91.1284 118.196C91.945 118.198 92.7605 118.201 93.5771 118.203C93.5386 118.19 93.5014 118.177 93.4629 118.164C94.421 118.171 94.3117 118.31 94.2274 118.017C94.2971 118.006 94.371 117.994 94.4375 117.985C94.4105 118.136 94.9901 118.247 95.7276 118.285C95.7817 118.288 96.1446 118.141 96.1051 118.315C96.1998 118.272 96.2562 118.243 96.3363 118.205C96.4923 118.258 96.6504 118.31 96.8064 118.363C96.8907 118.355 96.9761 118.347 97.0603 118.34C97.0728 118.305 97.0632 118.27 97.0903 118.236C97.4814 118.231 98.2836 118.274 98.5927 118.269C99.3604 118.258 100.142 118.166 100.739 118.266C101.03 118.255 100.741 118.188 101.174 118.197C101.223 118.231 101.269 118.263 101.32 118.298C101.673 118.147 101.747 118.239 102.232 118.271C102.559 118.292 102.774 118.255 103.086 118.262C103.165 118.264 103.154 118.309 103.208 118.307C103.389 118.303 103.906 118.241 104.034 118.24C105.193 118.224 106.188 118.231 107.292 118.247C107.411 118.249 107.257 118.205 107.38 118.206C107.577 118.209 107.461 118.277 107.575 118.28C107.895 118.289 107.897 118.218 108.342 118.214C109.808 118.202 111.493 118.255 113.024 118.26C113.072 118.26 113.069 118.218 113.121 118.218C113.461 118.216 113.804 118.272 114.112 118.272C114.622 118.271 115.006 118.212 115.511 118.213C116.497 118.213 117.378 118.243 118.393 118.244C119.223 118.246 119.944 118.24 120.854 118.241C124.83 118.241 128.888 118.109 132.891 118.179C132.993 118.181 132.951 118.218 132.982 118.216C133.278 118.201 133.304 118.151 133.409 118.255C133.786 118.234 133.904 118.156 134.359 118.162C134.601 118.165 134.42 118.286 134.83 118.223C135.2 118.167 134.792 118.1 135.892 118.168C135.921 118.17 136.065 118.244 136.294 118.225C136.524 118.206 136.257 118.153 136.811 118.137C138.11 118.1 139.755 118.164 141.265 118.144C141.36 118.143 142.272 118.103 142.452 118.085C142.8 118.05 142.727 117.995 143.18 117.981C143.529 117.971 143.818 118.033 144.229 118.021C144.277 118.019 144.357 117.955 144.665 117.964ZM68.0826 119.206C67.9972 119.269 67.8433 119.5 67.3275 119.43C67.2786 119.423 67.5425 119.264 67.2576 119.239C67.5364 119.222 67.8079 119.217 68.0826 119.206C68.0826 119.206 68.0826 119.206 68.0826 119.206ZM146.901 119.437C146.515 119.425 146.128 119.414 145.742 119.402C146.008 119.374 146.275 119.346 146.54 119.318C146.661 119.358 146.781 119.397 146.901 119.437ZM98.8549 119.327C98.8552 119.327 98.8556 119.327 98.856 119.327C98.4503 119.357 98.0443 119.387 97.6386 119.417C97.6812 119.395 97.724 119.373 97.7666 119.351C98.087 119.316 98.4075 119.282 98.7268 119.247C98.7695 119.274 98.8122 119.3 98.8549 119.327ZM102.06 119.095C102.319 119.121 102.256 119.165 102.399 119.208C102.399 119.208 102.399 119.208 102.399 119.207C102.436 119.219 102.611 119.228 102.679 119.23C102.654 119.203 102.622 119.175 102.595 119.148C103.199 119.081 104.381 119.318 102.851 119.414C102.874 119.379 102.896 119.344 102.919 119.31C102.158 119.319 101.31 119.244 102.06 119.095ZM61.9677 119.306C61.3185 119.42 61.1103 119.444 60.3228 119.366C60.4341 119.334 60.5453 119.302 60.6566 119.269C60.7866 119.302 60.9157 119.335 61.0457 119.368C61.0461 119.368 61.0465 119.368 61.0468 119.368C61.0729 119.333 61.0989 119.299 61.1239 119.264C61.4048 119.278 61.6868 119.292 61.9677 119.306ZM126.91 119.177C127.091 119.404 127.039 119.272 126.522 119.324C126.343 119.341 126.518 119.381 126.406 119.388C125.805 119.424 125.757 119.272 125.891 119.192C126.231 119.187 126.575 119.182 126.909 119.177C126.909 119.177 126.91 119.177 126.91 119.177ZM142.507 119.13C142.507 119.13 142.507 119.13 142.508 119.13C142.523 119.185 142.281 119.2 142.554 119.253C142.346 119.253 142.139 119.252 141.93 119.252C141.991 119.247 142.053 119.242 142.115 119.237C142.061 119.218 142.006 119.198 141.952 119.179C141.878 119.243 141.81 119.206 141.591 119.185C141.652 119.253 141.712 119.321 141.772 119.389C141.518 119.369 141.264 119.348 141.01 119.328C141.007 119.311 141.004 119.294 141 119.277C140.905 119.299 140.81 119.321 140.714 119.343C140.688 119.322 140.663 119.302 140.637 119.281C140.522 119.297 140.406 119.312 140.291 119.328C140.256 119.278 140.51 119.257 140.059 119.27C140.197 119.219 140.335 119.168 140.475 119.117C141.152 119.121 141.829 119.126 142.507 119.13ZM122.208 119.247C122.954 119.238 122.744 119.273 122.572 119.386C122.451 119.34 122.329 119.293 122.208 119.247ZM83.7795 119.147C83.5631 119.224 83.3458 119.3 83.1242 119.374C82.6831 119.417 82.2418 119.277 82.5737 119.222C82.9732 119.156 83.3904 119.23 83.7795 119.147ZM73.7329 119.181C74.2725 119.217 73.7648 119.308 73.6431 119.361C73.4938 119.276 73.2856 119.283 72.9512 119.273C73.2652 119.268 73.6436 119.175 73.7329 119.181C73.7329 119.181 73.7329 119.181 73.7329 119.181ZM92.4645 119.233C92.6807 119.231 92.8959 119.209 93.0893 119.235C93.0309 119.309 92.6441 119.242 92.9207 119.351C92.7824 119.353 92.6439 119.355 92.5066 119.357C92.5938 119.312 92.4765 119.278 92.465 119.233C92.4649 119.233 92.4646 119.233 92.4645 119.233ZM114.981 119.334C114.557 119.247 114.477 119.284 114.049 119.344C113.989 119.273 114.499 119.155 114.818 119.129C114.872 119.197 114.926 119.265 114.981 119.334ZM14.5837 119.297C14.6857 119.207 15.4376 119.195 15.8111 119.222C15.7667 119.235 15.722 119.249 15.6775 119.263C15.3134 119.274 14.9479 119.286 14.5837 119.297ZM72.7921 119.267C72.848 119.27 72.9011 119.272 72.9512 119.273C72.8955 119.274 72.8417 119.273 72.7921 119.267ZM50.1931 118.875C50.3709 118.79 49.8423 118.762 50.4841 118.795C50.4841 118.795 50.4841 118.795 50.4841 118.795C50.9086 118.817 51.0023 118.823 51.3955 118.829C51.254 118.939 50.4562 118.978 51.5558 119C51.5702 119 51.5414 118.935 51.7171 118.944C51.7713 118.947 51.9449 119 52.2088 119.016C52.2941 119.021 52.9352 119.037 52.0614 119.038C52.0874 119.114 52.0404 119.192 52.0425 119.265C51.7014 119.287 51.4393 119.138 51.0784 119.141C50.5427 119.147 50.27 119.298 50.167 119.1C50.6175 119.052 51.3911 119.05 51.492 119.169C51.9278 119.171 52.053 119.073 51.7016 119.025C50.1962 119.086 51.2883 118.88 49.9702 118.958C49.9546 118.986 49.9004 119.015 49.9087 119.041C49.5063 118.944 50.1296 118.906 50.1931 118.875ZM53.3409 119.086C53.0808 119.144 52.8216 119.203 52.5625 119.261C52.5625 119.166 52.7053 119.081 53.1152 119.028C53.1901 119.047 53.266 119.067 53.3409 119.086ZM31.4626 119.111C31.4251 119.162 31.3253 119.21 31.2525 119.259C31.1734 119.215 29.3007 119.173 30.2535 119.131C30.3918 119.125 31.2358 119.216 31.4626 119.111ZM117.929 119.256C117.708 119.221 117.488 119.187 117.269 119.152C117.607 119.13 117.945 119.108 118.283 119.085C118.164 119.142 118.047 119.199 117.929 119.256ZM80.1892 119.056C80.2824 119.058 79.973 119.129 80.34 119.118C80.0664 119.163 79.8102 119.202 79.5428 119.244C79.4627 119.211 79.3818 119.177 79.3017 119.144C79.2392 119.165 79.1756 119.187 79.1132 119.208C79.1507 119.16 79.184 119.112 79.2235 119.062C79.674 119.167 79.7773 119.048 80.1892 119.056ZM93.5838 118.865C93.6648 118.972 93.0125 119.035 93.6542 119.052C93.5325 119.121 93.3368 119.158 92.9612 119.164C92.9009 119.137 92.8407 119.111 92.7805 119.084C92.7721 119.156 92.6755 119.182 92.4645 119.233C92.4643 119.233 92.4641 119.233 92.4639 119.233C91.893 119.238 91.9271 119.214 91.7898 119.097C92.3942 119.163 92.4123 119.056 92.8243 118.992C93.1072 118.948 93.4766 118.968 93.5838 118.865ZM33.4578 119.11C33.0304 119.199 33.414 119.283 32.6556 119.188C32.7045 119.165 32.7536 119.142 32.8025 119.119C33.021 119.116 33.2394 119.113 33.4578 119.11ZM95.6932 119.229C95.6443 119.065 95.2419 118.937 95.1732 119.204C95.5654 119.259 95.3739 119.107 95.6932 119.229ZM73.9169 118.924C74.6711 118.931 74.5285 119.117 74.2185 119.21C74.1707 119.176 74.1229 119.142 74.076 119.109C73.9439 119.124 73.8118 119.139 73.6796 119.154C73.7587 119.077 73.8379 119 73.9169 118.924ZM108.989 119.049C108.413 119.166 109.611 119.114 109.209 119.187C108.887 119.246 108.464 119.128 108.624 119.053C108.735 119.051 108.859 119.05 108.988 119.049C108.988 119.049 108.989 119.049 108.989 119.049ZM105.654 119.082C105.748 119.208 105.612 119.171 106.067 119.149C106.197 119.142 107.231 119.189 106.797 119.085C106.428 119.085 106.038 119.084 105.654 119.082ZM65.1992 119.107C65.1923 119.053 65.988 118.933 66.0901 118.963C66.0901 118.963 66.0901 118.962 66.0901 118.962C66.3658 119.044 65.5264 119.056 65.8905 119.168C65.0843 119.069 64.8431 119.308 64.8993 118.993C65.3742 118.98 65.1493 119.044 65.1992 119.107ZM4.71123 119.04C4.71086 119.04 4.71049 119.04 4.71012 119.04C4.76355 119.043 5.20384 119.123 5.1503 119.151C4.62083 119.127 4.71518 119.074 4.22226 119.161C4.19523 119.133 4.17208 119.106 4.14298 119.078C4.33856 119.061 4.44698 119.028 4.71123 119.04ZM29.438 119.001C29.6325 118.986 29.9875 119.046 30.2091 119.042C29.5038 119.269 28.6609 119.057 29.438 119.001ZM135.212 119.138C135.212 119.138 135.211 119.138 135.21 119.138C135.211 119.138 135.211 119.138 135.211 119.138C135.211 119.138 135.212 119.138 135.212 119.138ZM44.5134 119.137C44.4883 119.122 44.4741 119.109 44.469 119.098C44.469 119.097 44.469 119.096 44.469 119.095C44.4826 119.109 44.497 119.123 44.5134 119.137ZM63.5455 119.124C63.214 119.047 64.3183 118.926 64.6753 118.955C64.6504 118.99 64.6464 119.022 64.5883 119.062C64.3001 118.971 63.6006 119.136 63.5455 119.124ZM88.7201 119.096C87.8473 119.094 88.9832 118.793 89.03 119.033C89.0283 119.037 88.7427 119.095 88.7201 119.096ZM70.4287 119.092C70.6511 119.001 70.2042 118.977 70.9188 118.993C70.9604 119.016 71.002 119.04 71.0435 119.063C70.8387 119.073 70.6336 119.083 70.4287 119.092ZM83.0022 118.701C81.9037 118.752 80.853 118.841 81.5686 119.092C81.6517 119.084 81.736 119.076 81.8191 119.068C81.8316 118.946 82.1384 119.013 82.5875 119.017C82.6515 118.968 82.9006 118.957 82.9473 118.915C83.0377 118.836 82.7515 118.779 83.0022 118.701ZM129.382 118.9C129.364 118.921 129.347 118.942 129.329 118.963C129.155 118.986 128.981 119.01 128.807 119.034C128.835 118.993 128.863 118.953 128.892 118.913C129.055 118.909 129.217 118.904 129.38 118.9C129.381 118.9 129.381 118.9 129.382 118.9ZM54.4114 118.828C54.3116 119.058 54.6603 119.015 55.3677 118.899C55.0494 118.875 54.7297 118.851 54.4114 118.828ZM100.655 118.794C100.678 118.86 100.7 118.925 100.724 118.99C101.1 118.922 101.03 118.847 100.85 118.761C100.785 118.772 100.72 118.783 100.655 118.794ZM106.065 118.766C105.909 118.753 105.988 118.806 105.972 118.804C105.578 118.777 105.522 118.752 105.039 118.792C104.979 118.806 104.921 118.821 104.862 118.835C105.085 118.972 105.248 118.897 105.721 118.978C105.636 118.931 105.551 118.884 105.465 118.837C105.729 118.846 105.991 118.856 106.254 118.866C106.285 118.852 106.316 118.837 106.347 118.823C106.254 118.804 106.157 118.783 106.065 118.766ZM131.391 118.96C131.647 118.965 131.904 118.971 132.16 118.976C132.169 118.942 132.178 118.908 132.187 118.875C131.922 118.903 131.656 118.931 131.391 118.96ZM49.1569 118.932C49.1366 118.944 49.1168 118.956 49.0993 118.969C49.101 118.954 49.1232 118.942 49.1569 118.932ZM4.03598 118.855C3.74578 118.832 3.32758 118.847 3.00926 118.842C3.03428 118.927 3.84335 118.903 4.12746 118.955C4.17311 118.94 4.15865 118.865 4.03598 118.855ZM74.9603 118.931C75.0331 118.889 75.1058 118.847 75.1776 118.805C75.3534 118.809 75.5296 118.814 75.7065 118.819C75.7117 118.784 75.7168 118.749 75.722 118.715C74.9429 118.76 75.1225 118.66 74.7369 118.562C74.8117 118.685 74.8854 118.808 74.9603 118.931ZM139.534 118.74C138.971 118.764 138.771 118.808 139.088 118.911C139.287 118.887 139.487 118.864 139.685 118.84C139.634 118.807 139.583 118.774 139.534 118.74ZM38.9069 118.854C38.4359 118.893 38.4281 118.754 37.9677 118.832C38.2143 118.857 38.4607 118.883 38.7062 118.909C38.7725 118.891 38.8405 118.872 38.9069 118.854ZM62.0059 118.472C61.8072 118.424 61.4358 118.654 60.8772 118.484C60.7441 118.535 60.6606 118.583 60.5462 118.633C60.4796 118.579 60.404 118.524 60.3406 118.47C60.3402 118.47 60.3398 118.47 60.3394 118.47C59.8328 118.489 60.1613 118.556 60.1499 118.614C60.1445 118.637 59.7685 118.598 59.886 118.649C60.0888 118.738 60.8469 118.687 60.8489 118.795C60.5826 118.76 60.0626 118.79 60.2164 118.862C60.3849 118.941 60.875 118.808 61.1871 118.874C60.7399 118.701 61.6636 118.754 61.7687 118.887C62.3107 118.785 61.8125 118.744 61.257 118.748C61.5961 118.647 61.0969 118.702 61.0147 118.617C61.3644 118.566 62.5645 118.608 62.0059 118.472ZM87.5776 118.66C87.203 118.666 86.6177 118.608 86.3612 118.694C86.2118 118.744 86.7985 118.783 86.3939 118.861C86.7589 118.854 86.8422 118.823 86.7798 118.754C86.863 118.746 86.9472 118.738 87.0304 118.73C87.0688 118.743 87.1083 118.756 87.1468 118.77C87.1905 118.742 87.2344 118.713 87.2771 118.685C87.3654 118.691 87.4548 118.696 87.5432 118.702C87.5536 118.688 87.5713 118.675 87.5776 118.66ZM25.3837 118.859C25.4877 118.858 25.5907 118.857 25.6947 118.856C25.6833 118.839 25.6696 118.822 25.6565 118.804C25.6471 118.791 25.6376 118.777 25.6282 118.763C25.6885 118.812 26.184 118.893 26.3927 118.841C26.4977 118.815 26.2589 118.722 26.7037 118.706C26.3813 118.711 26.0826 118.724 25.7696 118.731C25.7977 118.704 25.8247 118.676 25.8527 118.649C25.8526 118.649 25.8524 118.648 25.8522 118.648C25.7482 118.642 25.643 118.636 25.539 118.63C25.4869 118.706 25.4357 118.782 25.3837 118.859ZM100.35 118.665C99.9953 118.719 99.8765 118.747 100.044 118.834C100.044 118.834 100.045 118.834 100.045 118.834C100.177 118.796 100.309 118.757 100.442 118.718C100.411 118.701 100.381 118.683 100.35 118.665ZM46.1011 118.644C45.3469 118.976 47.0455 118.772 46.7221 118.659C46.7075 118.654 46.1719 118.681 46.1011 118.644ZM73.7783 118.822C73.9854 118.819 74.1928 118.817 74.4009 118.814C74.353 118.773 74.3041 118.732 74.2562 118.692C74.0971 118.735 73.9375 118.778 73.7783 118.822ZM137.083 118.59C136.865 118.499 136.306 118.466 136.033 118.565C136.176 118.576 136.32 118.588 136.463 118.6C136.192 118.611 135.924 118.624 135.65 118.634C135.635 118.761 135.951 118.688 136.425 118.723C136.499 118.728 136.968 118.886 137.13 118.767C137.163 118.743 136.663 118.726 137.011 118.655C136.859 118.649 136.728 118.651 136.584 118.648C136.574 118.617 136.563 118.587 136.552 118.557C136.729 118.568 136.906 118.579 137.083 118.59ZM85.3966 118.67C84.882 118.663 84.8185 118.713 84.7114 118.803C84.9507 118.793 85.19 118.783 85.4293 118.773C85.4179 118.738 85.408 118.704 85.3966 118.67ZM132.484 118.561C132.202 118.546 132.323 118.619 132.21 118.633C131.781 118.685 131.489 118.633 131.065 118.666C131.093 118.652 131.119 118.638 131.146 118.625C131.146 118.625 131.145 118.625 131.145 118.625C129.14 118.563 130.193 118.729 131.393 118.702C131.421 118.729 131.448 118.756 131.476 118.783C132.013 118.736 132.508 118.69 132.484 118.561ZM52.802 118.633C52.7791 118.616 52.9736 118.508 52.6085 118.558C52.3194 118.716 52.7936 118.638 52.9123 118.698C52.8135 118.713 52.7124 118.728 52.6146 118.743C53.2055 118.788 53.2918 118.75 53.0764 118.635C53.0611 118.627 52.8249 118.65 52.802 118.633ZM48.9185 118.555C48.8374 118.787 49.5831 118.683 49.5561 118.611C49.4531 118.608 49.3731 118.647 49.2639 118.63C49.1537 118.612 49.1255 118.558 48.9185 118.555ZM70.284 118.612C70.2622 118.611 70.0427 118.513 70.0645 118.59C70.336 118.77 70.8831 118.654 70.7874 118.591C70.6064 118.594 70.4858 118.621 70.284 118.612C70.284 118.612 70.284 118.612 70.284 118.612ZM140.477 118.535C140.467 118.529 139.919 118.49 139.848 118.526C139.79 118.567 139.761 118.611 139.718 118.653C140.019 118.614 140.63 118.644 140.476 118.535C140.476 118.535 140.477 118.535 140.477 118.535ZM0.193355 110.035C0.103163 110.307 0.162286 109.401 0.0275914 110.002C0.018491 109.877 0.00910524 109.751 4.88718e-06 109.626C0.0498883 109.594 0.0996502 109.561 0.149534 109.53C0.164223 109.698 0.17891 109.866 0.193599 110.035C0.193517 110.035 0.193436 110.035 0.193355 110.035ZM0.81808 110.265C0.675801 110.111 0.637867 109.621 0.506572 110.15C0.555401 110.192 0.604219 110.236 0.653049 110.278C0.615177 110.461 0.577315 110.646 0.539651 110.83C0.558267 110.896 0.576903 110.962 0.595312 111.028C0.51046 111.112 0.425379 111.196 0.34032 111.28C0.352739 111.205 0.365375 111.13 0.377794 111.055C0.308889 110.759 0.290044 110.496 0.277213 110.095C0.257135 110.131 0.237235 110.166 0.217157 110.201C0.251307 109.998 0.285542 109.794 0.319691 109.591C0.353213 109.767 0.390493 109.964 0.421737 110.127C0.55478 109.866 0.480735 109.406 0.452985 109.166C0.415109 108.84 0.47837 108.913 0.451887 108.671C0.447747 108.633 0.398162 108.628 0.397324 108.552C0.393391 108.166 0.419674 107.417 0.535379 107.855C0.520476 108.49 0.613389 109.031 0.579444 109.654C0.713231 109.489 0.758757 109.817 0.81808 110.265ZM0.392075 98.6032C0.457052 98.7956 0.43083 99.1874 0.385727 99.4528C0.385727 99.4532 0.385727 99.4535 0.385727 99.4538C0.375792 99.5122 0.28944 99.6445 0.292959 99.4538C0.298989 99.1429 0.434918 98.9926 0.342639 98.8294C0.359818 98.7564 0.375103 98.6797 0.392075 98.6032ZM0.384019 97.9276C0.417341 97.7369 0.519766 97.8234 0.492045 98.0622C0.492127 98.0622 0.492208 98.0622 0.49229 98.0622C0.480698 98.1618 0.399741 97.9662 0.481914 98.3236C0.417985 98.3965 0.359823 98.4684 0.297963 98.5405C0.296929 98.453 0.295251 98.3732 0.294423 98.2814C0.399504 98.3432 0.350956 98.1182 0.384019 97.9276ZM0.47752 107.533C0.382986 107.503 0.383583 107.628 0.317982 107.842C0.321086 107.64 0.324399 107.439 0.327503 107.238C0.377572 107.336 0.427452 107.434 0.47752 107.533ZM0.462873 112.275C0.462873 112.275 0.462873 112.275 0.462873 112.276C0.477775 112.342 0.492731 112.408 0.507426 112.473C0.473688 112.513 0.440096 112.552 0.406357 112.592C0.438026 112.825 0.469691 113.06 0.501567 113.294C0.398508 113.265 0.415277 112.846 0.34325 112.615C0.374299 112.271 0.434121 112.106 0.521464 112.083C0.502015 112.147 0.482321 112.21 0.462873 112.275ZM0.873738 56.0826C0.845183 56.0044 0.816605 55.9272 0.788049 55.8491C0.775017 55.953 0.765069 56.0561 0.749965 56.1608C0.87414 56.4348 0.764299 56.4606 0.771937 56.8196C0.795533 57.9199 0.988397 57.628 0.7059 58.6218C0.719339 57.8239 0.586599 58.1305 0.484354 57.6495C0.56218 57.5498 0.737705 58.0265 0.774134 57.7035C0.691768 57.1469 0.615054 56.6117 0.561864 55.9942C0.548412 56.0122 0.534913 56.0302 0.521461 56.0482C0.529947 56.1462 0.538486 56.2433 0.546972 56.3412C0.510957 56.2355 0.475253 56.1323 0.438824 56.0249C0.520573 56.1606 0.474895 55.8147 0.568822 55.861C0.610633 55.8816 0.668637 56.0345 0.708586 56.1247C0.730314 55.8919 0.750219 55.6532 0.771327 55.4179C0.804638 55.5398 0.837986 55.6616 0.871297 55.7827C0.872332 55.8823 0.873071 55.9812 0.874105 56.0807C0.873983 56.0813 0.873861 56.082 0.873738 56.0826ZM0.439065 5.98682C0.536348 6.28232 0.552445 6.81931 0.444192 7.10193C0.442536 6.72998 0.440721 6.35877 0.439065 5.98682ZM0.593481 112.061C0.576943 112.094 0.560584 112.127 0.544045 112.16C0.513419 112.013 0.483002 111.864 0.452375 111.716C0.500168 111.688 0.54797 111.659 0.595556 111.63C0.594936 111.773 0.594102 111.918 0.593481 112.061ZM0.540261 102.61C0.543153 102.718 0.541586 102.728 0.534768 102.862C0.534809 102.862 0.534849 102.862 0.53489 102.862C0.532344 102.915 0.504429 103.362 0.467633 103.312C0.467012 103.09 0.467633 102.854 0.467633 102.627C0.491837 102.62 0.51585 102.619 0.540261 102.61ZM0.518778 105.219C0.518696 105.219 0.518615 105.219 0.518534 105.22C0.512944 105.3 0.501566 105.377 0.499492 105.46C0.441579 105.16 0.545481 105.113 0.516092 104.841C0.486495 104.568 0.429168 104.4 0.57151 104.169C0.592829 104.255 0.623328 104.348 0.648166 104.436C0.591252 104.823 0.644812 104.927 0.700898 105.237C0.640054 105.231 0.579622 105.225 0.518778 105.219ZM0.585789 60.9815C0.656157 61.0554 0.58711 61.1378 0.586277 61.1463C0.586196 61.1462 0.586115 61.146 0.586033 61.1459C0.651202 61.8002 0.547081 61.0607 0.536109 61.6783C0.518521 61.5864 0.49995 61.496 0.482157 61.405C0.516092 61.2641 0.554545 61.1189 0.585789 60.9815ZM0.579199 82.2414C0.558707 82.2474 0.53817 82.2546 0.517678 82.2607C0.522439 81.8896 0.441771 81.7949 0.515237 81.4866C0.536759 81.7382 0.558128 81.9898 0.579443 82.2414C0.579361 82.2414 0.57928 82.2414 0.579199 82.2414ZM0.689301 100.74C0.728421 101.151 0.745658 101.455 0.683564 101.851C0.683483 101.851 0.683402 101.851 0.68332 101.852C0.679498 101.874 0.636627 101.764 0.625828 101.794C0.63224 101.875 0.642098 101.96 0.649753 102.042C0.615422 102.053 0.581099 102.064 0.546974 102.075C0.556701 101.843 0.566421 101.611 0.576148 101.378C0.556071 101.413 0.536169 101.448 0.516092 101.482C0.505745 101.285 0.495435 101.088 0.485088 100.89C0.541367 100.959 0.59766 101.027 0.654147 101.095C0.66594 100.977 0.677301 100.858 0.689301 100.74ZM0.80343 76.0635C0.781076 76.1287 0.743582 76.0079 0.724333 76.1092C0.705327 76.2106 0.747043 76.3975 0.683929 76.3537C0.675449 76.2172 0.665725 76.0739 0.656831 75.9348C0.543022 76.3823 0.646006 76.8288 0.505472 76.8357C0.5419 76.4062 0.524976 76.053 0.486063 75.6373C0.597617 75.6544 0.69407 76.0703 0.798792 75.8085C0.80024 75.8926 0.802358 75.981 0.803186 76.0625C0.803268 76.0629 0.803349 76.0632 0.80343 76.0635ZM1.99234 118.072C1.98385 118.327 2.02938 118.909 1.96439 119.23C1.94837 119.31 1.74089 119.573 1.71354 119.572C1.62144 119.564 1.6089 119.242 1.54888 119.587C1.54826 119.471 1.5448 119.358 1.54314 119.243C1.48125 119.264 1.41953 119.284 1.35785 119.304C1.36716 119.444 1.37652 119.584 1.38604 119.724C1.36555 119.731 1.34502 119.738 1.32452 119.745C1.32411 119.242 1.24502 119.539 1.17133 119.278C1.13408 119.518 1.09702 119.76 1.05977 120C1.06432 119.862 1.06769 119.699 1.07307 119.577C0.968141 119.56 0.993158 119.851 0.973712 119.901C0.863811 120.182 0.919279 118.752 0.766569 118.635C0.7496 118.863 0.73304 119.103 0.716278 119.337C0.697444 119.27 0.678597 119.202 0.659763 119.135C0.76509 118.605 0.802402 118.011 0.868004 117.393C0.863661 117.337 0.859202 117.281 0.855065 117.226C0.807685 117.243 0.760485 117.258 0.713105 117.274C0.707516 117.19 0.70197 117.105 0.696382 117.021C0.852432 117.269 0.850305 116.925 0.945515 116.51C1.00036 116.731 0.967108 117.003 1.06929 116.985C0.990672 116.227 1.10177 115.34 1.01302 114.603C0.99108 114.42 0.859265 114.421 0.871422 113.99C0.885911 114.005 0.912069 114.008 0.931111 114.017C0.867981 113.273 0.830242 112.822 0.894614 112.049C0.847238 112.093 0.799663 112.137 0.752287 112.182C0.775883 112.346 0.799854 112.51 0.823451 112.674C0.745217 112.785 0.71069 112.62 0.711518 113.11C0.712139 113.511 0.746682 113.272 0.769864 113.381C0.801513 113.529 0.739253 113.659 0.774625 113.817C0.80174 113.94 0.86629 113.807 0.849939 114.128C0.766317 113.999 0.679969 113.867 0.595312 113.738C0.614148 113.66 0.633274 113.582 0.652316 113.504C0.674671 113.583 0.696731 113.661 0.719086 113.74C0.678934 113.461 0.641063 113.198 0.599463 112.911C0.720342 113.004 0.675021 112.707 0.660739 112.545C0.638408 112.294 0.7216 112.509 0.707734 112.344C0.693652 112.179 0.60071 112.002 0.62058 111.704C0.674387 111.863 0.722638 111.646 0.772306 111.688C0.821971 111.73 0.832969 112.045 0.887168 111.742C0.845979 111.16 0.656837 111.792 0.626195 111.399C0.589355 110.926 0.897669 110.814 0.963946 110.955C1.01611 111.065 1.00562 111.447 1.05757 111.558C1.15133 110.875 0.966235 110.87 0.930013 110.753C0.798175 110.328 1.15006 110.613 1.02278 110.111C1.08859 110.12 1.14777 110.128 1.21088 110.137C1.19888 110.051 1.18293 109.993 1.17341 109.888C1.04519 110.197 1.05069 109.945 1.05049 109.815C1.05008 109.61 0.987537 109.926 0.971392 109.872C0.928189 109.726 0.947806 109.495 0.891318 109.637C0.917605 109.573 0.943969 109.504 0.97005 109.439C0.937295 109.2 0.662643 108.639 0.718109 109.173C0.616065 109.123 0.665111 108.95 0.680635 108.815C0.696144 108.681 0.631157 108.683 0.643161 108.565C0.691184 108.093 0.802349 108.402 0.889487 108.476C0.829465 107.854 0.789754 108.463 0.749601 107.566C0.678607 107.479 0.60285 107.894 0.561867 107.548C0.685205 107.485 0.773806 107.231 0.814784 106.735C0.786427 106.687 0.757818 106.639 0.729461 106.591C0.843302 106.32 0.961682 106.458 0.820521 105.958C1.08028 106.227 0.914099 106.042 1.01985 105.593C1.04117 105.502 1.09506 105.713 1.12239 105.586C1.13471 105.528 1.09403 105.388 1.12544 105.247C1.14096 105.179 1.24112 104.857 1.19355 104.635C1.0677 104.798 0.960643 104.375 0.85653 104.738C0.882196 104.068 0.821773 103.599 0.993364 104.35C1.03145 104.179 1.06937 104.009 1.10725 103.839C1.07724 103.721 1.04746 103.601 1.01765 103.482C1.12109 103.464 1.1501 103.482 1.13191 103.015C1.15632 103.217 1.18114 103.419 1.20576 103.623C1.22664 103.629 1.24835 103.658 1.26862 103.651C1.22889 103.402 1.2118 102.7 1.18427 102.53C1.15674 102.36 1.14921 102.688 1.12251 102.639C0.902328 102.231 1.06472 102.264 1.02693 101.971C1.00458 101.799 0.980303 102.209 0.970782 102.117C0.935885 101.777 1.0529 101.619 1.0544 101.316C0.987974 101.424 0.92052 101.53 0.853478 101.635C0.856997 101.318 0.857586 100.965 0.836267 100.67C0.827944 100.554 0.778544 100.642 0.775235 100.623C0.758261 100.529 0.731376 100.148 0.731169 100.107C0.730775 99.8035 0.799197 99.7948 0.802943 99.4995C0.808736 99.6155 0.813957 99.7245 0.819544 99.8378C0.930474 99.8894 1.0414 99.9419 1.15254 99.9935C1.16061 99.704 1.16851 99.4145 1.17658 99.1242C1.13954 99.3363 1.10267 99.5492 1.06563 99.7614C0.976005 99.4298 0.886179 99.0982 0.796352 98.7667C0.851407 98.594 0.906449 98.422 0.961505 98.2494C0.946981 97.7805 0.723495 97.8749 0.91927 97.6525C0.902719 97.5142 0.886178 97.376 0.869834 97.2377C0.897768 97.2575 0.925759 97.2771 0.953692 97.2968C0.936513 97.1301 0.919446 96.9636 0.902059 96.7969C0.803132 96.9721 0.69903 97.1439 0.603002 97.3174C0.581505 96.9894 0.665428 96.9832 0.686372 96.9342C0.741844 96.8045 0.66702 96.5471 0.718352 96.444C0.735975 96.4091 0.791223 96.7305 0.854942 96.6198C0.867293 96.5981 1.10152 96.1678 1.04744 95.8933C1.00501 95.8984 0.952977 95.9197 0.90682 95.9308C0.881047 95.5616 1.10254 95.3733 1.16462 95.4222C1.12116 95.2255 1.11752 94.938 1.04963 94.8976C1.04798 94.7972 1.04641 94.6974 1.04475 94.5969C1.21009 94.7016 1.17986 94.2824 1.03767 94.255C1.03415 94.4276 1.03045 94.6005 1.02693 94.7731C0.852652 94.6426 0.747458 95.1673 0.908895 94.0755C0.999554 93.8668 0.896543 94.4466 0.964434 94.2765C1.00395 93.981 0.970887 93.7036 1.03401 93.4227C1.11287 93.0732 1.18871 93.5033 1.08833 92.6889C0.836848 94.4851 0.918443 92.4426 0.840417 91.599C1.0888 91.3671 1.16747 90.6547 1.09358 89.6737C1.02445 89.7759 1.06006 90.0845 1.03731 90.2623C1.01454 90.4401 0.973529 90.2478 0.941242 90.4693C0.908962 90.6908 0.865078 91.1614 0.816248 91.3857C0.777123 91.1957 0.684625 90.2581 0.795741 90.878C0.864237 90.4152 0.934626 90.1978 0.947467 89.6242C0.839633 89.4524 0.772486 89.4651 0.769375 88.906C0.919221 89.2367 1.02336 88.6013 1.17817 88.7412C1.14211 89.1377 0.991652 88.9161 0.919636 89.1454C0.912438 89.1689 0.950156 89.5384 0.947467 89.6242C1.08263 89.2514 1.13294 89.1225 1.29376 89.3519C1.27969 89.0881 1.29988 88.9241 1.22309 88.9C1.2564 88.8451 1.28974 88.7898 1.32306 88.7357C1.32223 88.6499 1.31914 88.5726 1.31976 88.4816C1.20393 88.6069 1.27524 88.3641 1.22272 88.1914C1.17015 88.0188 1.07871 88.2504 1.07747 87.7762C1.05035 87.9343 1.02709 88.0788 1.00142 88.2317C0.971617 87.9259 0.941626 87.6192 0.911824 87.3134C0.841047 87.5282 0.735916 87.9936 0.642794 87.9809C0.677952 87.84 0.616163 87.3575 0.613621 87.3047C0.6041 87.1003 0.662829 87.2117 0.664278 87.1962C0.692817 86.8751 0.672821 86.6105 0.761807 86.4885C0.721657 86.2472 0.744547 86.0652 0.742277 85.8092C0.741035 85.6684 0.675675 85.6957 0.68808 85.6133C0.770868 85.0653 0.85533 85.5874 0.694549 84.5302C0.649018 84.6582 0.60244 84.7845 0.556495 84.9125C0.539315 84.7931 0.522041 84.6744 0.504862 84.555C0.513141 84.4751 0.521483 84.3959 0.529763 84.316C0.628484 84.3177 0.727413 84.3198 0.826135 84.3215C0.831516 84.2339 0.836744 84.1459 0.842125 84.0583C0.851853 84.2086 0.86157 84.3593 0.871298 84.5096C0.88867 84.5234 0.906049 84.5362 0.92342 84.5499C0.950328 84.3266 0.977478 84.104 1.00459 83.8807C0.970251 83.8764 0.935668 83.8722 0.901326 83.8679C0.949139 83.3645 0.978211 83.3525 0.883627 82.8741C0.884662 82.5055 0.741074 82.2054 0.680634 81.9924C0.699879 81.916 0.71937 81.8394 0.738614 81.7621C0.71005 81.7132 0.681611 81.6637 0.653047 81.6147C0.692785 81.5177 0.73253 81.4193 0.77206 81.3222C0.681864 81.2681 0.653704 81.2401 0.622043 81.6189C0.509862 81.4892 0.559349 80.8223 0.59702 80.5509C0.625606 80.345 0.719177 80.5735 0.730558 80.5477C0.769226 80.4617 0.735861 80.1223 0.742276 80.051C0.768975 79.7495 0.764301 79.5383 0.784999 79.266C0.789141 79.213 0.848442 79.0648 0.850303 79.0522C0.860445 78.9543 0.889268 78.7126 0.890096 78.6851C0.934363 77.2671 0.677085 78.7822 0.704192 77.4638C0.670264 77.5033 0.636563 77.5395 0.602635 77.5782C0.600566 77.4786 0.5986 77.378 0.596531 77.2784C0.624887 77.1521 0.676456 77.3049 0.63486 77.0541C0.676668 77.0704 0.718496 77.0868 0.760098 77.104C0.737536 76.9949 0.715157 76.8897 0.692596 76.778C0.837687 76.6028 0.870637 75.9631 1.04097 76.0085C1.09892 76.024 1.15839 76.4775 1.22028 76.2379C1.23246 76.0431 1.16325 76.1749 1.15961 76.0955C1.13436 75.5217 1.23138 75.555 1.20551 75.3205C1.16393 75.2836 1.12153 75.2448 1.07954 75.207C1.09175 75.1185 1.10395 75.0299 1.11616 74.9406C1.08822 74.92 1.06024 74.8985 1.0323 74.8779C1.03044 74.9612 1.02855 75.055 1.02669 75.1315C0.918458 75.0248 0.869843 74.0459 0.962114 74.4192C0.999573 74.5712 0.983658 74.8496 1.11152 74.6737C1.0931 74.4117 1.07428 74.1145 1.05586 73.8387C1.08339 73.8301 1.11097 73.8221 1.1385 73.8136C1.12068 73.4419 1.01061 73.7799 0.951616 73.7792C0.949961 73.6942 0.948511 73.6083 0.946856 73.5233C0.973529 73.4873 1.00145 73.453 1.0273 73.4153C0.984847 73.4119 0.886181 73.3642 0.922809 73.1109C0.946649 72.948 1.05374 73.2045 1.03889 72.8939C0.97267 72.9171 0.892015 73.0293 0.870688 72.6833C0.939803 72.649 1.00312 72.6015 1.07576 72.5748C1.00936 72.1446 1.11609 71.9488 1.03889 71.4437C0.990041 71.1233 0.816637 70.6844 1.08381 70.4774C1.09084 70.243 1.02431 70.3174 1.00935 70.248C0.938564 69.9208 1.06525 69.6773 1.0727 69.6163C1.12047 69.2273 1.07661 69.053 1.13642 68.736C1.08695 68.7532 1.04012 68.7626 0.991897 68.7763C1.066 69.0667 1.06252 69.2137 1.04658 69.6209C1.03665 69.4844 1.02649 69.3477 1.01655 69.2112C0.97641 69.2335 0.936258 69.2556 0.896321 69.2771C1.05446 70.5364 0.80461 70.2427 0.749966 69.1869C0.824259 69.0959 0.898355 69.0015 0.972855 68.9114C0.860261 68.3015 0.958005 68.0145 0.9814 67.3248C0.984075 67.2428 0.941278 66.9441 0.939165 66.8157C0.938881 66.8179 0.938596 66.82 0.938311 66.8221C0.868154 66.7423 0.835865 66.8504 0.773158 66.8633C0.765295 66.7938 0.757463 66.7242 0.7496 66.6546C0.7974 66.4992 0.836661 66.5539 0.825279 66.2481C0.777678 66.2893 0.730065 66.33 0.682464 66.3712C0.680808 66.0362 0.732527 65.817 0.710173 65.5052C0.72818 65.5576 0.74624 65.6093 0.764247 65.6617C0.810198 64.9831 1.09006 65.5232 0.950761 65.0103C0.975176 64.9777 0.999829 64.9459 1.02424 64.9133C1.03025 65.1245 1.03606 65.3359 1.04207 65.5464C1.07662 65.5506 1.11102 65.5553 1.14558 65.5587C1.13523 65.3328 1.12455 65.1058 1.11421 64.8799C1.13739 65.0448 1.1606 65.2107 1.18378 65.3756C1.20034 65.1136 1.21691 64.8516 1.23346 64.5896C1.1064 64.8678 1.09087 64.5072 0.965043 64.575C1.06978 64.1111 1.20784 63.7468 1.11945 63.0277C1.10185 62.8852 1.01392 62.9626 1.12092 62.5581C0.981017 62.656 0.915366 62.1492 0.782313 62.2143C0.788727 62.3551 0.792762 62.5012 0.800622 62.6377C0.846777 62.4822 0.973747 62.4565 1.01143 62.6927C1.05945 62.9942 0.971448 63.4339 1.11237 63.4159C1.10575 63.5361 1.10185 63.648 1.09626 63.7647C1.0613 63.7167 1.02612 63.6696 0.991165 63.6224C1.04597 63.9547 1.02815 64.1635 0.94002 64.3232C0.919739 63.9273 0.899672 63.5322 0.879598 63.1362C0.873604 63.1946 0.867564 63.2537 0.861776 63.312C0.771738 63.0122 0.686456 63.3215 0.667206 62.7622C0.708385 62.7657 0.749593 62.7684 0.790979 62.7719C0.680863 62.5683 0.68146 62.0108 0.554785 62.1887C0.593694 62.0203 0.618304 61.986 0.550024 61.8907C0.646272 61.4466 0.767984 61.1613 0.913288 61.3194C0.889903 61.1545 0.866485 60.9895 0.843101 60.8254C0.803368 60.9208 0.763821 61.0162 0.724088 61.1116C0.726572 60.8246 0.729013 60.5356 0.73129 60.2496C0.84884 60.2221 0.766952 60.8018 0.87203 60.6346C0.893121 60.6011 0.847942 60.4467 0.859823 60.4061C0.988349 59.9784 0.895492 60.6499 0.993972 60.5238C1.0244 59.8864 1.18941 60.3965 1.05073 59.5185C1.08467 59.4953 1.11929 59.4704 1.15302 59.449C1.15506 59.1442 1.0784 59.1689 1.06391 58.907C1.0549 58.7429 1.18951 58.537 1.09785 58.3558C1.08095 58.3235 0.916422 58.6283 0.923663 57.9878C0.929275 57.4907 1.04554 57.6976 1.08674 57.4288C1.12793 57.16 0.966714 56.5449 1.14948 56.3636C1.12527 56.5045 1.11221 56.6839 1.09236 56.8402C1.12795 56.9037 1.16316 56.9656 1.19855 57.0283C1.1526 56.671 1.20676 56.3016 1.1219 56.061C1.25167 55.5843 1.13124 55.0511 0.984695 55.1954C1.00582 55.3523 1.06972 55.1816 1.029 55.3996C0.994852 55.4219 0.960867 55.4455 0.926714 55.4678C0.930854 55.0967 0.929895 54.839 1.03401 55.0082C1.03649 54.9506 1.03897 54.8936 1.04145 54.8361C0.966112 54.8258 0.89049 54.8166 0.815148 54.8063C0.806662 54.7376 0.798244 54.6686 0.789758 54.5999C0.806307 54.5235 0.823049 54.4469 0.839805 54.3696C0.959028 54.4735 0.962965 54.6506 1.02961 54.0647C0.988424 54.063 0.947397 54.0605 0.906207 54.0588C0.958572 53.5683 1.05835 53.5554 1.05464 52.9396C1.19765 53.412 0.944145 53.6705 1.23102 53.6688C1.21218 53.7873 1.1931 53.9068 1.17426 54.0254C1.21586 54.0434 1.25753 54.0613 1.29913 54.0785C1.27719 53.442 1.00358 52.3847 1.185 51.9586C1.16286 51.9071 1.14362 51.8553 1.11982 51.8029C1.22931 51.3854 0.983491 51.2052 1.12507 50.7817C1.13993 50.738 1.37088 50.8294 1.36261 50.2781C1.33259 50.2919 1.28207 50.299 1.2442 50.3102C1.26262 50.1908 1.28189 50.0721 1.30072 49.9536C1.27299 49.9321 1.24528 49.9096 1.21735 49.8881C1.20659 50.0917 1.19564 50.2947 1.18488 50.4983C1.17536 50.3292 1.16583 50.1589 1.15632 49.9897C1.111 50.2104 1.11052 50.31 1.03791 50.177C1.03357 49.9854 1.02896 49.7936 1.02461 49.602C1.00601 49.5823 0.987186 49.5627 0.968582 49.543C0.913115 49.6357 0.858869 49.7294 0.802575 49.8222C0.847902 49.3231 0.850364 48.8892 0.959427 48.5061C0.977847 48.4408 1.05011 48.6717 0.984939 48.2269C1.02321 48.22 1.05429 48.2081 1.08967 48.2003C0.982451 47.6557 1.01445 47.4768 1.09187 46.909C1.01963 47.2767 1.06661 46.9486 1.02791 46.855C1.00124 46.7908 1.00518 47.0412 0.977249 47.0129C0.949515 46.9846 0.837528 46.6592 0.824058 46.9374C1.0536 47.6194 0.779161 47.8052 0.889484 48.6814C0.859886 48.5466 0.830221 48.4107 0.800622 48.2759C0.78056 48.3394 0.762359 48.3963 0.741054 48.4649C0.785961 47.9762 0.756787 48.2139 0.721402 48.0131C0.686007 47.8121 0.655939 47.4468 0.64621 47.202C0.643154 47.1248 0.694638 47.2062 0.69943 47.0321C0.702742 46.9136 0.626419 46.5897 0.716397 46.5149C0.774969 46.4659 0.936253 46.9863 0.935869 46.2668C0.99329 46.1313 0.975456 46.4763 0.982375 46.4837C1.05068 46.5464 1.10204 46.1041 1.04988 45.8996C1.04538 45.8831 0.992151 46.0445 0.971267 45.869C0.921384 45.4523 0.982426 45.2117 1.06501 44.942C0.968144 44.9128 0.852455 44.5622 0.888264 44.1258C0.860543 44.1035 0.832577 44.0822 0.80465 44.0599C0.819322 44.1276 0.833798 44.1954 0.848471 44.2631C0.831084 44.337 0.818428 44.4153 0.797936 44.4874C0.774115 44.0486 0.640613 43.9865 0.591769 43.7761C0.424914 43.0559 0.777868 43.4924 0.838705 43.6223C0.814074 43.7159 0.78658 43.8064 0.760706 43.8992C0.794445 43.8889 0.82844 43.8784 0.862386 43.869C0.861355 42.791 1.08139 43.7048 1.14411 43.1576C0.978119 43.0168 0.96212 42.6149 1.06745 42.1029C1.06663 42.0462 1.06641 41.9893 1.06538 41.9327C1.04118 41.9232 1.00418 41.9234 0.988234 41.9079C0.960084 41.2912 1.21571 41.1813 1.23993 41.1229C1.34734 40.8635 1.19873 40.6615 1.19745 40.585C1.19228 40.2629 1.25827 40.1693 1.22992 39.8626C1.19929 39.5329 1.14866 39.7584 1.10334 39.658C1.06735 39.5775 1.06094 39.3174 1.02363 39.2099C1.05414 39.2526 1.08407 39.3001 1.11469 39.3426C1.15629 39.0008 1.19683 38.7215 1.20697 38.3333C0.983717 37.8952 1.36032 37.5225 1.05488 37.6736C1.03398 38.0413 0.999169 38.2469 0.921343 38.4436C0.91141 38.2023 0.901736 37.9607 0.891803 37.7194C0.925326 37.649 0.957996 37.599 0.99214 37.5157C0.920951 37.3353 0.9515 36.9172 0.93062 36.7531C0.832717 35.9843 0.71129 36.2221 0.915361 35.5203C0.935246 36.0261 1.03436 36.0253 1.0207 36.5269C1.09149 36.4187 1.07682 36.1638 1.16169 36.3287C1.14078 35.8434 1.06502 36.0003 0.997755 35.8114C0.939768 35.6485 0.936521 35.3205 0.861165 35.339C0.902596 35.3055 0.942706 35.2796 0.984084 35.2461C0.98367 34.9318 0.983643 34.6175 0.983229 34.3031C1.02648 34.4371 1.06981 34.571 1.11286 34.705C1.1292 34.6038 1.14547 34.5023 1.16181 34.4011C1.02727 33.628 1.27384 32.2948 0.935868 32.5078C0.925106 32.135 0.967496 32.0884 1.03144 31.8857C1.00579 31.8633 0.984444 31.8416 0.955887 31.8193C0.982747 31.5788 0.886414 31.3942 0.911455 31.1821C0.936304 30.97 1.0273 30.9173 0.874348 30.8864C0.91822 30.7489 0.954665 30.6123 0.995435 30.4758C0.960689 30.3934 0.926343 30.311 0.891803 30.2295C0.910015 30.1006 0.928153 29.9715 0.946366 29.8427C0.873356 29.7738 0.904826 29.2672 0.855794 29.0439C0.934495 28.8319 1.18229 28.8377 1.13788 28.3389C1.07643 28.3518 1.01515 28.3645 0.953689 28.3774C0.96652 28.2632 0.979309 28.1487 0.99214 28.0336C1.0122 28.0267 1.03226 28.0208 1.05232 28.0139C1.04611 28.0723 1.03993 28.1299 1.03352 28.1883C1.06746 28.1376 1.10125 28.088 1.1352 28.0382C1.08491 27.8638 1.03462 27.6892 0.984327 27.514C0.946252 27.7502 0.908151 27.9865 0.870075 28.2227C0.824953 27.9263 0.86996 27.72 0.819663 27.4623C0.904512 27.2381 0.953404 27.3209 1.04548 27.412C1.03762 27.3287 1.03003 27.2444 1.02217 27.1611C1.11426 27.216 1.16913 27.0752 1.16169 27.5621C1.18795 27.5286 1.213 27.4945 1.2403 27.4619C1.23616 27.382 1.25836 27.3302 1.24823 27.2426C1.22049 27.0038 1.05874 26.8207 1.00203 26.837C0.972319 26.8458 1.02913 27.0813 0.987135 27.0718C0.884719 27.0485 0.930702 26.5084 0.827841 27.2874C0.762642 27.0289 0.811812 26.9711 0.830648 26.6859C0.79652 26.7083 0.762609 26.7299 0.728481 26.7514C0.744205 26.6192 0.759873 26.4868 0.775597 26.3545C0.950905 26.5383 1.01675 25.5633 1.17011 26.441C1.17797 26.1817 1.18588 25.9232 1.19416 25.6647C1.21216 25.7179 1.22998 25.7712 1.24799 25.8244C1.23847 25.9412 1.2291 26.0574 1.21979 26.1742C1.25269 26.0368 1.2854 25.8991 1.3183 25.7617C1.27752 25.437 1.21481 25.3097 1.1374 25.1611C1.08091 25.539 1.15807 25.4155 1.1734 25.71C1.12438 25.6997 1.07929 25.7133 1.02778 25.6876C1.12933 25.5354 1.05545 25.0391 1.05049 24.924C1.0354 24.5737 1.13518 24.8484 1.13727 24.6141C1.13934 24.3796 1.07996 24.103 1.1789 23.9114C1.12344 23.9149 1.06607 23.9302 1.01558 23.9439C0.997361 23.5789 1.06287 23.6517 1.07136 23.6139C1.21086 23.0109 1.09309 22.6837 1.0788 21.9939C1.06163 22.0815 1.04612 22.17 1.02998 22.2585C0.912238 21.7381 0.94829 22.0886 0.90938 22.5404C0.921178 22.1169 0.820905 21.8744 0.791099 21.5755C0.761345 21.2766 0.812844 20.764 0.852986 20.5766C0.917565 21.0053 0.874978 21.4676 0.892779 21.9435C0.949271 21.8894 0.997081 21.8368 1.05915 21.781C0.940586 21.4916 1.01986 21.3238 1.03559 21.2285C1.08173 20.9485 0.979964 20.9573 1.08942 20.7881C1.05177 20.795 1.02011 20.8 0.984937 20.8069C1.00067 20.2288 1.06724 19.6052 0.928177 19.229C1.01862 19.1946 1.10576 19.1687 1.19806 19.1292C1.12998 18.8844 1.1997 18.6748 1.18378 18.4686C1.16784 18.2633 1.09475 18.3415 1.0666 18.1001C1.06142 18.0555 1.10717 17.9624 1.07343 17.8525C1.03952 17.7415 0.787334 17.332 1.00764 17.283C1.00868 17.076 1.01673 16.8801 1.02046 16.6774C1.03288 16.875 1.0449 17.0726 1.05732 17.2693C1.11072 17.101 1.16395 16.9336 1.21735 16.7653C1.16974 16.7438 1.12127 16.7223 1.07429 16.7017C1.01633 16.2481 1.09417 15.919 1.07575 15.4611C1.07265 15.3847 0.978526 15.565 1.00251 15.2258C1.02652 14.8866 1.2022 14.6348 1.13434 14.0567C1.13082 14.0275 0.996281 13.8563 1.08942 13.6493C1.11053 13.6022 1.14177 13.8005 1.1695 13.6923C1.19723 13.5841 1.22004 13.1012 1.28607 13.0634C1.26269 13.0685 1.23846 13.0987 1.21466 13.1133C1.20349 13.0308 1.19231 12.9475 1.18134 12.8642C1.22252 12.8565 1.26377 12.8482 1.30475 12.8404C1.20892 12.3663 1.05259 12.1212 1.10432 11.4186C1.0445 11.6162 0.98445 11.8138 0.924637 12.0105C0.966655 12.0646 1.00896 12.1189 1.05097 12.1721C1.03421 12.4959 1.01757 12.8206 1.00081 13.1444C1.04862 13.1977 1.0963 13.25 1.14411 13.3032C1.1379 13.3891 1.13189 13.4742 1.12568 13.56C1.09111 13.5386 1.05673 13.5169 1.02217 13.4946C1.03065 13.6646 1.03932 13.8349 1.0478 14.0041C0.843775 13.6596 1.06515 13.0422 0.894487 13.0867C0.920967 13.0103 0.947631 12.9338 0.974317 12.8574C0.891563 12.8239 0.915381 12.6685 0.928421 12.3946C0.887645 12.4573 0.847425 12.5265 0.806235 12.5841C0.86377 12.3178 0.858182 11.8454 0.880328 11.5697C0.890055 11.4486 0.950053 11.5696 0.957106 11.5335C0.99395 11.3488 0.88926 10.9958 0.897539 10.922C0.946809 10.4804 1.14529 10.1935 1.01448 9.71164C0.982187 10.209 0.995824 9.93842 0.923172 10.1154C0.900394 10.1708 0.852876 10.8133 0.873981 10.0087C0.876621 9.91439 1.01375 8.45444 1.11884 8.93436C1.08531 8.69812 1.04654 8.51317 1.01094 8.29669C1.28788 7.76753 1.02771 7.95067 0.884478 8.10443C0.883857 8.01767 0.882403 7.93513 0.882403 7.84579C1.03288 8.03564 1.04222 7.06844 0.966261 6.7403C0.941009 6.63035 0.892843 6.93779 0.870074 6.68354C0.880627 6.56246 0.894291 6.42512 0.906083 6.29718C0.810877 6.48272 0.774188 6.11859 0.677335 6.12369C0.76364 5.89092 0.946572 5.71287 1.04572 5.84079C1.00558 5.64841 0.965479 5.45502 0.925125 5.26264C0.902151 5.35198 0.879378 5.44247 0.856403 5.5318C0.917257 4.903 0.778785 4.09448 0.982251 3.96305C0.980802 3.87973 0.97955 3.79552 0.978101 3.7122C0.943742 3.68643 0.909316 3.66152 0.874957 3.63575C0.904756 3.25873 0.934753 2.88256 0.964552 2.50553C0.985875 2.84124 1.03478 2.92115 0.995068 3.2732C1.03458 3.13753 1.07432 2.99934 1.11384 2.86625C1.00745 2.33624 0.937526 2.26394 0.96919 1.46595C0.970639 1.42987 1.05986 0.826934 1.06855 0.806317C1.10829 0.711865 1.16602 0.855241 1.1861 0.813184C1.2424 0.696357 1.38376 -0.0135475 1.40508 0.000196912C1.66671 0.173722 1.67018 2.56221 1.68363 3.2082C1.82313 9.90851 1.6365 16.4613 1.66838 23.1195C1.66887 23.188 1.70749 23.1581 1.70914 23.1873C1.71884 23.3685 1.65865 23.5465 1.65617 23.6134C1.65105 23.7566 1.70666 23.6778 1.7067 23.7824C1.70608 24.863 1.67338 25.8828 1.6829 26.9643C1.68352 27.0347 1.63903 26.9628 1.64689 27.0865C1.6512 27.1503 1.71946 27.3502 1.7205 27.4944C1.72401 27.9977 1.70213 28.4206 1.70316 28.9514C1.70378 29.2418 1.69798 29.6773 1.69901 30.002C1.69945 30.1454 1.73068 30.2947 1.73173 30.4364C1.73318 30.6374 1.66987 30.5964 1.66593 30.6273C1.64876 30.763 1.71824 30.7818 1.71659 30.9106C1.71328 31.1503 1.66689 31.1632 1.67082 31.4673C1.67371 31.6846 1.71034 32.182 1.72111 32.456C1.6673 33.0969 1.68866 33.9044 1.70646 34.5022C1.71701 34.8561 1.65206 34.8889 1.65226 35.0332C1.65352 35.5417 1.73648 35.9276 1.73917 36.4052C1.74268 37.039 1.68782 37.6007 1.68388 38.2147C1.68326 38.3143 1.74277 38.2914 1.7443 38.3891C1.74989 38.7508 1.76072 39.2132 1.75223 39.5353C1.74291 39.8944 1.65652 40.0268 1.67411 40.3781C1.67934 40.4811 1.75508 40.5113 1.76481 40.6839C1.7801 40.9596 1.71331 41.2619 1.70585 41.4543C1.69591 41.718 1.77308 41.4887 1.76273 41.8443C1.76229 41.8589 1.70712 41.9121 1.70976 41.9885C1.71721 42.211 1.76065 42.1889 1.75651 42.5145C1.75593 42.5457 1.70338 42.9774 1.70316 43.0203C1.70234 43.2728 1.68394 43.7813 1.69511 43.9308C1.73485 44.4651 1.81782 44.0445 1.63774 44.4989C1.68181 44.699 1.72649 44.8974 1.76932 45.1095C1.72938 44.968 1.67173 45.5425 1.67546 45.5829C1.70548 45.9168 1.77554 45.7179 1.76395 46.1413C1.60209 45.5821 1.74309 46.6876 1.74723 46.9342C1.7673 48.1213 1.72691 49.2003 1.72794 50.3935C1.72837 50.7929 1.76258 51.3282 1.76176 51.7508C1.76171 51.8493 1.7234 51.7748 1.72257 51.8615C1.72201 51.948 1.76501 51.8521 1.76273 51.9508C1.74782 52.565 1.66668 53.0462 1.7681 53.6088C1.75344 53.6362 1.74185 53.6353 1.72575 53.6807C1.8166 54.1411 1.69442 55.0278 1.67765 55.3611C1.65159 55.8824 1.713 56.0156 1.7006 56.3943C1.68404 56.8951 1.56406 57.647 1.76212 57.3112C1.76833 57.6548 1.77004 57.9855 1.75162 58.3325C1.74954 58.3711 1.6992 58.3445 1.69816 58.3599C1.69093 58.4578 1.73601 58.4897 1.73808 58.5559C1.74364 58.7352 1.68967 58.4425 1.70475 58.6982C1.71282 58.8331 1.75214 58.9097 1.75297 59.2842C1.75731 61.5416 1.74323 63.9925 1.73661 66.3067C1.7362 66.4656 1.78488 66.361 1.78177 66.5603C1.771 67.2527 1.68907 68.492 1.70024 69.089C1.71141 69.686 1.7826 69.5513 1.81241 69.9249C1.81821 69.997 1.77764 69.9379 1.77701 70.0031C1.77329 70.4421 1.71 70.9654 1.70048 71.321C1.6941 71.5562 1.75793 71.5374 1.76249 71.7005C1.76911 71.9436 1.70463 72.1938 1.70256 72.3235C1.69346 72.9333 1.7454 73.3526 1.71891 73.922C1.73296 73.8998 1.74596 73.8851 1.7598 73.8662C1.75753 74.5404 1.75524 75.2139 1.75297 75.8881C1.7658 75.8564 1.77874 75.8256 1.79178 75.7938C1.78474 76.5849 1.64565 76.4947 1.93936 76.4251C1.94971 76.4826 1.9617 76.5436 1.97122 76.5986C1.81992 76.5762 1.7092 77.0548 1.6707 77.6638C1.6678 77.7085 1.81532 78.0082 1.64104 77.9755C1.68367 78.0537 1.71306 78.1003 1.75053 78.1664C1.69776 78.2952 1.64562 78.4258 1.59306 78.5546C1.60093 78.6242 1.60852 78.6947 1.61638 78.7643C1.65053 78.7746 1.68599 78.7666 1.71952 78.789C1.7247 79.1119 1.68248 79.7743 1.68681 80.0295C1.69778 80.6635 1.79012 81.3089 1.69035 81.802C1.70052 82.0421 1.76755 81.8037 1.75907 82.1609C1.72513 82.2012 1.69261 82.2392 1.65764 82.2813C1.80927 82.5732 1.71703 82.6342 1.68534 83.0343C1.66382 83.3048 1.70088 83.482 1.69365 83.7397C1.69178 83.805 1.64728 83.7957 1.64873 83.8404C1.65332 83.99 1.71457 84.4168 1.71623 84.5225C1.73237 85.4793 1.7255 86.3014 1.70915 87.2127C1.70749 87.3107 1.75141 87.1837 1.74955 87.2851C1.74663 87.4481 1.67914 87.3522 1.67582 87.4466C1.66697 87.7102 1.73814 87.7122 1.74186 88.0797C1.75406 89.29 1.7006 90.6816 1.69584 91.946C1.69584 91.9855 1.73754 91.9832 1.73795 92.0261C1.73999 92.3061 1.68363 92.5895 1.68425 92.8437C1.68507 93.2655 1.74365 93.5824 1.74345 93.9991C1.74324 94.8134 1.71325 95.541 1.71159 96.3785C1.71014 97.064 1.7157 97.6594 1.7155 98.411C1.71467 101.694 1.84702 105.044 1.77665 108.35C1.77479 108.434 1.73795 108.4 1.73954 108.425C1.75548 108.669 1.80519 108.691 1.70109 108.778C1.72161 109.089 1.79981 109.187 1.79423 109.562C1.7913 109.762 1.67008 109.613 1.73258 109.951C1.78909 110.257 1.85552 109.92 1.78764 110.828C1.78577 110.852 1.71189 110.971 1.73112 111.16C1.75016 111.35 1.80307 111.13 1.81901 111.587C1.85626 112.66 1.79239 114.018 1.81205 115.265C1.81329 115.343 1.85279 116.096 1.87101 116.245C1.9064 116.532 1.9613 116.472 1.97476 116.846C1.98511 117.134 1.92291 117.372 1.93533 117.712C1.93684 117.751 2.00082 117.817 1.99234 118.072ZM0.749721 54.837C0.686952 54.7665 0.455911 54.6394 0.526221 54.2135C0.532844 54.1731 0.691729 54.3911 0.717008 54.1558C0.733773 54.386 0.739203 54.6102 0.749965 54.837C0.749884 54.837 0.749803 54.837 0.749721 54.837ZM0.519145 119.919C0.530736 119.6 0.54222 119.28 0.553811 118.961C0.581753 119.181 0.609642 119.401 0.637791 119.621C0.598265 119.72 0.558671 119.819 0.519145 119.919ZM0.628879 80.246C0.628879 80.2463 0.628879 80.2467 0.628879 80.247C0.599073 79.9119 0.569211 79.5767 0.539405 79.2417C0.561346 79.2769 0.58338 79.3122 0.60532 79.3475C0.63988 79.612 0.674393 79.8766 0.708953 80.1403C0.682258 80.1755 0.655573 80.2108 0.628879 80.246ZM0.861167 82.8928C0.835087 83.1067 0.791103 83.0544 0.748258 83.1721C0.748339 83.1721 0.74842 83.1721 0.748502 83.1721C0.737348 83.2031 0.727588 83.3478 0.72592 83.4037C0.753449 83.3831 0.780625 83.3564 0.807947 83.3341C0.874596 83.8332 0.637755 84.8092 0.542335 83.5456C0.577101 83.5645 0.61169 83.5826 0.646456 83.6014C0.636729 82.9735 0.712139 82.2735 0.861167 82.8928ZM0.649628 49.7879C0.535787 49.2518 0.511784 49.08 0.589817 48.4297C0.622084 48.5215 0.654346 48.6134 0.686614 48.7053C0.653703 48.8126 0.621018 48.9192 0.588108 49.0266C0.588108 49.0269 0.588108 49.0272 0.588108 49.0275C0.622672 49.049 0.657298 49.0705 0.691862 49.0911C0.677789 49.3231 0.663702 49.556 0.649628 49.7879ZM0.778897 103.412C0.551531 103.561 0.68369 103.518 0.63242 103.091C0.614619 102.943 0.574837 103.087 0.568214 102.995C0.532035 102.499 0.684369 102.459 0.763639 102.57C0.76902 102.851 0.773929 103.135 0.778897 103.411C0.778897 103.411 0.778897 103.411 0.778897 103.412ZM0.826136 116.29C0.826136 116.29 0.826136 116.29 0.826136 116.291C0.770678 116.304 0.755761 116.104 0.703217 116.329C0.703424 116.158 0.703865 115.986 0.704072 115.813C0.709238 115.864 0.714163 115.916 0.71933 115.966C0.738372 115.922 0.757657 115.877 0.7767 115.832C0.712955 115.771 0.750009 115.714 0.771329 115.534C0.703234 115.584 0.635089 115.633 0.566994 115.683C0.587273 115.474 0.607624 115.263 0.627904 115.054C0.645065 115.051 0.662254 115.049 0.679415 115.046C0.657483 114.967 0.63531 114.889 0.613378 114.81C0.633865 114.788 0.654167 114.768 0.674654 114.746C0.659136 114.651 0.643629 114.555 0.627904 114.46C0.677531 114.431 0.69898 114.641 0.686372 114.269C0.737284 114.383 0.788041 114.497 0.838953 114.612C0.834813 115.171 0.830483 115.731 0.826136 116.29ZM0.708954 99.5293C0.718474 100.145 0.682507 99.9717 0.569922 99.8291C0.616273 99.7295 0.662603 99.6289 0.708954 99.5293ZM0.809167 67.7981C0.732375 67.6194 0.65635 67.44 0.58225 67.257C0.539404 66.8928 0.679368 66.5284 0.734219 66.8025C0.800033 67.1323 0.726375 67.4768 0.809167 67.7981ZM0.774989 59.5025C0.73938 59.9481 0.648134 59.5288 0.594944 59.4284C0.680429 59.3051 0.672889 59.1332 0.68283 58.8571C0.688372 59.1163 0.781034 59.4288 0.775233 59.5025C0.775151 59.5025 0.77507 59.5025 0.774989 59.5025ZM0.722868 74.9694C0.725164 75.148 0.746611 75.3256 0.720549 75.4853C0.64712 75.4371 0.713925 75.1177 0.605076 75.3461C0.603213 75.2319 0.601408 75.1176 0.599339 75.0042C0.644438 75.0762 0.678143 74.9793 0.722624 74.9699C0.722705 74.9697 0.722787 74.9696 0.722868 74.9694ZM0.62241 93.5619C0.709344 93.2114 0.672145 93.145 0.611912 92.7919C0.682693 92.7422 0.801256 93.1632 0.827356 93.4269C0.759056 93.4715 0.690709 93.5164 0.62241 93.5619ZM0.658659 10.6624C0.748879 10.7466 0.760645 11.3674 0.733973 11.6759C0.720592 11.6392 0.707032 11.6023 0.693448 11.5656C0.681856 11.2649 0.67025 10.9631 0.658659 10.6624ZM0.688933 58.7257C0.686291 58.7719 0.684319 58.8157 0.68283 58.8571C0.681847 58.8111 0.683384 58.7667 0.688933 58.7257ZM1.08051 40.0654C1.16558 40.2123 1.19415 39.7758 1.16083 40.3058C1.16091 40.3058 1.161 40.3058 1.16108 40.3058C1.13914 40.6562 1.13328 40.7336 1.12665 41.0583C1.01738 40.9414 0.978325 40.2827 0.955765 41.1906C0.955665 41.2026 1.02069 41.1788 1.01179 41.3238C1.00903 41.3686 0.955665 41.5119 0.940141 41.7299C0.935173 41.8003 0.918716 42.3296 0.917681 41.6081C0.84151 41.6296 0.764413 41.5908 0.690519 41.5925C0.669044 41.3109 0.818196 41.0944 0.814537 40.7965C0.808741 40.3541 0.657916 40.129 0.855794 40.0439C0.904411 40.4159 0.90558 41.0547 0.786584 41.138C0.785135 41.4978 0.882629 41.6012 0.930864 41.311C0.869596 40.068 1.07558 40.9698 0.997755 39.8814C0.970235 39.8685 0.940618 39.8238 0.914751 39.8306C1.0116 39.4984 1.05009 40.013 1.08051 40.0654ZM0.870076 42.6646C0.811913 42.4499 0.753284 42.2358 0.694914 42.0219C0.78971 42.0219 0.874778 42.1399 0.928179 42.4783C0.908738 42.5401 0.88931 42.6028 0.870076 42.6646ZM0.845174 24.5995C0.793637 24.5685 0.746408 24.4861 0.697354 24.426C0.740819 24.3607 0.782518 22.8144 0.825155 23.6011C0.831365 23.7153 0.740233 24.4122 0.845174 24.5995ZM0.700043 95.9954C0.734609 95.8133 0.769231 95.6319 0.803797 95.4506C0.825724 95.7296 0.848226 96.0089 0.870567 96.2879C0.813739 96.1901 0.75687 96.0931 0.700043 95.9954ZM0.899616 64.8336C0.897681 64.9105 0.826803 64.6551 0.837974 64.9581C0.792644 64.7322 0.754276 64.5206 0.711637 64.2999C0.745169 64.2337 0.778565 64.1669 0.812096 64.1007C0.79057 64.0492 0.769173 63.9966 0.747646 63.9451C0.796495 63.976 0.844203 64.0036 0.893879 64.0362C0.789145 64.4082 0.907896 64.4934 0.899616 64.8336ZM1.09065 75.8936C0.984485 75.9605 0.921352 75.4219 0.904377 75.9518C0.834629 75.8513 0.798044 75.6897 0.791834 75.3796C0.818509 75.3298 0.844989 75.2801 0.871664 75.2303C0.800284 75.2234 0.773753 75.1437 0.722868 74.9694C0.722949 74.9693 0.723031 74.9691 0.723112 74.969C0.717944 74.4975 0.741744 74.5257 0.859092 74.4123C0.792856 74.9114 0.900071 74.9263 0.963823 75.2665C1.00766 75.5001 0.987807 75.8052 1.09065 75.8936ZM0.846395 26.2469C0.756778 25.894 0.67319 26.2107 0.768396 25.5846C0.791164 25.6249 0.813739 25.6655 0.836508 25.7059C0.840025 25.8862 0.843291 26.0666 0.846395 26.2469ZM0.726774 77.6354C0.89111 77.595 1.01903 77.2628 0.751675 77.206C0.697239 77.5299 0.84868 77.3717 0.726774 77.6354ZM1.0323 59.6545C1.02463 60.2772 0.839152 60.1595 0.746426 59.9035C0.780164 59.864 0.813963 59.8245 0.847495 59.7859C0.832178 59.6768 0.816831 59.5677 0.801721 59.4586C0.878511 59.5238 0.955509 59.5892 1.0323 59.6545ZM0.907308 88.6139C0.789947 88.138 0.842037 89.1277 0.768765 88.7952C0.710194 88.5298 0.828448 88.18 0.902547 88.3123C0.904617 88.4042 0.906066 88.5065 0.907308 88.613C0.907308 88.6133 0.907308 88.6136 0.907308 88.6139ZM0.87374 85.86C0.748347 85.9382 0.784897 85.8255 0.807459 86.2015C0.813876 86.3089 0.766782 87.1622 0.870688 86.8039C0.870688 86.4991 0.872498 86.177 0.87374 85.86ZM0.848837 52.4562C0.903443 52.4504 1.02335 53.1075 0.993361 53.1918C0.993443 53.1918 0.993524 53.1918 0.993605 53.1918C0.911847 53.4194 0.900231 52.7264 0.788049 53.027C0.886763 52.3613 0.647991 52.1621 0.962601 52.2085C0.976403 52.6007 0.911549 52.415 0.848837 52.4562ZM0.915726 2.51057C0.915726 2.51026 0.915726 2.50996 0.915726 2.50965C0.913158 2.55377 0.833018 2.91733 0.805258 2.87312C0.829059 2.43593 0.881811 2.51384 0.795127 2.10682C0.823046 2.08451 0.850126 2.06539 0.878252 2.04136C0.894811 2.20286 0.928352 2.29238 0.915726 2.51057ZM0.955276 22.9277C0.969558 23.0883 0.910377 23.3815 0.913896 23.5645C0.68663 22.982 0.898557 22.2861 0.955276 22.9277ZM0.818324 110.267C0.818242 110.266 0.818161 110.266 0.81808 110.265C0.818203 110.265 0.818322 110.266 0.818446 110.266C0.818405 110.266 0.818364 110.266 0.818324 110.267ZM0.818931 35.3757C0.833683 35.3549 0.846498 35.3432 0.857747 35.339C0.858805 35.339 0.859863 35.339 0.860921 35.339C0.847108 35.3502 0.833137 35.3621 0.818931 35.3757ZM0.832358 51.0907C0.908513 50.817 1.02958 51.7287 1.00069 52.0236C0.965926 52.003 0.934414 51.9998 0.894489 51.9517C0.984501 51.7137 0.819526 51.1362 0.832358 51.0907ZM0.860312 71.8777C0.862382 71.157 1.16307 72.0949 0.923175 72.1336C0.918527 72.1321 0.860721 71.8963 0.860312 71.8777ZM0.863851 56.7742C0.954888 56.9579 0.979062 56.5888 0.963334 57.1789C0.939753 57.2132 0.916117 57.2476 0.892536 57.2819C0.883018 57.1127 0.87337 56.9434 0.863851 56.7742ZM1.25507 67.1563C1.20436 66.2492 1.1149 65.3817 0.863852 65.9725C0.871916 66.0412 0.879713 66.1108 0.887776 66.1794C1.01026 66.1897 0.943398 66.4431 0.93941 66.8139C0.988035 66.8668 0.999278 67.0724 1.0406 67.111C1.12048 67.1856 1.17663 66.9493 1.25507 67.1563ZM1.05574 105.452C1.03483 105.438 1.01382 105.423 0.99312 105.409C0.969523 105.265 0.946041 105.122 0.922444 104.978C0.962564 105.001 1.00268 105.024 1.0428 105.048C1.04714 105.182 1.05152 105.317 1.05586 105.451C1.05582 105.452 1.05578 105.452 1.05574 105.452ZM1.12849 43.5486C0.898382 43.4662 0.940762 43.7541 1.05708 44.3382C1.08088 44.0753 1.10468 43.8114 1.12849 43.5486ZM1.16181 81.7324C1.09644 81.7513 1.03127 81.7699 0.965898 81.7896C1.034 82.0997 1.10886 82.0422 1.19538 81.8935C1.18421 81.8395 1.17298 81.7864 1.16181 81.7324ZM1.18964 86.1992C1.20328 86.0706 1.1505 86.1363 1.15156 86.1228C1.17929 85.7973 1.20351 85.7514 1.16376 85.3519C1.1499 85.303 1.13532 85.2548 1.12104 85.2059C0.984062 85.3906 1.05872 85.5247 0.978227 85.9154C1.02521 85.845 1.07226 85.7748 1.11946 85.7044C1.10952 85.9217 1.09973 86.1381 1.08979 86.3553C1.10428 86.3811 1.11864 86.4069 1.13313 86.4327C1.15175 86.3554 1.17268 86.2757 1.18964 86.1992ZM0.996293 107.111C0.990912 107.323 0.985318 107.535 0.979937 107.746C1.01367 107.754 1.04764 107.761 1.08137 107.769C1.05302 107.55 1.02464 107.33 0.996293 107.111ZM1.02363 39.2099C1.01167 39.1931 0.999625 39.1768 0.98738 39.1623C1.0023 39.1637 1.01395 39.182 1.02363 39.2099ZM1.10078 1.95301C1.12437 1.71339 1.10888 1.36808 1.11384 1.10524C1.0292 1.1259 1.0526 1.79396 1.00129 2.02854C1.01648 2.06624 1.09085 2.0543 1.10078 1.95301ZM1.02485 60.516C1.06707 60.5761 1.10909 60.6362 1.15131 60.6954C1.14676 60.8406 1.14195 60.9861 1.1374 61.1321C1.17196 61.1364 1.20683 61.1407 1.2414 61.145C1.19649 60.5017 1.29616 60.65 1.39446 60.3315C1.27133 60.3934 1.14819 60.4542 1.02485 60.516ZM1.21552 113.835C1.19213 113.37 1.14845 113.205 1.04475 113.467C1.06855 113.631 1.09237 113.796 1.11616 113.96C1.14927 113.918 1.18241 113.876 1.21552 113.835ZM1.10175 30.7463C1.06301 30.3574 1.20217 30.3509 1.12446 29.9708C1.0988 30.1744 1.07285 30.3779 1.04719 30.5806C1.06533 30.6354 1.08361 30.6915 1.10175 30.7463ZM1.48394 49.8195C1.53235 49.6554 1.30222 49.3487 1.4721 48.8874C1.4214 48.7775 1.37297 48.7086 1.3233 48.6142C1.37732 48.5592 1.43204 48.4967 1.48565 48.4443C1.48565 48.444 1.48565 48.4437 1.48565 48.4434C1.46743 48.0251 1.39968 48.2963 1.34234 48.2869C1.31857 48.2824 1.35831 47.9719 1.30658 48.069C1.21778 48.2365 1.26884 48.8624 1.16059 48.8641C1.19597 48.6442 1.1664 48.2148 1.09419 48.3418C1.01492 48.4809 1.14776 48.8856 1.08198 49.1433C1.255 48.774 1.20155 49.5368 1.06867 49.6235C1.17072 50.0711 1.21234 49.6597 1.20758 49.201C1.30942 49.481 1.2544 49.0689 1.33905 49.001C1.39014 49.2897 1.34755 50.2807 1.48394 49.8195ZM1.29633 70.9342C1.28976 70.6249 1.34797 70.1417 1.26203 69.9299C1.21196 69.8065 1.17318 70.2909 1.09455 69.9569C1.10222 70.2583 1.13293 70.327 1.20185 70.2755C1.21012 70.3442 1.21819 70.4137 1.22626 70.4824C1.21281 70.5142 1.19955 70.5468 1.1861 70.5785C1.21445 70.6146 1.24258 70.6509 1.27094 70.6861C1.26535 70.7591 1.25976 70.8329 1.25397 70.9058C1.26823 70.9144 1.28063 70.929 1.29633 70.9342ZM1.09748 19.5801C1.09831 19.666 1.09913 19.751 1.10017 19.8369C1.11695 19.8274 1.13443 19.8162 1.15168 19.8053C1.16531 19.7975 1.17894 19.7897 1.19257 19.782C1.14387 19.8317 1.06293 20.2409 1.11494 20.4132C1.14103 20.4999 1.23365 20.3027 1.24982 20.67C1.24505 20.4038 1.23241 20.1572 1.22455 19.8987C1.25208 19.9219 1.2799 19.9442 1.30743 19.9674C1.30747 19.9672 1.30751 19.9671 1.30755 19.9669C1.31376 19.881 1.32027 19.7941 1.32647 19.7083C1.2501 19.6653 1.17386 19.623 1.09748 19.5801ZM1.29108 81.4806C1.23705 81.1877 1.209 81.0896 1.12165 81.2279C1.12161 81.2282 1.12157 81.2285 1.12153 81.2289C1.16023 81.3379 1.19891 81.4471 1.23761 81.5562C1.25541 81.5312 1.27328 81.5064 1.29108 81.4806ZM1.31195 36.6867C0.980162 36.0639 1.18355 37.4664 1.29657 37.1994C1.30174 37.1874 1.27531 36.7451 1.31195 36.6867ZM1.13435 59.54C1.13704 59.711 1.13947 59.8823 1.14216 60.0541C1.18293 60.0146 1.22357 59.9741 1.26434 59.9346C1.22108 59.8032 1.17761 59.6715 1.13435 59.54ZM1.36615 111.812C1.45722 111.632 1.49022 111.17 1.39117 110.944C1.37958 111.063 1.36797 111.181 1.35638 111.3C1.345 111.076 1.33248 110.854 1.32172 110.628C1.19483 110.616 1.26844 110.876 1.23346 111.268C1.22782 111.329 1.07033 111.717 1.18903 111.85C1.21343 111.877 1.23002 111.465 1.30097 111.752C1.30655 111.626 1.30531 111.518 1.30841 111.4C1.33863 111.391 1.36889 111.382 1.39911 111.373C1.38816 111.52 1.37709 111.665 1.36615 111.812ZM1.28644 69.1334C1.29344 68.7085 1.24274 68.656 1.15314 68.5676C1.16329 68.7652 1.17327 68.9628 1.18342 69.1604C1.21769 69.151 1.25196 69.1428 1.28644 69.1334ZM1.3952 108.014C1.40985 107.781 1.33692 107.881 1.32306 107.787C1.27091 107.433 1.32303 107.192 1.29035 106.843C1.30442 106.866 1.31758 106.887 1.33124 106.909C1.33124 106.909 1.33124 106.909 1.33124 106.908C1.3927 105.253 1.22731 106.123 1.25421 107.113C1.2271 107.136 1.19995 107.159 1.17304 107.182C1.22044 107.625 1.26605 108.034 1.3952 108.014ZM1.3233 42.2197C1.34027 42.2008 1.44813 42.3614 1.39764 42.0599C1.24016 41.8212 1.31832 42.2127 1.25775 42.3108C1.24264 42.2292 1.22794 42.1457 1.21283 42.0649C1.16833 42.5529 1.20578 42.6241 1.32086 42.4463C1.32859 42.4336 1.30638 42.2386 1.3233 42.2197ZM1.40093 39.013C1.1689 38.946 1.27324 39.5618 1.34527 39.5395C1.34814 39.4545 1.30886 39.3884 1.32623 39.2982C1.34361 39.2072 1.39781 39.1839 1.40093 39.013ZM1.34417 56.6548C1.34521 56.6367 1.44273 56.4555 1.36639 56.4735C1.18569 56.6977 1.302 57.1494 1.36493 57.0704C1.36181 56.921 1.3347 56.8214 1.34442 56.6548C1.34434 56.6548 1.34426 56.6548 1.34417 56.6548ZM1.42083 114.614C1.42731 114.605 1.4665 114.153 1.43011 114.095C1.38913 114.047 1.34522 114.023 1.3028 113.987C1.34212 114.236 1.31217 114.74 1.42083 114.613C1.42083 114.613 1.42083 114.614 1.42083 114.614Z" fill="#AAAAAA"/>
</svg>
