<svg width="365" height="27" viewBox="0 0 365 27" fill="none" xmlns="http://www.w3.org/2000/svg">
<path d="M220.002 23.5238C233.786 23.5161 248.878 23.4698 262.718 23.53C264.417 23.5374 264.301 23.6381 264.778 23.6514C266.081 23.6881 266.866 23.5693 267.815 23.578C272.433 23.62 276.752 23.6371 281.282 23.6752C285.949 23.7144 283.741 24.0276 285.363 24.1039C288.53 24.2533 285.836 23.8449 287.081 23.7532C290.713 23.7777 294.377 23.822 298.015 23.8668C297.127 23.9049 296.238 23.9422 295.34 23.9775C296.926 23.9859 299.196 24.049 296.54 24.1557C297.127 24.1851 297.675 24.2195 298.278 24.2482C298.443 24.0994 301.251 24.0875 301.508 23.9993C301.764 23.9111 300.185 23.9314 300.195 23.9237C300.3 23.8139 306.775 23.964 307.242 23.9762C308.476 24.0088 307.394 24.1932 308.444 24.1813C310.25 24.161 309.047 23.7859 311.492 24.2846C312.465 24.1226 312.549 24.2067 313.781 24.2179C313.943 24.2193 313.817 24.1255 313.889 24.1231C315.753 24.0535 314.32 24.2279 314.33 24.2374C314.499 24.3979 316.5 24.3265 316.921 24.3419C322.21 24.5337 326.085 24.6635 331.665 24.7079C332.872 24.7174 336.546 24.6523 337.713 24.6796C338.865 24.7065 338.247 24.8222 338.849 24.8777C339.815 24.5995 340.737 24.5688 342.905 24.7521C343.713 24.5491 343.609 24.7128 345.155 24.6722C346.443 24.6386 348.687 24.3952 350.104 24.6027C348.479 24.5838 348.647 24.6835 346.818 24.7436C346.209 24.7636 339.861 24.7678 340.333 24.9753C340.58 25.0834 342.684 24.9841 342.765 25.004C343.239 25.1202 342.064 25.263 341.023 25.2129C341.283 25.1895 341.595 25.1657 341.874 25.1423C339.536 24.997 341.144 25.5548 339.367 25.0674C339.147 25.0076 339.232 24.9452 338.87 24.8817C338.796 24.908 339.239 24.9731 338.857 24.9848C338.468 24.9966 337.729 24.8729 337.619 24.9771C337.454 25.1287 339.067 25.069 339.188 25.0778C339.189 25.0769 339.191 25.076 339.192 25.0751C340.265 25.1555 338.024 25.1647 337.917 25.1791C337.224 25.2735 337.696 25.3462 336.656 25.4243C336.063 25.4687 334.551 25.4425 333.993 25.4568C333.439 25.4716 334.302 25.5433 333.929 25.5587C333.556 25.574 333.091 25.5196 332.654 25.5374C332.466 25.5453 332.476 25.6253 332.385 25.628C331.413 25.6588 332.051 25.4925 331.169 25.5026C330.597 25.5094 328.679 25.6644 330.001 25.7106C329.366 25.7267 328.746 25.7385 328.114 25.7511C328.513 25.7749 328.925 25.7911 329.314 25.819C328.124 25.7809 327.586 25.9178 326.841 25.928C326.095 25.9381 325.426 25.7739 324.606 25.854C322.855 26.0244 327.191 25.9457 327.729 25.9761C327.939 25.9881 327.133 26.1167 327.009 26.1204C326.458 26.1365 325.806 26.0445 325.381 26.0486C323.861 26.064 322.929 26.1855 321.48 26.21C316.545 26.2932 310.422 26.3608 305.746 26.3874C304.005 26.3972 302.957 26.2607 302.176 26.2645C300.347 26.2736 300.123 26.3926 298.528 26.3989C296.155 26.4087 292.811 26.3049 290.829 26.2825C289.458 26.2671 288.216 26.3822 287.859 26.385C282.901 26.4263 276.869 26.4237 272.761 26.4251C270.829 26.4258 269.911 26.2964 269.512 26.3002C267.797 26.3163 268.257 26.4269 266.866 26.4158C266.115 26.4098 265.974 26.3036 265.874 26.2995C264.989 26.2645 264.812 26.4032 264.122 26.4077C260.15 26.4339 256.323 26.3432 252.39 26.3299C252.105 26.3288 252.13 26.2674 251.945 26.2706C251.152 26.2856 251.521 26.3824 250.691 26.3894C248.966 26.4045 247.195 26.3885 245.366 26.3762C245.185 26.375 245.103 26.2961 244.689 26.296C244.274 26.296 243.959 26.3709 243.307 26.3667C241.605 26.3559 239.925 26.2663 238.122 26.2614C237.824 26.2607 237.454 26.3558 237.007 26.3548C235.602 26.3516 233.524 26.2653 232.321 26.2621C228.351 26.2523 224.69 26.3065 220.951 26.3072C220.072 26.3071 219.294 26.219 218.837 26.2169C217.806 26.2124 218.584 26.2957 217.54 26.296C209.012 26.2981 200.451 26.2603 191.822 26.2669C188.433 26.2694 184.308 26.3555 181.033 26.3317C179.672 26.3216 179.424 26.2064 178.461 26.2054C176.743 26.204 176.432 26.3516 174.62 26.3663C173.173 26.3779 171.516 26.2305 170.011 26.2396C168.507 26.2487 167.812 26.3918 166.084 26.409C164.661 26.423 162.673 26.358 161.123 26.3685C146.92 26.4651 132.934 26.5239 118.644 26.4119C113.601 26.3724 108.007 26.3929 102.796 26.2523C102.306 26.2389 103.055 26.1007 101.486 26.1298C100.643 26.1455 99.4657 26.2646 97.517 26.2706C85.9307 26.3056 73.5721 26.0508 61.7912 26.1012C44.1444 26.1771 25.8556 27.1607 10.5208 25.7214C9.76863 25.6508 10.1765 25.3044 10.6272 25.206C11.0454 25.2763 11.432 25.3598 11.8697 25.4393C12.4208 25.0065 12.3236 25.1192 14.3664 25.158C15.6241 25.1821 14.6195 24.997 15.2899 24.9445C16.1589 24.8766 20.2393 24.6628 19.4545 24.9495C19.7075 24.8998 19.9409 24.8522 20.1874 24.8035C23.1414 24.7601 26.0114 24.6884 28.9006 24.6061C29.3997 24.5918 29.4227 24.5018 29.9382 24.4875C31.3227 24.4483 32.4219 24.5074 33.8486 24.4983C34.6237 24.4934 34.7312 24.3895 35.7461 24.3961C36.7605 24.4028 36.7383 24.5431 38.1222 24.3906C37.2208 24.2146 41.242 24.3423 42.6721 24.3315C42.8796 24.3301 44.5818 24.1719 45.4866 24.1901C46.3944 24.208 47.7727 24.309 49.1766 24.2516C49.8348 24.2247 50.2342 24.1015 50.9444 24.0945C51.4437 24.0896 52.0436 24.1991 52.6759 24.2037C53.3079 24.2082 54.6756 24.1184 54.9262 24.1169C55.8307 24.1109 54.8328 24.1879 55.4514 24.1918C58.4379 24.2093 61.9078 24.2505 64.8521 24.1987C65.2141 24.1924 64.7132 24.1018 64.7613 24.0987C67.2187 23.9875 65.907 24.1056 66.5706 24.1868C67.2134 24.2653 71.9172 24.2225 71.9518 24.0649C72.0963 24.2623 73.142 24.1115 73.4136 24.1057C74.4705 24.0833 74.2632 24.2541 75.2877 24.2013C75.6637 24.182 74.9317 24.0666 75.3357 24.07C76.3344 24.0784 77.2332 24.2638 78.5627 24.2824C78.8837 24.287 78.988 24.2043 79.5587 24.2071C80.1301 24.21 82.5252 24.311 81.4199 24.1368C82.8725 24.2764 83.165 24.1998 84.8544 24.2037C85.2823 24.2048 85.8333 24.338 86.7441 24.2967C87.0521 24.2827 87.0431 24.1544 87.5068 24.1533C88.567 24.1505 89.5658 24.2834 90.9114 24.2886C93.4277 24.2988 96.1063 24.2054 98.7297 24.2386C99.4427 24.2478 99.2647 24.3768 100.302 24.3793C100.454 24.3793 101.703 24.2677 102.42 24.2782C102.851 24.2845 105.086 24.3629 105.536 24.3692C106.282 24.3793 106.415 24.2545 106.823 24.2789C108.003 24.3493 107.056 24.5329 108.477 24.2817C108.944 24.4209 109.774 24.407 110.04 24.5785C110.523 24.3906 111.149 24.5711 112.086 24.5082C113.023 24.4452 113.792 24.0812 114.019 24.4728C114.456 24.4252 116.322 24.344 116.636 24.3381C117.563 24.3213 117.067 24.4296 117.767 24.415C117.89 24.4125 117.761 24.3385 118.552 24.3458C119.071 24.3507 122.872 24.3552 123.099 24.3653C125.689 24.4813 121.688 24.4388 121.128 24.519C121.029 24.4979 120.931 24.4768 120.825 24.456C119.681 24.421 120.332 24.5883 120.851 24.6272C121.37 24.666 122.34 24.5915 122.771 24.6464C122.986 24.674 122.853 24.8746 122.203 24.8504C122.898 24.9122 121.949 24.9774 122.224 25.0355C122.526 25.0992 125.65 25.1188 125.667 25.0082C125.083 25.0044 124.357 25.0082 123.767 25.0037C122.995 24.8115 125.339 24.1554 127.489 24.4175C129.049 24.6072 126.478 24.758 130.168 24.5988C129.6 24.5911 129.12 24.5732 128.605 24.5651C128.55 24.421 129.386 24.5795 129.817 24.5336C130.025 24.5112 128.748 24.4092 129.856 24.3752C130.81 24.5813 131.543 24.374 133.142 24.3716C132.697 24.4083 132.253 24.4449 131.808 24.4816C134.509 24.631 128.236 24.6803 133.488 24.764C132.856 24.7706 132.227 24.7688 131.592 24.779C131.9 24.8546 131.407 25.0765 131.683 25.1234C132.405 25.2465 133.475 25.1723 134.357 25.1831C134.743 25.1877 134.503 25.2476 134.536 25.2479C135.064 25.2546 134.948 25.1667 135.411 25.1611C135.995 25.1541 137.68 25.2395 137.954 25.2298C138.66 25.2049 137.483 25.0316 137.551 25.0187C138.002 24.9347 138.923 25.0043 138.874 24.8945C136.659 24.9701 130.276 24.8731 136.051 24.6915C134.459 24.514 134.918 24.2694 137.208 24.2502C139.101 24.2341 137.88 24.3321 138.865 24.4399C138.993 24.4534 141.529 24.5049 141.659 24.4287C141.557 24.6042 142.383 24.7596 141.829 24.9407C141.748 24.9673 140.707 24.9568 141.07 25.1024C141.252 25.1755 141.773 25.3346 141.689 25.4277C141.903 25.363 142.127 25.2902 142.344 25.2227C143.904 25.2038 144.125 25.2735 144.978 25.3942C144.939 25.3438 144.151 25.1321 145.348 25.1965C145.409 25.2003 145.462 25.2763 146.07 25.314C147.299 25.3896 147.555 25.4131 146.612 25.6363C149.157 25.509 149.705 25.7577 152.315 25.685C151.796 25.3981 150.879 25.4691 148.489 25.5244C148.385 25.4562 148.337 25.3886 148.23 25.3197C151.41 25.4744 149.839 25.4586 151.641 25.3201C152.082 25.2861 154.433 25.3224 153.648 25.1293C153.463 25.0838 152.002 25.089 152.17 25.0174C152.202 25.0037 153.978 24.969 154.135 24.9875C156.1 25.2161 152.588 25.3753 158 25.292C158.149 25.2896 158.201 25.2061 158.493 25.1945C159.041 25.1728 159.048 25.2695 159.537 25.2472C160.026 25.2248 160.705 25.0947 161.441 25.215C162.787 25.434 159.612 25.56 158.198 25.4438C157.624 25.7301 167.725 25.7364 168.351 25.7119C171.084 25.6052 166.536 25.6668 166.302 25.5874C166.205 25.5538 166.253 25.128 165.102 25.4043C164.762 25.4862 166.185 25.5941 165.336 25.6392C164.486 25.6844 164.823 25.559 164.761 25.5502C164.55 25.5202 163.646 25.5667 163.529 25.5489C161.726 25.2791 161.891 24.8714 164.281 25.4737C165.322 25.3376 162.933 25.1206 164.227 25.0282C165.799 24.9159 166.947 25.1101 167.145 25.1188C169.515 25.2224 166.782 24.9389 169.677 25.0295C171.288 25.0799 167.265 25.2181 170.945 25.1996C174.026 25.1838 172.362 25.0852 172.586 24.8608C172.639 24.8083 174.327 24.744 172.028 24.7671C171.963 24.8255 171.841 24.9025 171.695 24.9564C171.131 24.9138 170.191 24.6213 169.892 24.6111C168.43 24.5624 168.5 24.7142 167.638 24.5355C168.254 24.731 167.251 24.6132 166.875 24.6545C165.479 24.8067 167.31 24.8632 164.175 24.6677C164.584 24.7593 164.953 24.8493 165.349 24.9407C164.973 24.9438 164.596 24.947 164.22 24.9502C163.659 24.7483 161.661 24.7741 163.471 24.5708C161.295 24.5131 160.416 24.5571 159.939 24.7142C159.848 24.7442 159.521 24.7561 159.137 24.759C159.21 24.8032 159.303 24.9397 159.242 24.9564C158.701 25.1036 157.862 24.8493 158.148 24.7523C157.879 24.7476 157.666 24.7422 157.591 24.7398C157.115 24.7247 158.049 24.637 157.663 24.6069C157.536 24.5971 156.194 24.6162 156.169 24.5805C156.007 24.3517 158.214 24.5168 153.782 24.3838C153.675 24.5921 155.733 24.5463 155.205 24.7675C154.637 25.005 153.48 24.6863 153.227 24.9778C153.133 24.9299 153.091 24.8899 153.01 24.8354C151.217 24.9624 151.194 24.7196 150.646 24.666C149.582 24.5614 144.692 24.5771 149.083 24.7874C148.441 24.8084 147.785 24.8181 147.147 24.8367C147.001 24.4014 147.39 24.5747 144.313 24.5082C143.635 24.4935 143.414 24.302 142.75 24.5294C142.84 24.3064 140.836 24.4411 140.649 24.4141C139.449 24.238 143.904 23.993 144.475 24.3873C145.227 24.2338 145.224 24.4367 146.064 24.4098C147.276 24.371 147.445 24.3315 148.885 24.4813C150.302 24.2702 143.337 24.3884 147.559 24.1085C151.782 23.8285 176.373 23.6724 182.11 23.6304C192.503 23.5544 197.967 23.5048 207.303 23.5174C208.224 23.5184 215.175 23.4982 213.731 23.7421C213.523 23.7771 210.533 23.8698 213.098 24.0612C212.576 23.9482 214.084 23.8748 214.211 23.8629C217.113 23.5928 215.433 23.5266 220.002 23.5238ZM233.546 25.6987C227.583 25.6431 231.964 25.8061 230.725 26.1743C231.491 26.1753 232.253 26.1763 233.018 26.1774C232.817 26.1543 232.619 26.1312 232.418 26.1082C232.417 26.1082 232.416 26.1082 232.415 26.1082C232.791 25.9717 233.17 25.8352 233.546 25.6987ZM331.027 25.9452C330.795 25.9937 330.565 26.0422 330.313 26.0897C329.525 26.0746 328.74 26.0598 327.952 26.0448C328.046 26.0119 328.137 25.9786 328.231 25.9457C329.163 25.9471 330.092 25.9487 331.027 25.9452ZM157.364 25.4971C156.249 25.3624 156.35 25.6028 154.868 25.4933C155.049 25.6707 155.251 25.8442 155.442 26.0199C156.57 25.9936 156.827 25.9262 158.052 25.9695C157.909 25.9125 157.763 25.8552 157.624 25.7978C157.42 25.81 157.203 25.8239 157.005 25.8348C156.691 25.6752 158.649 25.6514 157.368 25.4968C157.367 25.4969 157.366 25.497 157.364 25.4971ZM145.934 25.5685C145.334 25.5454 142.957 25.4586 142.633 25.5321C141.534 25.7813 148.239 25.6231 143.297 25.8447C143.32 25.8796 143.297 25.9139 143.297 25.9485C144.199 25.9607 145.097 25.9713 146.005 25.9811C145.957 25.8432 145.989 25.7071 145.934 25.5685ZM211.978 25.7141C211.056 25.6949 206.661 25.8121 208.094 25.9699C208.515 26.0161 210.478 25.7904 211.224 25.8002C211.707 25.8065 211.165 25.9303 212.118 25.8848C212.076 25.8302 212.05 25.7697 211.976 25.7145C211.977 25.7144 211.978 25.7142 211.978 25.7141ZM213.707 24.994C212.754 25.016 211.788 25.0439 210.828 25.0674C211.528 25.2084 212.906 25.1178 212.987 25.3162C212.725 25.3313 212.465 25.3462 212.203 25.3613C212.002 25.3179 211.804 25.2745 211.606 25.2311C210.783 25.3389 211.281 25.3924 209.748 25.3613C210.675 25.6612 210.847 25.8221 213.474 25.5187C212.978 25.6815 213.445 26.2117 214.901 25.8328C215.173 25.7624 214.035 25.7154 214.022 25.7042C213.848 25.565 214.479 25.4761 214.291 25.3446C214.207 25.2851 213.513 25.286 213.409 25.2034C213.361 25.1631 214.021 25.0482 213.707 24.994ZM215.607 25.7C215.312 25.7843 216.321 25.9845 217.196 25.9439C218.561 25.8809 216.408 25.6906 215.607 25.7ZM331.032 25.945C331.031 25.9451 331.029 25.9451 331.027 25.9452C331.028 25.945 331.029 25.9448 331.03 25.9446C331.031 25.9448 331.032 25.9449 331.032 25.945ZM149.027 25.6661C148.321 25.7378 147.274 25.7274 147.352 25.8414C147.008 25.819 146.66 25.7969 146.317 25.7745C146.32 25.8088 146.326 25.8432 146.33 25.8771C147.364 25.8984 148.395 25.9198 149.429 25.9415C149.3 25.8498 149.18 25.7578 149.027 25.6661ZM137.759 25.5863C136.459 25.5748 137.549 25.7299 137.263 25.8047C136.978 25.8796 135.82 25.8187 135.956 25.9261C136.721 25.9303 137.52 25.9346 138.295 25.9384C138.09 25.8215 137.948 25.7025 137.756 25.5863C137.757 25.5863 137.758 25.5863 137.759 25.5863ZM257.883 25.8209C257.001 25.7873 257.361 25.6689 255.62 25.8075C255.621 25.8075 255.622 25.8075 255.624 25.8075C257.281 25.9044 259.414 25.9908 261.242 25.897C260.124 25.7722 259.271 25.8733 257.883 25.8209ZM160.449 25.8463C160.821 25.7525 159.087 25.6742 158.704 25.7614C158.085 25.9024 159.881 25.9887 160.449 25.8463ZM293.505 24.9903C294.847 24.7016 292.305 24.3776 289.643 24.5175C289.412 24.5298 291.131 24.6216 290.622 24.6779C290.57 24.6835 289.627 24.6766 289.394 24.7167C289.16 24.757 289.405 24.8504 289.023 24.8896C288.351 24.9581 286.834 24.8312 286.331 24.9211C286.265 24.9331 287.206 25.0581 287.265 25.0628C288.231 25.1384 289.163 24.9751 289.312 24.974C290.08 24.9684 289.964 25.0964 290.159 25.1265C290.525 25.1831 291.171 25.1265 291.216 25.1307C292.382 25.243 289.717 25.2109 289.357 25.2571C288.388 25.3817 289.285 25.4975 286.96 25.5678C286.74 25.5744 284.097 25.5669 287.427 25.7103C280.888 26.0091 290.713 25.8802 291.78 25.8145C292.272 25.7839 291.527 25.6619 291.826 25.607C292.506 25.4814 293.667 25.4592 293.563 25.2822C293.34 24.9099 291.815 25.1538 290.765 25.0912C290.875 25.0103 290.917 24.9315 291.121 24.8524C290.807 24.9588 293.408 25.012 293.505 24.991C293.505 24.9908 293.505 24.9905 293.505 24.9903ZM276.95 25.4156C275.481 25.3033 275.585 25.5383 274.24 25.4039C273.053 25.6149 275.394 25.6008 275.666 25.6127C276.911 25.6659 276.883 25.8953 278.156 25.8247C277.719 25.6889 277.362 25.5518 276.95 25.4156ZM289.727 25.5125C288.744 25.6315 290.503 25.6295 290.574 25.6522C291.35 25.8936 286.086 25.8467 289.727 25.5125ZM206.256 25.2413C205.757 25.2333 206.074 25.3472 205.633 25.3809C205.193 25.4148 203.685 25.3173 203.723 25.3882C203.762 25.4592 206.524 25.6435 203.752 25.6833C203.845 25.7232 203.814 25.753 203.859 25.789C204.621 25.79 205.39 25.7918 206.152 25.7928C205.734 25.6781 205.305 25.5573 204.903 25.4464C205.331 25.3551 205.572 25.4722 205.595 25.4722C205.595 25.4721 205.595 25.472 205.595 25.4719C206.392 25.4627 207.377 25.2592 206.256 25.2413ZM245.554 25.5989C245.703 25.3137 244.526 25.6323 244.043 25.6676C243.56 25.7028 242.896 25.5972 243.145 25.72C243.927 25.8047 245.538 25.6308 245.554 25.5986C245.554 25.5987 245.554 25.5988 245.554 25.5989ZM268.97 25.4162C267.738 25.4854 267.934 25.5596 266.428 25.475C266.486 25.5439 266.544 25.6144 266.603 25.6822C267.799 25.6836 267.715 25.4835 269.099 25.564C269.326 25.5773 268.841 25.7371 269.865 25.6857C269.567 25.6004 269.265 25.5057 268.97 25.4162ZM262.867 25.6718C264.281 25.6613 265.403 25.1034 262.799 25.355C262.413 25.3926 261.804 25.6799 262.867 25.6718ZM219.297 25.2272C216.892 25.2111 219.625 25.3012 220.251 25.3869C214.652 25.4555 220.883 25.3634 221.441 25.6486C222.125 25.5674 223.406 25.3817 221.983 25.332C221.39 25.3113 221.607 25.3962 221.571 25.3959C220.478 25.3749 220.611 25.236 219.297 25.2272ZM279.503 25.4019C279.412 25.4061 279.554 25.5024 279.265 25.5217C278.976 25.5408 278.322 25.4734 278.258 25.5325C278.193 25.5919 279.505 25.6381 279.907 25.5947C280.309 25.551 280.323 25.3648 279.503 25.4019ZM270.273 25.1646C269.072 25.2339 271.037 25.5887 271.298 25.587C273.594 25.5685 270.205 25.2769 270.273 25.1646ZM224.882 24.6246C221.983 24.8049 224.104 25.118 225.92 25.3056C226.16 25.2675 226.406 25.2293 226.642 25.1915C225.553 25.4232 223.643 25.6522 227.891 25.4503C225.566 25.3957 227.513 25.3335 227.528 25.3204C227.784 24.8949 224.34 25.0925 224.885 24.6246C224.884 24.6246 224.883 24.6246 224.882 24.6246ZM283.411 25.5034C284.672 25.5019 287.953 25.4284 286.422 25.243C285.417 25.3297 284.416 25.4166 283.411 25.5034ZM177.421 24.6495C176.39 24.5435 175.439 24.5453 174.168 24.5523C175.313 24.7066 174.561 24.7243 174.175 24.7621C173.589 24.819 175.007 24.8144 175.011 24.8248C174.985 24.9714 174.081 24.9942 176.14 24.9907C175.631 25.0417 175.129 25.0932 174.62 25.1439C176.189 25.1506 176.558 25.2462 177.553 25.3631C176.587 25.0775 177.859 25.2563 179.014 25.1143C179.59 25.0431 177.946 24.7038 177.417 24.6495C177.419 24.6495 177.42 24.6495 177.421 24.6495ZM221.886 24.5673C221.588 24.6188 221.315 24.6883 221.026 24.7471C220.712 24.7527 220.397 24.7576 220.082 24.7632C220.043 24.7178 220.011 24.6702 219.965 24.6265C219.551 24.6132 219.712 24.6765 219.589 24.6825C219.589 24.6822 219.589 24.682 219.589 24.6818C217.823 24.7657 217.099 24.7563 215.715 24.6157C215.715 24.755 215.715 24.8943 215.715 25.0337C216.026 25.0204 216.34 25.0074 216.651 24.9945C216.817 24.9196 216.983 24.8447 217.148 24.7698C217.508 24.8111 217.865 24.8521 218.225 24.8934C218.513 24.8665 218.86 24.8382 219.109 24.8119C220.546 25.2014 217.281 24.9368 217.252 25.0985C217.233 25.2024 220.52 25.1979 220.994 25.1262C221.062 25.1157 220.351 24.8256 221.554 24.9767C221.742 25.0005 221.808 25.628 223.105 25.1199C223.29 25.0479 222.645 24.6581 221.886 24.5673ZM209.949 24.365C211.797 24.7664 204.975 24.3419 207.919 24.6722C207.079 24.8566 207.235 24.8542 208.081 25.0179C208.155 25.0326 207.571 25.0833 207.62 25.0897C208.412 25.18 209.365 25.1321 209.371 25.2963C209.585 25.2875 209.787 25.2797 210 25.271C209.109 25.1163 210.526 25.0124 211.074 24.8819C211.324 24.8228 210.75 24.8045 210.96 24.7528C211.038 24.7339 211.839 24.7716 211.872 24.7175C211.94 24.595 211.437 24.4295 210.584 24.3392C210.584 24.339 210.584 24.3389 210.584 24.3388C210.37 24.3468 210.162 24.3566 209.949 24.365ZM249.453 24.6984C249.767 24.9203 251.028 24.9838 248.606 25.0923C248.726 25.136 248.849 25.1793 248.969 25.223C249.377 25.2192 249.773 25.2153 250.188 25.2118C251.433 24.5582 253.706 25.2959 252.25 24.8323C252.091 24.7819 251.122 24.8382 252.079 24.7013C252.078 24.7012 252.076 24.7011 252.075 24.701C250.739 24.743 250.571 24.8216 249.453 24.6984ZM240.512 24.8531C237.432 25.32 244.769 25.1136 243.543 24.9897C243.433 24.9785 240.272 25.0789 240.512 24.8531ZM265.232 24.4468C263.851 24.4388 263.759 24.6907 263.899 24.7814C264.038 24.8723 264.994 24.7804 265.118 24.7947C265.52 24.842 264.667 24.8732 265.189 24.9379C265.362 24.9589 267.767 25.0487 267.878 25.0379C268.49 24.9777 267.595 24.7698 267.77 24.746C268.341 24.668 269.116 24.7761 269.281 24.6656C269.638 24.4299 268.193 24.6774 267.949 24.6814C267.213 24.6926 267.277 24.5599 266.726 24.5333C266.175 24.5067 265.815 24.5522 265.329 24.5428C265.167 24.5396 265.302 24.4477 265.232 24.4468ZM260.665 24.9788C262.108 24.7881 258.595 24.5807 258.179 24.6254C256.953 24.758 259.974 25.0697 260.665 24.9788ZM214.576 24.9707C215.896 24.8325 212.822 24.7206 211.943 24.7762C212.106 24.8337 214.122 25.0183 214.576 24.9707ZM225.686 24.6254C224.474 24.6684 226.082 24.9798 227.094 24.9749C227.687 24.7703 227.129 24.8108 226.467 24.8024C225.806 24.7939 226.633 24.5918 225.686 24.6254ZM280.212 24.6744C279.95 24.6712 275.733 24.8403 278.156 24.9106C278.341 24.9159 281.293 24.8861 281.517 24.8546C281.967 24.7909 280.887 24.6835 280.212 24.6744ZM231.503 24.3231C230.861 24.5001 230.23 24.4977 230.82 24.7056C230.821 24.7056 230.822 24.7056 230.822 24.7056C229.198 24.7692 229.126 24.344 228.776 24.3531C227.551 24.385 228.711 24.6877 227.943 24.787C229.73 24.6936 229.217 24.8977 230.576 24.9106C230.881 24.9134 232.101 24.7916 232.279 24.7156C232.457 24.6397 231.834 24.4119 231.503 24.3231ZM286.169 24.6303C284.746 24.5625 283.443 24.8494 285.417 24.8949C286.38 24.9173 287.038 24.6716 286.169 24.6303ZM143.881 24.5585C144.098 24.6338 144.322 24.7087 144.555 24.7832C144.03 24.8014 143.504 24.82 142.979 24.8385C143.394 24.8147 143.81 24.7913 144.228 24.7678C143.243 24.7416 142.792 24.6047 143.878 24.5585C143.879 24.5585 143.88 24.5585 143.881 24.5585ZM108.785 24.5012C108.344 24.4288 107.475 24.6531 107.586 24.6706C108.415 24.801 109.397 24.6017 108.785 24.5012ZM212.627 24.2894C210.987 24.258 212.115 24.6227 213.12 24.6477C212.505 24.5779 213.557 24.3072 212.627 24.2894ZM121.128 24.519C121.275 24.5503 121.423 24.5817 121.588 24.6131C121.069 24.5695 120.979 24.5402 121.128 24.519ZM279.542 24.3523C279.291 24.3244 277.44 24.3013 277.19 24.3359C276.671 24.4087 278.115 24.61 278.964 24.5481C279.059 24.5414 279.791 24.3803 279.538 24.3523C279.539 24.3523 279.54 24.3523 279.542 24.3523ZM141.663 24.4188C141.666 24.4223 141.664 24.4256 141.659 24.4287C141.661 24.4255 141.66 24.4221 141.663 24.4188ZM71.9376 24.0482C71.9477 24.0539 71.953 24.0595 71.9518 24.0649C71.948 24.0596 71.9401 24.054 71.9376 24.0482ZM266.486 24.0427C265.87 23.6952 264.45 23.88 265.572 24.0519C265.634 24.0609 266.337 24.042 266.486 24.0427ZM22.3706 24.0087C24.4176 23.9828 26.6483 23.9156 28.7106 23.9563C28.9618 23.9613 28.9458 24.0622 29.0166 24.0749C29.2102 24.1097 29.3259 23.9898 29.4675 23.9972C30.1533 24.0327 30.7961 24.0437 31.4685 24.0754C32.1618 24.108 31.8376 24.4243 32.0792 24.4983C32.5511 24.6432 32.1472 24.2386 32.331 24.1452C32.8676 24.1646 33.4144 24.2036 33.9562 24.2432C33.8239 24.2826 33.69 24.3212 33.5591 24.3578C33.7909 24.364 34.1362 24.4237 33.7379 24.5342C33.8264 24.5628 33.9089 24.5964 33.9992 24.6242C34.0231 24.4753 34.4396 24.4593 34.4759 24.3708C34.5129 24.2822 34.2801 24.3047 34.2813 24.297C34.2932 24.1871 35.261 24.3279 35.3284 24.3395C35.5105 24.3704 35.3531 24.5563 35.5071 24.5429C35.7697 24.5201 35.5927 24.1467 35.9632 24.6418C36.1068 24.4784 36.1205 24.5624 36.3019 24.5719C36.3257 24.5731 36.3063 24.4795 36.3168 24.4769C36.5887 24.4047 36.3809 24.5811 36.3825 24.5905C36.407 24.7508 36.7044 24.6766 36.7695 24.6914C37.5482 24.8757 38.1419 24.9998 38.9571 25.0364C39.1571 25.0439 39.6694 24.9739 39.8642 24.9993C40.0367 25.0246 39.9455 25.1411 40.0343 25.1958C40.1624 24.9163 40.3213 24.8841 40.633 25.0644C40.7377 24.8604 40.7418 25.0241 40.9712 24.9813C41.1262 24.9462 41.5183 24.6989 41.6967 24.9049C41.4781 24.8879 41.481 24.9877 41.2167 25.0504C41.126 25.0712 40.1893 25.0844 40.248 25.2913C40.2933 25.399 40.6083 25.2967 40.6157 25.3165C40.683 25.4321 40.5227 25.5764 40.3593 25.5279C40.3994 25.5041 40.4468 25.4799 40.4879 25.456C40.1343 25.3142 40.3627 25.8698 40.1105 25.3847C40.0786 25.3253 40.0903 25.2628 40.0374 25.1998C40.0269 25.2261 40.0915 25.2907 40.0365 25.3029C39.9806 25.3152 39.8687 25.1926 39.8527 25.2969C39.8305 25.4487 40.0694 25.3867 40.085 25.3954C40.0852 25.3945 40.0854 25.3936 40.0856 25.3927C40.2399 25.4717 39.9187 25.4839 39.8996 25.4985C39.7956 25.5939 39.8694 25.6659 39.7087 25.7455C39.6109 25.7909 39.4057 25.7667 39.3192 25.7818C39.2369 25.7973 39.3658 25.8678 39.3105 25.8837C39.2553 25.8997 39.1848 25.8459 39.1178 25.8643C39.0891 25.8725 39.0914 25.9524 39.0774 25.9554C38.928 25.9876 39.0201 25.8203 38.8941 25.8317C38.8137 25.8392 38.5323 25.997 38.7272 26.0413C38.6344 26.0583 38.5422 26.071 38.4466 26.0845C38.5072 26.1077 38.5691 26.1233 38.627 26.1507C38.4498 26.1143 38.3682 26.252 38.2533 26.2633C38.1436 26.2745 38.0476 26.1111 37.9271 26.1924C37.675 26.3653 38.2953 26.2806 38.3902 26.3101C38.4224 26.3218 38.3005 26.4516 38.2812 26.4554C38.1954 26.4724 38.1057 26.3812 38.0426 26.386C37.8207 26.4035 37.6821 26.5262 37.4604 26.5529C36.7435 26.6431 35.8106 26.7196 35.1299 26.7527C34.8712 26.765 34.708 26.63 34.5958 26.635C34.327 26.6466 34.2946 26.7659 34.0572 26.7745C33.698 26.7878 33.21 26.6886 32.9116 26.669C32.7052 26.6556 32.5247 26.7724 32.4714 26.7758C31.7353 26.8241 30.8396 26.83 30.2288 26.8372C29.9418 26.8406 29.8047 26.7125 29.7456 26.7169C29.4913 26.7354 29.5599 26.8454 29.3529 26.8362C29.2411 26.8313 29.2193 26.7253 29.2043 26.7213C29.0724 26.6875 29.0476 26.8264 28.9453 26.8319C28.3549 26.8638 27.7924 26.7783 27.201 26.7705C27.1585 26.7699 27.1617 26.7084 27.1343 26.7118C27.0167 26.728 27.0722 26.8242 26.9497 26.8324C26.6981 26.8498 26.4289 26.8363 26.1575 26.8266C26.1306 26.8256 26.1178 26.7468 26.0565 26.7473C25.9952 26.7479 25.9494 26.8232 25.8538 26.8199C25.6074 26.8113 25.344 26.7242 25.0807 26.7218C25.0368 26.7215 24.9834 26.8171 24.9181 26.8167C24.7159 26.8154 24.3924 26.732 24.2184 26.7304C23.6336 26.726 23.0835 26.7851 22.5311 26.7907C22.4081 26.7918 22.2846 26.7047 22.2149 26.7033C22.0586 26.7001 22.1763 26.7824 22.0206 26.7841C21.8278 26.7861 21.6318 26.7872 21.4288 26.7876C21.2355 26.788 21.0377 26.7877 20.8361 26.7871C20.6571 26.7863 20.4246 26.7856 20.2504 26.7843C20.1512 26.7837 20.033 26.7832 19.9502 26.7825C19.9204 26.782 19.833 26.7819 19.7913 26.7815C19.7091 26.7775 19.8295 26.7925 19.4885 26.7692L20.2106 26.6503C20.0055 26.742 20.0085 26.7288 19.9347 26.7527C19.8766 26.7688 19.8255 26.7803 19.7781 26.7897C19.6813 26.8087 19.5987 26.8193 19.5183 26.8269C19.3586 26.8415 19.2179 26.842 19.0827 26.8365C18.816 26.8249 18.5775 26.7887 18.352 26.743L18.5716 26.7679C18.4468 26.7646 18.3219 26.7624 18.1967 26.7615C17.7125 26.7567 17.1304 26.8528 16.6361 26.8393C16.4281 26.8328 16.3874 26.7184 16.2298 26.7177C16.176 26.7175 16.1276 26.7222 16.0846 26.7301C15.9307 26.7643 15.862 26.8623 15.65 26.8727C15.4423 26.8829 15.2052 26.7359 14.9883 26.7474C14.7724 26.7591 14.6767 26.9039 14.4278 26.9272C14.2216 26.9458 13.9305 26.892 13.6588 26.9034C13.4441 26.9127 13.1838 26.9121 12.925 26.8857C12.876 26.8881 12.7173 26.8999 12.4824 26.9325C12.3627 26.9477 12.2236 26.9673 12.0333 26.9794C11.8387 26.9843 11.6061 27.017 11.1585 26.8876C10.9281 26.8245 10.496 26.7646 9.99024 26.66C9.60727 26.5673 9.07295 26.5114 8.38413 26.13C8.28017 26.0684 8.23237 26.0466 8.21734 26.038C8.22676 26.0306 7.8691 25.958 7.60447 25.8475C7.18014 25.6717 6.99765 25.5203 6.78925 25.3698C6.06066 24.8053 5.43333 24.2367 4.95246 23.6024C4.90977 23.5448 5.08072 23.5142 4.89771 23.3851C4.86829 23.3646 4.82884 23.3479 4.79061 23.3377C4.66653 23.2816 4.49852 23.2091 4.32505 23.0386C3.95565 22.6777 3.64695 22.2561 3.40151 21.8929C3.08655 21.4285 2.91834 21.0496 2.76434 20.8129C2.47629 20.4048 2.33374 20.0095 2.22136 19.7135C2.01771 19.1909 1.9125 18.5874 1.86469 18.5109C1.75211 18.2725 1.68374 18.066 1.62228 17.8717C1.54847 17.6362 1.48755 17.41 1.42988 17.2283C1.30897 16.8278 1.2176 16.454 1.11281 16.2141C1.02789 16.0151 0.813959 15.6101 0.719493 15.0451C0.643875 14.5529 0.72908 14.1197 0.711244 14.0293C0.696747 13.926 0.681859 14.0119 0.66065 13.9545C0.463584 13.4206 0.482196 12.7779 0.549666 12.427C0.614486 12.0581 0.688651 11.8382 0.765544 11.6091C0.921247 11.165 1.10586 10.7027 1.37442 10.1604C1.4298 10.0467 1.78059 10.0526 1.88717 10.1057C1.82566 10.1757 1.74954 10.2395 1.67788 10.3113C2.11576 10.3399 2.00683 10.3427 1.99105 10.641C1.97863 10.8236 2.1543 10.6668 2.21248 10.7638C2.29495 10.8842 2.49847 11.5175 2.21254 11.3862C2.26079 11.4248 2.30662 11.464 2.35313 11.5039C2.37651 11.9528 2.35356 12.4219 2.40059 12.8083C2.41018 12.8738 2.49976 12.8816 2.51242 12.9411C2.54947 13.0954 2.50425 13.2012 2.55774 13.3471C2.55817 13.3483 2.55859 13.3495 2.55902 13.3507C2.605 13.489 2.71557 13.4838 2.74225 13.6948C2.75803 13.9094 2.62266 13.9039 2.75785 14.1823C2.85265 14.0968 2.85406 14.2717 2.81679 14.4431C2.7788 14.6177 2.73517 14.7393 2.74284 14.7951C2.74344 14.8017 2.76882 14.8268 2.80044 14.8524C2.8498 14.9093 2.91577 14.9801 2.91804 15.0406C2.91993 15.1389 2.87182 15.3322 2.99103 15.535C3.03036 15.6028 3.11141 15.6412 3.16873 15.7056C3.1915 15.7302 3.21014 15.7581 3.22006 15.7922C3.24444 15.8761 3.15775 15.9967 3.17214 16.0951C3.18714 16.1958 3.31175 16.3776 3.31975 16.4107C3.34951 16.5346 3.2475 16.4114 3.26013 16.4974C3.27501 16.5959 3.28976 16.6944 3.30714 16.7927C3.37031 17.1537 3.43733 17.4872 3.56344 17.6679C3.58255 17.6948 3.64675 17.6169 3.65148 17.6198C3.663 17.629 3.67309 17.6366 3.68181 17.6429C3.93222 18.0352 3.7241 17.8242 3.69939 17.9734C3.6791 18.1524 3.88952 18.7626 4.04245 18.6941C3.86112 18.7755 4.04595 18.8417 4.06222 18.8643C4.0744 18.8831 4.0784 18.8993 4.07767 18.9145C4.08225 18.9978 3.9878 19.0437 4.07275 19.1292C4.11066 19.1667 4.17646 19.0314 4.19512 19.0813C4.24027 19.2012 4.1189 19.38 4.1785 19.5155C4.19277 19.5473 4.26822 19.513 4.29659 19.5592C4.30357 19.5705 4.31171 19.5931 4.32175 19.6176C4.40229 19.7573 4.48881 19.9344 4.51672 19.7415C4.54206 20.025 4.62825 20.0219 4.76103 20.2397C4.79354 20.2935 4.72372 20.4336 4.82628 20.5157C4.86082 20.5429 4.96744 20.4718 5.00116 20.5201C5.03205 20.5638 5.04365 20.6162 5.05244 20.6707C5.07839 20.7699 5.09796 20.8789 5.16472 20.9722C5.37364 21.2659 5.66465 21.4674 5.88829 21.7274C5.94973 21.7985 5.84371 21.8768 5.94608 21.9733C5.95007 21.9769 5.96659 21.9816 5.99025 21.9879C6.06851 22.0155 6.19982 22.0564 6.25351 22.1167C6.29751 22.166 6.48576 22.4475 6.52971 22.4962C6.60296 22.5772 6.70209 22.4987 6.72917 22.5565C6.8089 22.7239 6.58413 22.7684 6.90535 22.7195C6.86285 22.8687 6.96198 22.938 6.87767 23.0921C7.05461 22.9975 7.00383 23.1932 7.14803 23.2337C7.2928 23.2745 7.60712 23.062 7.38328 23.3849C7.46197 23.389 7.71646 23.4873 7.75417 23.5073C7.86485 23.5698 7.74642 23.6164 7.83154 23.6608C7.84645 23.6684 7.87647 23.5996 7.95682 23.6651C7.99651 23.702 8.27979 23.884 8.32601 23.898C8.35287 23.9096 8.3702 23.9172 8.3739 23.9205C8.51999 24.0409 8.41463 24.0245 8.28887 23.9983C8.2446 23.9934 8.17135 23.9699 8.13685 23.9836C8.13632 23.9593 8.13719 23.9356 8.13685 23.9115C8.03686 23.8115 8.01457 23.9937 8.05474 24.0617C8.08985 24.122 8.20162 24.1167 8.23149 24.1533C8.23783 24.1592 8.24292 24.1659 8.24659 24.1739C8.25779 24.1996 8.21788 24.3092 8.16233 24.3402C8.14543 24.3516 8.12655 24.3535 8.10838 24.3389C8.17164 24.4318 8.02561 24.4421 8.03808 24.5102C8.04125 24.5235 8.05733 24.5409 8.08159 24.5584C8.20011 24.6497 8.52091 24.7134 8.54028 24.6261C8.45739 24.6018 8.35057 24.5841 8.26719 24.5553C8.23928 24.3595 8.62925 23.7408 9.01993 24.1621C9.19589 24.4429 8.77314 24.3946 9.29243 24.5164C9.30748 24.519 9.32351 24.5215 9.34072 24.5237C9.32757 24.5148 9.31547 24.5055 9.30398 24.4959C9.25014 24.4557 9.20101 24.4158 9.14326 24.3802C9.19819 24.2509 9.25352 24.4419 9.33083 24.4482C9.33264 24.4481 9.3345 24.4478 9.33641 24.4473C9.34335 24.4455 9.34496 24.4362 9.34489 24.4233C9.33474 24.3739 9.28322 24.2719 9.40896 24.3094C9.41156 24.3098 9.41425 24.3103 9.41706 24.3109C9.40918 24.5403 9.57179 24.3903 9.74816 24.4424C9.68579 24.4617 9.62441 24.4795 9.5628 24.4952C9.8335 24.7519 9.04604 24.5212 9.67916 24.8314C9.59257 24.813 9.51173 24.7843 9.42887 24.7621C9.44117 24.8483 9.29283 25.0282 9.31404 25.0871C9.37622 25.2447 9.56531 25.2261 9.69126 25.2694C9.74744 25.2886 9.69707 25.3374 9.70178 25.339C9.77931 25.3654 9.7828 25.2757 9.85227 25.2866C9.93973 25.3006 10.1667 25.4378 10.208 25.4371C10.3154 25.4354 10.1829 25.2285 10.1953 25.218C10.2327 25.1879 10.2766 25.1906 10.3159 25.1932C10.364 25.1964 10.4044 25.1989 10.4129 25.1386C10.3877 25.1391 10.3592 25.1378 10.3289 25.135C9.94091 25.1036 9.26913 24.8265 10.0505 24.8505C9.86992 24.6255 9.98576 24.4041 10.3113 24.4566C10.4162 24.4735 10.4541 24.4925 10.4662 24.5167C10.4827 24.5556 10.4366 24.6104 10.5054 24.6935C10.5163 24.7107 10.8697 24.8321 10.9057 24.7613C10.8574 24.9307 10.9486 25.1068 10.8328 25.2687C10.8159 25.2925 10.6662 25.2528 10.6914 25.406C10.704 25.4829 10.7495 25.6538 10.7194 25.7429C10.7627 25.6853 10.8089 25.6202 10.8534 25.5601C11.0814 25.5863 11.0994 25.6623 11.1888 25.8067C11.1957 25.7566 11.1326 25.524 11.2857 25.6265C11.293 25.6324 11.2835 25.7077 11.3551 25.7656C11.4983 25.8838 11.5081 25.9144 11.3366 26.095C11.3661 26.0917 11.3926 26.0911 11.4158 26.0925C11.724 26.1486 11.836 26.1598 11.9778 26.1958C12.1124 26.2258 12.2452 26.2472 12.4146 26.1981C12.301 25.9136 12.2256 26.023 11.7476 26.0667C11.7302 25.997 11.7258 25.9288 11.7124 25.8581C12.2848 26.0273 12.0097 25.9981 12.2812 25.8439C12.3475 25.8026 12.6838 25.8121 12.5583 25.6283C12.5287 25.5841 12.3139 25.6087 12.3319 25.5353C12.3352 25.5207 12.5955 25.4637 12.6203 25.4822C12.8971 25.6969 12.4832 25.8365 13.0653 25.8027C13.096 25.8041 13.1284 25.805 13.1635 25.8052C13.1876 25.8052 13.2041 25.723 13.2504 25.7153C13.337 25.7001 13.3326 25.7966 13.4107 25.7778C13.4895 25.7587 13.5936 25.6303 13.7049 25.7496C13.9173 25.9654 13.4193 26.104 13.181 25.9595C13.112 26.0995 13.5404 26.207 13.9244 26.2256C14.311 26.2496 14.6939 26.2356 14.7409 26.2232C15.1373 26.1101 14.476 26.1824 14.4388 26.105C14.4238 26.0718 14.4203 25.6458 14.2574 25.9266C14.2096 26.0098 14.4216 26.112 14.2986 26.1605C14.1738 26.209 14.2209 26.0823 14.2114 26.0738C14.1782 26.0447 14.0463 26.0949 14.0274 26.0775C13.749 25.8141 13.7658 25.4067 14.1379 25.9993C14.2882 25.859 13.9275 25.6518 14.1177 25.5542C14.3482 25.4353 14.5227 25.6255 14.5522 25.6337C14.9056 25.7304 14.4939 25.4539 14.9259 25.5379C15.1637 25.5856 14.5724 25.7304 15.1148 25.7062C15.5701 25.6884 15.3238 25.591 15.3568 25.3664C15.3641 25.314 15.6176 25.2494 15.2736 25.2728C15.264 25.3313 15.2458 25.4084 15.2244 25.4624C15.142 25.42 14.9979 25.1288 14.9527 25.1191C14.7324 25.0733 14.7468 25.2252 14.6132 25.0489C14.7094 25.2426 14.5577 25.1277 14.5016 25.1703C14.2968 25.3276 14.5705 25.3769 14.1001 25.194C14.1625 25.284 14.2198 25.3724 14.2819 25.4621C14.2252 25.4668 14.1696 25.4716 14.1147 25.4762C14.0248 25.2769 13.7336 25.3095 13.9933 25.0999C13.6722 25.0508 13.5603 25.0918 13.4884 25.2471C13.4749 25.2768 13.4286 25.2875 13.375 25.2874C13.3825 25.332 13.3892 25.469 13.3795 25.4853C13.289 25.6286 13.1872 25.3628 13.239 25.2703C13.2027 25.2621 13.1743 25.2532 13.1644 25.2497C13.1021 25.2269 13.2374 25.1548 13.1896 25.1188C13.1859 25.116 13.1728 25.1138 13.1549 25.1113C13.0764 25.0994 12.9405 25.0972 12.9383 25.0705C12.9229 24.8496 13.2953 24.9927 12.5264 24.8832C12.5219 25.0896 12.8594 25.0314 12.7759 25.2559C12.6941 25.4937 12.501 25.1879 12.4848 25.482C12.467 25.4354 12.4574 25.3961 12.4406 25.3428C12.1843 25.4934 12.1607 25.2522 12.08 25.2046C11.8762 25.1337 11.4787 25.0732 11.875 25.3344C11.7954 25.3536 11.7186 25.3564 11.655 25.3533C11.6498 25.3526 11.6445 25.3519 11.6392 25.3512C11.7505 24.934 11.7479 25.0957 11.2889 24.9207C11.1889 24.8838 11.1928 24.6893 11.0481 24.892C11.1043 24.6754 10.7813 24.7498 10.7612 24.7184C10.6164 24.5113 11.3246 24.3975 11.3402 24.8084C11.4931 24.6859 11.4464 24.8828 11.5878 24.8919C11.6785 24.8987 11.7397 24.8994 11.7965 24.9162C11.7883 24.9107 11.7826 24.9408 11.8577 25.0279C11.9369 24.9285 11.7587 24.8928 11.8123 24.8674C11.646 24.784 11.5178 24.7094 11.8718 24.6835C11.8652 24.6742 11.8588 24.6651 11.8544 24.6564C11.8151 24.6006 11.8809 24.5736 12.1102 24.5102C12.3387 24.4556 12.6837 24.3493 13.2497 24.3791C13.8552 24.3398 15.3529 24.1803 16.1253 24.1743C16.3569 24.1628 16.5994 24.1451 16.7442 24.1354C17.4765 24.0836 18.077 24.0525 18.6412 24.0468C18.6927 24.0451 18.8425 24.0682 18.8936 24.0755C19.0074 24.092 19.1099 24.099 19.181 24.0971C19.2159 24.0964 19.2434 24.0931 19.2492 24.0908C19.2516 24.0898 19.2489 24.0889 19.2319 24.0915C19.2233 24.0929 19.2109 24.0952 19.1893 24.1009C19.1487 24.1158 19.1995 24.0851 19.0007 24.1739C19.1733 24.0764 19.6425 24.022 19.8403 24.0356C19.6827 24.0188 19.7129 24.026 19.6907 24.0239C19.68 24.0236 19.6773 24.0236 19.676 24.0235C19.6741 24.0234 19.6801 24.0234 19.6889 24.0233C19.7126 24.0231 19.727 24.0229 19.7382 24.0228C19.7632 24.0224 19.7944 24.022 19.8317 24.0216C19.9241 24.0207 19.9609 24.0203 20.0357 24.0197C20.1929 24.0185 20.3152 24.0182 20.4771 24.0184C20.6186 24.0184 21.6421 23.9895 21.4321 24.2351C21.3974 24.2704 20.9714 24.3668 21.3411 24.5551C21.2632 24.4427 21.485 24.3674 21.5057 24.3554C21.9556 24.0813 21.6671 24.0177 22.3706 24.0087ZM24.3947 26.1654C23.5191 26.1178 24.1628 26.2749 23.985 26.6447C24.0956 26.6447 24.2072 26.6447 24.3206 26.6447C24.2906 26.6219 24.2611 26.5991 24.2313 26.5763C24.2312 26.5763 24.2311 26.5763 24.2309 26.5763C24.285 26.4394 24.3399 26.3023 24.3947 26.1654ZM38.8781 26.2745C38.8452 26.3232 38.8125 26.3721 38.7762 26.4199C38.6615 26.406 38.5446 26.3923 38.4248 26.3784C38.4388 26.3454 38.4522 26.312 38.4661 26.279C38.607 26.279 38.744 26.2792 38.8781 26.2745ZM13.037 25.9969C12.9247 25.8507 12.9267 26.0892 12.7452 25.9827C12.774 26.1592 12.8005 26.3323 12.8197 26.5079C12.9029 26.4873 12.9329 26.4434 12.9812 26.4519C13.0167 26.4573 13.0562 26.4662 13.1039 26.4802C13.0826 26.4207 13.0616 26.3607 13.0433 26.3007C13.0291 26.3036 13.0144 26.3065 12.9996 26.3094C12.9885 26.3161 12.977 26.3229 12.9661 26.3287C12.9613 26.2618 12.9878 26.2211 13.0157 26.1859C13.0869 26.1407 13.15 26.1025 13.0397 26.0001C13.039 25.9989 13.0382 25.9978 13.0375 25.9966C13.0373 25.9967 13.0372 25.9968 13.037 25.9969ZM11.2721 26.0069C11.2079 25.9635 10.897 25.8082 10.8345 25.8718C10.6442 26.0835 11.5651 26.1241 10.8649 26.1969C10.8609 26.2317 10.8509 26.2647 10.8439 26.2986C10.9629 26.3356 11.076 26.3716 11.1753 26.408C11.2051 26.2733 11.2437 26.1427 11.2721 26.0069ZM21.1944 26.2093C21.0495 26.1914 20.4092 26.3137 20.6241 26.4698C20.6778 26.5156 20.9607 26.2875 21.0846 26.2963C21.1611 26.3019 21.0814 26.4264 21.2156 26.3798C21.2092 26.3253 21.205 26.2648 21.1941 26.2096C21.1942 26.2095 21.1943 26.2094 21.1944 26.2093ZM21.4394 25.487C21.2916 25.5103 21.1763 25.5392 21.0158 25.564C21.1397 25.704 21.3167 25.6119 21.3356 25.8102C21.2974 25.8255 21.2602 25.8408 21.2231 25.8562C21.1943 25.813 21.1662 25.7699 21.1384 25.7267C21.0145 25.8355 21.0845 25.8885 20.8534 25.8593C20.991 26.158 21.0378 26.3187 21.409 26.0121C21.3381 26.1754 21.4065 26.7051 21.6292 26.3242C21.6706 26.2535 21.4942 26.208 21.493 26.1968C21.4651 26.0578 21.5605 25.9682 21.5308 25.8369C21.517 25.7775 21.4125 25.7793 21.3967 25.6969C21.389 25.6566 21.4869 25.5408 21.4394 25.487ZM21.7365 26.1905C21.6959 26.2752 21.8383 26.4741 21.9668 26.4324C22.168 26.3677 21.8467 26.1801 21.7365 26.1905ZM38.8788 26.2743C38.8786 26.2743 38.8783 26.2744 38.8781 26.2745C38.8782 26.2743 38.8783 26.2741 38.8785 26.2739C38.8786 26.274 38.8787 26.2741 38.8788 26.2743ZM11.8556 26.213C11.7197 26.2928 11.399 26.2173 11.3822 26.3234C11.3705 26.3176 11.3587 26.3117 11.3469 26.3055C11.3229 26.2766 11.2948 26.2475 11.2646 26.2183C11.2559 26.2514 11.2474 26.2847 11.2387 26.3175C11.271 26.333 11.3011 26.3486 11.328 26.3639C11.6016 26.4635 11.7848 26.4727 11.9413 26.4882C11.9123 26.397 11.8857 26.3051 11.8556 26.213ZM10.103 25.779C9.91651 25.726 10.0417 25.9124 9.98397 25.9764C9.92709 26.0407 9.76505 25.9417 9.76126 26.0509C9.87867 26.0821 9.99466 26.1116 10.1037 26.1397C10.0999 26.0192 10.1052 25.8984 10.1026 25.7789C10.1028 25.7789 10.1029 25.7789 10.103 25.779ZM28.0126 26.2539C27.8818 26.2215 27.9335 26.1027 27.6784 26.2436C27.6786 26.2436 27.6787 26.2436 27.6789 26.2436C27.9234 26.3383 28.2407 26.4216 28.5134 26.3253C28.3451 26.202 28.2188 26.3044 28.0126 26.2539ZM13.5451 26.3806C13.6089 26.2885 13.3187 26.204 13.2421 26.2832C13.1164 26.4162 13.4487 26.525 13.5451 26.3806ZM33.2975 25.3731C33.4933 25.0825 33.1149 24.7621 32.7172 24.9058C32.6829 24.9184 32.9409 25.0078 32.8652 25.0648C32.8578 25.0704 32.7159 25.0649 32.6823 25.1054C32.6482 25.146 32.6853 25.239 32.6292 25.2788C32.5308 25.3482 32.3048 25.2234 32.231 25.3141C32.2213 25.3262 32.3621 25.4498 32.3708 25.4544C32.5148 25.5287 32.6507 25.3641 32.6727 25.3628C32.7863 25.3561 32.7711 25.4843 32.8003 25.5141C32.8557 25.5701 32.9515 25.5126 32.9583 25.5168C33.1336 25.6274 32.7347 25.5991 32.6821 25.6458C32.54 25.7717 32.6742 25.8862 32.3305 25.9599C32.2978 25.9668 31.9055 25.963 32.401 26.1017C31.4344 26.4097 32.8864 26.267 33.0489 26.1997C33.1219 26.1685 33.0098 26.0475 33.0537 25.9921C33.1541 25.8656 33.326 25.8418 33.3089 25.6649C33.2723 25.2929 33.0482 25.539 32.8905 25.4779C32.9062 25.3969 32.9117 25.318 32.9415 25.2386C32.8958 25.3454 33.2836 25.3949 33.2975 25.3738C33.2975 25.3736 33.2975 25.3733 33.2975 25.3731ZM30.8418 25.8219C30.6224 25.7116 30.6401 25.9465 30.4388 25.814C30.2645 26.0266 30.6122 26.0092 30.6528 26.0207C30.8384 26.0721 30.8364 26.3016 31.025 26.2292C30.9586 26.0941 30.9043 25.9574 30.8418 25.8219ZM32.7393 25.9007C32.5944 26.021 32.8562 26.0165 32.8674 26.0392C32.9839 26.2794 32.2038 26.2399 32.7393 25.9007ZM20.3345 25.7435C20.2644 25.736 20.3091 25.8495 20.2497 25.8836C20.1868 25.9181 19.9464 25.8222 19.9618 25.893C19.9565 25.9641 20.3825 26.1454 19.9675 26.1881C19.9803 26.2279 19.9763 26.2577 19.9827 26.2937C20.082 26.2941 20.2314 26.2947 20.324 26.2951C20.2639 26.1808 20.2096 26.0604 20.1365 25.95C20.2092 25.8582 20.2428 25.9751 20.2452 25.975C20.2452 25.9749 20.2452 25.9748 20.2452 25.9747C20.3509 25.9647 20.4991 25.7601 20.3345 25.7435ZM26.1782 26.0491C26.1976 25.7637 26.026 26.0838 25.9553 26.1198C25.8845 26.1557 25.7864 26.051 25.8241 26.1734C25.9389 26.257 26.1759 26.0809 26.1782 26.0487C26.1782 26.0488 26.1782 26.049 26.1782 26.0491ZM29.6569 25.8337C29.4741 25.9046 29.5038 25.9785 29.2788 25.896C29.2882 25.9649 29.2975 26.0352 29.3068 26.103C29.4849 26.1027 29.4708 25.9027 29.6775 25.9812C29.7113 25.9942 29.6408 26.1547 29.7921 26.1019C29.7471 26.017 29.7014 25.9228 29.6569 25.8337ZM28.7528 26.0978C28.9618 26.0853 29.1225 25.5259 28.7397 25.7812C28.683 25.8193 28.5959 26.1074 28.7528 26.0978ZM22.2769 25.713C21.9087 25.7002 22.3302 25.7865 22.4225 25.8714C21.5706 25.9475 22.5287 25.847 22.5964 26.1315C22.6951 26.0494 22.8844 25.862 22.673 25.8142C22.5856 25.7943 22.6183 25.879 22.6131 25.8787C22.451 25.8591 22.4821 25.7199 22.2769 25.713ZM31.2209 25.8045C31.2074 25.8089 31.2295 25.905 31.1868 25.9246C31.1441 25.9441 31.0463 25.8777 31.0372 25.9368C31.0282 25.9964 31.2235 26.0407 31.2828 25.9968C31.3421 25.9525 31.3423 25.7663 31.2209 25.8045ZM29.8477 25.5803C29.6702 25.6512 29.9649 26.0032 30.0037 26.0012C30.3443 25.9794 29.8385 25.6927 29.8477 25.5803ZM23.1048 25.103C22.6595 25.2872 22.9991 25.5973 23.2608 25.7826C23.2952 25.7441 23.3307 25.7056 23.365 25.6675C23.2095 25.9006 22.9298 26.1321 23.5519 25.9246C23.2076 25.8732 23.4945 25.8083 23.4968 25.7953C23.5281 25.3694 23.0308 25.5715 23.1052 25.103C23.1051 25.103 23.105 25.103 23.1048 25.103ZM31.8019 25.9004C31.9904 25.8972 32.4764 25.8191 32.2475 25.6358C32.0992 25.724 31.9509 25.8123 31.8019 25.9004ZM16.0803 25.1606C15.9277 25.0522 15.7842 25.0523 15.5945 25.0584C15.7637 25.2137 15.6515 25.2307 15.5945 25.2682C15.5065 25.3247 15.7173 25.3211 15.7183 25.3316C15.7127 25.4783 15.5795 25.4996 15.8846 25.4991C15.8079 25.5493 15.7338 25.6001 15.6578 25.6503C15.8906 25.6587 15.9425 25.7553 16.0892 25.8743C16.0112 25.7143 16.0342 25.6995 16.1011 25.6939C16.1549 25.6895 16.2365 25.6899 16.3126 25.6263C16.3889 25.5619 16.1969 25.2845 16.1092 25.1864C16.0979 25.1751 16.0879 25.1663 16.0797 25.1606C16.0799 25.1606 16.0801 25.1606 16.0803 25.1606ZM22.6519 25.0497C22.6085 25.1015 22.5693 25.1715 22.5281 25.2306C22.4827 25.2366 22.4376 25.242 22.393 25.248C22.3871 25.2025 22.3821 25.155 22.3752 25.1113C22.3109 25.0987 22.3364 25.1618 22.3173 25.1679C22.3173 25.1676 22.3173 25.1674 22.3173 25.1671C22.0451 25.2535 21.94 25.245 21.7422 25.1061C21.7434 25.2454 21.7447 25.3848 21.7459 25.5241C21.7896 25.5104 21.8344 25.4971 21.8792 25.4837C21.9025 25.4087 21.926 25.3335 21.9495 25.2585C22.0026 25.2993 22.0559 25.3398 22.1105 25.3806C22.1536 25.3533 22.2061 25.3245 22.2443 25.298C22.4681 25.6855 21.9661 25.4253 21.9676 25.587C21.9593 25.691 22.47 25.6819 22.5268 25.6097C22.5367 25.5991 22.4308 25.31 22.6069 25.4596C22.635 25.4831 22.6484 26.1105 22.838 25.6007C22.8653 25.5284 22.7641 25.1395 22.6519 25.0497ZM20.8752 24.8628C21.155 25.2619 20.1298 24.8457 20.5848 25.1724C20.4513 25.3579 20.4746 25.3553 20.6143 25.5179C20.6264 25.5325 20.5312 25.5839 20.5397 25.5903C20.674 25.6795 20.7902 25.6306 20.7977 25.7947C20.8287 25.7857 20.8584 25.7777 20.8904 25.7687C20.7566 25.6151 20.9652 25.5095 21.0531 25.3782C21.0922 25.3188 21.0012 25.3013 21.034 25.2493C21.0477 25.2303 21.1697 25.267 21.1711 25.2128C21.1798 25.0902 21.109 24.9253 20.9717 24.8362C20.9717 24.836 20.9717 24.8359 20.9717 24.8358C20.9387 24.8441 20.9071 24.8541 20.8752 24.8628ZM26.7515 25.1432C26.7998 25.3646 26.9855 25.4264 26.6309 25.5382C26.6493 25.5817 26.6674 25.6249 26.6855 25.6684C26.7452 25.664 26.8033 25.6597 26.8644 25.6556C27.0413 25.0003 27.3872 25.7347 27.1661 25.2732C27.142 25.223 26.9987 25.2806 27.1394 25.1425C27.1392 25.1424 27.1391 25.1423 27.1389 25.1421C26.9411 25.186 26.9171 25.2648 26.7515 25.1432ZM25.4229 25.3103C24.9664 25.7814 26.0622 25.5648 25.8756 25.4427C25.8623 25.4316 25.3893 25.5363 25.4229 25.3103ZM29.0914 24.8696C28.8865 24.8635 28.8755 25.1155 28.8969 25.206C28.9184 25.2968 29.0593 25.2035 29.0778 25.2176C29.1379 25.2643 29.0116 25.2967 29.0897 25.3607C29.1154 25.3815 29.4741 25.4679 29.4906 25.4569C29.5812 25.3958 29.4459 25.1892 29.4718 25.1652C29.5561 25.0864 29.6727 25.1934 29.6959 25.0827C29.7467 24.8464 29.5343 25.096 29.4978 25.1003C29.3883 25.1126 29.3966 24.9797 29.3143 24.9539C29.2321 24.9282 29.179 24.9741 29.1068 24.9654C29.0827 24.9625 29.1018 24.8703 29.0914 24.8696ZM28.4185 25.4079C28.6321 25.2152 28.1059 25.0128 28.0452 25.058C27.8646 25.1923 28.3157 25.4999 28.4185 25.4079ZM21.5714 25.4626C21.774 25.3226 21.2973 25.2149 21.1816 25.2715C21.2023 25.3288 21.4986 25.5108 21.5714 25.4626ZM23.2209 25.1027C23.0471 25.1473 23.2797 25.4566 23.4294 25.4503C23.5152 25.2449 23.4326 25.2862 23.3359 25.2787C23.2396 25.2711 23.3577 25.0679 23.2209 25.1027ZM31.3193 25.0761C31.2806 25.0732 30.6556 25.2483 31.0163 25.3152C31.0439 25.3202 31.4818 25.2862 31.5145 25.2544C31.5807 25.1901 31.4195 25.0842 31.3193 25.0761ZM24.0811 24.7925C23.9891 24.9704 23.8983 24.9688 23.9853 25.1759C23.9854 25.1759 23.9856 25.1759 23.9857 25.1759C23.7457 25.2418 23.7262 24.8167 23.6745 24.8263C23.4909 24.8598 23.6676 25.1609 23.5536 25.2613C23.8201 25.1655 23.7482 25.3702 23.952 25.3813C23.9956 25.3837 24.1723 25.2602 24.1982 25.184C24.2236 25.1078 24.13 24.881 24.0811 24.7925ZM32.2041 25.0235C31.9921 24.9577 31.8006 25.2465 32.0949 25.2892C32.2383 25.3102 32.3335 25.0636 32.2041 25.0235ZM11.2123 24.9556C11.2295 25.0362 11.2473 25.1168 11.2655 25.1973C11.1834 25.1975 11.1019 25.1993 11.0211 25.2018C11.0868 25.1909 11.153 25.1807 11.2202 25.1715C11.0798 25.1143 11.0385 24.9665 11.2119 24.9556C11.2121 24.9556 11.2122 24.9556 11.2123 24.9556ZM6.79239 22.9131C6.79265 22.8163 6.54835 22.8978 6.54837 22.9214C6.55175 23.1004 6.7921 23.0475 6.79239 22.9131ZM21.2746 24.7838C21.0425 24.7544 21.202 25.1178 21.3493 25.1415C21.259 25.0725 21.4098 24.8005 21.2746 24.7838ZM8.13685 23.9836C8.13723 24.0196 8.13786 24.0554 8.14033 24.0918C8.10706 24.0258 8.11071 23.9932 8.13685 23.9836ZM31.2167 24.755C31.1793 24.7273 30.9041 24.7068 30.8672 24.7418C30.7908 24.8153 31.0073 25.0146 31.1328 24.9515C31.1468 24.9447 31.2539 24.7826 31.2161 24.755C31.2163 24.755 31.2165 24.755 31.2167 24.755ZM10.9081 24.7517C10.9079 24.7552 10.907 24.7585 10.9057 24.7613C10.9066 24.7582 10.9071 24.7549 10.9081 24.7517ZM4.05767 18.6871C4.0527 18.69 4.0476 18.6924 4.04245 18.6941C4.04731 18.6919 4.05228 18.6892 4.05767 18.6871ZM29.274 24.4637C29.179 24.1171 28.97 24.3039 29.1382 24.4742C29.1476 24.4831 29.2517 24.4633 29.274 24.4637ZM321.809 26.9672C317.758 26.9747 313.323 27.0206 309.26 26.96C308.764 26.9526 308.793 26.8519 308.653 26.8386C308.268 26.8018 308.037 26.9207 307.757 26.9119C306.411 26.8698 305.121 26.8526 303.805 26.8143C302.439 26.7749 303.08 26.4618 302.602 26.3855C301.667 26.236 302.462 26.6444 302.095 26.7361C301.04 26.7115 299.945 26.6671 298.884 26.6222C299.142 26.5841 299.403 26.5468 299.668 26.5115C299.199 26.503 298.539 26.4399 299.315 26.3333C299.143 26.3039 298.983 26.2695 298.808 26.2408C298.757 26.3895 297.955 26.4014 297.866 26.4895C297.789 26.5777 298.263 26.5575 298.254 26.5652C298.229 26.675 296.296 26.5246 296.176 26.5124C295.821 26.4797 296.132 26.2954 295.831 26.3073C295.305 26.3275 295.65 26.7026 294.922 26.2039C294.633 26.3658 294.608 26.2817 294.248 26.2704C294.201 26.269 294.238 26.3628 294.217 26.3653C293.677 26.4348 294.092 26.2605 294.089 26.251C294.037 26.0905 293.471 26.1618 293.344 26.1464C291.748 25.9544 290.632 25.8244 288.996 25.7797C288.609 25.7703 287.605 25.8352 287.212 25.8079C286.869 25.7809 287.053 25.6653 286.877 25.6097C286.602 25.8879 286.347 25.9185 285.682 25.7352C285.44 25.9381 285.516 25.7744 285.035 25.8149C284.856 25.8291 284.639 25.881 284.447 25.9203C284.373 25.9399 284.203 25.9564 284.091 25.9635C283.974 25.9706 283.88 25.9682 283.81 25.9502C283.736 25.9372 283.667 25.916 283.603 25.8843C283.686 25.8876 283.753 25.8873 283.81 25.8843C283.906 25.8771 283.981 25.8543 284.085 25.8271C284.184 25.7999 284.363 25.7683 284.539 25.7434C284.703 25.7235 286.614 25.7195 286.462 25.5121C286.427 25.4039 285.728 25.5031 285.723 25.4832C285.586 25.367 285.92 25.2243 286.261 25.2744C286.177 25.2978 286.078 25.3216 285.992 25.345C286.74 25.4903 286.218 24.9325 286.729 25.42C286.791 25.4798 286.767 25.5421 286.871 25.6057C286.892 25.5794 286.765 25.5143 286.875 25.5026C286.986 25.4909 287.206 25.6146 287.24 25.5103C287.287 25.3588 286.811 25.4184 286.78 25.4096C286.78 25.4105 286.779 25.4114 286.779 25.4123C286.474 25.3318 287.112 25.3227 287.151 25.3084C287.36 25.2139 287.214 25.1412 287.536 25.0632C287.747 25.0188 288.138 25.0451 288.307 25.0308C288.466 25.0161 288.218 24.9443 288.326 24.9289C288.433 24.9136 288.568 24.9681 288.698 24.9502C288.754 24.9424 288.751 24.8624 288.779 24.8596C289.072 24.8289 288.878 24.9952 289.148 24.9851C289.343 24.9784 289.869 24.8234 289.501 24.7771C289.678 24.7611 289.854 24.7493 290.036 24.7367C289.921 24.7129 289.804 24.6967 289.694 24.6688C290.03 24.7069 290.188 24.5701 290.407 24.5599C290.628 24.5498 290.828 24.714 291.079 24.634C291.615 24.4636 290.291 24.5422 290.147 24.5117C290.086 24.4997 290.321 24.3711 290.358 24.3675C290.52 24.3514 290.715 24.4434 290.843 24.4393C291.318 24.424 291.566 24.3026 291.986 24.2781C293.453 24.195 295.263 24.1277 296.61 24.1013C297.118 24.0915 297.432 24.2281 297.666 24.2243C298.22 24.2152 298.271 24.0963 298.735 24.09C299.417 24.0803 300.432 24.1843 301.002 24.2067C301.399 24.2222 301.762 24.1071 301.867 24.1043C303.342 24.0631 305.086 24.0659 306.312 24.0647C306.873 24.064 307.143 24.1934 307.26 24.1896C307.763 24.1736 307.628 24.063 308.037 24.0742C308.258 24.0801 308.3 24.1863 308.33 24.1905C308.591 24.2255 308.643 24.0868 308.848 24.0823C310.01 24.0562 311.136 24.147 312.293 24.1604C312.377 24.1615 312.369 24.2229 312.424 24.2198C312.656 24.2047 312.548 24.108 312.791 24.101C313.297 24.086 313.817 24.102 314.356 24.1143C314.409 24.1155 314.433 24.1945 314.555 24.1945C314.677 24.1945 314.77 24.1197 314.961 24.1238C315.461 24.1347 315.955 24.2243 316.484 24.2293C316.572 24.23 316.68 24.1348 316.812 24.1359C317.225 24.1391 317.833 24.2255 318.188 24.2286C319.36 24.2385 320.423 24.1844 321.53 24.1838C321.789 24.1839 322.018 24.272 322.152 24.2741C322.455 24.2786 322.226 24.1954 322.533 24.195C325.034 24.1931 327.56 24.231 330.089 24.2244C331.097 24.2219 332.281 24.1358 333.263 24.1596C333.663 24.1697 333.734 24.2849 334.014 24.2859C334.513 24.2873 334.593 24.1396 335.141 24.1249C335.574 24.1134 336.062 24.2607 336.497 24.2516C336.93 24.2425 337.128 24.0993 337.652 24.0821C338.079 24.0681 338.661 24.133 339.101 24.1225C342.328 24.0506 345.978 23.9745 348.773 24.0436L348.646 24.0691C348.923 24.0095 348.929 24.0202 349.02 24.0044C349.094 23.9935 349.163 23.9825 349.235 23.97C349.377 23.9452 349.524 23.9153 349.675 23.8815C349.735 23.8686 349.912 23.8407 349.974 23.8406C350.472 23.8343 350.967 23.8233 351.483 23.8139C351.665 23.8109 351.85 23.8065 352.061 23.8055C352.846 23.7996 353.666 23.8103 354.312 23.729C354.714 23.6832 355.151 23.631 355.207 23.6295C355.349 23.5863 355.509 23.5347 355.683 23.4838C355.846 23.4392 355.635 23.6537 356.156 23.447C356.214 23.4256 356.277 23.3994 356.349 23.3703C356.546 23.2776 356.858 23.1124 357 23.0299C357.014 23.0219 357.022 23.0162 357.023 23.0152C357.441 22.708 358.077 22.4888 358.254 22.4145C358.545 22.2871 358.856 22.1375 359.141 21.9858C359.409 21.8495 359.751 21.6209 359.764 21.609C360.079 21.296 360.316 20.9721 360.615 20.5116C360.774 20.2805 360.947 19.9036 361.238 19.4582C361.317 19.3525 361.409 19.1482 361.514 18.8707C361.638 18.5766 361.65 18.2967 361.887 17.6162C361.963 17.4383 362.032 17.1153 362.099 16.7478C362.146 16.5061 362.178 16.2467 362.226 15.935C362.239 15.8519 362.253 15.7654 362.27 15.6765C362.356 15.2504 362.421 15.0001 362.419 14.815C362.439 14.2422 362.495 13.5908 362.63 12.9688C362.582 9.34714 361.96 4.71623 363.372 1.04443C363.468 0.816201 363.797 0.983686 363.882 1.12826C363.8 1.25196 363.708 1.35717 363.621 1.48497C364.043 1.67259 363.928 1.63734 363.865 2.23824C363.828 2.6133 364.023 2.32309 364.069 2.51831C364.126 2.77832 364.317 3.97727 364.036 3.74085C364.084 3.81498 364.13 3.88406 364.178 3.95754C364.208 4.82841 364.273 5.66668 364.35 6.51707C364.364 6.66386 364.454 6.67086 364.467 6.8223C364.504 7.22908 364.443 7.55163 364.45 7.97082C364.454 8.19729 364.557 8.2323 364.549 8.52878C364.54 8.82838 364.4 8.81866 364.55 9.22831C364.728 8.96457 364.591 10.1468 364.596 10.569C364.597 10.6316 364.748 11.1351 364.724 11.4041C364.7 11.669 364.59 12.081 364.628 12.5067C364.646 12.7018 364.763 12.8327 364.749 13.0722C364.739 13.1841 364.699 13.2777 364.613 13.4947C364.578 13.5478 364.546 13.6046 364.529 13.6667C364.484 13.8275 364.511 14.1951 364.505 14.2602C364.479 14.497 364.438 14.2254 364.412 14.3878C364.385 14.5679 364.362 14.7592 364.342 14.9625C364.301 15.4037 364.168 15.789 364.113 16.0542C364.049 16.3602 364.011 16.735 363.958 17.1051C363.956 17.1216 363.953 17.1387 363.951 17.156C363.938 17.2603 364.054 17.1343 364.054 17.1493C364.022 17.904 363.979 17.4967 363.857 17.683C363.81 17.7524 363.753 17.9833 363.632 18.3065C363.56 18.5205 363.456 19.2672 363.542 19.287C363.427 19.2831 363.391 19.4037 363.368 19.5319C363.357 19.614 363.356 19.7033 363.345 19.7401C363.238 20.078 363.116 19.9465 362.99 20.3124C362.936 20.4521 363.176 20.2512 363.097 20.3918C363.062 20.4516 363.021 20.5085 362.975 20.5628C362.84 20.6832 362.625 20.818 362.456 21.1084C362.405 21.1943 362.466 21.2599 362.368 21.4265C362.352 21.4532 362.326 21.4926 362.292 21.5402C362.146 21.7433 361.837 22.1301 362.12 21.9625C361.749 22.2713 361.759 22.4037 361.391 22.8296C361.35 22.8761 361.284 22.9111 361.208 22.9547C361.072 23.0521 360.935 23.1242 360.804 23.2495C360.725 23.3235 360.801 23.4282 360.669 23.5171C360.369 23.7157 360.032 23.7527 359.66 23.938C359.465 24.0338 359.27 24.1341 359.067 24.2342C358.623 24.436 358.413 24.5237 358.169 24.7019C357.94 24.8586 357.727 24.9447 357.528 25.0096C357.292 25.0815 357.307 24.942 356.995 25.0288C356.977 25.034 356.906 25.0736 356.818 25.1199C356.722 25.1765 356.592 25.2579 356.485 25.2911C356.418 25.3105 356.158 25.3799 355.917 25.4482C355.714 25.5099 355.571 25.5246 355.513 25.5365C355.264 25.5795 355.248 25.7047 355.117 25.7021C354.753 25.6877 355.002 25.4628 354.634 25.7735C354.633 25.7728 354.632 25.7721 354.631 25.7714C354.471 25.6594 354.21 25.7059 354.111 25.5434C353.978 25.7458 353.768 25.5812 353.492 25.657C353.214 25.7329 352.995 26.1026 352.917 25.7132C352.787 25.7651 352.24 25.8586 352.147 25.866C352.13 25.8674 352.115 25.8682 352.101 25.8686C351.904 25.8758 352.011 25.7781 351.824 25.7985C351.788 25.8024 351.83 25.8745 351.6 25.877C351.451 25.8792 350.327 25.9225 350.259 25.9126C350.146 25.8994 350.076 25.888 350.037 25.8782L350.16 25.8614C350.104 25.8597 350.11 25.8478 350.152 25.8292L350.036 25.8451C350.181 25.8146 350.73 25.7946 350.836 25.7369C350.865 25.7568 350.896 25.7767 350.927 25.7961C351.266 25.8166 351.067 25.6577 350.913 25.6254C350.758 25.5932 350.475 25.6788 350.346 25.6283C350.282 25.6029 350.314 25.4012 350.506 25.4183C350.299 25.3642 350.576 25.2886 350.493 25.2336C350.451 25.206 350.237 25.1941 350.016 25.1984C350.012 25.1984 350.002 25.2001 349.998 25.2009C349.745 25.261 349.486 25.3329 349.494 25.3921C349.656 25.3652 349.852 25.3182 350.018 25.2813C350.026 25.2811 350.034 25.2811 350.041 25.281C350.113 25.3379 350.1 25.4415 350.027 25.5505L350.082 25.5431C350.027 25.6772 349.901 25.833 349.722 25.9438C349.561 26.053 349.248 26.1243 349.14 26.0631C349.129 26.0659 349.098 26.0715 349.088 26.0734C348.961 26.0832 349.021 26.0712 349 26.0692C348.937 26.0225 348.79 25.9776 348.809 25.9393C348.802 25.901 348.814 25.8693 348.812 25.8486C348.799 25.807 348.801 25.8094 348.201 25.8896C348.265 25.8934 348.354 25.8997 348.446 25.9061C348.534 25.9124 348.61 25.9188 348.678 25.9227C348.7 26.0668 348.452 25.9087 348.288 25.9547C348.203 25.9772 348.664 26.0787 348.278 26.1131C348.055 25.9073 347.794 26.1148 347.326 26.1175C347.431 26.0807 347.59 26.044 347.731 26.0072C347.284 25.9328 347.587 25.8829 347.768 25.8413C347.953 25.7997 347.994 25.7665 347.232 25.7252C347.321 25.7218 347.396 25.7205 347.488 25.7188C347.597 25.7171 347.7 25.7149 347.799 25.7098C347.703 25.6343 347.856 25.4122 347.77 25.3654C347.515 25.2425 347.245 25.3168 346.987 25.3062C346.874 25.3017 346.944 25.2417 346.934 25.2414C346.777 25.2348 346.812 25.3226 346.669 25.3283C346.465 25.3354 346.003 25.2502 345.924 25.2599C345.723 25.2849 346.058 25.4581 346.037 25.471C345.913 25.555 345.644 25.4855 345.658 25.5953C346.235 25.5196 348.22 25.6156 346.467 25.7981C346.978 25.9752 346.794 26.22 346.133 26.2395C345.601 26.2558 345.946 26.1576 345.661 26.05C345.64 26.0365 344.819 25.9852 344.817 26.0614C344.846 25.8859 344.616 25.7305 344.77 25.5494C344.788 25.5228 345.092 25.5332 344.984 25.3877C344.923 25.3146 344.788 25.1555 344.809 25.0624C344.75 25.1271 344.687 25.1999 344.626 25.2675C344.184 25.2865 344.114 25.2168 343.859 25.0961C343.871 25.1465 344.108 25.3582 343.747 25.2939C343.728 25.29 343.713 25.214 343.526 25.1764C343.134 25.1009 343.09 25.0774 343.357 24.8541C342.634 24.9816 342.484 24.7329 341.691 24.8057C341.848 25.0926 342.137 25.0215 342.824 24.9661C342.853 25.0344 342.867 25.1019 342.897 25.1708C341.98 25.0163 342.434 25.032 341.896 25.1706C341.756 25.2046 341.064 25.1684 341.294 25.3615C341.334 25.407 341.789 25.4017 341.736 25.4733C341.721 25.487 341.193 25.5218 341.156 25.5033C340.59 25.2748 341.62 25.1154 340.031 25.1989C339.986 25.2013 339.971 25.2849 339.883 25.2965C339.718 25.3182 339.716 25.2214 339.567 25.2438C339.414 25.2662 339.22 25.3964 339.011 25.2761C338.626 25.057 339.531 24.931 339.971 25.0471C340.112 24.7608 337.185 24.7548 336.974 24.7793C336.188 24.886 337.502 24.8243 337.586 24.9037C337.615 24.9373 337.602 25.3632 337.944 25.0868C338.046 25.0049 337.622 24.8971 337.875 24.8519C338.127 24.8067 338.027 24.9321 338.045 24.9409C338.108 24.9709 338.373 24.9244 338.407 24.9421C338.93 25.2119 338.886 25.6196 338.187 25.0174C337.881 25.1536 338.583 25.3705 338.203 25.4629C337.74 25.5752 337.392 25.3811 337.333 25.3723C336.625 25.2688 337.428 25.5522 336.594 25.4617C336.128 25.4113 337.291 25.273 336.226 25.2916C335.324 25.3074 335.81 25.4061 335.746 25.6304C335.73 25.6829 335.232 25.7473 335.91 25.7241C335.929 25.6657 335.965 25.5887 336.007 25.5348C336.173 25.5775 336.445 25.8699 336.532 25.8801C336.955 25.9287 336.924 25.7769 337.183 25.9557C336.996 25.7601 337.301 25.878 337.414 25.8367C337.832 25.6845 337.29 25.6279 338.218 25.8234C338.098 25.7318 337.989 25.6418 337.871 25.5504C337.983 25.5473 338.094 25.5441 338.205 25.5409C338.371 25.7428 338.95 25.7169 338.425 25.9203C339.061 25.978 339.293 25.9339 339.444 25.7768C339.472 25.7468 339.572 25.7348 339.688 25.7319C339.666 25.6878 339.638 25.5513 339.657 25.5346C339.821 25.3873 340.072 25.6416 339.987 25.7387C340.067 25.7433 340.13 25.7488 340.152 25.7511C340.294 25.7662 340.017 25.854 340.131 25.8841C340.17 25.8938 340.565 25.8747 340.571 25.9104C340.615 26.1391 339.987 25.9742 341.256 26.1069C341.288 25.8987 340.7 25.9446 340.851 25.7234C341.015 25.4858 341.342 25.8044 341.412 25.5129C341.437 25.5608 341.453 25.6008 341.477 25.6554C342.029 25.5283 342.03 25.7711 342.195 25.8246C342.523 25.9292 343.897 25.9132 342.653 25.7032C342.839 25.6821 343.024 25.6724 343.202 25.6538C343.243 26.089 343.127 25.9158 344.058 25.9821C344.258 25.9968 344.322 26.1882 344.512 25.9608C344.493 26.1838 345.033 26.0489 345.117 26.0759C345.46 26.2519 344.187 26.4972 344.01 26.103C343.785 26.2565 343.786 26.0536 343.528 26.0806C343.138 26.1195 343.131 26.159 342.71 26.0093C342.298 26.2204 344.32 26.1018 343.087 26.382C341.844 26.6624 334.622 26.819 332.945 26.8609C329.894 26.9369 328.282 26.9865 325.541 26.9738C325.276 26.9727 323.217 26.9929 323.647 26.749C323.704 26.7141 324.593 26.6214 323.832 26.4299C323.986 26.5429 323.543 26.6163 323.507 26.6282C322.658 26.8983 323.152 26.9645 321.809 26.9672ZM317.828 24.792C319.583 24.8478 318.293 24.6847 318.658 24.3166C318.433 24.3155 318.208 24.3145 317.983 24.3134C318.042 24.3365 318.101 24.3595 318.16 24.3826C318.16 24.3826 318.16 24.3826 318.16 24.3826C318.05 24.5191 317.938 24.6556 317.828 24.792ZM289.192 24.5425C289.264 24.4941 289.335 24.4455 289.414 24.3981C289.634 24.4132 289.855 24.428 290.083 24.443C290.056 24.4759 290.029 24.5092 290.002 24.5421C289.726 24.5407 289.501 24.5391 289.192 24.5425ZM340.22 24.9938C340.549 25.1285 340.521 24.8881 340.947 24.9975C340.895 24.8201 340.837 24.6466 340.782 24.4709C340.455 24.4972 340.38 24.5647 340.015 24.5214C340.058 24.5784 340.101 24.6358 340.143 24.6931C340.203 24.6809 340.268 24.667 340.326 24.6561C340.42 24.8157 339.838 24.8395 340.219 24.9941C340.219 24.994 340.219 24.9939 340.22 24.9938ZM343.568 24.9219C343.759 24.9449 344.458 25.0316 344.545 24.9581C344.875 24.7088 342.895 24.8674 344.355 24.6455C344.348 24.6106 344.355 24.5763 344.355 24.5417C344.095 24.5295 343.826 24.5191 343.546 24.5093C343.561 24.6472 343.551 24.7833 343.568 24.9219ZM324.164 24.777C324.439 24.7962 325.73 24.6791 325.309 24.5213C325.186 24.4751 324.608 24.7008 324.387 24.691C324.245 24.6846 324.405 24.5609 324.123 24.6064C324.135 24.6609 324.143 24.7214 324.165 24.7767C324.165 24.7768 324.164 24.7769 324.164 24.777ZM323.653 25.4972C323.933 25.4751 324.221 25.4472 324.504 25.4238C324.298 25.2828 323.889 25.3733 323.865 25.1749C323.943 25.1599 324.02 25.1449 324.098 25.1299C324.157 25.1732 324.216 25.2167 324.274 25.2601C324.518 25.1523 324.371 25.0987 324.823 25.1299C324.549 24.83 324.499 24.669 323.721 24.9724C323.867 24.8097 323.73 24.2794 323.305 24.6583C323.226 24.7287 323.558 24.7757 323.562 24.7869C323.613 24.9261 323.429 25.015 323.483 25.1465C323.508 25.206 323.71 25.2051 323.74 25.2877C323.754 25.328 323.562 25.4429 323.653 25.4972ZM323.099 24.7911C323.185 24.7067 322.89 24.5066 322.634 24.5471C322.233 24.6101 322.865 24.8005 323.099 24.7911ZM289.19 24.5427C289.191 24.5427 289.191 24.5426 289.192 24.5425C289.191 24.5427 289.191 24.5429 289.191 24.5431C289.191 24.543 289.19 24.5428 289.19 24.5427ZM342.669 24.8244C342.874 24.7527 343.167 24.7631 343.145 24.6491C343.24 24.6715 343.339 24.6935 343.449 24.7159C343.448 24.6816 343.446 24.6473 343.445 24.6133C343.125 24.5921 342.859 24.5707 342.552 24.5491C342.59 24.6407 342.625 24.7328 342.669 24.8244ZM345.979 24.9034C346.34 24.9148 346.038 24.7598 346.117 24.6849C346.187 24.61 346.533 24.6708 346.497 24.5634C346.235 24.5593 346.059 24.5551 345.826 24.5514C345.885 24.6682 345.926 24.7872 345.98 24.9034C345.979 24.9034 345.979 24.9034 345.979 24.9034ZM310.676 24.6693C310.936 24.7029 310.83 24.8213 311.343 24.6827C311.342 24.6827 311.342 24.6827 311.342 24.6827C310.853 24.5858 310.226 24.4994 309.692 24.5931C310.019 24.7179 310.269 24.6168 310.676 24.6693ZM339.293 24.6447C339.177 24.7385 339.704 24.8167 339.819 24.7296C340.008 24.5886 339.459 24.5023 339.293 24.6447ZM300.213 25.4988C299.808 25.7874 300.587 26.1116 301.346 25.9717C301.413 25.9595 300.915 25.8676 301.062 25.8113C301.077 25.8057 301.35 25.8126 301.418 25.7725C301.486 25.7323 301.415 25.6388 301.527 25.5997C301.722 25.5312 302.167 25.6582 302.316 25.5683C302.335 25.5562 302.058 25.4313 302.041 25.4265C301.757 25.3509 301.486 25.5142 301.442 25.5152C301.219 25.5208 301.253 25.3928 301.196 25.3627C301.09 25.3061 300.904 25.3626 300.89 25.3584C300.554 25.2461 301.323 25.2783 301.429 25.2322C301.712 25.1076 301.448 24.9918 302.131 24.9215C302.195 24.9149 302.974 24.9225 301.993 24.779C303.923 24.4804 301.021 24.609 300.728 24.6747C300.585 24.7052 300.801 24.8273 300.715 24.8822C300.512 25.0078 300.164 25.0299 300.195 25.2069C300.26 25.5792 300.724 25.3353 301.021 25.398C300.989 25.4788 300.977 25.5577 300.918 25.6368C301.014 25.5304 300.243 25.4771 300.213 25.4981C300.213 25.4983 300.213 25.4986 300.213 25.4988ZM305.073 25.074C305.506 25.1864 305.476 24.9514 305.875 25.0858C306.228 24.8748 305.532 24.8889 305.452 24.877C305.084 24.8238 305.093 24.5943 304.718 24.6649C304.847 24.8007 304.952 24.9379 305.073 25.074ZM301.322 24.9767C301.607 24.8578 301.096 24.8597 301.076 24.837C300.849 24.5956 302.383 24.6427 301.322 24.9767ZM325.847 25.2499C325.993 25.2579 325.9 25.144 326.029 25.1103C326.158 25.0764 326.596 25.1739 326.585 25.103C326.574 25.032 325.77 24.8477 326.576 24.8079C326.549 24.768 326.558 24.7383 326.545 24.7022C326.324 24.7012 326.1 24.6994 325.877 24.6984C326 24.8131 326.125 24.9339 326.242 25.0448C326.117 25.1361 326.047 25.019 326.04 25.019C326.04 25.0191 326.04 25.0192 326.04 25.0193C325.808 25.0285 325.519 25.232 325.847 25.2499ZM314.3 24.8916C314.256 25.1768 314.603 24.8583 314.745 24.8229C314.887 24.7877 315.082 24.8933 315.009 24.7706C314.779 24.6859 314.305 24.8597 314.3 24.8919C314.3 24.8918 314.3 24.8917 314.3 24.8916ZM307.418 25.0737C307.78 25.0045 307.722 24.9303 308.166 25.015C308.149 24.946 308.132 24.8756 308.114 24.8077C307.762 24.8063 307.787 25.0064 307.38 24.9259C307.314 24.9126 307.456 24.7528 307.156 24.8041C307.243 24.8894 307.332 24.9841 307.418 25.0737ZM309.217 24.8182C308.803 24.8287 308.471 25.3865 309.237 25.135C309.349 25.0974 309.527 24.8102 309.217 24.8182ZM322.016 25.2638C322.723 25.2799 321.921 25.1898 321.736 25.1041C323.382 25.0356 321.551 25.1276 321.385 24.8424C321.183 24.9236 320.805 25.1093 321.225 25.159C321.4 25.1797 321.336 25.0948 321.347 25.0951C321.669 25.1161 321.63 25.255 322.016 25.2638ZM304.324 25.0876C304.35 25.0834 304.309 24.9871 304.393 24.9679C304.478 24.9488 304.669 25.0162 304.689 24.9571C304.707 24.8977 304.323 24.8515 304.206 24.8948C304.088 24.9385 304.084 25.1247 304.324 25.0876ZM307.037 25.3252C307.388 25.256 306.813 24.9011 306.738 24.9028C306.069 24.9213 307.056 25.2129 307.037 25.3252ZM320.373 25.8663C321.221 25.6861 320.601 25.3729 320.069 25.1853C319.999 25.2234 319.927 25.2616 319.857 25.2994C320.177 25.0677 320.737 24.8388 319.491 25.0406C320.173 25.0952 319.602 25.1574 319.597 25.1704C319.522 25.596 320.532 25.3984 320.372 25.8663C320.373 25.8663 320.373 25.8663 320.373 25.8663ZM303.183 24.9861C302.804 24.9875 301.838 25.0609 302.289 25.2464C302.585 25.1596 302.883 25.0728 303.183 24.9861ZM334.315 25.8417C334.606 25.9478 334.897 25.946 335.276 25.9389C334.934 25.7846 335.159 25.7669 335.274 25.7291C335.449 25.6722 335.026 25.6769 335.024 25.6665C335.031 25.5199 335.305 25.4971 334.684 25.5006C334.838 25.4495 334.989 25.3981 335.141 25.3473C334.669 25.3407 334.563 25.245 334.277 25.1282C334.555 25.4137 334.19 25.2349 333.854 25.377C333.686 25.4482 334.165 25.7875 334.316 25.8417C334.316 25.8417 334.315 25.8417 334.315 25.8417ZM321.254 25.9237C321.342 25.8722 321.422 25.8027 321.507 25.7439C321.6 25.7383 321.693 25.7334 321.786 25.7278C321.797 25.7732 321.807 25.8208 321.82 25.8646C321.942 25.8778 321.894 25.8145 321.931 25.8085C321.931 25.8088 321.931 25.809 321.931 25.8093C322.45 25.7253 322.662 25.7348 323.067 25.8754C323.067 25.7361 323.067 25.5967 323.067 25.4574C322.976 25.4707 322.884 25.4836 322.793 25.4966C322.745 25.5714 322.696 25.6464 322.648 25.7212C322.542 25.6799 322.437 25.6389 322.332 25.5976C322.247 25.6245 322.145 25.6529 322.072 25.6791C321.649 25.2896 322.609 25.5542 322.617 25.3925C322.623 25.2886 321.657 25.2931 321.517 25.3648C321.497 25.3753 321.706 25.6654 321.352 25.5142C321.296 25.4904 321.277 24.863 320.894 25.371C320.839 25.4431 321.03 25.8329 321.254 25.9237ZM324.764 26.1262C324.221 25.7248 326.224 26.1493 325.36 25.8189C325.607 25.6346 325.561 25.637 325.313 25.4732C325.291 25.4586 325.462 25.4079 325.448 25.4015C325.216 25.3112 324.936 25.359 324.934 25.1949C324.871 25.2036 324.811 25.2114 324.748 25.2202C325.011 25.3748 324.594 25.4787 324.431 25.6092C324.358 25.6684 324.527 25.6866 324.465 25.7383C324.442 25.7572 324.205 25.7195 324.196 25.7737C324.175 25.8961 324.325 26.0617 324.576 26.152C324.576 26.1521 324.576 26.1522 324.576 26.1523C324.639 26.1443 324.701 26.1346 324.764 26.1262ZM313.154 25.792C313.062 25.5701 312.692 25.5066 313.403 25.3981C313.368 25.3544 313.332 25.3111 313.296 25.2674C313.176 25.2712 313.06 25.275 312.939 25.2785C312.573 25.9321 311.908 25.1944 312.334 25.6581C312.381 25.7085 312.665 25.6522 312.384 25.789C312.385 25.7891 312.385 25.7892 312.386 25.7894C312.777 25.7474 312.826 25.6688 313.154 25.792ZM315.782 25.6375C316.687 25.1707 314.532 25.3769 314.892 25.5008C314.924 25.512 315.852 25.4118 315.782 25.6375ZM308.519 26.0431C308.928 26.0512 308.955 25.7994 308.914 25.7087C308.873 25.6177 308.589 25.7096 308.553 25.6953C308.434 25.648 308.686 25.6168 308.532 25.5521C308.48 25.531 307.771 25.4412 307.739 25.452C307.559 25.5122 307.822 25.7201 307.771 25.7439C307.603 25.8219 307.376 25.7137 307.327 25.8242C307.222 26.06 307.646 25.8125 307.718 25.8085C307.935 25.7973 307.916 25.9301 308.078 25.9567C308.24 25.9832 308.347 25.9378 308.49 25.9472C308.538 25.9503 308.498 26.0423 308.519 26.0431ZM309.86 25.5114C309.438 25.702 310.466 25.9094 310.589 25.8648C310.95 25.7322 310.062 25.4204 309.86 25.5114ZM323.4 25.5204C323.015 25.6586 323.91 25.7705 324.175 25.7149C324.126 25.6574 323.53 25.4728 323.4 25.5204ZM320.137 25.8656C320.493 25.8225 320.022 25.5111 319.725 25.516C319.551 25.7206 319.715 25.6801 319.909 25.6885C320.102 25.697 319.86 25.8991 320.137 25.8656ZM304.117 25.8151C304.191 25.8184 305.43 25.6493 304.718 25.579C304.663 25.5737 303.801 25.6034 303.737 25.6349C303.607 25.6986 303.92 25.806 304.117 25.8151ZM318.429 26.1678C318.618 25.9907 318.803 25.9931 318.63 25.7853C318.63 25.7853 318.629 25.7853 318.629 25.7853C319.107 25.7216 319.128 26.1469 319.231 26.1378C319.591 26.1059 319.25 25.8032 319.475 25.7038C318.951 25.7972 319.101 25.5932 318.702 25.5802C318.612 25.5774 318.253 25.6992 318.2 25.7752C318.148 25.8511 318.331 26.0789 318.429 26.1678ZM302.364 25.859C302.784 25.9269 303.172 25.64 302.586 25.5945C302.301 25.572 302.107 25.8177 302.364 25.859ZM344.185 25.9317C344.122 25.8565 344.055 25.7816 343.986 25.7071C344.142 25.6889 344.296 25.6703 344.446 25.6517C344.327 25.6755 344.207 25.699 344.083 25.7225C344.373 25.7486 344.501 25.8855 344.186 25.9317C344.186 25.9317 344.186 25.9317 344.185 25.9317ZM354.507 25.5708C354.536 25.581 354.567 25.5789 354.599 25.5689C354.722 25.5294 354.859 25.3602 354.831 25.3501C354.734 25.3157 354.638 25.3271 354.567 25.3593C354.442 25.414 354.381 25.5255 354.507 25.5708ZM323.972 26.2018C324.457 26.2332 324.124 25.8684 323.826 25.8434C324.008 25.9132 323.696 26.1839 323.972 26.2018ZM350.836 25.7369C350.791 25.7074 350.746 25.6779 350.696 25.6484C350.85 25.6859 350.878 25.7139 350.836 25.7369ZM304.312 26.1372C304.385 26.1652 304.928 26.1884 305.002 26.1538C305.155 26.081 304.73 25.8796 304.481 25.9415C304.454 25.9481 304.24 26.1092 304.314 26.1372C304.313 26.1372 304.313 26.1372 304.312 26.1372ZM344.816 26.0713C344.815 26.0678 344.816 26.0645 344.817 26.0614C344.817 26.0646 344.817 26.068 344.816 26.0713ZM363.56 19.2868C363.553 19.2887 363.547 19.2889 363.542 19.287C363.548 19.2872 363.554 19.2861 363.56 19.2868ZM308.149 26.4472C308.33 26.7947 308.75 26.61 308.419 26.4381C308.4 26.4291 308.193 26.4479 308.149 26.4472Z" fill="#419DDF"/>
</svg>
