<svg width="4" height="48" viewBox="0 0 4 48" fill="none" xmlns="http://www.w3.org/2000/svg">
<path d="M0.582989 18.1605C0.595562 16.2346 0.571492 14.1257 0.652033 12.1928C0.661885 11.9555 0.762456 11.9728 0.776454 11.9063C0.815062 11.7246 0.697383 11.6138 0.7075 11.4812C0.75628 10.8365 0.779727 10.2333 0.824528 9.6008C0.870583 8.94931 1.18049 9.26098 1.25916 9.03527C1.41321 8.59427 1.0009 8.96641 0.911055 8.79149C0.94089 8.28438 0.990514 7.77298 1.04065 7.26518C1.07747 7.38967 1.11348 7.51416 1.14749 7.63998C1.15823 7.41854 1.22459 7.10213 1.32741 7.47425C1.35767 7.39255 1.39285 7.31637 1.42243 7.23241C1.27397 7.20775 1.26613 6.8154 1.17835 6.77861C1.09054 6.7419 1.10849 6.96263 1.1008 6.96119C0.991121 6.94541 1.15078 6.04239 1.16371 5.97729C1.19811 5.80517 1.38088 5.95832 1.37055 5.81148C1.35291 5.55892 0.976047 5.72308 1.4783 5.38675C1.31774 5.24915 1.40199 5.23818 1.41502 5.06623C1.41666 5.04359 1.32268 5.06019 1.32033 5.05019C1.25346 4.78901 1.42577 4.99105 1.43523 4.98979C1.59598 4.96782 1.52758 4.68758 1.54359 4.62885C1.74312 3.89202 1.87864 3.35201 1.93128 2.57285C1.9425 2.40441 1.88279 1.89042 1.9118 1.72762C1.94043 1.56706 2.05516 1.65457 2.11158 1.57098C1.83479 1.43311 1.80546 1.30406 1.99194 1.00305C1.79019 0.888113 1.95373 0.904342 1.91542 0.687828C1.88368 0.507602 1.64354 0.191601 1.85312 -0.00417771C1.83183 0.222592 1.93177 0.200136 1.98927 0.456281C2.00831 0.541547 2.00323 1.42852 2.21135 1.36471C2.31983 1.33142 2.22362 1.03642 2.24367 1.02527C2.36055 0.960352 2.50159 1.12592 2.45002 1.27081C2.42696 1.23433 2.40363 1.19041 2.3806 1.1512C2.23194 1.47631 2.79206 1.25756 2.30203 1.50067C2.24191 1.53074 2.1797 1.51818 2.11564 1.56812C2.1418 1.5788 2.20759 1.51757 2.2187 1.57102C2.22989 1.62552 2.10512 1.72749 2.20919 1.74398C2.36052 1.76859 2.30316 1.54265 2.3122 1.52579C2.31129 1.5256 2.31037 1.52541 2.30946 1.52521C2.39151 1.37616 2.39739 1.68933 2.41158 1.70443C2.505 1.80227 2.57842 1.73698 2.65489 1.88314C2.69846 1.96651 2.67004 2.1774 2.68357 2.25548C2.69746 2.33306 2.77043 2.21335 2.78527 2.26561C2.80012 2.31787 2.74496 2.38216 2.76216 2.4435C2.76975 2.46975 2.84974 2.46927 2.8524 2.48197C2.88174 2.61816 2.71634 2.52728 2.72519 2.65061C2.73109 2.73051 2.88333 3.00006 2.93147 2.81588C2.94662 2.90481 2.95749 2.9915 2.96916 3.07995C2.99353 3.0245 3.0103 2.9671 3.03885 2.91305C2.99901 3.07885 3.13507 3.15548 3.14416 3.25974C3.15321 3.36405 2.988 3.45571 3.0669 3.57117C3.23474 3.8176 3.16238 3.21102 3.19362 3.13613C3.20589 3.10695 3.33334 3.22083 3.33684 3.23822C3.35212 3.31537 3.25917 3.40547 3.26267 3.46487C3.27583 3.67749 3.39587 3.80886 3.41824 4.01161C3.49427 4.70199 3.5528 5.55804 3.57252 6.21159C3.57976 6.45497 3.44171 6.59991 3.44441 6.70913C3.45083 6.96467 3.56946 6.99722 3.57344 7.22008C3.57975 7.5518 3.47098 8.01789 3.44567 8.29445C3.42826 8.48591 3.54155 8.6606 3.54384 8.71047C3.57784 9.40359 3.56637 10.2462 3.56173 10.8202C3.55959 11.0902 3.42887 11.217 3.43208 11.2728C3.44566 11.5126 3.55694 11.4495 3.54373 11.6437C3.53668 11.7486 3.43029 11.7671 3.426 11.7811C3.38971 11.9044 3.5281 11.9305 3.53163 12.027C3.55202 12.5822 3.45565 13.1158 3.43657 13.6651C3.4351 13.705 3.37371 13.7008 3.37659 13.7266C3.3905 13.8377 3.48777 13.7872 3.49357 13.9031C3.50608 14.1443 3.4875 14.3916 3.47256 14.647C3.47109 14.6723 3.39201 14.6828 3.39137 14.7407C3.39076 14.7987 3.46515 14.8435 3.46001 14.9344C3.44666 15.1722 3.35466 15.4059 3.34711 15.6578C3.34597 15.6994 3.44054 15.7521 3.43884 15.8146C3.43363 16.0107 3.34422 16.3002 3.33931 16.4683C3.32367 17.0227 3.37243 17.5348 3.36763 18.0571C3.36629 18.1799 3.27702 18.2877 3.27425 18.3515C3.26822 18.4955 3.35263 18.3877 3.35144 18.5336C3.341 19.725 3.29055 20.9207 3.28451 22.1262C3.28198 22.5997 3.36207 23.1768 3.33346 23.6341C3.3213 23.8243 3.20581 23.8576 3.20334 23.9921C3.19945 24.2321 3.34659 24.2772 3.35863 24.5305C3.36805 24.7327 3.21827 24.9627 3.22515 25.173C3.23204 25.3833 3.37414 25.4818 3.38874 25.7234C3.40063 25.9225 3.33276 26.1995 3.34098 26.4161C3.41668 28.4013 3.45489 30.3559 3.32191 32.3512C3.27495 33.0552 3.28728 33.837 3.13894 34.5635C3.12491 34.6318 2.9878 34.5257 3.01452 34.7453C3.02903 34.8632 3.14639 35.0289 3.14949 35.3012C3.16744 36.9202 2.89452 38.6441 2.92759 40.2905C2.97758 42.7567 3.93421 45.3221 2.47245 47.4493C2.40067 47.5536 2.05492 47.493 1.95719 47.429C2.02813 47.3713 2.11222 47.3182 2.19228 47.2579C1.76034 47.1763 1.87287 47.1911 1.91472 46.9061C1.94069 46.7307 1.75413 46.8691 1.70258 46.7749C1.63598 46.6527 1.42821 46.0804 1.71365 46.1931C1.66434 46.1572 1.61708 46.1241 1.5688 46.0892C1.52975 45.676 1.46222 45.2743 1.38424 44.8698C1.3706 44.7999 1.2807 44.7958 1.26712 44.7236C1.22998 44.5298 1.29067 44.3768 1.28367 44.1774C1.27991 44.0691 1.17615 44.053 1.18429 43.9112C1.19248 43.7696 1.33273 43.7742 1.1823 43.5792C1.00496 43.7033 1.13859 43.1429 1.12985 42.9429C1.12875 42.9139 0.97313 42.6745 0.992636 42.5483C1.01182 42.4216 1.11486 42.2301 1.05958 42.0334C1.03361 41.9411 0.911047 41.884 0.905086 41.7848C0.900921 41.715 1.01126 41.6323 1.01676 41.544C1.02223 41.4558 0.934391 41.2637 0.933279 41.2287C0.928662 41.1023 1.00415 41.2425 1.00894 41.1561C1.03083 40.7391 1.07717 40.2548 1.02972 39.8429C1.02397 39.7922 0.932567 39.8613 0.929616 39.8545C0.82198 39.51 0.938187 39.6945 1.02035 39.6027C1.09979 39.5137 1.06389 38.8561 0.906318 38.8496C1.10391 38.8315 0.954692 38.6838 0.949298 38.6458C0.928478 38.4979 1.09894 38.5287 1.04763 38.385C1.02895 38.3323 0.912443 38.4333 0.916421 38.3769C0.926287 38.2375 1.11304 38.1138 1.13356 37.9283C1.13858 37.8835 1.05613 37.8681 1.05977 37.7884C1.06345 37.7086 1.16803 37.375 0.992198 37.5276C1.13393 37.3261 1.05775 37.2845 1.06408 37.0485C1.06588 36.9887 1.1998 36.9131 1.15987 36.7855C1.14632 36.7423 1.018 36.7422 1.01763 36.6774C1.01642 36.5293 1.15072 36.3911 1.15794 36.2032C1.17179 35.8517 1.08235 35.4765 1.11945 35.1104C1.12963 35.0109 1.25837 35.0371 1.26238 34.8923C1.26261 34.871 1.15289 34.6953 1.16443 34.5953C1.17136 34.5351 1.25305 34.2237 1.26001 34.1608C1.2712 34.0568 1.14664 34.0369 1.17164 33.9801C1.24371 33.816 1.42597 33.9502 1.17682 33.7491C1.31677 33.6854 1.30406 33.5693 1.47591 33.5339C1.28873 33.4644 1.47018 33.3788 1.40861 33.2473C1.347 33.1157 0.98421 33.0045 1.37612 32.9769C1.32917 32.9152 1.2507 32.6538 1.24521 32.6098C1.22979 32.4801 1.33738 32.5505 1.32377 32.4526C1.3215 32.4354 1.24725 32.4526 1.25572 32.3423C1.26138 32.2698 1.27151 31.7388 1.28199 31.7072C1.40176 31.3466 1.35337 31.9051 1.43271 31.9842C1.41151 31.9978 1.39025 32.0113 1.36928 32.0258C1.33263 32.1853 1.50091 32.096 1.54052 32.024C1.58011 31.9519 1.50699 31.8157 1.56256 31.756C1.59046 31.7263 1.79088 31.747 1.7657 31.8375C1.82851 31.741 1.89236 31.8744 1.95084 31.8366C2.01495 31.795 2.03914 31.3587 1.92862 31.3552C1.92391 31.4367 1.92666 31.5382 1.92125 31.6206C1.728 31.7264 1.07537 31.392 1.34063 31.0944C1.53258 30.8785 1.67961 31.2393 1.52584 30.7221C1.5173 30.8013 1.49865 30.8682 1.48985 30.9401C1.34569 30.9463 1.50534 30.8311 1.46014 30.7704C1.43803 30.7412 1.33414 30.9185 1.30182 30.7633C1.50925 30.6322 1.30309 30.5276 1.30299 30.3042C1.33908 30.3667 1.37498 30.4292 1.41107 30.4917C1.56446 30.1159 1.60452 30.9929 1.69587 30.26C1.70158 30.3484 1.69889 30.4362 1.7081 30.5251C1.78415 30.4828 2.00534 30.554 2.05263 30.516C2.17677 30.4163 2.10415 30.2661 2.11626 30.143C2.12137 30.0891 2.18094 30.1232 2.18134 30.1187C2.18875 30.0449 2.10075 30.0603 2.09584 29.9955C2.0897 29.9139 2.17756 29.6793 2.16824 29.641C2.14443 29.542 1.96938 29.7046 1.95653 29.695C1.87325 29.6311 1.94422 29.5032 1.83434 29.5088C1.90665 29.8191 1.80025 30.7099 1.62714 29.9012C1.44738 30.1218 1.20346 30.0549 1.18758 29.7349C1.17426 29.4702 1.27047 29.6419 1.3797 29.5053C1.39338 29.4877 1.44864 29.1339 1.37264 29.1149C1.54797 29.131 1.70459 29.0173 1.88483 29.0966C1.9113 29.1082 1.89928 29.2535 2.04538 29.2043C2.11877 29.1797 2.27869 29.1085 2.37166 29.1213C2.30724 29.0907 2.23475 29.0587 2.16755 29.0276C2.15095 28.8095 2.221 28.7793 2.34299 28.6614C2.29254 28.6663 2.07964 28.7742 2.14579 28.6077C2.14972 28.5991 2.2258 28.5925 2.2644 28.508C2.34178 28.3371 2.36566 28.3015 2.58744 28.4356C2.46389 28.0788 2.71343 28.0048 2.64453 27.6394C2.35688 27.7089 2.42656 27.8378 2.47833 28.1723C2.40995 28.186 2.34234 28.1921 2.27325 28.2063C2.43258 27.7636 2.41451 27.983 2.27863 27.7298C2.24534 27.6678 2.28511 27.3397 2.0908 27.4473C2.04507 27.4727 2.04816 27.6768 1.97675 27.6527C1.96316 27.648 1.93106 27.3995 1.9498 27.3778C2.18119 27.1057 2.33528 27.598 2.25997 26.8411C2.25774 26.8202 2.1743 26.812 2.1631 26.7712C2.14222 26.6944 2.23899 26.6945 2.21737 26.6259C2.1957 26.5573 2.06656 26.4611 2.18795 26.3596C2.40898 26.1739 2.5303 26.6187 2.41205 26.815C2.69745 26.8982 2.71861 25.487 2.69503 25.3994C2.59234 25.0164 2.64725 25.6524 2.56751 25.6843C2.53378 25.6976 2.10804 25.6863 2.38265 25.85C2.46403 25.8984 2.57401 25.7008 2.61791 25.8199C2.6618 25.939 2.53692 25.8907 2.52808 25.8992C2.49778 25.9284 2.54294 26.0551 2.52498 26.0713C2.25253 26.3204 1.84509 26.293 2.45084 25.9655C2.31624 25.8186 2.09576 26.1501 2.00528 25.9684C1.89531 25.7475 2.09117 25.5892 2.10021 25.5616C2.20723 25.2317 1.91976 25.6104 2.01458 25.207C2.06734 24.9824 2.19967 25.5459 2.18654 25.0316C2.17533 24.601 2.07421 24.8324 1.85023 24.7988C1.79782 24.7908 1.73595 24.5544 1.75566 24.8757C1.81399 24.8854 1.89082 24.9033 1.94449 24.9243C1.901 25.0026 1.60719 25.1308 1.59652 25.1725C1.54573 25.3763 1.69762 25.368 1.51759 25.4866C1.71406 25.4027 1.59474 25.5414 1.63548 25.5944C1.7856 25.7912 1.84487 25.5359 1.64469 25.9718C1.73698 25.9157 1.8275 25.865 1.91941 25.8107C1.92201 25.8633 1.92468 25.9159 1.92728 25.9685C1.72455 26.0447 1.74743 26.3241 1.5468 26.0692C1.48587 26.3725 1.52859 26.4959 1.68497 26.5641C1.71482 26.5771 1.72633 26.6229 1.72865 26.6766C1.77293 26.6669 1.90953 26.6553 1.92618 26.664C2.07258 26.7412 1.81706 26.8557 1.72042 26.8147C1.71538 26.8522 1.70962 26.8819 1.70715 26.8923C1.69137 26.9587 1.60498 26.8274 1.57433 26.881C1.56436 26.8986 1.58148 27.0862 1.54576 27.0894C1.31678 27.1096 1.48506 26.803 1.34561 27.4208C1.55366 27.4379 1.51091 27.1499 1.73129 27.226C1.96804 27.3078 1.64764 27.4662 1.93876 27.5046C1.89069 27.5172 1.85067 27.5226 1.79599 27.5333C1.92036 27.7852 1.67755 27.7859 1.62315 27.8619C1.51695 28.0094 1.52548 28.6927 1.74224 28.0815C1.76229 28.1714 1.77104 28.2631 1.78865 28.3526C1.35321 28.3684 1.52701 28.3158 1.45601 28.745C1.44031 28.8395 1.24857 28.8683 1.47495 28.9636C1.25207 28.9486 1.38385 29.2301 1.35651 29.2559C1.17874 29.4217 0.940291 28.7967 1.3354 28.7211C1.183 28.6144 1.38592 28.6169 1.36026 28.4994C1.3232 28.3295 1.28393 28.3056 1.43581 28.106C1.22689 27.9058 1.33482 28.8801 1.06108 28.2873C0.787368 27.6943 0.667384 24.2572 0.633828 23.4553C0.573177 22.0025 0.53158 21.2386 0.557906 19.9345C0.56031 19.8059 0.550301 18.8344 0.792017 19.0389C0.826705 19.0682 0.915045 19.4869 1.11022 19.1306C0.996443 19.2023 0.925277 18.9909 0.913567 18.9731C0.647694 18.5648 0.579069 18.7988 0.582989 18.1605ZM2.77772 16.2911C2.71332 17.1236 2.88277 16.5133 3.24907 16.6902C3.25125 16.5833 3.25338 16.4768 3.25556 16.3699C3.23217 16.3977 3.20886 16.4252 3.18547 16.4531C3.18546 16.4532 3.18546 16.4533 3.18546 16.4534C3.04956 16.3994 2.91362 16.3451 2.77772 16.2911ZM3.16752 2.67502C3.21565 2.70804 3.26388 2.74066 3.31094 2.77638C3.29473 2.88628 3.27881 2.99578 3.26261 3.10569C3.22986 3.09221 3.19671 3.07916 3.16396 3.06569C3.16673 2.93549 3.16962 2.80572 3.16752 2.67502ZM2.4641 26.932C2.32776 27.0864 2.56829 27.0749 2.45658 27.2808C2.63425 27.2573 2.80808 27.2309 2.98401 27.2061C2.95942 27.0482 2.89234 27.0117 2.9375 26.841C2.88027 26.8603 2.8227 26.8801 2.76513 26.899C2.77706 26.9276 2.79066 26.9581 2.8012 26.9858C2.64119 27.028 2.62026 26.7542 2.46374 26.9315C2.46386 26.9317 2.46398 26.9318 2.4641 26.932ZM2.5187 28.5297C2.49472 28.6133 2.4044 28.9444 2.47741 28.9904C2.72494 29.1466 2.57669 28.2082 2.79093 28.901C2.82592 28.8982 2.86014 28.9017 2.89475 28.9021C2.90832 28.7762 2.92019 28.6508 2.93132 28.5241C2.79339 28.5294 2.65733 28.5234 2.5187 28.5297ZM2.76138 19.3044C2.74084 19.433 2.85156 20.0483 3.01146 19.8498C3.05827 19.7914 2.83543 19.5149 2.84633 19.4108C2.85336 19.3434 2.97632 19.4203 2.93224 19.2866C2.87762 19.2919 2.8171 19.295 2.76175 19.3048C2.76163 19.3047 2.76151 19.3045 2.76138 19.3044ZM2.04381 19.0553C2.06445 19.1887 2.09097 19.324 2.113 19.4583C2.25502 19.362 2.16648 19.1685 2.365 19.1593C2.37966 19.1961 2.39423 19.2325 2.40889 19.2694C2.36521 19.297 2.3215 19.3242 2.27783 19.3513C2.3844 19.4675 2.43868 19.3984 2.40528 19.6124C2.70653 19.486 2.86775 19.4636 2.56822 19.0934C2.7302 19.1645 3.26107 19.1048 2.88433 18.8974C2.81439 18.8586 2.76572 19.017 2.7545 19.0187C2.61502 19.0417 2.5271 18.9526 2.3953 18.9775C2.33569 18.9886 2.33557 19.0856 2.25283 19.0992C2.21248 19.1054 2.0985 19.012 2.04381 19.0553ZM2.75262 18.7973C2.83652 18.8394 3.03812 18.7006 2.99884 18.5779C2.93786 18.3865 2.74435 18.6853 2.75262 18.7973ZM3.16735 2.67429C3.16741 2.67454 3.16747 2.67478 3.16752 2.67502C3.16734 2.6749 3.16716 2.67477 3.16698 2.67465C3.1671 2.67453 3.16722 2.67441 3.16735 2.67429ZM2.62084 28.0986C2.69149 28.198 2.6795 28.3441 2.7936 28.3345C2.7707 28.3823 2.74815 28.4306 2.72524 28.4784C2.75952 28.4783 2.79387 28.4778 2.8278 28.4777C2.85066 28.3334 2.87359 28.1895 2.89681 28.0453C2.80494 28.0624 2.71274 28.0782 2.62084 28.0986ZM2.52444 29.672C2.51099 29.8535 2.66768 29.7028 2.74214 29.7435C2.81661 29.7841 2.75398 29.9453 2.86161 29.9274C2.86694 29.8205 2.87233 29.7091 2.87732 29.6008C2.76014 29.6281 2.64089 29.6468 2.52443 29.6723C2.52443 29.6722 2.52444 29.6721 2.52444 29.672ZM2.93564 12.8924C2.90074 13.0152 2.78294 12.9637 2.91894 13.2084C2.91894 13.2083 2.91895 13.2081 2.91895 13.2079C3.0183 12.9774 3.10781 12.6804 3.01674 12.4239C2.89026 12.5788 2.99016 12.6991 2.93564 12.8924ZM2.8178 26.5048C2.72458 26.4518 2.64372 26.6933 2.73028 26.7476C2.87038 26.8356 2.95938 26.5856 2.8178 26.5048ZM2.1575 7.90703C1.8708 7.71656 1.54304 8.06829 1.67906 8.44167C1.69097 8.47396 1.78531 8.23484 1.8409 8.30655C1.84637 8.3138 1.83811 8.44552 1.87791 8.47855C1.91781 8.5116 2.01157 8.47833 2.0502 8.5322C2.11771 8.62673 1.98856 8.83735 2.07774 8.90851C2.08969 8.91789 2.216 8.78774 2.22083 8.77954C2.29783 8.64534 2.1359 8.51355 2.13504 8.49268C2.13057 8.38525 2.25842 8.40283 2.2888 8.37596C2.34594 8.32536 2.2903 8.23463 2.29457 8.22833C2.40856 8.06656 2.37251 8.43855 2.41817 8.48931C2.54131 8.62606 2.65844 8.50188 2.72536 8.82744C2.73166 8.85834 2.72025 9.22749 2.86849 8.7637C3.15769 9.68046 3.04329 8.30644 2.97908 8.1567C2.9493 8.08768 2.82618 8.19042 2.7717 8.14818C2.64709 8.05171 2.62665 7.88933 2.44944 7.90195C2.07687 7.92931 2.31853 8.14485 2.25435 8.29097C2.17368 8.27472 2.09491 8.268 2.01612 8.23863C2.12204 8.28369 2.17908 7.92085 2.15823 7.90704C2.15799 7.90704 2.15774 7.90704 2.1575 7.90703ZM2.55849 10.2243C2.444 10.4284 2.67913 10.4163 2.54278 10.6029C2.75203 10.7709 2.74131 10.4437 2.75361 10.4058C2.80862 10.2324 3.03801 10.2388 2.9693 10.0601C2.8329 10.1198 2.6952 10.1682 2.55849 10.2243ZM2.67413 8.44036C2.79166 8.57887 2.79223 8.33323 2.81508 8.32351C3.05755 8.21759 3.00291 8.95254 2.67413 8.44036ZM2.28022 20.0989C2.27144 20.1685 2.38582 20.1255 2.41882 20.1873C2.4521 20.2493 2.3524 20.4588 2.42333 20.4543C2.49443 20.4496 2.68271 20.0657 2.71853 20.4534C2.75854 20.4407 2.78823 20.4455 2.82433 20.4395C2.8265 20.3331 2.82938 20.2256 2.83155 20.1192C2.71617 20.1764 2.5948 20.235 2.48329 20.29C2.39259 20.2293 2.51009 20.1969 2.51013 20.1937C2.51 20.1937 2.50988 20.1937 2.50976 20.1937C2.50174 20.0822 2.29976 19.9425 2.28022 20.0989ZM2.69559 14.6125C2.41062 14.5887 2.7274 14.7565 2.76203 14.8243C2.79654 14.8922 2.68998 14.9838 2.81308 14.9503C2.89891 14.842 2.7274 14.6151 2.69523 14.6125C2.69535 14.6125 2.69547 14.6125 2.69559 14.6125ZM2.5473 11.3392C2.61471 11.512 2.68915 11.4855 2.60233 11.695C2.67136 11.6876 2.74188 11.6802 2.80986 11.6727C2.81302 11.5056 2.61277 11.5152 2.69525 11.3227C2.70888 11.2911 2.86801 11.3607 2.81813 11.2171C2.73238 11.2578 2.63725 11.299 2.5473 11.3392ZM2.79393 12.1945C2.78548 11.9969 2.2293 11.8343 2.47707 12.2007C2.51411 12.255 2.80041 12.3431 2.79393 12.1945ZM2.2853 18.2768C2.26568 18.6126 2.35972 18.2319 2.44636 18.1453C2.50669 18.9282 2.42383 18.0567 2.70975 17.9817C2.62957 17.8853 2.44579 17.7044 2.39398 17.9026C2.37246 17.9853 2.45767 17.9559 2.45727 17.9609C2.43466 18.1134 2.29597 18.0934 2.2853 18.2768ZM2.54851 9.86758C2.55257 9.8803 2.64908 9.86149 2.6679 9.902C2.68658 9.94256 2.61822 10.0332 2.67722 10.0429C2.73659 10.0525 2.78464 9.86976 2.7419 9.81308C2.69875 9.75645 2.51263 9.75258 2.54851 9.86758ZM2.29764 11.1545C2.36517 11.3231 2.72282 11.0523 2.72155 11.0158C2.70638 10.6948 2.40987 11.1652 2.29764 11.1545ZM1.69094 17.4902C1.86689 17.8971 2.18316 17.6041 2.3734 17.3524C2.33563 17.3185 2.29782 17.2837 2.26039 17.2503C2.49045 17.4049 2.71661 17.6741 2.52094 17.0785C2.46301 17.4028 2.40364 17.1301 2.3906 17.1279C1.96545 17.0876 2.158 17.5709 1.69094 17.4898C1.69094 17.49 1.69094 17.4901 1.69094 17.4902ZM2.65569 9.3227C2.65613 9.1464 2.58745 8.68737 2.39975 8.89922C2.48504 9.04054 2.5704 9.18138 2.65569 9.3227ZM1.64605 24.1211C1.5385 24.264 1.53891 24.3968 1.54404 24.5745C1.70003 24.4162 1.71665 24.5215 1.75388 24.5758C1.8099 24.6582 1.80732 24.46 1.81772 24.4596C1.9643 24.4647 1.98574 24.5913 1.98527 24.3037C2.03559 24.3753 2.08631 24.446 2.13628 24.5176C2.14525 24.2985 2.24144 24.2479 2.35976 24.1101C2.07281 24.2421 2.25346 24.0662 2.11308 23.9034C2.0428 23.8222 1.70105 24.0483 1.64604 24.1216C1.64604 24.1214 1.64604 24.1212 1.64605 24.1211ZM1.62922 17.9082C1.68022 17.9504 1.7494 17.9893 1.80776 18.0302C1.8129 18.0742 1.81735 18.1183 1.82248 18.1623C1.77695 18.1672 1.72933 18.1713 1.68554 18.1771C1.67169 18.2349 1.73525 18.213 1.74101 18.2303C1.74077 18.2303 1.74053 18.2303 1.74028 18.2303C1.82163 18.478 1.81112 18.5789 1.66849 18.7708C1.80782 18.7723 1.94716 18.7738 2.0865 18.7752C2.07367 18.7316 2.06117 18.6876 2.04869 18.644C1.97406 18.6201 1.89939 18.5961 1.82476 18.5722C1.86658 18.5224 1.90811 18.473 1.94993 18.4231C1.92344 18.3826 1.89562 18.3338 1.86976 18.2987C2.26132 18.1021 1.99195 18.5554 2.15357 18.5612C2.25747 18.565 2.25776 18.1056 2.18672 18.0387C2.17632 18.0291 1.88528 18.1253 2.03814 17.9589C2.06221 17.9328 2.68971 17.9302 2.1836 17.7437C2.1118 17.7171 1.72109 17.8031 1.62922 17.9082ZM1.40935 19.5738C1.81343 19.3198 1.37899 20.2684 1.7136 19.8606C1.89675 19.9799 1.89458 19.9581 2.05952 19.8416C2.0743 19.8313 2.12411 19.9135 2.13062 19.9067C2.22207 19.7971 2.1756 19.6634 2.33973 19.6642C2.3313 19.6342 2.32381 19.6061 2.31538 19.5761C2.15943 19.6989 2.05759 19.4999 1.92788 19.422C1.86914 19.3865 1.85006 19.4664 1.79863 19.4365C1.77986 19.4255 1.81875 19.3139 1.76464 19.3088C1.64226 19.298 1.476 19.3665 1.38447 19.4847C1.38434 19.4847 1.38422 19.4847 1.3841 19.4847C1.39183 19.5147 1.40127 19.5438 1.40935 19.5738ZM1.80086 14.0584C2.02318 14.0168 2.08854 13.8413 2.19345 14.1808C2.23733 14.1645 2.28084 14.1478 2.32472 14.1315C2.32147 14.0744 2.31823 14.019 2.31534 13.961C1.66357 13.7802 2.40452 13.4704 1.93882 13.6689C1.88819 13.6906 1.94307 13.8266 1.80765 13.6915C1.80753 13.6917 1.8074 13.6918 1.80728 13.692C1.84731 13.879 1.92567 13.9034 1.80086 14.0584ZM1.94243 15.309C2.40471 15.7443 2.20915 14.717 2.08348 14.887C2.07212 14.9023 2.16778 15.3449 1.94243 15.309ZM1.57249 11.8513C1.56241 12.0441 1.81415 12.0595 1.90505 12.041C1.99622 12.0225 1.9057 11.8879 1.92021 11.8709C1.96804 11.8152 1.99799 11.9347 2.06349 11.8624C2.08477 11.8385 2.1781 11.5033 2.16742 11.4878C2.10807 11.4017 1.89894 11.5245 1.8754 11.4998C1.79825 11.4193 1.9075 11.3121 1.79725 11.2879C1.562 11.2356 1.80737 11.44 1.81103 11.4741C1.82115 11.5771 1.68852 11.5667 1.66111 11.6434C1.63376 11.7201 1.6787 11.7709 1.66858 11.8387C1.6652 11.8612 1.57343 11.8415 1.57249 11.8513ZM2.09767 12.4949C1.90913 12.2913 1.69661 12.7798 1.74064 12.8385C1.87146 13.0111 2.18764 12.5923 2.09767 12.4949ZM2.02184 18.9337C1.88556 18.7479 1.76917 19.1761 1.82352 19.2994C1.88119 19.2773 2.06875 18.9976 2.02184 18.9337ZM1.69285 17.3779C1.73411 17.5478 2.04787 17.3263 2.04445 17.1849C1.84069 17.0999 1.88043 17.1783 1.87106 17.2707C1.86161 17.3629 1.66072 17.2453 1.69285 17.3779ZM1.82211 9.76081C1.81848 9.79733 1.98142 10.3883 2.05528 10.0505C2.0608 10.0247 2.03536 9.61201 2.00419 9.58042C1.94117 9.51685 1.8322 9.66669 1.82211 9.76081ZM1.39912 16.562C1.5752 16.6536 1.57189 16.7418 1.7806 16.6615C1.7806 16.6614 1.7806 16.6613 1.7806 16.6612C1.84187 16.8888 1.41655 16.8944 1.42513 16.9434C1.45525 17.1149 1.7596 16.9559 1.85785 17.0643C1.76706 16.8137 1.97036 16.8874 1.98531 16.6978C1.98856 16.6552 1.86849 16.4835 1.79282 16.4578C1.71711 16.4321 1.48849 16.5167 1.39912 16.562ZM1.78674 8.9281C1.71682 9.12625 2.0018 9.31133 2.05021 9.03598C2.07402 8.90167 1.82931 8.80713 1.78674 8.9281ZM1.50572 28.8059C1.58127 28.7763 1.6565 28.7459 1.73137 28.714C1.74879 28.7876 1.76658 28.8612 1.78435 28.9348C1.76117 28.8765 1.73834 28.8182 1.71551 28.7595C1.68782 28.897 1.55031 28.9585 1.50572 28.8062C1.50572 28.8061 1.50572 28.806 1.50572 28.8059ZM1.3968 33.7083C1.32372 33.7692 1.54674 33.8929 1.5644 33.8777C1.69601 33.7631 1.49814 33.6239 1.3968 33.7083ZM1.33767 19.1988C1.30388 19.4275 1.67024 19.2739 1.69671 19.1337C1.62606 19.2189 1.35688 19.069 1.33767 19.1988ZM1.43271 31.9842C1.46428 31.964 1.49586 31.9436 1.5275 31.9209C1.48314 31.9929 1.45368 32.0051 1.43271 31.9842ZM1.49906 9.8511C1.47071 9.88577 1.44487 10.1442 1.47912 10.1794C1.55114 10.2527 1.75462 10.0531 1.69394 9.93379C1.68743 9.92059 1.52742 9.8166 1.49905 9.85164C1.49905 9.85147 1.49906 9.85127 1.49906 9.8511ZM1.36276 29.1143C1.36625 29.1139 1.36958 29.1141 1.37264 29.1149C1.36939 29.1146 1.36602 29.1147 1.36276 29.1143ZM0.889635 38.8514C0.895307 38.8501 0.90093 38.8494 0.906318 38.8496C0.90102 38.8501 0.895441 38.8511 0.889635 38.8514ZM1.17024 11.6718C0.821853 11.7542 1.00459 11.9546 1.17805 11.7996C1.18717 11.7909 1.16934 11.6926 1.17024 11.6718Z" fill="#419DDF"/>
</svg>
