<svg width="365" height="27" viewBox="0 0 365 27" fill="none" xmlns="http://www.w3.org/2000/svg">
<path d="M225.002 0.524234C238.786 0.516534 253.878 0.470268 267.718 0.530459C269.417 0.537813 269.301 0.638561 269.778 0.651859C271.081 0.688552 271.866 0.569712 272.815 0.578433C277.433 0.620425 281.752 0.637521 286.282 0.675662C290.949 0.714857 288.741 1.02802 290.363 1.10431C293.53 1.25372 290.836 0.845352 292.081 0.753666C295.713 0.778161 299.377 0.8224 303.015 0.867191C302.127 0.90532 301.238 0.942639 300.34 0.977971C301.926 0.986374 304.196 1.04941 301.54 1.15613C302.127 1.18553 302.675 1.21991 303.278 1.2486C303.443 1.09989 306.251 1.08792 306.508 0.99976C306.764 0.911572 305.185 0.931836 305.195 0.924138C305.3 0.814297 311.775 0.964442 312.242 0.976689C313.476 1.00928 312.394 1.19364 313.444 1.18177C315.25 1.16147 314.047 0.786357 316.492 1.28504C317.465 1.12304 317.549 1.20717 318.781 1.21839C318.943 1.21979 318.817 1.12599 318.889 1.12354C320.753 1.05392 319.32 1.22835 319.33 1.2378C319.499 1.39831 321.5 1.32696 321.921 1.34235C327.21 1.53411 331.085 1.66394 336.665 1.70838C337.872 1.71783 341.546 1.6527 342.713 1.68C343.865 1.70694 343.247 1.82259 343.849 1.87812C344.815 1.5999 345.737 1.56922 347.905 1.75251C348.713 1.54956 348.609 1.71327 350.155 1.67268C351.443 1.63905 353.687 1.39559 355.104 1.6031C353.479 1.5842 353.647 1.6839 351.818 1.74409C351.209 1.76402 344.861 1.76828 345.333 1.97572C345.58 2.08384 347.684 1.98453 347.765 2.00446C348.239 2.12065 347.064 2.26343 346.023 2.21339C346.283 2.18994 346.595 2.16616 346.874 2.14271C344.536 1.99748 346.144 2.55527 344.367 2.06782C344.147 2.00803 344.232 1.94568 343.87 1.88215C343.796 1.90843 344.239 1.97357 343.857 1.98524C343.468 1.997 342.729 1.87331 342.619 1.97755C342.454 2.12913 344.067 2.06939 344.188 2.07826C344.189 2.07734 344.191 2.07642 344.192 2.07551C345.265 2.15599 343.024 2.16517 342.917 2.17951C342.224 2.27396 342.696 2.34668 341.656 2.42469C341.063 2.46914 339.551 2.44294 338.993 2.45729C338.439 2.47199 339.302 2.5437 338.929 2.55909C338.556 2.57449 338.091 2.52 337.654 2.53785C337.466 2.54572 337.476 2.62569 337.385 2.62849C336.413 2.65926 337.051 2.49291 336.169 2.50306C335.597 2.50981 333.679 2.66488 335.001 2.71107C334.366 2.72716 333.746 2.73894 333.114 2.75154C333.513 2.77533 333.925 2.79149 334.314 2.81947C333.124 2.78138 332.586 2.91824 331.841 2.92842C331.095 2.93857 330.426 2.77433 329.606 2.85444C327.855 3.02487 332.191 2.94613 332.729 2.97657C332.939 2.98854 332.133 3.11719 332.009 3.12086C331.458 3.13695 330.806 3.04496 330.381 3.04908C328.861 3.06448 327.929 3.1859 326.48 3.2104C321.545 3.29369 315.422 3.36123 310.746 3.38783C309.005 3.39763 307.957 3.26112 307.176 3.26497C305.347 3.27408 305.123 3.39304 303.528 3.39937C301.155 3.40917 297.811 3.30531 295.829 3.28291C294.458 3.26751 293.216 3.38264 292.859 3.38545C287.901 3.42674 281.869 3.42415 277.761 3.42555C275.829 3.42625 274.911 3.29687 274.512 3.30067C272.797 3.31677 273.257 3.42738 271.866 3.41621C271.115 3.41027 270.974 3.30409 270.874 3.29994C269.989 3.26494 269.812 3.40361 269.122 3.40816C265.15 3.43439 261.323 3.34364 257.39 3.33034C257.105 3.32929 257.13 3.26786 256.945 3.27101C256.152 3.28608 256.521 3.38282 255.691 3.38985C253.966 3.40489 252.195 3.38891 250.366 3.37666C250.185 3.37545 250.103 3.29649 249.689 3.29646C249.274 3.29646 248.959 3.37132 248.307 3.36714C246.605 3.35629 244.925 3.26675 243.122 3.26185C242.824 3.26115 242.454 3.35628 242.007 3.35524C240.602 3.35209 238.524 3.26574 237.321 3.26259C233.351 3.25279 229.69 3.30693 225.951 3.30763C225.072 3.30759 224.294 3.21946 223.837 3.21736C222.806 3.21284 223.584 3.29611 222.54 3.29646C214.012 3.29856 205.451 3.2607 196.822 3.26735C193.433 3.2698 189.308 3.35596 186.033 3.33217C184.672 3.32201 184.424 3.20687 183.461 3.20582C181.743 3.20446 181.432 3.35206 179.62 3.36677C178.173 3.37832 176.516 3.23097 175.011 3.24006C173.507 3.24916 172.812 3.39229 171.084 3.40944C169.661 3.42342 167.673 3.35847 166.123 3.36897C151.92 3.46556 137.934 3.52435 123.644 3.41237C118.601 3.37282 113.007 3.39338 107.796 3.2527C107.306 3.23938 108.055 3.10116 106.486 3.1302C105.643 3.14595 104.466 3.26505 102.517 3.27101C90.9307 3.306 78.5721 3.05124 66.7912 3.10164C49.1444 3.17758 30.8556 4.16117 15.5208 2.72187C14.7686 2.65119 15.1765 2.30483 15.6272 2.20643C16.0454 2.27676 16.432 2.36028 16.8697 2.43971C17.4208 2.00693 17.3236 2.11961 19.3664 2.15846C20.6241 2.18258 19.6195 1.99749 20.2899 1.94495C21.1589 1.87706 25.2393 1.66329 24.4545 1.9499C24.7075 1.90021 24.9409 1.8526 25.1874 1.80396C28.1414 1.76057 31.0114 1.68881 33.9006 1.60657C34.3997 1.5922 34.4227 1.50227 34.9382 1.48792C36.3227 1.44874 37.4219 1.50782 38.8486 1.49872C39.6237 1.49383 39.7312 1.3899 40.7461 1.39655C41.7605 1.40324 41.7383 1.54353 43.1222 1.39106C42.2208 1.21504 46.242 1.34276 47.6721 1.33191C47.8796 1.33052 49.5818 1.17238 50.4866 1.19056C51.3944 1.2084 52.7727 1.30942 54.1766 1.25208C54.8348 1.22514 55.2342 1.10198 55.9444 1.09498C56.4437 1.09008 57.0436 1.19954 57.6759 1.20411C58.3079 1.20865 59.6756 1.1188 59.9262 1.11731C60.8307 1.11137 59.8328 1.18833 60.4514 1.1922C63.4379 1.2097 66.9078 1.25095 69.8521 1.19916C70.2141 1.19288 69.7132 1.10221 69.7613 1.09919C72.2187 0.987931 70.907 1.10607 71.5706 1.18726C72.2134 1.26577 76.9172 1.22294 76.9518 1.06531C77.0963 1.2627 78.142 1.11194 78.4136 1.10615C79.4705 1.08377 79.2632 1.25455 80.2877 1.20173C80.6637 1.18249 79.9317 1.06706 80.3357 1.07044C81.3344 1.07884 82.2332 1.26428 83.5627 1.28284C83.8837 1.28739 83.988 1.20479 84.5587 1.20759C85.1301 1.21043 87.5252 1.31149 86.4199 1.13727C87.8725 1.27688 88.165 1.20026 89.8544 1.20411C90.2823 1.20528 90.8333 1.3384 91.7441 1.29712C92.0521 1.28312 92.0431 1.1548 92.5068 1.15375C93.567 1.15099 94.5658 1.28382 95.9114 1.28907C98.4277 1.29921 101.106 1.20584 103.73 1.23908C104.443 1.2482 104.265 1.37721 105.302 1.37971C105.454 1.37971 106.703 1.26814 107.42 1.27863C107.851 1.28493 110.086 1.36334 110.536 1.36963C111.282 1.37973 111.415 1.25496 111.823 1.27936C113.003 1.3497 112.056 1.53336 113.477 1.28211C113.944 1.42139 114.774 1.40746 115.04 1.57893C115.523 1.39102 116.149 1.57156 117.086 1.50861C118.023 1.44562 118.792 1.08168 119.019 1.47327C119.456 1.42568 121.322 1.34446 121.636 1.33851C122.563 1.32172 122.067 1.43004 122.767 1.41541C122.89 1.41296 122.761 1.33889 123.552 1.3462C124.071 1.3511 127.872 1.35564 128.099 1.36579C130.689 1.48175 126.688 1.43925 126.128 1.51942C126.029 1.49836 125.931 1.47723 125.825 1.45643C124.681 1.42145 125.332 1.58879 125.851 1.62763C126.37 1.66646 127.34 1.59192 127.771 1.64686C127.986 1.67444 127.853 1.87507 127.203 1.85084C127.898 1.91263 126.949 1.97788 127.224 2.03596C127.526 2.09962 130.65 2.11922 130.667 2.00868C130.083 2.00483 129.357 2.00864 128.767 2.0041C127.995 1.81197 130.339 1.15586 132.489 1.41797C134.049 1.60764 131.478 1.75845 135.168 1.59925C134.6 1.59155 134.12 1.57361 133.605 1.56556C133.55 1.42148 134.386 1.5799 134.817 1.53406C135.025 1.51165 133.748 1.40963 134.856 1.37568C135.81 1.58172 136.543 1.37446 138.142 1.37202C137.697 1.40876 137.253 1.44532 136.808 1.48206C139.509 1.63149 133.236 1.68078 138.488 1.76441C137.856 1.77105 137.227 1.76929 136.592 1.77943C136.9 1.85503 136.407 2.07696 136.683 2.12385C137.405 2.24693 138.475 2.17273 139.357 2.18354C139.743 2.18809 139.503 2.24801 139.536 2.24836C140.064 2.255 139.948 2.16717 140.411 2.16157C140.995 2.15458 142.68 2.23996 142.954 2.23023C143.66 2.20539 142.483 2.03206 142.551 2.01911C143.002 1.93516 143.923 2.00478 143.874 1.89497C141.659 1.97054 135.276 1.87352 141.051 1.6919C139.459 1.51448 139.918 1.26987 142.208 1.25062C144.101 1.23452 142.88 1.33253 143.865 1.44031C143.993 1.45381 146.529 1.50534 146.659 1.42914C146.557 1.60464 147.383 1.76005 146.829 1.94111C146.748 1.96771 145.707 1.95721 146.07 2.10279C146.252 2.17592 146.773 2.33508 146.689 2.42817C146.903 2.36344 147.127 2.29062 147.344 2.22309C148.904 2.2042 149.125 2.27393 149.978 2.39466C149.939 2.34427 149.151 2.13252 150.348 2.19691C150.409 2.20076 150.462 2.27676 151.07 2.31446C152.299 2.39004 152.555 2.41355 151.612 2.63673C154.157 2.50943 154.705 2.75817 157.315 2.68544C156.796 2.39853 155.879 2.46956 153.489 2.52485C153.385 2.45662 153.337 2.38907 153.23 2.32014C156.41 2.4748 154.839 2.45905 156.641 2.32051C157.082 2.28656 159.433 2.32288 158.648 2.12971C158.463 2.08426 157.002 2.08949 157.17 2.01783C157.202 2.00419 158.978 1.96947 159.135 1.98798C161.1 2.2165 157.588 2.37577 163 2.29249C163.149 2.29004 163.201 2.20652 163.493 2.19489C164.041 2.1732 164.048 2.26996 164.537 2.24763C165.026 2.22523 165.705 2.09509 166.441 2.2154C167.787 2.43447 164.612 2.56047 163.198 2.44428C162.624 2.73055 172.725 2.73685 173.351 2.71235C176.084 2.60564 171.536 2.66724 171.302 2.58784C171.205 2.55425 171.253 2.12842 170.102 2.40473C169.762 2.48662 171.185 2.59451 170.336 2.63966C169.486 2.6848 169.823 2.55942 169.761 2.55067C169.55 2.52068 168.646 2.56717 168.529 2.54939C166.726 2.27957 166.891 1.87186 169.281 2.47413C170.322 2.338 167.933 2.12102 169.227 2.02863C170.799 1.91634 171.947 2.11052 172.145 2.11927C174.515 2.22281 171.782 1.93935 174.677 2.02992C176.288 2.08031 172.265 2.21857 175.945 2.20002C179.026 2.18427 177.362 2.08559 177.586 1.86127C177.639 1.80879 179.327 1.74443 177.028 1.76752C176.963 1.82596 176.841 1.90297 176.695 1.95686C176.131 1.91419 175.191 1.62174 174.892 1.61152C173.43 1.56288 173.5 1.71467 172.638 1.5359C173.254 1.73147 172.251 1.61362 171.875 1.65491C170.479 1.8071 172.31 1.86368 169.175 1.6681C169.584 1.75979 169.953 1.84977 170.349 1.94111C169.973 1.94426 169.596 1.94748 169.22 1.95063C168.659 1.74871 166.661 1.77454 168.471 1.57123C166.295 1.5135 165.416 1.55752 164.939 1.71461C164.848 1.7446 164.521 1.75658 164.137 1.75947C164.21 1.80364 164.303 1.94012 164.242 1.95686C163.701 2.10406 162.862 1.84976 163.148 1.75269C162.879 1.74805 162.666 1.7426 162.591 1.74024C162.115 1.72517 163.049 1.6374 162.663 1.60731C162.536 1.59753 161.194 1.61662 161.169 1.58094C161.007 1.35218 163.214 1.51722 158.782 1.38428C158.675 1.59251 160.733 1.54672 160.205 1.76789C159.637 2.00549 158.48 1.68677 158.227 1.97828C158.133 1.93035 158.091 1.89039 158.01 1.83582C156.217 1.96283 156.194 1.72005 155.646 1.66645C154.582 1.56181 149.692 1.57753 154.083 1.78785C153.441 1.80885 152.785 1.81856 152.147 1.8371C152.001 1.40186 152.39 1.5751 149.313 1.50861C148.635 1.49392 148.414 1.30249 147.75 1.52985C147.84 1.30683 145.836 1.44156 145.649 1.4145C144.449 1.23848 148.904 0.99347 149.475 1.38776C150.227 1.23425 150.224 1.43718 151.064 1.41028C152.276 1.37144 152.445 1.33192 153.885 1.4817C155.302 1.27067 148.337 1.38885 152.559 1.10889C156.782 0.828952 181.373 0.672797 187.11 0.630801C197.503 0.554862 202.967 0.505228 212.303 0.517825C213.224 0.518875 220.175 0.498641 218.731 0.742496C218.523 0.777491 215.533 0.870233 218.098 1.06165C217.576 0.948631 219.084 0.875244 219.211 0.863346C222.113 0.593191 220.433 0.527033 225.002 0.524234ZM238.546 2.69917C232.583 2.64353 236.964 2.80655 235.725 3.1747C236.491 3.17575 237.253 3.17676 238.018 3.17781C237.817 3.15471 237.619 3.13169 237.418 3.10859C237.417 3.10859 237.416 3.10859 237.415 3.10859C237.791 2.97213 238.17 2.83563 238.546 2.69917ZM336.027 2.94563C335.795 2.9941 335.565 3.04267 335.313 3.0901C334.525 3.07505 333.74 3.06028 332.952 3.04524C333.046 3.01235 333.137 2.97907 333.231 2.94618C334.163 2.94758 335.092 2.9491 336.027 2.94563ZM162.364 2.49757C161.249 2.36286 161.35 2.60326 159.868 2.49372C160.049 2.67113 160.251 2.84468 160.442 3.02034C161.57 2.99409 161.827 2.92662 163.052 2.96998C162.909 2.91296 162.763 2.8556 162.624 2.79823C162.42 2.81046 162.203 2.82438 162.005 2.83522C161.691 2.67566 163.649 2.65185 162.368 2.4972C162.367 2.49732 162.366 2.49745 162.364 2.49757ZM150.934 2.56898C150.334 2.54588 147.957 2.45905 147.633 2.53254C146.534 2.78171 153.239 2.62358 148.297 2.8451C148.32 2.88006 148.297 2.91432 148.297 2.94893C149.199 2.96117 150.097 2.97172 151.005 2.98152C150.957 2.84366 150.989 2.70754 150.934 2.56898ZM216.978 2.71455C216.056 2.69535 211.661 2.81255 213.094 2.97035C213.515 3.01654 215.478 2.79081 216.224 2.80061C216.707 2.80693 216.165 2.93069 217.118 2.8852C217.076 2.83065 217.05 2.77017 216.976 2.71492C216.977 2.71479 216.978 2.71467 216.978 2.71455ZM218.707 1.99439C217.754 2.01644 216.788 2.04437 215.828 2.06782C216.528 2.20882 217.906 2.11825 217.987 2.31666C217.725 2.3317 217.465 2.34666 217.203 2.3617C217.002 2.31832 216.804 2.2749 216.606 2.23152C215.783 2.3393 216.281 2.39285 214.748 2.3617C215.675 2.66161 215.847 2.82258 218.474 2.51918C217.978 2.6819 218.445 3.2121 219.901 2.8332C220.173 2.76286 219.035 2.71586 219.022 2.70466C218.848 2.56543 219.479 2.47657 219.291 2.34504C219.207 2.28555 218.513 2.28646 218.409 2.20387C218.361 2.16358 219.021 2.04863 218.707 1.99439ZM220.607 2.70045C220.312 2.78478 221.321 2.98492 222.196 2.94435C223.561 2.88136 221.408 2.691 220.607 2.70045ZM336.032 2.94545C336.031 2.94551 336.029 2.94557 336.027 2.94563C336.028 2.94545 336.029 2.94526 336.03 2.94508C336.031 2.9452 336.032 2.94532 336.032 2.94545ZM154.027 2.66658C153.321 2.73827 152.274 2.72782 152.352 2.84181C152.008 2.81941 151.66 2.79737 151.317 2.77497C151.32 2.80925 151.326 2.84359 151.33 2.87751C152.364 2.89886 153.395 2.92027 154.429 2.94197C154.3 2.85029 154.18 2.75826 154.027 2.66658ZM142.759 2.58674C141.459 2.57521 142.549 2.7303 142.263 2.80519C141.978 2.88008 140.82 2.81915 140.956 2.92659C141.721 2.93079 142.52 2.93501 143.295 2.93885C143.09 2.82197 142.948 2.70293 142.756 2.58674C142.757 2.58674 142.758 2.58674 142.759 2.58674ZM262.883 2.8213C262.001 2.7877 262.361 2.66936 260.62 2.80793C260.621 2.80793 260.622 2.80793 260.624 2.80793C262.281 2.90485 264.414 2.99123 266.242 2.89747C265.124 2.77262 264.271 2.87379 262.883 2.8213ZM165.449 2.84675C165.821 2.75298 164.087 2.67466 163.704 2.76179C163.085 2.90281 164.881 2.98918 165.449 2.84675ZM298.505 1.99073C299.847 1.70204 297.305 1.378 294.643 1.51795C294.412 1.5302 296.131 1.62201 295.622 1.67835C295.57 1.6839 294.627 1.67702 294.394 1.71717C294.16 1.75741 294.405 1.85083 294.023 1.89002C293.351 1.95852 291.834 1.8316 291.331 1.92152C291.265 1.93357 292.206 2.0585 292.265 2.06324C293.231 2.13882 294.163 1.97552 294.312 1.97443C295.08 1.96884 294.964 2.09687 295.159 2.12696C295.525 2.18356 296.171 2.12698 296.216 2.13117C297.382 2.24346 294.717 2.21133 294.357 2.25752C293.388 2.38209 294.285 2.49791 291.96 2.56825C291.74 2.57487 289.097 2.56735 292.427 2.7107C285.888 3.00953 295.713 2.88068 296.78 2.81489C297.272 2.78439 296.527 2.66235 296.826 2.60743C297.506 2.48182 298.667 2.45967 298.563 2.2826C298.34 1.91034 296.815 2.15426 295.765 2.09162C295.875 2.01078 295.917 1.93194 296.121 1.85285C295.807 1.95924 298.408 2.01246 298.505 1.99146C298.505 1.99122 298.505 1.99098 298.505 1.99073ZM281.95 2.41609C280.481 2.30375 280.585 2.53875 279.24 2.40437C278.053 2.61538 280.394 2.60121 280.666 2.61311C281.911 2.66629 281.883 2.89574 283.156 2.82515C282.719 2.68938 282.362 2.5522 281.95 2.41609ZM294.727 2.51295C293.744 2.63193 295.503 2.62991 295.574 2.65266C296.35 2.894 291.086 2.8471 294.727 2.51295ZM211.256 2.24177C210.757 2.23372 211.074 2.34764 210.633 2.3813C210.193 2.41523 208.685 2.31774 208.723 2.38862C208.762 2.45966 211.524 2.64389 208.752 2.68379C208.845 2.72366 208.814 2.75341 208.859 2.78944C209.621 2.79049 210.39 2.79224 211.152 2.79329C210.734 2.67851 210.305 2.55777 209.903 2.44685C210.331 2.35551 210.572 2.47267 210.595 2.47267C210.595 2.47254 210.595 2.47242 210.595 2.4723C211.392 2.46311 212.377 2.25967 211.256 2.24177ZM250.554 2.59938C250.703 2.31416 249.526 2.6327 249.043 2.66804C248.56 2.70326 247.896 2.59768 248.145 2.72041C248.927 2.80509 250.538 2.6312 250.554 2.59901C250.554 2.59913 250.554 2.59925 250.554 2.59938ZM273.97 2.41664C272.738 2.48587 272.934 2.56001 271.428 2.47541C271.486 2.54435 271.544 2.6148 271.603 2.68269C272.799 2.68409 272.715 2.48396 274.099 2.5644C274.326 2.5777 273.841 2.73755 274.865 2.68617C274.567 2.60085 274.265 2.50616 273.97 2.41664ZM267.867 2.67225C269.281 2.66173 270.403 2.10387 267.799 2.35548C267.413 2.39309 266.804 2.6803 267.867 2.67225ZM224.297 2.22767C221.892 2.21159 224.625 2.30161 225.251 2.38734C219.652 2.45591 225.883 2.36388 226.441 2.649C227.125 2.56781 228.406 2.38213 226.983 2.33241C226.39 2.31176 226.607 2.39666 226.571 2.39631C225.478 2.37531 225.611 2.23642 224.297 2.22767ZM284.503 2.40235C284.412 2.40655 284.554 2.50286 284.265 2.5221C283.976 2.54121 283.322 2.47381 283.258 2.53291C283.193 2.59237 284.505 2.63849 284.907 2.59516C285.309 2.55142 285.323 2.36527 284.503 2.40235ZM275.273 2.16505C274.072 2.23435 276.037 2.58913 276.298 2.58747C278.594 2.56893 275.205 2.27738 275.273 2.16505ZM229.882 1.62507C226.983 1.80529 229.104 2.11846 230.92 2.30604C231.16 2.26792 231.406 2.22974 231.642 2.19196C230.553 2.42363 228.643 2.65262 232.891 2.45069C230.566 2.39617 232.513 2.33394 232.528 2.32087C232.784 1.89533 229.34 2.09295 229.885 1.62507C229.884 1.62507 229.883 1.62507 229.882 1.62507ZM288.411 2.50379C289.672 2.50238 292.953 2.42887 291.422 2.24342C290.417 2.33019 289.416 2.41702 288.411 2.50379ZM182.421 1.64997C181.39 1.54393 180.439 1.54574 179.168 1.55274C180.313 1.70706 179.561 1.72479 179.175 1.76258C178.589 1.81947 180.007 1.81481 180.011 1.8252C179.985 1.97182 179.081 1.99459 181.14 1.9911C180.631 2.04217 180.129 2.09363 179.62 2.14436C181.189 2.15102 181.558 2.24667 182.553 2.36354C181.587 2.07799 182.859 2.25677 184.014 2.11469C184.59 2.04356 182.946 1.7042 182.417 1.64997C182.419 1.64997 182.42 1.64997 182.421 1.64997ZM226.886 1.56776C226.588 1.61919 226.315 1.68878 226.026 1.74757C225.712 1.75317 225.397 1.75808 225.082 1.76368C225.043 1.7182 225.011 1.67063 224.965 1.6269C224.551 1.61366 224.712 1.67698 224.589 1.68293C224.589 1.68269 224.589 1.68244 224.589 1.6822C222.823 1.76614 222.099 1.7567 220.715 1.6161C220.715 1.75544 220.715 1.89478 220.715 2.03413C221.026 2.02084 221.34 2.00788 221.651 1.99494C221.817 1.92007 221.983 1.84515 222.148 1.77027C222.508 1.81157 222.865 1.85257 223.225 1.89387C223.513 1.86694 223.86 1.83861 224.109 1.81239C225.546 2.20186 222.281 1.93727 222.252 2.09895C222.233 2.20288 225.52 2.19833 225.994 2.1266C226.062 2.1161 225.351 1.82608 226.554 1.97718C226.742 2.00098 226.808 2.62842 228.105 2.12037C228.29 2.0483 227.645 1.65851 226.886 1.56776ZM214.949 1.36542C216.797 1.76681 209.975 1.34238 212.919 1.67268C212.079 1.85707 212.235 1.85467 213.081 2.01838C213.155 2.03305 212.571 2.08372 212.62 2.09016C213.412 2.18045 214.365 2.13257 214.371 2.2967C214.585 2.28796 214.787 2.28018 215 2.27143C214.109 2.11678 215.526 2.01285 216.074 1.88233C216.324 1.82322 215.75 1.80498 215.96 1.75324C216.038 1.73435 216.839 1.77206 216.872 1.7179C216.94 1.59542 216.437 1.42989 215.584 1.33961C215.584 1.33948 215.584 1.33936 215.584 1.33924C215.37 1.34728 215.162 1.35703 214.949 1.36542ZM254.453 1.69886C254.767 1.92073 256.028 1.98424 253.606 2.09272C253.726 2.13642 253.849 2.17976 253.969 2.22346C254.377 2.21961 254.773 2.21579 255.188 2.21229C256.433 1.55865 258.706 2.29629 257.25 1.83271C257.091 1.78232 256.122 1.83862 257.079 1.70179C257.078 1.70167 257.076 1.70155 257.075 1.70142C255.739 1.74342 255.571 1.82203 254.453 1.69886ZM245.512 1.85358C242.432 2.32042 249.769 2.11406 248.543 1.99018C248.433 1.97898 245.272 2.0793 245.512 1.85358ZM270.232 1.44727C268.851 1.43923 268.759 1.6911 268.899 1.78181C269.038 1.87278 269.994 1.78085 270.118 1.79517C270.52 1.84242 269.667 1.87362 270.189 1.93836C270.362 1.95939 272.767 2.04918 272.878 2.03834C273.49 1.97809 272.595 1.77026 272.77 1.74647C273.341 1.66847 274.116 1.77659 274.281 1.66608C274.638 1.4303 273.193 1.67781 272.949 1.68183C272.213 1.69303 272.277 1.56029 271.726 1.5337C271.175 1.50715 270.815 1.55262 270.329 1.54322C270.167 1.54008 270.302 1.44811 270.232 1.44727ZM265.665 1.9792C267.108 1.78852 263.595 1.58116 263.179 1.6258C261.953 1.75843 264.974 2.07018 265.665 1.9792ZM219.576 1.97114C220.896 1.83292 217.822 1.72104 216.943 1.77668C217.106 1.83412 219.122 2.01872 219.576 1.97114ZM230.686 1.6258C229.474 1.66884 231.082 1.98025 232.094 1.97535C232.687 1.7707 232.129 1.81126 231.467 1.80286C230.806 1.79439 231.633 1.59227 230.686 1.6258ZM285.212 1.67487C284.95 1.67162 280.733 1.84078 283.156 1.91108C283.341 1.91633 286.293 1.88654 286.517 1.85505C286.967 1.79135 285.887 1.68397 285.212 1.67487ZM236.503 1.32349C235.861 1.50052 235.23 1.49815 235.82 1.706C235.821 1.706 235.822 1.706 235.822 1.706C234.198 1.76966 234.126 1.34442 233.776 1.35352C232.551 1.38544 233.711 1.6881 232.943 1.78748C234.73 1.69406 234.217 1.89813 235.576 1.91108C235.881 1.91388 237.101 1.79201 237.279 1.71607C237.457 1.6401 236.834 1.41238 236.503 1.32349ZM291.169 1.63074C289.746 1.56291 288.443 1.84983 290.417 1.89533C291.38 1.91773 292.038 1.67204 291.169 1.63074ZM148.881 1.55897C149.098 1.6342 149.322 1.70911 149.555 1.78364C149.03 1.80183 148.504 1.8204 147.979 1.83894C148.394 1.81514 148.81 1.7917 149.228 1.76826C148.243 1.74201 147.792 1.60516 148.878 1.55897C148.879 1.55897 148.88 1.55897 148.881 1.55897ZM113.785 1.50165C113.344 1.42921 112.475 1.65353 112.586 1.67103C113.415 1.80142 114.397 1.60209 113.785 1.50165ZM217.627 1.2898C215.987 1.25842 217.115 1.62314 218.12 1.64814C217.505 1.57839 218.557 1.30764 217.627 1.2898ZM126.128 1.51942C126.275 1.55077 126.423 1.58213 126.588 1.61353C126.069 1.56993 125.979 1.54061 126.128 1.51942ZM284.542 1.35279C284.291 1.3248 282.44 1.30169 282.19 1.33631C281.671 1.4091 283.115 1.61046 283.964 1.54853C284.059 1.54188 284.791 1.38079 284.538 1.35279C284.539 1.35279 284.54 1.35279 284.542 1.35279ZM146.663 1.41926C146.666 1.42275 146.664 1.42608 146.659 1.42914C146.661 1.42589 146.66 1.42252 146.663 1.41926ZM76.9376 1.04865C76.9477 1.05431 76.953 1.05992 76.9518 1.06531C76.948 1.06002 76.9401 1.05445 76.9376 1.04865ZM271.486 1.04316C270.87 0.695654 269.45 0.880485 270.572 1.05231C270.634 1.06134 271.337 1.04247 271.486 1.04316ZM8.29357 2.18529C8.32012 2.17131 8.34645 2.15678 8.37356 2.14116C9.11692 1.74722 9.61722 1.68258 10.0924 1.55944C10.3633 1.49574 10.7078 1.37249 11.1242 1.23547C11.9106 1.00821 12.3341 1.01518 12.7912 0.956952C12.9779 0.936971 13.1828 0.918652 13.3822 0.908598C13.5955 0.898329 13.5855 1.00134 13.6453 1.01035C13.8044 1.03672 13.8903 0.913568 14.0024 0.917014C14.5429 0.935062 15.0199 0.943497 15.5251 0.972082C15.8833 0.992825 15.8785 1.15038 15.9025 1.27C15.9117 1.32397 15.9265 1.37038 15.979 1.39299C16.3175 1.53383 16.0214 1.13306 16.1503 1.03778C16.537 1.05047 16.9462 1.07787 17.35 1.10886C17.2531 1.15038 17.1562 1.19119 17.0582 1.23011C17.2338 1.23211 17.4867 1.28636 17.1971 1.40337C17.2629 1.43044 17.3244 1.46267 17.3926 1.48902C17.405 1.3397 17.7163 1.31736 17.7417 1.22844C17.7673 1.13938 17.5927 1.16528 17.5937 1.15758C17.6014 1.04688 18.3255 1.17548 18.3779 1.18703C18.3826 1.18801 18.387 1.18916 18.3911 1.19048L18.2143 1.21053C18.3425 1.22653 18.2638 1.41741 18.3773 1.38328C18.5774 1.32437 18.375 0.979733 18.7425 1.42085C18.8267 1.24219 18.8512 1.32315 18.995 1.31222C19.0139 1.31074 18.9853 1.22023 18.9932 1.21655C19.2002 1.11563 19.0585 1.31275 19.0612 1.3219C19.1041 1.4773 19.3233 1.37523 19.3701 1.38508C19.4377 1.39896 19.5122 1.41057 19.5315 1.42738C19.54 1.42493 19.5663 1.42197 19.5749 1.42015C20.2108 1.55758 20.5082 1.67306 21.0745 1.70912C21.2071 1.71836 21.6118 1.6529 21.7404 1.68015C21.8666 1.70703 21.7991 1.82272 21.8656 1.87822C21.9709 1.59996 22.0739 1.56923 22.3122 1.75251C22.4 1.54956 22.3892 1.71326 22.56 1.67269C22.6872 1.64239 22.9026 1.44172 23.055 1.55433C23.072 1.56667 23.0883 1.58277 23.1037 1.60327C23.0856 1.60135 23.0695 1.60065 23.055 1.60099C22.9301 1.60409 22.9233 1.69009 22.7434 1.74413C22.6741 1.76401 21.9768 1.7683 22.0291 1.97576C22.0554 2.08388 22.2876 1.98453 22.2969 2.00447C22.3489 2.12065 22.2198 2.26343 22.1047 2.21341C22.1337 2.18996 22.1682 2.16617 22.1985 2.14272C21.9407 1.99754 22.1188 2.55528 21.9225 2.0679C21.8985 2.00811 21.9078 1.94577 21.8679 1.88225C21.8597 1.90853 21.9086 1.97365 21.8665 1.98534C21.8231 1.99711 21.7424 1.87347 21.7301 1.97771C21.712 2.12929 21.8896 2.06948 21.9029 2.07834C21.9031 2.07742 21.9032 2.07651 21.9034 2.07559C22.0213 2.15603 21.7743 2.1653 21.763 2.17966C21.687 2.27414 21.7386 2.34683 21.6244 2.42491C21.5591 2.46939 21.3928 2.44332 21.3314 2.45774C21.2704 2.4725 21.3654 2.54411 21.3243 2.55955C21.2833 2.57498 21.2325 2.52055 21.1841 2.53846C21.1634 2.54635 21.1646 2.62632 21.1546 2.62913C21.0478 2.66003 21.118 2.4936 21.0206 2.50387C20.9582 2.5107 20.7469 2.66613 20.8926 2.71208C20.8227 2.72828 20.7544 2.74019 20.6853 2.75293C20.7285 2.77662 20.7753 2.7927 20.8173 2.8206C20.6861 2.78275 20.6273 2.91974 20.5458 2.93012C20.4637 2.94048 20.3902 2.77645 20.3003 2.85686C20.1103 3.02792 20.5837 2.94763 20.6437 2.97805C20.6671 2.98997 20.5778 3.11881 20.5646 3.12252C20.506 3.13875 20.4315 3.04696 20.3865 3.05123C20.2207 3.06715 20.1172 3.18894 19.9617 3.21438C19.9118 3.22218 19.863 3.22989 19.817 3.23756C19.7905 3.24143 19.7703 3.24523 19.7459 3.24913C19.7337 3.25108 19.7265 3.25296 19.7167 3.25493C19.7124 3.2559 19.7098 3.25685 19.7104 3.2577C19.7181 3.2572 19.686 3.26412 19.8107 3.2517L19.9025 3.23641C19.6646 3.29367 19.6183 3.30514 19.5117 3.33331C19.4168 3.35838 19.3252 3.38334 19.233 3.40876C19.0486 3.45954 18.8642 3.51165 18.6912 3.5596C18.6427 3.56545 18.5011 3.58934 18.4523 3.58668C18.3919 3.59217 18.3341 3.59717 18.2776 3.60168C18.0893 3.61666 17.9712 3.48375 17.8862 3.49022C17.6878 3.50559 17.6671 3.62535 17.4939 3.63757C17.2364 3.65615 16.8663 3.56616 16.6458 3.55174C16.4937 3.54188 16.3573 3.66162 16.3168 3.66569C16.1996 3.67802 16.0753 3.68839 15.9411 3.69581C15.4854 3.72281 14.9989 3.73091 14.6533 3.74221C14.4461 3.74898 14.3475 3.62351 14.3044 3.62892C14.1258 3.65226 14.1789 3.76071 14.0366 3.75648C13.9595 3.75454 13.9405 3.64942 13.9297 3.64586C13.8389 3.61617 13.83 3.75579 13.7639 3.76503C13.5612 3.79341 13.3763 3.79457 13.1595 3.79984C12.9478 3.8068 12.7451 3.80716 12.5573 3.826C12.5284 3.82882 12.5229 3.76759 12.5048 3.77325C12.4286 3.79909 12.4777 3.88976 12.4004 3.90819C12.2444 3.94616 12.0874 3.9607 12.0196 3.96922C12.0156 3.9696 12.0036 3.93886 11.9924 3.91788C11.9804 3.9081 11.967 3.90184 11.9524 3.90659C11.9114 3.91995 11.9036 4.00128 11.8354 4.01941C11.6564 4.06704 11.4424 4.04447 11.2264 4.10438C11.1907 4.11437 11.1728 4.2189 11.1165 4.23385C11.0048 4.26367 10.8441 4.26946 10.6955 4.27513C10.6294 4.27423 10.5697 4.27511 10.5251 4.28409C10.1431 4.35765 9.81557 4.51264 9.73924 4.56719C9.7237 4.57609 9.70818 4.58482 9.69269 4.59336C9.58013 4.65533 9.43765 4.62723 9.37742 4.65339C9.23971 4.71225 9.37762 4.74136 9.23723 4.80352C8.85468 4.96974 8.48459 5.06183 8.29629 5.12863C7.75991 5.31851 7.18099 5.54834 6.71962 5.80233C6.58229 5.8757 6.41616 6.01869 6.43877 6.03095C6.33526 6.14474 6.2404 6.25292 6.144 6.33799C6.05575 6.41612 5.95632 6.35518 5.89804 6.41945C5.79481 6.53669 5.89146 6.65163 5.79734 6.7941C5.7221 6.9085 5.50271 6.95582 5.41271 7.09272C5.41014 7.09664 5.40769 7.10057 5.40536 7.10452C5.361 7.17716 5.37141 7.23043 5.31584 7.36098C5.29698 7.39825 5.27628 7.44151 5.20234 7.52764C5.14071 7.60907 4.92801 7.77329 4.82356 7.82597C4.6624 7.9175 4.80553 7.86391 4.7917 7.87373C4.81215 7.87438 4.60309 7.93959 4.49859 8.03605C4.4838 8.04935 4.46831 8.06329 4.45208 8.07787C4.42979 8.09769 4.4073 8.11762 4.39232 8.13181C4.37971 8.14108 4.36322 8.17077 4.48608 8.04758C4.57002 7.95345 4.47403 8.06968 4.45582 8.09271C4.42423 8.13141 4.39763 8.16298 4.37223 8.19284C4.27166 8.3105 4.19007 8.40164 4.10299 8.49756C4.0782 8.5885 4.25337 8.23133 3.92041 9.12716C3.79622 9.39538 3.68939 9.57212 3.61283 9.71395C3.53701 9.84063 3.49281 9.984 3.53829 9.83101C3.4293 10.2926 3.31909 10.7785 3.15059 11.339C3.16422 11.2713 3.16094 11.2587 3.15933 11.2544C3.13476 11.2872 3.1329 11.5841 3.13119 11.8318C3.12453 12.1137 3.13452 12.3193 3.05251 12.8155C3.03927 12.8515 3.02562 12.8867 3.01135 12.9218C2.99607 12.9606 2.86019 12.8908 2.88413 13.0234C2.89779 13.0972 3.01549 13.1896 3.02723 13.3905C3.04184 13.6378 3.04613 13.9315 3.03368 14.216C2.96071 15.3671 2.7325 16.3741 2.70608 17.4245C2.64771 19.3708 3.48186 21.4976 1.82455 23.0726C1.74283 23.1453 1.40645 23.051 1.31574 22.9894C1.39171 22.9539 1.48038 22.9218 1.56585 22.8812C1.14465 22.7635 1.25513 22.7937 1.32147 22.5707C1.36166 22.4375 1.1649 22.5247 1.12135 22.4455C1.06623 22.3386 0.901044 21.8756 1.17682 21.9907C1.1303 21.958 1.08563 21.9276 1.04007 21.8955C1.03037 21.5696 0.989133 21.2462 0.935737 20.925C0.926423 20.8685 0.837071 20.858 0.827775 20.8011C0.802141 20.648 0.871691 20.531 0.875875 20.3757C0.878213 20.2907 0.775767 20.2691 0.791671 20.1594C0.807556 20.0497 0.94719 20.0638 0.807713 19.8995C0.624303 19.9833 0.78736 19.555 0.788619 19.3979C0.789014 19.3753 0.645913 19.1765 0.671549 19.0795C0.696938 18.9818 0.809108 18.8387 0.763325 18.6809C0.741795 18.6069 0.622194 18.5543 0.620879 18.4763C0.619995 18.4213 0.733957 18.3636 0.743494 18.2948C0.75303 18.2261 0.67404 18.0705 0.674509 18.0427C0.675579 17.9432 0.744629 18.0579 0.753278 17.9905C0.793771 17.6656 0.860657 17.2888 0.829907 16.9628C0.826207 16.9229 0.732173 16.9717 0.729497 16.9663C0.635732 16.6922 0.744385 16.8425 0.8301 16.7748C0.913248 16.708 0.902254 16.1918 0.744875 16.1797C0.942905 16.1752 0.799297 16.0508 0.795219 16.0214C0.779594 15.906 0.948746 15.9389 0.902566 15.8223C0.885733 15.7799 0.765867 15.8537 0.771798 15.8095C0.786403 15.7015 0.977134 15.6133 1.00353 15.4695C1.00998 15.4345 0.927925 15.4223 0.934177 15.3575C0.940573 15.2928 1.05451 15.0399 0.874394 15.1525C1.02196 14.9964 0.946851 14.9654 0.958898 14.782C0.961841 14.7415 1.09792 14.6766 1.06013 14.5837C1.04733 14.5512 0.919205 14.5444 0.919862 14.4951C0.92045 14.4071 1.01965 14.3078 1.0516 14.216C1.05712 14.1961 1.06067 14.1759 1.06137 14.1552C1.07128 13.8874 0.966509 13.6175 0.992748 13.3066C1.00061 13.2214 1.12931 13.2417 1.13191 13.1165C1.13166 13.0991 1.02233 12.9412 1.03825 12.8493C1.04312 12.8196 1.07368 12.7233 1.10503 12.6352C1.12654 12.6136 1.14556 12.5563 1.14845 12.5395C1.15883 12.4714 1.03343 12.4579 1.05714 12.4185C1.12435 12.298 1.31094 12.3883 1.05461 12.2487C1.19195 12.1943 1.1741 12.1043 1.34411 12.0679C1.15408 12.0233 1.33126 11.9467 1.26397 11.8448C1.19664 11.7435 0.830004 11.6656 1.22068 11.6272C1.17096 11.5802 1.08666 11.3582 1.08235 11.315C1.06805 11.1941 1.17445 11.2629 1.16386 11.1686C1.16287 11.1506 1.08543 11.1697 1.1035 11.048C1.10838 11.0225 1.11124 10.9665 1.14179 10.8421C1.17621 10.7189 1.22781 10.5032 1.2386 10.4883C1.412 10.2379 1.27773 10.6545 1.34219 10.7291C1.31933 10.7346 1.29643 10.7399 1.2736 10.7462C1.21239 10.8543 1.39054 10.8279 1.44104 10.7821C1.49153 10.7363 1.44165 10.6177 1.50541 10.5836C1.53736 10.5668 1.7303 10.6238 1.69115 10.6882C1.76794 10.6275 1.80913 10.7429 1.87233 10.7263C1.94202 10.7079 2.03434 10.375 1.92647 10.3501C1.90919 10.4121 1.89603 10.491 1.87774 10.5535C1.67215 10.5947 1.08535 10.2061 1.39105 10.03C1.61266 9.90166 1.70022 10.2111 1.63053 9.77909C1.60968 9.83892 1.581 9.88688 1.56117 9.94079C1.41902 9.91646 1.59333 9.85945 1.5586 9.80326C1.54156 9.77599 1.41197 9.8927 1.40471 9.76554C1.62867 9.70528 1.4426 9.58359 1.48061 9.40472C1.50507 9.4627 1.52988 9.51934 1.55504 9.57577C1.76638 9.31422 1.66241 10.0067 1.87185 9.4542C1.86243 9.52452 1.84539 9.59282 1.84019 9.66351C1.92137 9.64646 2.12636 9.74745 2.1787 9.72787C2.27709 9.69156 2.28084 9.61395 2.28703 9.54067C2.28791 9.5184 2.29098 9.4946 2.30118 9.47386C2.31706 9.44183 2.36631 9.48283 2.36763 9.48C2.38986 9.43894 2.30456 9.41621 2.31731 9.37156C2.33262 9.31411 2.49 9.19845 2.49616 9.16888C2.51106 9.0908 2.29829 9.11715 2.29021 9.10544C2.23994 9.0215 2.35117 8.96668 2.25303 8.9172C2.2242 9.04294 2.1058 9.24776 2.02702 9.36799C1.95592 9.49373 1.85332 9.49163 1.91994 9.111C1.67494 9.23082 1.46402 9.0734 1.59337 8.77882C1.69409 8.56006 1.7063 8.74234 1.85747 8.69306C1.87818 8.68353 2.06038 8.47084 1.99756 8.42535C2.14543 8.52071 2.32377 8.51909 2.45381 8.65828C2.47309 8.67883 2.40763 8.77321 2.5539 8.81033C2.6273 8.8293 2.79528 8.85497 2.87205 8.9084C2.82768 8.855 2.77646 8.79698 2.72892 8.74285C2.75821 8.67142 2.78755 8.63033 2.82404 8.60342C2.87554 8.5612 2.93834 8.54591 3.02584 8.50777C2.9756 8.49803 2.74571 8.51273 2.8543 8.39902C2.86008 8.3936 2.93499 8.41076 2.99224 8.35461C3.1055 8.24478 3.13358 8.23469 3.31801 8.39234C3.27646 8.10759 3.5042 8.20931 3.52038 8.05934C3.27603 7.90989 3.27886 8.0079 3.26628 8.19401C3.1995 8.17768 3.13473 8.15806 3.06653 8.14389C3.31747 7.94616 3.23701 8.08846 3.1982 7.882C3.18606 7.83036 3.35553 7.69887 3.16751 7.61828C3.11997 7.59912 3.02823 7.71941 2.98236 7.66391C2.97243 7.65344 3.05254 7.51202 3.09215 7.48672C3.09645 7.48363 3.09999 7.48197 3.10258 7.48202C3.4189 7.48449 3.25397 7.89168 3.62474 7.3771C3.63547 7.36109 3.57692 7.30142 3.59044 7.26703C3.61626 7.20325 3.65027 7.30802 3.67699 7.25561C3.68981 7.22971 3.69119 7.17279 3.71053 7.13425C3.72808 7.10083 3.75609 7.0824 3.81874 7.10356C3.96132 7.15278 3.95769 7.27441 3.89539 7.36948C3.87199 7.40506 3.8336 7.44187 3.81281 7.45374C3.79822 7.46464 3.83055 7.42652 3.81852 7.42819C3.80567 7.43266 3.7783 7.45069 3.75642 7.45701C3.7815 7.50174 3.84182 7.49359 3.89012 7.48737C3.85448 7.57067 3.92688 7.53879 4.00376 7.50738C4.14687 7.44779 4.31535 7.34619 4.41744 7.29165C4.44188 7.27856 4.4604 7.26956 4.46755 7.26657C4.4835 7.25659 4.43637 7.2909 4.61463 7.19071C4.78615 7.07405 4.80932 7.01625 4.83519 6.98915C4.85761 6.95972 4.86627 6.94516 4.86919 6.93818C4.9335 6.76482 4.88866 6.80551 4.81956 6.88383C4.79992 6.90559 4.78043 6.93006 4.73142 6.98073C4.69767 7.02697 4.51351 7.15408 4.46848 7.16152C4.40354 7.18267 4.422 7.16294 4.40204 7.15046C4.38433 7.12256 4.18 6.74539 4.23348 7.03802C4.25587 7.12051 4.40662 7.1537 4.37599 7.22579C4.34372 7.30011 4.29643 7.18184 4.28762 7.177C4.2556 7.16186 4.21175 7.24915 4.19186 7.24183C3.88431 7.13344 3.65929 6.78946 4.20806 7.13843C4.21799 6.96632 3.89081 6.92898 3.9507 6.77475C4.03483 6.57826 4.23652 6.69959 4.26224 6.69883C4.61981 6.51892 4.13691 6.60759 4.41783 6.40274C4.42541 6.39691 4.43238 6.39228 4.43868 6.3889C4.4728 6.37164 4.48448 6.39539 4.49055 6.4273C4.50098 6.48602 4.49358 6.57057 4.5685 6.48501C4.58649 6.46448 4.60909 6.43426 4.63786 6.39162C4.82661 6.11318 4.6395 6.19887 4.47499 6.04408C4.43649 6.008 4.49914 5.81865 4.36282 6.03715C4.4052 6.07802 4.45862 6.13513 4.49217 6.18025C4.42088 6.20424 4.12407 6.11353 4.09609 6.13417C4.09584 6.13436 4.09559 6.13454 4.09534 6.13473C3.97148 6.22322 4.05656 6.35467 3.93359 6.22666C3.98908 6.30967 4.01047 6.31548 4.01555 6.31067C4.03144 6.29219 4.07939 6.24895 4.04367 6.28797C3.93359 6.51658 4.17256 6.43541 3.74076 6.48158C3.83216 6.52981 3.91989 6.57945 4.00597 6.63329C3.97189 6.65836 3.93795 6.68492 3.90579 6.71097C3.73992 6.579 3.56332 6.74176 3.61591 6.4512C3.4439 6.52529 3.37157 6.59637 3.35994 6.68813C3.35592 6.72545 3.36388 6.7652 3.37965 6.81108C3.38952 6.84181 3.37249 6.86905 3.32894 6.91033C3.36783 6.93493 3.46384 7.03265 3.46905 7.05012C3.52426 7.1947 3.28529 7.09623 3.22887 7.00977C3.20863 7.02603 3.1904 7.03792 3.18309 7.04246C3.14041 7.06687 3.1372 6.94 3.08962 6.94765C3.07577 6.94928 2.9945 7.06286 2.96661 7.03991C2.79238 6.89649 3.06103 6.84466 2.67355 7.06812C2.66273 7.0755 2.65165 7.08313 2.64031 7.09104C2.67554 7.13064 2.71337 7.14378 2.75154 7.14611C2.85071 7.16623 2.94072 7.09809 3.02852 7.24417C3.09496 7.35425 3.0398 7.36964 2.99813 7.3927C2.95817 7.41568 2.93085 7.44678 3.02574 7.54879C2.98299 7.52474 2.94957 7.50224 2.90183 7.47404C2.86583 7.718 2.67488 7.58761 2.58643 7.62722C2.39682 7.71709 2.22566 8.30473 2.60446 7.8645C2.59273 7.94606 2.5766 8.02324 2.57231 8.09796C2.15527 7.96758 2.32078 8.04248 2.17413 8.25469C2.1639 8.2668 2.13787 8.2666 2.11469 8.26457C2.06226 8.27024 2.02135 8.27059 2.13717 8.37917C1.94576 8.26616 1.96949 8.5018 1.93341 8.50896C1.75996 8.52622 1.74291 8.18674 1.90349 8.16368C1.93775 8.16977 1.99171 8.17738 2.06611 8.19951C1.93964 8.10038 2.12985 8.17135 2.12936 8.08447C2.13116 7.95164 2.09773 7.90782 2.31151 7.77171C2.25522 7.63237 2.14842 7.82418 2.08154 7.93868C2.01554 8.04347 1.94868 8.11908 1.89558 7.82411C1.86756 7.68372 1.96486 7.17729 2.33985 6.73442C2.39873 6.65075 2.4627 6.56218 2.5145 6.48353C2.5507 6.43205 2.52391 6.45265 2.5847 6.36781C2.70336 6.22616 2.78121 6.17055 2.80236 6.14662C2.83211 6.11818 2.85364 6.09673 2.87708 6.07371C3.0168 5.94075 3.1499 5.81311 3.36025 5.65714C3.41566 5.61708 3.47662 5.57473 3.56323 5.52516C3.60347 5.50175 3.66501 5.4711 3.68872 5.45878C3.69912 5.45357 3.68924 5.45472 3.62908 5.48536C3.56974 5.51497 3.47742 5.57735 3.42518 5.62324C3.24448 5.79346 3.32144 5.72346 3.32228 5.70797C3.33867 5.68023 3.3607 5.64451 3.38359 5.60783C3.68891 5.10032 4.10258 4.57031 4.29489 4.36528C4.41332 4.23264 4.52738 4.11358 4.63737 4.0041C5.80126 3.0759 6.1842 3.00374 7.13133 2.60708C7.15964 2.59647 7.23651 2.56543 7.33522 2.53191C7.68453 2.41485 7.97139 2.36947 7.93745 2.56548C7.9379 2.60277 7.65721 2.79004 7.97749 2.88821C7.89281 2.79693 8.01375 2.68033 8.01812 2.6659C8.16127 2.32587 8.01177 2.32194 8.29357 2.18529ZM10.5285 3.70582C9.89856 3.79323 10.3884 3.84786 10.3471 4.23528C10.4217 4.21854 10.4984 4.20201 10.5777 4.18528C10.5519 4.16741 10.5265 4.14954 10.5008 4.13168C10.5007 4.1317 10.5006 4.13172 10.5006 4.13174C10.5087 3.98995 10.5184 3.84788 10.5285 3.70582ZM21.0057 2.94646C20.9801 2.99497 20.9552 3.04358 20.9277 3.09105C20.8405 3.07614 20.7542 3.06153 20.6683 3.04666C20.6784 3.01375 20.6882 2.98045 20.6984 2.94754C20.8012 2.94873 20.9035 2.95008 21.0057 2.94646ZM3.7238 7.57333C3.53432 7.57863 3.71631 7.73599 3.51909 7.7804C3.65943 7.8908 3.79966 7.99576 3.94105 8.10246C4.01868 7.98456 3.9837 7.92677 4.13901 7.81821C4.08064 7.79832 4.02414 7.77539 3.9684 7.75144C3.95897 7.78 3.94948 7.81068 3.94024 7.83634C3.79612 7.75797 3.94942 7.55487 3.72388 7.57271C3.72385 7.57292 3.72383 7.57312 3.7238 7.57333ZM3.23015 8.44645C3.20396 8.48225 3.12983 8.59965 3.06097 8.71661C3.02312 8.77822 2.99978 8.82988 3.01824 8.85798C3.07894 8.95076 3.15513 8.88627 3.22171 8.79339C3.33056 8.62055 3.40286 8.41958 3.34681 8.85315C3.3439 8.87478 3.3403 8.89833 3.33642 8.92291C3.36911 8.93571 3.39829 8.95393 3.42922 8.96946C3.44117 8.95034 3.45335 8.93021 3.46534 8.90977C3.54203 8.77116 3.58957 8.65068 3.62623 8.56217C3.49289 8.52659 3.3643 8.48179 3.23015 8.44645ZM8.36798 4.49889C8.3155 4.50542 8.1877 4.57329 8.11938 4.65063C8.03851 4.73026 7.99497 4.81968 8.09065 4.86592C8.11203 4.87661 8.14171 4.84206 8.17285 4.79511C8.21161 4.7229 8.2708 4.61432 8.31846 4.60528C8.36843 4.59575 8.35107 4.73134 8.4346 4.65674C8.41357 4.60619 8.39239 4.54946 8.36782 4.49932C8.36787 4.49918 8.36792 4.49903 8.36798 4.49889ZM8.32895 3.75459C8.23643 3.80848 8.14275 3.86681 8.05063 3.92192C8.16662 4.03203 8.28268 3.90016 8.35289 4.08581C8.32952 4.10918 8.30653 4.13226 8.28365 4.15538C8.24933 4.12083 8.21557 4.08605 8.18178 4.05136C8.13082 4.18146 8.19622 4.21518 8.0368 4.237C8.22788 4.48812 8.27488 4.64246 8.46821 4.26124C8.46414 4.43333 8.67929 4.92281 8.7324 4.50316C8.74067 4.42587 8.59226 4.42765 8.58802 4.41691C8.52415 4.29153 8.56634 4.18345 8.50288 4.06608C8.4742 4.01311 8.39971 4.03889 8.36298 3.96392C8.3456 3.92727 8.37901 3.79514 8.32895 3.75459ZM8.77146 4.34787C8.76422 4.44031 8.9584 4.58302 9.05506 4.4983C9.19978 4.36801 8.85961 4.3076 8.77146 4.34787ZM21.0062 2.94628C21.0061 2.94634 21.0059 2.9464 21.0057 2.94646C21.0058 2.94628 21.0059 2.9461 21.006 2.94591C21.0061 2.94604 21.0061 2.94616 21.0062 2.94628ZM3.41242 8.21002C3.46157 8.27646 3.42517 8.35505 3.53524 8.38539C3.50479 8.40668 3.47344 8.43352 3.44032 8.46464C3.47316 8.47446 3.50617 8.48394 3.53868 8.49365C3.59401 8.38574 3.63598 8.32974 3.67353 8.30008C3.58776 8.26726 3.50082 8.23629 3.41242 8.21002ZM2.799 9.35803C2.73017 9.46157 2.91588 9.44353 2.96931 9.50236C3.02211 9.56145 2.93007 9.61095 3.03235 9.64679C3.05688 9.60428 3.09237 9.54629 3.13197 9.48361C3.02046 9.44351 2.90971 9.39775 2.79888 9.35825C2.79892 9.35817 2.79896 9.3581 2.799 9.35803ZM13.0854 3.24571C12.9827 3.22502 13.007 3.10273 12.833 3.26416C12.8331 3.26414 12.8333 3.26413 12.8334 3.26411C12.9144 3.29497 13.0055 3.32271 13.0993 3.33519C13.2214 3.35341 13.3382 3.34564 13.4383 3.28074C13.3137 3.16872 13.2389 3.27785 13.0877 3.24615C13.087 3.246 13.0862 3.24586 13.0854 3.24571ZM4.12381 7.66613C4.12295 7.66258 4.12188 7.65922 4.12059 7.65605C4.1159 7.64523 4.10887 7.63664 4.1002 7.6301C4.04534 7.57853 3.87632 7.67165 4.03993 7.61303C4.06748 7.68706 4.18509 7.64857 4.09145 7.77265C4.08033 7.80964 4.14914 7.7365 4.12381 7.66613ZM16.8932 2.2496C17.0303 1.95561 16.7381 1.64236 16.452 1.79258C16.4275 1.80572 16.6184 1.89076 16.5649 1.94906C16.5597 1.95481 16.4559 1.95163 16.4316 1.99263C16.4074 2.03374 16.4379 2.12616 16.3969 2.16678C16.3252 2.23786 16.1552 2.1162 16.1026 2.20744C16.0959 2.21972 16.2026 2.34168 16.2093 2.34618C16.3185 2.4185 16.4153 2.25169 16.4316 2.25005C16.5163 2.24149 16.5074 2.36989 16.5301 2.3992C16.5726 2.45433 16.6417 2.39519 16.6466 2.39921C16.7791 2.50674 16.4846 2.48534 16.4464 2.53279C16.3433 2.66088 16.4476 2.77367 16.1906 2.85196C16.1666 2.85936 15.8676 2.85991 16.2471 2.99279C15.5109 3.31126 16.6271 3.15253 16.7338 3.0802C16.7866 3.04773 16.7005 2.92878 16.7311 2.87269C16.8018 2.7444 16.9281 2.71757 16.9104 2.54103C16.8719 2.16993 16.7138 2.41989 16.5955 2.36149C16.6046 2.28027 16.6069 2.20129 16.6261 2.12145C16.595 2.22907 16.8837 2.2717 16.8932 2.25033C16.8932 2.25009 16.8932 2.24984 16.8932 2.2496ZM15.0812 2.72164C14.9187 2.61295 14.9363 2.84759 14.7846 2.71703C14.6621 2.93132 14.9159 2.91051 14.9454 2.92183C15.0828 2.97182 15.0862 3.20126 15.2218 3.1278C15.171 2.99305 15.1304 2.85671 15.0812 2.72164ZM16.4963 2.78663C16.3913 2.90937 16.5864 2.9005 16.5947 2.92292C16.6901 3.16122 16.1033 3.13448 16.4963 2.78663ZM7.64637 4.25663C7.59328 4.26897 7.66707 4.36226 7.63518 4.41117C7.60431 4.45977 7.41666 4.43115 7.44762 4.49522C7.47926 4.55871 7.81958 4.61911 7.56308 4.76688C7.58746 4.79996 7.5957 4.82874 7.61383 4.86024C7.68845 4.83063 7.76357 4.80219 7.83861 4.77368C7.75555 4.68308 7.66883 4.58772 7.58685 4.50122C7.59575 4.39911 7.66303 4.49844 7.66522 4.49756C7.66517 4.49745 7.66512 4.49733 7.66508 4.49722C7.7406 4.45714 7.76626 4.2289 7.64637 4.25663ZM11.809 3.22093C11.7753 3.08073 11.7549 3.09684 11.7447 3.15242C11.7257 3.20975 11.711 3.30593 11.6919 3.33061C11.6535 3.3803 11.5512 3.30295 11.6157 3.41089C11.6847 3.44501 11.754 3.36814 11.7926 3.30047C11.8034 3.26566 11.8118 3.23188 11.8089 3.22058C11.8089 3.22069 11.809 3.22081 11.809 3.22093ZM14.2118 2.74786C14.0822 2.82268 14.1062 2.89556 13.9411 2.81941C13.951 2.88791 13.961 2.95792 13.9708 3.02539C14.0969 3.02036 14.0799 2.82076 14.2321 2.89493C14.2574 2.90725 14.2105 3.06898 14.3189 3.01342C14.2828 2.9294 14.2483 2.83597 14.2118 2.74786ZM13.5816 3.04116C13.7241 3.01907 13.8067 2.45346 13.5476 2.72613C13.5097 2.76715 13.4735 3.05871 13.5816 3.04116ZM9.00149 3.73592C8.74107 3.84078 9.06701 3.78939 9.17474 3.827C8.62198 4.16428 9.17039 3.82342 9.39668 3.95867C9.40597 3.96769 9.41491 3.97792 9.42341 3.98947C9.41941 3.89802 9.45237 3.67766 9.31321 3.68964C9.25598 3.69607 9.314 3.76187 9.31087 3.76302C9.3031 3.76519 9.29569 3.76629 9.28851 3.76651C9.18364 3.78344 9.12996 3.68063 9.00149 3.73592ZM15.3605 2.70214C15.3507 2.70653 15.368 2.80252 15.3369 2.82238C15.3063 2.84208 15.2329 2.77615 15.2268 2.83539C15.2218 2.89496 15.3645 2.93821 15.4091 2.89405C15.4529 2.84948 15.4509 2.66331 15.3605 2.70214ZM14.3439 2.49104C14.2158 2.56506 14.4432 2.91177 14.4698 2.9094C14.7186 2.88295 14.3416 2.6032 14.3439 2.49104ZM9.32981 2.91604C9.06282 3.21349 9.4357 3.39725 9.65836 3.52351C9.66987 3.47971 9.68294 3.43559 9.69583 3.39218C9.65522 3.64894 9.54938 3.91818 9.8925 3.60444C9.6505 3.61762 9.82217 3.50277 9.82132 3.4896C9.73146 3.06959 9.43036 3.37345 9.33011 2.91593C9.33001 2.91597 9.32991 2.916 9.32981 2.91604ZM15.7912 2.7959C15.8256 2.79497 15.8744 2.78924 15.9265 2.77827C16.0835 2.7456 16.252 2.66392 16.1214 2.52895C16.0568 2.5821 15.9916 2.63505 15.9251 2.68751C15.8796 2.72365 15.835 2.75978 15.7912 2.7959ZM4.64945 5.48511C4.49146 5.5077 4.42196 5.59619 4.3383 5.71514C4.54051 5.70707 4.50103 5.78615 4.50445 5.84332C4.50912 5.92995 4.60299 5.80186 4.61167 5.80808C4.7249 5.90176 4.6802 5.99286 4.81955 5.81417C4.8237 5.8899 4.82977 5.9648 4.83561 6.03954C4.94624 5.91012 5.04668 5.93974 5.20285 5.93581C4.91935 5.8293 5.14068 5.84208 5.11706 5.65551C5.10678 5.56009 4.73128 5.47131 4.64916 5.48545C4.64925 5.48534 4.64935 5.48522 4.64945 5.48511ZM8.95472 3.01414C8.94652 3.05652 8.94418 3.10527 8.94329 3.15326C8.94516 3.17677 8.94685 3.20021 8.94768 3.22265C8.92213 3.24317 8.89576 3.26288 8.86936 3.28289C8.84486 3.24437 8.8201 3.20362 8.7961 3.16679C8.75336 3.17378 8.79622 3.22293 8.78783 3.23384C8.78772 3.23362 8.78762 3.2334 8.78751 3.23318C8.66478 3.38729 8.58441 3.40933 8.40489 3.32729C8.45364 3.45782 8.50239 3.58836 8.55114 3.7189C8.57871 3.69442 8.60648 3.6698 8.63338 3.64508C8.62235 3.56883 8.61053 3.49272 8.59748 3.41704C8.64789 3.44078 8.69847 3.46353 8.75069 3.48521C8.76765 3.448 8.78881 3.40674 8.80083 3.37175C9.1127 3.65381 8.67514 3.56974 8.73471 3.71591C8.7729 3.81699 9.11869 3.64875 9.1278 3.55617C9.12875 3.54448 8.95134 3.35772 9.07367 3.38486C9.0837 3.38683 9.09568 3.39021 9.10975 3.39529C9.14662 3.40354 9.4194 3.96429 9.32232 3.45109C9.31258 3.37714 9.09211 3.04572 8.95472 3.01414ZM7.72982 3.28892C7.87131 3.41647 7.79772 3.46624 7.69336 3.49956C7.55584 3.54315 7.36071 3.54909 7.61183 3.65967C7.58981 3.86557 7.60634 3.85655 7.75165 3.97635C7.76451 3.98714 7.72232 4.05745 7.72997 4.06145C7.80552 4.09706 7.8667 4.07267 7.91518 4.09892C7.9391 4.112 7.96007 4.13753 7.97878 4.18868C7.99643 4.173 8.01348 4.15873 8.03176 4.14316C7.89164 4.02831 7.99952 3.88021 8.01855 3.73722C8.02671 3.67235 7.95996 3.67502 7.96619 3.61853C7.96886 3.59768 8.06563 3.60604 8.05239 3.55345C8.02176 3.43474 7.92012 3.29306 7.79468 3.2396C7.79465 3.23948 7.79461 3.23937 7.79457 3.23925C7.77278 3.25501 7.75193 3.27238 7.72982 3.28892ZM12.0112 2.25772C12.0846 2.47082 12.2264 2.51058 11.9855 2.66198C12.0061 2.70264 12.0268 2.74296 12.0468 2.78383C12.0888 2.77256 12.1297 2.76197 12.1732 2.75167C12.211 2.08385 12.5654 2.78195 12.3427 2.34375C12.3187 2.29608 12.2187 2.36678 12.3062 2.21658C12.3061 2.21647 12.3059 2.21637 12.3058 2.21627C12.1624 2.27859 12.157 2.35879 12.0112 2.25772ZM11.0693 2.67798C10.8889 3.22719 11.5964 2.77956 11.4281 2.70383C11.4132 2.69705 11.1136 2.90138 11.0693 2.67798ZM13.7496 1.80069C13.5907 1.80288 13.5993 2.05562 13.6217 2.14473C13.6441 2.23417 13.7443 2.13516 13.7586 2.14871C13.8062 2.19304 13.7139 2.23017 13.7756 2.29111C13.7963 2.3103 14.0655 2.38598 14.0764 2.37506C14.1412 2.31182 14.033 2.10868 14.0512 2.08404C14.1115 2.00313 14.2022 2.10765 14.216 1.99654C14.2463 1.75932 14.0958 2.01313 14.0681 2.01856C13.9876 2.0335 13.987 1.90068 13.9241 1.87727C13.8602 1.85404 13.8222 1.90177 13.7667 1.89576C13.748 1.89377 13.7577 1.80103 13.7496 1.80069ZM13.2816 2.37391C13.4226 2.16658 13.0054 2.0042 12.9648 2.05587C12.9495 2.07499 12.9423 2.09607 12.9416 2.11803C12.9412 2.13092 12.9431 2.14411 12.9467 2.15742C12.9864 2.29769 13.2299 2.45183 13.2816 2.37391ZM8.41184 3.70201C8.49964 3.52557 8.15512 3.52553 8.07787 3.607C8.11273 3.65626 8.3797 3.76431 8.41184 3.70201ZM9.42213 2.88508C9.29935 2.97239 9.57914 3.20444 9.68052 3.17065C9.68687 2.9558 9.63832 3.0115 9.56327 3.02585C9.48786 3.0407 9.51951 2.81831 9.42213 2.88508ZM15.4253 1.97329C15.3941 1.97042 14.937 2.14919 15.2028 2.21393C15.226 2.21859 15.5457 2.18269 15.5727 2.15081C15.6215 2.08624 15.498 1.98101 15.4253 1.97329ZM10.0039 2.41425C9.97228 2.60335 9.90259 2.61784 10.0159 2.80439C10.016 2.80436 10.0161 2.80434 10.0162 2.80432C9.85449 2.90872 9.73986 2.50039 9.70152 2.51957C9.56855 2.58819 9.7798 2.84473 9.72068 2.96385C9.8927 2.82078 9.88802 3.03358 10.0371 3.01017C10.0704 3.00486 10.1746 2.85557 10.1773 2.77717C10.1799 2.69866 10.0613 2.49211 10.0039 2.41425ZM16.0773 1.91723C16.0095 1.88947 15.9462 1.92842 15.9139 1.98468C15.8838 2.03384 15.8783 2.09637 15.9163 2.13922C15.9337 2.16003 15.962 2.17617 16.0019 2.1837C16.1082 2.20372 16.1728 1.95592 16.0773 1.91723ZM2.20879 8.3011C2.283 8.31987 2.35923 8.33233 2.43659 8.33915C2.4361 8.3655 2.43515 8.39126 2.43327 8.41676C2.43019 8.44449 2.4263 8.47292 2.422 8.50137C2.4212 8.47032 2.42004 8.43949 2.41803 8.40948C2.41605 8.39335 2.4137 8.37727 2.41108 8.36105C2.40077 8.37357 2.3878 8.3826 2.37358 8.38825C2.30541 8.42234 2.21719 8.39117 2.21057 8.31038C2.2098 8.30742 2.20918 8.30439 2.20872 8.30126C2.20874 8.30121 2.20877 8.30115 2.20879 8.3011ZM1.27269 12.2072C1.2023 12.2574 1.4295 12.3414 1.44658 12.3293C1.57416 12.2362 1.37029 12.1368 1.27269 12.2072ZM8.00042 3.12054C7.81899 3.14573 8.05039 3.45471 8.16068 3.44536C8.07663 3.39923 8.10003 3.10716 8.00042 3.12054ZM1.34219 10.7291C1.37627 10.7207 1.41039 10.7121 1.44493 10.7017C1.39008 10.7465 1.35933 10.7491 1.34219 10.7291ZM15.3445 1.65269C15.3165 1.62519 15.1115 1.60627 15.0843 1.64154C15.0285 1.71556 15.1918 1.91339 15.285 1.84964C15.2947 1.84278 15.3726 1.68014 15.3441 1.6527C15.3442 1.65269 15.3444 1.65269 15.3445 1.65269ZM1.98911 8.4202C1.9923 8.42164 1.99514 8.4234 1.99756 8.42535C1.99481 8.4236 1.99184 8.42201 1.98911 8.4202ZM0.728147 16.1802C0.733862 16.1795 0.739503 16.1792 0.744875 16.1797C0.739566 16.1798 0.733956 16.1803 0.728147 16.1802ZM13.8705 1.38888C13.7802 1.04552 13.6212 1.24082 13.7648 1.40405C13.7722 1.4126 13.8536 1.38904 13.8705 1.38888ZM321.997 3.47619C318.024 3.48417 313.674 3.53085 309.689 3.47111C309.203 3.46381 309.233 3.36305 309.096 3.34977C308.717 3.31312 308.49 3.43199 308.216 3.4233C306.893 3.38146 305.632 3.36452 304.339 3.32654C303.003 3.28751 303.628 2.97426 303.16 2.89803C302.242 2.74875 303.023 3.15701 302.663 3.24875C301.625 3.22439 300.556 3.18029 299.513 3.13564C299.767 3.09747 300.022 3.06012 300.282 3.02475C299.822 3.01641 299.175 2.95347 299.936 2.84664C299.767 2.81727 299.61 2.78291 299.438 2.75424C299.387 2.90296 298.604 2.91503 298.515 3.00321C298.441 3.0914 298.902 3.07108 298.895 3.07878C298.874 3.18862 296.975 3.03874 296.857 3.02651C296.509 2.99397 296.814 2.80956 296.519 2.82148C296.004 2.84185 296.342 3.21691 295.628 2.71833C295.345 2.88037 295.319 2.79625 294.967 2.78508C294.921 2.78369 294.957 2.87748 294.936 2.87993C294.407 2.94963 294.813 2.77514 294.811 2.76569C294.759 2.60519 294.205 2.67662 294.08 2.66125C292.515 2.46971 291.422 2.34005 289.814 2.29586C289.44 2.28647 288.444 2.35175 288.065 2.32452C287.731 2.29763 287.91 2.18195 287.739 2.12645C287.603 2.26558 287.473 2.34283 287.309 2.36239C287.13 2.38196 286.87 2.34385 286.567 2.25225C286.328 2.45524 286.417 2.29151 285.927 2.33219C285.758 2.34619 285.553 2.39645 285.37 2.43551C285.168 2.47457 284.875 2.50245 284.751 2.47166C284.671 2.45916 284.596 2.437 284.527 2.402C284.619 2.4057 284.691 2.40482 284.751 2.40055C284.921 2.38314 285.055 2.30927 285.448 2.26085C285.6 2.24089 287.467 2.23633 287.333 2.02892C287.278 1.9208 286.615 2.02022 286.607 2.00029C286.474 1.88412 286.798 1.74129 287.129 1.79128C287.047 1.81474 286.951 1.83854 286.867 1.862C287.591 2.00711 287.1 1.44941 287.594 1.93677C287.655 1.99656 287.631 2.0589 287.733 2.12242C287.754 2.09614 287.629 2.03102 287.736 2.01933C287.845 2.00755 288.06 2.1312 288.093 2.02696C288.139 1.87538 287.674 1.93519 287.644 1.92633C287.644 1.92724 287.643 1.92816 287.643 1.92907C287.345 1.84864 287.968 1.83937 288.005 1.82501C288.209 1.73054 288.067 1.65783 288.381 1.57977C288.582 1.5353 288.98 1.56143 289.141 1.54706C289.297 1.53233 289.054 1.46066 289.159 1.44525C289.264 1.42984 289.396 1.4843 289.524 1.46643C289.578 1.45856 289.575 1.37858 289.602 1.37578C289.888 1.34497 289.699 1.51135 289.963 1.50116C290.15 1.49438 290.675 1.33923 290.313 1.29309C290.486 1.27698 290.658 1.26517 290.836 1.25255C290.724 1.22878 290.609 1.21263 290.501 1.18467C290.83 1.22271 290.985 1.08583 291.2 1.07561C291.415 1.06543 291.612 1.22963 291.858 1.14949C292.381 0.978979 291.086 1.05792 290.945 1.02749C290.885 1.01553 291.115 0.886855 291.151 0.883173C291.31 0.867057 291.5 0.959024 291.626 0.954879C292.089 0.939411 292.338 0.817959 292.749 0.793393C294.185 0.70989 295.963 0.642088 297.283 0.615306C297.781 0.605438 298.089 0.741908 298.318 0.738026C298.863 0.728841 298.91 0.609872 299.366 0.603483C300.035 0.593593 301.034 0.697316 301.589 0.719641C301.978 0.734987 302.335 0.619814 302.438 0.616991C303.886 0.575509 305.597 0.577891 306.796 0.576348C307.348 0.575585 307.612 0.704929 307.727 0.701117C308.221 0.684963 308.088 0.574366 308.49 0.585488C308.707 0.591404 308.748 0.697584 308.777 0.701728C309.034 0.736694 309.085 0.598026 309.286 0.593454C310.421 0.567094 311.532 0.657724 312.663 0.670908C312.745 0.67195 312.738 0.733377 312.791 0.730221C313.019 0.715122 312.913 0.618398 313.152 0.611349C313.648 0.59625 314.159 0.612182 314.687 0.624379C314.739 0.62558 314.763 0.704541 314.882 0.704561C315.002 0.704549 315.093 0.629685 315.28 0.633843C315.77 0.644645 316.255 0.734138 316.774 0.738991C316.86 0.739683 316.966 0.64455 317.095 0.645578C317.499 0.648691 318.098 0.734992 318.446 0.738112C319.593 0.747812 320.637 0.69359 321.723 0.692813C321.977 0.692837 322.201 0.780951 322.332 0.783042C322.629 0.787543 322.405 0.704285 322.705 0.703915C325.167 0.701652 327.627 0.73939 330.119 0.732684C331.091 0.730206 332.285 0.644033 333.228 0.667834C333.617 0.677993 333.687 0.793131 333.958 0.794184C334.448 0.795553 334.554 0.647954 335.078 0.633254C335.497 0.621717 335.97 0.769087 336.39 0.760008C336.827 0.750928 337.041 0.607812 337.539 0.590694C337.959 0.576735 338.485 0.641721 338.958 0.631264C342.074 0.566283 344.782 0.488571 348.222 0.554463C348.248 0.559252 348.325 0.573017 348.35 0.580053C348.24 0.558283 348.408 0.589338 348.488 0.602062C348.585 0.61867 348.687 0.637424 348.786 0.657473C348.985 0.697664 349.177 0.742975 349.365 0.79154L349.064 0.750381C349.758 0.779463 350.496 0.835623 351.115 0.871993C351.139 0.873075 351.163 0.874164 351.187 0.875258C351.95 0.919955 352.769 0.903786 353.732 1.07535C354.109 1.15517 354.466 1.16152 355.159 1.42426C355.499 1.57756 355.762 1.71225 355.96 1.79762C355.964 1.79944 355.967 1.80139 355.97 1.80346C356.07 1.85615 355.847 1.91907 356.314 2.02371C356.535 2.09023 356.823 2.04069 357.443 2.38672C357.5 2.41417 357.556 2.4414 357.616 2.47193C357.749 2.54292 357.919 2.59178 358.292 2.7528C359.059 3.13694 359.623 3.31586 360.572 4.19794C361.006 4.67341 361.376 5.26445 361.641 5.73721C361.901 6.19414 362.045 6.56165 362.183 6.79647C362.429 7.20342 362.543 7.57298 362.64 7.86274C362.811 8.36966 362.894 8.94615 362.94 9.06315C363.128 9.57437 363.182 9.98076 363.25 10.3303C363.326 10.73 363.37 11.0992 363.431 11.3722C363.435 11.388 363.439 11.4045 363.443 11.4215C363.498 11.6599 363.627 12.0433 363.673 12.5036C363.73 13.0218 363.818 13.4638 363.968 13.9028C364.569 18.7413 364.752 22.6482 363.809 26.3063C363.759 26.4951 363.404 26.4489 363.293 26.3271C363.352 26.1975 363.428 26.0906 363.499 25.9596C363.058 25.8363 363.168 25.8511 363.183 25.2653C363.194 24.9003 363.019 25.1947 362.96 25.0054C362.882 24.7544 362.645 23.5839 362.936 23.8045C362.885 23.7338 362.837 23.6678 362.787 23.5974C362.73 22.7428 362.652 21.9195 362.564 21.0859C362.549 20.9419 362.459 20.9357 362.444 20.7874C362.402 20.3884 362.46 20.0721 362.448 19.6603C362.442 19.4376 362.338 19.4068 362.343 19.1144C362.348 18.825 362.488 18.8252 362.333 18.4317C362.159 18.6913 362.279 17.535 362.262 17.1239C362.26 17.066 362.096 16.5775 362.109 16.3195C362.122 16.0577 362.215 15.666 362.143 15.2705C362.109 15.0842 361.981 14.9834 361.962 14.7907C361.95 14.6708 362.041 14.4575 362.034 14.4075C362.035 14.4078 362.035 14.4099 362.036 14.4151C361.975 14.2127 361.816 13.8391 361.803 13.7632C361.749 13.4783 361.877 13.7803 361.849 13.5854C361.806 13.2794 361.782 12.9589 361.766 12.6499C361.759 12.4189 361.68 12.1421 361.593 11.7489C361.527 11.4343 361.486 11.1578 361.429 10.9205C361.407 10.8255 361.34 10.9732 361.335 10.9609C361.296 10.8489 361.269 10.7713 361.252 10.7144C361.162 10.4114 361.295 10.6205 361.332 10.4571C361.355 10.3653 361.29 9.97478 361.18 9.75947C360.981 9.25348 360.912 9.02002 360.825 9.02338C361.008 8.93596 360.796 8.7164 360.771 8.66496C360.749 8.61153 360.741 8.57265 360.741 8.53966C360.731 8.40933 360.81 8.35548 360.701 8.19031C360.65 8.11479 360.608 8.31861 360.575 8.22897C360.528 8.09961 360.543 7.97271 360.532 7.8461C360.482 7.69502 360.438 7.54559 360.368 7.39719C360.326 7.30922 360.238 7.31768 360.165 7.17185C360.123 7.08797 360.039 6.85563 359.974 6.7595C359.912 6.66351 359.866 6.63431 359.872 6.78864C359.776 6.36936 359.675 6.33876 359.427 5.99546C359.363 5.91088 359.382 5.71678 359.193 5.57004C359.17 5.55224 359.143 5.5528 359.114 5.5564C359.077 5.57776 359.037 5.61067 359.002 5.58103C358.863 5.46537 358.702 5.20193 358.393 5.02238C358.109 4.85822 357.786 4.71749 357.469 4.59455C357.218 4.50597 356.68 4.3405 356.31 4.05388C356.308 4.05212 356.305 4.05032 356.303 4.04848C356.221 3.98999 356.313 3.88467 356.097 3.79474C356.066 3.78001 355.738 3.79095 355.544 3.73017C355.527 3.72443 355.498 3.71401 355.462 3.70023C355.198 3.61315 354.747 3.3709 354.652 3.32658C354.552 3.28116 354.484 3.28633 354.429 3.2939C354.397 3.30979 354.369 3.32581 354.337 3.30368C354.11 3.17497 354.357 3.03889 353.955 3.22042C353.856 3.06236 353.616 3.04117 353.565 2.8598C353.524 2.89961 353.485 2.91768 353.443 2.92233C353.32 2.9381 353.192 2.82502 352.996 2.85365C352.737 2.89186 352.508 3.24695 352.464 2.85241C352.34 2.89278 351.81 2.95726 351.719 2.96155C351.455 2.97179 351.597 2.86689 351.398 2.87703C351.362 2.87873 351.399 2.95344 351.172 2.94155C351.154 2.94057 351.121 2.93931 351.076 2.93783C350.74 2.9274 349.907 2.88075 349.849 2.87091C349.114 2.72478 350.255 2.81404 350.422 2.74222C350.45 2.76453 350.476 2.78685 350.506 2.80899C350.837 2.85806 350.654 2.68295 350.506 2.63762C350.358 2.59224 350.077 2.65421 349.955 2.59408C349.895 2.56391 349.942 2.365 350.127 2.39738C349.93 2.32689 350.206 2.27367 350.129 2.21218C350.046 2.14369 349.145 2.08913 349.137 2.20078C349.305 2.21006 349.514 2.21391 349.684 2.22527C349.851 2.38227 349.462 2.79759 348.999 2.84181C348.972 2.8418 348.894 2.82948 348.867 2.82382C348.742 2.81001 348.618 2.7682 348.505 2.68606C348.129 2.43061 348.826 2.40702 347.906 2.37387L347.939 2.38051C348.048 2.39579 347.947 2.39584 347.889 2.40445C347.942 2.4053 348.053 2.41551 347.934 2.40902L347.899 2.40188C348.063 2.44605 348.13 2.46089 348.234 2.48543C348.217 2.61377 348.094 2.47944 347.887 2.4492L347.927 2.45719C348.033 2.46895 347.973 2.46454 347.983 2.4701C347.98 2.47357 347.98 2.47901 347.983 2.48586C347.968 2.4909 348.043 2.50699 347.919 2.50413L347.876 2.49531C347.972 2.55432 348.094 2.6271 347.849 2.60443L347.902 2.61521C348.05 2.6319 347.966 2.62448 347.978 2.62844C347.821 2.52459 347.732 2.52496 347.585 2.55105C347.513 2.56413 347.413 2.5837 347.31 2.60014C347.237 2.61662 347.15 2.62995 347.039 2.63046C347.173 2.59384 347.239 2.55734 347.406 2.52078C346.621 2.37051 348.463 2.32322 346.941 2.23799C347.144 2.23152 347.22 2.23333 347.481 2.22351C347.377 2.14778 347.543 1.92606 347.451 1.87905C347.195 1.75567 346.979 1.82968 346.675 1.81866C346.55 1.81402 346.628 1.75416 346.617 1.7538C346.433 1.74704 346.498 1.83491 346.369 1.84043C346.224 1.84733 345.73 1.7617 345.638 1.77139C345.417 1.79614 345.785 1.96963 345.762 1.98257C345.625 2.06646 345.334 1.99672 345.36 2.10654C345.71 2.06889 346.309 2.07455 346.64 2.11229C347.02 2.15009 346.989 2.21966 346.197 2.31C346.614 2.48768 346.527 2.7322 345.865 2.75112C345.29 2.76695 345.644 2.6691 345.363 2.5612C345.338 2.54769 344.628 2.4959 344.58 2.57208C344.611 2.3966 344.364 2.24111 344.53 2.0601C344.556 2.03351 344.858 2.04411 344.753 1.89849C344.701 1.82535 344.547 1.66614 344.572 1.57305C344.508 1.63776 344.441 1.71057 344.375 1.77807C343.875 1.79682 343.872 1.72709 343.621 1.60629C343.631 1.65669 343.852 1.8685 343.517 1.80402C343.499 1.80017 343.485 1.72416 343.311 1.68642C342.954 1.61076 342.875 1.58724 343.153 1.36412C342.381 1.49125 342.264 1.24249 341.509 1.3151C341.661 1.60204 341.919 1.53103 342.592 1.47587C342.623 1.54412 342.638 1.61166 342.671 1.6806C341.759 1.52577 342.219 1.54161 341.704 1.68006C341.581 1.71399 340.886 1.67756 341.118 1.87077C341.174 1.91623 341.601 1.91106 341.551 1.98271C341.544 1.99635 341.022 2.03099 340.973 2.01247C340.396 1.78389 341.389 1.62474 339.869 1.70783C339.827 1.71028 339.812 1.7938 339.728 1.80541C339.57 1.82709 339.568 1.73033 339.426 1.75265C339.283 1.77503 339.083 1.90515 338.863 1.78483C338.461 1.56572 339.413 1.4398 339.812 1.55603C339.973 1.26977 337.075 1.26324 336.878 1.28774C336.068 1.39442 337.415 1.33288 337.476 1.41229C337.504 1.44588 337.492 1.87171 337.821 1.59542C337.919 1.51354 337.511 1.40562 337.754 1.36049C337.997 1.31536 337.901 1.44074 337.918 1.44949C337.979 1.47948 338.234 1.43301 338.267 1.45079C338.77 1.72064 338.728 2.12835 338.055 1.52603C337.76 1.66214 338.436 1.87917 338.07 1.97153C337.625 2.08379 337.289 1.88959 337.231 1.88084C336.536 1.77726 337.343 2.06077 336.484 1.97016C336.028 1.91975 337.173 1.78154 336.128 1.80004C335.255 1.81576 335.726 1.91445 335.663 2.13877C335.648 2.19125 335.166 2.25559 335.822 2.23253C335.84 2.1741 335.875 2.09709 335.916 2.0432C336.076 2.08586 336.34 2.37833 336.423 2.38856C336.852 2.43722 336.835 2.28542 337.087 2.46421C336.907 2.26862 337.201 2.38649 337.31 2.3452C337.713 2.19304 337.191 2.13643 338.085 2.33207C337.969 2.24037 337.864 2.15038 337.751 2.05904C337.858 2.05589 337.966 2.05268 338.072 2.04954C338.232 2.25146 338.789 2.22568 338.283 2.42895C338.876 2.48672 339.178 2.44274 339.308 2.28566C339.334 2.25567 339.43 2.2437 339.542 2.24082C339.521 2.19665 339.494 2.06017 339.511 2.04343C339.669 1.89625 339.909 2.15057 339.827 2.24763C339.904 2.25228 339.964 2.25773 339.986 2.26009C340.121 2.27519 339.856 2.36293 339.965 2.39303C340.002 2.40281 340.379 2.38376 340.386 2.41944C340.44 2.64821 339.785 2.48308 341.078 2.61619C341.111 2.40797 340.493 2.45367 340.652 2.23253C340.821 1.99495 341.17 2.31371 341.243 2.02222C341.27 2.07015 341.282 2.11012 341.306 2.16468C341.83 2.03775 341.83 2.28054 341.986 2.33416C342.248 2.43884 343.734 2.42343 342.418 2.21284C342.597 2.19188 342.81 2.18221 342.996 2.16371C343.033 2.59896 342.945 2.42569 343.805 2.49239C343.994 2.50714 344.036 2.69858 344.25 2.47127C344.227 2.69429 344.826 2.55974 344.874 2.58683C345.24 2.76296 343.876 3.00753 343.76 2.61323C343.552 2.76669 343.553 2.56375 343.312 2.5906C342.961 2.62936 342.909 2.66887 342.472 2.51901C342.051 2.72994 344.121 2.6122 342.873 2.89189C341.647 3.1714 334.576 3.32712 332.919 3.3692C329.915 3.44514 328.353 3.49484 325.655 3.48238C325.396 3.48134 323.382 3.50169 323.8 3.25781C323.861 3.22281 324.727 3.13002 323.984 2.93864C324.135 3.05165 323.697 3.12507 323.66 3.13697C322.827 3.40718 323.313 3.4733 321.997 3.47619ZM318.092 1.30156C319.813 1.35705 318.549 1.19414 318.906 0.825965C318.685 0.824933 318.465 0.823938 318.244 0.822907C318.302 0.845998 318.36 0.869016 318.418 0.892107C318.418 0.892107 318.418 0.892107 318.418 0.892107C318.31 1.02858 318.201 1.16509 318.092 1.30156ZM290.005 1.05858C290.076 1.0101 290.146 0.961518 290.223 0.914078C290.447 0.929088 290.657 0.943826 290.882 0.958837C290.855 0.991731 290.83 1.02502 290.803 1.05791C290.535 1.05655 290.304 1.05506 290.005 1.05858ZM340.05 1.50277C340.367 1.63752 340.33 1.39712 340.752 1.50671C340.696 1.32929 340.639 1.15574 340.587 0.980071C340.275 1.00628 340.204 1.07374 339.854 1.03034C339.895 1.08736 339.937 1.14473 339.976 1.20211C340.035 1.18988 340.096 1.17597 340.152 1.16514C340.241 1.32471 339.685 1.34845 340.049 1.50314C340.049 1.50302 340.05 1.5029 340.05 1.50277ZM343.35 1.43191C343.535 1.45505 344.154 1.54204 344.287 1.4686C344.57 1.2195 342.723 1.37713 344.08 1.15597C344.074 1.12101 344.08 1.08676 344.08 1.05215C343.84 1.03984 343.591 1.02923 343.329 1.01937C343.343 1.15723 343.334 1.29334 343.35 1.43191ZM324.308 1.28573C324.577 1.3049 325.84 1.18764 325.428 1.02986C325.307 0.983676 324.743 1.20944 324.527 1.19965C324.387 1.19334 324.544 1.06957 324.268 1.11507C324.28 1.16963 324.287 1.23011 324.309 1.28536C324.309 1.28548 324.308 1.2856 324.308 1.28573ZM323.807 2.00591C324.084 1.98385 324.364 1.9559 324.641 1.93244C324.439 1.79145 324.039 1.88204 324.016 1.68363C324.092 1.66859 324.167 1.65362 324.243 1.63857C324.301 1.68195 324.359 1.72537 324.416 1.76875C324.654 1.66095 324.51 1.60741 324.953 1.63853C324.685 1.33864 324.637 1.17767 323.874 1.48113C324.019 1.3184 323.881 0.788199 323.462 1.16712C323.383 1.23747 323.71 1.28445 323.715 1.29565C323.766 1.43488 323.582 1.52375 323.637 1.65527C323.661 1.71476 323.863 1.71385 323.893 1.79643C323.907 1.83672 323.715 1.95168 323.807 2.00591ZM323.259 1.29989C323.344 1.21555 323.055 1.01543 322.804 1.05602C322.412 1.11904 323.03 1.30935 323.259 1.29989ZM290.004 1.05877C290.004 1.0587 290.005 1.05864 290.005 1.05858C290.005 1.05877 290.005 1.05895 290.005 1.05913C290.004 1.05901 290.004 1.05889 290.004 1.05877ZM342.433 1.33412C342.638 1.26246 342.961 1.27298 342.935 1.15899C343.038 1.18141 343.14 1.20347 343.239 1.22589C343.238 1.19162 343.237 1.15727 343.236 1.12335C342.943 1.10194 342.599 1.08045 342.324 1.05871C342.359 1.15039 342.392 1.24243 342.433 1.33412ZM345.699 1.41491C346.092 1.42663 345.763 1.27139 345.849 1.19654C345.938 1.12169 346.263 1.18279 346.223 1.07533C346.014 1.07102 345.778 1.06668 345.531 1.06273C345.596 1.17964 345.641 1.2987 345.7 1.41491C345.699 1.41491 345.699 1.41491 345.699 1.41491ZM311.078 1.18011C311.333 1.21369 311.229 1.33204 311.732 1.19341C311.732 1.19341 311.732 1.19341 311.731 1.19341C311.252 1.09654 310.636 1.01023 310.112 1.10404C310.433 1.22886 310.678 1.12767 311.078 1.18011ZM339.158 1.1535C339.049 1.24726 339.558 1.32563 339.667 1.23851C339.846 1.09751 339.327 1.01109 339.158 1.1535ZM300.817 2.01192C300.421 2.30066 301.18 2.62461 301.927 2.48456C301.993 2.4723 301.503 2.38055 301.648 2.32419C301.663 2.31864 301.931 2.32548 301.998 2.28533C302.065 2.24508 301.995 2.15167 302.104 2.11246C302.296 2.04394 302.733 2.17081 302.879 2.08087C302.898 2.06882 302.626 1.94392 302.609 1.93918C302.33 1.86363 302.064 2.02697 302.022 2.02806C301.802 2.03369 301.835 1.90565 301.78 1.87557C301.675 1.81898 301.493 1.87559 301.48 1.87139C301.149 1.75915 301.905 1.79118 302.009 1.74498C302.286 1.62037 302.027 1.50458 302.697 1.43416C302.761 1.42753 303.526 1.43495 302.562 1.29172C304.457 0.992651 301.608 1.12187 301.32 1.1877C301.181 1.21822 301.391 1.34022 301.307 1.39516C301.113 1.52079 300.768 1.54299 300.8 1.72005C300.865 2.09231 301.315 1.84833 301.608 1.91093C301.576 1.99177 301.564 2.07061 301.507 2.14971C301.6 2.04331 300.849 1.99019 300.817 2.01119C300.817 2.01144 300.817 2.01168 300.817 2.01192ZM305.583 1.58596C306.009 1.69824 305.979 1.46325 306.371 1.59758C306.717 1.38653 306.034 1.40078 305.955 1.38889C305.594 1.33575 305.602 1.1063 305.235 1.17694C305.361 1.31269 305.464 1.44986 305.583 1.58596ZM301.903 1.48956C302.183 1.37055 301.682 1.37263 301.662 1.34988C301.439 1.10857 302.945 1.15528 301.903 1.48956ZM325.954 1.75842C326.097 1.76645 326.006 1.65254 326.132 1.61888C326.254 1.58494 326.695 1.68241 326.684 1.61153C326.673 1.54049 325.867 1.3563 326.676 1.31636C326.648 1.27649 326.657 1.24674 326.644 1.21071C326.421 1.20967 326.201 1.20794 325.984 1.2069C326.103 1.32166 326.225 1.4424 326.34 1.55332C326.218 1.64466 326.149 1.52751 326.143 1.52751C326.143 1.52763 326.143 1.52775 326.143 1.52788C325.915 1.53708 325.634 1.74053 325.954 1.75842ZM314.633 1.40167C314.589 1.68689 314.929 1.36832 315.069 1.33296C315.208 1.29773 315.399 1.4033 315.327 1.28057C315.102 1.19591 314.637 1.36984 314.633 1.40204C314.633 1.40191 314.633 1.40179 314.633 1.40167ZM307.883 1.58514C308.238 1.51586 308.181 1.44172 308.617 1.52627C308.6 1.45733 308.583 1.38689 308.566 1.319C308.22 1.31764 308.244 1.51777 307.845 1.43737C307.78 1.42408 307.92 1.26421 307.625 1.31563C307.711 1.40094 307.798 1.49563 307.883 1.58514ZM309.646 1.32932C309.242 1.33989 308.919 1.89778 309.665 1.64609C309.776 1.60847 309.95 1.32124 309.646 1.32932ZM322.2 1.77274C322.892 1.78877 322.106 1.6988 321.925 1.61309C323.537 1.54441 321.744 1.63656 321.581 1.35146C321.384 1.43266 321.013 1.61837 321.425 1.66806C321.596 1.68869 321.534 1.6038 321.544 1.60414C321.86 1.62512 321.822 1.76402 322.2 1.77274ZM304.848 1.59978C304.874 1.59558 304.833 1.49928 304.916 1.48002C304.999 1.46091 305.187 1.52828 305.206 1.46918C305.224 1.40971 304.847 1.36364 304.732 1.40699C304.616 1.45074 304.612 1.63689 304.848 1.59978ZM307.508 1.83677C307.853 1.76743 307.289 1.41271 307.214 1.41438C306.558 1.433 307.527 1.72443 307.508 1.83677ZM320.587 2.37546C321.424 2.19517 320.808 1.88204 320.289 1.69451C320.22 1.73264 320.15 1.77082 320.082 1.8086C320.394 1.57691 320.943 1.34788 319.722 1.5499C320.391 1.60437 319.831 1.66665 319.827 1.67971C319.754 2.10526 320.743 1.90756 320.586 2.37546C320.587 2.37546 320.587 2.37546 320.587 2.37546ZM303.73 1.49848C303.358 1.49995 302.41 1.57358 302.853 1.75897C303.144 1.67216 303.436 1.58529 303.73 1.49848ZM334.257 2.35004C334.562 2.45608 334.841 2.45428 335.208 2.44729C334.877 2.29296 335.095 2.27524 335.207 2.23745C335.376 2.18056 334.966 2.18522 334.964 2.17482C334.971 2.0282 335.236 2.00544 334.635 2.00892C334.784 1.95785 334.93 1.90639 335.078 1.85567C334.622 1.849 334.512 1.75334 334.218 1.63648C334.505 1.92203 334.121 1.74324 333.802 1.88531C333.642 1.95644 334.096 2.29581 334.258 2.35004C334.258 2.35004 334.258 2.35004 334.257 2.35004ZM321.453 2.43271C321.539 2.38126 321.618 2.31167 321.701 2.25288C321.792 2.24727 321.883 2.24235 321.974 2.23675C321.985 2.28222 321.994 2.3298 322.008 2.37352C322.127 2.38675 322.08 2.32344 322.116 2.31749C322.116 2.31773 322.116 2.31797 322.116 2.31822C322.625 2.23424 322.832 2.24366 323.229 2.38425C323.229 2.2449 323.229 2.10556 323.229 1.96621C323.14 1.97951 323.05 1.99247 322.96 2.00542C322.913 2.08029 322.865 2.15522 322.818 2.2301C322.715 2.18881 322.612 2.14781 322.509 2.10652C322.426 2.13345 322.326 2.16179 322.254 2.18802C321.841 1.79858 322.78 2.0631 322.788 1.90142C322.794 1.79749 321.848 1.8021 321.711 1.87385C321.691 1.88435 321.896 2.17435 321.549 2.02327C321.495 1.99948 321.476 1.37204 321.1 1.88012C321.047 1.9522 321.234 2.34197 321.453 2.43271ZM324.895 2.63482C324.364 2.23346 326.323 2.65779 325.478 2.32753C325.719 2.14312 325.674 2.14553 325.432 1.98183C325.41 1.96716 325.578 1.91649 325.564 1.91005C325.337 1.81977 325.063 1.86766 325.061 1.70353C324.999 1.71228 324.941 1.72006 324.88 1.72881C325.136 1.88344 324.728 1.9874 324.57 2.11793C324.498 2.17705 324.663 2.19527 324.603 2.24702C324.58 2.26591 324.349 2.22821 324.339 2.28237C324.319 2.40485 324.465 2.57037 324.711 2.66065C324.711 2.66077 324.711 2.66089 324.711 2.66101C324.773 2.65296 324.833 2.64321 324.895 2.63482ZM313.508 2.3023C313.418 2.08044 313.055 2.01697 313.752 1.90841C313.718 1.86471 313.682 1.82138 313.648 1.77768C313.53 1.78154 313.416 1.78538 313.297 1.78889C312.938 2.44257 312.285 1.70499 312.704 2.16853C312.749 2.21892 313.028 2.16259 312.753 2.29945C312.753 2.29957 312.754 2.29969 312.754 2.29981C313.138 2.25777 313.186 2.17916 313.508 2.3023ZM316.085 2.14732C316.973 1.6804 314.859 1.88696 315.212 2.01081C315.244 2.022 316.155 1.9216 316.085 2.14732ZM308.964 2.55437C309.365 2.56238 309.391 2.31049 309.351 2.2198C309.311 2.12882 309.032 2.22079 308.997 2.20647C308.88 2.15924 309.128 2.12801 308.976 2.06328C308.925 2.04226 308.229 1.95255 308.198 1.9634C308.021 2.02366 308.279 2.23147 308.229 2.25526C308.064 2.33328 307.841 2.22519 307.793 2.3357C307.691 2.5715 308.107 2.32393 308.177 2.31991C308.39 2.30868 308.371 2.44142 308.531 2.468C308.69 2.49452 308.794 2.44904 308.935 2.45843C308.982 2.46157 308.943 2.55354 308.964 2.55437ZM310.277 2.0223C309.863 2.21302 310.872 2.42028 310.993 2.37562C311.347 2.24295 310.475 1.93129 310.277 2.0223ZM323.554 2.02918C323.174 2.16743 324.063 2.27925 324.318 2.22359C324.272 2.16616 323.686 1.98159 323.554 2.02918ZM320.356 2.37474C320.704 2.33167 320.243 2.0203 319.952 2.02523C319.781 2.22989 319.942 2.18931 320.132 2.1977C320.322 2.20616 320.085 2.40829 320.356 2.37474ZM304.644 2.32729C304.717 2.33053 305.934 2.16122 305.235 2.09101C305.181 2.08577 304.334 2.11565 304.272 2.14716C304.143 2.21087 304.451 2.31822 304.644 2.32729ZM318.682 2.67719C318.867 2.50014 319.049 2.5025 318.879 2.29466C318.879 2.29466 318.878 2.29466 318.878 2.29466C319.347 2.23097 319.367 2.6562 319.468 2.64709C319.821 2.61515 319.486 2.31251 319.708 2.21311C319.193 2.30658 319.341 2.10249 318.949 2.08958C318.861 2.08678 318.509 2.20868 318.458 2.28463C318.407 2.3606 318.586 2.58831 318.682 2.67719ZM302.926 2.37163C303.339 2.43941 303.72 2.15245 303.144 2.10702C302.865 2.08466 302.675 2.33037 302.926 2.37163ZM343.923 2.44207C343.864 2.36682 343.803 2.29189 343.738 2.21735C343.889 2.1992 344.009 2.18066 344.179 2.16217C344.039 2.18593 343.948 2.20934 343.828 2.23275C344.097 2.25907 344.215 2.39596 343.924 2.44207C343.923 2.44207 343.923 2.44207 343.923 2.44207ZM353.907 2.9902C354.017 3.07965 354.281 2.90303 354.257 2.88116C354.064 2.70748 353.751 2.865 353.907 2.9902ZM324.12 2.71049C324.595 2.74184 324.269 2.37713 323.977 2.35216C324.156 2.4219 323.85 2.69266 324.12 2.71049ZM350.422 2.74222C350.381 2.70902 350.34 2.67579 350.294 2.6423C350.441 2.69251 350.466 2.72294 350.422 2.74222ZM304.837 2.64935C304.908 2.67732 305.441 2.70037 305.514 2.66574C305.664 2.59294 305.246 2.39162 305.002 2.45359C304.975 2.46024 304.765 2.62136 304.838 2.64935C304.837 2.64935 304.837 2.64935 304.837 2.64935ZM344.579 2.58197C344.578 2.57848 344.579 2.57515 344.58 2.57208C344.58 2.57534 344.58 2.5787 344.579 2.58197ZM360.81 9.03097C360.814 9.02703 360.82 9.02432 360.825 9.02338C360.82 9.02562 360.815 9.02896 360.81 9.03097ZM308.6 2.95853C308.778 3.30601 309.191 3.12114 308.865 2.94935C308.847 2.94032 308.643 2.95921 308.6 2.95853Z" fill="#419DDF"/>
</svg>
