<svg width="4" height="35" viewBox="0 0 4 35" fill="none" xmlns="http://www.w3.org/2000/svg">
<path d="M0.333058 13.3718C0.345631 11.9526 0.321563 10.3984 0.402101 8.97455C0.411953 8.79975 0.51252 8.81315 0.526517 8.76426C0.565123 8.63064 0.447449 8.54818 0.457566 8.45052C0.506345 7.9758 0.529791 7.5314 0.57459 7.06563C0.620643 6.58584 0.930532 6.81754 1.0092 6.65172C1.16325 6.32775 0.750958 6.59929 0.661113 6.4698C0.690946 6.09631 0.740569 5.71977 0.790706 5.34589C0.827525 5.43787 0.863533 5.52986 0.897541 5.62278C0.908275 5.45968 0.974638 5.22695 1.07745 5.50183C1.10771 5.44183 1.14288 5.38592 1.17246 5.32424C1.02401 5.30509 1.01618 5.01592 0.928398 4.98823C0.840595 4.96061 0.858536 5.12338 0.850852 5.12227C0.741177 5.10993 0.900828 4.44553 0.913761 4.39764C0.948161 4.27103 1.13091 4.38507 1.12059 4.2768C1.10295 4.09058 0.726104 4.20908 1.22833 3.96452C1.06778 3.86207 1.15202 3.85454 1.16505 3.72791C1.16669 3.71123 1.07272 3.72286 1.07037 3.71547C1.0035 3.52257 1.17581 3.67258 1.18527 3.67171C1.34601 3.65657 1.27761 3.44961 1.29362 3.40644C1.49314 2.86476 1.62865 2.46771 1.6813 1.89388C1.69252 1.76983 1.6328 1.39068 1.66181 1.27089C1.69044 1.15276 1.80517 1.218 1.86158 1.15676C1.58481 1.05336 1.55548 0.958075 1.74195 0.73747C1.54021 0.651453 1.70375 0.664492 1.66543 0.504684C1.6337 0.371673 1.39357 0.137226 1.60314 -0.00566949C1.58185 0.161298 1.68179 0.14541 1.73928 0.334536C1.75832 0.397491 1.75324 1.05109 1.96135 1.00542C2.06983 0.981598 1.97362 0.763574 1.99367 0.755488C2.11054 0.708413 2.25158 0.83135 2.20001 0.937782C2.17695 0.910745 2.15363 0.878226 2.13059 0.849189C1.98194 1.08779 2.54203 0.930249 2.05202 1.1062C1.99191 1.12797 1.9297 1.11831 1.86564 1.15468C1.89181 1.16272 1.95759 1.11804 1.9687 1.15749C1.97989 1.19773 1.85513 1.27205 1.95919 1.28489C2.11051 1.30401 2.05316 1.13714 2.0622 1.12478C2.06128 1.12463 2.06037 1.12449 2.05945 1.12434C2.1415 1.01503 2.14739 1.24584 2.16157 1.25707C2.25499 1.32977 2.3284 1.28216 2.40487 1.39034C2.44844 1.45208 2.42002 1.60729 2.43355 1.66492C2.44744 1.72218 2.5204 1.63444 2.53525 1.67305C2.55009 1.71166 2.49493 1.75867 2.51214 1.80399C2.51973 1.82339 2.59971 1.82355 2.60237 1.83292C2.63171 1.93348 2.46632 1.86543 2.47517 1.95637C2.48107 2.01528 2.6333 2.21491 2.68144 2.0795C2.69659 2.14514 2.70746 2.20908 2.71912 2.27434C2.7435 2.23364 2.76026 2.19146 2.78881 2.15181C2.74897 2.27373 2.88503 2.33108 2.89411 2.40798C2.90316 2.4849 2.73797 2.55137 2.81686 2.63697C2.98469 2.81966 2.91234 2.37219 2.94357 2.31721C2.95585 2.29578 3.08329 2.38055 3.08679 2.39337C3.10207 2.45033 3.00912 2.51611 3.01262 2.55991C3.02578 2.71668 3.14581 2.81426 3.16818 2.96382C3.24421 3.47307 3.30274 4.10428 3.32246 4.58602C3.32969 4.76542 3.19166 4.87133 3.19436 4.95183C3.20078 5.14018 3.3194 5.16493 3.32338 5.3292C3.32968 5.57368 3.22092 5.91643 3.19561 6.12007C3.1782 6.26105 3.29149 6.39052 3.29377 6.42729C3.32777 6.93827 3.31631 7.55914 3.31167 7.9821C3.30952 8.18102 3.17881 8.27364 3.18202 8.31477C3.19559 8.49157 3.30687 8.44581 3.29366 8.58879C3.28662 8.66604 3.18023 8.67899 3.17594 8.68927C3.13965 8.7799 3.27803 8.80002 3.28157 8.87119C3.30196 9.28046 3.20559 9.67302 3.1865 10.0777C3.18503 10.1071 3.12365 10.1036 3.12653 10.1227C3.14044 10.2046 3.2377 10.168 3.24351 10.2535C3.25602 10.4313 3.23743 10.6134 3.22249 10.8015C3.22102 10.8201 3.14195 10.8274 3.14131 10.87C3.1407 10.9128 3.21508 10.9462 3.20995 11.0132C3.1966 11.1883 3.1046 11.36 3.09705 11.5455C3.09591 11.5762 3.19048 11.6156 3.18878 11.6617C3.18357 11.8062 3.09417 12.019 3.08925 12.1428C3.07362 12.5512 3.12237 12.9289 3.11757 13.3138C3.11623 13.4042 3.02697 13.4831 3.0242 13.5301C3.01816 13.6361 3.10257 13.5573 3.10138 13.6648C3.09094 14.5427 3.04049 15.4235 3.03445 16.3118C3.03192 16.6607 3.11201 17.0865 3.0834 17.4233C3.07124 17.5634 2.95575 17.5871 2.95329 17.6863C2.9494 17.8631 3.09652 17.8973 3.10857 18.084C3.11799 18.2331 2.96821 18.4016 2.9751 18.5566C2.98198 18.7116 3.12407 18.7851 3.13868 18.9633C3.15057 19.11 3.0827 19.3137 3.09092 19.4734C3.16661 20.9369 3.20482 22.3774 3.07184 23.8469C3.02488 24.3654 3.03721 24.9416 2.88888 25.476C2.87485 25.5262 2.73775 25.4472 2.76447 25.6091C2.77898 25.6962 2.89633 25.819 2.89943 26.0197C2.91738 27.2129 2.64447 28.4815 2.67753 29.6949C2.72752 31.5126 3.68411 33.4093 2.22241 34.9674C2.15064 35.0438 1.80491 34.9968 1.70718 34.949C1.77811 34.907 1.8622 34.8684 1.94226 34.8245C1.51034 34.7616 1.62287 34.7732 1.66471 34.5634C1.69068 34.4343 1.50413 34.5351 1.45259 34.4653C1.38598 34.3749 1.17823 33.9518 1.46365 34.0367C1.41434 34.0099 1.36709 33.9852 1.31881 33.9592C1.27977 33.6544 1.21224 33.358 1.13426 33.0594C1.12062 33.0078 1.03073 33.0042 1.01714 32.9509C0.980003 32.8078 1.04069 32.6955 1.0337 32.5485C1.02994 32.4686 0.926182 32.4561 0.934323 32.3517C0.942504 32.2474 1.08275 32.2517 0.932324 32.107C0.754994 32.1973 0.888617 31.7852 0.879878 31.6378C0.878784 31.6164 0.723168 31.4389 0.742674 31.3461C0.761852 31.2529 0.864889 31.1124 0.809617 30.9671C0.783643 30.8989 0.661088 30.8561 0.655128 30.7829C0.650964 30.7314 0.761302 30.6712 0.766794 30.6062C0.772271 30.5412 0.684432 30.3991 0.68332 30.3733C0.678703 30.2801 0.75419 30.3839 0.758975 30.3203C0.780862 30.0131 0.827205 29.6565 0.779757 29.3527C0.774012 29.3153 0.682609 29.3656 0.679658 29.3606C0.572027 29.106 0.688229 29.2428 0.770384 29.1756C0.849826 29.1106 0.813924 28.6257 0.656361 28.6199C0.853943 28.6079 0.704733 28.4981 0.699339 28.47C0.678521 28.3609 0.848978 28.3847 0.797667 28.2785C0.778984 28.2395 0.662486 28.3132 0.666464 28.2716C0.67633 28.169 0.863076 28.0791 0.883591 27.9425C0.888612 27.9095 0.806168 27.8976 0.809807 27.8389C0.813489 27.7801 0.918059 27.535 0.742238 27.6463C0.883969 27.4987 0.807782 27.4675 0.814116 27.2937C0.815918 27.2497 0.949835 27.1948 0.909903 27.1005C0.89635 27.0686 0.768035 27.0677 0.767667 27.0199C0.766463 26.9108 0.900749 26.8098 0.907976 26.6714C0.921819 26.4125 0.832391 26.1354 0.86949 25.8658C0.879661 25.7926 1.0084 25.8127 1.01241 25.706C1.01264 25.6903 0.902921 25.5602 0.914464 25.4866C0.921396 25.4423 1.00308 25.2133 1.01004 25.167C1.02123 25.0905 0.896671 25.075 0.921671 25.0333C0.99374 24.9128 1.17599 25.0129 0.92685 24.8631C1.0668 24.817 1.05409 24.7314 1.22593 24.7065C1.03875 24.654 1.2202 24.5921 1.15864 24.4948C1.09703 24.3974 0.734252 24.3131 1.12614 24.2953C1.0792 24.2496 1.00073 24.0564 0.99524 24.024C0.979823 23.9283 1.0874 23.9809 1.0738 23.9086C1.07153 23.8959 0.997281 23.9081 1.00575 23.8269C1.01141 23.7735 1.02154 23.3823 1.03202 23.3591C1.15178 23.0941 1.1034 23.5054 1.18274 23.5642C1.16154 23.5741 1.14027 23.5838 1.11931 23.5944C1.08265 23.7117 1.25093 23.647 1.29053 23.5942C1.33013 23.5413 1.25701 23.4405 1.31258 23.3968C1.34048 23.3751 1.54089 23.3917 1.5157 23.4582C1.57852 23.3875 1.64236 23.4862 1.70084 23.4588C1.76494 23.4285 1.78913 23.1072 1.67862 23.1039C1.67391 23.1639 1.67666 23.2387 1.67125 23.2994C1.47801 23.3761 0.825411 23.1254 1.09066 22.9079C1.2826 22.75 1.42962 23.0168 1.27586 22.6347C1.26732 22.693 1.24867 22.7422 1.23987 22.7951C1.09572 22.7987 1.25536 22.7149 1.21016 22.6699C1.18806 22.6482 1.08416 22.7782 1.05185 22.6636C1.25927 22.5684 1.05312 22.4899 1.05302 22.3253C1.08911 22.3716 1.125 22.4179 1.16109 22.4642C1.31447 22.1882 1.35453 22.8348 1.44588 22.2953C1.45159 22.3605 1.4489 22.4252 1.45811 22.4907C1.53416 22.4601 1.75534 22.514 1.80263 22.4863C1.92676 22.4136 1.85415 22.3024 1.86625 22.2118C1.87136 22.1722 1.93093 22.1977 1.93132 22.1943C1.93874 22.14 1.85075 22.1508 1.84583 22.103C1.8397 22.0428 1.92755 21.8705 1.91822 21.8423C1.89442 21.7691 1.71938 21.8878 1.70653 21.8806C1.62325 21.833 1.69422 21.7393 1.58435 21.7427C1.65665 21.9718 1.55026 22.6275 1.37715 22.0304C1.1974 22.1918 0.953496 22.141 0.93761 21.905C0.924299 21.7099 1.0205 21.8371 1.12973 21.7371C1.14341 21.7242 1.19867 21.4638 1.12267 21.4494C1.29799 21.4623 1.4546 21.3796 1.63483 21.4392C1.6613 21.4479 1.64928 21.5549 1.79538 21.5196C1.86877 21.502 2.02868 21.4506 2.12164 21.4606C2.05723 21.4376 1.98474 21.4135 1.91754 21.3902C1.90094 21.2294 1.97099 21.2076 2.09297 21.1215C2.04252 21.1248 1.82963 21.2029 1.89578 21.0806C1.89971 21.0744 1.97579 21.07 2.01438 21.0079C2.09176 20.8825 2.11564 20.8564 2.33741 20.9567C2.21386 20.6929 2.46339 20.64 2.3945 20.3704C2.10686 20.4197 2.17654 20.5151 2.22831 20.7619C2.15992 20.7716 2.09232 20.7757 2.02323 20.7857C2.18256 20.4605 2.16449 20.6221 2.02862 20.4346C1.99532 20.3887 2.0351 20.1471 1.84079 20.2252C1.79507 20.2436 1.79815 20.394 1.72675 20.3758C1.71315 20.3722 1.68106 20.1889 1.6998 20.1731C1.93118 19.9741 2.08526 20.3378 2.00995 19.7795C2.00773 19.7642 1.92429 19.7576 1.91309 19.7274C1.89221 19.6707 1.98897 19.6714 1.96736 19.6207C1.94569 19.57 1.81656 19.4983 1.93794 19.4242C2.15896 19.2888 2.28028 19.6174 2.16203 19.7613C2.44741 19.8245 2.46857 18.7847 2.445 18.72C2.34231 18.4371 2.39722 18.9062 2.31748 18.9291C2.28375 18.9387 1.85804 18.9276 2.13263 19.05C2.214 19.0862 2.32398 18.9413 2.36788 19.0294C2.41177 19.1175 2.28689 19.081 2.27805 19.0872C2.24776 19.1086 2.29291 19.2022 2.27496 19.214C2.00252 19.3958 1.59509 19.3729 2.20081 19.1355C2.06623 19.0264 1.84576 19.2693 1.75528 19.1348C1.64532 18.9713 1.84116 18.8559 1.8502 18.8357C1.95722 18.5932 1.66977 18.8704 1.76458 18.5738C1.81734 18.4086 1.94966 18.8247 1.93653 18.4456C1.92532 18.1283 1.8242 18.2981 1.60023 18.2719C1.54783 18.2657 1.48597 18.091 1.50567 18.328C1.564 18.3355 1.64082 18.3492 1.6945 18.365C1.65101 18.4224 1.35721 18.515 1.34654 18.5456C1.29575 18.6955 1.44764 18.6904 1.26761 18.7766C1.46407 18.716 1.34476 18.8175 1.3855 18.8568C1.53561 19.0028 1.59488 18.815 1.39471 19.135C1.48699 19.0942 1.57751 19.0575 1.66942 19.018C1.67201 19.0568 1.67468 19.0956 1.67728 19.1343C1.47456 19.1892 1.49744 19.3952 1.29682 19.2061C1.23589 19.4292 1.27861 19.5204 1.43498 19.5717C1.46483 19.5814 1.47634 19.6153 1.47866 19.6548C1.52293 19.648 1.65953 19.6404 1.67618 19.6468C1.82257 19.7047 1.56706 19.7875 1.47043 19.7566C1.46539 19.7842 1.45963 19.806 1.45716 19.8137C1.44139 19.8625 1.355 19.7652 1.32435 19.8045C1.31438 19.8174 1.3315 19.9557 1.29578 19.9579C1.06681 19.9713 1.23508 19.7465 1.09564 20.2008C1.30368 20.2148 1.26093 20.0022 1.4813 20.0598C1.71804 20.1216 1.39765 20.2362 1.68876 20.2664C1.6407 20.2754 1.60067 20.2791 1.546 20.2867C1.67036 20.473 1.42756 20.472 1.37316 20.5276C1.26697 20.6356 1.2755 21.1392 1.49225 20.6903C1.5123 20.7566 1.52105 20.8243 1.53866 20.8903C1.10324 20.8991 1.27703 20.8615 1.20603 21.1773C1.19034 21.2469 0.998606 21.2669 1.22497 21.3385C1.0021 21.326 1.13387 21.5343 1.10653 21.5532C0.928772 21.6742 0.690338 21.2121 1.08543 21.1589C0.933035 21.0793 1.13595 21.0825 1.11029 20.9957C1.07323 20.8703 1.03396 20.8524 1.18584 20.7063C0.976923 20.5574 1.08485 21.2761 0.811123 20.8374C0.537422 20.3987 0.417446 17.865 0.383892 17.2739C0.323244 16.203 0.28165 15.6398 0.307975 14.6789C0.310379 14.5841 0.300371 13.8682 0.542076 14.0204C0.576762 14.0423 0.665097 14.3514 0.860267 14.0901C0.746492 14.1422 0.67533 13.9859 0.66362 13.9727C0.39776 13.6701 0.329138 13.8421 0.333058 13.3718ZM2.52769 12.0085C2.46329 12.6216 2.63273 12.173 2.99902 12.3057C3.00119 12.227 3.00333 12.1485 3.0055 12.0697C2.98211 12.0901 2.9588 12.1102 2.93541 12.1305C2.93541 12.1306 2.93541 12.1307 2.93541 12.1308C2.79952 12.0901 2.66358 12.0492 2.52769 12.0085ZM2.91748 1.97724C2.96561 2.00188 3.01383 2.02624 3.06088 2.05287C3.04468 2.13375 3.02876 2.21434 3.01256 2.29523C2.97981 2.28508 2.94666 2.27525 2.91392 2.2651C2.91668 2.16918 2.91958 2.07356 2.91748 1.97724ZM2.21408 19.8479C2.07774 19.9608 2.31826 19.9539 2.20656 20.1049C2.38422 20.0887 2.55804 20.0704 2.73397 20.0532C2.70938 19.9367 2.6423 19.9094 2.68745 19.7839C2.63023 19.7978 2.57266 19.812 2.51509 19.8255C2.52702 19.8467 2.54062 19.8692 2.55116 19.8897C2.39116 19.9198 2.37023 19.7179 2.21372 19.8475C2.21384 19.8476 2.21396 19.8478 2.21408 19.8479ZM2.26867 21.0256C2.2447 21.087 2.15438 21.3304 2.22738 21.3649C2.47491 21.4816 2.32666 20.7891 2.54089 21.301C2.57588 21.2991 2.6101 21.3019 2.6447 21.3024C2.65827 21.2098 2.67014 21.1175 2.68127 21.0241C2.54335 21.0272 2.4073 21.0219 2.26867 21.0256ZM2.51135 14.229C2.4908 14.3236 2.60153 14.7777 2.76141 14.6325C2.80822 14.5898 2.5854 14.3845 2.59629 14.3079C2.60332 14.2583 2.72628 14.3158 2.68219 14.217C2.62759 14.2205 2.56707 14.2224 2.51171 14.2292C2.51159 14.2292 2.51147 14.2291 2.51135 14.229ZM1.79381 14.0407C1.81445 14.1392 1.84096 14.239 1.86299 14.3382C2.00501 14.2681 1.91647 14.1249 2.11499 14.1194C2.12964 14.1467 2.14422 14.1736 2.15887 14.2008C2.1152 14.2209 2.07149 14.2406 2.02782 14.2604C2.13438 14.3467 2.18866 14.2961 2.15526 14.4536C2.4565 14.3624 2.61771 14.347 2.3182 14.0722C2.48017 14.1256 3.01101 14.0851 2.63429 13.9299C2.56436 13.9008 2.51569 14.0172 2.50447 14.0184C2.36499 14.0344 2.27707 13.9682 2.14528 13.9856C2.08567 13.9935 2.08556 14.0649 2.00282 14.0744C1.96247 14.0788 1.8485 14.0092 1.79381 14.0407ZM2.50259 13.8552C2.58648 13.8868 2.78808 13.7858 2.7488 13.6951C2.68782 13.5537 2.49432 13.7726 2.50259 13.8552ZM2.9173 1.9767C2.91736 1.97688 2.91742 1.97706 2.91748 1.97724C2.9173 1.97715 2.91712 1.97706 2.91693 1.97696C2.91706 1.97687 2.91718 1.97679 2.9173 1.9767ZM2.37081 20.7085C2.44146 20.7823 2.42947 20.8899 2.54356 20.8836C2.52066 20.9186 2.49811 20.9541 2.47521 20.9891C2.50948 20.9893 2.54383 20.9891 2.57776 20.9893C2.60062 20.8831 2.62355 20.7773 2.64676 20.6711C2.5549 20.6831 2.4627 20.6942 2.37081 20.7085ZM2.27441 21.8674C2.26096 22.001 2.41764 21.8911 2.4921 21.9215C2.56657 21.9519 2.50394 22.0703 2.61157 22.0578C2.61689 21.9791 2.62229 21.897 2.62728 21.8173C2.5101 21.8366 2.39086 21.8496 2.27441 21.8676C2.27441 21.8676 2.27441 21.8675 2.27441 21.8674ZM2.6856 9.50502C2.6507 9.59532 2.5329 9.55658 2.6689 9.73781C2.66891 9.73768 2.66891 9.73754 2.66891 9.73741C2.76826 9.56823 2.85776 9.34988 2.7667 9.1603C2.64022 9.27366 2.74012 9.36291 2.6856 9.50502ZM2.56776 19.5354C2.47455 19.4957 2.39369 19.6731 2.48024 19.7138C2.62034 19.7795 2.70934 19.5958 2.56776 19.5354ZM1.9075 5.82618C1.62082 5.68394 1.29306 5.941 1.42909 6.21703C1.441 6.2409 1.53532 6.0653 1.59091 6.11852C1.59638 6.12389 1.58812 6.22091 1.62792 6.24551C1.66782 6.27012 1.76158 6.24621 1.80021 6.28616C1.86772 6.35626 1.73857 6.51064 1.82774 6.56365C1.83969 6.57064 1.96599 6.47556 1.97083 6.46955C2.04782 6.37117 1.8859 6.27298 1.88504 6.25759C1.88057 6.1784 2.00842 6.19219 2.03879 6.17259C2.09593 6.13567 2.0403 6.06845 2.04456 6.06383C2.15855 5.94538 2.1225 6.21925 2.16816 6.25697C2.2913 6.35854 2.40842 6.2678 2.47533 6.50814C2.48163 6.53095 2.47022 6.8029 2.61846 6.46211C2.90764 7.13956 2.79325 6.12628 2.72904 6.01552C2.69926 5.96446 2.57615 6.03937 2.52167 6.00789C2.39707 5.93599 2.37663 5.81618 2.19943 5.82433C1.82687 5.84207 2.06853 6.00248 2.00435 6.10973C1.92368 6.09723 1.84491 6.09177 1.76613 6.06961C1.87204 6.1035 1.92908 5.8365 1.90823 5.82619C1.90799 5.82618 1.90774 5.82618 1.9075 5.82618ZM2.30847 7.53643C2.19398 7.68604 2.42911 7.67869 2.29276 7.81531C2.502 7.94049 2.49129 7.69932 2.50358 7.67142C2.55859 7.54402 2.78797 7.55024 2.71926 7.41811C2.58286 7.46123 2.44517 7.49598 2.30847 7.53643ZM2.42411 6.22256C2.54163 6.32539 2.5422 6.14439 2.56505 6.13737C2.80751 6.0609 2.75287 6.60214 2.42411 6.22256ZM2.0302 14.8113C2.02143 14.8626 2.1358 14.8316 2.1688 14.8774C2.20208 14.9232 2.10238 15.077 2.17332 15.0741C2.24441 15.0711 2.43268 14.7894 2.46849 15.0754C2.5085 15.0663 2.5382 15.07 2.57429 15.0658C2.57646 14.9874 2.57934 14.9083 2.58151 14.8298C2.46614 14.8713 2.34478 14.9137 2.23327 14.9535C2.14257 14.9081 2.26007 14.885 2.2601 14.8827C2.25998 14.8827 2.25986 14.8827 2.25974 14.8827C2.25172 14.8004 2.04975 14.6962 2.0302 14.8113ZM2.44556 10.771C2.1606 10.7516 2.47737 10.8773 2.512 10.9276C2.54651 10.9778 2.43996 11.0446 2.56304 11.0207C2.64887 10.9415 2.47737 10.7732 2.4452 10.771C2.44532 10.771 2.44544 10.771 2.44556 10.771ZM2.29728 8.35795C2.36469 8.48569 2.43912 8.46663 2.35231 8.62048C2.42133 8.61546 2.49185 8.61046 2.55982 8.60542C2.56298 8.48227 2.36275 8.48806 2.44522 8.34671C2.45885 8.32354 2.61797 8.37585 2.5681 8.26968C2.48235 8.29914 2.38722 8.32888 2.29728 8.35795ZM2.5439 8.98979C2.53545 8.84411 1.9793 8.7207 2.22705 8.99234C2.26409 9.03261 2.55038 9.09936 2.5439 8.98979ZM2.03529 13.4686C2.01567 13.7159 2.1097 13.436 2.19634 13.3727C2.25667 13.9501 2.17381 13.3073 2.45972 13.2539C2.37954 13.1823 2.19577 13.0479 2.14396 13.1936C2.12244 13.2544 2.20765 13.2333 2.20725 13.237C2.18464 13.3491 2.04596 13.3335 2.03529 13.4686ZM2.29849 7.27348C2.30255 7.28289 2.39906 7.26963 2.41788 7.29962C2.43656 7.32963 2.3682 7.396 2.4272 7.40352C2.48656 7.41101 2.53461 7.27662 2.49187 7.23457C2.44873 7.19256 2.26262 7.1885 2.29849 7.27348ZM2.04763 8.22018C2.11516 8.34486 2.47279 8.14766 2.47152 8.12074C2.45635 7.88413 2.15986 8.22879 2.04763 8.22018ZM1.44096 12.8851C1.6169 13.1861 1.93316 12.9722 2.12339 12.788C2.08562 12.7628 2.04781 12.7369 2.01038 12.712C2.24043 12.8275 2.46658 13.0273 2.27092 12.5871C2.21299 12.8257 2.15362 12.6244 2.14058 12.6226C1.71546 12.5902 1.908 12.9476 1.44096 12.8848C1.44096 12.8849 1.44096 12.885 1.44096 12.8851ZM2.40567 6.87265C2.4061 6.74273 2.33743 6.40402 2.14974 6.55891C2.23503 6.66361 2.32038 6.76795 2.40567 6.87265ZM1.39606 17.7711C1.28852 17.8758 1.28893 17.9736 1.29406 18.1046C1.45004 17.989 1.46666 18.0667 1.50389 18.1069C1.55991 18.168 1.55733 18.022 1.56773 18.0217C1.7143 18.0265 1.73574 18.1199 1.73527 17.9079C1.78559 17.961 1.83631 18.0135 1.88628 18.0666C1.89524 17.9051 1.99143 17.8685 2.10975 17.7677C1.82281 17.8631 2.00345 17.7347 1.86308 17.6138C1.7928 17.5535 1.45106 17.7179 1.39606 17.7715C1.39606 17.7714 1.39606 17.7713 1.39606 17.7711ZM1.37924 13.1927C1.43024 13.2241 1.49941 13.2532 1.55777 13.2838C1.56291 13.3162 1.56736 13.3487 1.5725 13.3812C1.52697 13.3845 1.47935 13.3872 1.43556 13.3913C1.42171 13.4337 1.48526 13.418 1.49103 13.4308C1.49078 13.4308 1.49054 13.4308 1.4903 13.4308C1.57164 13.6138 1.56113 13.6882 1.4185 13.8286C1.55783 13.8306 1.69716 13.8326 1.83649 13.8346C1.82366 13.8024 1.81117 13.7698 1.79869 13.7376C1.72407 13.7195 1.6494 13.7014 1.57477 13.6833C1.61659 13.6468 1.65812 13.6107 1.69994 13.5742C1.67344 13.5442 1.64562 13.5081 1.61977 13.482C2.01131 13.3397 1.74195 13.672 1.90357 13.6773C2.00746 13.6808 2.00775 13.3423 1.93672 13.2925C1.92632 13.2853 1.63528 13.3544 1.78814 13.2327C1.81221 13.2137 2.43968 13.2158 1.9336 13.0751C1.8618 13.055 1.4711 13.1159 1.37924 13.1927ZM1.15938 14.4187C1.56344 14.2341 1.12902 14.9303 1.46361 14.632C1.64676 14.7211 1.64459 14.705 1.80952 14.6202C1.8243 14.6128 1.8741 14.6737 1.88061 14.6687C1.97206 14.5885 1.92559 14.4897 2.08971 14.4914C2.08128 14.4692 2.0738 14.4484 2.06537 14.4263C1.90943 14.5158 1.80759 14.3684 1.67789 14.3101C1.61915 14.2836 1.60007 14.3424 1.54864 14.32C1.52987 14.3118 1.56876 14.2298 1.51465 14.2257C1.39228 14.2169 1.22603 14.2664 1.1345 14.3529C1.13438 14.3529 1.13425 14.3529 1.13413 14.3529C1.14186 14.375 1.1513 14.3965 1.15938 14.4187ZM1.55087 10.3568C1.77318 10.3276 1.83854 10.1987 1.94345 10.4496C1.98732 10.4379 2.03084 10.4258 2.07471 10.4141C2.07146 10.372 2.06822 10.3312 2.06533 10.2885C1.41359 10.1509 2.1545 9.92752 1.68883 10.0707C1.6382 10.0864 1.69308 10.1869 1.55767 10.0865C1.55754 10.0866 1.55742 10.0868 1.55729 10.0869C1.59732 10.225 1.67568 10.2434 1.55087 10.3568ZM1.69244 11.2794C2.15469 11.6031 1.95915 10.8449 1.83348 10.9693C1.82212 10.9805 1.91778 11.3073 1.69244 11.2794ZM1.32252 8.7289C1.31244 8.87094 1.56416 8.88397 1.65506 8.87093C1.74623 8.85787 1.65571 8.75811 1.67022 8.74561C1.71805 8.7049 1.74799 8.79313 1.81349 8.74032C1.83477 8.72282 1.9281 8.47646 1.91741 8.46497C1.85807 8.4011 1.64895 8.49025 1.62541 8.47188C1.54827 8.41202 1.65751 8.3338 1.54726 8.31519C1.31202 8.27511 1.55739 8.42736 1.56105 8.45253C1.57116 8.52847 1.43854 8.51995 1.41113 8.57632C1.38378 8.63264 1.42872 8.67036 1.4186 8.72025C1.41522 8.73685 1.32346 8.7217 1.32252 8.7289ZM1.84767 9.2066C1.65914 9.05539 1.44663 9.41397 1.49066 9.4575C1.62147 9.58558 1.93763 9.279 1.84767 9.2066ZM1.77184 13.9509C1.63557 13.8131 1.51918 14.1279 1.57353 14.2192C1.6312 14.2032 1.81875 13.9983 1.77184 13.9509ZM1.44287 12.8023C1.48413 12.9278 1.79787 12.7667 1.79446 12.6624C1.5907 12.5985 1.63044 12.6565 1.62107 12.7245C1.61162 12.7923 1.41074 12.7044 1.44287 12.8023ZM1.57212 7.19005C1.56849 7.21695 1.73143 7.65347 1.80528 7.40505C1.8108 7.38609 1.78536 7.08179 1.7542 7.05831C1.69117 7.01106 1.58221 7.12076 1.57212 7.19005ZM1.14915 12.1992C1.32522 12.2678 1.32191 12.3328 1.53061 12.275C1.53061 12.2749 1.53062 12.2748 1.53062 12.2747C1.59188 12.4429 1.16658 12.4442 1.17516 12.4804C1.20527 12.6069 1.50961 12.4918 1.60786 12.5723C1.51707 12.387 1.72037 12.4427 1.73531 12.303C1.73856 12.2717 1.6185 12.1444 1.54283 12.1249C1.46713 12.1055 1.23852 12.1664 1.14915 12.1992ZM1.53676 6.57619C1.46684 6.72175 1.75181 6.86001 1.80022 6.65741C1.82403 6.55859 1.57933 6.48732 1.53676 6.57619ZM1.25574 21.2225C1.33128 21.2012 1.40652 21.1793 1.48138 21.1563C1.4988 21.2106 1.51659 21.265 1.53436 21.3193C1.51117 21.2762 1.48835 21.2331 1.46552 21.1897C1.43783 21.2908 1.30033 21.3353 1.25574 21.2228C1.25574 21.2227 1.25574 21.2226 1.25574 21.2225ZM1.14683 24.8345C1.07374 24.8788 1.29676 24.9715 1.31442 24.9604C1.44602 24.8768 1.24815 24.7729 1.14683 24.8345ZM1.0877 14.1419C1.05391 14.3102 1.42026 14.1993 1.44673 14.0962C1.37608 14.1585 1.10691 14.0464 1.0877 14.1419ZM1.18274 23.5642C1.2143 23.5495 1.24588 23.5347 1.27752 23.5181C1.23316 23.5709 1.20371 23.5797 1.18274 23.5642ZM1.24909 7.25448C1.22074 7.27985 1.1949 7.47007 1.22915 7.49631C1.30117 7.55076 1.50464 7.40503 1.44396 7.31669C1.43745 7.30691 1.27745 7.22925 1.24908 7.25488C1.24908 7.25475 1.24909 7.25462 1.24909 7.25448ZM1.11279 21.4488C1.11628 21.4486 1.11961 21.4488 1.12267 21.4494C1.11942 21.4491 1.11605 21.4491 1.11279 21.4488ZM0.639679 28.6211C0.645351 28.6202 0.650974 28.6197 0.656361 28.6199C0.651064 28.6202 0.645485 28.621 0.639679 28.6211ZM0.920287 8.59401C0.571914 8.65247 0.754638 8.80132 0.928097 8.68827C0.937219 8.68194 0.919384 8.60938 0.920287 8.59401Z" fill="#419DDF"/>
</svg>
