<svg width="947" height="17" viewBox="0 0 947 17" fill="none" xmlns="http://www.w3.org/2000/svg">
<path d="M583.96 12.3619C621.26 12.3542 662.096 12.3079 699.546 12.3681C704.143 12.3755 703.829 12.4762 705.119 12.4895C708.645 12.5262 710.768 12.4074 713.338 12.4161C725.833 12.4581 737.52 12.4752 749.778 12.5133C762.404 12.5525 756.431 12.8657 760.819 12.942C769.391 13.0914 762.099 12.683 765.469 12.5913C775.295 12.6158 785.21 12.6601 795.054 12.7049C792.651 12.743 790.247 12.7803 787.817 12.8156C792.108 12.824 798.249 12.8871 791.064 12.9938C792.652 13.0232 794.134 13.0576 795.766 13.0863C796.214 12.9376 803.811 12.9256 804.505 12.8374C805.198 12.7492 800.927 12.7695 800.954 12.7618C801.237 12.652 818.757 12.8021 820.021 12.8144C823.361 12.8469 820.433 13.0313 823.274 13.0194C828.161 12.9991 824.906 12.624 831.521 13.1227C834.153 12.9607 834.383 13.0448 837.716 13.0561C838.155 13.0575 837.814 12.9637 838.007 12.9612C843.052 12.8916 839.174 13.066 839.2 13.0755C839.658 13.236 845.072 13.1646 846.212 13.18C860.523 13.3718 871.008 13.5016 886.109 13.546C889.373 13.5555 899.315 13.4904 902.473 13.5177C905.589 13.5446 903.917 13.6603 905.548 13.7158C908.161 13.4376 910.655 13.4069 916.522 13.5902C918.707 13.3872 918.426 13.5509 922.611 13.5103C926.095 13.4767 932.166 13.2333 936 13.4408C931.604 13.4219 932.059 13.5216 927.11 13.5818C925.463 13.6017 908.285 13.6059 909.563 13.8134C910.23 13.9215 915.923 13.8222 916.143 13.8421C917.424 13.9583 914.246 14.1011 911.43 14.0511C912.132 14.0276 912.977 14.0038 913.732 13.9804C907.406 13.8351 911.756 14.3929 906.948 13.9055C906.354 13.8457 906.584 13.7834 905.604 13.7198C905.403 13.7461 906.602 13.8112 905.569 13.8229C904.515 13.8347 902.516 13.711 902.217 13.8152C901.772 13.9668 906.135 13.9071 906.464 13.9159C906.467 13.915 906.471 13.9141 906.474 13.9132C909.378 13.9937 903.314 14.0028 903.024 14.0172C901.149 14.1116 902.428 14.1843 899.613 14.2624C898.007 14.3068 893.918 14.2806 892.408 14.295C890.909 14.3097 893.242 14.3814 892.233 14.3968C891.224 14.4122 889.967 14.3577 888.783 14.3755C888.276 14.3834 888.302 14.4634 888.056 14.4662C885.425 14.4969 887.151 14.3306 884.764 14.3407C883.218 14.3475 878.029 14.5025 881.606 14.5487C879.887 14.5648 878.21 14.5766 876.5 14.5892C877.578 14.613 878.693 14.6292 879.746 14.6571C876.527 14.619 875.071 14.7559 873.053 14.7661C871.035 14.7762 869.226 14.612 867.006 14.6921C862.268 14.8625 874.001 14.7838 875.457 14.8142C876.025 14.8262 873.845 14.9549 873.509 14.9585C872.018 14.9746 870.255 14.8826 869.105 14.8868C864.99 14.9022 862.47 15.0236 858.548 15.0481C845.194 15.1314 828.627 15.1989 815.974 15.2255C811.262 15.2353 808.427 15.0988 806.312 15.1026C801.365 15.1117 800.759 15.2307 796.444 15.237C790.021 15.2468 780.972 15.143 775.611 15.1206C771.9 15.1052 768.54 15.2203 767.574 15.2231C754.158 15.2644 737.837 15.2618 726.72 15.2632C721.491 15.2639 719.008 15.1345 717.929 15.1383C713.287 15.1544 714.532 15.265 710.769 15.2539C708.737 15.2479 708.356 15.1418 708.084 15.1376C705.689 15.1026 705.212 15.2413 703.343 15.2458C692.595 15.2721 682.242 15.1813 671.599 15.168C670.827 15.167 670.896 15.1055 670.396 15.1087C668.248 15.1238 669.246 15.2205 667.002 15.2275C662.334 15.2426 657.541 15.2266 652.592 15.2143C652.102 15.2131 651.881 15.1342 650.76 15.1341C649.637 15.1341 648.785 15.209 647.022 15.2048C642.416 15.194 637.87 15.1044 632.991 15.0995C632.184 15.0988 631.184 15.1939 629.973 15.1929C626.174 15.1898 620.548 15.1034 617.293 15.1003C606.553 15.0905 596.645 15.1446 586.529 15.1453C584.151 15.1453 582.045 15.0571 580.808 15.055C578.02 15.0505 580.123 15.1338 577.298 15.1341C554.222 15.1362 531.057 15.0984 507.708 15.105C498.539 15.1075 487.378 15.1936 478.516 15.1698C474.831 15.1597 474.162 15.0445 471.556 15.0435C466.908 15.0421 466.065 15.1897 461.161 15.2044C457.248 15.216 452.763 15.0686 448.692 15.0777C444.621 15.0868 442.742 15.23 438.065 15.2471C434.213 15.2611 428.835 15.1961 424.641 15.2066C386.21 15.3032 348.366 15.362 309.697 15.25C296.053 15.2105 280.915 15.231 266.814 15.0904C265.49 15.0771 267.516 14.9388 263.27 14.9679C260.988 14.9836 257.803 15.1027 252.531 15.1087C221.179 15.1437 187.738 14.8889 155.861 14.9393C108.111 15.0153 58.6233 15.9988 17.1292 14.5595C15.0938 14.4889 16.1976 14.1425 17.417 14.0441C18.5486 14.1144 19.5948 14.198 20.7791 14.2774C22.2704 13.8446 22.0074 13.9573 27.5349 13.9961C30.938 14.0202 28.2197 13.8352 30.0337 13.7826C32.3853 13.7147 43.4262 13.501 41.3028 13.7876C41.9872 13.7379 42.6188 13.6903 43.2857 13.6416C51.2789 13.5982 59.0449 13.5265 66.8627 13.4442C68.2131 13.4299 68.2754 13.3399 69.6703 13.3256C73.4166 13.2864 76.391 13.3455 80.2515 13.3364C82.3486 13.3315 82.6395 13.2276 85.3859 13.2342C88.1307 13.2409 88.0705 13.3812 91.8154 13.2287C89.3761 13.0527 100.257 13.1804 104.127 13.1696C104.688 13.1682 109.294 13.01 111.742 13.0282C114.199 13.0461 117.928 13.1471 121.727 13.0897C123.508 13.0628 124.589 12.9396 126.511 12.9326C127.862 12.9277 129.485 13.0372 131.196 13.0418C132.906 13.0463 136.607 12.9565 137.285 12.955C139.732 12.949 137.032 13.026 138.706 13.0299C146.787 13.0474 156.176 13.0886 164.143 13.0368C165.123 13.0306 163.767 12.9399 163.898 12.9369C170.547 12.8256 166.998 12.9437 168.793 13.0249C170.533 13.1034 183.261 13.0606 183.354 12.903C183.745 13.1004 186.575 12.9496 187.31 12.9438C190.169 12.9214 189.609 13.0922 192.381 13.0394C193.398 13.0202 191.417 12.9047 192.511 12.9081C195.213 12.9165 197.645 13.1019 201.242 13.1205C202.111 13.1251 202.393 13.0425 203.938 13.0453C205.484 13.0481 211.965 13.1492 208.974 12.9749C212.904 13.1146 213.696 13.0379 218.267 13.0418C219.425 13.0429 220.916 13.1761 223.38 13.1348C224.214 13.1208 224.189 12.9925 225.444 12.9914C228.313 12.9887 231.016 13.1215 234.657 13.1267C241.465 13.1369 248.714 13.0435 255.812 13.0767C257.741 13.0859 257.26 13.2149 260.066 13.2174C260.478 13.2174 263.857 13.1058 265.797 13.1163C266.964 13.1226 273.01 13.201 274.23 13.2073C276.247 13.2174 276.607 13.0926 277.711 13.117C280.905 13.1874 278.343 13.371 282.186 13.1198C283.45 13.2591 285.696 13.2451 286.415 13.4166C287.722 13.2287 289.418 13.4092 291.953 13.3463C294.489 13.2833 296.568 12.9193 297.182 13.3109C298.367 13.2633 303.413 13.1821 304.264 13.1762C306.773 13.1594 305.432 13.2677 307.325 13.2531C307.658 13.2506 307.309 13.1766 309.448 13.1839C310.852 13.1888 321.138 13.1933 321.752 13.2035C328.76 13.3194 317.934 13.2769 316.418 13.3571C316.15 13.336 315.886 13.3149 315.6 13.2941C312.503 13.2591 314.267 13.4265 315.67 13.4653C317.074 13.5041 319.698 13.4296 320.865 13.4845C321.446 13.5121 321.086 13.7127 319.327 13.6885C321.209 13.7503 318.639 13.8156 319.384 13.8736C320.202 13.9373 328.656 13.9569 328.701 13.8463C327.122 13.8425 325.157 13.8463 323.56 13.8418C321.472 13.6496 327.815 12.9935 333.632 13.2556C337.852 13.4453 330.895 13.5961 340.879 13.4369C339.344 13.4292 338.045 13.4113 336.65 13.4032C336.502 13.2591 338.765 13.4176 339.932 13.3717C340.492 13.3493 337.038 13.2473 340.037 13.2133C342.616 13.4194 344.601 13.2121 348.927 13.2097C347.725 13.2464 346.521 13.283 345.319 13.3197C352.628 13.4692 335.651 13.5184 349.864 13.6021C348.153 13.6087 346.452 13.607 344.733 13.6171C345.566 13.6927 344.233 13.9146 344.978 13.9615C346.935 14.0846 349.829 14.0104 352.215 14.0212C353.259 14.0258 352.612 14.0857 352.699 14.086C354.129 14.0927 353.814 14.0048 355.068 13.9992C356.647 13.9922 361.208 14.0776 361.947 14.0679C363.86 14.0431 360.675 13.8697 360.859 13.8568C362.079 13.7728 364.57 13.8425 364.439 13.7326C358.445 13.8082 341.172 13.7112 356.799 13.5296C352.49 13.3521 353.734 13.1075 359.929 13.0883C365.053 13.0722 361.747 13.1702 364.414 13.278C364.759 13.2915 371.622 13.343 371.974 13.2668C371.699 13.4423 373.932 13.5977 372.433 13.7788C372.214 13.8054 369.398 13.7949 370.38 13.9405C370.872 14.0136 372.282 14.1727 372.054 14.2658C372.634 14.2011 373.239 14.1283 373.827 14.0608C378.047 14.0419 378.647 14.1116 380.955 14.2323C380.849 14.1819 378.717 13.9702 381.955 14.0346C382.121 14.0384 382.265 14.1144 383.91 14.1521C387.235 14.2277 387.929 14.2512 385.377 14.4744C392.263 14.3471 393.746 14.5958 400.808 14.5231C399.404 14.2362 396.921 14.3072 390.455 14.3625C390.174 14.2943 390.042 14.2267 389.753 14.1578C398.36 14.3125 394.107 14.2967 398.983 14.1582C400.176 14.1242 406.539 14.1606 404.416 13.9674C403.915 13.9219 399.962 13.9272 400.415 13.8555C400.503 13.8419 405.308 13.8071 405.732 13.8257C411.049 14.0542 401.547 14.2134 416.19 14.1302C416.594 14.1277 416.735 14.0442 417.524 14.0326C419.006 14.0109 419.025 14.1076 420.349 14.0853C421.674 14.0629 423.509 13.9328 425.501 14.0531C429.142 14.2721 420.553 14.3981 416.727 14.282C415.174 14.5682 442.506 14.5745 444.2 14.55C451.595 14.4433 439.289 14.5049 438.655 14.4255C438.391 14.3919 438.522 13.9661 435.408 14.2424C434.487 14.3243 438.338 14.4322 436.04 14.4773C433.741 14.5225 434.652 14.3971 434.485 14.3883C433.914 14.3584 431.469 14.4048 431.151 14.3871C426.273 14.1172 426.72 13.7095 433.187 14.3118C436.004 14.1757 429.538 13.9587 433.039 13.8663C437.295 13.754 440.401 13.9482 440.936 13.9569C447.348 14.0605 439.954 13.777 447.786 13.8676C452.147 13.918 441.26 14.0562 451.219 14.0377C459.555 14.0219 455.053 13.9233 455.658 13.6989C455.801 13.6465 460.368 13.5821 454.149 13.6052C453.974 13.6636 453.642 13.7406 453.247 13.7945C451.722 13.7519 449.178 13.4594 448.369 13.4492C444.412 13.4005 444.603 13.5523 442.27 13.3736C443.936 13.5691 441.224 13.4513 440.206 13.4926C436.427 13.6448 441.382 13.7013 432.899 13.5058C434.005 13.5975 435.005 13.6874 436.075 13.7788C435.058 13.7819 434.039 13.7852 433.022 13.7883C431.504 13.5864 426.098 13.6122 430.993 13.4089C425.107 13.3512 422.727 13.3952 421.437 13.5523C421.192 13.5823 420.307 13.5942 419.268 13.5971C419.465 13.6413 419.716 13.7778 419.552 13.7945C418.087 13.9417 415.816 13.6874 416.59 13.5904C415.863 13.5857 415.288 13.5803 415.085 13.5779C413.797 13.5628 416.322 13.4751 415.278 13.445C414.934 13.4352 411.305 13.4543 411.235 13.4186C410.797 13.1898 416.769 13.3549 404.777 13.222C404.488 13.4302 410.057 13.3844 408.627 13.6056C407.092 13.8432 403.96 13.5244 403.275 13.8159C403.021 13.768 402.908 13.7281 402.689 13.6735C397.838 13.8005 397.773 13.5577 396.291 13.5041C393.413 13.3995 380.182 13.4152 392.062 13.6255C390.325 13.6465 388.551 13.6562 386.823 13.6748C386.428 13.2395 387.481 13.4128 379.154 13.3463C377.321 13.3316 376.724 13.1402 374.925 13.3675C375.17 13.1445 369.746 13.2792 369.24 13.2522C365.993 13.0761 378.047 12.8311 379.593 13.2254C381.628 13.0719 381.62 13.2749 383.892 13.248C387.174 13.2091 387.629 13.1696 391.525 13.3194C395.36 13.1083 376.514 13.2265 387.939 12.9466C399.366 12.6666 465.906 12.5105 481.429 12.4685C509.551 12.3925 524.336 12.3429 549.598 12.3555C552.089 12.3565 570.9 12.3363 566.991 12.5802C566.429 12.6152 558.338 12.7079 565.278 12.8993C563.867 12.7863 567.947 12.7129 568.29 12.701C576.142 12.4309 571.597 12.3647 583.96 12.3619ZM620.61 14.5368C604.474 14.4812 616.328 14.6442 612.976 15.0124C615.047 15.0134 617.11 15.0144 619.181 15.0155C618.637 14.9924 618.1 14.9694 617.556 14.9463C617.554 14.9463 617.551 14.9463 617.549 14.9463C618.567 14.8098 619.592 14.6733 620.61 14.5368ZM884.382 14.7833C883.752 14.8318 883.13 14.8803 882.448 14.9278C880.316 14.9127 878.193 14.898 876.061 14.8829C876.315 14.85 876.561 14.8167 876.815 14.7838C879.337 14.7852 881.851 14.7868 884.382 14.7833ZM414.471 14.3352C411.452 14.2005 411.725 14.4409 407.715 14.3314C408.206 14.5088 408.752 14.6823 409.269 14.858C412.322 14.8318 413.015 14.7643 416.331 14.8077C415.945 14.7506 415.55 14.6933 415.172 14.6359C414.62 14.6481 414.033 14.662 413.498 14.6729C412.648 14.5133 417.946 14.4895 414.481 14.3349C414.478 14.335 414.474 14.3351 414.471 14.3352ZM383.541 14.4066C381.918 14.3836 375.487 14.2967 374.609 14.3702C371.635 14.6194 389.779 14.4613 376.406 14.6828C376.468 14.7177 376.406 14.752 376.406 14.7866C378.845 14.7988 381.277 14.8094 383.734 14.8192C383.603 14.6813 383.69 14.5452 383.541 14.4066ZM562.25 14.5522C559.755 14.533 547.862 14.6502 551.739 14.808C552.879 14.8542 558.189 14.6285 560.207 14.6383C561.514 14.6446 560.049 14.7684 562.629 14.7229C562.515 14.6683 562.444 14.6078 562.243 14.5526C562.245 14.5525 562.247 14.5523 562.25 14.5522ZM566.928 13.8321C564.348 13.8541 561.734 13.882 559.137 13.9055C561.032 14.0465 564.761 13.9559 564.98 14.1543C564.27 14.1694 563.567 14.1843 562.857 14.1994C562.313 14.156 561.777 14.1126 561.242 14.0692C559.014 14.177 560.364 14.2305 556.213 14.1994C558.723 14.4993 559.189 14.6603 566.296 14.3568C564.954 14.5196 566.217 15.0498 570.157 14.6709C570.894 14.6005 567.816 14.5535 567.781 14.5423C567.307 14.4031 569.015 14.3142 568.507 14.1827C568.279 14.1232 566.401 14.1241 566.121 14.0415C565.991 14.0012 567.777 13.8863 566.928 13.8321ZM572.069 14.5381C571.271 14.6225 573.999 14.8226 576.368 14.782C580.063 14.719 574.237 14.5287 572.069 14.5381ZM884.396 14.7831C884.391 14.7832 884.387 14.7832 884.382 14.7833C884.384 14.7831 884.387 14.7829 884.389 14.7827C884.391 14.7829 884.394 14.783 884.396 14.7831ZM391.911 14.5042C389.999 14.5759 387.168 14.5655 387.377 14.6795C386.447 14.6571 385.507 14.635 384.576 14.6126C384.585 14.6469 384.603 14.6813 384.612 14.7152C387.41 14.7365 390.201 14.7579 392.999 14.7796C392.648 14.688 392.324 14.5959 391.911 14.5042ZM361.421 14.4244C357.903 14.4129 360.852 14.568 360.08 14.6429C359.308 14.7177 356.174 14.6568 356.542 14.7643C358.613 14.7685 360.773 14.7727 362.87 14.7765C362.317 14.6596 361.931 14.5406 361.414 14.4244C361.416 14.4244 361.418 14.4244 361.421 14.4244ZM686.462 14.659C684.076 14.6254 685.05 14.507 680.338 14.6456C680.342 14.6456 680.345 14.6456 680.349 14.6456C684.832 14.7425 690.604 14.8289 695.552 14.7351C692.525 14.6103 690.217 14.7115 686.462 14.659ZM422.816 14.6844C423.824 14.5906 419.131 14.5123 418.096 14.5995C416.421 14.7405 421.281 14.8268 422.816 14.6844ZM782.851 13.8284C786.482 13.5397 779.603 13.2157 772.4 13.3556C771.777 13.3679 776.427 13.4597 775.05 13.516C774.91 13.5216 772.358 13.5147 771.726 13.5548C771.094 13.5951 771.758 13.6885 770.722 13.7277C768.906 13.7962 764.8 13.6693 763.44 13.7592C763.261 13.7712 765.807 13.8962 765.967 13.9009C768.582 13.9765 771.101 13.8132 771.505 13.8121C773.585 13.8065 773.27 13.9345 773.797 13.9646C774.788 14.0212 776.534 13.9646 776.657 13.9688C779.813 14.0811 772.602 14.049 771.628 14.0952C769.005 14.2198 771.433 14.3356 765.142 14.4059C764.545 14.4125 757.394 14.405 766.406 14.5484C748.711 14.8472 775.297 14.7183 778.184 14.6526C779.514 14.6221 777.5 14.5 778.307 14.4451C780.149 14.3195 783.29 14.2973 783.009 14.1203C782.404 13.748 778.278 13.9919 775.436 13.9293C775.734 13.8485 775.848 13.7696 776.401 13.6905C775.55 13.7969 782.588 13.8501 782.851 13.8291C782.851 13.8289 782.851 13.8286 782.851 13.8284ZM738.056 14.2538C734.081 14.1414 734.362 14.3764 730.721 14.242C727.51 14.453 733.844 14.4389 734.581 14.4508C737.95 14.504 737.873 14.7334 741.32 14.6628C740.135 14.5271 739.17 14.3899 738.056 14.2538ZM772.628 14.3506C769.97 14.4696 774.727 14.4676 774.92 14.4903C777.02 14.7317 762.776 14.6848 772.628 14.3506ZM546.766 14.0794C545.415 14.0714 546.272 14.1853 545.081 14.219C543.888 14.2529 539.809 14.1554 539.912 14.2263C540.017 14.2973 547.491 14.4816 539.989 14.5215C540.243 14.5613 540.157 14.5911 540.28 14.6271C542.342 14.6282 544.423 14.6299 546.485 14.631C545.353 14.5162 544.193 14.3954 543.105 14.2845C544.263 14.1932 544.914 14.3103 544.976 14.3103C544.976 14.3102 544.976 14.3101 544.976 14.31C547.134 14.3008 549.799 14.0973 546.766 14.0794ZM653.101 14.437C653.505 14.1518 650.319 14.4704 649.012 14.5057C647.705 14.5409 645.909 14.4353 646.583 14.5581C648.698 14.6428 653.057 14.4689 653.101 14.4367C653.101 14.4368 653.101 14.4369 653.101 14.437ZM716.462 14.2543C713.13 14.3235 713.659 14.3977 709.583 14.3131C709.741 14.382 709.899 14.4525 710.057 14.5204C713.294 14.5218 713.067 14.3216 716.813 14.4021C717.427 14.4154 716.112 14.5752 718.883 14.5238C718.077 14.4385 717.259 14.3438 716.462 14.2543ZM699.949 14.5099C703.775 14.4994 706.809 13.9415 699.763 14.1931C698.719 14.2308 697.072 14.518 699.949 14.5099ZM582.054 14.0653C575.546 14.0493 582.939 14.1393 584.633 14.225C569.484 14.2936 586.344 14.2015 587.855 14.4867C589.707 14.4055 593.171 14.2198 589.322 14.1701C587.716 14.1494 588.303 14.2343 588.206 14.234C585.249 14.213 585.607 14.0741 582.054 14.0653ZM744.963 14.24C744.717 14.2442 745.101 14.3405 744.32 14.3598C743.539 14.3789 741.769 14.3115 741.593 14.3706C741.419 14.43 744.968 14.4762 746.058 14.4328C747.146 14.3891 747.182 14.2029 744.963 14.24ZM719.989 14.0027C716.737 14.072 722.054 14.4268 722.761 14.4251C728.974 14.4066 719.804 14.1151 719.989 14.0027ZM597.166 13.4627C589.322 13.643 595.06 13.9561 599.974 14.1437C600.622 14.1056 601.288 14.0674 601.928 14.0296C598.98 14.2613 593.813 14.4903 605.308 14.2884C599.016 14.2338 604.285 14.1716 604.325 14.1585C605.019 13.733 595.699 13.9306 597.173 13.4627C597.171 13.4627 597.168 13.4627 597.166 13.4627ZM755.537 14.3415C758.951 14.34 767.827 14.2665 763.686 14.0811C760.966 14.1679 758.256 14.2547 755.537 14.3415ZM468.742 13.4876C465.952 13.3816 463.38 13.3834 459.94 13.3904C463.037 13.5447 461.002 13.5625 459.958 13.6002C458.374 13.6571 462.21 13.6525 462.221 13.6629C462.151 13.8095 459.704 13.8323 465.274 13.8288C463.897 13.8798 462.538 13.9313 461.161 13.982C465.407 13.9887 466.407 14.0843 469.1 14.2012C466.485 13.9157 469.928 14.0944 473.052 13.9524C474.611 13.8812 470.161 13.5419 468.731 13.4876C468.735 13.4876 468.738 13.4876 468.742 13.4876ZM589.059 13.4054C588.252 13.4569 587.513 13.5264 586.732 13.5852C585.881 13.5908 585.028 13.5957 584.177 13.6013C584.072 13.5559 583.984 13.5083 583.861 13.4646C582.74 13.4513 583.177 13.5147 582.843 13.5206C582.843 13.5204 582.843 13.5201 582.843 13.5199C578.063 13.6038 576.106 13.5944 572.361 13.4538C572.361 13.5931 572.361 13.7325 572.361 13.8718C573.202 13.8585 574.053 13.8455 574.894 13.8326C575.342 13.7577 575.791 13.6828 576.239 13.6079C577.213 13.6492 578.178 13.6902 579.151 13.7315C579.932 13.7046 580.87 13.6763 581.545 13.6501C585.432 14.0395 576.598 13.7749 576.519 13.9366C576.467 14.0405 585.363 14.036 586.644 13.9643C586.829 13.9538 584.906 13.6637 588.16 13.8148C588.669 13.8386 588.848 14.4661 592.358 13.958C592.858 13.886 591.112 13.4962 589.059 13.4054ZM556.757 13.2031C561.759 13.6045 543.3 13.18 551.265 13.5103C548.993 13.6947 549.414 13.6923 551.704 13.856C551.905 13.8707 550.323 13.9214 550.458 13.9278C552.599 14.0181 555.178 13.9702 555.195 14.1344C555.774 14.1256 556.319 14.1178 556.898 14.1091C554.486 13.9545 558.321 13.8505 559.804 13.72C560.479 13.6609 558.926 13.6426 559.495 13.5909C559.705 13.572 561.873 13.6097 561.962 13.5556C562.146 13.4331 560.784 13.2676 558.477 13.1773C558.477 13.1772 558.477 13.177 558.477 13.1769C557.898 13.185 557.336 13.1947 556.757 13.2031ZM663.65 13.5365C664.502 13.7584 667.913 13.8219 661.359 13.9304C661.683 13.9741 662.017 14.0174 662.341 14.0611C663.447 14.0573 664.517 14.0535 665.64 14.05C669.01 13.3963 675.159 14.134 671.22 13.6704C670.79 13.62 668.169 13.6763 670.757 13.5395C670.754 13.5393 670.75 13.5392 670.747 13.5391C667.133 13.5811 666.677 13.6597 663.65 13.5365ZM639.459 13.6913C631.124 14.1581 650.978 13.9517 647.661 13.8278C647.363 13.8167 638.81 13.917 639.459 13.6913ZM706.347 13.2849C702.61 13.2769 702.363 13.5288 702.739 13.6195C703.117 13.7105 705.704 13.6185 706.038 13.6328C707.126 13.6801 704.819 13.7113 706.231 13.776C706.699 13.7971 713.209 13.8869 713.507 13.876C715.163 13.8158 712.742 13.6079 713.215 13.5841C714.759 13.5061 716.856 13.6143 717.304 13.5038C718.269 13.268 714.36 13.5155 713.7 13.5195C711.708 13.5307 711.882 13.398 710.39 13.3714C708.9 13.3448 707.926 13.3903 706.61 13.3809C706.173 13.3777 706.537 13.2858 706.347 13.2849ZM693.99 13.8169C697.893 13.6262 688.39 13.4188 687.262 13.4635C683.946 13.5961 692.121 13.9079 693.99 13.8169ZM569.279 13.8088C572.849 13.6706 564.533 13.5587 562.155 13.6143C562.596 13.6718 568.051 13.8564 569.279 13.8088ZM599.342 13.4635C596.06 13.5065 600.412 13.8179 603.15 13.813C604.755 13.6084 603.244 13.6489 601.455 13.6405C599.667 13.6321 601.902 13.4299 599.342 13.4635ZM746.882 13.5125C746.174 13.5093 734.763 13.6785 741.32 13.7487C741.82 13.754 749.807 13.7242 750.413 13.6927C751.631 13.629 748.707 13.5216 746.882 13.5125ZM615.082 13.1612C613.345 13.3382 611.636 13.3358 613.232 13.5437C613.235 13.5437 613.237 13.5437 613.24 13.5437C608.844 13.6073 608.649 13.1821 607.701 13.1912C604.387 13.2231 607.527 13.5258 605.448 13.6252C610.283 13.5317 608.896 13.7358 612.573 13.7487C613.397 13.7515 616.698 13.6297 617.181 13.5537C617.663 13.4778 615.977 13.25 615.082 13.1612ZM763.001 13.4684C759.15 13.4006 755.623 13.6875 760.966 13.733C763.572 13.7554 765.353 13.5097 763.001 13.4684ZM377.986 13.3966C378.573 13.4719 379.179 13.5468 379.811 13.6213C378.39 13.6395 376.967 13.6581 375.546 13.6766C376.67 13.6528 377.794 13.6294 378.926 13.6059C376.259 13.5797 375.039 13.4428 377.979 13.3966C377.981 13.3966 377.983 13.3966 377.986 13.3966ZM283.021 13.3393C281.828 13.2669 279.477 13.4912 279.775 13.5087C282.021 13.6391 284.678 13.4398 283.021 13.3393ZM564.004 13.1275C559.568 13.0961 562.619 13.4608 565.338 13.4858C563.674 13.4161 566.522 13.1453 564.004 13.1275ZM316.418 13.3571C316.816 13.3884 317.218 13.4198 317.664 13.4512C316.261 13.4076 316.017 13.3783 316.418 13.3571ZM745.068 13.1905C744.39 13.1625 739.382 13.1394 738.705 13.174C737.301 13.2468 741.207 13.4481 743.506 13.3862C743.761 13.3795 745.742 13.2185 745.057 13.1905C745.061 13.1905 745.064 13.1905 745.068 13.1905ZM371.984 13.2569C371.992 13.2604 371.988 13.2637 371.974 13.2668C371.979 13.2636 371.977 13.2602 371.984 13.2569ZM183.316 12.8863C183.343 12.892 183.358 12.8976 183.354 12.903C183.344 12.8977 183.323 12.8921 183.316 12.8863ZM709.741 12.8808C708.074 12.5333 704.231 12.7182 707.267 12.89C707.437 12.899 709.337 12.8801 709.741 12.8808ZM14.0832 12.4488C14.8739 12.5435 15.8669 12.5165 16.8372 12.5418C17.3031 12.5528 17.7136 12.5788 18.1242 12.6102C18.2885 12.623 18.2741 12.7233 18.3197 12.738C18.4445 12.7788 18.5245 12.6623 18.6156 12.6738C18.8652 12.7049 19.1054 12.7271 19.3458 12.7488C19.3904 12.7459 19.5206 12.7675 19.5651 12.7718C19.7366 12.8166 19.9061 12.8587 20.077 12.9013C20.4775 12.998 20.2452 13.2805 20.3828 13.3753C20.6752 13.5612 20.4541 13.1229 20.5975 13.0482C20.6421 13.0566 20.6867 13.0641 20.7773 13.0836L20.6931 13.0707C20.5298 13.0573 20.6105 13.0666 20.599 13.0656C20.6035 13.0665 20.6107 13.0675 20.6198 13.0685C20.6416 13.0704 20.6552 13.0723 20.6743 13.0743C20.7157 13.0783 20.7505 13.0823 20.7911 13.0865C20.871 13.0949 20.955 13.1039 21.029 13.1133C21.1928 13.1321 21.3451 13.1525 21.5095 13.173C21.4173 13.2109 21.3406 13.2481 21.2467 13.2831C21.4015 13.292 21.6237 13.3555 21.3636 13.4616C21.419 13.4911 21.4756 13.5257 21.5338 13.5545C21.5476 13.4058 21.8245 13.3944 21.8482 13.3063C21.8726 13.2182 21.7217 13.2381 21.7217 13.2304C21.729 13.1207 22.3634 13.2719 22.4084 13.2841C22.5302 13.3169 22.424 13.5011 22.5257 13.4894C22.701 13.4693 22.5858 13.094 22.8231 13.593C22.9179 13.4311 22.9268 13.5152 23.047 13.5266C23.0627 13.528 23.0506 13.4342 23.0575 13.4317C23.2392 13.3623 23.0994 13.5366 23.1003 13.546C23.1164 13.7066 23.3127 13.6354 23.3534 13.6508C23.8703 13.843 24.2469 13.9731 24.7938 14.0178C24.9078 14.0273 25.2733 13.9623 25.3836 13.9896C25.4972 14.0166 25.4366 14.1322 25.4959 14.1878C25.5891 13.9096 25.6805 13.8789 25.8922 14.0623C25.9726 13.8593 25.9569 14.023 26.1122 13.9825C26.2367 13.9489 26.4619 13.7054 26.5927 13.9129C26.4358 13.894 26.4552 13.9937 26.2744 14.0539C26.2125 14.0738 25.5972 14.078 25.6395 14.2854C25.6671 14.3935 25.8666 14.2943 25.8782 14.3142C25.9254 14.4304 25.8079 14.5732 25.7083 14.5231C25.7338 14.4997 25.764 14.4759 25.7904 14.4524C25.5649 14.3072 25.715 14.865 25.5462 14.3775C25.5249 14.3177 25.5333 14.2553 25.4979 14.1918C25.4906 14.2181 25.534 14.2832 25.4966 14.2949C25.4587 14.3066 25.3836 14.1829 25.3744 14.2872C25.3566 14.4387 25.5181 14.3791 25.5289 14.3879C25.529 14.387 25.5291 14.3861 25.5293 14.3852C25.6334 14.4657 25.4155 14.4748 25.4029 14.4891C25.3364 14.5836 25.3824 14.6563 25.2813 14.7343C25.2223 14.7787 25.0756 14.7525 25.021 14.7668C24.9666 14.7815 25.0512 14.8532 25.0146 14.8686C24.9784 14.884 24.9306 14.8295 24.8892 14.8473C24.8712 14.8552 24.8721 14.9351 24.8633 14.9379C24.769 14.9686 24.8312 14.8023 24.7448 14.8124C24.6873 14.8192 24.5022 14.9741 24.6301 15.0204C24.5687 15.0365 24.5082 15.0482 24.4459 15.0608C24.4852 15.0846 24.5255 15.1008 24.5634 15.1288C24.4476 15.0906 24.3932 15.2274 24.3214 15.2376C24.249 15.2477 24.1832 15.0834 24.1028 15.1635C23.9317 15.3338 24.3562 15.2553 24.4078 15.2858C24.4283 15.2978 24.3497 15.4264 24.3377 15.43C24.2842 15.4461 24.2205 15.3541 24.1788 15.3582C24.0298 15.3735 23.9392 15.4948 23.7973 15.5192C23.3152 15.6022 22.7155 15.6691 22.2591 15.6951C22.0872 15.7046 21.9889 15.5679 21.9098 15.5716C21.7307 15.5804 21.7076 15.6993 21.5527 15.7053C21.3178 15.7146 20.9968 15.6098 20.7963 15.5863C20.7387 15.5798 20.6904 15.594 20.6408 15.6134C20.6208 15.6232 20.5935 15.6342 20.571 15.6446C20.5301 15.6526 20.6026 15.6729 20.3854 15.6625C20.3669 15.6586 20.3104 15.6534 20.2922 15.6482C20.3017 15.658 20.3014 15.6632 20.3014 15.6638C20.0281 15.6668 19.4185 15.5863 19.0514 15.5152L19.28 15.5391C19.1864 15.5372 19.0992 15.5352 19.0184 15.5333C18.8272 15.5291 18.7408 15.3971 18.701 15.3997C18.5314 15.4109 18.5733 15.5228 18.4367 15.5075C18.3626 15.4992 18.3525 15.3927 18.3425 15.3882C18.2567 15.3505 18.2346 15.4885 18.1667 15.4908C17.7756 15.5045 17.4016 15.3995 17.0321 15.3759C17.0051 15.3742 17.0092 15.3128 16.992 15.3155C16.9177 15.3288 16.9493 15.4263 16.8739 15.4317C16.8471 15.4337 16.8204 15.4349 16.7947 15.4355C16.6502 15.4379 16.5088 15.423 16.3578 15.4103C16.3401 15.4087 16.3333 15.3297 16.2934 15.3289C16.2517 15.3282 16.2187 15.4025 16.1556 15.3972C15.9872 15.3832 15.8229 15.2903 15.644 15.2811C15.6152 15.2797 15.575 15.3739 15.5305 15.3717C15.3901 15.3651 15.1846 15.2724 15.0621 15.2646C14.6625 15.2404 14.2521 15.2701 13.8544 15.2243C13.8061 15.2188 13.7646 15.1894 13.7291 15.1615C13.7001 15.1368 13.6754 15.1134 13.655 15.11C13.5579 15.0941 13.6224 15.1854 13.5225 15.1742C13.1174 15.122 12.7339 15.1016 12.1161 14.9247C11.7086 14.7936 11.3576 14.6723 11.0579 14.6132C11.0276 14.6071 10.9971 14.6011 10.9662 14.5949C10.6312 14.5265 10.1678 14.5223 9.72567 14.3279C9.55448 14.2501 9.54861 14.1363 9.43782 14.063C9.43439 14.0598 9.43053 14.0571 9.42616 14.0547C9.31943 13.9997 9.23997 14.1256 9.12762 14.0952C9.03867 14.0718 8.9787 13.8956 8.85038 13.8664C8.72048 13.8364 8.61789 13.9576 8.41635 13.9124C8.37768 13.9034 8.33553 13.8887 8.2905 13.8699C8.16631 13.8161 8.03354 13.7297 7.91324 13.6939C7.13978 13.432 6.58108 13.3576 5.52987 12.6334C5.00017 12.2231 4.50259 11.6421 4.18461 11.1797C4.09109 11.0523 4.01625 10.9348 3.95078 10.8258C3.78684 10.5503 3.6419 10.3214 3.55282 10.1786C3.31667 9.86608 3.18131 9.54487 3.12175 9.28497C3.10973 9.22942 3.26844 9.24171 3.16957 9.10126C3.15432 9.0797 3.13007 9.05963 3.10147 9.03827C3.0207 8.96168 2.90969 8.85841 2.84598 8.69439C2.71518 8.35144 2.61766 7.96247 2.63897 7.9886C2.3999 7.46033 2.35759 7.04171 2.30315 6.71338C2.23406 6.31899 2.20786 5.96854 2.15419 5.74007C2.12945 5.62438 2.06558 5.44987 1.99253 5.2212C1.94065 5.05746 1.88504 4.86313 1.84873 4.64948C1.74567 4.17959 1.56233 3.83089 1.35465 3.49692C0.751973 2.41521 0.547974 1.18516 1.29318 0.152479C1.35141 0.0671781 1.69997 0.0544623 1.80408 0.083319C1.74097 0.134997 1.66428 0.185074 1.59232 0.238751C2.02846 0.226025 1.91533 0.233054 1.90852 0.437148C1.90401 0.56149 2.07131 0.435796 2.13348 0.491586C2.21383 0.565957 2.48962 0.921702 2.19446 0.893365C2.24746 0.90886 2.2984 0.924623 2.35034 0.939913C2.44117 1.21476 2.56103 1.47671 2.69831 1.72631C2.72207 1.76853 2.81064 1.75261 2.8349 1.79566C2.901 1.91126 2.86739 2.02335 2.91008 2.14658C2.93358 2.21372 3.03596 2.19455 3.05537 2.284C3.07529 2.3733 2.9408 2.41417 3.12512 2.48926C3.24951 2.37248 3.25914 2.65847 3.30134 2.82115C3.308 2.84635 3.31468 2.86829 3.32195 2.88585C3.33062 2.90556 3.53912 3.03768 3.54868 3.14206C3.55941 3.24583 3.49925 3.41711 3.58698 3.55596C3.62821 3.62126 3.75773 3.64148 3.77897 3.71894C3.79383 3.7735 3.69699 3.85734 3.70288 3.92575C3.7092 3.99424 3.81774 4.12861 3.82229 4.15526C3.83993 4.25061 3.75069 4.15417 3.75471 4.21988C3.75961 4.29762 3.76242 4.37751 3.76494 4.45715C3.75946 4.58659 3.79736 4.76471 3.90434 4.96674C3.92147 4.99976 3.99241 4.92382 3.99679 4.92762C4.18123 5.14264 4.02726 5.04808 3.97072 5.14081C3.95893 5.16118 3.95894 5.20106 3.96725 5.25386C3.99715 5.43863 4.10658 5.72074 4.22778 5.69649C4.0373 5.75031 4.20518 5.82043 4.21586 5.84373C4.25753 5.93563 4.08634 5.95173 4.15743 6.03113C4.18331 6.05955 4.28233 5.97177 4.2866 6.00732C4.29462 6.07406 4.20038 6.15721 4.16118 6.24594C4.15043 6.27771 4.14434 6.30908 4.14747 6.33979C4.15056 6.37123 4.23322 6.36157 4.24341 6.41398C4.25334 6.46848 4.20994 6.69529 4.35311 6.55733C4.2513 6.71294 4.33208 6.71889 4.36933 6.84087C4.37843 6.87027 4.268 6.95747 4.33101 7.00078C4.35218 7.01458 4.46953 6.96297 4.48146 6.98642C4.48854 6.99997 4.48745 7.01614 4.48248 7.03382C4.51389 7.17548 4.48313 7.30652 4.51783 7.41971C4.60062 7.70245 4.74655 7.89535 4.79066 8.09298C4.80247 8.14637 4.67769 8.18385 4.70822 8.2589C4.70957 8.26187 4.72152 8.26729 4.73835 8.27437C4.78599 8.30142 4.86796 8.34433 4.8809 8.38843C4.89182 8.42784 4.90645 8.62791 4.91895 8.65956C4.93933 8.71518 5.05093 8.65772 5.04521 8.69468C5.02975 8.79964 4.84501 8.85511 5.1051 8.78763C5.03754 8.86432 5.04276 8.90558 5.00763 8.968C4.99784 8.99771 4.98038 9.02961 4.94794 9.06677C5.12827 8.9907 5.03034 9.15783 5.13921 9.19958C5.24837 9.24165 5.59344 9.10076 5.28545 9.34366C5.35094 9.35394 5.52294 9.46229 5.54423 9.48305C5.60814 9.54699 5.49199 9.56901 5.54144 9.61525C5.54993 9.6232 5.60441 9.57202 5.63963 9.6355C5.65556 9.66459 5.74915 9.80258 5.80527 9.87898C5.83857 9.92414 5.86265 9.95826 5.86446 9.96566C5.91359 10.1655 5.8083 10.0315 5.71104 9.95461C5.68335 9.93459 5.65572 9.91873 5.63295 9.92131C5.64453 9.90179 5.65625 9.88229 5.66748 9.8626C5.6368 9.76264 5.53484 9.90636 5.53209 9.96742C5.53032 10.0024 5.56709 10.0249 5.59422 10.0484C5.61616 10.0683 5.63272 10.0891 5.62578 10.1174C5.61736 10.1509 5.45295 10.2667 5.43223 10.2022C5.42645 10.2937 5.31766 10.2625 5.28916 10.3197C5.25743 10.3825 5.43591 10.6333 5.52255 10.5636C5.48912 10.5172 5.44129 10.4647 5.40857 10.4171C5.51184 10.2388 6.16093 10.0007 6.08558 10.3151C6.0359 10.5463 5.76573 10.4705 6.11226 10.6183C6.0827 10.5748 6.06656 10.5299 6.04124 10.489C6.14591 10.39 6.07796 10.5522 6.13874 10.5507C6.16759 10.5492 6.16664 10.3961 6.25815 10.4466C6.16401 10.6487 6.36105 10.5568 6.46049 10.6523C6.40713 10.6512 6.35339 10.6488 6.29945 10.6459C6.36544 10.9269 5.92378 10.5469 6.20768 10.954C6.16061 10.9173 6.12034 10.8741 6.07161 10.8381C6.03759 10.9117 5.8446 11.0313 5.8296 11.0833C5.79132 11.2211 5.92104 11.2459 5.97749 11.3143C6.00263 11.3444 5.94395 11.3713 5.94608 11.3738C5.98054 11.4154 6.03205 11.3433 6.06982 11.3705C6.11673 11.4051 6.18798 11.5809 6.21607 11.5914C6.28604 11.6181 6.30861 11.41 6.32285 11.4049C6.41082 11.3701 6.43446 11.4804 6.50099 11.3928C6.28061 11.3161 5.91268 10.8252 6.43154 11.0647C6.44242 10.8337 6.64269 10.6887 6.80154 10.8029C6.93677 10.8976 6.79211 10.9029 6.79035 11.0421C6.7904 11.046 6.79718 11.0577 6.80869 11.0734C6.8215 11.1088 6.91686 11.1935 6.9559 11.1467C6.85429 11.2903 6.83743 11.462 6.69962 11.5901C6.67957 11.6096 6.6 11.5458 6.55019 11.687C6.52445 11.7577 6.48864 11.923 6.43196 11.9973C6.48598 11.9546 6.54475 11.905 6.59853 11.8584C6.74671 11.9227 6.73303 11.9924 6.75546 12.1408C6.77454 12.0938 6.80223 11.8698 6.87981 11.9824C6.88363 11.9886 6.85306 12.0586 6.89217 12.1203C6.9702 12.2432 6.98669 12.2766 6.7997 12.434C7.09407 12.4346 7.04143 12.683 7.31774 12.7232C7.3813 12.438 7.27032 12.4696 7.02426 12.4171C7.04329 12.3507 7.0673 12.2874 7.08669 12.2204C7.31389 12.4946 7.17847 12.4152 7.399 12.3609C7.45294 12.3478 7.65455 12.4715 7.65686 12.2631C7.65739 12.2142 7.5233 12.1631 7.56667 12.1036C7.57496 12.0925 7.74807 12.1277 7.75517 12.1504C7.84738 12.4342 7.46496 12.4541 7.99548 12.5743C8.01019 12.5774 8.04517 12.5014 8.07604 12.5008C8.13431 12.4999 8.10059 12.5906 8.15365 12.5868C8.20742 12.5832 8.31476 12.4844 8.34149 12.6223C8.3929 12.8744 8.04935 12.8832 7.9592 12.723C7.85693 12.8822 8.2179 13.0949 8.51428 13.2144C8.69576 13.2863 8.83014 13.3182 8.85323 13.3166C9.13719 13.2892 8.69655 13.2238 8.68754 13.1364C8.68678 13.1007 8.82335 12.6984 8.62224 12.9225C8.56033 12.9883 8.67419 13.1398 8.57144 13.1533C8.55589 13.1553 8.54422 13.1544 8.53572 13.1516C8.4926 13.1373 8.54483 13.0582 8.54226 13.0494C8.53151 13.0141 8.4302 13.028 8.42456 13.0071C8.34529 12.6923 8.49652 12.3142 8.52107 12.9611C8.66402 12.8667 8.51157 12.5839 8.66225 12.5386C8.6949 12.5286 8.72349 12.5276 8.74716 12.5322C8.85749 12.5539 8.89436 12.7022 8.90781 12.714C9.10151 12.8799 8.92552 12.5316 9.17066 12.699C9.30497 12.7923 8.89509 12.8123 9.2374 12.8974C9.51779 12.973 9.40205 12.8319 9.49527 12.626C9.51694 12.578 9.70218 12.5746 9.47217 12.519C9.44725 12.5723 9.41117 12.6414 9.38079 12.6881C9.34263 12.6305 9.33828 12.3231 9.3118 12.3045C9.18516 12.2157 9.1496 12.364 9.12117 12.1689C9.12172 12.3731 9.06332 12.2329 9.01805 12.2621C8.8675 12.3572 8.96387 12.4514 8.83504 12.2748C8.81956 12.2532 8.79945 12.227 8.77602 12.1964C8.78057 12.2685 8.78508 12.3396 8.78868 12.4106C8.79013 12.4373 8.7918 12.4641 8.79378 12.4911C8.78376 12.4887 8.77373 12.4863 8.76368 12.4838C8.73883 12.4777 8.71269 12.4711 8.68727 12.4647C8.70152 12.2561 8.51397 12.2164 8.74472 12.0828C8.56927 11.9593 8.47636 11.9707 8.37838 12.1019C8.35979 12.1269 8.32566 12.1269 8.29033 12.1165C8.28114 12.1603 8.24113 12.2911 8.2297 12.3047C8.12765 12.4234 8.14266 12.1566 8.20371 12.0761C8.18124 12.0624 8.16397 12.0499 8.15819 12.0451C8.12121 12.0145 8.23626 11.9651 8.21279 11.9237C8.20516 11.9103 8.07888 11.8811 8.08987 11.8469C8.16113 11.6285 8.29104 11.8604 7.9549 11.5797C7.86522 11.7682 8.06414 11.8 7.93448 11.9859C7.79379 12.1854 7.81203 11.848 7.67714 12.1074C7.68724 12.0597 7.69899 12.0213 7.71295 11.9679C7.50333 12.0171 7.5976 11.7924 7.57186 11.7227C7.52107 11.5881 7.09931 11.4054 7.38615 11.7724C7.32175 11.766 7.26054 11.7481 7.19744 11.7383C7.37553 11.3398 7.32664 11.5136 7.11095 11.3266C7.06415 11.2848 7.14295 11.1097 6.98116 11.279C7.09684 11.0894 6.89442 11.1238 6.90052 11.0934C6.93411 10.9069 7.30732 10.853 7.18038 11.2267C7.3089 11.1208 7.21501 11.3007 7.295 11.3108C7.41032 11.3244 7.43902 11.2945 7.49678 11.4863C7.69816 11.3496 7.08807 11.1873 7.54607 11.0978C7.77478 11.0498 8.46245 11.2289 9.14207 11.3754C9.47156 11.4219 10.2211 11.6012 10.614 11.7977C10.6437 11.8019 10.7073 11.8185 10.7521 11.8273C10.9956 11.8787 11.3095 11.916 11.6021 11.9563C12.1108 12.036 12.5049 12.1536 12.907 12.2751C12.9205 12.2794 12.9503 12.2878 12.9896 12.2971C13.003 12.3102 13.6052 12.3695 13.4544 12.5949C13.4306 12.6276 13.1519 12.6848 13.3575 12.9044C13.3241 12.7864 13.4704 12.7307 13.4839 12.7202C13.782 12.4901 13.6366 12.4025 14.0537 12.4456C14.0633 12.4466 14.0731 12.4476 14.0832 12.4488ZM15.2047 14.7059C14.6111 14.6277 15.0421 14.8073 14.9024 15.1703C14.9807 15.1747 15.0588 15.1787 15.1354 15.1824C15.1157 15.1586 15.0966 15.1349 15.0775 15.1111C15.0774 15.1111 15.0773 15.1111 15.0773 15.1111C15.119 14.9761 15.1639 14.841 15.2047 14.7059ZM24.7307 15.255C24.7077 15.3035 24.685 15.352 24.6599 15.3994C24.5841 15.3844 24.5075 15.3695 24.4298 15.3545C24.4391 15.3216 24.4481 15.2883 24.4573 15.2554C24.5497 15.2569 24.6369 15.2584 24.7307 15.255ZM7.862 12.7424C7.80732 12.5761 7.72794 12.8035 7.63046 12.6459C7.58036 12.817 7.53431 12.9856 7.48692 13.1559C7.60512 13.1751 7.65412 13.122 7.75582 13.208C7.76273 13.1496 7.76933 13.0906 7.77704 13.032C7.75331 13.0359 7.7276 13.0408 7.70478 13.0435C7.7339 12.8836 7.92631 12.9331 7.8625 12.7422C7.86233 12.7423 7.86217 12.7424 7.862 12.7424ZM6.76566 12.3416C6.719 12.2939 6.53703 12.0976 6.46868 12.1409C6.23663 12.3013 6.97386 12.5175 6.37978 12.45C6.36501 12.4818 6.34598 12.5104 6.32906 12.5406C6.41652 12.6036 6.50254 12.6603 6.58809 12.714C6.64488 12.5883 6.70891 12.4681 6.76566 12.3416ZM13.037 14.5296C12.9541 14.5037 12.445 14.5316 12.5747 14.7152C12.6199 14.772 12.8734 14.5847 12.9471 14.6041C12.9965 14.6173 12.9235 14.7324 13.029 14.7007C13.0318 14.646 13.037 14.5857 13.0367 14.5299C13.0368 14.5298 13.0369 14.5297 13.037 14.5296ZM13.3 13.8372C13.205 13.8478 13.1077 13.8634 13.0109 13.873C13.0593 14.0228 13.207 13.9505 13.1898 14.1482C13.162 14.1599 13.1343 14.1714 13.1063 14.1829C13.0919 14.1372 13.0781 14.0915 13.0644 14.0459C12.9678 14.141 13.01 14.202 12.8592 14.1472C12.9054 14.4576 12.9116 14.623 13.2129 14.3552C13.1424 14.5103 13.1268 15.0431 13.3174 14.6841C13.3527 14.6175 13.2452 14.5574 13.2452 14.546C13.2446 14.4057 13.3177 14.325 13.3148 14.1922C13.3136 14.1322 13.2454 14.1248 13.2453 14.0415C13.2457 14.001 13.3239 13.8948 13.3 13.8372ZM13.4026 14.5604C13.3637 14.6408 13.4404 14.8512 13.5296 14.8206C13.6686 14.7732 13.4829 14.5603 13.4026 14.5604ZM24.7312 15.2548C24.731 15.2549 24.7309 15.2549 24.7307 15.255C24.7308 15.2548 24.7309 15.2546 24.7309 15.2545C24.731 15.2546 24.7311 15.2547 24.7312 15.2548ZM7.01539 12.5691C6.91887 12.6039 6.82305 12.5467 6.78113 12.6529C6.75785 12.6169 6.73349 12.5806 6.71042 12.5442C6.69554 12.5751 6.68095 12.6062 6.66624 12.6367C6.75791 12.7058 6.84891 12.7722 6.93964 12.8372C6.96493 12.748 6.99159 12.659 7.01539 12.5691ZM5.96936 11.8495C5.87223 11.7505 5.85848 11.9435 5.78634 11.9802C5.71334 12.0164 5.65802 11.8853 5.59732 11.975C5.65817 12.0356 5.72262 12.0973 5.7859 12.1556C5.84391 12.0517 5.9092 11.9509 5.96915 11.8493C5.96922 11.8494 5.96929 11.8495 5.96936 11.8495ZM17.5758 14.8838C17.4912 14.8473 17.5296 14.7302 17.3566 14.8631C17.3567 14.8631 17.3569 14.8631 17.357 14.8631C17.5143 14.9652 17.719 15.0587 17.9011 14.9711C17.7959 14.8426 17.7091 14.9408 17.5758 14.8838ZM8.02911 13.18C8.09685 13.1052 7.96031 12.9705 7.89279 13.0377C7.78274 13.1466 7.92508 13.2935 8.02911 13.18ZM21.0642 14.2953C21.1993 14.007 20.9472 13.6825 20.6907 13.8206C20.6715 13.8327 20.8328 13.9256 20.7841 13.9816C20.7777 13.9871 20.6897 13.9797 20.6643 14.0196C20.6426 14.0596 20.6629 14.1532 20.63 14.1921C20.6048 14.2137 20.5725 14.215 20.5578 14.2103C20.492 14.1884 20.4183 14.1413 20.3776 14.1978C20.37 14.209 20.4458 14.3441 20.4505 14.3496C20.4774 14.3783 20.5068 14.3814 20.5333 14.3735C20.6037 14.3516 20.6458 14.2771 20.6543 14.2767C20.7319 14.2718 20.7191 14.3997 20.7368 14.4299C20.7685 14.4868 20.8408 14.4306 20.8412 14.4348C20.9503 14.5476 20.699 14.5142 20.656 14.5599C20.5753 14.6512 20.6622 14.7455 20.4873 14.8041C20.4805 14.8026 20.4596 14.8007 20.4529 14.7988C20.4412 14.8197 20.4131 14.836 20.3589 14.8471C20.3379 14.8511 20.0952 14.8139 20.3792 14.9933C20.1947 15.064 20.1236 15.1079 20.1636 15.1377C20.1879 15.166 20.3586 15.184 20.3818 15.1748C20.3936 15.1781 20.4302 15.1815 20.4422 15.1841C20.6076 15.1948 20.5491 15.1851 20.5881 15.1846C20.6131 15.1824 20.6305 15.1798 20.6487 15.1771C20.6875 15.1715 20.7254 15.1653 20.7559 15.1587C20.8252 15.1455 20.8707 15.131 20.8915 15.1187C20.9406 15.0885 20.8671 14.9661 20.8969 14.9113C20.971 14.786 21.0759 14.7643 21.069 14.5872C21.0482 14.2148 20.8975 14.4582 20.7963 14.395C20.8077 14.3142 20.8148 14.2354 20.8341 14.1564C20.8001 14.2626 21.0549 14.317 21.0642 14.296C21.0642 14.2958 21.0642 14.2955 21.0642 14.2953ZM19.3891 14.5515C19.3178 14.4732 19.2775 14.5165 19.2344 14.5378L19.3035 14.545C19.2752 14.5657 19.2444 14.5748 19.19 14.5162C19.0874 14.6913 19.2339 14.713 19.2993 14.7229L19.2016 14.7127C19.2139 14.7166 19.2231 14.7196 19.2271 14.7222C19.3408 14.7972 19.2978 15.0227 19.4387 14.9755C19.4179 14.8341 19.4058 14.6927 19.3891 14.5515ZM20.6919 14.8156C20.5894 14.9337 20.7682 14.9332 20.7735 14.9559C20.8538 15.1984 20.3148 15.1454 20.6919 14.8156ZM12.5238 13.9588C12.4736 13.9377 12.4791 14.0569 12.4218 14.0763C12.409 14.0807 12.3909 14.0766 12.3717 14.0685C12.3155 14.0435 12.2446 13.9739 12.2314 14.0272C12.2135 14.0962 12.4247 14.3523 12.1483 14.3105C12.1456 14.3513 12.1339 14.3789 12.1278 14.4147C12.17 14.4281 12.2128 14.4419 12.2561 14.4557C12.2978 14.4688 12.3389 14.4805 12.3779 14.4908C12.36 14.3966 12.3435 14.2984 12.3312 14.204C12.3296 14.1745 12.328 14.1453 12.3264 14.1168C12.3439 14.0971 12.3561 14.0907 12.3647 14.092C12.3927 14.0968 12.3912 14.1626 12.3931 14.1631C12.3931 14.163 12.3931 14.1629 12.3932 14.1628C12.49 14.18 12.635 14.0033 12.5238 13.9588ZM16.3893 14.6334C16.4082 14.3485 16.2897 14.665 16.2401 14.6995C16.1917 14.7338 16.1301 14.6271 16.1519 14.7502C16.2252 14.8363 16.3877 14.6652 16.3894 14.633C16.3894 14.6331 16.3894 14.6333 16.3893 14.6334ZM18.6735 14.5145C18.5506 14.5802 18.5677 14.6549 18.4226 14.5658C18.4262 14.6349 18.4297 14.7054 18.4333 14.7735C18.5508 14.7785 18.5483 14.5782 18.6819 14.6626C18.7037 14.6765 18.6512 14.835 18.7534 14.7865C18.7263 14.7004 18.6997 14.6048 18.6735 14.5145ZM18.0677 14.7513C18.2064 14.7453 18.3344 14.1914 18.0715 14.4345C18.033 14.4708 17.9634 14.7559 18.0677 14.7513ZM13.8147 14.1323C13.6304 14.0977 13.7561 14.1678 13.8387 14.2445C13.8601 14.2638 13.8786 14.2834 13.8888 14.3019C13.8684 14.302 13.8494 14.3021 13.8318 14.3021C13.5372 14.3043 13.6841 14.3009 13.8227 14.3786C13.8963 14.419 13.9699 14.4805 13.9782 14.5754C14.0571 14.5025 14.2036 14.3307 14.0668 14.2666C14.01 14.2397 14.0223 14.3264 14.0188 14.3257C13.924 14.2963 13.9368 14.1848 13.8507 14.1439C13.8403 14.1388 13.8284 14.1349 13.8147 14.1323ZM19.6433 14.581C19.6336 14.5837 19.6321 14.6811 19.6002 14.6953C19.5686 14.7095 19.5148 14.6321 19.4983 14.6892C19.4818 14.7468 19.6055 14.8144 19.6526 14.7779C19.7006 14.7412 19.7297 14.5575 19.6433 14.581ZM18.8081 14.2667C18.6887 14.3326 18.8708 14.6927 18.8967 14.6917C19.1228 14.6793 18.7977 14.3789 18.8081 14.2667ZM14.4142 13.5889C14.1256 13.7441 14.2919 14.075 14.4624 14.2756C14.4896 14.2394 14.5158 14.2029 14.5421 14.1668C14.4185 14.39 14.2071 14.6061 14.6503 14.4328C14.4209 14.364 14.6194 14.314 14.622 14.3011C14.6718 13.8787 14.3231 14.0518 14.4145 13.5889C14.4144 13.5889 14.4143 13.5889 14.4142 13.5889ZM20.018 14.7395C20.1487 14.7562 20.4722 14.7201 20.3479 14.5185C20.2411 14.5931 20.1302 14.6671 20.018 14.7395ZM10.038 12.6214C9.9852 12.4784 9.88679 12.4365 9.75647 12.3933C9.81433 12.5822 9.73112 12.568 9.6812 12.5892C9.60472 12.6204 9.74153 12.6689 9.73761 12.6791C9.67863 12.814 9.58991 12.7997 9.77605 12.876C9.70969 12.9024 9.64531 12.9311 9.58203 12.9604C9.71663 13.0225 9.70935 13.1259 9.73854 13.2693C9.77893 13.0042 9.80413 13.1462 9.92585 13.123C9.94073 13.1211 9.95682 13.1168 9.97412 13.1093C10.0157 13.0911 10.0336 12.9912 10.0477 12.8884C10.059 12.7777 10.0519 12.659 10.0376 12.6213C10.0377 12.6213 10.0378 12.6214 10.038 12.6214ZM14.1387 13.5052C14.1052 13.5534 14.0717 13.6197 14.0375 13.675C14.0068 13.6772 13.976 13.6785 13.9453 13.6805C13.9469 13.6349 13.9494 13.5873 13.9502 13.5434C13.9337 13.5356 13.9257 13.5435 13.9211 13.5551C13.915 13.5704 13.9145 13.5922 13.9073 13.5947C13.9073 13.5945 13.9073 13.5942 13.9073 13.594C13.7248 13.6569 13.6558 13.6398 13.5383 13.4846C13.5222 13.623 13.5061 13.7614 13.49 13.8998C13.5218 13.8901 13.5537 13.8807 13.5854 13.8714C13.61 13.7988 13.6347 13.7263 13.6593 13.6537C13.6895 13.6988 13.7194 13.7435 13.7497 13.7886C13.7808 13.7651 13.8177 13.7409 13.8452 13.7177C13.9388 14.1209 13.6532 13.821 13.6317 13.9814C13.623 14.0475 13.751 14.0843 13.8577 14.0853C13.9184 14.086 13.9722 14.0749 13.9918 14.0513C13.9994 14.0415 13.9634 13.7457 14.0628 13.9088C14.0776 13.9343 14.0196 14.5596 14.1993 14.067C14.2241 13.9969 14.1993 13.6031 14.1387 13.5052ZM13.0341 13.1662C13.1305 13.5916 12.6132 13.0649 12.8034 13.4378C12.6936 13.6036 12.7024 13.6033 12.7526 13.78C12.7571 13.7959 12.6906 13.8345 12.6939 13.8416C12.7545 13.9463 12.8577 13.9148 12.8315 14.0768C12.8546 14.0718 12.8761 14.0673 12.8989 14.062C12.8346 13.8953 12.9913 13.8151 13.061 13.6928C13.0931 13.6377 13.0413 13.6118 13.0685 13.5635C13.0784 13.5459 13.149 13.5938 13.1593 13.5404C13.1821 13.4199 13.1564 13.2497 13.0939 13.1492C13.094 13.149 13.094 13.1489 13.094 13.1488C13.0739 13.154 13.054 13.1608 13.0341 13.1662ZM16.7848 13.739C16.792 13.7959 16.8054 13.8426 16.8175 13.8822C16.8403 13.9588 16.8573 14.0092 16.815 14.0574C16.7929 14.0817 16.755 14.1054 16.696 14.1316C16.7069 14.1754 16.7183 14.219 16.7294 14.2628C16.7569 14.2606 16.7841 14.2584 16.8121 14.2563C16.824 14.2553 16.8363 14.2544 16.849 14.2535C16.9833 13.6019 17.1889 14.3459 17.0583 13.8785C17.0442 13.8277 16.9472 13.8816 17.0449 13.7472C17.0448 13.747 17.0446 13.7469 17.0445 13.7468C16.9273 13.7811 16.8994 13.8464 16.8191 13.7742C16.8086 13.7649 16.7973 13.7533 16.7848 13.739ZM15.9109 13.8785C15.5989 14.339 16.3233 14.1473 16.2036 14.0208C16.1944 14.0096 15.8815 14.1038 15.9109 13.8785ZM18.3385 13.5345C18.2043 13.5221 18.187 13.7735 18.1977 13.8646C18.2086 13.956 18.3043 13.8671 18.3162 13.8818C18.3541 13.9303 18.2695 13.9588 18.3187 14.0252C18.3344 14.0468 18.5666 14.1438 18.5778 14.1332C18.6396 14.0748 18.5582 13.8644 18.576 13.8412C18.6339 13.7649 18.7066 13.8752 18.7255 13.7652C18.7671 13.5305 18.6192 13.7738 18.5955 13.7771C18.523 13.7861 18.5343 13.6537 18.4809 13.6254C18.4283 13.5972 18.3915 13.6416 18.3448 13.6307C18.3293 13.627 18.3452 13.5355 18.3385 13.5345ZM17.8758 14.0514C18.0231 13.8656 17.6873 13.6467 17.6451 13.69C17.521 13.8185 17.8053 14.1401 17.8758 14.0514ZM13.387 13.8243C13.5303 13.7021 13.2478 13.5561 13.1582 13.5996C13.1651 13.6588 13.3369 13.8665 13.387 13.8243ZM14.4897 13.5955C14.3715 13.6295 14.5004 13.9523 14.6003 13.9535C14.6707 13.7528 14.6142 13.7901 14.5512 13.7774C14.489 13.7646 14.5817 13.5686 14.4897 13.5955ZM19.8273 13.8738C19.8042 13.8681 19.3746 13.9653 19.5933 14.0746C19.6099 14.0834 19.8979 14.0996 19.9235 14.0709C19.9758 14.0143 19.8891 13.8929 19.8273 13.8738ZM15.0559 13.3239C14.9867 13.4983 14.9279 13.4933 14.9745 13.7033C14.9746 13.7033 14.9747 13.7033 14.9747 13.7033C14.8152 13.7601 14.8304 13.3346 14.7968 13.342C14.6804 13.3677 14.7734 13.6759 14.6938 13.771C14.8712 13.6872 14.8104 13.8882 14.9425 13.9072C14.9712 13.9114 15.0946 13.7943 15.1151 13.719C15.1354 13.6437 15.0826 13.4139 15.0559 13.3239ZM20.3965 13.9072C20.2682 13.8236 20.108 14.0923 20.2923 14.1612C20.3821 14.1946 20.4768 13.9585 20.3965 13.9072ZM7.05333 11.3528C7.03413 11.428 7.01711 11.5039 7.00177 11.58C6.94936 11.5729 6.89702 11.5655 6.84558 11.5576C6.89056 11.5558 6.93652 11.5544 6.98178 11.552C6.91281 11.4849 6.9467 11.3466 7.05313 11.3527C7.05319 11.3527 7.05326 11.3527 7.05333 11.3528ZM4.94193 8.93604C4.98154 8.86916 4.75971 8.94217 4.74923 8.95767C4.68255 9.09236 4.89189 9.03543 4.94193 8.93604ZM13.2855 13.1253C13.1401 13.0743 13.1928 13.4496 13.2863 13.4866C13.2372 13.4101 13.3693 13.1539 13.2855 13.1253ZM5.63295 9.92131C5.61569 9.95037 5.59875 9.97975 5.58285 10.0104C5.58939 9.94784 5.60844 9.92403 5.63295 9.92131ZM19.8158 13.5457C19.7972 13.5146 19.6305 13.4628 19.6014 13.4925C19.5403 13.5556 19.6399 13.7779 19.7304 13.7301C19.7404 13.725 19.8345 13.5772 19.8154 13.5457C19.8155 13.5457 19.8157 13.5457 19.8158 13.5457ZM6.96137 11.1384C6.95972 11.1415 6.95786 11.1443 6.9559 11.1467C6.95774 11.144 6.95948 11.1411 6.96137 11.1384ZM4.24383 5.69178C4.23848 5.69389 4.23309 5.69554 4.22778 5.69649C4.23289 5.69506 4.23819 5.69318 4.24383 5.69178ZM18.4727 13.1344C18.4239 12.7852 18.281 12.9656 18.3838 13.1408C18.3895 13.15 18.4585 13.1333 18.4727 13.1344ZM917.432 16.337C914.986 16.3159 912.317 16.3306 909.863 16.2413C909.563 16.2304 909.585 16.1299 909.501 16.1156C909.269 16.0762 909.128 16.1934 908.96 16.1826C908.145 16.131 907.372 16.1047 906.577 16.0571C905.748 16.008 906.143 15.6996 905.856 15.6198C905.296 15.4638 905.769 15.8778 905.547 15.9668C904.917 15.9348 904.245 15.8826 903.616 15.8303C903.771 15.794 903.927 15.7586 904.086 15.7251C903.806 15.7134 903.412 15.6457 903.877 15.5445C903.775 15.5138 903.679 15.4783 903.575 15.4484C903.546 15.5968 903.038 15.6027 902.993 15.6903C902.946 15.778 903.228 15.7611 903.227 15.7687C903.198 15.8782 902.074 15.7147 901.981 15.7013C901.758 15.6661 901.955 15.4841 901.767 15.4937C901.444 15.5101 901.652 15.8878 901.228 15.384C901.056 15.544 901.044 15.4597 900.829 15.4459C900.799 15.4441 900.821 15.5382 900.808 15.5405C900.468 15.6061 900.731 15.4348 900.729 15.4253C900.699 15.2644 900.338 15.3315 900.264 15.3152C899.355 15.1126 898.642 14.9743 897.661 14.9181C897.461 14.9063 896.777 14.9633 896.596 14.9338C896.377 14.9043 896.496 14.79 896.384 14.7332C896.194 15.0091 896.074 15.0384 895.663 14.8502C895.515 15.0514 895.526 14.8878 895.276 14.9255C895.159 14.9409 894.974 15.008 894.84 15.0455C894.664 15.0826 894.524 15.0899 894.407 14.9849C894.533 14.9957 894.585 14.9761 894.66 14.9469C894.696 14.9323 894.741 14.9153 894.797 14.8985C894.837 14.8814 894.887 14.8645 894.966 14.8504C894.992 14.8457 895.08 14.8427 895.219 14.8379C895.337 14.8329 895.465 14.8255 895.615 14.8126C895.937 14.7869 896.151 14.7365 896.121 14.6324C896.081 14.5238 895.718 14.6188 895.692 14.5986C895.597 14.4813 895.852 14.3415 896.007 14.3934C895.963 14.4163 895.911 14.4395 895.866 14.4624C896.251 14.6122 895.987 14.0512 896.292 14.5424C896.331 14.6026 896.315 14.6648 896.381 14.7291C896.395 14.703 896.314 14.6369 896.384 14.626C896.455 14.6151 896.595 14.7405 896.618 14.6365C896.649 14.4853 896.344 14.5414 896.325 14.5323C896.325 14.5332 896.324 14.5341 896.324 14.535C896.131 14.4523 896.538 14.4479 896.563 14.4339C896.697 14.341 896.605 14.2672 896.784 14.1913C896.883 14.148 897.149 14.1774 897.253 14.1643C897.354 14.1508 897.197 14.0772 897.266 14.0626C897.334 14.0481 897.42 14.1036 897.503 14.0867C897.538 14.0793 897.535 13.9992 897.551 13.9966C897.715 13.9678 897.605 14.1329 897.756 14.1245C897.852 14.1189 898.195 13.9679 897.961 13.9189C898.073 13.9042 898.185 13.8937 898.3 13.8825C898.228 13.8578 898.154 13.8408 898.084 13.812C898.297 13.8526 898.399 13.717 898.538 13.7084C898.664 13.6998 898.777 13.8654 898.921 13.787C899.223 13.6201 898.49 13.6902 898.374 13.6583C898.335 13.6459 898.485 13.519 898.509 13.5156C898.608 13.5007 898.714 13.594 898.788 13.5907C899.052 13.5785 899.219 13.4591 899.484 13.4377C900.351 13.3648 901.435 13.3101 902.276 13.2935C902.579 13.2873 902.763 13.4261 902.901 13.4239C903.226 13.4186 903.268 13.3002 903.557 13.2973C903.968 13.2924 904.56 13.4033 904.918 13.4299C905.162 13.4482 905.378 13.3357 905.441 13.3336C906.322 13.3028 907.387 13.318 908.119 13.3253C908.46 13.3287 908.621 13.46 908.692 13.457C908.996 13.4445 908.916 13.333 909.162 13.3471C909.296 13.3546 909.319 13.4611 909.337 13.4654C909.494 13.5023 909.528 13.364 909.649 13.3609C910.352 13.343 911.03 13.4418 911.727 13.4633C911.777 13.465 911.772 13.5264 911.805 13.5236C911.946 13.5102 911.882 13.4127 912.029 13.4074C912.334 13.396 912.646 13.4156 912.972 13.4318C913.004 13.4333 913.018 13.5125 913.091 13.5134C913.165 13.5142 913.222 13.4401 913.337 13.4456C913.639 13.46 913.934 13.553 914.252 13.5617C914.306 13.563 914.373 13.4687 914.453 13.4707C914.703 13.4768 915.071 13.5675 915.283 13.5731C915.977 13.5911 916.641 13.5448 917.294 13.5518C917.453 13.5537 917.591 13.6434 917.672 13.6465C917.856 13.6531 917.718 13.5683 917.904 13.5701C919.418 13.5857 920.917 13.6411 922.454 13.6522C923.072 13.6569 923.786 13.579 924.374 13.6094C924.611 13.6223 924.638 13.7378 924.824 13.7409C925.139 13.7458 925.197 13.5989 925.502 13.5876C925.762 13.5789 926.075 13.7298 926.313 13.7233C926.609 13.7174 926.711 13.5754 927.019 13.5615C927.142 13.5567 927.271 13.5668 927.38 13.579C927.457 13.5853 927.539 13.5921 927.597 13.5977C927.628 13.6005 927.644 13.6029 927.679 13.605C927.708 13.6061 927.729 13.607 927.74 13.6077C927.745 13.608 927.749 13.6083 927.746 13.6085C927.721 13.6112 927.805 13.6012 927.6 13.6186L927.507 13.6329C927.992 13.5675 928.078 13.6449 928.173 13.6517C928.375 13.6972 928.379 13.6979 928.422 13.7028C928.456 13.7059 928.48 13.7054 928.509 13.7038C928.566 13.7003 928.641 13.6896 928.736 13.6656C928.781 13.6594 928.916 13.6407 928.962 13.6419C929.791 13.5968 930.582 13.5392 931.472 13.5098C932.444 13.4785 933.417 13.4898 934.258 13.4109C934.447 13.3991 934.699 13.346 935.095 13.2814C935.302 13.2578 935.515 13.1916 936.02 13.2512C935.533 13.2037 935.347 13.4007 935.334 13.403C935.311 13.4256 935.37 13.3804 935.446 13.3074C935.526 13.2332 935.627 13.1296 935.789 12.9939C935.96 12.8675 936.16 12.6508 936.73 12.5207C937.069 12.472 937.354 12.4554 937.601 12.4467C937.672 12.4443 937.605 12.6034 937.807 12.5243C937.869 12.4988 937.979 12.3916 937.927 12.3709C937.973 12.3296 938.023 12.2897 938.084 12.2513C938.174 12.1953 938.256 12.1373 938.425 12.0295C938.591 11.9214 938.863 11.7844 939.09 11.7132C939.077 11.7295 939.206 11.6745 939.386 11.4859C939.586 11.2971 939.735 11.0411 940.245 10.6107C940.778 10.2175 941.335 9.80109 941.638 9.45645C941.918 9.13091 942.117 8.99802 942.294 8.8469C942.465 8.70882 942.621 8.57042 942.651 8.52388C942.652 8.5226 942.652 8.52156 942.653 8.52078C942.683 8.47985 942.829 8.15089 942.95 7.81362C943.089 7.43941 943.323 7.00357 943.387 6.80469C943.499 6.554 943.593 6.38403 943.656 6.2446C943.718 6.12127 943.75 5.96994 943.681 6.12685C943.691 6.07552 943.693 6.04557 943.731 5.9205C943.747 5.87767 943.742 5.86343 943.828 5.69287C943.845 5.66401 943.888 5.5737 944.003 5.43955C944.033 5.40551 944.068 5.36783 944.113 5.32652C944.18 5.26582 944.305 5.16304 944.486 5.08351C944.83 4.88405 945.595 4.97 945.895 5.26385C946.057 5.39294 946.145 5.51432 946.205 5.60873C946.242 5.66765 946.267 5.71647 946.288 5.76009C946.328 5.84684 946.349 5.9094 946.364 5.96003C946.387 6.03913 946.394 6.07913 946.401 6.11854C946.433 6.33862 946.423 6.32112 946.428 6.36114C946.43 6.38598 946.432 6.39826 946.433 6.38088C946.432 6.36875 946.434 6.35898 946.426 6.28775C946.419 6.24713 946.427 6.21487 946.362 6.01599C946.339 5.95205 946.307 5.86999 946.237 5.75411C946.208 5.71013 945.964 5.28463 945.402 5.14031C944.81 5.00238 944.425 5.23148 944.231 5.3719C944.008 5.55283 944.033 5.55679 943.972 5.6241C943.806 5.85218 943.832 5.84966 943.8 5.90689C943.782 5.94582 943.777 5.96007 943.77 5.97777C943.758 6.00712 943.754 6.0169 943.751 6.02453C943.746 6.0375 943.745 6.03575 943.745 6.03113C943.849 5.56967 943.89 5.3799 943.87 5.32686C943.89 4.76513 944 4.07801 944.235 3.49055C944.612 2.64339 944.922 1.79039 945.584 0.90026C945.674 0.778291 946.005 0.904344 946.09 0.998554C946.009 1.0592 945.916 1.11611 945.826 1.17845C946.238 1.34221 946.13 1.30887 946.033 1.65816C945.973 1.87346 946.184 1.72937 946.217 1.85387C946.261 2.01678 946.336 2.77363 946.08 2.5806C946.12 2.63323 946.158 2.6855 946.197 2.73759C946.144 3.19346 946.064 3.65553 945.98 4.09637C945.969 4.16186 945.959 4.22734 945.951 4.29282C945.941 4.37568 946.026 4.40418 946.018 4.48758C945.999 4.71121 945.907 4.87065 945.881 5.10521C945.868 5.23311 945.969 5.26272 945.943 5.43074C945.937 5.47363 945.923 5.50489 945.909 5.53154C945.86 5.64022 945.809 5.68545 945.867 5.92907C946.056 5.80499 945.825 6.36649 945.743 6.56711C945.736 6.58974 945.729 6.61072 945.72 6.63784C945.7 6.68222 945.73 6.65256 945.631 6.83429C945.6 6.87558 945.603 6.89518 945.484 7.00066C945.411 7.0603 945.267 7.15293 945.053 7.15225C944.801 7.15394 944.604 6.99335 944.536 6.90135C944.365 6.64367 944.419 6.64471 944.397 6.59683C944.387 6.53497 944.387 6.5182 944.385 6.49803C944.383 6.46408 944.383 6.44844 944.382 6.43493C944.382 6.42963 944.379 6.41917 944.374 6.41263C944.374 6.42652 944.345 6.33503 944.375 6.52723C944.38 6.54752 944.39 6.58353 944.412 6.63335C944.426 6.6617 944.432 6.67879 944.469 6.73428C944.511 6.79448 944.579 6.88087 944.714 6.95457C944.847 7.03049 945.047 7.0568 945.192 7.02064C945.341 6.98682 945.432 6.92137 945.491 6.87313C945.565 6.80825 945.586 6.7761 945.611 6.74321C945.681 6.63957 945.675 6.63482 945.685 6.6194C945.701 6.59218 945.703 6.59538 945.708 6.59623C945.716 6.60161 945.721 6.61968 945.726 6.64137C945.708 6.8573 945.658 7.01939 945.602 7.10817C945.485 7.29064 945.251 7.45501 945.202 7.65638C945.194 7.68836 945.201 7.72033 945.212 7.74986C945.216 7.83922 945.228 7.92895 945.187 8.01077C945.142 8.09895 944.994 8.1333 944.939 8.21943C944.883 8.30664 944.867 8.53221 944.852 8.56724C944.797 8.69443 944.795 8.52294 944.75 8.60758C944.743 8.61968 944.737 8.63187 944.731 8.64445C944.575 8.93391 944.443 9.27307 944.096 9.722C943.895 9.95806 943.734 10.0901 943.599 10.2283C943.552 10.2759 943.681 10.2865 943.676 10.2944C943.408 10.6604 943.517 10.4171 943.378 10.4276C943.319 10.4267 943.142 10.5667 943.111 10.6383C942.941 10.8794 942.798 11.0865 942.853 11.1489C942.692 11.0308 942.651 11.2808 942.616 11.321C942.481 11.4767 942.396 11.323 942.288 11.4905C942.248 11.5517 942.427 11.5469 942.368 11.5949C942.22 11.7136 941.974 11.6807 941.777 11.8205C941.729 11.8541 941.768 11.93 941.686 11.9933C941.651 12.0206 941.558 12.0725 941.484 12.1225C941.444 12.142 941.408 12.194 941.522 12.2214C941.318 12.2271 941.334 12.3307 941.146 12.5544C941.095 12.6144 940.93 12.6087 940.84 12.7732C940.809 12.8292 940.906 12.9138 940.838 12.9881C940.677 13.1588 940.422 13.2273 940.128 13.4018C940.008 13.4715 939.876 13.5387 939.731 13.5932C939.622 13.6414 939.574 13.6872 939.431 13.7958C939.291 13.9035 939.096 14.0346 938.905 14.1204C938.882 14.1307 938.862 14.1353 938.844 14.1365C938.722 14.1565 938.676 14.0839 938.489 14.1473C938.455 14.1612 938.228 14.3424 938.089 14.3607C937.999 14.3767 937.579 14.377 937.502 14.3838C937.371 14.3977 937.371 14.5244 937.298 14.5134C937.145 14.4899 937.17 14.3692 937.12 14.4257C937.138 14.4387 937.171 14.4662 937.213 14.5182C937.162 14.3835 937.085 14.456 936.943 14.356C937.021 14.5391 936.83 14.4754 936.75 14.6457C936.684 14.8065 936.745 15.2308 936.455 14.9542C936.421 15.0109 936.174 15.2898 935.737 15.2647C935.738 15.2778 935.721 15.2862 935.716 15.2883C935.642 15.3087 935.675 15.1974 935.592 15.2223C935.575 15.2277 935.608 15.2957 935.493 15.3089C935.438 15.311 934.746 15.4606 934.684 15.4518C934.146 15.4113 934.96 15.3387 935.027 15.2302C935.049 15.247 935.071 15.2639 935.094 15.2802C935.302 15.2708 935.153 15.1321 935.054 15.1139C934.955 15.0958 934.793 15.2047 934.701 15.164C934.657 15.1435 934.649 14.9423 934.768 14.9446C934.634 14.9068 934.79 14.8114 934.73 14.7634C934.699 14.7379 934.556 14.7444 934.42 14.7602C934.271 14.7778 934.128 14.8149 934.132 14.8716C934.223 14.866 934.333 14.8509 934.429 14.8419C934.442 14.8407 934.454 14.8396 934.467 14.8385C934.523 14.8998 934.523 15.0288 934.467 15.1602C934.38 15.3961 934.125 15.6389 933.853 15.4884C933.555 15.3169 934.013 15.1419 933.355 15.3344C933.458 15.3378 933.545 15.3515 933.639 15.3542C933.657 15.4976 933.496 15.3477 933.421 15.3968C933.384 15.421 933.621 15.512 933.421 15.5553C933.239 15.357 933.115 15.5691 932.829 15.5795C932.908 15.5406 932.985 15.5017 933.065 15.4624C932.577 15.3279 933.694 15.2443 932.757 15.1888C932.869 15.1793 932.98 15.1779 933.093 15.1639C933.037 15.0902 933.116 14.8655 933.066 14.8202C932.935 14.7015 932.749 14.7808 932.593 14.7736C932.523 14.7707 932.565 14.7098 932.559 14.7096C932.466 14.705 932.489 14.7924 932.406 14.7998C932.303 14.809 932.005 14.7291 931.956 14.7396C931.833 14.7666 932.041 14.9364 932.031 14.9495C931.953 15.0348 931.787 14.9679 931.799 15.0776C932.189 14.9971 933.325 15.0667 932.303 15.2716C932.589 15.4431 932.514 15.6898 932.106 15.7167C931.769 15.7387 931.984 15.637 931.808 15.5321C931.795 15.5245 931.638 15.5063 931.501 15.5073C931.409 15.508 931.326 15.5197 931.317 15.5517C931.331 15.3758 931.182 15.2243 931.275 15.0407C931.288 15.0136 931.473 15.0201 931.406 14.8759C931.372 14.8034 931.275 14.6466 931.287 14.5532C931.251 14.6188 931.213 14.6927 931.176 14.7613C930.899 14.7884 930.858 14.7204 930.702 14.6048C930.711 14.6549 930.858 14.8618 930.644 14.8046C930.633 14.8011 930.621 14.7255 930.512 14.6915C930.292 14.6233 930.246 14.6013 930.405 14.3727C929.96 14.5149 929.855 14.2697 929.398 14.3553C929.498 14.6395 929.658 14.5644 930.077 14.4955C930.098 14.5631 930.109 14.6303 930.13 14.6986C929.563 14.5619 929.842 14.5689 929.527 14.7168C929.45 14.7531 929.035 14.7275 929.178 14.917C929.212 14.9617 929.47 14.9496 929.442 15.0219C929.437 15.0358 929.124 15.0788 929.095 15.0609C929.042 15.0278 929.011 14.9957 928.993 14.9654C928.99 14.9654 928.982 14.9665 928.979 14.9669C928.861 14.7965 929.127 14.7124 928.432 14.7988C928.41 14.7996 928.396 14.8827 928.348 14.8893C928.257 14.9 928.272 14.804 928.193 14.8115C928.107 14.8194 927.999 14.9127 927.84 14.7629C927.795 14.7285 927.735 14.7072 927.707 14.6882L927.727 14.6851C927.75 14.6668 927.752 14.6512 927.721 14.6396L927.698 14.6431C928.029 14.4797 928.267 14.5619 928.415 14.6453C928.437 14.5852 928.391 14.5349 928.317 14.4842C928.279 14.4586 928.236 14.433 928.176 14.4028C928.144 14.3875 928.11 14.371 928.053 14.3506C927.985 14.3376 927.946 14.2789 927.636 14.3117L927.682 14.3046C927.366 14.2392 926.656 14.2423 926.619 14.2543C926.119 14.3557 926.939 14.3029 926.967 14.3826C926.983 14.4163 926.982 14.8422 927.192 14.568C927.255 14.4868 926.997 14.3762 927.153 14.3327C927.302 14.289 927.24 14.4138 927.251 14.4227C927.286 14.453 927.43 14.4079 927.468 14.4261C927.646 14.5626 927.669 14.732 927.66 14.7924C927.651 14.8527 927.554 14.8033 927.327 14.5C927.159 14.6344 927.547 14.8552 927.331 14.9455C927.086 15.0554 926.831 14.8585 926.819 14.8496C926.411 14.7417 926.9 15.0304 926.363 14.934C926.066 14.8804 926.799 14.7502 926.148 14.7616C925.611 14.7714 925.897 14.8732 925.857 15.0971C925.847 15.1495 925.54 15.2105 925.956 15.192C925.968 15.1337 925.99 15.0569 926.016 15.0033C926.116 15.0471 926.265 15.3412 926.316 15.352C926.6 15.4037 926.582 15.2517 926.73 15.4321C926.627 15.2354 926.798 15.3551 926.857 15.3144C927.093 15.1646 926.81 15.1052 927.336 15.3061C927.275 15.2138 927.214 15.1232 927.143 15.0312C927.211 15.0287 927.274 15.0261 927.331 15.0235C927.439 15.2266 927.791 15.2038 927.47 15.4043C927.611 15.4228 927.662 15.4368 927.815 15.4268C927.821 15.4257 927.84 15.4235 927.846 15.4221C927.654 15.4247 927.823 15.4134 927.856 15.4029C927.914 15.3895 927.966 15.3612 928.008 15.3164C928.033 15.2912 928.097 15.2944 928.173 15.3042C928.166 15.2582 928.174 15.1209 928.187 15.1064C928.302 14.9794 928.425 15.2422 928.367 15.3353C928.421 15.3441 928.463 15.3509 928.478 15.3537C928.574 15.3714 928.381 15.4533 928.459 15.4861C928.486 15.5009 928.765 15.4726 928.773 15.5043C928.822 15.7059 928.41 15.6408 929.104 15.631L929.009 15.6409C929.057 15.6468 929.111 15.6541 929.173 15.6628C929.18 15.5547 929.086 15.5174 929.005 15.4753L929.073 15.4681C928.982 15.4437 928.908 15.4083 928.942 15.2958C928.96 15.2336 928.987 15.2041 929.021 15.1892L928.998 15.1915C929.101 15.1635 929.228 15.2868 929.256 15.0665C929.274 15.114 929.283 15.1537 929.298 15.2079C929.613 15.0724 929.624 15.3146 929.722 15.3654C929.915 15.4647 930.781 15.4201 929.996 15.2355C930.109 15.2109 930.225 15.1974 930.337 15.175C930.378 15.6092 930.304 15.4383 930.85 15.4863C930.97 15.4971 931.015 15.6871 931.124 15.4563C931.116 15.6794 931.46 15.5355 931.491 15.5628C931.495 15.5662 931.499 15.5696 931.502 15.573C931.539 15.6088 931.535 15.6476 931.504 15.6831C931.398 15.8167 930.915 15.9112 930.825 15.6081C930.698 15.766 930.692 15.5631 930.544 15.5951C930.33 15.6412 930.301 15.6818 930.041 15.5404C929.797 15.7598 931.028 15.6003 930.289 15.9053C930.088 15.9877 929.62 16.0705 929.021 16.1426L929.196 16.1242C928.944 16.1899 928.648 16.2382 928.315 16.2306C928.151 16.2272 927.974 16.2073 927.817 16.1783C927.74 16.1644 927.665 16.1479 927.626 16.1415C927.608 16.1386 927.597 16.139 927.627 16.1466C927.659 16.1493 927.722 16.1864 927.983 16.1477C927.967 16.1515 927.918 16.1574 927.902 16.1601C926.189 16.2622 924.741 16.288 924.155 16.3085C922.307 16.3633 921.343 16.4017 919.683 16.3697C919.529 16.3669 918.277 16.3725 918.543 16.1317C918.575 16.0971 919.12 16.0107 918.658 15.8139C918.75 15.928 918.482 15.9982 918.461 16.0099C917.948 16.2741 918.247 16.3437 917.432 16.337ZM915.059 14.1339C916.11 14.202 915.34 14.0299 915.562 13.6643C915.428 13.6617 915.294 13.6591 915.158 13.6564C915.194 13.68 915.228 13.7034 915.264 13.7269C915.264 13.7269 915.264 13.7269 915.264 13.7269C915.196 13.8626 915.128 13.9983 915.059 14.1339ZM897.785 13.6823C897.826 13.6343 897.866 13.5862 897.911 13.5393C898.049 13.556 898.189 13.5724 898.333 13.5892C898.316 13.6219 898.299 13.6549 898.281 13.6876C898.111 13.6842 897.947 13.6807 897.785 13.6823ZM928.531 14.5973C928.69 14.7288 928.658 14.4938 928.88 14.5704C928.823 14.4003 928.77 14.2329 928.726 14.0616C928.612 14.1018 928.584 14.1711 928.472 14.1224C928.481 14.1802 928.493 14.2383 928.506 14.2961C928.528 14.2846 928.552 14.2708 928.573 14.2595C928.617 14.4209 928.371 14.4387 928.53 14.5977C928.53 14.5976 928.53 14.5975 928.531 14.5973ZM930.527 14.4363C930.634 14.4557 931.059 14.5284 931.115 14.4535C931.303 14.1977 930.114 14.3951 930.987 14.1447C930.982 14.1099 930.985 14.0755 930.983 14.0409C930.822 14.0338 930.661 14.0288 930.501 14.0244C930.514 14.1619 930.513 14.2981 930.527 14.4363ZM918.88 14.1635C919.048 14.1846 919.824 14.0765 919.573 13.9158C919.5 13.8687 919.15 14.0904 919.016 14.079C918.93 14.0717 919.028 13.949 918.856 13.9925C918.863 14.0472 918.867 14.1077 918.88 14.1631C918.88 14.1632 918.88 14.1633 918.88 14.1635ZM918.562 14.8799C918.728 14.8599 918.908 14.834 919.078 14.8126C918.955 14.6701 918.705 14.7578 918.693 14.5592C918.741 14.5447 918.788 14.5303 918.835 14.5158C918.871 14.5596 918.906 14.6035 918.941 14.6472C919.09 14.5412 919.002 14.4866 919.274 14.521C919.113 14.2191 919.084 14.0578 918.608 14.3557C918.697 14.194 918.622 13.6629 918.363 14.0388C918.315 14.1085 918.513 14.1579 918.515 14.1691C918.544 14.3087 918.433 14.3962 918.464 14.5281C918.478 14.5878 918.599 14.5883 918.616 14.6711C918.624 14.7115 918.508 14.8251 918.562 14.8799ZM918.238 14.17C918.291 14.0863 918.116 13.8841 917.961 13.9229C917.718 13.983 918.098 14.1779 918.238 14.17ZM897.784 13.6824C897.785 13.6824 897.785 13.6823 897.785 13.6823C897.785 13.6824 897.785 13.6826 897.785 13.6828C897.785 13.6827 897.784 13.6826 897.784 13.6824ZM929.978 14.3569C930.1 14.2813 930.285 14.2856 930.268 14.1721C930.329 14.1925 930.391 14.2124 930.453 14.2327C930.451 14.1985 930.449 14.1642 930.447 14.1303C930.263 14.1152 930.081 14.0999 929.898 14.0839C929.924 14.1748 929.948 14.2661 929.978 14.3569ZM931.984 14.3826C932.215 14.39 932.019 14.2384 932.068 14.1626C932.115 14.0869 932.321 14.1438 932.295 14.0369C932.162 14.0353 932.019 14.0337 931.884 14.0321C931.922 14.1484 931.949 14.267 931.984 14.3826C931.984 14.3826 931.984 14.3826 931.984 14.3826ZM910.747 13.9608C910.903 13.9963 910.838 14.1138 911.148 13.9789C911.148 13.9789 911.148 13.9789 911.147 13.9789C910.855 13.8785 910.478 13.7877 910.153 13.8776C910.349 14.0048 910.502 13.9054 910.747 13.9608ZM928.203 14.1978C928.132 14.2775 928.34 14.4096 928.387 14.3231C928.458 14.1901 928.329 14.0876 928.203 14.1978ZM904.423 14.7163C904.18 15.0021 904.632 15.3316 905.106 15.1973C905.147 15.1855 904.845 15.0901 904.936 15.0348C904.947 15.0294 905.111 15.0382 905.152 14.9986C905.194 14.9588 905.152 14.8649 905.219 14.8265C905.338 14.7594 905.604 14.8895 905.694 14.8007C905.706 14.7887 905.541 14.6618 905.53 14.657C905.361 14.5794 905.196 14.7407 905.17 14.7415C905.035 14.7455 905.057 14.6177 905.023 14.5872C904.961 14.5299 904.842 14.585 904.834 14.5808C904.626 14.466 905.105 14.5038 905.165 14.4583C905.337 14.3358 905.179 14.2181 905.59 14.1526C905.629 14.1465 906.097 14.1596 905.51 14.0092C906.669 13.7242 904.937 13.8324 904.741 13.8959C904.653 13.9253 904.785 14.0489 904.731 14.1032C904.607 14.2274 904.4 14.2471 904.416 14.4243C904.452 14.797 904.726 14.5564 904.915 14.6213C904.894 14.7019 904.886 14.7806 904.848 14.8593C904.905 14.7535 904.44 14.6948 904.423 14.7156C904.423 14.7158 904.423 14.7161 904.423 14.7163ZM907.363 14.3259C907.622 14.4413 907.607 14.2061 907.845 14.3433C908.059 14.1349 907.641 14.1441 907.593 14.1316C907.372 14.0758 907.38 13.8464 907.154 13.9143C907.23 14.051 907.291 14.1889 907.363 14.3259ZM905.103 14.2021C905.276 14.0852 904.97 14.0836 904.956 14.0607C904.825 13.8178 905.745 13.8756 905.103 14.2021ZM919.886 14.648C919.972 14.6571 919.919 14.5425 919.995 14.5098C920.074 14.4768 920.347 14.5774 920.34 14.5065C920.335 14.4354 919.837 14.2453 920.339 14.2113C920.322 14.1712 920.328 14.1415 920.32 14.1054C920.185 14.1028 920.038 14.0993 919.91 14.0968C919.981 14.2124 920.055 14.334 920.128 14.4458C920.049 14.5362 920.006 14.4185 920.003 14.4185C920.003 14.4186 920.003 14.4187 920.003 14.4189C919.865 14.4264 919.691 14.6279 919.886 14.648ZM912.929 14.2086C912.899 14.4935 913.112 14.1774 913.199 14.1431C913.285 14.1089 913.401 14.2159 913.358 14.0926C913.221 14.0063 912.933 14.1768 912.929 14.209C912.929 14.2088 912.929 14.2087 912.929 14.2086ZM908.777 14.3421C908.996 14.2755 908.962 14.2009 909.229 14.2887C909.219 14.2197 909.21 14.1491 909.2 14.0811C908.988 14.0772 909 14.2775 908.756 14.1941C908.716 14.1803 908.804 14.0215 908.622 14.0707C908.674 14.1567 908.726 14.252 908.777 14.3421ZM909.863 14.0994C909.612 14.1069 909.408 14.6624 909.871 14.4163C909.94 14.3795 910.051 14.0936 909.863 14.0994ZM917.578 14.6351C918.007 14.6562 917.521 14.5605 917.41 14.4735C918.41 14.4166 917.298 14.4956 917.199 14.2093C917.078 14.2891 916.852 14.4721 917.1 14.5248C917.204 14.5466 917.167 14.4613 917.173 14.4617C917.368 14.485 917.344 14.6236 917.578 14.6351ZM906.911 14.3343C906.927 14.3302 906.903 14.2336 906.954 14.215C907.005 14.1965 907.12 14.2653 907.132 14.2063C907.144 14.147 906.913 14.0981 906.842 14.1406C906.771 14.1835 906.766 14.3696 906.911 14.3343ZM908.543 14.591C908.757 14.5242 908.413 14.1653 908.367 14.1664C907.962 14.1802 908.557 14.4788 908.543 14.591ZM916.582 15.2261C917.095 15.0519 916.726 14.7343 916.407 14.543C916.364 14.5806 916.32 14.6183 916.277 14.6555C916.473 14.4262 916.816 14.2012 916.058 14.3942C916.471 14.4536 916.124 14.5117 916.121 14.5248C916.071 14.9498 916.684 14.7593 916.582 15.2261C916.582 15.2261 916.582 15.2261 916.582 15.2261ZM906.22 14.2246C905.994 14.2233 905.413 14.2899 905.682 14.4786C905.861 14.3939 906.04 14.3092 906.22 14.2246ZM924.997 15.2988C925.182 15.4069 925.346 15.407 925.558 15.4024C925.367 15.2459 925.493 15.2296 925.559 15.1925C925.666 15.1368 925.417 15.1387 925.419 15.1283C925.424 14.9817 925.581 14.9607 925.228 14.9603C925.317 14.9102 925.403 14.8597 925.488 14.8099C925.225 14.8003 925.158 14.7039 924.981 14.585C925.151 14.8725 924.928 14.6912 924.708 14.8308C924.599 14.9007 924.905 15.2435 924.997 15.2988C924.997 15.2988 924.997 15.2988 924.997 15.2988ZM917.108 15.2896C917.161 15.2387 917.21 15.1697 917.263 15.1115C917.319 15.1066 917.376 15.1024 917.432 15.0974C917.439 15.143 917.444 15.1906 917.452 15.2344C917.526 15.2486 917.498 15.1849 917.52 15.1792C917.52 15.1795 917.52 15.1797 917.52 15.1799C917.837 15.0997 917.964 15.1107 918.206 15.2541C918.208 15.1148 918.209 14.9754 918.211 14.8361C918.156 14.8487 918.101 14.8611 918.046 14.8733C918.016 14.9479 917.985 15.0224 917.955 15.097C917.892 15.0549 917.829 15.0132 917.766 14.9711C917.714 14.9975 917.652 15.0251 917.607 15.0508C917.355 14.6583 917.935 14.9297 917.941 14.7681C917.946 14.6642 917.36 14.6619 917.273 14.7326C917.261 14.743 917.384 15.0345 917.171 14.8808C917.138 14.8567 917.135 14.2291 916.901 14.7345C916.868 14.8062 916.977 15.1973 917.108 15.2896ZM919.227 15.5167C918.906 15.1116 920.102 15.55 919.589 15.2137C919.738 15.031 919.711 15.0331 919.564 14.8677C919.552 14.8529 919.655 14.8034 919.646 14.7969C919.509 14.705 919.339 14.7509 919.34 14.5867C919.302 14.595 919.266 14.6024 919.228 14.6107C919.385 14.7672 919.132 14.8682 919.032 14.9975C918.987 15.0561 919.089 15.0755 919.051 15.1268C919.037 15.1456 918.894 15.1062 918.887 15.1603C918.873 15.2826 918.962 15.4492 919.113 15.5412C919.113 15.5414 919.113 15.5415 919.113 15.5416C919.152 15.534 919.189 15.5247 919.227 15.5167ZM912.228 15.1009C912.175 14.8784 911.952 14.8122 912.382 14.7088C912.362 14.6649 912.34 14.6213 912.32 14.5773C912.247 14.5803 912.177 14.5833 912.104 14.5859C911.876 15.2369 911.481 14.4946 911.734 14.9612C911.762 15.0119 911.934 14.9576 911.763 15.0924C911.763 15.0926 911.763 15.0927 911.763 15.0928C912.001 15.0536 912.031 14.9754 912.228 15.1009ZM913.814 14.9649C914.364 14.5045 913.064 14.6955 913.279 14.822C913.299 14.8334 913.859 14.7397 913.814 14.9649ZM909.429 15.3193C909.675 15.3303 909.693 15.0786 909.67 14.9876C909.646 14.8963 909.476 14.9863 909.454 14.9717C909.383 14.9236 909.535 14.8942 909.443 14.8283C909.412 14.807 908.986 14.7121 908.966 14.7227C908.857 14.7817 909.013 14.9914 908.982 15.0148C908.88 15.0916 908.744 14.9818 908.713 15.092C908.647 15.327 908.906 15.0825 908.949 15.079C909.08 15.0694 909.067 15.202 909.165 15.2297C909.262 15.2574 909.327 15.2127 909.413 15.2232C909.442 15.2266 909.417 15.3183 909.429 15.3193ZM910.244 14.797C909.986 14.9846 910.606 15.1994 910.68 15.1556C910.899 15.0256 910.367 14.7075 910.244 14.797ZM918.41 14.9014C918.179 15.0369 918.71 15.1551 918.875 15.1013C918.845 15.0436 918.487 14.8547 918.41 14.9014ZM916.44 15.2237C916.655 15.1831 916.375 14.8684 916.194 14.8712C916.086 15.0746 916.186 15.0352 916.304 15.045C916.421 15.0548 916.272 15.2552 916.44 15.2237ZM906.777 15.0602C906.822 15.064 907.571 14.9037 907.143 14.8283C907.11 14.8227 906.589 14.8463 906.55 14.8773C906.47 14.9401 906.659 15.0497 906.777 15.0602ZM915.404 15.5138C915.519 15.3381 915.63 15.3418 915.528 15.1327C915.528 15.1327 915.528 15.1327 915.528 15.1327C915.812 15.0724 915.825 15.4978 915.887 15.4894C916.106 15.4601 915.902 15.155 916.041 15.0573C915.721 15.1469 915.811 14.9439 915.574 14.9282C915.52 14.9247 915.304 15.044 915.272 15.1196C915.239 15.1952 915.346 15.4242 915.404 15.5138ZM905.719 15.0917C905.971 15.1626 906.207 14.8784 905.856 14.8288C905.685 14.8043 905.566 15.0486 905.719 15.0917ZM930.925 15.4335C930.884 15.3596 930.842 15.286 930.798 15.2129C930.89 15.1916 930.982 15.17 931.075 15.1486C931.002 15.1747 930.93 15.2005 930.856 15.2264C931.032 15.2468 931.115 15.3812 930.925 15.4335C930.925 15.4335 930.925 15.4335 930.925 15.4335ZM937.099 14.3306C937.141 14.3603 937.099 14.2948 937.081 14.231C937.097 14.1918 937.104 14.1584 937.096 14.1537C937.084 14.1464 937.073 14.1409 937.061 14.1369C936.999 14.0695 936.999 14.285 937.099 14.3306ZM918.746 15.5867C919.041 15.6216 918.843 15.2545 918.661 15.2274C918.771 15.2984 918.578 15.5669 918.746 15.5867ZM935.027 15.2302C934.994 15.2051 934.961 15.1801 934.925 15.1554C935.027 15.1788 935.049 15.2038 935.027 15.2302ZM906.892 15.3837C906.935 15.4122 907.262 15.4392 907.307 15.4051C907.4 15.3334 907.146 15.129 906.996 15.1891C906.979 15.1956 906.848 15.3551 906.892 15.3837C906.892 15.3837 906.892 15.3837 906.892 15.3837ZM931.317 15.5616C931.316 15.5582 931.317 15.5548 931.317 15.5517C931.317 15.555 931.317 15.5584 931.317 15.5616ZM942.866 11.1586C942.861 11.156 942.856 11.1528 942.853 11.1489C942.857 11.152 942.862 11.1548 942.866 11.1586ZM909.202 15.7208C909.307 16.0695 909.562 15.8877 909.364 15.7135C909.353 15.7044 909.228 15.7218 909.202 15.7208Z" fill="#419DDF"/>
</svg>
