<svg width="947" height="25" viewBox="0 0 947 25" fill="none" xmlns="http://www.w3.org/2000/svg">
<path d="M582.725 0.524234C619.944 0.516534 660.692 0.470268 698.06 0.530459C702.647 0.537813 702.334 0.638561 703.621 0.651859C707.139 0.688552 709.258 0.569712 711.822 0.578433C724.289 0.620425 735.952 0.637521 748.182 0.675662C760.781 0.714857 754.822 1.02802 759.199 1.10431C767.753 1.25372 760.477 0.845352 763.839 0.753666C773.645 0.778161 783.537 0.8224 793.36 0.867191C790.962 0.90532 788.564 0.942639 786.139 0.977971C790.421 0.986374 796.548 1.04941 789.379 1.15613C790.963 1.18553 792.443 1.21991 794.071 1.2486C794.518 1.09989 802.098 1.08792 802.791 0.99976C803.483 0.911572 799.221 0.931836 799.247 0.924138C799.53 0.814297 817.012 0.964442 818.273 0.976689C821.606 1.00928 818.684 1.19364 821.519 1.18177C826.396 1.16147 823.147 0.786357 829.749 1.28504C832.375 1.12304 832.604 1.20717 835.929 1.21839C836.367 1.21979 836.027 1.12599 836.22 1.12354C841.254 1.05392 837.384 1.22835 837.411 1.2378C837.868 1.39831 843.27 1.32696 844.408 1.34235C858.687 1.53411 869.15 1.66394 884.217 1.70838C887.474 1.71783 897.394 1.6527 900.546 1.68C903.655 1.70694 901.987 1.82259 903.614 1.87812C906.222 1.5999 908.71 1.56922 914.564 1.75251C916.744 1.54956 916.464 1.71327 920.64 1.67268C924.116 1.63905 930.174 1.39559 934 1.6031C929.614 1.5842 930.068 1.6839 925.13 1.74409C923.486 1.76402 906.345 1.76828 907.62 1.97572C908.286 2.08384 913.967 1.98453 914.186 2.00446C915.464 2.12065 912.294 2.26343 909.483 2.21339C910.184 2.18994 911.028 2.16616 911.78 2.14271C905.468 1.99748 909.809 2.55527 905.011 2.06782C904.418 2.00803 904.648 1.94568 903.67 1.88215C903.469 1.90843 904.665 1.97357 903.635 1.98524C902.584 1.997 900.588 1.87331 900.291 1.97755C899.846 2.12913 904.201 2.06939 904.528 2.07826C904.532 2.07734 904.535 2.07642 904.539 2.07551C907.436 2.15599 901.385 2.16517 901.096 2.17951C899.225 2.27396 900.501 2.34668 897.692 2.42469C896.09 2.46914 892.009 2.44294 890.503 2.45729C889.007 2.47199 891.335 2.5437 890.328 2.55909C889.321 2.57449 888.067 2.52 886.885 2.53785C886.38 2.54572 886.405 2.62569 886.161 2.62849C883.535 2.65926 885.257 2.49291 882.876 2.50306C881.333 2.50981 876.155 2.66488 879.724 2.71107C878.009 2.72716 876.336 2.73894 874.629 2.75154C875.705 2.77533 876.818 2.79149 877.868 2.81947C874.656 2.78138 873.203 2.91824 871.19 2.92842C869.176 2.93857 867.371 2.77433 865.156 2.85444C860.428 3.02487 872.136 2.94613 873.589 2.97657C874.155 2.98854 871.98 3.11719 871.645 3.12086C870.157 3.13695 868.397 3.04496 867.25 3.04908C863.144 3.06448 860.63 3.1859 856.717 3.2104C843.391 3.29369 826.86 3.36123 814.235 3.38783C809.533 3.39763 806.705 3.26112 804.594 3.26497C799.658 3.27408 799.053 3.39304 794.747 3.39937C788.338 3.40917 779.309 3.30531 773.96 3.28291C770.257 3.26751 766.904 3.38264 765.941 3.38545C752.554 3.42674 736.268 3.42415 725.175 3.42555C719.958 3.42625 717.48 3.29687 716.403 3.30067C711.772 3.31677 713.013 3.42738 709.259 3.41621C707.231 3.41027 706.851 3.30409 706.58 3.29994C704.19 3.26494 703.714 3.40361 701.849 3.40816C691.124 3.43439 680.794 3.34364 670.174 3.33034C669.404 3.32929 669.472 3.26786 668.973 3.27101C666.83 3.28608 667.826 3.38282 665.587 3.38985C660.929 3.40489 656.146 3.38891 651.208 3.37666C650.719 3.37545 650.499 3.29649 649.38 3.29646C648.259 3.29646 647.41 3.37132 645.65 3.36714C641.054 3.35629 636.518 3.26675 631.65 3.26185C630.844 3.26115 629.846 3.35628 628.638 3.35524C624.847 3.35209 619.234 3.26574 615.986 3.26259C605.269 3.25279 595.383 3.30693 585.288 3.30763C582.916 3.30759 580.815 3.21946 579.58 3.21736C576.798 3.21284 578.897 3.29611 576.078 3.29646C553.052 3.29856 529.937 3.2607 506.639 3.26735C497.49 3.2698 486.353 3.35596 477.51 3.33217C473.834 3.32201 473.166 3.20687 470.566 3.20582C465.928 3.20446 465.086 3.35206 460.194 3.36677C456.289 3.37832 451.814 3.23097 447.751 3.24006C443.689 3.24916 441.814 3.39229 437.148 3.40944C433.304 3.42342 427.937 3.35847 423.753 3.36897C385.405 3.46556 347.643 3.52435 309.059 3.41237C295.444 3.37282 280.339 3.39338 266.269 3.2527C264.948 3.23938 266.969 3.10116 262.732 3.1302C260.456 3.14595 257.278 3.26505 252.016 3.27101C220.733 3.306 187.365 3.05124 155.557 3.10164C107.91 3.17758 58.5306 4.16117 17.1267 2.72187C15.0958 2.65119 16.1971 2.30483 17.4139 2.20643C18.5431 2.27676 19.587 2.36028 20.7687 2.43971C22.2567 2.00693 21.9944 2.11961 27.5099 2.15846C30.9055 2.18258 28.1932 1.99749 30.0032 1.94495C32.3496 1.87706 43.3666 1.66329 41.2478 1.9499C41.9307 1.90021 42.561 1.8526 43.2264 1.80396C51.2022 1.76057 58.9513 1.68881 66.7521 1.60657C68.0996 1.5922 68.1618 1.50227 69.5536 1.48792C73.2918 1.44874 76.2597 1.50782 80.1118 1.49872C82.2043 1.49383 82.4947 1.3899 85.2351 1.39655C87.9739 1.40324 87.9139 1.54353 91.6506 1.39106C89.2166 1.21504 100.074 1.34276 103.935 1.33191C104.496 1.33052 109.091 1.17238 111.534 1.19056C113.986 1.2084 117.707 1.30942 121.497 1.25208C123.275 1.22514 124.353 1.10198 126.27 1.09498C127.619 1.09008 129.238 1.19954 130.945 1.20411C132.652 1.20865 136.345 1.1188 137.021 1.11731C139.463 1.11137 136.769 1.18833 138.439 1.1922C146.503 1.2097 155.871 1.25095 163.821 1.19916C164.799 1.19288 163.446 1.10221 163.576 1.09919C170.211 0.987931 166.67 1.10607 168.461 1.18726C170.197 1.26577 182.897 1.22294 182.991 1.06531C183.381 1.2627 186.204 1.11194 186.937 1.10615C189.791 1.08377 189.231 1.25455 191.997 1.20173C193.013 1.18249 191.036 1.06706 192.127 1.07044C194.823 1.07884 197.25 1.26428 200.84 1.28284C201.706 1.28739 201.988 1.20479 203.529 1.20759C205.072 1.21043 211.539 1.31149 208.554 1.13727C212.476 1.27688 213.266 1.20026 217.827 1.20411C218.983 1.20528 220.47 1.3384 222.93 1.29712C223.761 1.28312 223.737 1.1548 224.989 1.15375C227.851 1.15099 230.548 1.28382 234.181 1.28907C240.975 1.29921 248.208 1.20584 255.291 1.23908C257.216 1.2482 256.735 1.37721 259.535 1.37971C259.946 1.37971 263.319 1.26814 265.254 1.27863C266.418 1.28493 272.452 1.36334 273.669 1.36963C275.681 1.37973 276.04 1.25496 277.142 1.27936C280.329 1.3497 277.773 1.53336 281.607 1.28211C282.868 1.42139 285.109 1.40746 285.827 1.57893C287.132 1.39102 288.823 1.57156 291.353 1.50861C293.884 1.44562 295.958 1.08168 296.571 1.47327C297.753 1.42568 302.789 1.34446 303.638 1.33851C306.141 1.32172 304.802 1.43004 306.691 1.41541C307.024 1.41296 306.676 1.33889 308.81 1.3462C310.211 1.3511 320.475 1.35564 321.088 1.36579C328.081 1.48175 317.277 1.43925 315.765 1.51942C315.498 1.49836 315.234 1.47723 314.949 1.45643C311.859 1.42145 313.618 1.58879 315.019 1.62763C316.42 1.66646 319.037 1.59192 320.202 1.64686C320.782 1.67444 320.422 1.87507 318.668 1.85084C320.545 1.91263 317.982 1.97788 318.724 2.03596C319.54 2.09962 327.977 2.11922 328.022 2.00868C326.446 2.00483 324.485 2.00864 322.891 2.0041C320.807 1.81197 327.137 1.15586 332.942 1.41797C337.152 1.60764 330.211 1.75845 340.173 1.59925C338.641 1.59155 337.345 1.57361 335.953 1.56556C335.805 1.42148 338.063 1.5799 339.228 1.53406C339.787 1.51165 336.34 1.40963 339.333 1.37568C341.906 1.58172 343.887 1.37446 348.203 1.37202C347.003 1.40876 345.802 1.44532 344.603 1.48206C351.896 1.63149 334.956 1.68078 349.138 1.76441C347.431 1.77105 345.733 1.76929 344.018 1.77943C344.85 1.85503 343.519 2.07696 344.263 2.12385C346.215 2.24693 349.103 2.17273 351.484 2.18354C352.526 2.18809 351.88 2.24801 351.967 2.24836C353.394 2.255 353.079 2.16717 354.331 2.16157C355.907 2.15458 360.457 2.23996 361.195 2.23023C363.104 2.20539 359.926 2.03206 360.109 2.01911C361.326 1.93516 363.812 2.00478 363.681 1.89497C357.701 1.97054 340.465 1.87352 356.058 1.6919C351.759 1.51448 353 1.26987 359.181 1.25062C364.295 1.23452 360.995 1.33253 363.657 1.44031C364.001 1.45381 370.849 1.50534 371.2 1.42914C370.925 1.60464 373.154 1.76005 371.659 1.94111C371.44 1.96771 368.629 1.95721 369.61 2.10279C370.1 2.17592 371.507 2.33508 371.28 2.42817C371.858 2.36344 372.462 2.29062 373.049 2.22309C377.26 2.2042 377.859 2.27393 380.161 2.39466C380.056 2.34427 377.929 2.13252 381.159 2.19691C381.325 2.20076 381.468 2.27676 383.11 2.31446C386.428 2.39004 387.12 2.41355 384.574 2.63673C391.445 2.50943 392.925 2.75817 399.971 2.68544C398.571 2.39853 396.093 2.46956 389.641 2.52485C389.361 2.45662 389.229 2.38907 388.94 2.32014C397.529 2.4748 393.285 2.45905 398.15 2.32051C399.341 2.28656 405.69 2.32288 403.571 2.12971C403.071 2.08426 399.127 2.08949 399.579 2.01783C399.667 2.00419 404.462 1.96947 404.885 1.98798C410.19 2.2165 400.709 2.37577 415.32 2.29249C415.723 2.29004 415.864 2.20652 416.651 2.19489C418.13 2.1732 418.149 2.26996 419.47 2.24763C420.792 2.22523 422.624 2.09509 424.611 2.2154C428.244 2.43447 419.673 2.56047 415.856 2.44428C414.306 2.73055 441.579 2.73685 443.269 2.71235C450.648 2.60564 438.369 2.66724 437.736 2.58784C437.473 2.55425 437.604 2.12842 434.497 2.40473C433.577 2.48662 437.42 2.59451 435.127 2.63966C432.833 2.6848 433.742 2.55942 433.576 2.55067C433.005 2.52068 430.565 2.56717 430.249 2.54939C425.381 2.27957 425.827 1.87186 432.28 2.47413C435.09 2.338 428.639 2.12102 432.133 2.02863C436.379 1.91634 439.478 2.11052 440.012 2.11927C446.41 2.22281 439.033 1.93935 446.848 2.02992C451.199 2.08031 440.336 2.21857 450.273 2.20002C458.59 2.18427 454.098 2.08559 454.703 1.86127C454.845 1.80879 459.403 1.74443 453.197 1.76752C453.022 1.82596 452.691 1.90297 452.297 1.95686C450.775 1.91419 448.237 1.62174 447.429 1.61152C443.481 1.56288 443.671 1.71467 441.343 1.5359C443.006 1.73147 440.299 1.61362 439.284 1.65491C435.513 1.8071 440.457 1.86368 431.993 1.6681C433.096 1.75979 434.094 1.84977 435.162 1.94111C434.147 1.94426 433.131 1.94748 432.115 1.95063C430.601 1.74871 425.207 1.77454 430.091 1.57123C424.217 1.5135 421.843 1.55752 420.556 1.71461C420.311 1.7446 419.428 1.75658 418.391 1.75947C418.588 1.80364 418.839 1.94012 418.675 1.95686C417.213 2.10406 414.947 1.84976 415.719 1.75269C414.994 1.74805 414.42 1.7426 414.217 1.74024C412.932 1.72517 415.451 1.6374 414.41 1.60731C414.066 1.59753 410.446 1.61662 410.376 1.58094C409.939 1.35218 415.898 1.51722 403.932 1.38428C403.643 1.59251 409.201 1.54672 407.774 1.76789C406.241 2.00549 403.116 1.68677 402.433 1.97828C402.179 1.93035 402.067 1.89039 401.848 1.83582C397.008 1.96283 396.943 1.72005 395.465 1.66645C392.593 1.56181 379.39 1.57753 391.245 1.78785C389.511 1.80885 387.741 1.81856 386.016 1.8371C385.623 1.40186 386.673 1.5751 378.365 1.50861C376.535 1.49392 375.939 1.30249 374.145 1.52985C374.389 1.30683 368.977 1.44156 368.472 1.4145C365.233 1.23848 377.26 0.99347 378.802 1.38776C380.833 1.23425 380.826 1.43718 383.092 1.41028C386.367 1.37144 386.822 1.33192 390.709 1.4817C394.535 1.27067 375.73 1.38885 387.13 1.10889C398.533 0.828952 464.928 0.672797 480.417 0.630801C508.478 0.554862 523.231 0.505228 548.438 0.517825C550.924 0.518875 569.694 0.498641 565.793 0.742496C565.233 0.777491 557.159 0.870233 564.084 1.06165C562.676 0.948631 566.747 0.875244 567.089 0.863346C574.925 0.593191 570.389 0.527033 582.725 0.524234ZM619.295 2.69917C603.195 2.64353 615.023 2.80655 611.679 3.1747C613.745 3.17575 615.804 3.17676 617.87 3.17781C617.327 3.15471 616.791 3.13169 616.249 3.10859C616.246 3.10859 616.244 3.10859 616.242 3.10859C617.257 2.97213 618.28 2.83563 619.295 2.69917ZM882.494 2.94563C881.866 2.9941 881.245 3.04267 880.565 3.0901C878.437 3.07505 876.318 3.06028 874.191 3.04524C874.445 3.01235 874.69 2.97907 874.944 2.94618C877.46 2.94758 879.969 2.9491 882.494 2.94563ZM413.604 2.49757C410.593 2.36286 410.864 2.60326 406.863 2.49372C407.353 2.67113 407.898 2.84468 408.415 3.02034C411.46 2.99409 412.152 2.92662 415.46 2.96998C415.075 2.91296 414.681 2.8556 414.305 2.79823C413.754 2.81046 413.168 2.82438 412.634 2.83522C411.785 2.67566 417.072 2.65185 413.615 2.4972C413.611 2.49732 413.608 2.49745 413.604 2.49757ZM382.742 2.56898C381.122 2.54588 374.705 2.45905 373.83 2.53254C370.862 2.78171 388.966 2.62358 375.623 2.8451C375.684 2.88006 375.623 2.91432 375.623 2.94893C378.057 2.96117 380.483 2.97172 382.935 2.98152C382.803 2.84366 382.891 2.70754 382.742 2.56898ZM561.062 2.71455C558.573 2.69535 546.706 2.81255 550.574 2.97035C551.712 3.01654 557.01 2.79081 559.024 2.80061C560.328 2.80693 558.866 2.93069 561.44 2.8852C561.327 2.83065 561.256 2.77017 561.055 2.71492C561.057 2.71479 561.06 2.71467 561.062 2.71455ZM565.73 1.99439C563.156 2.01644 560.547 2.04437 557.956 2.06782C559.847 2.20882 563.568 2.11825 563.787 2.31666C563.078 2.3317 562.377 2.34666 561.668 2.3617C561.125 2.31832 560.591 2.2749 560.057 2.23152C557.833 2.3393 559.18 2.39285 555.039 2.3617C557.543 2.66161 558.008 2.82258 565.1 2.51918C563.76 2.6819 565.021 3.2121 568.952 2.8332C569.687 2.76286 566.616 2.71586 566.581 2.70466C566.109 2.56543 567.813 2.47657 567.306 2.34504C567.078 2.28555 565.205 2.28646 564.925 2.20387C564.795 2.16358 566.577 2.04863 565.73 1.99439ZM570.86 2.70045C570.064 2.78478 572.786 2.98492 575.15 2.94435C578.836 2.88136 573.023 2.691 570.86 2.70045ZM882.508 2.94545C882.503 2.94551 882.499 2.94557 882.494 2.94563C882.496 2.94545 882.499 2.94526 882.501 2.94508C882.503 2.9452 882.506 2.94532 882.508 2.94545ZM391.094 2.66658C389.186 2.73827 386.361 2.72782 386.57 2.84181C385.642 2.81941 384.703 2.79737 383.775 2.77497C383.784 2.80925 383.801 2.84359 383.81 2.87751C386.603 2.89886 389.387 2.92027 392.18 2.94197C391.83 2.85029 391.506 2.75826 391.094 2.66658ZM360.67 2.58674C357.159 2.57521 360.102 2.7303 359.332 2.80519C358.561 2.88008 355.434 2.81915 355.802 2.92659C357.868 2.93079 360.023 2.93501 362.116 2.93885C361.564 2.82197 361.179 2.70293 360.663 2.58674C360.665 2.58674 360.667 2.58674 360.67 2.58674ZM685.005 2.8213C682.624 2.7877 683.595 2.66936 678.894 2.80793C678.897 2.80793 678.901 2.80793 678.904 2.80793C683.378 2.90485 689.137 2.99123 694.075 2.89747C691.055 2.77262 688.751 2.87379 685.005 2.8213ZM421.932 2.84675C422.937 2.75298 418.255 2.67466 417.222 2.76179C415.55 2.90281 420.4 2.98918 421.932 2.84675ZM781.184 1.99073C784.807 1.70204 777.943 1.378 770.756 1.51795C770.134 1.5302 774.774 1.62201 773.4 1.67835C773.261 1.6839 770.713 1.67702 770.083 1.71717C769.453 1.75741 770.115 1.85083 769.082 1.89002C767.269 1.95852 763.172 1.8316 761.815 1.92152C761.637 1.93357 764.177 2.0585 764.337 2.06324C766.945 2.13882 769.459 1.97552 769.863 1.97443C771.938 1.96884 771.624 2.09687 772.149 2.12696C773.139 2.18356 774.881 2.12698 775.003 2.13117C778.152 2.24346 770.957 2.21133 769.985 2.25752C767.368 2.38209 769.791 2.49791 763.514 2.56825C762.918 2.57487 755.782 2.56735 764.774 2.7107C747.118 3.00953 773.646 2.88068 776.527 2.81489C777.854 2.78439 775.844 2.66235 776.649 2.60743C778.488 2.48182 781.622 2.45967 781.342 2.2826C780.737 1.91034 776.621 2.15426 773.785 2.09162C774.082 2.01078 774.196 1.93194 774.748 1.85285C773.898 1.95924 780.922 2.01246 781.184 1.99146C781.184 1.99122 781.184 1.99098 781.184 1.99073ZM736.486 2.41609C732.52 2.30375 732.801 2.53875 729.167 2.40437C725.963 2.61538 732.283 2.60121 733.019 2.61311C736.381 2.66629 736.303 2.89574 739.743 2.82515C738.561 2.68938 737.598 2.5522 736.486 2.41609ZM770.983 2.51295C768.331 2.63193 773.077 2.62991 773.27 2.65266C775.366 2.894 761.153 2.8471 770.983 2.51295ZM545.612 2.24177C544.264 2.23372 545.119 2.34764 543.931 2.3813C542.741 2.41523 538.671 2.31774 538.773 2.38862C538.878 2.45966 546.335 2.64389 538.85 2.68379C539.103 2.72366 539.018 2.75341 539.14 2.78944C541.198 2.79049 543.274 2.79224 545.332 2.79329C544.202 2.67851 543.045 2.55777 541.959 2.44685C543.115 2.35551 543.765 2.47267 543.826 2.47267C543.826 2.47254 543.826 2.47242 543.826 2.4723C545.979 2.46311 548.638 2.25967 545.612 2.24177ZM651.716 2.59938C652.118 2.31416 648.941 2.6327 647.636 2.66804C646.332 2.70326 644.539 2.59768 645.213 2.72041C647.323 2.80509 651.672 2.6312 651.716 2.59901C651.716 2.59913 651.716 2.59925 651.716 2.59938ZM714.939 2.41664C711.614 2.48587 712.142 2.56001 708.075 2.47541C708.233 2.54435 708.391 2.6148 708.548 2.68269C711.779 2.68409 711.551 2.48396 715.289 2.5644C715.902 2.5777 714.59 2.73755 717.355 2.68617C716.55 2.60085 715.735 2.50616 714.939 2.41664ZM698.463 2.67225C702.28 2.66173 705.307 2.10387 698.277 2.35548C697.235 2.39309 695.592 2.6803 698.463 2.67225ZM580.823 2.22767C574.33 2.21159 581.707 2.30161 583.397 2.38734C568.28 2.45591 585.104 2.36388 586.612 2.649C588.459 2.56781 591.916 2.38213 588.076 2.33241C586.474 2.31176 587.059 2.39666 586.962 2.39631C584.012 2.37531 584.369 2.23642 580.823 2.22767ZM743.378 2.40235C743.133 2.40655 743.516 2.50286 742.737 2.5221C741.957 2.54121 740.191 2.47381 740.016 2.53291C739.842 2.59237 743.384 2.63849 744.47 2.59516C745.556 2.55142 745.593 2.36527 743.378 2.40235ZM718.458 2.16505C715.214 2.23435 720.519 2.58913 721.225 2.58747C727.424 2.56893 718.275 2.27738 718.458 2.16505ZM595.903 1.62507C588.075 1.80529 593.801 2.11846 598.704 2.30604C599.351 2.26792 600.016 2.22974 600.655 2.19196C597.713 2.42363 592.557 2.65262 604.027 2.45069C597.749 2.39617 603.006 2.33394 603.046 2.32087C603.738 1.89533 594.438 2.09295 595.909 1.62507C595.907 1.62507 595.905 1.62507 595.903 1.62507ZM753.929 2.50379C757.336 2.50238 766.192 2.42887 762.06 2.24342C759.347 2.33019 756.643 2.41702 753.929 2.50379ZM467.758 1.64997C464.973 1.54393 462.407 1.54574 458.975 1.55274C462.065 1.70706 460.034 1.72479 458.992 1.76258C457.412 1.81947 461.24 1.81481 461.251 1.8252C461.181 1.97182 458.74 1.99459 464.298 1.9911C462.924 2.04217 461.568 2.09363 460.194 2.14436C464.43 2.15102 465.427 2.24667 468.115 2.36354C465.506 2.07799 468.941 2.25677 472.058 2.11469C473.614 2.04356 469.174 1.7042 467.747 1.64997C467.751 1.64997 467.754 1.64997 467.758 1.64997ZM587.813 1.56776C587.008 1.61919 586.27 1.68878 585.491 1.74757C584.642 1.75317 583.791 1.75808 582.942 1.76368C582.837 1.7182 582.749 1.67063 582.627 1.6269C581.508 1.61366 581.944 1.67698 581.611 1.68293C581.611 1.68269 581.611 1.68244 581.611 1.6822C576.841 1.76614 574.888 1.7567 571.151 1.6161C571.151 1.75544 571.151 1.89478 571.151 2.03413C571.991 2.02084 572.84 2.00788 573.679 1.99494C574.126 1.92007 574.574 1.84515 575.021 1.77027C575.993 1.81157 576.955 1.85257 577.927 1.89387C578.706 1.86694 579.642 1.83861 580.316 1.81239C584.194 2.20186 575.38 1.93727 575.301 2.09895C575.249 2.20288 584.125 2.19833 585.404 2.1266C585.588 2.1161 583.669 1.82608 586.917 1.97718C587.424 2.00098 587.603 2.62842 591.105 2.12037C591.604 2.0483 589.861 1.65851 587.813 1.56776ZM555.582 1.36542C560.572 1.76681 542.153 1.34238 550.101 1.67268C547.834 1.85707 548.255 1.85467 550.539 2.01838C550.74 2.03305 549.162 2.08372 549.296 2.09016C551.432 2.18045 554.006 2.13257 554.023 2.2967C554.601 2.28796 555.144 2.28018 555.722 2.27143C553.316 2.11678 557.142 2.01285 558.621 1.88233C559.295 1.82322 557.746 1.80498 558.313 1.75324C558.523 1.73435 560.686 1.77206 560.775 1.7179C560.959 1.59542 559.6 1.42989 557.298 1.33961C557.298 1.33948 557.298 1.33936 557.298 1.33924C556.72 1.34728 556.159 1.35703 555.582 1.36542ZM662.242 1.69886C663.092 1.92073 666.496 1.98424 659.956 2.09272C660.279 2.13642 660.612 2.17976 660.936 2.22346C662.039 2.21961 663.108 2.21579 664.228 2.21229C667.59 1.55865 673.726 2.29629 669.796 1.83271C669.367 1.78232 666.751 1.83862 669.334 1.70179C669.33 1.70167 669.327 1.70155 669.323 1.70142C665.717 1.74342 665.263 1.82203 662.242 1.69886ZM638.104 1.85358C629.786 2.32042 649.597 2.11406 646.288 1.99018C645.99 1.97898 637.456 2.0793 638.104 1.85358ZM704.847 1.44727C701.118 1.43923 700.871 1.6911 701.247 1.78181C701.623 1.87278 704.205 1.78085 704.538 1.79517C705.624 1.84242 703.321 1.87362 704.731 1.93836C705.198 1.95939 711.693 2.04918 711.99 2.03834C713.643 1.97809 711.227 1.77026 711.7 1.74647C713.24 1.66847 715.333 1.77659 715.779 1.66608C716.742 1.4303 712.842 1.67781 712.183 1.68183C710.195 1.69303 710.369 1.56029 708.881 1.5337C707.393 1.50715 706.421 1.55262 705.109 1.54322C704.673 1.54008 705.036 1.44811 704.847 1.44727ZM692.516 1.9792C696.411 1.78852 686.928 1.58116 685.803 1.6258C682.493 1.75843 690.652 2.07018 692.516 1.9792ZM568.076 1.97114C571.639 1.83292 563.34 1.72104 560.968 1.77668C561.408 1.83412 566.851 2.01872 568.076 1.97114ZM598.074 1.6258C594.799 1.66884 599.142 1.98025 601.873 1.97535C603.475 1.7707 601.968 1.81126 600.182 1.80286C598.398 1.79439 600.628 1.59227 598.074 1.6258ZM745.293 1.67487C744.587 1.67162 733.201 1.84078 739.743 1.91108C740.242 1.91633 748.212 1.88654 748.816 1.85505C750.032 1.79135 747.114 1.68397 745.293 1.67487ZM613.78 1.32349C612.046 1.50052 610.341 1.49815 611.934 1.706C611.936 1.706 611.939 1.706 611.941 1.706C607.555 1.76966 607.361 1.34442 606.415 1.35352C603.108 1.38544 606.241 1.6881 604.167 1.78748C608.991 1.69406 607.607 1.89813 611.276 1.91108C612.099 1.91388 615.392 1.79201 615.874 1.71607C616.354 1.6401 614.673 1.41238 613.78 1.32349ZM761.378 1.63074C757.534 1.56291 754.016 1.84983 759.346 1.89533C761.947 1.91773 763.724 1.67204 761.378 1.63074ZM377.199 1.55897C377.785 1.6342 378.389 1.70911 379.02 1.78364C377.602 1.80183 376.183 1.8204 374.765 1.83894C375.886 1.81514 377.008 1.7917 378.137 1.76826C375.476 1.74201 374.259 1.60516 377.192 1.55897C377.194 1.55897 377.196 1.55897 377.199 1.55897ZM282.441 1.50165C281.25 1.42921 278.904 1.65353 279.202 1.67103C281.442 1.80142 284.093 1.60209 282.441 1.50165ZM562.813 1.2898C558.386 1.25842 561.431 1.62314 564.144 1.64814C562.484 1.57839 565.325 1.30764 562.813 1.2898ZM315.765 1.51942C316.162 1.55077 316.563 1.58213 317.008 1.61353C315.608 1.56993 315.365 1.54061 315.765 1.51942ZM743.483 1.35279C742.807 1.3248 737.809 1.30169 737.134 1.33631C735.733 1.4091 739.631 1.61046 741.925 1.54853C742.178 1.54188 744.155 1.38079 743.472 1.35279C743.476 1.35279 743.479 1.35279 743.483 1.35279ZM371.21 1.41926C371.218 1.42275 371.214 1.42608 371.2 1.42914C371.205 1.42589 371.204 1.42252 371.21 1.41926ZM182.952 1.04865C182.979 1.05431 182.994 1.05992 182.991 1.06531C182.98 1.06002 182.959 1.05445 182.952 1.04865ZM708.233 1.04316C706.569 0.695654 702.735 0.880485 705.764 1.05231C705.934 1.06134 707.829 1.04247 708.233 1.04316ZM7.13594 2.86707C7.17978 2.8514 7.22451 2.83559 7.26848 2.82024C7.8489 2.63115 8.04604 2.58375 8.30672 2.43917C9.05982 2.06995 9.544 2.01886 10.0113 1.9139C10.2959 1.85902 10.6504 1.75377 11.0619 1.64831C11.0767 1.64428 11.0915 1.64039 11.1062 1.63665C11.3668 1.57445 11.3574 1.68616 11.425 1.68403C11.5965 1.68655 11.6645 1.55622 11.7733 1.54832C12.1362 1.52467 12.4312 1.51333 12.718 1.49947C12.8512 1.49247 12.9922 1.48619 13.1377 1.48417C13.6371 1.48189 13.4231 1.81497 13.5946 1.87939C13.9213 2.01094 13.629 1.6179 13.7496 1.51973C14.1198 1.52607 14.4766 1.5614 14.8298 1.59837C14.7446 1.63835 14.6598 1.67763 14.5734 1.71515C14.7275 1.71966 14.9472 1.778 14.6937 1.89044C14.7532 1.91846 14.8032 1.95173 14.8639 1.97913C14.8752 1.83005 15.1463 1.81273 15.1693 1.72421C15.1931 1.63556 15.0398 1.6587 15.0413 1.65099C15.0514 1.54059 15.6748 1.68019 15.7188 1.69205C15.819 1.71781 15.7641 1.85206 15.8031 1.88748C15.81 1.89442 15.8201 1.89759 15.8358 1.89538C16.0006 1.87174 15.8791 1.49951 16.12 1.99188C16.2067 1.82727 16.2166 1.91115 16.3336 1.91863C16.3491 1.91953 16.334 1.82617 16.3407 1.8235C16.5151 1.74812 16.3849 1.92692 16.3861 1.93634C16.4078 2.09625 16.5949 2.01857 16.6361 2.03256C17.1464 2.20705 17.5229 2.32413 18.0569 2.35463C18.1083 2.35746 18.2041 2.34469 18.3063 2.33176L18.2569 2.33694C18.3837 2.29952 18.5183 2.26237 18.5837 2.26694C18.6984 2.27521 18.6588 2.39901 18.7244 2.44462C18.7722 2.1554 18.8604 2.10981 19.0944 2.26353C19.1462 2.05217 19.1578 2.21547 19.3007 2.15734C19.3518 2.13564 19.4327 2.0668 19.465 2.02011C19.4709 2.01844 19.4891 2.01677 19.495 2.0155C19.6269 1.95294 19.7371 1.93591 19.8095 2.04792C19.6667 2.03221 19.6608 2.10565 19.5145 2.1794C19.5108 2.1802 19.4994 2.18124 19.4957 2.18229C19.4879 2.1912 19.4759 2.20031 19.4604 2.2092C19.4209 2.23418 18.8002 2.31794 18.8801 2.51916C18.9195 2.62218 19.1029 2.49608 19.1139 2.51509C19.1733 2.62449 19.0832 2.7801 18.9794 2.74473C19.0006 2.71796 19.0261 2.69029 19.0488 2.66346C18.8088 2.55126 19.043 3.08063 18.8031 2.62419C18.7733 2.56836 18.7718 2.50546 18.7269 2.44828C18.7239 2.47537 18.7766 2.53292 18.7421 2.55026C18.7079 2.56761 18.6173 2.45729 18.6241 2.56187C18.6341 2.71375 18.7745 2.63009 18.788 2.63713C18.788 2.63621 18.788 2.63528 18.788 2.63436C18.9003 2.69807 18.6926 2.74029 18.6856 2.75636C18.6367 2.86036 18.6924 2.92456 18.6104 3.01789C18.5701 3.06369 18.4587 3.06937 18.3971 3.0856C18.3823 3.08698 18.3391 3.09424 18.3243 3.09322C18.3139 3.09419 18.3048 3.09562 18.2975 3.09778C18.2451 3.11374 18.3289 3.18346 18.2937 3.1997C18.2586 3.21594 18.2137 3.16254 18.1722 3.18143C18.1546 3.18974 18.1575 3.26967 18.149 3.27268C18.0579 3.30578 18.1136 3.13795 18.0304 3.15027C17.9761 3.15841 17.7985 3.31845 17.9253 3.36117C17.8653 3.37891 17.8072 3.39233 17.7474 3.40665C17.7858 3.42934 17.8256 3.44439 17.863 3.47133C17.7494 3.43641 17.702 3.57473 17.6321 3.58699C17.5615 3.59925 17.4932 3.43704 17.418 3.51954C17.2571 3.69508 17.666 3.60353 17.7177 3.63265C17.738 3.64403 17.665 3.77486 17.6537 3.77888C17.6021 3.79651 17.5381 3.70642 17.4975 3.7118C17.3539 3.73166 17.2697 3.85586 17.1331 3.88489C16.7397 3.96739 16.2769 4.0456 15.8354 4.086C15.7562 4.09337 15.6862 4.09971 15.6135 4.10509C15.4499 4.11747 15.349 3.98271 15.2735 3.9879C15.1021 4.00013 15.0823 4.11951 14.933 4.12892C14.7095 4.14328 14.3962 4.04753 14.2139 4.03172C14.0872 4.02071 13.9816 4.14063 13.9497 4.14494C13.6478 4.18617 13.353 4.2174 13.0475 4.25781C12.8859 4.27836 12.7398 4.29477 12.6178 4.30953C12.4417 4.33083 12.3496 4.21267 12.3158 4.22094C12.1755 4.25639 12.2286 4.36059 12.1231 4.36584C12.0684 4.36885 12.0414 4.26611 12.0334 4.26329C11.9668 4.24001 11.9836 4.37834 11.9491 4.39061C11.9217 4.40062 11.8995 4.40795 11.8867 4.41137C11.5984 4.4945 11.2575 4.53376 10.885 4.61576C10.8533 4.62261 10.8414 4.56225 10.8218 4.57031C10.737 4.60616 10.801 4.69061 10.7068 4.71924C10.6696 4.73047 10.6313 4.74048 10.592 4.74939C10.4633 4.77954 10.334 4.79373 10.2104 4.81149C10.1954 4.81365 10.171 4.73818 10.1375 4.74593C10.104 4.75375 10.0962 4.83246 10.0459 4.84062C9.91597 4.86174 9.77484 4.80923 9.68004 4.83908C9.66437 4.84414 9.68157 4.93946 9.66503 4.94525C9.64573 4.95204 9.62312 4.9493 9.60588 4.94134C9.47328 4.98055 9.32971 5.00768 9.24034 5.04398C8.79297 5.22959 8.3794 5.37577 8.16789 5.45495C8.15763 5.45861 8.14719 5.46228 8.13657 5.46596C8.06484 5.49062 7.97053 5.43066 7.93169 5.44237C7.844 5.46922 7.93743 5.52389 7.85066 5.55595C7.53947 5.67134 7.22463 5.78924 6.92816 5.91281C6.65059 6.02379 6.29202 6.20948 6.26487 6.23772C6.20093 6.28969 6.13969 6.34228 6.08101 6.396C5.88755 6.57103 5.7503 6.84623 5.55314 7.04888C5.47076 7.13271 5.36695 7.07833 5.31081 7.14609C5.28398 7.17878 5.27103 7.21144 5.26464 7.24438C5.26546 7.31196 5.31169 7.38574 5.26249 7.47296C5.20831 7.56865 5.00223 7.61143 4.92242 7.74395C4.84089 7.87764 4.91666 8.02228 4.79724 8.20732C4.76802 8.25184 4.72796 8.2983 4.68061 8.34666C4.65182 8.36005 4.59883 8.38162 4.57738 8.43221C4.54122 8.51691 4.49416 8.64 4.43065 8.80337C4.39799 8.90278 4.36633 9.02395 4.32341 9.19721C4.27198 9.37683 4.25127 9.58024 4.04707 10.0133C4.02043 10.0785 3.94592 10.3312 3.85775 10.684C3.7897 10.9236 3.73644 11.2289 3.59891 11.6702C3.55808 11.7989 3.51664 11.9054 3.48094 11.9925C3.3937 12.2013 3.3626 12.3056 3.34485 12.3557C3.29868 12.6541 3.22563 12.9941 3.08073 13.3037C3.0555 13.3566 2.9399 13.2431 2.92816 13.425C2.92122 13.5219 3.00471 13.6858 2.94293 13.9074C2.92173 13.9827 2.89826 14.0576 2.87271 14.1318C2.89443 14.0573 2.85715 14.1916 2.83988 14.2851C2.81863 14.3893 2.79581 14.5109 2.77348 14.6276C2.72783 14.8709 2.68007 15.1297 2.63558 15.3912C2.54716 15.9103 2.47112 16.4486 2.46458 16.9754C2.43908 18.6473 3.3597 20.4922 1.71959 21.9002C1.63829 21.964 1.30247 21.8695 1.21141 21.8133C1.28687 21.7842 1.375 21.7579 1.45982 21.7238C1.03837 21.6091 1.14872 21.6426 1.21144 21.4459C1.24895 21.3312 1.05428 21.4041 1.00918 21.3355C0.952259 21.2426 0.77646 20.8389 1.05448 20.9402C1.0072 20.9121 0.961812 20.8859 0.915481 20.8584C0.897781 20.5741 0.847235 20.2982 0.784885 20.0188C0.773923 19.9706 0.684372 19.9621 0.673516 19.912C0.64371 19.7769 0.709476 19.6799 0.7094 19.5421C0.709256 19.469 0.606211 19.4523 0.618981 19.3566C0.631752 19.2607 0.771714 19.2707 0.627596 19.1309C0.446696 19.2057 0.597496 18.8321 0.594504 18.6956C0.594293 18.6756 0.445845 18.505 0.468915 18.4201C0.491701 18.3348 0.600031 18.2095 0.550318 18.0727C0.526951 18.0085 0.40613 17.9636 0.402935 17.8956C0.400714 17.8478 0.513213 17.7968 0.521138 17.7368C0.529039 17.6771 0.446629 17.5414 0.446489 17.5174C0.445381 17.4308 0.516894 17.5303 0.524067 17.4715C0.557473 17.1878 0.617322 16.8588 0.582219 16.5736C0.577992 16.5386 0.48465 16.5813 0.481904 16.5765C0.384721 16.3348 0.495255 16.4674 0.58005 16.409C0.661925 16.3512 0.647218 15.8976 0.490378 15.884C0.688246 15.8827 0.544243 15.7741 0.540301 15.7462C0.524825 15.6419 0.693867 15.6734 0.64786 15.5719C0.631133 15.5348 0.511171 15.5966 0.517198 15.5584C0.532139 15.4639 0.723536 15.3858 0.751353 15.2624C0.75824 15.2314 0.676663 15.2143 0.68374 15.1587C0.690651 15.1033 0.810426 14.879 0.627906 14.9733C0.77921 14.8384 0.704339 14.8125 0.72408 14.6409C0.729385 14.5974 0.866345 14.5624 0.835062 14.4636C0.824354 14.4313 0.69664 14.4185 0.700568 14.3724C0.709305 14.2677 0.852489 14.1833 0.87779 14.0409C0.909457 13.8824 0.88968 13.7388 0.956543 13.4667C0.973524 13.3783 0.992936 13.2923 1.03012 13.2116C1.05472 13.1578 1.1755 13.2064 1.20013 13.122C1.20368 13.1091 1.12033 12.9813 1.14278 12.9259C1.15727 12.8935 1.26979 12.7226 1.28166 12.6843C1.30208 12.6222 1.18029 12.5919 1.20959 12.5611C1.29351 12.4708 1.46464 12.5755 1.23171 12.4197C1.37512 12.3966 1.36992 12.3207 1.54297 12.3153C1.39806 12.2638 1.48635 12.2301 1.50094 12.1706C1.50513 12.1508 1.50478 12.1295 1.49502 12.1051C1.4459 11.9902 1.11144 11.8161 1.49981 11.8732C1.46256 11.8121 1.44034 11.5857 1.44501 11.5538C1.45769 11.455 1.54586 11.5368 1.55312 11.4649C1.5544 11.4528 1.48031 11.4412 1.51042 11.3711C1.52235 11.343 1.56681 11.2158 1.59294 11.1323C1.61229 11.0705 1.62825 11.0154 1.63404 11.0088C1.774 10.8421 1.70697 11.0668 1.7252 11.1677C1.72837 11.1833 1.73362 11.1966 1.74244 11.2056C1.71997 11.2077 1.69745 11.2096 1.67506 11.2122C1.61434 11.2939 1.79007 11.2906 1.84014 11.2576C1.85763 11.2463 1.86285 11.2264 1.86461 11.2051C1.86826 11.1644 1.86058 11.1171 1.90099 11.1013C1.9322 11.089 2.12499 11.1469 2.0868 11.1999C2.16242 11.152 2.20424 11.254 2.2668 11.2431C2.33758 11.231 2.42097 10.9383 2.31185 10.9154C2.29697 10.9692 2.2865 11.0379 2.26977 11.0919C2.06798 11.1151 1.47026 10.7799 1.7674 10.6275C1.98449 10.5153 2.07854 10.7956 1.99984 10.4052C1.97985 10.459 1.9523 10.5019 1.934 10.5501C1.79183 10.5259 1.96393 10.4773 1.92857 10.4253C1.91117 10.3998 1.78382 10.5048 1.77477 10.3873C1.93492 10.351 1.88323 10.2807 1.85727 10.1807C1.84601 10.1468 1.83826 10.1086 1.84792 10.0666C1.87005 10.1105 1.89229 10.1534 1.91476 10.1951C1.91789 10.2021 1.92104 10.209 1.92421 10.2159C1.92908 10.2105 1.93379 10.2056 1.93834 10.2011C2.01455 10.1335 2.04606 10.1819 2.06945 10.2341C2.0948 10.2979 2.11061 10.3648 2.17216 10.2599C2.18954 10.2318 2.21046 10.1898 2.23682 10.1286C2.23031 10.1768 2.21885 10.2234 2.21216 10.27C2.21024 10.2827 2.20869 10.2955 2.20766 10.3084C2.28822 10.2974 2.49241 10.3964 2.54419 10.3822C2.56178 10.3776 2.57629 10.3716 2.58831 10.3646C2.66961 10.3149 2.63668 10.2176 2.66354 10.15C2.67686 10.1161 2.72939 10.1527 2.73048 10.1498C2.74914 10.1038 2.66137 10.0923 2.66702 10.0489C2.67387 9.99337 2.79892 9.86805 2.79729 9.84274C2.79293 9.77361 2.59515 9.82524 2.58452 9.81649C2.5164 9.75069 2.61039 9.68761 2.50492 9.65724C2.50412 9.88277 2.26609 10.4592 2.22954 9.8672C2.01819 9.97309 1.78779 9.87635 1.83805 9.63048C1.88395 9.42494 1.93787 9.58276 2.07359 9.51348C2.08807 9.5045 2.23724 9.2573 2.17836 9.21057C2.33475 9.29023 2.51223 9.27607 2.6529 9.40361C2.6732 9.42187 2.62464 9.51 2.77256 9.53386C2.84678 9.54547 3.00999 9.56989 3.09196 9.61479C3.03952 9.57348 2.98092 9.5267 2.92816 9.48074C2.93288 9.46588 2.93828 9.45294 2.94413 9.44203C3.00214 9.32807 3.07004 9.32916 3.19962 9.28695C3.1501 9.27545 2.92457 9.27751 3.02603 9.1845C3.03163 9.17982 3.10563 9.19951 3.16083 9.15198C3.27048 9.05712 3.30021 9.03836 3.48488 9.19658C3.4394 8.91415 3.68594 8.94386 3.68753 8.72088C3.40341 8.66366 3.44312 8.75988 3.43208 8.9871C3.36397 8.97655 3.29798 8.96142 3.22907 8.9511C3.46437 8.71256 3.40438 8.85158 3.32449 8.65285C3.30405 8.6032 3.41338 8.42427 3.20881 8.41667C3.15971 8.41514 3.11704 8.54496 3.0552 8.50636C3.04243 8.49904 3.07092 8.32746 3.0949 8.32082C3.31074 8.26085 3.3716 8.45536 3.44109 8.34156C3.46479 8.30327 3.48986 8.23358 3.52347 8.12081C3.52727 8.10767 3.45459 8.06614 3.4563 8.03698C3.45984 7.98227 3.54596 8.02644 3.54666 7.97758C3.54686 7.92971 3.46494 7.8092 3.60219 7.81564C3.84472 7.83984 3.82323 8.11211 3.66726 8.17257C3.81558 8.27664 4.01784 8.01926 4.14902 7.90432C4.29633 7.74592 4.38343 7.6092 4.39066 7.58421C4.46493 7.29263 4.24637 7.71177 4.16111 7.68672C4.12694 7.67558 3.79628 7.40939 3.93708 7.67534C3.97689 7.7567 4.15966 7.70087 4.136 7.80295C4.10983 7.90686 4.0371 7.79708 4.02606 7.79693C4.02424 7.79688 4.02244 7.79709 4.02067 7.79751C3.99201 7.79714 3.9895 7.86798 3.97157 7.8642C3.67257 7.82189 3.34544 7.57049 3.94448 7.77586C3.89109 7.62422 3.59543 7.64908 3.59268 7.5025C3.5931 7.4822 3.5964 7.46448 3.60194 7.44908C3.64554 7.3251 3.82093 7.3462 3.83811 7.33642C4.05693 7.20978 3.6735 7.26047 3.90647 7.08561C4.03573 6.98648 3.93017 7.38438 4.11553 7.08133C4.2676 6.83005 4.09706 6.90534 3.92388 6.761C3.88336 6.72728 3.92256 6.55624 3.81625 6.75239C3.86102 6.79044 3.91806 6.84349 3.95479 6.88532C3.88913 6.90602 3.59728 6.81497 3.57333 6.83167C3.45682 6.9148 3.584 6.9972 3.39388 6.95554C3.58465 7.02535 3.43661 7.02941 3.44997 7.08028C3.49387 7.25712 3.62092 7.19207 3.37209 7.25782C3.35231 7.26496 3.33046 7.27331 3.30639 7.2833C3.353 7.29306 3.39828 7.30437 3.44292 7.31675C3.49195 7.3337 3.54136 7.3498 3.59186 7.36489C3.58107 7.38113 3.5701 7.39736 3.55905 7.41339C3.54954 7.42705 3.54025 7.44077 3.53112 7.45459C3.33852 7.36943 3.22969 7.57155 3.18102 7.28813C2.98765 7.4587 2.98384 7.57196 3.09665 7.68932C3.11839 7.71201 3.1129 7.74698 3.09749 7.78267C3.14007 7.79657 3.26499 7.85228 3.27706 7.86527C3.38365 7.97835 3.1211 7.93567 3.0463 7.86805C3.0302 7.88995 3.01607 7.90651 3.01069 7.91216C2.97637 7.94819 2.93835 7.82591 2.89435 7.84743C2.87941 7.85511 2.83944 7.9835 2.80642 7.97025C2.62776 7.90088 2.76719 7.80137 2.63961 7.96753C2.61181 8.0063 2.57356 8.05759 2.52255 8.12533C2.71013 8.2129 2.75726 7.99147 2.93563 8.13554C3.12863 8.28335 2.79104 8.26733 3.05341 8.39797C3.00548 8.38902 2.96669 8.37854 2.91284 8.36661C2.97055 8.5757 2.7434 8.49781 2.67433 8.53439C2.53883 8.60957 2.42117 9.05633 2.74371 8.71787C2.7455 8.78349 2.7369 8.84601 2.73692 8.90898C2.31731 8.78777 2.49189 8.83151 2.34846 9.03354C2.31775 9.07245 2.15665 9.00639 2.30434 9.11067C2.31075 9.1182 2.31796 9.12622 2.32604 9.13475C2.12929 9.02386 2.14697 9.30905 2.11844 9.31525C1.97992 9.35957 1.90831 9.13128 2.01894 8.96286C2.03497 8.95725 2.10541 8.94281 2.2398 8.97949C2.11357 8.87866 2.30429 8.94812 2.30067 8.87332C2.29525 8.76293 2.26117 8.73683 2.44534 8.6466C2.28012 8.46692 2.20938 9.09588 2.05179 8.65931C2.00998 8.532 2.00696 8.218 2.15642 7.74204C2.23046 7.48181 2.35743 7.0838 2.65921 6.66462C2.79444 6.43173 2.99231 6.01881 3.26333 5.63809C3.37631 5.47254 3.47932 5.32866 3.54671 5.23721C3.87778 4.78299 4.21788 4.41737 4.53743 4.13043C5.12308 3.66444 5.42532 3.55746 5.90504 3.34174C5.99647 3.29854 6.65807 3.01238 6.60723 3.2959C6.59948 3.33604 6.3526 3.53413 6.66396 3.61644C6.57345 3.53056 6.68845 3.40658 6.69654 3.39085C6.87585 3.03387 6.69067 3.02974 7.13594 2.86707ZM9.14177 4.47046C8.50671 4.68176 9.01954 4.64073 9.02344 5.03807C9.1113 5.00504 9.19888 4.96935 9.28561 4.93118C9.25335 4.92045 9.22186 4.90925 9.19 4.89795C9.18991 4.89799 9.18981 4.89803 9.18971 4.89808C9.17756 4.75451 9.16151 4.61191 9.14177 4.47046ZM18.0287 3.59304C18.0082 3.64207 17.9873 3.69121 17.9649 3.73927C17.8904 3.72623 17.8154 3.71356 17.7406 3.70067C17.7485 3.66754 17.7561 3.63403 17.7641 3.6009C17.8527 3.59974 17.9399 3.59886 18.0287 3.59304ZM3.68264 8.26213C3.54396 8.28924 3.67806 8.36124 3.63066 8.43003C3.62273 8.44086 3.6086 8.4511 3.58495 8.46134C3.75306 8.51987 3.917 8.57863 4.08126 8.64202C4.0813 8.64147 4.08134 8.64092 4.08138 8.64037C4.10035 8.53701 4.05042 8.48698 4.13241 8.41781C4.07632 8.40256 4.01958 8.38796 3.96289 8.37331C3.96636 8.39408 3.97086 8.41678 3.97327 8.43686C3.81725 8.39263 3.8705 8.22876 3.68246 8.26166C3.68252 8.26182 3.68258 8.26197 3.68264 8.26213ZM3.39837 9.2445C3.36342 9.29042 3.22487 9.47213 3.20342 9.57631C3.20454 9.58417 3.2083 9.59157 3.2153 9.59813C3.25755 9.63766 3.29374 9.64378 3.32327 9.63839C3.47974 9.52005 3.57052 9.10282 3.53288 9.66109C3.5661 9.6726 3.59555 9.69046 3.62687 9.7052C3.70251 9.57166 3.7505 9.46255 3.79297 9.3651C3.66017 9.32766 3.53191 9.28193 3.39837 9.2445ZM7.17414 5.1923C7.08666 5.20506 6.76674 5.46831 6.94812 5.56272C6.99973 5.59055 7.07506 5.3143 7.14252 5.29783C7.18561 5.28723 7.18638 5.4203 7.2494 5.34599C7.22561 5.29675 7.2009 5.24149 7.17405 5.19272C7.17408 5.19258 7.17411 5.19244 7.17414 5.1923ZM7.05979 4.46313C6.9829 4.51677 6.9079 4.57674 6.83224 4.63296C6.94686 4.73829 7.03414 4.60614 7.114 4.78803C7.09666 4.81104 7.07966 4.83387 7.0624 4.85697C7.02878 4.82368 6.9955 4.79024 6.962 4.75697C6.93059 4.88604 6.99426 4.91757 6.85016 4.94343C7.04576 5.18731 7.11585 5.33118 7.23032 4.95992C7.24759 5.12803 7.47932 5.60616 7.46589 5.20547C7.46399 5.13084 7.35011 5.12425 7.34477 5.11439C7.27923 4.99046 7.30184 4.88642 7.23818 4.77003C7.20934 4.71736 7.14894 4.74182 7.10972 4.66852C7.09073 4.63267 7.10718 4.50287 7.05979 4.46313ZM7.47905 5.05842C7.48395 5.14676 7.64004 5.30151 7.7002 5.23612C7.79485 5.13423 7.54519 5.02297 7.47905 5.05842ZM18.0292 3.59284C18.0291 3.59291 18.0289 3.59297 18.0287 3.59304C18.0288 3.59285 18.0289 3.59267 18.029 3.59248C18.0291 3.5926 18.0291 3.59272 18.0292 3.59284ZM3.58218 8.98083C3.63221 9.06231 3.5922 9.15833 3.70325 9.18472C3.67166 9.21141 3.63991 9.23943 3.60715 9.26838C3.6399 9.27847 3.67284 9.28825 3.70526 9.29822C3.76021 9.19595 3.80839 9.10741 3.85592 9.02771C3.76502 9.01129 3.6739 8.99445 3.58218 8.98083ZM3.13292 9.96414C3.0906 10.065 3.26543 10.0218 3.33043 10.0658C3.39573 10.1081 3.31166 10.1831 3.4183 10.2009C3.4389 10.1412 3.46044 10.0824 3.48148 10.0293C3.36556 10.0081 3.24858 9.98327 3.13285 9.96435C3.13288 9.96428 3.1329 9.96421 3.13292 9.96414ZM11.3028 3.97033C11.2092 3.96317 11.2118 3.83952 11.0819 4.02148C11.082 4.02145 11.0821 4.02141 11.0823 4.02138C11.2712 4.06817 11.4983 4.08845 11.6334 3.94946C11.497 3.86035 11.4485 3.98121 11.3028 3.97033ZM4.10626 8.20346C4.03868 8.13174 3.90647 8.20857 3.96974 8.27796C4.07414 8.38335 4.21157 8.30446 4.10626 8.20346ZM14.4241 2.73227C14.5438 2.44032 14.2914 2.12219 14.0371 2.27209C14.0154 2.2851 14.1849 2.37074 14.1377 2.42885C14.1335 2.43452 14.0413 2.43107 14.0212 2.47209C14.0008 2.51318 14.0278 2.60557 13.9923 2.64625C13.9321 2.71715 13.7798 2.5973 13.7361 2.68986C13.7306 2.70217 13.8267 2.82229 13.8324 2.82682C13.9275 2.89781 14.0087 2.73114 14.0238 2.72945C14.0958 2.721 14.0904 2.84939 14.1102 2.87876C14.1463 2.93404 14.206 2.87536 14.2108 2.8794C14.3243 2.9879 14.0708 2.96438 14.0393 3.01214C13.9525 3.14052 14.0411 3.25206 13.829 3.33262C13.8083 3.34023 13.5671 3.34558 13.8791 3.47277C13.3037 3.80315 14.182 3.62622 14.286 3.56101C14.3312 3.52903 14.2572 3.40932 14.2835 3.35352C14.3438 3.22585 14.4531 3.20056 14.4379 3.02387C14.4064 2.65232 14.2675 2.90041 14.166 2.84138C14.1737 2.76022 14.1749 2.68128 14.1922 2.60156C14.1659 2.70875 14.415 2.75409 14.4241 2.733C14.4241 2.73276 14.4241 2.73252 14.4241 2.73227ZM12.8983 3.26074C12.7447 3.16572 12.7817 3.39788 12.6386 3.27911C12.5505 3.50166 12.7703 3.46211 12.7982 3.47082C12.884 3.49753 12.9226 3.61288 12.9756 3.65568C12.9991 3.67548 13.0244 3.68006 13.0585 3.65372C13.0172 3.55701 12.9799 3.45911 12.9405 3.36174C12.9266 3.32801 12.9126 3.29432 12.8983 3.26074ZM14.0836 3.26603C13.9969 3.38847 14.1614 3.38007 14.168 3.4027C14.2491 3.64072 13.7603 3.61366 14.0836 3.26603ZM6.50336 4.96191C6.45741 4.9736 6.53081 5.06556 6.50764 5.11287C6.48453 5.1602 6.31785 5.13025 6.35149 5.19298C6.38599 5.25485 6.68678 5.31866 6.47989 5.45877C6.50435 5.49132 6.51452 5.51941 6.53345 5.55032C6.59405 5.52294 6.6568 5.49618 6.71904 5.46959C6.6383 5.37992 6.55336 5.28581 6.47371 5.20031C6.47132 5.10093 6.5403 5.19838 6.54198 5.19762C6.54193 5.19751 6.54188 5.1974 6.54183 5.19728C6.60381 5.1592 6.60645 4.93595 6.50336 4.96191ZM10.0556 4.0496C10.0062 3.7683 9.9713 4.10281 9.93949 4.14697C9.90652 4.19102 9.82534 4.10266 9.87613 4.21643C9.96024 4.28223 10.0601 4.08106 10.0555 4.04925C10.0555 4.04937 10.0556 4.04949 10.0556 4.0496ZM12.15 3.35128C12.0482 3.43564 12.0776 3.50568 11.9335 3.44368C11.9501 3.51079 11.9667 3.57941 11.9828 3.64555C12.0829 3.63071 12.0467 3.43372 12.1818 3.49607C12.2039 3.50653 12.1817 3.67065 12.2664 3.60764C12.2287 3.52651 12.1889 3.43628 12.15 3.35128ZM11.7007 3.69432C11.785 3.66144 11.7654 3.09254 11.611 3.39047C11.6051 3.40382 11.6043 3.43907 11.6089 3.48087C11.6132 3.55453 11.6328 3.64801 11.6687 3.68121C11.6785 3.69361 11.689 3.69908 11.7007 3.69432ZM7.63812 4.49629C7.41919 4.55794 7.69265 4.55487 7.77542 4.61716C7.32668 4.84754 7.78283 4.59608 7.94404 4.79921C7.95089 4.80833 7.95723 4.81832 7.96297 4.82924C7.98771 4.73494 8.04381 4.52277 7.90695 4.51424C7.85027 4.51117 7.89573 4.58566 7.89255 4.58632C7.88514 4.58711 7.8781 4.58706 7.87137 4.58631C7.78633 4.57879 7.74819 4.46587 7.63812 4.49629ZM13.1342 3.21983C13.1263 3.22491 13.1496 3.31925 13.1254 3.34124C13.1012 3.36306 13.0334 3.30293 13.0342 3.36234C13.0353 3.422 13.1599 3.45435 13.1914 3.40767C13.2232 3.36044 13.2059 3.17494 13.1342 3.21983ZM12.2374 3.08596C12.1347 3.16903 12.3615 3.49756 12.3846 3.49332C12.5953 3.44929 12.246 3.19763 12.2374 3.08596ZM7.96199 3.75778C7.74493 4.01054 8.03076 4.25185 8.25086 4.38238C8.26232 4.33916 8.27434 4.29566 8.28525 4.25282C8.25259 4.50415 8.13112 4.78212 8.48174 4.46228C8.24059 4.48113 8.41024 4.3627 8.40703 4.34991C8.3007 3.93849 8.04585 4.22129 7.96222 3.75771C7.96215 3.75773 7.96207 3.75776 7.96199 3.75778ZM13.4998 3.28833C13.6132 3.27751 13.9151 3.18854 13.762 3.01083C13.6723 3.10252 13.5848 3.19498 13.4998 3.28833ZM4.03701 6.24736C4.03256 6.2477 4.0282 6.24809 4.02391 6.24855C3.88241 6.27096 3.82419 6.35287 3.75853 6.45787C3.95118 6.45297 3.9212 6.52568 3.93052 6.57809C3.94408 6.65761 4.02022 6.54161 4.02919 6.54747C4.14678 6.63574 4.1137 6.71783 4.22771 6.55763C4.23921 6.62723 4.25306 6.69567 4.26679 6.76382C4.35025 6.65787 4.44052 6.67511 4.56633 6.6839C4.57768 6.68415 4.58934 6.6843 4.60132 6.68426C4.57297 6.6734 4.54967 6.66386 4.53066 6.65527C4.47421 6.62831 4.45564 6.61139 4.4546 6.59423C4.45365 6.55955 4.51908 6.52391 4.49443 6.42032C4.47389 6.33259 4.11091 6.24177 4.03677 6.24765C4.03685 6.24756 4.03693 6.24746 4.03701 6.24736ZM7.66004 3.79049C7.65152 3.82754 7.64669 3.87114 7.6421 3.9147C7.64016 3.93974 7.63818 3.96479 7.63549 3.98855C7.60818 4.00386 7.5812 4.01844 7.55417 4.03385C7.53553 3.99219 7.51676 3.94836 7.49802 3.9086C7.45528 3.90961 7.4915 3.964 7.48218 3.9736C7.48209 3.97337 7.48201 3.97314 7.48193 3.97291C7.34803 4.10967 7.28087 4.12465 7.10495 4.04059C7.15421 4.17093 7.20347 4.30128 7.25273 4.43162C7.27605 4.40861 7.29923 4.38607 7.32262 4.36356C7.3114 4.28783 7.30033 4.21203 7.28931 4.13628C7.3357 4.16317 7.38304 4.1895 7.429 4.21675C7.44623 4.18186 7.4678 4.14399 7.48155 4.11123C7.74219 4.43164 7.35928 4.28781 7.41238 4.44121C7.447 4.53857 7.73644 4.42962 7.75583 4.34798C7.75839 4.33674 7.62048 4.11594 7.73028 4.17301C7.73814 4.17703 7.74723 4.18246 7.75763 4.18949C7.78469 4.20576 7.97931 4.80113 7.9412 4.28104C7.93687 4.20707 7.76443 3.85176 7.66004 3.79049ZM6.48601 4.01588C6.80777 4.31526 6.02464 4.1873 6.42117 4.37674C6.41898 4.57857 6.43324 4.5697 6.57196 4.68822C6.58419 4.69892 6.5532 4.76742 6.56014 4.77146C6.66465 4.82455 6.72877 4.74579 6.79272 4.89696C6.8078 4.88117 6.82221 4.86674 6.8374 4.85099C6.70055 4.74038 6.78403 4.59304 6.78403 4.45231C6.78407 4.38848 6.72594 4.39244 6.72518 4.33689C6.72502 4.3165 6.81114 4.32238 6.79387 4.27099C6.75448 4.15485 6.64725 4.01935 6.53455 3.96795C6.5345 3.96784 6.53446 3.96772 6.53441 3.96761C6.51781 3.98311 6.50241 4 6.48601 4.01588ZM10.2276 3.09238C10.242 3.13327 10.2585 3.16767 10.2742 3.19767C10.3209 3.28936 10.3635 3.3395 10.3174 3.40847C10.3005 3.4337 10.2719 3.46137 10.2279 3.49449C10.2479 3.53496 10.2681 3.57503 10.2881 3.61553C10.3108 3.60846 10.333 3.60152 10.3555 3.5946C10.3706 3.59002 10.3859 3.58538 10.4013 3.58067C10.3766 2.91844 10.7516 3.58258 10.5082 3.16625C10.4815 3.12105 10.4086 3.19658 10.4614 3.04295C10.4613 3.04286 10.4612 3.04277 10.461 3.04268C10.3619 3.10642 10.3538 3.1791 10.2569 3.11312C10.2479 3.10733 10.2382 3.10045 10.2276 3.09238ZM9.41633 3.44365C9.275 3.97164 9.87045 3.58683 9.73517 3.49902C9.7206 3.48931 9.45916 3.66451 9.41633 3.44365ZM11.635 2.45311C11.4837 2.47539 11.5317 2.7254 11.567 2.80972C11.6012 2.89475 11.675 2.78493 11.6907 2.79674C11.7388 2.83539 11.6625 2.88232 11.7253 2.93586C11.7467 2.95169 11.9874 3.00244 11.9957 2.99121C12.0449 2.92302 11.9292 2.73006 11.9422 2.7041C11.9866 2.61846 12.077 2.7152 12.078 2.6036C12.0815 2.3651 11.9728 2.62983 11.9501 2.63756C11.8796 2.6595 11.8654 2.52745 11.8053 2.5103C11.7449 2.49346 11.7155 2.5449 11.6635 2.54531C11.6461 2.54549 11.6425 2.4525 11.635 2.45311ZM11.3141 3.08674C11.3905 2.86411 11.0087 2.76384 10.985 2.81748C10.9119 2.97816 11.2772 3.19326 11.3141 3.08674ZM7.12882 4.41146C7.19781 4.23684 6.88063 4.23885 6.82216 4.32297C6.85877 4.36991 7.10567 4.47103 7.12882 4.41146ZM8.03506 3.7369C7.93771 3.81053 8.17171 4.06663 8.26295 4.03302C8.25513 3.82095 8.21736 3.87559 8.15588 3.88548C8.09413 3.89527 8.10984 3.67952 8.03506 3.7369ZM13.1256 2.48928C13.0976 2.48769 12.7139 2.70298 12.9535 2.74571C12.9713 2.74825 13.2502 2.68891 13.2693 2.65643C13.3071 2.58907 13.1928 2.49145 13.1256 2.48928ZM8.40992 3.2898C8.42992 3.47298 8.37524 3.49113 8.49896 3.66618C8.49903 3.66615 8.4991 3.66613 8.49917 3.6661C8.38481 3.77812 8.23773 3.37689 8.21403 3.3951C8.12629 3.45816 8.31636 3.71389 8.28185 3.82988C8.4067 3.68968 8.42827 3.89792 8.55244 3.86541C8.58099 3.85791 8.63902 3.70228 8.62223 3.62635C8.60587 3.55068 8.46699 3.36261 8.40992 3.2898ZM13.7047 2.40036C13.5611 2.34042 13.4549 2.63534 13.6471 2.66868C13.7407 2.68559 13.7914 2.43712 13.7047 2.40036ZM2.38384 9.08025C2.45896 9.09569 2.53516 9.10695 2.6119 9.11475C2.61299 9.16318 2.61316 9.21075 2.61065 9.25709C2.60445 9.21638 2.5965 9.17593 2.58758 9.13492C2.53124 9.20301 2.39759 9.16236 2.38377 9.08041C2.3838 9.08036 2.38382 9.0803 2.38384 9.08025ZM1.45296 12.4197C1.3764 12.4497 1.58829 12.5564 1.60686 12.5494C1.7466 12.491 1.55938 12.3763 1.45296 12.4197ZM6.70409 3.8459C6.54095 3.87729 6.78152 4.1736 6.88079 4.16138C6.79911 4.11861 6.79625 3.82865 6.70409 3.8459ZM1.74244 11.2056C1.77142 11.2028 1.80042 11.1998 1.82967 11.1957C1.83421 11.195 1.83875 11.1943 1.8433 11.1935C1.84096 11.1949 1.83867 11.1963 1.83642 11.1975C1.78727 11.224 1.75874 11.2223 1.74244 11.2056ZM13.0261 2.17585C12.9997 2.15217 12.8364 2.14874 12.7991 2.17898C12.7966 2.18109 12.7947 2.18337 12.7934 2.18582C12.7795 2.21325 12.79 2.25379 12.8126 2.29172C12.856 2.36146 12.941 2.4225 12.9904 2.37664C12.9986 2.369 13.0536 2.20104 13.0257 2.17589C13.0258 2.17588 13.0259 2.17586 13.0261 2.17585ZM2.16952 9.20612C2.17285 9.20722 2.17582 9.20874 2.17836 9.21057C2.17548 9.20904 2.17238 9.20772 2.16952 9.20612ZM0.473662 15.8843C0.47937 15.8837 0.485007 15.8836 0.490378 15.884C0.485073 15.8841 0.479468 15.8844 0.473662 15.8843ZM11.6988 2.03078C11.5721 1.69917 11.4333 1.91497 11.5981 2.05804C11.607 2.06542 11.6825 2.0327 11.6988 2.03078ZM918.798 4.0328C915.962 4.07216 912.831 4.15378 909.973 4.12596C909.622 4.12259 909.645 4.02158 909.546 4.0094C909.276 3.97576 909.115 4.09643 908.919 4.08994C907.966 4.05876 907.067 4.05186 906.137 4.0243C905.166 3.99613 905.622 3.67776 905.285 3.6053C904.63 3.46333 905.19 3.86535 904.935 3.95995C904.188 3.94395 903.427 3.90837 902.674 3.87215C902.86 3.8319 903.045 3.79248 903.227 3.75507C902.908 3.75029 902.423 3.69279 902.98 3.57971C902.857 3.55171 902.741 3.51865 902.615 3.49139C902.581 3.6405 902 3.65908 901.949 3.74783C901.898 3.83661 902.222 3.81265 902.221 3.82037C902.201 3.93044 900.862 3.79554 900.763 3.78442C900.508 3.75474 900.729 3.56785 900.513 3.58218C900.142 3.6067 900.4 3.9789 899.887 3.48604C899.683 3.65037 899.664 3.56645 899.408 3.55815C899.375 3.55713 899.402 3.65063 899.387 3.65325C899.003 3.72725 899.297 3.54946 899.294 3.54004C899.257 3.37994 898.849 3.45595 898.765 3.44151C897.65 3.26245 896.87 3.14152 895.704 3.11037C895.464 3.10367 894.688 3.17764 894.457 3.15297C894.229 3.12863 894.35 3.0116 894.232 2.9574C894.023 3.23803 893.817 3.27105 893.393 3.09257C893.215 3.29756 893.225 3.13373 892.919 3.1778C892.667 3.21426 892.158 3.46363 891.907 3.25869C892.202 3.27449 892.227 3.17438 892.568 3.11036C892.726 3.08865 893.997 3.06993 893.909 2.86349C893.849 2.75603 893.435 2.86006 893.422 2.84027C893.324 2.7252 893.551 2.57983 893.762 2.62746C893.709 2.65151 893.647 2.67601 893.593 2.70008C894.067 2.83991 893.729 2.28594 894.116 2.76901C894.165 2.82825 894.149 2.89079 894.228 2.95342C894.245 2.92694 894.147 2.86291 894.23 2.85031C894.304 2.8377 894.451 2.95971 894.473 2.85523C894.499 2.70334 894.197 2.76652 894.156 2.75812C894.156 2.75904 894.155 2.75996 894.155 2.76088C893.922 2.68305 894.399 2.66844 894.411 2.65395C894.548 2.55794 894.451 2.48632 894.663 2.40588C894.78 2.36011 895.121 2.38241 895.225 2.36688C895.334 2.35093 895.163 2.28117 895.237 2.26494C895.31 2.24871 895.403 2.30213 895.492 2.28327C895.53 2.27497 895.527 2.19502 895.545 2.19202C895.745 2.15897 895.615 2.32681 895.798 2.31456C895.916 2.30647 896.33 2.14668 896.044 2.10374C896.185 2.08604 896.304 2.0729 896.432 2.05885C896.351 2.03598 896.27 2.02074 896.191 1.99365C896.428 2.02905 896.535 1.89096 896.688 1.87903C896.841 1.86714 896.983 2.02977 897.156 1.94768C897.526 1.77302 896.608 1.86224 896.507 1.83294C896.464 1.82146 896.626 1.69096 896.651 1.68699C896.764 1.66962 896.901 1.76006 896.99 1.75492C897.315 1.73581 897.501 1.61227 897.795 1.58441C898.835 1.48925 900.078 1.40753 901.046 1.36989C901.414 1.35591 901.627 1.49 901.787 1.48433C902.161 1.47095 902.207 1.35146 902.538 1.34136C903.043 1.32581 903.714 1.42204 904.131 1.43968C904.419 1.45181 904.673 1.33379 904.745 1.33015C905.766 1.27724 907.014 1.26565 907.865 1.2546C908.264 1.24938 908.455 1.37659 908.537 1.37186C908.891 1.35174 908.795 1.24221 909.083 1.25012C909.238 1.2543 909.269 1.36015 909.289 1.36406C909.473 1.39697 909.508 1.25791 909.651 1.25174C910.471 1.21621 911.264 1.29799 912.076 1.30211C912.135 1.30249 912.13 1.36397 912.168 1.36039C912.332 1.34347 912.255 1.2476 912.425 1.23865C912.78 1.21959 913.152 1.23138 913.528 1.23938C913.566 1.24016 913.583 1.31893 913.669 1.318C913.754 1.31704 913.818 1.24145 913.952 1.24412C914.299 1.25106 914.657 1.33656 915.027 1.3373C915.089 1.3373 915.164 1.24133 915.256 1.24133C915.542 1.24127 915.975 1.32275 916.226 1.32308C917.041 1.32373 917.814 1.26092 918.57 1.25178C918.748 1.24983 918.919 1.33606 919.014 1.3371C919.229 1.33922 919.066 1.25776 919.283 1.25499C921.048 1.23325 922.814 1.2515 924.596 1.22579C924.953 1.2208 925.307 1.19626 925.689 1.1739C925.844 1.16309 926.083 1.15206 926.242 1.14523C926.313 1.14191 926.427 1.13902 926.517 1.13761C926.638 1.13953 926.55 1.12527 926.919 1.14752C926.937 1.15047 926.992 1.15727 927.01 1.16145C926.993 1.15897 926.999 1.16089 927.009 1.16294C927.232 1.20084 927.323 1.32677 927.526 1.35717C927.853 1.40707 927.966 1.31751 928.245 1.32783L928.027 1.30509C928.071 1.29949 928.118 1.29585 928.172 1.29512C928.475 1.29106 928.817 1.44851 929.13 1.44961C929.443 1.45069 929.592 1.31294 929.946 1.30754C930.116 1.30485 930.325 1.33053 930.514 1.34836C930.667 1.3612 930.812 1.37212 930.949 1.37007C931.788 1.36167 932.662 1.33383 933.601 1.43273C934.066 1.48677 934.49 1.47765 935.245 1.67269C935.661 1.79277 936.01 1.90121 936.293 1.95731C936.761 2.06427 937.241 2.11254 937.991 2.47951C938.251 2.62322 938.443 2.67143 939.03 2.87075C939.349 2.98881 939.653 3.11345 939.961 3.24985C940.491 3.50509 940.92 3.61677 941.717 4.21517C942.23 4.6464 942.703 5.23547 942.982 5.70698C942.982 5.70768 942.983 5.70837 942.983 5.70907C943.053 5.8221 942.837 5.75782 943.09 6.05543C943.217 6.2042 943.467 6.37913 943.642 6.59838C943.658 6.61751 943.673 6.63525 943.687 6.65141C944.004 7.02807 944.179 7.41624 944.303 7.68933C944.531 8.18672 944.661 8.79703 944.662 8.78797C944.91 9.31112 944.972 9.72589 945.041 10.0497C945.125 10.4409 945.163 10.791 945.212 11.0167C945.243 11.2054 945.405 11.6035 945.449 12.1235C945.479 12.6003 945.539 12.9823 945.675 13.3719C945.729 13.5334 945.744 13.6429 945.757 13.715C945.771 13.7999 945.78 13.8701 945.788 13.9348C945.804 14.0802 945.814 14.1851 945.825 14.3145C946.074 18.07 946.884 21.8278 945.704 24.8809C945.651 25.0107 945.3 25.0076 945.19 24.9294C945.248 24.8317 945.324 24.7555 945.395 24.6587C944.954 24.5805 945.064 24.597 945.077 24.1764C945.086 23.9101 944.913 24.1307 944.853 23.997C944.773 23.8179 944.531 22.9844 944.823 23.1363C944.772 23.0855 944.723 23.0359 944.673 22.9871C944.612 22.3783 944.531 21.7845 944.441 21.1874C944.426 21.0845 944.336 21.0808 944.32 20.9738C944.278 20.6875 944.335 20.4584 944.323 20.1643C944.317 20.0041 944.213 19.9821 944.218 19.7725C944.223 19.5627 944.363 19.5663 944.209 19.2811C944.034 19.4685 944.156 18.637 944.143 18.3413C944.141 18.2985 943.98 17.9482 943.997 17.7618C944.013 17.576 944.112 17.2913 944.051 17.0006C944.022 16.8644 943.898 16.7886 943.889 16.6393C943.883 16.5349 943.99 16.4154 943.993 16.2828C943.995 16.1498 943.9 15.8768 943.897 15.8228C943.887 15.6384 943.969 15.8398 943.97 15.7141C943.974 15.1477 943.987 14.2683 943.878 13.9749C943.884 14.0179 943.78 13.9852 943.78 13.9963C943.777 14.0003 943.776 14.0111 943.779 14.0301C943.533 13.5737 943.731 13.8125 943.761 13.6453C943.769 13.4777 943.555 12.4153 943.413 12.4316C943.487 12.4113 943.507 12.3676 943.503 12.3189C943.501 12.278 943.434 12.2331 943.426 12.2135C943.372 12.082 943.544 12.0663 943.438 11.9013C943.398 11.8374 943.331 12.0073 943.31 11.9322C943.282 11.8264 943.3 11.6904 943.314 11.5257C943.326 11.4045 943.338 11.2814 943.32 11.1549C943.31 11.0855 943.224 11.0785 943.204 10.9627C943.185 10.8399 943.183 10.3924 943.06 10.6291C943.069 10.5976 943.075 10.5695 943.079 10.5435C943.105 10.2967 943.033 10.2354 942.96 9.99057C942.94 9.92653 943.034 9.78718 942.944 9.69604C942.939 9.69126 942.931 9.68913 942.923 9.68869C942.86 9.6491 942.767 9.66407 942.721 9.5529C942.605 9.25836 942.692 9.03356 942.617 8.8028C942.586 8.70366 942.547 8.61296 942.501 8.53031C942.368 8.27483 942.237 8.08502 942.119 7.95588C942.021 7.84164 941.939 7.72817 941.87 7.61679C941.786 7.48144 941.913 7.43826 941.795 7.25962C941.776 7.23238 941.545 7.09067 941.481 6.99273C941.474 6.9817 941.463 6.96159 941.45 6.93689C941.366 6.79463 941.212 6.52331 941.169 6.46801C941.083 6.35371 940.974 6.42024 940.941 6.34863C940.844 6.14465 941.093 6.13589 940.732 6.13178C940.767 5.97185 940.642 5.87787 940.715 5.71509C940.613 5.75792 940.573 5.71948 940.53 5.66312C940.511 5.62905 940.476 5.57337 940.396 5.55869C940.221 5.52513 939.93 5.78735 940.069 5.4186C939.974 5.42162 939.612 5.34443 939.551 5.32641C939.378 5.26974 939.51 5.2085 939.376 5.16819C939.352 5.16116 939.348 5.23889 939.206 5.17307C939.114 5.12603 938.404 4.85747 938.366 4.83813C938.364 4.8368 938.361 4.83549 938.359 4.83419C938.147 4.70164 938.237 4.71275 938.389 4.74775C938.531 4.78278 938.725 4.84221 938.787 4.82553C938.799 4.85215 938.81 4.87897 938.822 4.90576C939.024 5.01949 938.963 4.81703 938.877 4.74358C938.793 4.67018 938.583 4.67361 938.519 4.59374C938.487 4.55354 938.578 4.37209 938.696 4.43955C938.582 4.3339 938.787 4.33723 938.754 4.2637C938.742 4.23871 938.676 4.19899 938.589 4.16006C938.39 4.07188 938.091 4.00342 938.067 4.07395C938.181 4.11318 938.326 4.15041 938.441 4.1913C938.525 4.4121 937.912 4.93577 937.497 4.50216C937.25 4.20341 937.764 4.28204 937.142 4.11517C937.113 4.10873 937.081 4.10231 937.044 4.09622C937.075 4.11263 937.101 4.12993 937.125 4.14734C937.188 4.18912 937.249 4.22898 937.315 4.26509C937.275 4.37956 937.19 4.23981 937.104 4.18766C937.093 4.18081 937.081 4.17704 937.068 4.17908C937.052 4.1817 937.067 4.21443 937.073 4.24757C937.094 4.29251 937.109 4.33817 937.033 4.3243C937.023 4.32459 937.01 4.32299 936.994 4.31931C936.951 4.07251 936.751 4.21759 936.468 4.14789C936.558 4.13279 936.647 4.11927 936.735 4.10786C936.285 3.82093 937.459 4.1112 936.497 3.75082C936.622 3.77437 936.742 3.80833 936.863 3.83645C936.827 3.74577 936.99 3.56473 936.95 3.50266C936.838 3.33748 936.595 3.3521 936.418 3.30208C936.34 3.2801 936.402 3.23247 936.395 3.23065C936.288 3.20041 936.294 3.29155 936.198 3.27707C936.159 3.27119 936.099 3.25101 936.033 3.22652C935.901 3.17702 935.749 3.09963 935.712 3.09638C935.567 3.08355 935.753 3.31244 935.738 3.32124C935.627 3.38029 935.461 3.26126 935.441 3.36948C935.578 3.38547 935.784 3.43414 935.981 3.47977C936.443 3.58873 936.809 3.75991 935.974 3.71016C936.211 3.91136 936.147 4.098 935.852 4.10934C935.786 4.10975 935.71 4.10223 935.626 4.08521C935.206 3.99412 935.498 3.9683 935.318 3.80723C935.291 3.78746 934.797 3.58341 934.753 3.64965C934.824 3.48771 934.707 3.29021 934.868 3.14952C934.892 3.12874 935.094 3.20149 935.065 3.04036C935.051 2.95949 934.993 2.77573 935.037 2.69168C934.996 2.72433 934.953 2.76016 934.91 2.79581C934.887 2.81314 934.864 2.83057 934.842 2.84802C934.499 2.78244 934.47 2.71907 934.304 2.57033C934.306 2.62167 934.44 2.85405 934.199 2.75559C934.187 2.75015 934.186 2.67293 934.064 2.61971C933.818 2.51382 933.767 2.48491 933.989 2.28609C933.77 2.31165 933.63 2.28666 933.504 2.24653C933.309 2.18625 933.132 2.09225 932.788 2.11269C932.874 2.38663 933.056 2.35262 933.491 2.35255C933.523 2.35238 933.556 2.35228 933.59 2.3524C933.603 2.42264 933.605 2.49088 933.619 2.56189C933.563 2.54158 933.515 2.52344 933.473 2.50728C933.028 2.34257 933.264 2.39168 932.907 2.48706C932.81 2.5113 932.318 2.45023 932.474 2.65154C932.51 2.69801 932.813 2.71111 932.774 2.78088C932.766 2.79291 932.398 2.80745 932.367 2.78849C931.971 2.54568 932.702 2.40721 931.577 2.45909C931.545 2.4608 931.534 2.54409 931.473 2.55438C931.358 2.57362 931.359 2.47687 931.258 2.4972C931.155 2.5176 931.013 2.64517 930.863 2.52237C930.588 2.29883 931.247 2.18317 931.539 2.30639C931.605 2.15737 931.058 2.07213 930.504 2.0324C930.027 1.99455 929.517 1.97805 929.456 1.98848C928.887 2.07606 929.831 2.04635 929.875 2.12722C929.893 2.16138 929.87 2.58696 930.115 2.31808C930.187 2.23842 929.899 2.12149 930.074 2.0818C930.249 2.04194 930.176 2.16511 930.189 2.17426C930.232 2.20563 930.416 2.16364 930.438 2.18165C930.46 2.19932 930.482 2.2175 930.501 2.23585C930.742 2.45339 930.746 2.70431 930.497 2.49136C930.44 2.44085 930.369 2.36381 930.285 2.25344C930.068 2.38405 930.552 2.61321 930.284 2.69907C929.956 2.80264 929.726 2.59962 929.685 2.58969C929.2 2.46962 929.754 2.77187 929.159 2.66137C928.828 2.60016 929.665 2.48899 928.903 2.48295C928.266 2.47951 928.607 2.58864 928.554 2.81139C928.541 2.86354 928.192 2.91797 928.666 2.90845C928.681 2.85044 928.708 2.7742 928.741 2.72125C928.856 2.76737 929.04 3.06585 929.101 3.0781C929.401 3.13663 929.392 2.98457 929.564 3.16926C929.444 2.96948 929.646 3.0943 929.725 3.05566C930.019 2.91284 929.641 2.84532 930.286 3.05976C930.203 2.96596 930.129 2.87376 930.05 2.77994C930.128 2.7792 930.206 2.77826 930.284 2.77709C930.328 2.8579 930.419 2.90425 930.491 2.9421C930.592 2.99501 930.652 3.03291 930.488 3.12945C930.472 3.13903 930.453 3.14914 930.432 3.15986C930.451 3.16259 930.47 3.16512 930.488 3.16741C930.898 3.22076 931.068 3.1774 931.164 3.02854C931.185 2.99893 931.25 2.98816 931.33 2.98691C931.316 2.94244 931.299 2.8056 931.313 2.78912C931.427 2.64414 931.595 2.90233 931.534 2.99804C931.589 3.00394 931.633 3.01046 931.648 3.01318C931.744 3.03062 931.552 3.11375 931.63 3.14573C931.656 3.15597 931.93 3.14422 931.936 3.18028C931.959 3.41107 931.522 3.22772 932.412 3.39482C932.444 3.18708 932.024 3.21668 932.139 2.99982C932.265 2.76618 932.487 3.09522 932.554 2.8072C932.571 2.85609 932.577 2.89646 932.59 2.95185C932.965 2.84724 932.951 3.0937 933.054 3.1564C933.116 3.1944 933.25 3.22937 933.384 3.25296C933.691 3.30558 933.984 3.28829 933.405 3.07817C933.397 3.07546 933.39 3.07272 933.382 3.06995C933.39 3.06964 933.398 3.06937 933.406 3.06915C933.533 3.06565 933.661 3.07043 933.786 3.06735C933.761 3.50478 933.72 3.31631 934.308 3.46674C934.435 3.50255 934.432 3.6962 934.593 3.49977C934.567 3.58361 934.608 3.62602 934.655 3.64939C934.762 3.69526 934.93 3.70158 934.948 3.72418C935.05 3.85405 934.815 3.90132 934.592 3.86031C934.476 3.84681 934.28 3.76943 934.259 3.58139C934.095 3.71227 934.124 3.51161 933.954 3.51725C933.707 3.52631 933.668 3.56282 933.387 3.37882C933.379 3.38284 933.373 3.3868 933.367 3.39069C933.332 3.4161 933.334 3.43885 933.359 3.45975C933.509 3.57637 934.347 3.63342 933.618 3.78103C933.545 3.7955 933.444 3.80609 933.317 3.81216C932.769 3.83387 931.686 3.89197 930.476 3.93973C929.56 3.96559 928.698 3.96452 927.964 3.9771C927.921 3.97792 927.795 3.96105 927.753 3.95493C927.514 3.92012 927.3 3.89367 927.111 3.87465C926.903 3.85125 926.83 3.85893 926.509 3.81231L926.601 3.82655C926.796 3.84353 926.721 3.83411 926.745 3.83662C926.749 3.83689 926.747 3.83711 926.744 3.83736C926.737 3.83784 926.722 3.83836 926.704 3.83892C926.651 3.84016 926.65 3.84107 926.628 3.84205C924.474 3.93847 923.367 4.00152 921.422 4.01006C921.239 4.01102 919.795 4.04728 920.09 3.80014C920.135 3.76463 920.763 3.66491 920.221 3.47951C920.334 3.59128 920.01 3.66827 919.989 3.6804C919.403 3.95709 919.756 4.01932 918.798 4.0328ZM915.977 1.88933C917.216 1.93106 916.305 1.77826 916.558 1.40726C916.4 1.40798 916.242 1.40874 916.082 1.40948C916.124 1.43211 916.166 1.45466 916.208 1.47729C916.208 1.47729 916.208 1.47728 916.208 1.47728C916.132 1.61461 916.054 1.752 915.977 1.88933ZM895.823 1.87169C895.871 1.82266 895.92 1.77354 895.973 1.7255C896.146 1.73857 896.303 1.75155 896.461 1.7648C896.442 1.7979 896.424 1.83139 896.406 1.86449C896.226 1.86514 896.019 1.86598 895.823 1.87169ZM931.714 2.25724C931.943 2.39812 931.928 2.15656 932.235 2.27701C932.203 2.09827 932.168 1.92336 932.132 1.7464C931.893 1.7649 931.838 1.83101 931.581 1.78152C931.61 1.83922 931.64 1.89729 931.667 1.95534C931.708 1.94411 931.757 1.93141 931.797 1.92163C931.859 2.08269 931.45 2.09649 931.713 2.25759C931.713 2.25747 931.713 2.25736 931.714 2.25724ZM934.124 2.37069C934.245 2.40533 934.751 2.57326 934.853 2.53114C935.154 2.31901 933.583 2.21996 934.759 2.18984C934.76 2.15444 934.772 2.12199 934.779 2.08807C934.555 2.03073 934.355 1.99384 934.16 1.95941C934.153 2.09752 934.129 2.23173 934.124 2.37069ZM920.438 1.82409C920.638 1.84106 921.519 1.71412 921.229 1.55951C921.146 1.51424 920.751 1.74436 920.595 1.73629C920.494 1.73109 920.606 1.60607 920.407 1.65377C920.416 1.70822 920.423 1.76865 920.439 1.82372C920.439 1.82384 920.438 1.82397 920.438 1.82409ZM920.081 2.54826C920.284 2.52396 920.487 2.49377 920.685 2.46813C920.539 2.32873 920.25 2.42252 920.23 2.22432C920.286 2.20866 920.34 2.19309 920.395 2.17744C920.438 2.22035 920.48 2.26331 920.521 2.30623C920.691 2.19656 920.589 2.14414 920.903 2.17181C920.709 1.87403 920.678 1.71339 920.125 2.02296C920.232 1.85904 920.111 1.33014 919.828 1.71221C919.774 1.78316 920.004 1.82761 920.006 1.83878C920.043 1.97762 919.917 2.06787 919.956 2.19898C919.972 2.2583 920.119 2.25576 920.142 2.3381C920.153 2.37827 920.013 2.49477 920.081 2.54826ZM919.686 1.84655C919.745 1.76155 919.538 1.56371 919.358 1.60629C919.076 1.67243 919.525 1.8578 919.686 1.84655ZM895.822 1.87188C895.822 1.87182 895.823 1.87175 895.823 1.87169C895.823 1.87187 895.823 1.87206 895.823 1.87224C895.822 1.87212 895.822 1.872 895.822 1.87188ZM933.497 2.19874C933.502 2.1973 933.506 2.19593 933.51 2.19462C933.659 2.14631 933.862 2.17628 933.859 2.06442C933.928 2.09488 933.998 2.12523 934.068 2.15627C934.071 2.12216 934.074 2.0879 934.077 2.05414C933.892 2.01351 933.714 1.97557 933.541 1.93631C933.509 1.92921 933.477 1.9222 933.444 1.91519C933.461 2.00949 933.476 2.10387 933.497 2.19874ZM935.839 2.76114C936.075 2.83191 935.912 2.63166 935.982 2.57181C936.024 2.53446 936.111 2.56071 936.17 2.55755C936.213 2.55733 936.244 2.5469 936.242 2.50478C936.222 2.50023 936.203 2.4957 936.183 2.49117C936.073 2.46479 935.953 2.43147 935.832 2.39496C935.838 2.51771 935.833 2.63962 935.84 2.76126C935.839 2.76122 935.839 2.76118 935.839 2.76114ZM910.945 1.82397C911.128 1.8555 911.056 1.97467 911.415 1.83202C911.414 1.83203 911.414 1.83203 911.414 1.83203C911.069 1.73901 910.628 1.65762 910.251 1.75565C910.484 1.87787 910.659 1.77472 910.945 1.82397ZM931.08 1.89466C931.001 1.98697 931.36 2.07192 931.44 1.98665C931.573 1.84838 931.2 1.75416 931.08 1.89466ZM903.592 2.73809C903.319 3.0299 903.844 3.34799 904.399 3.20171C904.447 3.18892 904.087 3.10119 904.193 3.04365C904.203 3.03798 904.4 3.04262 904.449 3.00191C904.497 2.96112 904.445 2.86829 904.524 2.8282C904.66 2.75814 904.973 2.88151 905.076 2.79042C905.089 2.77822 904.894 2.6555 904.882 2.65089C904.682 2.57758 904.496 2.74302 904.463 2.74447C904.302 2.7519 904.325 2.6236 904.284 2.59397C904.207 2.53824 904.074 2.59635 904.064 2.59226C903.82 2.48274 904.375 2.50857 904.45 2.46152C904.65 2.33466 904.462 2.22097 904.939 2.1452C904.984 2.13807 905.529 2.1394 904.842 2.00385C906.184 1.68973 904.168 1.84153 903.939 1.90992C903.838 1.94158 903.993 2.06185 903.932 2.11747C903.792 2.24469 903.553 2.26956 903.577 2.44637C903.627 2.81809 903.939 2.5706 904.158 2.63074C904.136 2.71184 904.129 2.79077 904.087 2.87034C904.151 2.76322 903.611 2.71614 903.592 2.73736C903.592 2.7376 903.592 2.73784 903.592 2.73809ZM907.009 2.27384C907.315 2.38272 907.29 2.14798 907.571 2.27918C907.815 2.06539 907.329 2.08507 907.273 2.07381C907.015 2.02356 907.018 1.79406 906.756 1.86764C906.847 2.00237 906.923 2.1387 907.009 2.27384ZM904.37 2.20698C904.574 2.08567 904.207 2.09187 904.192 2.06929C904.029 1.82978 905.12 1.86428 904.37 2.20698ZM921.626 2.28376C921.731 2.29065 921.663 2.17747 921.755 2.1428C921.848 2.10785 922.157 2.20194 922.147 2.13116C922.14 2.06019 921.572 1.88221 922.138 1.83607C922.119 1.79641 922.125 1.76659 922.115 1.73067C921.961 1.73131 921.802 1.73132 921.641 1.73204C921.731 1.84583 921.821 1.96558 921.906 2.07559C921.818 2.16789 921.767 2.0513 921.762 2.05135C921.762 2.05147 921.762 2.05159 921.762 2.05172C921.596 2.06274 921.388 2.26849 921.626 2.28376ZM913.498 2.01705C913.471 2.30259 913.71 1.98134 913.808 1.94488C913.907 1.90854 914.044 2.01259 913.992 1.89044C913.831 1.80756 913.501 1.98518 913.498 2.01742C913.498 2.0173 913.498 2.01717 913.498 2.01705ZM908.659 2.25456C908.913 2.18245 908.872 2.10877 909.184 2.18983C909.171 2.12103 909.158 2.05073 909.146 1.98298C908.898 1.98438 908.918 2.1843 908.631 2.10711C908.584 2.09435 908.682 1.93336 908.471 1.98715C908.534 2.07176 908.597 2.16574 908.659 2.25456ZM909.918 1.98466C909.626 1.9985 909.4 2.55894 909.936 2.30125C910.015 2.26274 910.138 1.97412 909.918 1.98466ZM918.928 2.32781C919.432 2.33827 918.86 2.25462 918.725 2.1704C919.902 2.08869 918.585 2.19541 918.478 1.91148C918.34 1.99421 918.08 2.18281 918.371 2.22928C918.492 2.24858 918.447 2.16417 918.454 2.16444C918.675 2.18298 918.651 2.32215 918.928 2.32781ZM906.483 2.29356C906.501 2.28915 906.471 2.19318 906.53 2.17326C906.59 2.15348 906.725 2.21934 906.738 2.1601C906.751 2.10048 906.48 2.05744 906.397 2.10171C906.315 2.14639 906.314 2.33256 906.483 2.29356ZM908.393 2.50919C908.64 2.43708 908.23 2.08693 908.176 2.08919C907.703 2.11312 908.405 2.39671 908.393 2.50919ZM917.783 2.94324C918.38 2.75633 917.941 2.44805 917.559 2.26474C917.509 2.30342 917.458 2.34218 917.409 2.3805C917.635 2.14629 918.031 1.91286 917.145 2.12471C917.63 2.1738 917.225 2.24059 917.221 2.2537C917.173 2.6798 917.892 2.47411 917.782 2.94325C917.783 2.94325 917.783 2.94325 917.783 2.94324ZM905.673 2.20131C905.411 2.20572 904.736 2.2869 905.054 2.46875C905.26 2.37963 905.466 2.29045 905.673 2.20131ZM927.51 2.92862C927.638 3.02207 927.764 3.06673 927.913 3.09933C927.927 3.10141 927.97 3.10715 927.985 3.10687C928.059 3.11085 928.136 3.11102 928.22 3.11094C927.988 2.95073 928.143 2.93688 928.224 2.90113C928.346 2.84736 928.053 2.84454 928.053 2.83423C928.06 2.7135 928.189 2.67988 927.995 2.66803C927.953 2.65865 927.899 2.64841 927.825 2.63591C927.887 2.61855 927.947 2.60105 928.009 2.58424L927.997 2.58298C928.046 2.56093 928.093 2.53893 928.142 2.51715C928.087 2.5147 928.041 2.51005 927.999 2.50338L928.024 2.50598C927.821 2.43919 927.753 2.34382 927.595 2.21963C927.751 2.53453 927.515 2.31255 927.256 2.42102C927.129 2.4754 927.417 2.85743 927.511 2.92874C927.511 2.9287 927.51 2.92866 927.51 2.92862ZM918.4 2.99366C918.46 2.94155 918.514 2.87135 918.572 2.81192C918.635 2.80561 918.7 2.79997 918.767 2.79362C918.776 2.839 918.784 2.88649 918.794 2.93011C918.881 2.94237 918.847 2.87944 918.872 2.8732C918.872 2.87345 918.872 2.87369 918.872 2.87393C919.243 2.78584 919.392 2.79363 919.676 2.93108C919.675 2.79174 919.673 2.65241 919.672 2.51307C919.609 2.52707 919.544 2.54074 919.481 2.55439C919.447 2.62964 919.414 2.70494 919.381 2.78019C919.306 2.73972 919.232 2.69954 919.156 2.65908C919.096 2.68668 919.024 2.71582 918.972 2.74263C918.666 2.35654 919.354 2.61348 919.356 2.45177C919.362 2.34776 918.667 2.36005 918.574 2.43284C918.561 2.44349 918.708 2.73188 918.463 2.58351C918.424 2.56014 918.404 1.93288 918.144 2.44387C918.107 2.51636 918.244 2.90464 918.4 2.99366ZM920.873 3.16848C920.489 2.77132 921.895 3.18023 921.279 2.85672C921.455 2.67036 921.418 2.67317 921.243 2.5114C921.227 2.4969 921.346 2.44491 921.337 2.43857C921.172 2.3501 920.984 2.40005 920.98 2.23596C920.937 2.24518 920.896 2.25342 920.852 2.26265C921.036 2.41527 920.748 2.5224 920.636 2.65417C920.585 2.71385 920.704 2.73077 920.661 2.78299C920.645 2.80206 920.478 2.76619 920.471 2.82043C920.458 2.94307 920.566 3.10741 920.743 3.19574C920.743 3.19586 920.743 3.19599 920.743 3.19611C920.787 3.18758 920.829 3.17736 920.873 3.16848ZM912.7 2.92663C912.632 2.70552 912.369 2.64498 912.872 2.53081C912.847 2.48739 912.82 2.44435 912.795 2.40093C912.71 2.40574 912.627 2.4105 912.542 2.41496C912.294 3.07145 911.817 2.33915 912.122 2.79931C912.155 2.84933 912.354 2.79077 912.159 2.92982C912.159 2.92994 912.159 2.93006 912.159 2.93018C912.435 2.88507 912.466 2.80611 912.7 2.92663ZM914.548 2.75105C915.183 2.27703 913.661 2.50056 913.919 2.62154C913.939 2.63251 914.595 2.52479 914.548 2.75105ZM909.443 3.2151C909.729 3.21991 909.745 2.96783 909.715 2.87746C909.685 2.78682 909.488 2.88099 909.463 2.86695C909.379 2.82066 909.555 2.78745 909.446 2.72394C909.41 2.70332 908.912 2.61917 908.889 2.63028C908.763 2.69196 908.951 2.89768 908.915 2.92188C908.798 3.00121 908.636 2.89491 908.603 3.0058C908.532 3.2424 908.828 2.99152 908.879 2.98693C909.031 2.974 909.019 3.10688 909.133 3.13218C909.247 3.15743 909.321 3.11112 909.422 3.11939C909.455 3.12215 909.429 3.21442 909.443 3.2151ZM910.381 2.67252C910.085 2.86655 910.813 3.06569 910.898 3.02008C911.149 2.8846 910.523 2.57992 910.381 2.67252ZM919.903 2.57349C919.635 2.7147 920.268 2.81955 920.456 2.76182C920.425 2.70472 919.985 2.525 919.903 2.57349ZM917.615 2.94439C917.868 2.89852 917.53 2.59087 917.316 2.59817C917.193 2.80421 917.311 2.76233 917.45 2.76917C917.588 2.77609 917.418 2.98013 917.615 2.94439ZM906.345 3.02265C906.398 3.0253 907.267 2.84626 906.766 2.78165C906.727 2.77684 906.121 2.81352 906.075 2.84554C905.982 2.91029 906.207 3.01513 906.345 3.02265ZM916.418 3.26015C916.549 3.08163 916.679 3.08255 916.555 2.87608C916.554 2.87608 916.554 2.87608 916.554 2.87608C916.888 2.80867 916.906 3.23373 916.978 3.22383C917.227 3.18912 916.987 2.88912 917.142 2.788C916.78 2.88549 916.882 2.68026 916.603 2.67045C916.54 2.66835 916.289 2.79304 916.252 2.8694C916.216 2.94578 916.348 3.17203 916.418 3.26015ZM905.113 3.08079C905.407 3.14528 905.674 2.85532 905.265 2.81446C905.066 2.79432 904.933 3.04154 905.113 3.08079ZM934.397 3.43053C934.37 3.34937 934.338 3.26838 934.303 3.18767C934.41 3.18549 934.516 3.18491 934.621 3.18904C934.536 3.19473 934.451 3.20307 934.365 3.21296C934.556 3.27159 934.604 3.42283 934.398 3.43062C934.398 3.43059 934.398 3.43056 934.397 3.43053ZM940.842 5.93325C940.852 6.04117 941.126 6.00006 941.125 5.97393C941.103 5.76387 940.823 5.7792 940.842 5.93325ZM920.318 3.25027C920.662 3.27783 920.423 2.91574 920.21 2.89311C920.34 2.96141 920.121 3.23461 920.318 3.25027ZM938.787 4.82553C938.771 4.78593 938.753 4.74606 938.733 4.70519C938.817 4.78222 938.823 4.81603 938.787 4.82553ZM906.487 3.34315C906.538 3.37054 906.921 3.38932 906.972 3.35411C907.078 3.28011 906.778 3.08215 906.603 3.14607C906.584 3.15294 906.435 3.31573 906.488 3.34314C906.487 3.34314 906.487 3.34314 906.487 3.34315ZM934.75 3.65889C934.75 3.65538 934.751 3.65228 934.753 3.64965C934.752 3.65266 934.751 3.65591 934.75 3.65889ZM943.397 12.4365C943.402 12.4337 943.408 12.4319 943.413 12.4316C943.408 12.433 943.403 12.4353 943.397 12.4365ZM909.188 3.62213C909.32 3.96817 909.611 3.78002 909.377 3.61083C909.364 3.60195 909.219 3.62246 909.188 3.62213Z" fill="#419DDF"/>
</svg>
