<svg width="365" height="27" viewBox="0 0 365 27" fill="none" xmlns="http://www.w3.org/2000/svg">
<path d="M220.663 0.524234C234.367 0.516534 249.37 0.470268 263.129 0.530459C264.818 0.537813 264.702 0.638561 265.176 0.651859C266.472 0.688552 267.252 0.569712 268.196 0.578433C272.786 0.620425 277.08 0.637521 281.583 0.675662C286.222 0.714857 284.028 1.02802 285.64 1.10431C288.789 1.25372 286.11 0.845352 287.348 0.753666C290.959 0.778161 294.601 0.8224 298.218 0.867191C297.335 0.90532 296.452 0.942639 295.559 0.977971C297.135 0.986374 299.391 1.04941 296.752 1.15613C297.335 1.18553 297.88 1.21991 298.479 1.2486C298.644 1.09989 301.435 1.08792 301.69 0.99976C301.945 0.911572 300.375 0.931836 300.385 0.924138C300.489 0.814297 306.926 0.964442 307.39 0.976689C308.617 1.00928 307.542 1.19364 308.585 1.18177C310.381 1.16147 309.185 0.786357 311.615 1.28504C312.582 1.12304 312.667 1.20717 313.891 1.21839C314.052 1.21979 313.927 1.12599 313.998 1.12354C315.852 1.05392 314.427 1.22835 314.437 1.2378C314.605 1.39831 316.594 1.32696 317.013 1.34235C322.27 1.53411 326.123 1.66394 331.67 1.70838C332.87 1.71783 336.522 1.6527 337.683 1.68C338.827 1.70694 338.213 1.82259 338.812 1.87812C339.772 1.5999 340.688 1.56922 342.844 1.75251C343.647 1.54956 343.543 1.71327 345.081 1.67268C346.361 1.63905 348.591 1.39559 350 1.6031C348.385 1.5842 348.552 1.6839 346.734 1.74409C346.129 1.76402 339.818 1.76828 340.287 1.97572C340.532 2.08384 342.624 1.98453 342.705 2.00446C343.175 2.12065 342.008 2.26343 340.973 2.21339C341.231 2.18994 341.542 2.16616 341.819 2.14271C339.495 1.99748 341.093 2.55527 339.327 2.06782C339.108 2.00803 339.193 1.94568 338.833 1.88215C338.759 1.90843 339.199 1.97357 338.82 1.98524C338.433 1.997 337.698 1.87331 337.589 1.97755C337.425 2.12913 339.028 2.06939 339.149 2.07826C339.15 2.07734 339.151 2.07642 339.153 2.07551C340.219 2.15599 337.991 2.16517 337.885 2.17951C337.196 2.27396 337.666 2.34668 336.632 2.42469C336.042 2.46914 334.539 2.44294 333.985 2.45729C333.434 2.47199 334.291 2.5437 333.92 2.55909C333.55 2.57449 333.088 2.52 332.653 2.53785C332.467 2.54572 332.476 2.62569 332.386 2.62849C331.419 2.65926 332.053 2.49291 331.177 2.50306C330.608 2.50981 328.702 2.66488 330.016 2.71107C329.384 2.72716 328.769 2.73894 328.14 2.75154C328.536 2.77533 328.946 2.79149 329.333 2.81947C328.15 2.78138 327.615 2.91824 326.874 2.92842C326.133 2.93857 325.468 2.77433 324.652 2.85444C322.912 3.02487 327.222 2.94613 327.757 2.97657C327.966 2.98854 327.165 3.11719 327.041 3.12086C326.494 3.13695 325.846 3.04496 325.423 3.04908C323.911 3.06448 322.986 3.1859 321.545 3.2104C316.639 3.29369 310.552 3.36123 305.904 3.38783C304.172 3.39763 303.131 3.26112 302.354 3.26497C300.536 3.27408 300.314 3.39304 298.728 3.39937C296.369 3.40917 293.044 3.30531 291.075 3.28291C289.711 3.26751 288.476 3.38264 288.122 3.38545C283.193 3.42674 277.197 3.42415 273.112 3.42555C271.191 3.42625 270.279 3.29687 269.882 3.30067C268.177 3.31677 268.635 3.42738 267.252 3.41621C266.505 3.41027 266.366 3.30409 266.266 3.29994C265.386 3.26494 265.21 3.40361 264.524 3.40816C260.575 3.43439 256.772 3.34364 252.862 3.33034C252.578 3.32929 252.603 3.26786 252.419 3.27101C251.63 3.28608 251.997 3.38282 251.172 3.38985C249.457 3.40489 247.696 3.38891 245.878 3.37666C245.698 3.37545 245.617 3.29649 245.205 3.29646C244.793 3.29646 244.48 3.37132 243.832 3.36714C242.14 3.35629 240.47 3.26675 238.677 3.26185C238.381 3.26115 238.013 3.35628 237.568 3.35524C236.173 3.35209 234.106 3.26574 232.91 3.26259C228.964 3.25279 225.324 3.30693 221.607 3.30763C220.734 3.30759 219.96 3.21946 219.506 3.21736C218.481 3.21284 219.254 3.29611 218.216 3.29646C209.738 3.29856 201.227 3.2607 192.649 3.26735C189.281 3.2698 185.18 3.35596 181.924 3.33217C180.571 3.32201 180.325 3.20687 179.367 3.20582C177.66 3.20446 177.35 3.35206 175.548 3.36677C174.111 3.37832 172.463 3.23097 170.967 3.24006C169.471 3.24916 168.781 3.39229 167.063 3.40944C165.648 3.42342 163.672 3.35847 162.131 3.36897C148.012 3.46556 134.108 3.52435 119.902 3.41237C114.889 3.37282 109.327 3.39338 104.147 3.2527C103.66 3.23938 104.405 3.10116 102.845 3.1302C102.007 3.14595 100.836 3.26505 98.8993 3.27101C87.3811 3.306 75.0952 3.05124 63.3836 3.10164C45.8406 3.17758 27.6594 4.16117 12.4149 2.72187C11.6671 2.65119 12.0726 2.30483 12.5206 2.20643C12.9363 2.27676 13.3207 2.36028 13.7558 2.43971C14.3037 2.00693 14.2071 2.11961 16.2378 2.15846C17.4881 2.18258 16.4894 1.99749 17.1559 1.94495C18.0198 1.87706 22.0762 1.66329 21.296 1.9499C21.5475 1.90021 21.7795 1.8526 22.0245 1.80396C24.9612 1.76057 27.8143 1.68881 30.6865 1.60657C31.1827 1.5922 31.2055 1.50227 31.718 1.48792C33.0944 1.44874 34.1871 1.50782 35.6054 1.49872C36.3759 1.49383 36.4828 1.3899 37.4918 1.39655C38.5002 1.40324 38.4781 1.54353 39.8539 1.39106C38.9577 1.21504 42.9553 1.34276 44.377 1.33191C44.5833 1.33052 46.2755 1.17238 47.1749 1.19056C48.0775 1.2084 49.4476 1.30942 50.8432 1.25208C51.4976 1.22514 51.8947 1.10198 52.6006 1.09498C53.097 1.09008 53.6933 1.19954 54.3219 1.20411C54.9502 1.20865 56.3098 1.1188 56.559 1.11731C57.4582 1.11137 56.4662 1.18833 57.0812 1.1922C60.0501 1.2097 63.4995 1.25095 66.4265 1.19916C66.7864 1.19288 66.2885 1.10221 66.3363 1.09919C68.7792 0.987931 67.4753 1.10607 68.1349 1.18726C68.7739 1.26577 73.4501 1.22294 73.4845 1.06531C73.6282 1.2627 74.6676 1.11194 74.9376 1.10615C75.9883 1.08377 75.7823 1.25455 76.8008 1.20173C77.1746 1.18249 76.4468 1.06706 76.8485 1.07044C77.8413 1.07884 78.7348 1.26428 80.0564 1.28284C80.3756 1.28739 80.4793 1.20479 81.0467 1.20759C81.6147 1.21043 83.9957 1.31149 82.8969 1.13727C84.341 1.27688 84.6317 1.20026 86.3112 1.20411C86.7366 1.20528 87.2844 1.3384 88.1898 1.29712C88.496 1.28312 88.487 1.1548 88.9479 1.15375C90.0019 1.15099 90.9949 1.28382 92.3325 1.28907C94.834 1.29921 97.4969 1.20584 100.105 1.23908C100.814 1.2482 100.637 1.37721 101.668 1.37971C101.819 1.37971 103.061 1.26814 103.773 1.27863C104.202 1.28493 106.423 1.36334 106.871 1.36963C107.612 1.37973 107.745 1.25496 108.15 1.27936C109.324 1.3497 108.383 1.53336 109.794 1.28211C110.259 1.42139 111.084 1.40746 111.348 1.57893C111.828 1.39102 112.451 1.57156 113.383 1.50861C114.314 1.44562 115.078 1.08168 115.304 1.47327C115.739 1.42568 117.593 1.34446 117.906 1.33851C118.827 1.32172 118.335 1.43004 119.03 1.41541C119.153 1.41296 119.024 1.33889 119.81 1.3462C120.326 1.3511 124.105 1.35564 124.331 1.36579C126.905 1.48175 122.928 1.43925 122.371 1.51942C122.273 1.49836 122.175 1.47723 122.071 1.45643C120.933 1.42145 121.581 1.58879 122.096 1.62763C122.612 1.66646 123.576 1.59192 124.005 1.64686C124.218 1.67444 124.086 1.87507 123.44 1.85084C124.131 1.91263 123.187 1.97788 123.46 2.03596C123.761 2.09962 126.867 2.11922 126.884 2.00868C126.304 2.00483 125.581 2.00864 124.995 2.0041C124.228 1.81197 126.558 1.15586 128.695 1.41797C130.246 1.60764 127.69 1.75845 131.358 1.59925C130.794 1.59155 130.317 1.57361 129.804 1.56556C129.75 1.42148 130.581 1.5799 131.01 1.53406C131.216 1.51165 129.947 1.40963 131.048 1.37568C131.996 1.58172 132.725 1.37446 134.314 1.37202C133.873 1.40876 133.431 1.44532 132.989 1.48206C135.674 1.63149 129.437 1.68078 134.659 1.76441C134.03 1.77105 133.405 1.76929 132.774 1.77943C133.08 1.85503 132.59 2.07696 132.864 2.12385C133.583 2.24693 134.646 2.17273 135.523 2.18354C135.906 2.18809 135.668 2.24801 135.7 2.24836C136.226 2.255 136.11 2.16717 136.571 2.16157C137.151 2.15458 138.826 2.23996 139.098 2.23023C139.801 2.20539 138.631 2.03206 138.698 2.01911C139.146 1.93516 140.061 2.00478 140.013 1.89497C137.811 1.97054 131.465 1.87352 137.206 1.6919C135.624 1.51448 136.081 1.26987 138.357 1.25062C140.239 1.23452 139.024 1.33253 140.004 1.44031C140.131 1.45381 142.653 1.50534 142.782 1.42914C142.681 1.60464 143.501 1.76005 142.951 1.94111C142.87 1.96771 141.835 1.95721 142.196 2.10279C142.377 2.17592 142.895 2.33508 142.811 2.42817C143.024 2.36344 143.246 2.29062 143.462 2.22309C145.013 2.2042 145.233 2.27393 146.081 2.39466C146.042 2.34427 145.259 2.13252 146.449 2.19691C146.51 2.20076 146.562 2.27676 147.167 2.31446C148.388 2.39004 148.643 2.41355 147.706 2.63673C150.236 2.50943 150.781 2.75817 153.375 2.68544C152.859 2.39853 151.947 2.46956 149.571 2.52485C149.468 2.45662 149.42 2.38907 149.314 2.32014C152.476 2.4748 150.913 2.45905 152.705 2.32051C153.143 2.28656 155.481 2.32288 154.701 2.12971C154.516 2.08426 153.064 2.08949 153.231 2.01783C153.263 2.00419 155.028 1.96947 155.184 1.98798C157.138 2.2165 153.647 2.37577 159.026 2.29249C159.175 2.29004 159.227 2.20652 159.516 2.19489C160.061 2.1732 160.068 2.26996 160.554 2.24763C161.041 2.22523 161.715 2.09509 162.447 2.2154C163.785 2.43447 160.629 2.56047 159.224 2.44428C158.653 2.73055 168.695 2.73685 169.317 2.71235C172.034 2.60564 167.513 2.66724 167.28 2.58784C167.183 2.55425 167.231 2.12842 166.087 2.40473C165.749 2.48662 167.163 2.59451 166.319 2.63966C165.475 2.6848 165.809 2.55942 165.748 2.55067C165.538 2.52068 164.64 2.56717 164.523 2.54939C162.731 2.27957 162.895 1.87186 165.271 2.47413C166.306 2.338 163.93 2.12102 165.217 2.02863C166.78 1.91634 167.921 2.11052 168.118 2.11927C170.474 2.22281 167.757 1.93935 170.635 2.02992C172.237 2.08031 168.237 2.21857 171.896 2.20002C174.958 2.18427 173.304 2.08559 173.527 1.86127C173.579 1.80879 175.257 1.74443 172.972 1.76752C172.908 1.82596 172.786 1.90297 172.641 1.95686C172.08 1.91419 171.146 1.62174 170.849 1.61152C169.395 1.56288 169.465 1.71467 168.608 1.5359C169.22 1.73147 168.223 1.61362 167.85 1.65491C166.461 1.8071 168.282 1.86368 165.165 1.6681C165.571 1.75979 165.939 1.84977 166.332 1.94111C165.958 1.94426 165.584 1.94748 165.21 1.95063C164.653 1.74871 162.666 1.77454 164.465 1.57123C162.302 1.5135 161.428 1.55752 160.954 1.71461C160.864 1.7446 160.539 1.75658 160.157 1.75947C160.229 1.80364 160.322 1.94012 160.262 1.95686C159.723 2.10406 158.889 1.84976 159.173 1.75269C158.906 1.74805 158.695 1.7426 158.62 1.74024C158.147 1.72517 159.075 1.6374 158.691 1.60731C158.565 1.59753 157.232 1.61662 157.206 1.58094C157.045 1.35218 159.239 1.51722 154.833 1.38428C154.727 1.59251 156.773 1.54672 156.248 1.76789C155.684 2.00549 154.533 1.68677 154.282 1.97828C154.188 1.93035 154.147 1.89039 154.066 1.83582C152.284 1.96283 152.26 1.72005 151.716 1.66645C150.658 1.56181 145.797 1.57753 150.162 1.78785C149.524 1.80885 148.872 1.81856 148.237 1.8371C148.092 1.40186 148.479 1.5751 145.42 1.50861C144.746 1.49392 144.527 1.30249 143.866 1.52985C143.956 1.30683 141.963 1.44156 141.777 1.4145C140.585 1.23848 145.013 0.99347 145.581 1.38776C146.328 1.23425 146.326 1.43718 147.16 1.41028C148.366 1.37144 148.533 1.33192 149.965 1.4817C151.373 1.27067 144.45 1.38885 148.647 1.10889C152.845 0.828952 177.292 0.672797 182.994 0.630801C193.326 0.554862 198.758 0.505228 208.039 0.517825C208.955 0.518875 215.866 0.498641 214.429 0.742496C214.223 0.777491 211.25 0.870233 213.8 1.06165C213.281 0.948631 214.781 0.875244 214.906 0.863346C217.791 0.593191 216.121 0.527033 220.663 0.524234ZM234.128 2.69917C228.2 2.64353 232.555 2.80655 231.324 3.1747C232.085 3.17575 232.843 3.17676 233.604 3.17781C233.404 3.15471 233.206 3.13169 233.007 3.10859C233.006 3.10859 233.005 3.10859 233.004 3.10859C233.378 2.97213 233.754 2.83563 234.128 2.69917ZM331.036 2.94563C330.805 2.9941 330.576 3.04267 330.326 3.0901C329.542 3.07505 328.762 3.06028 327.979 3.04524C328.072 3.01235 328.163 2.97907 328.256 2.94618C329.183 2.94758 330.106 2.9491 331.036 2.94563ZM158.395 2.49757C157.286 2.36286 157.386 2.60326 155.913 2.49372C156.093 2.67113 156.294 2.84468 156.484 3.02034C157.605 2.99409 157.86 2.92662 159.078 2.96998C158.936 2.91296 158.791 2.8556 158.652 2.79823C158.45 2.81046 158.234 2.82438 158.037 2.83522C157.725 2.67566 159.671 2.65185 158.399 2.4972C158.397 2.49732 158.396 2.49745 158.395 2.49757ZM147.031 2.56898C146.435 2.54588 144.072 2.45905 143.75 2.53254C142.657 2.78171 149.323 2.62358 144.41 2.8451C144.433 2.88006 144.41 2.91432 144.41 2.94893C145.306 2.96117 146.2 2.97172 147.102 2.98152C147.054 2.84366 147.086 2.70754 147.031 2.56898ZM212.687 2.71455C211.771 2.69535 207.401 2.81255 208.826 2.97035C209.245 3.01654 211.195 2.79081 211.937 2.80061C212.417 2.80693 211.879 2.93069 212.827 2.8852C212.785 2.83065 212.759 2.77017 212.685 2.71492C212.686 2.71479 212.686 2.71467 212.687 2.71455ZM214.406 1.99439C213.458 2.01644 212.498 2.04437 211.544 2.06782C212.24 2.20882 213.61 2.11825 213.69 2.31666C213.43 2.3317 213.171 2.34666 212.91 2.3617C212.711 2.31832 212.514 2.2749 212.317 2.23152C211.499 2.3393 211.994 2.39285 210.47 2.3617C211.392 2.66161 211.563 2.82258 214.174 2.51918C213.681 2.6819 214.145 3.2121 215.592 2.8332C215.863 2.76286 214.732 2.71586 214.719 2.70466C214.545 2.56543 215.173 2.47657 214.986 2.34504C214.902 2.28555 214.213 2.28646 214.11 2.20387C214.062 2.16358 214.718 2.04863 214.406 1.99439ZM216.295 2.70045C216.002 2.78478 217.004 2.98492 217.875 2.94435C219.232 2.88136 217.091 2.691 216.295 2.70045ZM331.041 2.94545C331.039 2.94551 331.038 2.94557 331.036 2.94563C331.037 2.94545 331.038 2.94526 331.039 2.94508C331.039 2.9452 331.04 2.94532 331.041 2.94545ZM150.107 2.66658C149.404 2.73827 148.364 2.72782 148.441 2.84181C148.099 2.81941 147.754 2.79737 147.412 2.77497C147.415 2.80925 147.421 2.84359 147.425 2.87751C148.453 2.89886 149.478 2.92027 150.506 2.94197C150.377 2.85029 150.258 2.75826 150.107 2.66658ZM138.905 2.58674C137.612 2.57521 138.696 2.7303 138.412 2.80519C138.128 2.88008 136.977 2.81915 137.112 2.92659C137.873 2.93079 138.667 2.93501 139.437 2.93885C139.234 2.82197 139.092 2.70293 138.902 2.58674C138.903 2.58674 138.904 2.58674 138.905 2.58674ZM258.322 2.8213C257.445 2.7877 257.803 2.66936 256.072 2.80793C256.073 2.80793 256.075 2.80793 256.076 2.80793C257.723 2.90485 259.844 2.99123 261.661 2.89747C260.55 2.77262 259.702 2.87379 258.322 2.8213ZM161.461 2.84675C161.831 2.75298 160.107 2.67466 159.727 2.76179C159.111 2.90281 160.897 2.98918 161.461 2.84675ZM293.735 1.99073C295.068 1.70204 292.541 1.378 289.895 1.51795C289.666 1.5302 291.374 1.62201 290.868 1.67835C290.817 1.6839 289.879 1.67702 289.647 1.71717C289.415 1.75741 289.659 1.85083 289.278 1.89002C288.611 1.95852 287.103 1.8316 286.603 1.92152C286.537 1.93357 287.473 2.0585 287.531 2.06324C288.492 2.13882 289.418 1.97552 289.566 1.97443C290.33 1.96884 290.214 2.09687 290.408 2.12696C290.772 2.18356 291.414 2.12698 291.459 2.13117C292.618 2.24346 289.969 2.21133 289.611 2.25752C288.647 2.38209 289.54 2.49791 287.228 2.56825C287.009 2.57487 284.382 2.56735 287.693 2.7107C281.191 3.00953 290.959 2.88068 292.02 2.81489C292.509 2.78439 291.768 2.66235 292.065 2.60743C292.742 2.48182 293.896 2.45967 293.793 2.2826C293.57 1.91034 292.054 2.15426 291.01 2.09162C291.12 2.01078 291.162 1.93194 291.365 1.85285C291.052 1.95924 293.638 2.01246 293.735 1.99146C293.735 1.99122 293.735 1.99098 293.735 1.99073ZM277.277 2.41609C275.817 2.30375 275.92 2.53875 274.582 2.40437C273.402 2.61538 275.73 2.60121 276.001 2.61311C277.238 2.66629 277.21 2.89574 278.476 2.82515C278.041 2.68938 277.686 2.5522 277.277 2.41609ZM289.979 2.51295C289.002 2.63193 290.75 2.62991 290.821 2.65266C291.592 2.894 286.359 2.8471 289.979 2.51295ZM206.999 2.24177C206.502 2.23372 206.817 2.34764 206.38 2.3813C205.942 2.41523 204.443 2.31774 204.481 2.38862C204.519 2.45966 207.265 2.64389 204.509 2.68379C204.602 2.72366 204.571 2.75341 204.616 2.78944C205.373 2.79049 206.138 2.79224 206.896 2.79329C206.48 2.67851 206.054 2.55777 205.654 2.44685C206.079 2.35551 206.319 2.47267 206.341 2.47267C206.341 2.47254 206.341 2.47242 206.341 2.4723C207.134 2.46311 208.113 2.25967 206.999 2.24177ZM246.065 2.59938C246.214 2.31416 245.044 2.6327 244.563 2.66804C244.083 2.70326 243.423 2.59768 243.671 2.72041C244.448 2.80509 246.049 2.6312 246.065 2.59901C246.065 2.59913 246.065 2.59925 246.065 2.59938ZM269.344 2.41664C268.119 2.48587 268.314 2.56001 266.816 2.47541C266.874 2.54435 266.932 2.6148 266.99 2.68269C268.18 2.68409 268.096 2.48396 269.472 2.5644C269.698 2.5777 269.215 2.73755 270.233 2.68617C269.937 2.60085 269.637 2.50616 269.344 2.41664ZM263.277 2.67225C264.682 2.66173 265.797 2.10387 263.209 2.35548C262.825 2.39309 262.22 2.6803 263.277 2.67225ZM219.963 2.22767C217.572 2.21159 220.289 2.30161 220.911 2.38734C215.345 2.45591 221.539 2.36388 222.095 2.649C222.775 2.56781 224.048 2.38213 222.634 2.33241C222.044 2.31176 222.259 2.39666 222.224 2.39631C221.137 2.37531 221.269 2.23642 219.963 2.22767ZM279.814 2.40235C279.724 2.40655 279.865 2.50286 279.579 2.5221C279.291 2.54121 278.641 2.47381 278.577 2.53291C278.513 2.59237 279.817 2.63849 280.217 2.59516C280.616 2.55142 280.63 2.36527 279.814 2.40235ZM270.639 2.16505C269.445 2.23435 271.398 2.58913 271.658 2.58747C273.94 2.56893 270.572 2.27738 270.639 2.16505ZM225.515 1.62507C222.633 1.80529 224.742 2.11846 226.547 2.30604C226.785 2.26792 227.03 2.22974 227.265 2.19196C226.182 2.42363 224.284 2.65262 228.507 2.45069C226.195 2.39617 228.131 2.33394 228.146 2.32087C228.4 1.89533 224.976 2.09295 225.518 1.62507C225.517 1.62507 225.516 1.62507 225.515 1.62507ZM283.699 2.50379C284.954 2.50238 288.215 2.42887 286.693 2.24342C285.694 2.33019 284.699 2.41702 283.699 2.50379ZM178.333 1.64997C177.308 1.54393 176.363 1.54574 175.1 1.55274C176.238 1.70706 175.49 1.72479 175.106 1.76258C174.524 1.81947 175.934 1.81481 175.938 1.8252C175.912 1.97182 175.013 1.99459 177.06 1.9911C176.554 2.04217 176.054 2.09363 175.548 2.14436C177.108 2.15102 177.476 2.24667 178.465 2.36354C177.504 2.07799 178.769 2.25677 179.917 2.11469C180.49 2.04356 178.855 1.7042 178.33 1.64997C178.331 1.64997 178.332 1.64997 178.333 1.64997ZM222.537 1.56776C222.24 1.61919 221.969 1.68878 221.682 1.74757C221.369 1.75317 221.056 1.75808 220.743 1.76368C220.705 1.7182 220.672 1.67063 220.627 1.6269C220.215 1.61366 220.376 1.67698 220.253 1.68293C220.253 1.68269 220.253 1.68244 220.253 1.6822C218.497 1.76614 217.778 1.7567 216.402 1.6161C216.402 1.75544 216.402 1.89478 216.402 2.03413C216.711 2.02084 217.024 2.00788 217.333 1.99494C217.497 1.92007 217.662 1.84515 217.827 1.77027C218.185 1.81157 218.539 1.85257 218.897 1.89387C219.184 1.86694 219.528 1.83861 219.776 1.81239C221.204 2.20186 217.959 1.93727 217.93 2.09895C217.911 2.20288 221.179 2.19833 221.65 2.1266C221.717 2.1161 221.011 1.82608 222.207 1.97718C222.394 2.00098 222.46 2.62842 223.749 2.12037C223.933 2.0483 223.291 1.65851 222.537 1.56776ZM210.67 1.36542C212.507 1.76681 205.725 1.34238 208.652 1.67268C207.817 1.85707 207.972 1.85467 208.813 2.01838C208.887 2.03305 208.306 2.08372 208.355 2.09016C209.142 2.18045 210.089 2.13257 210.096 2.2967C210.308 2.28796 210.508 2.28018 210.721 2.27143C209.835 2.11678 211.244 2.01285 211.789 1.88233C212.037 1.82322 211.467 1.80498 211.675 1.75324C211.753 1.73435 212.549 1.77206 212.582 1.7179C212.649 1.59542 212.149 1.42989 211.301 1.33961C211.301 1.33948 211.301 1.33936 211.301 1.33924C211.089 1.34728 210.882 1.35703 210.67 1.36542ZM249.941 1.69886C250.254 1.92073 251.507 1.98424 249.099 2.09272C249.218 2.13642 249.341 2.17976 249.46 2.22346C249.866 2.21961 250.26 2.21579 250.672 2.21229C251.91 1.55865 254.169 2.29629 252.722 1.83271C252.564 1.78232 251.601 1.83862 252.552 1.70179C252.551 1.70167 252.55 1.70155 252.548 1.70142C251.22 1.74342 251.053 1.82203 249.941 1.69886ZM241.053 1.85358C237.991 2.32042 245.285 2.11406 244.067 1.99018C243.957 1.97898 240.815 2.0793 241.053 1.85358ZM265.628 1.44727C264.255 1.43923 264.164 1.6911 264.302 1.78181C264.441 1.87278 265.391 1.78085 265.514 1.79517C265.914 1.84242 265.066 1.87362 265.585 1.93836C265.757 1.95939 268.148 2.04918 268.258 2.03834C268.866 1.97809 267.977 1.77026 268.151 1.74647C268.718 1.66847 269.488 1.77659 269.653 1.66608C270.007 1.4303 268.571 1.67781 268.329 1.68183C267.597 1.69303 267.661 1.56029 267.113 1.5337C266.565 1.50715 266.207 1.55262 265.724 1.54322C265.564 1.54008 265.697 1.44811 265.628 1.44727ZM261.088 1.9792C262.522 1.78852 259.03 1.58116 258.616 1.6258C257.397 1.75843 260.401 2.07018 261.088 1.9792ZM215.27 1.97114C216.582 1.83292 213.526 1.72104 212.653 1.77668C212.815 1.83412 214.819 2.01872 215.27 1.97114ZM226.315 1.6258C225.109 1.66884 226.708 1.98025 227.714 1.97535C228.303 1.7707 227.748 1.81126 227.091 1.80286C226.434 1.79439 227.255 1.59227 226.315 1.6258ZM280.52 1.67487C280.26 1.67162 276.067 1.84078 278.476 1.91108C278.66 1.91633 281.594 1.88654 281.817 1.85505C282.264 1.79135 281.19 1.68397 280.52 1.67487ZM232.098 1.32349C231.459 1.50052 230.831 1.49815 231.418 1.706C231.419 1.706 231.42 1.706 231.421 1.706C229.806 1.76966 229.734 1.34442 229.386 1.35352C228.168 1.38544 229.322 1.6881 228.558 1.78748C230.334 1.69406 229.825 1.89813 231.176 1.91108C231.479 1.91388 232.691 1.79201 232.869 1.71607C233.046 1.6401 232.426 1.41238 232.098 1.32349ZM286.442 1.63074C285.027 1.56291 283.731 1.84983 285.694 1.89533C286.651 1.91773 287.306 1.67204 286.442 1.63074ZM144.99 1.55897C145.206 1.6342 145.429 1.70911 145.661 1.78364C145.139 1.80183 144.616 1.8204 144.094 1.83894C144.507 1.81514 144.92 1.7917 145.336 1.76826C144.356 1.74201 143.908 1.60516 144.988 1.55897C144.989 1.55897 144.99 1.55897 144.99 1.55897ZM110.101 1.50165C109.663 1.42921 108.799 1.65353 108.909 1.67103C109.734 1.80142 110.71 1.60209 110.101 1.50165ZM213.332 1.2898C211.702 1.25842 212.823 1.62314 213.822 1.64814C213.211 1.57839 214.257 1.30764 213.332 1.2898ZM122.371 1.51942C122.517 1.55077 122.665 1.58213 122.829 1.61353C122.313 1.56993 122.224 1.54061 122.371 1.51942ZM279.853 1.35279C279.604 1.3248 277.764 1.30169 277.516 1.33631C277 1.4091 278.435 1.61046 279.279 1.54853C279.373 1.54188 280.101 1.38079 279.849 1.35279C279.851 1.35279 279.852 1.35279 279.853 1.35279ZM142.786 1.41926C142.788 1.42275 142.787 1.42608 142.782 1.42914C142.784 1.42589 142.783 1.42252 142.786 1.41926ZM73.4703 1.04865C73.4804 1.05431 73.4857 1.05992 73.4845 1.06531C73.4807 1.06002 73.4729 1.05445 73.4703 1.04865ZM266.874 1.04316C266.262 0.695654 264.85 0.880485 265.965 1.05231C266.028 1.06134 266.726 1.04247 266.874 1.04316ZM6.59622 3.27134C6.80253 3.18447 7.01163 3.09929 7.23135 3.01529C7.82744 2.8037 8.00484 2.75864 8.26007 2.60779C9.02502 2.20329 9.52098 2.14961 9.98801 2.03966C10.1899 1.99981 10.4364 1.93094 10.7108 1.85365C10.8709 1.80847 10.8944 1.90681 10.9443 1.90436C10.9942 1.90181 11.0322 1.88217 11.0651 1.85698C11.1656 1.79877 11.2358 1.73198 11.3245 1.71631C11.9212 1.62259 12.3035 1.61695 12.7074 1.59356C12.7438 1.59156 12.7803 1.58973 12.8176 1.58803C13.3321 1.56773 13.1243 1.90814 13.3061 1.96658C13.6574 2.08796 13.3365 1.70391 13.465 1.60207C13.8653 1.59809 14.2408 1.63093 14.6124 1.66547C14.5221 1.70601 14.4339 1.74588 14.3433 1.78413C14.5059 1.78732 14.7361 1.84432 14.4707 1.95847C14.5308 1.98612 14.5881 2.01893 14.6486 2.04606C14.6616 1.89681 14.9436 1.87812 14.9678 1.78953C14.9909 1.7008 14.8347 1.72456 14.834 1.71691C14.842 1.60634 15.4968 1.74352 15.5423 1.75537C15.6672 1.78583 15.563 1.97199 15.6664 1.95838C15.764 1.94568 15.7721 1.82846 15.7998 1.80553C15.8202 1.78651 15.8534 1.83263 15.9653 2.05597C16.0547 1.8915 16.0654 1.97537 16.186 1.98272C16.2019 1.98359 16.1865 1.89025 16.1934 1.88757C16.3743 1.81181 16.2391 1.99091 16.2405 2.00032C16.2627 2.16024 16.4574 2.08196 16.5002 2.09577C17.0325 2.26812 17.4248 2.38301 17.9827 2.41128C18.0459 2.41444 18.178 2.39495 18.3056 2.37969L18.2511 2.38588C18.363 2.35214 18.4725 2.32347 18.5298 2.32599C18.6496 2.3314 18.6089 2.45644 18.6781 2.50045C18.725 2.20984 18.8173 2.16188 19.0625 2.3111C19.1148 2.09865 19.1286 2.26165 19.2775 2.20111C19.3329 2.17754 19.4242 2.10181 19.4573 2.05452C19.4637 2.05261 19.4835 2.05049 19.49 2.04906C19.6268 1.98876 19.7368 1.978 19.8095 2.08552C19.6648 2.07031 19.6528 2.13882 19.5111 2.21268C19.507 2.21359 19.4945 2.21492 19.4904 2.21613C19.4816 2.2274 19.4663 2.23914 19.4457 2.25052C19.4024 2.27538 18.7562 2.37131 18.8409 2.57148C18.8827 2.67369 19.0735 2.54354 19.0848 2.56246C19.1479 2.67074 19.0541 2.82832 18.9467 2.79503C18.968 2.76785 18.9948 2.73955 19.018 2.71226C18.7669 2.6051 19.016 3.12978 18.7616 2.67838C18.73 2.62321 18.728 2.56025 18.6809 2.50405C18.6781 2.53121 18.7333 2.58761 18.6976 2.60578C18.6618 2.62401 18.5668 2.5157 18.5747 2.6203C18.5868 2.77205 18.7324 2.68486 18.7461 2.69168C18.7461 2.69076 18.7461 2.68983 18.746 2.68891C18.8641 2.74998 18.648 2.79714 18.6406 2.81349C18.5903 2.91891 18.6498 2.98163 18.5651 3.0772C18.534 3.11171 18.4648 3.12517 18.4036 3.13735C18.3877 3.13914 18.3412 3.14725 18.3252 3.14624C18.2881 3.14703 18.2549 3.14768 18.2348 3.1535C18.1807 3.16966 18.2674 3.23908 18.2311 3.25544C18.1946 3.27181 18.147 3.2186 18.1044 3.23764C18.0859 3.24603 18.0891 3.32594 18.0802 3.32899C17.9849 3.36248 18.0436 3.19438 17.9562 3.20707C17.9 3.21542 17.715 3.37625 17.8469 3.41843C17.7848 3.43642 17.7241 3.4501 17.6616 3.4647C17.702 3.48721 17.743 3.50209 17.7823 3.52886C17.664 3.49444 17.6146 3.63299 17.5417 3.64558C17.4681 3.65818 17.3966 3.49628 17.3182 3.57916C17.1509 3.75548 17.5771 3.66194 17.631 3.69084C17.6522 3.70213 17.5765 3.8333 17.5646 3.83738C17.5109 3.85525 17.4438 3.76546 17.4015 3.77104C17.2519 3.79158 17.1641 3.91622 17.0218 3.94591C16.6647 4.01922 16.2543 4.09002 15.8368 4.13198C15.6941 4.1469 15.5618 4.15931 15.4364 4.16876C15.2663 4.18166 15.159 4.04734 15.0828 4.05279C14.9029 4.06579 14.8846 4.18522 14.729 4.19546C14.4989 4.21096 14.1739 4.11778 13.989 4.10458C13.8595 4.09528 13.7548 4.2173 13.7242 4.22219C13.5103 4.25607 13.3007 4.28709 13.0611 4.32349C12.7787 4.36509 12.5252 4.39452 12.3435 4.42178C12.1792 4.44634 12.0949 4.33159 12.0661 4.34079C11.9544 4.37977 12.0057 4.48241 11.9429 4.48696C11.9241 4.48816 11.9061 4.44407 11.8926 4.41363C11.8816 4.3993 11.8741 4.38787 11.8706 4.38751C11.781 4.37986 11.8079 4.51707 11.7455 4.54246C11.4238 4.6726 11.0394 4.73249 10.602 4.80481C10.5589 4.81107 10.5166 4.81793 10.475 4.82577C10.4486 4.83068 10.4373 4.77026 10.4211 4.77717C10.3524 4.80837 10.4071 4.89499 10.3356 4.91892C10.1884 4.969 10.0414 4.99011 9.91537 5.01664C9.90303 5.01926 9.87358 4.94565 9.84648 4.9545C9.81975 4.96337 9.82436 5.04079 9.78837 5.04966C9.72481 5.0653 9.6614 5.04652 9.6257 5.03373C9.55588 5.05762 9.4863 5.08351 9.41817 5.11641C9.38295 5.13352 9.38109 5.24073 9.32548 5.26587C9.15181 5.34632 8.86135 5.3664 8.72638 5.40827C8.48752 5.48472 8.30855 5.54928 8.1908 5.60763C8.0447 5.67447 7.897 5.74587 7.74489 5.80843C7.67023 5.83892 7.56973 5.78553 7.52991 5.80011C7.44046 5.83324 7.53901 5.88167 7.45109 5.91986C7.21479 6.02281 6.98008 6.12702 6.76448 6.23217C6.56052 6.32782 6.31545 6.47578 6.30729 6.48383C6.12297 6.64128 5.96109 6.8005 5.80788 6.98224C5.66422 7.15113 5.5388 7.41148 5.37742 7.64481C5.35478 7.67878 5.32815 7.71581 5.29801 7.75248C5.23052 7.83513 5.1208 7.79382 5.07277 7.86729C4.98458 8.00416 5.09471 8.10847 4.99985 8.28422C4.92509 8.42093 4.70739 8.50658 4.58375 8.66133C4.58203 8.66328 4.58053 8.66542 4.57927 8.66776C4.54859 8.72546 4.65391 8.82515 4.62405 8.91602C4.59886 8.99135 4.47732 9.10058 4.42806 9.24237C4.4244 9.25286 4.42069 9.26348 4.41692 9.27424C4.38048 9.39577 4.34785 9.53952 4.30677 9.73075C4.25775 9.92881 4.23931 10.1434 4.05239 10.5818C4.01556 10.6886 3.94661 10.9798 3.86562 11.359C3.80121 11.6332 3.75427 11.9672 3.62717 12.4315C3.53524 12.7525 3.45035 12.9512 3.40579 13.0737C3.38492 13.1286 3.37253 13.171 3.36411 13.2073C3.30663 13.6425 3.22378 14.1753 2.99272 14.6257C2.96521 14.6785 2.85436 14.5594 2.83475 14.7442C2.82634 14.8195 2.86824 14.933 2.85912 15.0815C2.87693 15.0636 2.88223 15.0718 2.87995 15.0898C2.77658 15.9329 2.4683 17.287 2.45438 18.4253C2.43355 20.172 3.35379 22.0855 1.72055 23.5602C1.63969 23.6271 1.30293 23.5355 1.21148 23.4786C1.28682 23.4472 1.37485 23.4186 1.45952 23.3822C1.03745 23.2678 1.14775 23.3027 1.20986 23.0963C1.24703 22.9761 1.05249 23.0546 1.00714 22.9838C0.949706 22.889 0.772921 22.4694 1.05143 22.5706C1.00411 22.5412 0.95859 22.515 0.912177 22.4868C0.893989 22.1884 0.842658 21.9049 0.780003 21.6115C0.768936 21.5617 0.679352 21.5535 0.668391 21.5017C0.638357 21.3611 0.704058 21.2582 0.703693 21.1157C0.703522 21.0381 0.600447 21.0212 0.61303 20.9219C0.625631 20.8223 0.765583 20.8326 0.621336 20.6859C0.440515 20.7653 0.590777 20.3743 0.587535 20.2325C0.587263 20.2122 0.438584 20.0341 0.461495 19.9458C0.484117 19.8571 0.592278 19.7252 0.542303 19.583C0.518814 19.5163 0.397897 19.4702 0.394571 19.3993C0.392258 19.3495 0.504671 19.2956 0.512483 19.2329C0.520281 19.1703 0.437558 19.0298 0.437362 19.0049C0.436057 18.9148 0.507801 19.0179 0.514846 18.9566C0.547675 18.6599 0.606637 18.3176 0.570621 18.0205C0.566266 17.9843 0.47307 18.0292 0.470306 18.0242C0.372284 17.7737 0.483312 17.9101 0.567938 17.8483C0.64962 17.7884 0.633066 17.3155 0.47601 17.3041C0.673822 17.3022 0.529499 17.1865 0.525309 17.1592C0.509213 17.0518 0.678463 17.0826 0.631822 16.9782C0.614889 16.9395 0.495265 17.0054 0.501061 16.9655C0.515647 16.8637 0.706257 16.7854 0.733288 16.6545C0.739952 16.6219 0.658207 16.6058 0.664808 16.5482C0.671299 16.491 0.788838 16.257 0.607252 16.3572C0.757103 16.2161 0.682175 16.1883 0.699387 16.0131C0.703989 15.969 0.840921 15.9248 0.807349 15.8301C0.796079 15.7967 0.668129 15.7867 0.671193 15.7385C0.677716 15.6308 0.8195 15.537 0.838593 15.4019C0.881777 15.1305 0.795984 14.887 0.940258 14.4809C0.941941 14.4766 0.94375 14.4726 0.94567 14.4688C0.978568 14.4215 1.08967 14.468 1.11772 14.3825C1.1219 14.3691 1.04515 14.2318 1.07064 14.1739C1.08701 14.1396 1.20853 13.9639 1.22218 13.9246C1.24564 13.8606 1.12518 13.8253 1.15591 13.7943C1.24382 13.7039 1.41056 13.8172 1.18406 13.6494C1.3284 13.6303 1.32593 13.5526 1.49913 13.552C1.31936 13.4811 1.50621 13.4476 1.45426 13.3513C1.40224 13.2549 1.04733 13.1467 1.43911 13.1648C1.41695 13.1408 1.38941 13.0803 1.36716 13.0225C1.34767 12.9505 1.33668 12.8817 1.33673 12.8619C1.33862 12.7428 1.43524 12.8228 1.43631 12.7363C1.43695 12.7214 1.36042 12.7217 1.38796 12.6293C1.40406 12.5586 1.52298 12.1644 1.53688 12.1559C1.71689 11.953 1.56966 12.3039 1.62805 12.3914C1.60493 12.3957 1.58177 12.4 1.55866 12.4053C1.49173 12.5167 1.67228 12.4905 1.72424 12.4489C1.77629 12.4068 1.7327 12.2913 1.7974 12.2662C1.82986 12.2537 2.01863 12.3228 1.97701 12.3783C2.05592 12.3292 2.09171 12.4385 2.15517 12.4286C2.22506 12.4196 2.33111 12.1196 2.22197 12.0906C2.20424 12.1462 2.18861 12.2169 2.16789 12.2722C2.01821 12.2879 1.68484 12.0722 1.61507 11.9338C1.58907 11.878 1.60294 11.8278 1.68505 11.7901C1.89976 11.6865 2.00066 11.9569 1.91213 11.5763C1.8943 11.6296 1.86798 11.6717 1.85053 11.7182C1.70821 11.6954 1.87898 11.648 1.84175 11.5978C1.82343 11.5743 1.70028 11.6755 1.68682 11.5647C1.9066 11.5116 1.71528 11.4031 1.74409 11.24C1.7714 11.2923 1.7989 11.3437 1.82679 11.3945C2.02411 11.1541 1.95541 11.7843 2.13605 11.2801C2.13025 11.3442 2.11678 11.4062 2.11513 11.4704C2.19508 11.4541 2.40427 11.543 2.45538 11.5246C2.58951 11.4766 2.5361 11.3597 2.56404 11.2773C2.57605 11.2413 2.63005 11.2763 2.63103 11.2732C2.64793 11.2245 2.55965 11.2175 2.56369 11.172C2.56589 11.1477 2.58876 11.1079 2.61435 11.0686C2.64934 11.0135 2.68819 10.9585 2.68617 10.9424C2.67757 10.8685 2.48259 10.9437 2.47145 10.9344C2.39951 10.872 2.48803 10.798 2.38 10.7779C2.38609 10.839 2.37473 10.9258 2.35327 11.0081C2.29357 11.2419 2.15996 11.4639 2.11888 11.0081C1.93201 11.1177 1.72603 11.0563 1.7132 10.8595C1.71106 10.8405 1.71147 10.8193 1.71465 10.7965C1.74109 10.6085 1.80936 10.7494 1.93697 10.6758C1.95211 10.6669 2.06578 10.4198 1.99722 10.3856C2.16416 10.4404 2.33642 10.3988 2.49634 10.5009C2.51967 10.5158 2.48348 10.6137 2.63355 10.6149C2.70886 10.6154 2.87542 10.6082 2.96328 10.6402C2.90585 10.6043 2.8411 10.5649 2.78164 10.5268C2.80413 10.3787 2.87896 10.3781 3.01725 10.346C2.96896 10.3316 2.74396 10.3335 2.84199 10.2485C2.84758 10.2446 2.92065 10.2647 2.97505 10.2283C3.08571 10.1552 3.11225 10.1574 3.29049 10.3075C3.28254 10.2694 3.28386 10.2402 3.29092 10.218C3.37444 9.99694 3.54796 9.95759 3.5553 9.71829C3.26037 9.69662 3.32179 9.7862 3.26302 10.0935C3.19471 10.0801 3.12995 10.0598 3.06146 10.0446C3.33955 9.74921 3.25989 9.90824 3.18512 9.68545C3.16599 9.63056 3.26344 9.41625 3.05654 9.43888C3.00787 9.44418 2.97348 9.586 2.90898 9.55042C2.8969 9.54354 2.91106 9.36398 2.93323 9.35396C3.20781 9.23276 3.2595 9.5961 3.33456 9.08508C3.33676 9.07127 3.25948 9.03904 3.25786 9.00902C3.25525 8.95251 3.34615 8.98584 3.34153 8.93564C3.33845 8.90104 3.29183 8.83905 3.30891 8.79731C3.31699 8.77759 3.33786 8.76238 3.38133 8.75655C3.51233 8.73925 3.57344 8.81996 3.57974 8.91388C3.58942 8.99219 3.55695 9.07847 3.48386 9.11791C3.57515 9.16906 3.67047 9.09205 3.75966 8.99133C3.94035 8.74749 4.08948 8.46847 4.09356 8.44277C4.1114 8.22309 3.98498 8.52503 3.90753 8.51374C3.87498 8.50388 3.49913 8.30101 3.69771 8.52049C3.758 8.58252 3.90881 8.52404 3.91663 8.60806C3.92534 8.6915 3.82537 8.61147 3.81519 8.61214C3.78005 8.61526 3.78769 8.70811 3.76719 8.7105C3.45204 8.75398 3.08655 8.5682 3.7278 8.61711C3.64696 8.4703 3.35355 8.58267 3.32333 8.43031C3.28995 8.23831 3.51922 8.22971 3.5349 8.22019C3.741 8.08296 3.35739 8.15252 3.59273 7.96658C3.7133 7.88126 3.63005 8.19902 3.7602 8.02926C3.77343 8.01265 3.78852 7.99187 3.80544 7.96638C3.97796 7.69582 3.79471 7.78225 3.6238 7.6364C3.58359 7.60211 3.62052 7.43332 3.51622 7.62732C3.56065 7.66577 3.61701 7.71955 3.65267 7.76247C3.60171 7.77876 3.42348 7.72511 3.33165 7.70034C3.29981 7.69551 3.27661 7.69452 3.26949 7.69992C3.12789 7.81324 3.26437 7.88743 3.05916 7.87858C3.2631 7.91973 3.10245 7.95633 3.11803 8.01375C3.17845 8.22275 3.31902 8.06776 2.99533 8.28053C3.09675 8.28066 3.19457 8.28549 3.29412 8.29111C3.27974 8.32643 3.26597 8.36192 3.2526 8.39742C3.04558 8.36122 2.98315 8.56418 2.87592 8.30746C2.78732 8.41868 2.75602 8.49762 2.7705 8.56556C2.77855 8.61598 2.80949 8.65945 2.86061 8.7023C2.88482 8.72249 2.88302 8.75922 2.87142 8.79827C2.91551 8.80654 3.04642 8.84625 3.05989 8.85794C3.17869 8.95901 2.91178 8.9529 2.82946 8.89412C2.81579 8.91915 2.80347 8.93873 2.79874 8.94539C2.76848 8.98824 2.71678 8.86652 2.67517 8.89581C2.66093 8.90589 2.63559 9.04804 2.60115 9.03993C2.37904 8.98818 2.59952 8.81484 2.34253 9.22434C2.53952 9.29184 2.55429 9.07497 2.75148 9.18956C2.9633 9.31114 2.62559 9.33516 2.89942 9.43837C2.85077 9.43438 2.81114 9.42766 2.75643 9.4207C2.83061 9.62638 2.59602 9.56033 2.53031 9.59242C2.46469 9.62623 2.40186 9.7402 2.39699 9.79101C2.38103 9.8564 2.40291 9.88791 2.48912 9.83502C2.51777 9.82528 2.55487 9.80441 2.60048 9.7644C2.60032 9.80561 2.5941 9.84457 2.58744 9.88199C2.58205 9.90445 2.57729 9.92702 2.57387 9.94961C2.17249 9.78895 2.33237 9.81976 2.15624 10.1265C2.11921 10.1932 1.92805 10.1642 2.12593 10.298C1.91332 10.2273 1.98552 10.4765 1.95577 10.4875C1.74953 10.5791 1.64303 10.0188 2.04725 10.0711C1.93034 9.93775 2.12173 10.004 2.13206 9.90133C2.14377 9.80133 2.13873 9.7489 2.19584 9.69492C2.21467 9.68942 2.2487 9.68497 2.3085 9.67099C2.24304 9.60058 2.19123 9.65253 2.15193 9.67395C2.04763 9.80902 1.9491 9.98389 1.93171 9.60243C1.93176 9.59209 1.9322 9.58107 1.93306 9.56939C1.85879 9.52503 1.84017 9.04143 2.07411 8.26581C2.16276 7.96665 2.30296 7.54415 2.58709 7.12889C2.74552 6.84365 2.98426 6.36068 3.13631 6.12908C3.15644 6.09695 3.17727 6.06451 3.19877 6.03199C3.58232 5.4139 3.98669 4.87426 4.47866 4.42634C4.81841 4.13007 5.04309 4.01383 5.30958 3.86738C5.41454 3.80297 6.10691 3.45095 6.06278 3.74302C6.05596 3.78404 5.8039 4.00638 6.13547 4.0612C6.03665 3.98259 6.15284 3.84743 6.16044 3.83111C6.33384 3.45722 6.1431 3.46611 6.59622 3.27134ZM8.67258 4.82913C8.03503 4.98987 8.54046 4.98878 8.52588 5.38251C8.60465 5.35808 8.68973 5.33082 8.77808 5.30017C8.74728 5.2867 8.71686 5.27302 8.68697 5.25895C8.68687 5.25898 8.68678 5.25901 8.68668 5.25905C8.68375 5.11562 8.67997 4.97197 8.67258 4.82913ZM17.9552 3.64986C17.9338 3.69898 17.9127 3.7482 17.8891 3.79636C17.8114 3.78364 17.7334 3.7713 17.6551 3.75877C17.6633 3.7256 17.6712 3.69204 17.6794 3.65887C17.7715 3.65733 17.8631 3.65604 17.9552 3.64986ZM3.51028 9.20565C3.35076 9.26115 3.58311 9.32248 3.43914 9.42418C3.61433 9.457 3.78614 9.48776 3.95927 9.52176C3.96187 9.42176 3.90394 9.38019 3.97621 9.30255C3.91873 9.29426 3.86062 9.28695 3.80257 9.27956C3.80882 9.29935 3.81633 9.32105 3.82159 9.34003C3.66078 9.31739 3.69233 9.14794 3.51005 9.2052C3.51012 9.20535 3.5102 9.2055 3.51028 9.20565ZM3.20839 10.3306C3.16929 10.3621 3.02319 10.5349 3.08673 10.5851C3.29868 10.7335 3.31267 10.1775 3.40261 10.6184C3.43662 10.6267 3.4689 10.6383 3.50206 10.6482C3.53414 10.5839 3.56519 10.5246 3.59526 10.4739C3.46547 10.4273 3.33928 10.3763 3.20839 10.3306ZM6.74124 5.60317C6.65043 5.6226 6.35235 5.91031 6.541 5.98988C6.59302 6.01401 6.64731 5.73295 6.71546 5.7112C6.75835 5.69743 6.7673 5.83044 6.82659 5.75152C6.79958 5.70396 6.77131 5.65043 6.74118 5.6036C6.7412 5.60346 6.74122 5.60331 6.74124 5.60317ZM6.58595 4.88036C6.50898 4.94024 6.43416 5.00673 6.35941 5.06961C6.48309 5.16565 6.56638 5.02599 6.65778 5.20241C6.64118 5.22681 6.62469 5.25115 6.60831 5.27563C6.57213 5.24482 6.53613 5.21392 6.49979 5.1833C6.47481 5.3154 6.54165 5.34166 6.39621 5.37961C6.61167 5.60747 6.68861 5.74682 6.78593 5.36608C6.81254 5.53334 7.07382 5.9958 7.03968 5.59522C7.03415 5.52046 6.91688 5.52213 6.91108 5.51258C6.83766 5.39307 6.85564 5.28708 6.78459 5.17496C6.75235 5.12424 6.69143 5.15332 6.64731 5.08281C6.62589 5.0483 6.6369 4.91655 6.58595 4.88036ZM7.04617 5.44676C7.05535 5.53505 7.22306 5.67915 7.28174 5.60949C7.37501 5.50051 7.11224 5.40653 7.04617 5.44676ZM17.9557 3.64966C17.9556 3.64972 17.9554 3.64979 17.9552 3.64986C17.9553 3.64967 17.9554 3.64949 17.9555 3.6493C17.9556 3.64942 17.9556 3.64954 17.9557 3.64966ZM3.42135 10.0781C3.44072 10.1421 3.42508 10.2172 3.42246 10.2809C3.43299 10.3041 3.45216 10.3251 3.49825 10.3436C3.46944 10.3529 3.44029 10.3652 3.4106 10.3791C3.44251 10.3916 3.47456 10.404 3.50613 10.4164C3.52702 10.3908 3.5477 10.3683 3.56744 10.3501C3.6204 10.2657 3.66204 10.1898 3.699 10.1205C3.60651 10.107 3.5143 10.0913 3.42135 10.0781ZM3.02947 11.0404C2.98929 11.1646 3.16477 11.0928 3.23142 11.1373C3.26087 11.1568 3.26048 11.1882 3.25992 11.2184C3.26062 11.2506 3.26166 11.2805 3.32169 11.287C3.32659 11.2701 3.33155 11.2533 3.33663 11.2362C3.35351 11.1771 3.36929 11.1209 3.38435 11.0681C3.26606 11.0609 3.14685 11.0482 3.02942 11.0406C3.02943 11.0406 3.02945 11.0405 3.02947 11.0404ZM10.944 4.18227C10.841 4.17692 10.8507 4.05267 10.6984 4.2367C10.6986 4.23666 10.6987 4.23662 10.6989 4.23659C10.9046 4.28367 11.1572 4.29654 11.3083 4.14866C11.1594 4.06555 11.1044 4.18953 10.944 4.18227ZM3.92568 9.08891C3.85048 9.02455 3.72575 9.12344 3.79734 9.18417C3.91376 9.27631 4.04081 9.18012 3.92568 9.08891ZM14.1934 2.80266C14.3169 2.50963 14.0501 2.1933 13.7833 2.34782C13.7607 2.36116 13.9401 2.44399 13.891 2.50288C13.8863 2.50862 13.7899 2.50668 13.7693 2.54811C13.7479 2.58962 13.7778 2.68148 13.7415 2.72283C13.6789 2.79484 13.518 2.67865 13.4745 2.77254C13.4693 2.78496 13.5718 2.90249 13.5781 2.9069C13.6784 2.97551 13.7595 2.80741 13.7755 2.80543C13.8508 2.79566 13.847 2.92418 13.8676 2.95323C13.9056 3.00792 13.9677 2.94835 13.9718 2.95238C14.0919 3.05925 13.8278 3.03929 13.7959 3.08781C13.7082 3.21791 13.8006 3.32732 13.5848 3.41274C13.5639 3.4208 13.3174 3.43251 13.6389 3.55168C13.0624 3.89708 13.9474 3.69698 14.0578 3.63293C14.103 3.60045 14.0271 3.48158 14.0531 3.42548C14.1129 3.29709 14.2264 3.27067 14.2101 3.09411C14.173 2.72292 14.0321 2.97243 13.9255 2.91497C13.9327 2.83369 13.9334 2.75472 13.9497 2.67479C13.9233 2.78224 14.1839 2.82445 14.1934 2.80339C14.1934 2.80315 14.1934 2.80291 14.1934 2.80266ZM12.6048 3.36919C12.4464 3.27589 12.4864 3.50756 12.3391 3.39146C12.2535 3.61583 12.4753 3.57186 12.5039 3.58049C12.6318 3.61788 12.6572 3.84604 12.7747 3.7602C12.7143 3.63094 12.6623 3.49917 12.6048 3.36919ZM13.8453 3.34092C13.758 3.46481 13.9262 3.45369 13.934 3.47626C14.0195 3.71272 13.5184 3.69444 13.8453 3.34092ZM6.0452 5.43061C6.0001 5.447 6.08261 5.53104 6.06383 5.58072C6.04626 5.62932 5.87809 5.61883 5.92022 5.67669C5.96347 5.73229 6.25608 5.76922 6.08162 5.92383C6.10932 5.95344 6.12322 5.97986 6.14553 6.00837C6.19619 5.97735 6.2514 5.94652 6.30888 5.9151C6.22129 5.83284 6.12822 5.7473 6.03995 5.67093C6.02675 5.57234 6.10495 5.66253 6.10664 5.66152C6.10657 5.66142 6.10651 5.66131 6.10645 5.66121C6.16286 5.61772 6.14798 5.39378 6.0452 5.43061ZM9.69927 4.26985C9.62765 3.99329 9.62183 4.32895 9.59957 4.37465C9.57454 4.4205 9.48944 4.34008 9.55095 4.44799C9.63265 4.50662 9.70479 4.30107 9.69916 4.2695C9.6992 4.26962 9.69924 4.26973 9.69927 4.26985ZM11.8513 3.48214C11.7591 3.57297 11.794 3.63963 11.6584 3.58991C11.6825 3.65468 11.7064 3.72106 11.7292 3.78515C11.8089 3.76466 11.7592 3.57043 11.8919 3.62469C11.9137 3.63399 11.9038 3.79845 11.9798 3.73173C11.939 3.65251 11.895 3.56457 11.8513 3.48214ZM11.3959 3.88296C11.5269 3.82857 11.4573 3.26402 11.29 3.58431C11.2652 3.63209 11.2964 3.92421 11.3959 3.88296ZM7.18589 4.8711C6.96193 4.94857 7.24461 4.92612 7.33343 4.98258C6.85781 5.25778 7.38221 4.93519 7.53907 5.18109C7.56905 5.08123 7.6162 4.86266 7.46917 4.86788C7.40725 4.87058 7.45914 4.94122 7.45567 4.94224C7.34945 4.96282 7.30831 4.82942 7.18589 4.8711ZM12.8561 3.32381C12.8475 3.32913 12.8739 3.42287 12.8475 3.44562C12.8209 3.46826 12.7475 3.40953 12.7485 3.46897C12.7492 3.52882 12.8859 3.55814 12.921 3.50989C12.956 3.46127 12.9331 3.27658 12.8561 3.32381ZM11.9239 3.21227C11.8244 3.30063 12.0678 3.61718 12.089 3.6128C12.2974 3.56152 11.9398 3.32215 11.9239 3.21227ZM7.47986 4.1039C7.27004 4.37864 7.58784 4.58992 7.8176 4.70426C7.82207 4.68133 7.8266 4.65837 7.83102 4.63553C7.83486 4.61473 7.83885 4.59398 7.84282 4.57338C7.84095 4.59862 7.83852 4.62407 7.83605 4.64912C7.81434 4.83644 7.78198 5.00155 7.92471 4.88867C7.95253 4.86556 7.98853 4.83009 8.03825 4.77944C7.81886 4.79748 7.96619 4.6804 7.96448 4.66733C7.91264 4.47999 7.83195 4.43898 7.74734 4.40945C7.64712 4.3739 7.54281 4.35229 7.48011 4.10381C7.48003 4.10384 7.47994 4.10387 7.47986 4.1039ZM13.2452 3.37864C13.3625 3.36317 13.6694 3.26641 13.5088 3.09274C13.4178 3.1869 13.3309 3.28216 13.2452 3.37864ZM3.70244 7.12355C3.55769 7.15458 3.50995 7.23487 3.45034 7.33982C3.63925 7.33157 3.61553 7.40127 3.62672 7.4535C3.64342 7.53236 3.71464 7.41369 3.72357 7.41865C3.84578 7.49943 3.81692 7.58807 3.92349 7.413C3.93973 7.48307 3.95644 7.55292 3.97137 7.62352C4.06199 7.49413 4.16215 7.51329 4.31368 7.49197C4.02101 7.42127 4.23915 7.40928 4.18025 7.23742C4.1514 7.15032 3.77646 7.10727 3.70224 7.12388C3.7023 7.12377 3.70237 7.12366 3.70244 7.12355ZM7.17458 4.16218C7.16509 4.22146 7.16626 4.29608 7.16127 4.36163C7.13358 4.37899 7.10668 4.39538 7.07922 4.41283C7.05815 4.37234 7.03685 4.32967 7.01578 4.29107C6.97192 4.29499 7.01142 4.34715 7.00221 4.35743C7.00212 4.35721 7.00202 4.35698 7.00193 4.35676C6.86917 4.50356 6.80023 4.5234 6.61402 4.45218C6.67075 4.57946 6.72749 4.70673 6.78422 4.834C6.80707 4.80927 6.83033 4.78481 6.85358 4.76049C6.83859 4.6853 6.82386 4.60998 6.80926 4.53467C6.85907 4.55804 6.90829 4.58147 6.9576 4.60531C6.97372 4.56913 6.99459 4.52951 7.00752 4.4956C7.2908 4.79881 6.88817 4.68171 6.94977 4.83198C6.98958 4.92724 7.28497 4.79714 7.30165 4.71372C7.30397 4.70146 7.12864 4.45968 7.29679 4.55438C7.32367 4.56926 7.56234 5.14913 7.49303 4.63012C7.48391 4.55626 7.28048 4.21734 7.17458 4.16218ZM5.96616 4.4807C6.31975 4.74873 5.48889 4.70494 5.91757 4.85165C5.92806 5.05533 5.94349 5.04411 6.09432 5.14921C6.10756 5.15875 6.08055 5.23059 6.08806 5.23391C6.19879 5.27674 6.25971 5.19192 6.33463 5.33798C6.34891 5.32087 6.36276 5.30515 6.37746 5.28798C6.2301 5.18909 6.30674 5.03385 6.29983 4.89224C6.29647 4.82808 6.23646 4.83714 6.23275 4.78135C6.23144 4.76087 6.3213 4.75922 6.30091 4.70901C6.25429 4.59558 6.13608 4.4684 6.01487 4.42757C6.01482 4.42746 6.01477 4.42735 6.01471 4.42724C5.9979 4.44453 5.98282 4.46293 5.96616 4.4807ZM9.82538 3.30244C9.91043 3.51022 10.0443 3.54214 9.83851 3.70519C9.86074 3.74462 9.88309 3.78366 9.90507 3.82319C9.94256 3.80981 9.97926 3.7969 10.0179 3.78406C9.98797 3.11886 10.3764 3.78818 10.1315 3.36801C10.1049 3.32234 10.0222 3.399 10.0858 3.24414C10.0856 3.24405 10.0855 3.24396 10.0853 3.24387C9.96293 3.31495 9.96536 3.39511 9.82538 3.30244ZM8.98937 3.74884C8.97916 3.81928 8.98281 3.87204 8.99337 3.91044C9.00226 3.94331 9.01579 3.9661 9.0328 3.98048C9.14132 4.08151 9.44114 3.80887 9.32975 3.7512C9.31095 3.74161 9.07014 3.95568 8.98937 3.74884ZM11.2366 2.64557C11.1012 2.68158 11.1727 2.92341 11.2141 3.00521C11.2558 3.08724 11.3177 2.97001 11.3341 2.97975C11.387 3.01212 11.3157 3.06833 11.3854 3.11359C11.3935 3.11878 11.431 3.12342 11.4761 3.12688C11.5592 3.13242 11.665 3.14305 11.6703 3.1347C11.7163 3.06206 11.5806 2.8804 11.5916 2.8534C11.6346 2.76263 11.7379 2.85192 11.7333 2.7403C11.7257 2.50115 11.619 2.77548 11.5956 2.78603C11.5197 2.81585 11.494 2.68561 11.4229 2.67766C11.3877 2.67409 11.362 2.68658 11.3384 2.70127C11.3189 2.71484 11.3011 2.73046 11.2759 2.73369C11.2593 2.7358 11.2436 2.64416 11.2366 2.64557ZM10.9704 3.29281C11.0466 3.06818 10.6566 2.97531 10.6335 3.02742C10.5562 3.189 10.9308 3.4022 10.9704 3.29281ZM6.65499 4.82311C6.71886 4.64223 6.38967 4.66883 6.33286 4.75887C6.37316 4.80281 6.63388 4.88452 6.65499 4.82311ZM7.55707 4.07545C7.4811 4.13899 7.61414 4.28756 7.72165 4.34003C7.75676 4.35669 7.78903 4.36375 7.81186 4.3545C7.80138 4.14163 7.76143 4.19782 7.69363 4.21359C7.68618 4.21532 7.67968 4.21422 7.67389 4.21098C7.62844 4.18428 7.62767 4.01722 7.55707 4.07545ZM12.8336 2.59325C12.8086 2.59356 12.4133 2.81331 12.6613 2.8532C12.6724 2.85492 12.7772 2.8327 12.8646 2.80678C12.9259 2.78869 12.9788 2.76945 12.9865 2.7555C13.0234 2.68787 12.9062 2.59645 12.8369 2.59335C12.8358 2.59329 12.8347 2.59326 12.8336 2.59325ZM8.02361 3.59903C8.02353 3.7856 7.96252 3.80264 8.08156 3.98261C8.08164 3.98258 8.08172 3.98255 8.0818 3.98253C7.95001 4.09194 7.81094 3.68975 7.77931 3.70961C7.66664 3.78007 7.87665 4.02964 7.83269 4.14887C7.97677 4.0031 7.98948 4.21431 8.122 4.18508C8.15208 4.17851 8.22736 4.02507 8.21767 3.9478C8.20839 3.87066 8.07988 3.67408 8.02361 3.59903ZM13.435 2.484C13.2816 2.42849 13.1787 2.72731 13.381 2.75406C13.4784 2.76807 13.5277 2.51822 13.435 2.484ZM2.1895 10.1877C2.26845 10.1874 2.34719 10.1874 2.42568 10.1877C2.42537 10.246 2.42693 10.3037 2.42956 10.3608C2.41871 10.3131 2.40896 10.2649 2.40028 10.2156C2.34401 10.3056 2.19865 10.3158 2.18941 10.188C2.18944 10.1879 2.18947 10.1878 2.1895 10.1877ZM1.40529 13.6565C1.32763 13.6847 1.5349 13.8021 1.55378 13.7954C1.69618 13.7391 1.5134 13.6149 1.40529 13.6565ZM6.18742 4.28888C6.0178 4.33506 6.28356 4.61185 6.38612 4.59143C6.29916 4.55519 6.28319 4.26355 6.18742 4.28888ZM1.62805 12.3914C1.66247 12.3851 1.69688 12.3789 1.73177 12.3714C1.675 12.4106 1.64413 12.4124 1.62805 12.3914ZM12.7273 2.28217C12.6998 2.25754 12.5155 2.2573 12.4946 2.29478C12.4521 2.37342 12.6203 2.55541 12.6956 2.4835C12.7041 2.47573 12.7551 2.30686 12.7269 2.28222C12.727 2.2822 12.7272 2.28219 12.7273 2.28217ZM1.98777 10.3827C1.99123 10.3833 1.9944 10.3843 1.99722 10.3856C1.99413 10.3846 1.99086 10.3838 1.98777 10.3827ZM0.459293 17.3046C0.464999 17.3039 0.470636 17.3037 0.47601 17.3041C0.470704 17.3042 0.465101 17.3047 0.459293 17.3046ZM11.2554 2.21552C11.2161 2.14954 11.1759 2.10954 11.1401 2.08861C11.0411 2.00128 11.0185 2.15931 11.1471 2.25932C11.1516 2.26271 11.1707 2.25365 11.1902 2.24349C11.2175 2.231 11.2454 2.21813 11.2554 2.21552ZM350.294 4.31558C349.724 4.29207 349.099 4.2875 348.47 4.28224C347.579 4.26761 346.782 4.23391 345.957 4.21207C345.904 4.21384 345.75 4.19008 345.697 4.18259C345.508 4.14352 345.323 4.10815 345.143 4.0774C345.052 4.06196 344.963 4.04788 344.87 4.03407C344.764 4.01666 344.729 4.01899 344.463 3.96885L344.572 3.98699C344.747 4.00508 344.718 3.9967 344.742 3.99871C344.755 3.99875 344.758 3.99861 344.759 3.99854C344.761 3.99837 344.749 3.99839 344.741 3.99839C344.732 3.99827 344.72 3.99822 344.706 3.99824C344.681 3.99819 344.629 3.99885 344.608 3.99872C344.556 3.99875 344.474 3.99956 344.416 3.99969C344.299 3.99994 344.155 4.00073 344.035 4.00046C343.765 4.0009 343.798 3.8992 343.723 3.88807C343.523 3.85724 343.413 3.97941 343.271 3.97492C342.577 3.95362 341.931 3.9562 341.251 3.93883C340.548 3.92118 340.873 3.59789 340.627 3.52913C340.143 3.39453 340.563 3.79019 340.378 3.88759C339.838 3.87971 339.282 3.85264 338.739 3.82464C338.871 3.7824 339.003 3.74099 339.135 3.70155C338.899 3.70044 338.557 3.64798 338.951 3.529C338.862 3.50233 338.779 3.47051 338.688 3.44463C338.667 3.59406 338.248 3.61903 338.212 3.70835C338.176 3.79768 338.412 3.77011 338.411 3.77785C338.399 3.88809 337.424 3.76815 337.354 3.75807C337.168 3.73123 337.325 3.54191 337.168 3.55868C336.897 3.5874 337.089 3.95673 336.708 3.46965C336.568 3.63608 336.552 3.55241 336.367 3.54695C336.342 3.54631 336.364 3.63948 336.354 3.64226C336.076 3.72054 336.286 3.53951 336.284 3.53011C336.253 3.37049 335.959 3.45104 335.894 3.43766C335.099 3.27055 334.509 3.15906 333.675 3.1406C333.491 3.13689 332.943 3.2191 332.768 3.19723C332.599 3.17555 332.69 3.057 332.594 3.00443C332.447 3.28736 332.331 3.32166 331.987 3.14896C331.876 3.35544 331.886 3.19134 331.652 3.2392C331.46 3.27863 331.149 3.53237 330.908 3.33105C331.16 3.34327 331.135 3.24371 331.4 3.17552C331.493 3.15275 332.45 3.11882 332.365 2.91389C332.33 2.80681 332.011 2.91608 332 2.89648C331.924 2.78258 332.1 2.6343 332.258 2.67945C332.223 2.70399 332.174 2.72931 332.131 2.7541C332.487 2.88835 332.224 2.33846 332.508 2.81732C332.543 2.87603 332.532 2.93876 332.59 3.00051C332.601 2.97388 332.53 2.91092 332.589 2.8974C332.653 2.88366 332.758 3.00414 332.773 2.8994C332.792 2.74714 332.558 2.81418 332.535 2.80603C332.535 2.80695 332.535 2.80787 332.535 2.80879C332.367 2.73349 332.713 2.71353 332.723 2.69889C332.822 2.60132 332.748 2.53083 332.902 2.448C332.993 2.40071 333.218 2.41991 333.3 2.403C333.382 2.38573 333.251 2.31806 333.307 2.30094C333.362 2.28382 333.433 2.3361 333.5 2.31617C333.529 2.30741 333.525 2.22752 333.538 2.22429C333.685 2.18893 333.593 2.35824 333.723 2.34403C333.806 2.3347 334.091 2.17065 333.89 2.1307C333.984 2.11167 334.083 2.09682 334.174 2.08137C334.117 2.05936 334.05 2.04526 333.991 2.01912C334.177 2.05143 334.245 1.91239 334.357 1.8987C334.468 1.88509 334.575 2.04608 334.697 1.96212C334.954 1.78361 334.302 1.88271 334.224 1.85468C334.192 1.84368 334.307 1.71139 334.326 1.70713C334.407 1.68849 334.509 1.77738 334.573 1.77125C334.804 1.74864 334.932 1.62317 335.152 1.5918C335.888 1.48554 336.803 1.38948 337.503 1.34114C337.763 1.32324 337.925 1.45481 338.042 1.44733C338.315 1.42973 338.344 1.30983 338.584 1.29606C338.938 1.27527 339.445 1.36352 339.739 1.37684C339.948 1.38581 340.129 1.26504 340.182 1.2606C340.924 1.19642 341.826 1.17141 342.443 1.1514C342.732 1.14195 342.877 1.26705 342.933 1.26157C343.188 1.23783 343.123 1.1291 343.327 1.13421C343.434 1.13699 343.463 1.24237 343.478 1.24606C343.617 1.27697 343.639 1.13763 343.738 1.13017C343.913 1.11771 344.055 1.11543 344.24 1.11702C344.32 1.11818 344.403 1.12049 344.489 1.12355C344.53 1.12515 344.562 1.12713 344.616 1.12879C344.639 1.12971 344.659 1.13076 344.677 1.13191C344.684 1.13254 344.701 1.13294 344.723 1.13342C344.734 1.13368 344.744 1.13395 344.76 1.13438C344.791 1.13703 344.749 1.12784 344.938 1.14695C344.958 1.15076 345.019 1.15845 345.038 1.16374C344.99 1.16611 345.208 1.20503 345.328 1.23005C345.467 1.25788 345.608 1.28642 345.747 1.31325C345.793 1.32221 345.779 1.38209 345.809 1.38415C345.939 1.39204 345.897 1.28606 346.032 1.304C346.112 1.31481 346.193 1.32881 346.273 1.34516L346.031 1.31771C346.221 1.32256 346.413 1.33859 346.61 1.35345C346.637 1.35551 346.647 1.4348 346.71 1.43684C346.772 1.43885 346.822 1.36557 346.921 1.37307C347.178 1.39257 347.429 1.49142 347.697 1.50625C347.742 1.50861 347.8 1.41556 347.867 1.41901C348.066 1.42927 348.35 1.51802 348.514 1.53016C348.523 1.53076 348.531 1.5312 348.54 1.53148C349.139 1.55134 349.688 1.5063 350.275 1.52869C350.413 1.53434 350.533 1.62873 350.606 1.63499C350.772 1.64943 350.651 1.55829 350.822 1.56942C351.08 1.58669 351.354 1.61724 351.597 1.65106C352.058 1.72369 352.489 1.73267 353.22 1.95039C353.63 2.0895 353.979 2.21607 354.272 2.28144C354.44 2.31931 354.616 2.35879 354.804 2.40585C355.11 2.48734 355.476 2.54602 355.959 2.78638C356.122 2.85844 356.262 2.9049 356.424 2.97262C356.575 3.03495 356.58 3.15567 356.727 3.20468C356.829 3.23843 356.915 3.24694 356.998 3.24944C357.117 3.24644 357.222 3.22043 357.397 3.27953C357.619 3.35536 357.807 3.59383 358.033 3.68426C358.259 3.77584 358.421 3.69232 358.694 3.80873C358.921 3.90815 359.192 4.12194 359.494 4.32095C359.575 4.3751 359.66 4.43513 359.762 4.52207C360.305 4.95759 360.81 5.54973 361.165 6.01056C361.517 6.478 361.717 6.84126 361.874 7.03065C362.207 7.46034 362.378 7.87659 362.505 8.16841C362.627 8.4556 362.709 8.73254 362.771 8.96161C362.827 9.1828 362.889 9.39398 362.869 9.35243C363.082 9.83453 363.147 10.2021 363.21 10.5326C363.222 10.6019 363.235 10.6692 363.245 10.7273C363.327 11.1401 363.376 11.5257 363.42 11.7726C363.447 11.9734 363.598 12.4314 363.592 12.9806C363.59 13.0025 363.588 13.0243 363.586 13.0458C363.579 13.1136 363.431 13.0271 363.483 13.2356C363.511 13.3466 363.646 13.484 363.695 13.7141C363.739 13.9219 363.789 14.1246 363.849 14.3315C364.141 16.4931 363.818 17.6641 363.909 19.2566C364.017 21.9029 364.951 24.6375 363.708 26.8485C363.65 26.9456 363.301 26.9522 363.195 26.9008C363.257 26.836 363.333 26.758 363.407 26.6965C362.969 26.6667 363.079 26.6514 363.096 26.3581C363.107 26.1653 362.933 26.3291 362.874 26.2311C362.796 26.1135 362.555 25.5012 362.847 25.6077C362.796 25.5695 362.747 25.5386 362.697 25.5041C362.636 25.0573 362.554 24.6356 362.463 24.2004C362.447 24.1261 362.357 24.1244 362.341 24.0467C362.298 23.8337 362.354 23.6761 362.342 23.4574C362.335 23.3409 362.231 23.3277 362.236 23.175C362.241 23.0229 362.381 23.0213 362.226 22.8177C362.052 22.9555 362.173 22.3489 362.16 22.1354C362.158 22.1041 361.998 21.8497 362.015 21.7141C362.032 21.5778 362.131 21.37 362.073 21.1601C362.045 21.0616 361.921 21.0026 361.914 20.8961C361.908 20.8212 362.017 20.7306 362.021 20.6358C362.025 20.5412 361.934 20.337 361.932 20.2993C361.925 20.1636 362.003 20.3128 362.007 20.22C362.021 19.774 362.059 19.2521 362.003 18.8135C361.996 18.7591 361.906 18.8352 361.903 18.828C361.789 18.4611 361.909 18.6567 361.989 18.5571C362.067 18.4609 362.016 17.758 361.858 17.755C362.055 17.7303 361.902 17.5797 361.896 17.5389C361.871 17.3793 362.042 17.4075 361.987 17.2569C361.967 17.202 361.853 17.3116 361.855 17.2521C361.861 17.1105 362.044 16.9614 362.058 16.7705C362.062 16.7254 361.979 16.7081 361.979 16.6228C361.98 16.537 362.071 16.1823 361.902 16.3522C362.034 16.1264 361.957 16.0971 361.95 15.8442C361.949 15.7843 362.078 15.6965 362.03 15.566C362.013 15.5234 361.885 15.5315 361.88 15.4701C361.867 15.3141 361.99 15.1642 361.974 15.0042C361.971 14.963 361.955 14.9035 361.961 14.9362C361.838 14.6059 361.693 14.2524 361.663 13.8912C361.654 13.7734 361.785 13.7829 361.766 13.6176C361.762 13.5937 361.627 13.4076 361.627 13.2942C361.627 13.2726 361.631 13.222 361.637 13.1616C361.657 13.0783 361.668 12.9425 361.663 12.9038C361.651 12.8119 361.525 12.8267 361.534 12.7688C361.557 12.5926 361.771 12.6727 361.47 12.5387C361.583 12.4311 361.532 12.2995 361.688 12.2137C361.678 12.212 361.669 12.2101 361.661 12.2078C361.501 12.166 361.634 12.0317 361.549 11.9075C361.459 11.7754 361.08 11.7286 361.459 11.6243C361.401 11.5667 361.27 11.3232 361.254 11.2844C361.23 11.2174 361.256 11.2012 361.278 11.1838C361.296 11.169 361.31 11.1531 361.293 11.1085C361.287 11.0913 361.219 11.1248 361.2 11.0104C361.19 10.9256 361.062 10.4382 361.058 10.4216C361.057 10.0947 361.188 10.5509 361.281 10.6184C361.264 10.6371 361.247 10.6555 361.231 10.6748C361.237 10.8353 361.377 10.708 361.395 10.6267C361.414 10.5449 361.304 10.4394 361.337 10.3683C361.354 10.3322 361.55 10.2822 361.556 10.3801C361.584 10.2649 361.688 10.3773 361.731 10.3214C361.763 10.2814 361.717 10.0691 361.633 9.94289C361.593 9.88331 361.553 9.83713 361.516 9.84985C361.529 9.88948 361.546 9.93267 361.566 9.97475C361.589 10.0212 361.609 10.069 361.624 10.1129C361.549 10.212 361.291 10.217 361.107 10.1944C360.919 10.1021 360.794 9.93176 360.866 9.75361C360.983 9.47367 361.233 9.79543 360.932 9.32346C360.947 9.40229 360.949 9.47394 360.962 9.54947C360.825 9.59612 360.945 9.43467 360.883 9.38948C360.854 9.36794 360.806 9.56868 360.73 9.42914C360.889 9.2439 360.663 9.20591 360.588 9.02886C360.642 9.06473 360.697 9.10438 360.751 9.14712C360.764 8.755 361.108 9.53749 360.934 8.8444C360.933 8.84063 360.932 8.83682 360.931 8.83297C360.933 8.8365 360.934 8.84003 360.936 8.84358C360.975 8.91873 361.004 8.99813 361.041 9.0767C361.098 9.0096 361.332 9.00533 361.362 8.95072C361.414 8.85463 361.375 8.7622 361.327 8.67523C361.304 8.63246 361.278 8.59004 361.263 8.54656C361.244 8.4909 361.313 8.49998 361.312 8.49535C361.284 8.41821 361.212 8.47066 361.177 8.40837C361.136 8.33093 361.086 8.05474 361.051 8.02074C360.971 7.93703 360.92 8.18645 360.901 8.18185C360.796 8.16496 360.78 8.0146 360.693 8.08243C360.952 8.30158 361.216 9.21893 360.712 8.52541C360.648 8.80855 360.393 8.82231 360.253 8.59709C360.134 8.42527 360.288 8.49225 360.318 8.33931C360.319 8.33252 360.305 8.29508 360.282 8.2532C360.206 8.13504 360.111 7.98474 360.063 8.00081C360.217 7.91582 360.276 7.72419 360.474 7.69532C360.503 7.69126 360.583 7.82623 360.672 7.69868C360.716 7.63482 360.807 7.4844 360.891 7.44294C360.821 7.45386 360.742 7.46692 360.668 7.47698C360.529 7.29436 360.571 7.22776 360.604 7.05431C360.565 7.0864 360.449 7.29985 360.407 7.1126C360.405 7.10258 360.465 7.05541 360.446 6.95591C360.405 6.75502 360.395 6.70178 360.668 6.70672C360.586 6.63972 360.531 6.57567 360.487 6.51194C360.371 6.33857 360.405 6.16182 360.163 5.94571C359.99 6.18988 360.137 6.25823 360.397 6.51721C360.352 6.5704 360.302 6.61649 360.256 6.67048C360.093 6.19238 360.221 6.39002 359.943 6.25588C359.876 6.2224 359.67 5.91854 359.6 6.13675C359.584 6.18726 359.728 6.35535 359.655 6.38048C359.642 6.38427 359.447 6.20177 359.445 6.17296C359.415 5.80178 359.912 6.0843 359.259 5.53442C359.241 5.52002 359.177 5.57446 359.137 5.55221C359.061 5.51044 359.125 5.43868 359.054 5.40405C359.038 5.39631 359.016 5.39174 358.993 5.38733C358.907 5.36516 358.808 5.36145 358.785 5.2336C358.745 5.03288 358.954 5.02485 359.17 5.18808C359.248 5.2469 359.315 5.3259 359.342 5.40318C359.419 5.36201 359.376 5.23608 359.265 5.08148C358.858 4.59867 358.131 4.2974 358.056 4.27452C357.621 4.19166 358.296 4.43487 358.294 4.52728C358.293 4.5648 358.094 4.93973 358.379 4.77653C358.466 4.72911 358.313 4.52865 358.455 4.55108C358.598 4.57476 358.491 4.66065 358.495 4.67287C358.51 4.71439 358.662 4.74492 358.67 4.77038C358.787 5.15404 358.557 5.48425 358.527 4.77679C358.319 4.81849 358.539 5.18653 358.321 5.17184C358.062 5.15854 357.994 4.91205 357.97 4.89035C357.69 4.6434 357.943 5.07368 357.587 4.81043C357.385 4.66535 357.998 4.78678 357.48 4.57756C357.044 4.4087 357.239 4.59959 357.121 4.79276C357.093 4.83814 356.839 4.80168 357.161 4.91121C357.192 4.86111 357.239 4.79729 357.28 4.7563C357.342 4.82872 357.352 5.15235 357.387 5.17931C357.56 5.3109 357.615 5.16996 357.652 5.3848C357.655 5.16986 357.736 5.33854 357.803 5.32544C358.05 5.27953 357.846 5.10782 358.154 5.4917C358.147 5.38315 358.142 5.27837 358.132 5.17034C358.182 5.19315 358.233 5.21648 358.284 5.24074C358.264 5.45789 358.512 5.57605 358.193 5.6244C358.426 5.82531 358.51 5.84576 358.655 5.7621C358.658 5.76036 358.661 5.75899 358.664 5.75796C358.693 5.75263 358.731 5.77383 358.77 5.80541C358.792 5.76587 358.874 5.65576 358.892 5.64945C359.052 5.59613 358.967 5.86775 358.869 5.90806C358.894 5.9382 358.912 5.96356 358.918 5.97277C358.956 6.03104 358.8 6.00068 358.818 6.06053C358.824 6.07939 358.97 6.20042 358.946 6.22813C358.792 6.40297 358.717 6.06484 359.019 6.60405C359.189 6.4802 358.963 6.2942 359.176 6.20112C359.409 6.10399 359.278 6.44113 359.525 6.28274C359.497 6.32413 359.47 6.35434 359.436 6.3982C359.701 6.52359 359.511 6.67905 359.517 6.77405C359.522 6.8552 359.608 7.00828 359.687 7.10464C359.764 7.19913 359.839 7.23346 359.795 7.0247C359.785 6.98607 359.771 6.94 359.752 6.88514C359.788 6.91566 359.821 6.94796 359.854 6.98091C359.889 7.01499 359.923 7.05061 359.959 7.08518C359.611 7.35179 359.722 7.19216 359.907 7.61058C359.949 7.70406 359.805 7.83564 360.052 7.80065C359.855 7.9075 360.146 8.10558 360.145 8.14726C360.116 8.42014 359.488 7.92233 359.792 7.65442C359.603 7.64269 359.775 7.53445 359.688 7.4493C359.588 7.3532 359.541 7.3406 359.534 7.21816C359.529 7.18407 359.526 7.14287 359.524 7.09154C359.423 7.07729 359.441 7.15695 359.483 7.25541C359.544 7.41562 359.679 7.6468 359.329 7.45575C359.309 7.44579 359.286 7.43309 359.262 7.4191C358.988 7.2169 358.591 6.7902 358.071 6.4248C357.751 6.25743 356.666 5.83945 356.101 5.67292C355.893 5.61466 355.548 5.52689 355.345 5.4543C355.091 5.3678 354.845 5.26056 354.629 5.14924C354.518 5.10825 354.075 5.0114 353.681 4.94291C353.17 4.84235 352.755 4.69992 352.37 4.57764C352.337 4.56645 352.196 4.53424 352.028 4.50749C351.963 4.49454 351.515 4.44711 351.247 4.3492C351.126 4.30025 351.069 4.24087 351.145 4.16591C351.157 4.1549 351.216 4.14259 351.277 4.12178C351.39 4.08658 351.496 4.02301 351.307 3.88528C351.297 3.87718 351.285 3.86884 351.273 3.86028C351.332 3.98165 351.112 4.02771 351.095 4.03812C350.676 4.26712 350.918 4.34842 350.294 4.31558ZM348.353 2.0912C348.411 2.09638 348.461 2.10016 348.505 2.10263C349.159 2.13833 348.599 1.96397 348.779 1.62336C348.689 1.62099 348.604 1.61881 348.513 1.61656C348.489 1.61594 348.464 1.61523 348.44 1.61446C348.464 1.63543 348.488 1.65628 348.512 1.67708C348.515 1.67979 348.519 1.6825 348.522 1.68521C348.522 1.68521 348.523 1.68521 348.523 1.68522C348.519 1.69384 348.515 1.70246 348.511 1.71108C348.461 1.83808 348.408 1.96477 348.353 2.0912ZM333.73 1.90103C333.763 1.8515 333.796 1.80189 333.832 1.75331C333.949 1.76472 334.075 1.77557 334.189 1.78707C334.176 1.82037 334.164 1.85405 334.151 1.88735C334.011 1.89032 333.867 1.89327 333.73 1.90103ZM359.475 5.45854C359.505 5.6801 359.669 5.50165 359.75 5.75378C359.863 5.61388 359.969 5.47227 360.075 5.32902C359.922 5.20275 359.844 5.21861 359.724 5.04073C359.702 5.09874 359.679 5.15724 359.656 5.21461C359.689 5.22974 359.725 5.246 359.756 5.26215C359.679 5.40967 359.434 5.20163 359.474 5.45836C359.475 5.45842 359.475 5.45848 359.475 5.45854ZM360.671 6.83541C360.706 6.93085 360.82 7.27764 360.906 7.27418C361.205 7.28315 360.537 6.51819 361.119 7.0264C361.146 7.00497 361.177 6.98941 361.206 6.97091C361.148 6.85572 361.085 6.73323 361.011 6.6015C360.9 6.68319 360.783 6.75277 360.671 6.83541ZM351.648 2.24185C351.773 2.27522 352.472 2.25073 352.271 2.0644C352.207 2.00802 351.877 2.19339 351.77 2.1704C351.699 2.1552 351.794 2.04239 351.649 2.06995C351.648 2.12485 351.644 2.18534 351.648 2.24153C351.648 2.24164 351.648 2.24174 351.648 2.24185ZM351.301 2.92372C351.345 2.92236 351.388 2.92064 351.433 2.91887C351.534 2.91469 351.636 2.90869 351.738 2.90488C351.666 2.77834 351.506 2.80054 351.461 2.69921C351.451 2.6781 351.447 2.6517 351.449 2.61753C351.457 2.61569 351.465 2.61386 351.472 2.61203C351.505 2.60398 351.538 2.59588 351.571 2.58774C351.595 2.63453 351.619 2.68129 351.643 2.72801C351.778 2.63641 351.71 2.57366 351.936 2.63361C351.844 2.34583 351.828 2.18532 351.506 2.35111C351.474 2.36672 351.439 2.3854 351.401 2.40727C351.497 2.25582 351.492 1.71895 351.214 2.06924C351.163 2.13433 351.338 2.20119 351.338 2.21279C351.349 2.35423 351.241 2.43098 351.255 2.56505C351.261 2.62554 351.366 2.63741 351.371 2.72137C351.373 2.76217 351.261 2.86414 351.301 2.92372ZM351.087 2.18966C351.144 2.1105 350.998 1.89462 350.853 1.9247C350.63 1.97196 350.96 2.18538 351.087 2.18966ZM333.729 1.90123C333.729 1.90116 333.73 1.90109 333.73 1.90103C333.73 1.90121 333.73 1.9014 333.73 1.90159C333.729 1.90147 333.729 1.90135 333.729 1.90123ZM360.462 6.36701C360.508 6.38359 360.549 6.41273 360.587 6.4386C360.657 6.49243 360.713 6.53493 360.767 6.48755C360.783 6.55013 360.798 6.61144 360.81 6.67115C360.838 6.6519 360.866 6.63216 360.895 6.61309C360.849 6.5207 360.799 6.42485 360.741 6.32449C360.71 6.26786 360.678 6.21064 360.646 6.15266C360.585 6.22376 360.522 6.29357 360.462 6.36701ZM361.375 7.86749C361.48 8.0766 361.519 7.83062 361.61 7.83928C361.704 7.85183 361.744 8.06813 361.829 7.99848C361.773 7.8726 361.704 7.73361 361.622 7.59604C361.545 7.69385 361.458 7.77901 361.375 7.8679C361.375 7.86776 361.375 7.86762 361.375 7.86749ZM344.696 1.69114C344.703 1.69378 344.73 1.69666 344.743 1.70036C344.77 1.70563 344.73 1.7027 344.864 1.71927C344.876 1.72148 344.911 1.72595 344.923 1.72902C344.926 1.77385 344.917 1.8376 345.152 1.75134C345.151 1.75131 345.151 1.75129 345.151 1.75126C345.073 1.70637 344.94 1.65562 344.943 1.63071C344.93 1.62725 344.89 1.62222 344.877 1.61974C344.688 1.6018 344.764 1.60902 344.722 1.60457C344.695 1.60248 344.691 1.60023 344.68 1.5982C344.659 1.59413 344.635 1.59074 344.607 1.58811C344.543 1.58306 344.518 1.57968 344.465 1.5803C344.352 1.58177 344.285 1.59513 344.187 1.62816C344.362 1.74823 344.48 1.64334 344.696 1.69114ZM359.308 4.83377C359.249 4.84558 359.276 4.91701 359.338 4.9995C359.378 5.06468 359.446 5.12613 359.5 5.11577C359.633 5.09172 359.568 4.92533 359.453 4.87046C359.403 4.84037 359.351 4.8257 359.308 4.83377ZM339.38 2.68074C339.188 2.97548 339.576 3.28768 339.973 3.13543C340.007 3.12211 339.745 3.03835 339.82 2.97967C339.828 2.97388 339.971 2.97636 340.004 2.93515C340.038 2.89385 339.998 2.80161 340.055 2.76067C340.154 2.68906 340.379 2.80912 340.456 2.71681C340.465 2.70446 340.319 2.58398 340.311 2.57948C340.166 2.50833 340.031 2.67586 340.009 2.67763C339.893 2.68679 339.907 2.55829 339.876 2.52911C339.819 2.47424 339.723 2.53382 339.717 2.52981C339.539 2.42296 339.94 2.44274 339.993 2.3949C340.134 2.26591 339.998 2.15423 340.34 2.07332C340.374 2.06566 340.772 2.06093 340.267 1.93306C341.24 1.60414 339.771 1.77826 339.612 1.84901C339.54 1.88176 339.655 2.00031 339.612 2.05658C339.515 2.18525 339.341 2.21277 339.362 2.38927C339.408 2.76031 339.627 2.50949 339.786 2.56726C339.772 2.64857 339.767 2.72759 339.74 2.80757C339.784 2.69978 339.394 2.65854 339.38 2.68C339.38 2.68025 339.38 2.68049 339.38 2.68074ZM341.847 2.1794C342.067 2.28508 342.044 2.05068 342.254 2.17877C342.427 1.96242 342.071 1.98735 342.03 1.97672C341.846 1.9291 341.843 1.69963 341.653 1.77606C341.724 1.90973 341.782 2.04522 341.847 2.1794ZM339.93 2.1413C340.074 2.01782 339.809 2.02799 339.798 2.0056C339.674 1.76793 340.465 1.79048 339.93 2.1413ZM352.449 2.82961C352.525 2.85136 352.496 2.73018 352.572 2.71038C352.649 2.68814 352.873 2.84496 352.887 2.77788C352.906 2.70503 352.455 2.40591 352.965 2.49311C352.958 2.44961 352.972 2.42273 352.973 2.38559C352.825 2.34267 352.69 2.31366 352.562 2.28951C352.612 2.41507 352.661 2.54777 352.703 2.67086C352.614 2.74456 352.6 2.62286 352.595 2.62193C352.595 2.62205 352.595 2.62216 352.595 2.62228C352.462 2.6057 352.281 2.7833 352.449 2.82961ZM346.557 2.12948C346.526 2.41384 346.713 2.10098 346.787 2.06809C346.861 2.03526 346.957 2.14419 346.923 2.02025C346.809 1.93156 346.561 2.09769 346.557 2.12984C346.557 2.12972 346.557 2.1296 346.557 2.12948ZM343.038 2.14285C343.227 2.06793 343.198 1.99463 343.418 2.07273C343.408 2.00406 343.397 1.9339 343.387 1.86628C343.213 1.87005 343.231 2.06973 343.014 1.99573C342.981 1.98342 343.047 1.82151 342.9 1.87734C342.946 1.9613 342.992 2.05468 343.038 2.14285ZM343.951 1.8602C343.726 1.87724 343.583 2.43949 343.971 2.17654C344.027 2.13728 344.109 1.84761 343.951 1.8602ZM350.48 2.61931C350.844 2.6563 350.435 2.5418 350.343 2.4528C351.203 2.43167 350.246 2.46833 350.173 2.18381C350.065 2.26088 349.865 2.44015 350.079 2.49715C350.167 2.52099 350.138 2.43504 350.143 2.43556C350.308 2.46312 350.282 2.60066 350.48 2.61931ZM341.463 2.20486C341.476 2.20026 341.452 2.10463 341.494 2.0841C341.535 2.06372 341.639 2.12799 341.647 2.06863C341.655 2.00889 341.453 1.9689 341.397 2.01396C341.339 2.0595 341.343 2.24562 341.463 2.20486ZM342.855 2.40004C343.03 2.32544 342.73 1.97952 342.688 1.98244C342.334 2.01168 342.866 2.2873 342.855 2.40004ZM349.623 3.19099C350.06 3.02302 349.753 2.70032 349.485 2.50637C349.448 2.54362 349.41 2.58094 349.374 2.61792C349.543 2.39021 349.836 2.16749 349.192 2.35523C349.541 2.41719 349.245 2.47309 349.244 2.48616C349.195 2.91044 349.717 2.72505 349.623 3.19098C349.623 3.19098 349.623 3.19098 349.623 3.19099ZM340.875 2.12138C340.691 2.12844 340.193 2.21729 340.432 2.39549C340.582 2.30407 340.729 2.21266 340.875 2.12138ZM356.384 4.7309C356.399 4.75248 356.413 4.7718 356.428 4.7893C356.523 4.89412 356.64 4.93678 356.788 4.98997C356.69 4.78465 356.799 4.80878 356.866 4.79489C356.967 4.77438 356.771 4.70055 356.774 4.69107C356.831 4.55618 356.966 4.58341 356.677 4.47567C356.766 4.4549 356.856 4.4347 356.946 4.41569C356.775 4.34275 356.727 4.26121 356.665 4.15084C356.646 4.11965 356.626 4.08644 356.601 4.05094C356.651 4.37191 356.518 4.13285 356.309 4.2163C356.205 4.25773 356.338 4.65595 356.385 4.73108C356.384 4.73102 356.384 4.73096 356.384 4.7309ZM350.066 3.26182C350.111 3.21198 350.155 3.14402 350.199 3.08699C350.247 3.08331 350.293 3.08039 350.34 3.07695C350.344 3.12265 350.346 3.17039 350.351 3.21438C350.412 3.23055 350.391 3.16617 350.409 3.16112C350.409 3.16136 350.409 3.1616 350.409 3.16185C350.672 3.0915 350.781 3.10894 350.966 3.26738C350.98 3.12868 350.993 2.98997 351.006 2.85127C350.958 2.86002 350.911 2.86878 350.863 2.87782C350.833 2.95045 350.801 3.02315 350.772 3.09601C350.723 3.05086 350.672 3.00631 350.622 2.96179C350.577 2.98595 350.524 3.01127 350.486 3.03552C350.292 2.63483 350.766 2.92614 350.781 2.76711C350.792 2.66165 350.294 2.63796 350.22 2.70847C350.21 2.71861 350.303 3.0125 350.13 2.85449C350.103 2.82974 350.114 2.2019 349.902 2.70342C349.872 2.77462 349.957 3.16707 350.066 3.26182ZM351.78 3.61812C351.566 3.1834 352.489 3.73977 352.115 3.35287C352.262 3.18821 352.242 3.18742 352.14 3.00725C352.131 2.99108 352.225 2.95352 352.219 2.94613C352.113 2.83914 351.964 2.86825 351.984 2.70536C351.951 2.70985 351.92 2.71371 351.887 2.71834C352 2.88868 351.776 2.96486 351.678 3.08437C351.634 3.13839 351.717 3.16714 351.679 3.21458C351.665 3.23189 351.551 3.17958 351.539 3.23266C351.513 3.35289 351.569 3.52665 351.684 3.63199C351.684 3.63211 351.684 3.63223 351.684 3.63235C351.716 3.62831 351.748 3.62248 351.78 3.61812ZM345.896 3.0004C345.896 2.79471 345.75 2.69363 346.008 2.6506L345.997 2.64935C346.022 2.64064 346.051 2.63183 346.084 2.62277C346.068 2.57861 346.05 2.53481 346.033 2.49065C346.023 2.49105 346.012 2.49144 346.001 2.49184L346.04 2.49619C345.989 2.48909 345.939 2.48248 345.888 2.47544C345.583 3.08105 345.381 2.30034 345.515 2.79299C345.53 2.84655 345.68 2.81603 345.518 2.92631C345.518 2.92646 345.518 2.92662 345.519 2.92677C345.718 2.91951 345.759 2.84774 345.896 3.0004ZM347.288 2.90044C347.766 2.4505 346.659 2.61747 346.839 2.74806C346.855 2.75961 347.332 2.67604 347.288 2.90044ZM343.632 3.095C343.839 3.09697 343.838 2.84505 343.817 2.75491C343.796 2.6645 343.659 2.76048 343.639 2.74674C343.577 2.70131 343.705 2.66633 343.624 2.60393C343.593 2.5838 343.236 2.50454 343.218 2.51594C343.127 2.57893 343.269 2.78262 343.243 2.8072C343.161 2.88768 343.031 2.78338 343.015 2.89443C342.967 3.13175 343.181 2.87773 343.218 2.87261C343.328 2.85811 343.322 2.99109 343.403 3.0153C343.48 3.03958 343.541 2.99229 343.614 2.99953C343.639 3.00195 343.621 3.09447 343.632 3.095ZM344.301 2.54359C344.092 2.74017 344.617 2.93289 344.682 2.88717C344.854 2.75054 344.393 2.44959 344.301 2.54359ZM351.169 2.93162C351.009 3.02057 351.228 3.13439 351.4 3.16911C351.454 3.17971 351.503 3.18209 351.536 3.17301C351.529 3.14843 351.478 3.09693 351.416 3.04706C351.327 2.97501 351.212 2.90805 351.169 2.93162ZM349.504 3.18725C349.685 3.14872 349.452 2.83125 349.301 2.83298C349.208 3.0357 349.293 2.99688 349.391 3.0075C349.489 3.01824 349.362 3.21742 349.504 3.18725ZM341.38 2.9352C341.414 2.93741 342.05 2.74878 341.681 2.6897C341.649 2.68543 341.215 2.7285 341.18 2.76108C341.114 2.82682 341.28 2.92915 341.38 2.9352ZM348.631 3.47231C348.73 3.2969 348.824 3.30095 348.74 3.09159C348.739 3.09159 348.739 3.09159 348.739 3.09159C348.983 3.03218 348.985 3.45767 349.038 3.44956C349.22 3.42123 349.053 3.1152 349.17 3.01815C348.902 3.10627 348.983 2.90377 348.779 2.88718C348.734 2.88355 348.55 3.00239 348.521 3.07789C348.493 3.15342 348.584 3.38263 348.631 3.47231ZM340.489 3.00669C340.706 3.06787 340.891 2.77515 340.594 2.73874C340.449 2.72081 340.356 2.96948 340.489 3.00669ZM359.984 7.6387C360.031 7.57093 360.076 7.50281 360.121 7.4337C360.178 7.4903 360.236 7.54758 360.294 7.6047C360.24 7.56446 360.187 7.52378 360.134 7.48322C360.19 7.62221 360.112 7.75422 359.984 7.63904C359.984 7.63893 359.984 7.63881 359.984 7.6387ZM361.667 12.4308C361.617 12.5191 361.869 12.5778 361.881 12.5574C361.972 12.4046 361.737 12.3104 361.667 12.4308ZM351.372 3.64294C351.593 3.69971 351.51 3.38925 351.383 3.29832C351.371 3.28907 351.358 3.28213 351.344 3.27811C351.418 3.35121 351.27 3.56222 351.341 3.62744C351.348 3.63429 351.359 3.63956 351.372 3.64294ZM361.281 10.6184C361.305 10.5906 361.33 10.5625 361.354 10.5319C361.332 10.6127 361.306 10.6322 361.281 10.6184ZM341.489 3.25411C341.522 3.28109 341.81 3.29544 341.844 3.25977C341.919 3.18465 341.698 2.98993 341.569 3.05585C341.553 3.06298 341.452 3.22723 341.49 3.25409C341.489 3.2541 341.489 3.25411 341.489 3.25411ZM360.054 8.00577C360.057 8.00344 360.06 8.0018 360.063 8.00081C360.06 8.00236 360.057 8.0043 360.054 8.00577ZM361.841 17.7574C361.847 17.7558 361.853 17.7549 361.858 17.755C361.853 17.7557 361.847 17.7569 361.841 17.7574ZM343.452 3.5046C343.553 3.84925 343.769 3.658 343.592 3.49132C343.583 3.48255 343.47 3.50476 343.452 3.5046Z" fill="#419DDF"/>
</svg>
