<svg width="365" height="18" viewBox="0 0 365 18" fill="none" xmlns="http://www.w3.org/2000/svg">
<path d="M221.855 14.5272C235.538 14.5195 250.519 14.4732 264.257 14.5334C265.944 14.5408 265.829 14.6415 266.302 14.6548C267.595 14.6915 268.374 14.5726 269.317 14.5814C273.9 14.6234 278.188 14.6405 282.685 14.6786C287.317 14.7178 285.126 15.031 286.735 15.1073C289.88 15.2567 287.205 14.8483 288.441 14.7566C292.046 14.7811 295.683 14.8253 299.294 14.8701C298.413 14.9083 297.531 14.9456 296.64 14.9809C298.214 14.9893 300.466 15.0523 297.83 15.1591C298.413 15.1885 298.957 15.2228 299.556 15.2515C299.72 15.1028 302.507 15.0909 302.761 15.0027C303.016 14.9145 301.449 14.9348 301.458 14.9271C301.562 14.8172 307.99 14.9674 308.453 14.9796C309.679 15.0122 308.604 15.1966 309.647 15.1847C311.44 15.1644 310.245 14.7893 312.672 15.288C313.638 15.126 313.722 15.2101 314.945 15.2213C315.106 15.2227 314.981 15.1289 315.052 15.1265C316.902 15.0569 315.48 15.2313 315.489 15.2407C315.657 15.4012 317.643 15.3299 318.062 15.3453C323.311 15.5371 327.158 15.6669 332.697 15.7113C333.895 15.7208 337.542 15.6556 338.701 15.6829C339.844 15.7099 339.231 15.8255 339.829 15.8811C340.787 15.6028 341.702 15.5722 343.855 15.7554C344.656 15.5525 344.553 15.7162 346.088 15.6756C347.366 15.642 349.593 15.3985 351 15.606C349.387 15.5871 349.554 15.6868 347.739 15.747C347.135 15.767 340.833 15.7712 341.302 15.9787C341.546 16.0868 343.635 15.9875 343.716 16.0074C344.185 16.1236 343.02 16.2664 341.986 16.2163C342.244 16.1929 342.554 16.1691 342.831 16.1456C340.51 16.0004 342.106 16.5582 340.342 16.0708C340.124 16.011 340.209 15.9486 339.849 15.8851C339.775 15.9114 340.215 15.9765 339.836 15.9882C339.45 15.9999 338.716 15.8762 338.607 15.9805C338.443 16.1321 340.044 16.0723 340.165 16.0812C340.166 16.0803 340.167 16.0794 340.169 16.0784C341.234 16.1589 339.009 16.1681 338.903 16.1825C338.215 16.2769 338.684 16.3496 337.652 16.4276C337.063 16.4721 335.562 16.4459 335.008 16.4602C334.458 16.4749 335.314 16.5466 334.944 16.562C334.574 16.5774 334.113 16.5229 333.678 16.5408C333.493 16.5487 333.502 16.6286 333.412 16.6314C332.447 16.6622 333.08 16.4959 332.204 16.506C331.637 16.5127 329.734 16.6678 331.046 16.714C330.415 16.7301 329.8 16.7419 329.172 16.7545C329.568 16.7783 329.977 16.7944 330.363 16.8224C329.182 16.7843 328.648 16.9212 327.908 16.9314C327.168 16.9415 326.504 16.7773 325.69 16.8574C323.952 17.0278 328.256 16.9491 328.79 16.9795C328.998 16.9915 328.199 17.1201 328.075 17.1238C327.528 17.1399 326.881 17.0479 326.46 17.052C324.95 17.0674 324.026 17.1888 322.587 17.2133C317.688 17.2966 311.61 17.3642 306.969 17.3908C305.24 17.4006 304.2 17.2641 303.424 17.2679C301.61 17.277 301.387 17.396 299.804 17.4023C297.448 17.4121 294.128 17.3082 292.162 17.2858C290.8 17.2705 289.568 17.3856 289.213 17.3884C284.292 17.4297 278.304 17.4271 274.226 17.4285C272.308 17.4292 271.397 17.2998 271.001 17.3036C269.298 17.3197 269.755 17.4303 268.375 17.4191C267.629 17.4132 267.489 17.307 267.39 17.3029C266.511 17.2679 266.336 17.4065 265.65 17.4111C261.707 17.4373 257.909 17.3466 254.005 17.3333C253.722 17.3322 253.747 17.2708 253.564 17.2739C252.776 17.289 253.142 17.3858 252.319 17.3928C250.606 17.4078 248.848 17.3918 247.032 17.3796C246.852 17.3784 246.772 17.2994 246.36 17.2994C245.948 17.2994 245.636 17.3743 244.989 17.3701C243.299 17.3592 241.632 17.2697 239.842 17.2648C239.546 17.2641 239.179 17.3592 238.735 17.3582C237.341 17.355 235.277 17.2687 234.083 17.2655C230.143 17.2557 226.508 17.3099 222.797 17.3106C221.925 17.3105 221.152 17.2224 220.699 17.2203C219.676 17.2158 220.447 17.299 219.411 17.2994C210.946 17.3015 202.447 17.2636 193.882 17.2703C190.518 17.2727 186.424 17.3589 183.173 17.3351C181.821 17.3249 181.576 17.2098 180.62 17.2088C178.915 17.2074 178.605 17.355 176.806 17.3697C175.371 17.3813 173.726 17.2339 172.232 17.243C170.739 17.2521 170.049 17.3952 168.334 17.4124C166.921 17.4264 164.948 17.3614 163.409 17.3719C149.311 17.4685 135.428 17.5273 121.242 17.4153C116.237 17.3758 110.683 17.3963 105.511 17.2556C105.025 17.2423 105.768 17.1041 104.21 17.1331C103.373 17.1489 102.205 17.268 100.271 17.2739C88.7696 17.3089 76.5019 17.0542 64.8076 17.1046C47.2906 17.1805 29.1363 18.1641 13.9142 16.7248C13.1676 16.6541 13.5725 16.3078 14.0198 16.2094C14.435 16.2797 14.8188 16.3632 15.2532 16.4426C15.8003 16.0099 15.7038 16.1226 17.7316 16.1614C18.98 16.1855 17.9828 16.0004 18.6482 15.9479C19.5109 15.88 23.5612 15.6662 22.7823 15.9528C23.0333 15.9031 23.2651 15.8555 23.5097 15.8069C26.442 15.7635 29.2909 15.6917 32.1589 15.6095C32.6543 15.5951 32.6771 15.5052 33.1888 15.4909C34.5632 15.4517 35.6543 15.5108 37.0705 15.5017C37.8398 15.4968 37.9466 15.3928 38.9541 15.3995C39.961 15.4062 39.9389 15.5465 41.3127 15.394C40.4179 15.218 44.4095 15.3457 45.8291 15.3349C46.0351 15.3335 47.7248 15.1753 48.6229 15.1935C49.5241 15.2113 50.8922 15.3124 52.2857 15.255C52.9392 15.2281 53.3357 15.1049 54.0406 15.0979C54.5362 15.093 55.1317 15.2025 55.7593 15.207C56.3867 15.2116 57.7443 15.1217 57.9931 15.1203C58.891 15.1143 57.9004 15.1913 58.5145 15.1951C61.479 15.2126 64.9233 15.2539 67.846 15.2021C68.2053 15.1958 67.7082 15.1051 67.7559 15.1021C70.1952 14.9909 68.8932 15.109 69.5519 15.1902C70.19 15.2687 74.8592 15.2259 74.8936 15.0682C75.037 15.2656 76.0749 15.1149 76.3445 15.1091C77.3937 15.0867 77.1879 15.2575 78.2049 15.2047C78.5781 15.1854 77.8515 15.07 78.2526 15.0734C79.2439 15.0818 80.1361 15.2672 81.4558 15.2858C81.7744 15.2903 81.878 15.2077 82.4445 15.2105C83.0117 15.2134 85.3892 15.3144 84.292 15.1402C85.734 15.2798 86.0242 15.2032 87.7012 15.207C88.1261 15.2082 88.673 15.3413 89.5771 15.3001C89.8828 15.2861 89.8738 15.1577 90.3341 15.1567C91.3865 15.1539 92.378 15.2868 93.7137 15.292C96.2115 15.3021 98.8705 15.2088 101.474 15.242C102.182 15.2511 102.006 15.3801 103.035 15.3826C103.186 15.3826 104.426 15.2711 105.137 15.2816C105.565 15.2879 107.784 15.3663 108.231 15.3726C108.971 15.3827 109.103 15.2579 109.508 15.2823C110.68 15.3526 109.74 15.5363 111.15 15.285C111.613 15.4243 112.437 15.4104 112.701 15.5819C113.181 15.394 113.803 15.5745 114.733 15.5115C115.663 15.4486 116.426 15.0846 116.651 15.4762C117.086 15.4286 118.937 15.3474 119.249 15.3414C120.169 15.3247 119.677 15.433 120.372 15.4183C120.494 15.4159 120.366 15.3418 121.151 15.3491C121.666 15.354 125.439 15.3586 125.665 15.3687C128.236 15.4847 124.264 15.4422 123.708 15.5224C123.61 15.5013 123.512 15.4802 123.408 15.4594C122.272 15.4244 122.918 15.5917 123.433 15.6306C123.948 15.6694 124.911 15.5949 125.339 15.6498C125.552 15.6774 125.42 15.878 124.775 15.8538C125.465 15.9156 124.523 15.9808 124.796 16.0389C125.096 16.1026 128.197 16.1222 128.214 16.0116C127.634 16.0078 126.913 16.0116 126.328 16.007C125.562 15.8149 127.889 15.1588 130.023 15.4209C131.571 15.6106 129.019 15.7614 132.681 15.6022C132.118 15.5945 131.642 15.5765 131.13 15.5685C131.075 15.4244 131.906 15.5828 132.334 15.537C132.539 15.5146 131.272 15.4126 132.372 15.3786C133.319 15.5847 134.047 15.3774 135.633 15.375C135.192 15.4117 134.751 15.4483 134.31 15.485C136.991 15.6344 130.763 15.6837 135.977 15.7673C135.35 15.774 134.726 15.7722 134.095 15.7824C134.401 15.858 133.911 16.0799 134.185 16.1268C134.903 16.2499 135.964 16.1757 136.84 16.1865C137.223 16.191 136.985 16.2509 137.017 16.2513C137.542 16.2579 137.426 16.1701 137.886 16.1645C138.466 16.1575 140.139 16.2429 140.41 16.2332C141.112 16.2083 139.943 16.035 140.011 16.022C140.458 15.9381 141.372 16.0077 141.324 15.8979C139.125 15.9735 132.789 15.8765 138.521 15.6948C136.941 15.5174 137.397 15.2728 139.67 15.2536C141.549 15.2375 140.336 15.3355 141.315 15.4433C141.441 15.4567 143.959 15.5083 144.088 15.4321C143.987 15.6076 144.807 15.763 144.257 15.944C144.176 15.9706 143.143 15.9601 143.504 16.1057C143.684 16.1789 144.201 16.338 144.118 16.4311C144.33 16.3664 144.552 16.2936 144.768 16.226C146.316 16.2071 146.536 16.2769 147.383 16.3976C147.344 16.3472 146.562 16.1355 147.75 16.1998C147.811 16.2037 147.863 16.2797 148.467 16.3174C149.687 16.393 149.941 16.4165 149.005 16.6397C151.531 16.5124 152.075 16.7611 154.666 16.6884C154.151 16.4015 153.24 16.4725 150.868 16.5278C150.765 16.4596 150.717 16.392 150.61 16.3231C153.768 16.4777 152.208 16.462 153.996 16.3234C154.434 16.2895 156.768 16.3258 155.989 16.1326C155.806 16.0872 154.355 16.0924 154.522 16.0208C154.554 16.0071 156.317 15.9724 156.472 15.9909C158.423 16.2194 154.937 16.3787 160.309 16.2954C160.457 16.293 160.509 16.2095 160.798 16.1978C161.342 16.1761 161.349 16.2729 161.835 16.2506C162.321 16.2282 162.994 16.098 163.725 16.2183C165.06 16.4374 161.909 16.5634 160.506 16.4472C159.936 16.7335 169.963 16.7398 170.584 16.7153C173.297 16.6086 168.783 16.6702 168.55 16.5908C168.453 16.5572 168.501 16.1314 167.359 16.4077C167.021 16.4896 168.434 16.5974 167.591 16.6426C166.747 16.6877 167.082 16.5624 167.02 16.5536C166.811 16.5236 165.914 16.5701 165.797 16.5523C164.008 16.2825 164.172 15.8748 166.544 16.4771C167.577 16.3409 165.206 16.124 166.49 16.0316C168.051 15.9193 169.19 16.1135 169.387 16.1222C171.739 16.2258 169.027 15.9423 171.9 16.0329C173.5 16.0832 169.506 16.2215 173.159 16.203C176.217 16.1872 174.566 16.0885 174.788 15.8642C174.84 15.8117 176.516 15.7474 174.234 15.7705C174.17 15.8289 174.048 15.9059 173.903 15.9598C173.344 15.9171 172.411 15.6247 172.114 15.6145C170.662 15.5658 170.732 15.7176 169.876 15.5388C170.487 15.7344 169.492 15.6166 169.119 15.6579C167.733 15.81 169.551 15.8666 166.439 15.671C166.844 15.7627 167.211 15.8527 167.604 15.944C167.23 15.9472 166.857 15.9504 166.484 15.9536C165.927 15.7517 163.944 15.7775 165.739 15.5742C163.58 15.5164 162.707 15.5605 162.234 15.7175C162.144 15.7475 161.819 15.7595 161.438 15.7624C161.51 15.8066 161.602 15.9431 161.542 15.9598C161.005 16.107 160.172 15.8527 160.456 15.7556C160.189 15.751 159.978 15.7455 159.903 15.7432C159.431 15.7281 160.357 15.6403 159.974 15.6102C159.848 15.6005 158.517 15.6196 158.491 15.5839C158.331 15.3551 160.521 15.5202 156.122 15.3872C156.016 15.5954 158.059 15.5497 157.534 15.7708C156.971 16.0084 155.822 15.6897 155.571 15.9812C155.478 15.9333 155.436 15.8933 155.356 15.8388C153.576 15.9658 153.553 15.723 153.009 15.6694C151.953 15.5648 147.099 15.5805 151.458 15.7908C150.82 15.8118 150.17 15.8215 149.535 15.84C149.391 15.4048 149.777 15.578 146.722 15.5115C146.05 15.4969 145.831 15.3054 145.171 15.5328C145.261 15.3098 143.271 15.4445 143.085 15.4174C141.894 15.2414 146.316 14.9964 146.883 15.3907C147.63 15.2372 147.627 15.4401 148.46 15.4132C149.664 15.3744 149.831 15.3349 151.261 15.4846C152.667 15.2736 145.754 15.3918 149.945 15.1118C154.137 14.8319 178.547 14.6757 184.242 14.6337C194.558 14.5578 199.982 14.5082 209.249 14.5208C210.163 14.5218 217.064 14.5016 215.63 14.7454C215.424 14.7804 212.456 14.8732 215.002 15.0646C214.484 14.9516 215.981 14.8782 216.106 14.8663C218.987 14.5961 217.319 14.53 221.855 14.5272ZM235.3 16.7021C229.38 16.6465 233.729 16.8095 232.499 17.1776C233.259 17.1787 234.016 17.1797 234.776 17.1807C234.576 17.1576 234.379 17.1346 234.18 17.1115C234.179 17.1115 234.178 17.1115 234.177 17.1115C234.55 16.9751 234.926 16.8386 235.3 16.7021ZM332.064 16.9486C331.833 16.997 331.605 17.0456 331.355 17.093C330.573 17.078 329.793 17.0632 329.011 17.0482C329.105 17.0153 329.195 16.982 329.288 16.9491C330.213 16.9505 331.136 16.952 332.064 16.9486ZM159.678 16.5005C158.571 16.3658 158.671 16.6062 157.2 16.4967C157.38 16.6741 157.58 16.8476 157.77 17.0233C158.89 16.997 159.144 16.9296 160.36 16.9729C160.219 16.9159 160.074 16.8585 159.936 16.8012C159.733 16.8134 159.518 16.8273 159.321 16.8382C159.009 16.6786 160.953 16.6548 159.682 16.5001C159.681 16.5003 159.679 16.5004 159.678 16.5005ZM148.332 16.5719C147.736 16.5488 145.377 16.462 145.055 16.5355C143.964 16.7846 150.62 16.6265 145.714 16.848C145.737 16.883 145.714 16.9173 145.714 16.9519C146.609 16.9641 147.501 16.9747 148.402 16.9845C148.354 16.8466 148.386 16.7105 148.332 16.5719ZM213.89 16.7175C212.975 16.6983 208.612 16.8155 210.035 16.9733C210.453 17.0195 212.401 16.7937 213.141 16.8035C213.621 16.8099 213.083 16.9336 214.03 16.8881C213.988 16.8336 213.962 16.7731 213.888 16.7179C213.889 16.7177 213.89 16.7176 213.89 16.7175ZM215.607 15.9973C214.66 16.0194 213.701 16.0473 212.749 16.0708C213.444 16.2118 214.812 16.1212 214.892 16.3196C214.631 16.3346 214.374 16.3496 214.113 16.3646C213.914 16.3213 213.717 16.2778 213.521 16.2345C212.703 16.3422 213.199 16.3958 211.676 16.3646C212.597 16.6646 212.768 16.8255 215.375 16.5221C214.882 16.6848 215.346 17.215 216.791 16.8361C217.062 16.7658 215.932 16.7188 215.92 16.7076C215.746 16.5684 216.372 16.4795 216.186 16.348C216.102 16.2885 215.414 16.2894 215.311 16.2068C215.263 16.1665 215.918 16.0516 215.607 15.9973ZM217.493 16.7034C217.2 16.7877 218.201 16.9879 219.07 16.9473C220.425 16.8843 218.288 16.6939 217.493 16.7034ZM332.069 16.9484C332.067 16.9484 332.066 16.9485 332.064 16.9486C332.065 16.9484 332.066 16.9482 332.067 16.948C332.067 16.9481 332.068 16.9483 332.069 16.9484ZM151.402 16.6695C150.701 16.7412 149.662 16.7308 149.739 16.8447C149.398 16.8223 149.053 16.8003 148.711 16.7779C148.715 16.8122 148.721 16.8465 148.724 16.8805C149.751 16.9018 150.775 16.9232 151.801 16.9449C151.673 16.8532 151.554 16.7612 151.402 16.6695ZM140.217 16.5897C138.926 16.5781 140.008 16.7332 139.725 16.8081C139.442 16.883 138.292 16.8221 138.427 16.9295C139.187 16.9337 139.979 16.9379 140.749 16.9418C140.546 16.8249 140.404 16.7059 140.214 16.5897C140.215 16.5897 140.216 16.5897 140.217 16.5897ZM259.458 16.8242C258.582 16.7906 258.939 16.6723 257.211 16.8109C257.212 16.8109 257.214 16.8109 257.215 16.8109C258.86 16.9078 260.977 16.9942 262.792 16.9004C261.682 16.7756 260.835 16.8767 259.458 16.8242ZM162.74 16.8497C163.109 16.7559 161.388 16.6776 161.008 16.7647C160.393 16.9057 162.176 16.9921 162.74 16.8497ZM294.818 15.9937C296.15 15.705 293.626 15.3809 290.984 15.5209C290.755 15.5331 292.461 15.6249 291.956 15.6813C291.905 15.6868 290.968 15.68 290.737 15.7201C290.505 15.7604 290.748 15.8538 290.368 15.893C289.702 15.9615 288.196 15.8345 287.697 15.9245C287.631 15.9365 288.565 16.0614 288.624 16.0662C289.583 16.1418 290.507 15.9785 290.655 15.9774C291.418 15.9718 291.303 16.0998 291.496 16.1299C291.86 16.1865 292.5 16.1299 292.545 16.1341C293.703 16.2464 291.058 16.2143 290.7 16.2605C289.738 16.385 290.629 16.5008 288.321 16.5712C288.102 16.5778 285.479 16.5703 288.785 16.7136C282.293 17.0125 292.046 16.8836 293.105 16.8178C293.594 16.7873 292.854 16.6653 293.15 16.6104C293.827 16.4848 294.979 16.4626 294.876 16.2855C294.653 15.9133 293.14 16.1572 292.097 16.0946C292.207 16.0137 292.249 15.9349 292.451 15.8558C292.139 15.9622 294.721 16.0154 294.818 15.9944C294.818 15.9942 294.818 15.9939 294.818 15.9937ZM278.385 16.419C276.926 16.3067 277.03 16.5417 275.694 16.4073C274.516 16.6183 276.839 16.6042 277.11 16.616C278.346 16.6692 278.317 16.8987 279.582 16.8281C279.147 16.6923 278.793 16.5551 278.385 16.419ZM291.067 16.5159C290.092 16.6349 291.837 16.6329 291.908 16.6556C292.679 16.8969 287.453 16.85 291.067 16.5159ZM208.21 16.2447C207.715 16.2367 208.029 16.3506 207.592 16.3842C207.155 16.4182 205.658 16.3207 205.696 16.3916C205.734 16.4626 208.476 16.6468 205.724 16.6867C205.817 16.7266 205.786 16.7563 205.831 16.7924C206.587 16.7934 207.351 16.7952 208.107 16.7962C207.692 16.6815 207.267 16.5607 206.867 16.4498C207.292 16.3584 207.531 16.4756 207.554 16.4756C207.554 16.4755 207.554 16.4754 207.554 16.4752C208.345 16.466 209.323 16.2626 208.21 16.2447ZM247.219 16.6023C247.367 16.3171 246.199 16.6356 245.719 16.671C245.24 16.7062 244.581 16.6006 244.828 16.7233C245.604 16.808 247.203 16.6341 247.219 16.6019C247.219 16.6021 247.219 16.6022 247.219 16.6023ZM270.463 16.4196C269.241 16.4888 269.435 16.563 267.939 16.4784C267.997 16.5473 268.055 16.6177 268.113 16.6856C269.301 16.687 269.217 16.4869 270.592 16.5673C270.817 16.5806 270.334 16.7405 271.351 16.6891C271.055 16.6038 270.755 16.5091 270.463 16.4196ZM264.405 16.6752C265.809 16.6647 266.922 16.1068 264.337 16.3584C263.954 16.396 263.35 16.6832 264.405 16.6752ZM221.156 16.2306C218.768 16.2145 221.48 16.3046 222.102 16.3903C216.544 16.4588 222.729 16.3668 223.284 16.6519C223.963 16.5707 225.234 16.3851 223.822 16.3353C223.233 16.3147 223.448 16.3996 223.413 16.3992C222.328 16.3782 222.459 16.2394 221.156 16.2306ZM280.918 16.4053C280.828 16.4095 280.969 16.5058 280.683 16.525C280.396 16.5441 279.747 16.4767 279.682 16.5358C279.618 16.5953 280.92 16.6414 281.32 16.5981C281.719 16.5544 281.733 16.3682 280.918 16.4053ZM271.757 16.168C270.564 16.2373 272.514 16.5921 272.774 16.5904C275.053 16.5719 271.689 16.2803 271.757 16.168ZM226.699 15.628C223.822 15.8082 225.927 16.1214 227.729 16.309C227.967 16.2709 228.212 16.2327 228.447 16.1949C227.365 16.4266 225.47 16.6556 229.686 16.4536C227.378 16.3991 229.311 16.3369 229.326 16.3238C229.58 15.8983 226.161 16.0959 226.702 15.628C226.701 15.628 226.7 15.628 226.699 15.628ZM284.797 16.5067C286.05 16.5053 289.306 16.4318 287.787 16.2464C286.789 16.3331 285.795 16.42 284.797 16.5067ZM179.587 15.6529C178.564 15.5469 177.62 15.5487 176.358 15.5557C177.495 15.71 176.748 15.7277 176.365 15.7655C175.784 15.8224 177.191 15.8177 177.195 15.8281C177.17 15.9748 176.272 15.9975 178.315 15.994C177.81 16.0451 177.312 16.0966 176.806 16.1473C178.364 16.154 178.731 16.2496 179.719 16.3665C178.76 16.0809 180.022 16.2597 181.168 16.1176C181.74 16.0465 180.108 15.7071 179.584 15.6529C179.585 15.6529 179.586 15.6529 179.587 15.6529ZM223.725 15.5707C223.429 15.6221 223.158 15.6917 222.872 15.7505C222.56 15.7561 222.247 15.761 221.935 15.7666C221.896 15.7211 221.864 15.6736 221.819 15.6298C221.407 15.6166 221.568 15.6799 221.445 15.6859C221.445 15.6856 221.445 15.6854 221.445 15.6851C219.692 15.7691 218.974 15.7596 217.6 15.619C217.6 15.7584 217.6 15.8977 217.6 16.0371C217.908 16.0238 218.22 16.0108 218.529 15.9979C218.693 15.923 218.858 15.8481 219.022 15.7732C219.38 15.8145 219.734 15.8555 220.091 15.8968C220.377 15.8699 220.721 15.8415 220.969 15.8153C222.395 16.2048 219.154 15.9402 219.125 16.1019C219.106 16.2058 222.37 16.2013 222.84 16.1295C222.907 16.119 222.202 15.829 223.396 15.9801C223.583 16.0039 223.648 16.6314 224.936 16.1233C225.119 16.0512 224.478 15.6614 223.725 15.5707ZM211.876 15.3684C213.71 15.7697 206.939 15.3453 209.861 15.6756C209.027 15.86 209.182 15.8576 210.022 16.0213C210.096 16.036 209.515 16.0867 209.565 16.0931C210.35 16.1834 211.296 16.1355 211.303 16.2996C211.515 16.2909 211.715 16.2831 211.927 16.2744C211.043 16.1197 212.449 16.0158 212.993 15.8853C213.241 15.8262 212.671 15.8079 212.88 15.7562C212.957 15.7373 213.752 15.775 213.785 15.7208C213.853 15.5984 213.353 15.4328 212.506 15.3425C212.506 15.3424 212.506 15.3423 212.506 15.3422C212.294 15.3502 212.088 15.36 211.876 15.3684ZM251.089 15.7018C251.401 15.9237 252.653 15.9872 250.248 16.0957C250.367 16.1394 250.49 16.1827 250.609 16.2264C251.014 16.2225 251.407 16.2187 251.819 16.2152C253.055 15.5616 255.311 16.2992 253.866 15.8356C253.708 15.7853 252.747 15.8416 253.696 15.7047C253.695 15.7046 253.694 15.7045 253.692 15.7044C252.367 15.7464 252.2 15.825 251.089 15.7018ZM242.215 15.8565C239.157 16.3234 246.44 16.117 245.223 15.9931C245.114 15.9819 241.976 16.0822 242.215 15.8565ZM266.752 15.4502C265.381 15.4422 265.291 15.694 265.429 15.7847C265.567 15.8757 266.517 15.7838 266.639 15.7981C267.038 15.8454 266.192 15.8766 266.71 15.9413C266.882 15.9623 269.269 16.0521 269.379 16.0413C269.986 15.981 269.098 15.7732 269.272 15.7494C269.838 15.6714 270.608 15.7795 270.772 15.669C271.126 15.4332 269.692 15.6807 269.45 15.6848C268.719 15.696 268.783 15.5632 268.236 15.5366C267.689 15.5101 267.331 15.5556 266.849 15.5462C266.688 15.543 266.822 15.451 266.752 15.4502ZM262.219 15.9821C263.651 15.7915 260.165 15.5841 259.751 15.6287C258.534 15.7614 261.534 16.0731 262.219 15.9821ZM216.469 15.9741C217.779 15.8359 214.728 15.724 213.856 15.7796C214.018 15.8371 216.019 16.0217 216.469 15.9741ZM227.498 15.6287C226.294 15.6718 227.89 15.9832 228.895 15.9783C229.483 15.7736 228.929 15.8142 228.273 15.8058C227.617 15.7973 228.437 15.5952 227.498 15.6287ZM281.623 15.6778C281.363 15.6746 277.177 15.8437 279.582 15.914C279.765 15.9193 282.696 15.8895 282.918 15.858C283.365 15.7943 282.292 15.6869 281.623 15.6778ZM233.272 15.3264C232.635 15.5035 232.008 15.5011 232.593 15.7089C232.594 15.7089 232.595 15.7089 232.596 15.7089C230.983 15.7726 230.912 15.3474 230.564 15.3565C229.349 15.3884 230.5 15.691 229.738 15.7904C231.511 15.697 231.003 15.9011 232.351 15.914C232.654 15.9168 233.865 15.7949 234.042 15.719C234.219 15.643 233.6 15.4153 233.272 15.3264ZM287.536 15.6337C286.123 15.5659 284.829 15.8528 286.789 15.8983C287.745 15.9207 288.399 15.675 287.536 15.6337ZM146.294 15.5619C146.509 15.6371 146.731 15.712 146.963 15.7866C146.442 15.8048 145.92 15.8233 145.399 15.8419C145.811 15.8181 146.223 15.7946 146.639 15.7712C145.66 15.7449 145.213 15.6081 146.291 15.5619C146.292 15.5619 146.293 15.5619 146.294 15.5619ZM111.456 15.5046C111.018 15.4322 110.156 15.6565 110.265 15.674C111.089 15.8044 112.064 15.605 111.456 15.5046ZM214.534 15.2927C212.907 15.2614 214.026 15.6261 215.023 15.6511C214.413 15.5813 215.458 15.3106 214.534 15.2927ZM123.708 15.5224C123.854 15.5537 124.001 15.5851 124.165 15.6165C123.65 15.5729 123.561 15.5435 123.708 15.5224ZM280.957 15.3557C280.708 15.3277 278.871 15.3046 278.623 15.3392C278.108 15.412 279.541 15.6134 280.384 15.5515C280.477 15.5448 281.204 15.3837 280.953 15.3557C280.954 15.3557 280.956 15.3557 280.957 15.3557ZM144.092 15.4222C144.095 15.4257 144.093 15.429 144.088 15.4321C144.09 15.4288 144.09 15.4255 144.092 15.4222ZM74.8794 15.0516C74.8894 15.0572 74.8947 15.0629 74.8936 15.0682C74.8897 15.063 74.8819 15.0574 74.8794 15.0516ZM267.997 15.0461C267.386 14.6986 265.976 14.8834 267.09 15.0552C267.152 15.0643 267.849 15.0454 267.997 15.0461ZM10.7378 13.8088C10.8543 13.8671 11.2316 13.9607 11.6355 14.0413C12.1592 14.1535 12.5881 14.3069 12.9441 14.4241C13.0268 14.4582 13.3946 14.5235 13.7227 14.581C13.8611 14.6057 13.8404 14.7046 13.8785 14.7228C13.9453 14.7546 14.0032 14.7224 14.0577 14.6996C14.0866 14.6861 14.1131 14.6755 14.1393 14.682C14.4782 14.7679 14.7738 14.8044 15.1366 14.8576C15.5074 14.9108 15.3207 15.2169 15.4505 15.2977C15.7051 15.4546 15.4971 15.04 15.6006 14.9513C15.8965 14.984 16.1966 15.0343 16.4991 15.0845C16.4226 15.1213 16.3522 15.1573 16.2748 15.1912C16.4058 15.2021 16.594 15.2685 16.371 15.3712C16.4181 15.4014 16.4654 15.4367 16.5138 15.4662C16.5293 15.3178 16.7629 15.3098 16.786 15.2219C16.8086 15.1341 16.6771 15.1522 16.6786 15.1445C16.6823 15.1071 16.7454 15.1009 16.8329 15.1097C17.0131 15.1265 17.2576 15.2028 17.2835 15.2117C17.3865 15.2478 17.2895 15.4289 17.3779 15.4201C17.5305 15.4052 17.4434 15.0267 17.6299 15.5325C17.7173 15.3736 17.7215 15.458 17.8235 15.473C17.8371 15.4749 17.83 15.3807 17.8361 15.3785C17.9938 15.3147 17.8679 15.4846 17.8685 15.494C17.877 15.655 18.0455 15.5898 18.0805 15.6064C18.5129 15.8138 18.8313 15.9543 19.2945 16.0109C19.3022 16.0118 19.3111 16.0123 19.321 16.0125C19.3313 16.0117 19.3612 16.0172 19.3714 16.0182C19.4882 16.0416 19.7553 16.0369 19.838 16.076C19.9263 16.1182 19.8569 16.2238 19.8974 16.2868C20.0212 16.0249 20.0951 16.0062 20.2459 16.2119C20.3387 16.0197 20.3068 16.1805 20.4414 16.1572C20.4868 16.1505 20.5399 16.1119 20.6317 16.0918L20.6009 16.0866C20.6525 16.0331 20.7351 15.9899 20.8095 16.1178C20.6829 16.0984 20.6916 16.1956 20.5804 16.2459L20.5995 16.249C20.5943 16.2496 20.589 16.2502 20.5836 16.2508C20.5011 16.2546 20.0008 16.1953 20.0036 16.4024C20.0074 16.5127 20.1967 16.4397 20.2003 16.46C20.2244 16.5805 20.1059 16.7087 20.0256 16.6461C20.0505 16.6261 20.0804 16.6064 20.1071 16.5865C19.9337 16.4143 19.9824 16.9856 19.9096 16.4809C19.9008 16.4189 19.9174 16.3585 19.8984 16.291C19.8881 16.316 19.9137 16.3861 19.8807 16.3926C19.8461 16.3989 19.8066 16.2667 19.7801 16.3679C19.7405 16.5151 19.8848 16.4787 19.893 16.4888C19.8932 16.4879 19.8935 16.487 19.8937 16.4861C19.9705 16.58 19.7824 16.559 19.7706 16.5712C19.6974 16.6545 19.7241 16.733 19.6228 16.7944C19.5649 16.8294 19.4414 16.7798 19.3921 16.7848C19.3423 16.7901 19.4019 16.8747 19.3673 16.8837C19.332 16.8925 19.3041 16.8315 19.2635 16.8416C19.2463 16.8462 19.2313 16.9248 19.2231 16.926C19.2061 16.9286 19.1954 16.925 19.1888 16.9176L19.2976 16.93C19.266 16.9041 19.2924 16.7975 19.2323 16.8042C19.1845 16.8097 19.0192 16.9603 19.1287 17.0095C19.0753 17.0241 19.0221 17.0344 18.9692 17.0455C19.0018 17.0703 19.0359 17.0874 19.0681 17.1163C18.9689 17.0754 18.9196 17.2109 18.8568 17.2192C18.7933 17.2274 18.7422 17.0616 18.6711 17.1395C18.5181 17.3052 18.8859 17.2379 18.93 17.2695C18.9474 17.282 18.8757 17.4086 18.8653 17.412C18.8179 17.4267 18.7665 17.333 18.7301 17.336C18.6017 17.3475 18.5192 17.4663 18.3963 17.4866C17.9784 17.5562 17.4589 17.6028 17.0817 17.6176C16.9418 17.6231 16.8643 17.4849 16.8051 17.4877C16.8016 17.4879 16.7983 17.4882 16.7951 17.4885C16.6491 17.5003 16.6285 17.6131 16.4967 17.617C16.2963 17.6234 16.0179 17.514 15.8496 17.4876C15.7326 17.4695 15.624 17.5819 15.5944 17.5839C15.1713 17.614 14.6401 17.5922 14.2455 17.5571C14.0617 17.5411 13.9904 17.4018 13.9537 17.4016C13.7957 17.3991 13.8235 17.5137 13.702 17.487C13.7002 17.4866 13.6985 17.4861 13.6968 17.4856C13.643 17.4676 13.6447 17.3665 13.6374 17.3615C13.5706 17.3177 13.5388 17.4535 13.4817 17.4509C13.1484 17.4338 12.8305 17.3127 12.3927 17.203C12.3599 17.1944 12.377 17.1353 12.3551 17.1333C12.2581 17.1247 12.2794 17.2305 12.1711 17.208C12.133 17.1997 12.0937 17.1896 12.053 17.1774C11.9273 17.1418 11.8117 17.0896 11.6983 17.0416C11.6849 17.0359 11.7033 16.9588 11.672 16.9485C11.6407 16.9383 11.5941 17.0018 11.5479 16.9827C11.4279 16.9329 11.3377 16.8117 11.2212 16.7751C11.2019 16.7692 11.154 16.8549 11.1269 16.847C11.0941 16.8374 11.0591 16.8152 11.025 16.791C10.9437 16.7461 10.8588 16.6925 10.7943 16.6755C10.4486 16.5829 10.0897 16.5578 9.6475 16.3704C9.54264 16.3248 9.48422 16.1961 9.42835 16.1629C9.41629 16.1559 9.40587 16.1504 9.39677 16.1465C9.35849 16.1361 9.35336 16.2111 9.30611 16.1859C9.05566 16.0494 8.84248 15.987 8.30265 15.7891C8.0004 15.67 7.7119 15.5479 7.41618 15.4229C7.13637 15.3046 6.75848 15.2246 6.48608 15.054C6.37237 14.9822 6.40659 14.8693 6.32237 14.8207C6.17086 14.7314 6.06886 14.8447 5.87654 14.7346C5.78259 14.6787 5.70743 14.5638 5.60891 14.4242C5.58015 14.3636 5.54962 14.3071 5.50363 14.2694C5.38961 14.1752 5.23926 14.2295 5.10297 14.115C4.99055 14.0203 4.90111 13.8261 4.79322 13.7153C4.55029 13.4674 4.34058 13.2206 4.15434 12.998C3.79165 12.5388 3.58517 12.1786 3.43153 11.9876C3.10137 11.5563 2.93784 11.1366 2.82694 10.8377C2.74488 10.6239 2.68692 10.4164 2.64525 10.2279C2.58319 9.93064 2.49408 9.60608 2.52582 9.62222C2.41909 9.35191 2.37847 9.12233 2.37207 8.9091C2.37139 8.85714 2.52372 8.89158 2.45494 8.74872C2.41869 8.67364 2.27428 8.5881 2.22997 8.42111C2.21476 8.36395 2.20115 8.30843 2.1895 8.25906C2.09301 7.85016 2.07281 7.4676 2.04493 7.20433C2.03156 6.98257 1.90002 6.54638 1.87189 6.02048C1.86577 5.79566 1.84724 5.58874 1.80303 5.39551C1.74389 5.1361 1.62779 4.89859 1.48646 4.6753C0.832638 3.54652 0.317475 2.26302 1.29057 1.13813C1.35135 1.06429 1.69919 1.04977 1.80203 1.07358C1.73748 1.11868 1.65943 1.16264 1.58601 1.20978C2.0207 1.19166 1.90841 1.2031 1.89435 1.3755C1.88588 1.4839 2.05671 1.37328 2.1169 1.42151C2.1942 1.48178 2.45643 1.78811 2.16329 1.76588C2.21558 1.77927 2.26553 1.79113 2.31665 1.80364C2.39676 2.04087 2.50459 2.26361 2.62616 2.48487C2.64733 2.52288 2.73602 2.50798 2.75761 2.54791C2.81564 2.65096 2.77384 2.75033 2.80483 2.86107C2.82155 2.9202 2.92527 2.90933 2.93506 2.98882C2.94501 3.06766 2.80768 3.09757 2.9805 3.16978C3.13588 3.06275 3.08232 3.39239 3.12428 3.4971C3.12982 3.51268 3.31765 3.59565 3.32067 3.66819C3.32375 3.74092 3.25974 3.87614 3.34917 3.96821C3.38074 4.00096 3.45975 4.0045 3.50811 4.02801C3.52481 4.03748 3.53803 4.04916 3.54476 4.06477C3.56371 4.10883 3.47549 4.19504 3.48744 4.25291C3.49972 4.31055 3.61994 4.4121 3.62718 4.43539C3.65407 4.51712 3.55627 4.44434 3.56678 4.50196C3.61892 4.77977 3.63575 5.10503 3.72129 5.36392C3.73182 5.39588 3.81577 5.33868 3.81931 5.34255C3.95822 5.55307 3.82556 5.44784 3.75225 5.51719C3.7093 5.55785 3.72438 5.72464 3.77544 5.84425C3.80584 5.88994 3.85612 5.92211 3.91745 5.91287C3.72333 5.95083 3.88251 5.98478 3.89138 5.99763C3.92599 6.05243 3.75693 6.07925 3.8246 6.13258C3.84941 6.15192 3.94937 6.07684 3.95258 6.10313C3.96036 6.16719 3.79956 6.27989 3.81279 6.39015C3.81595 6.41698 3.89755 6.40148 3.90882 6.44976C3.92004 6.49486 3.88338 6.74451 4.02348 6.59582C3.99151 6.65287 3.97847 6.6927 3.97682 6.72648C3.97247 6.79237 4.01678 6.83246 4.03632 6.93675C4.04342 6.97618 3.92316 7.05199 3.97884 7.12258C3.99769 7.14643 4.12362 7.1217 4.13218 7.16127C4.15201 7.25132 4.03625 7.35745 4.05129 7.46453C4.06766 7.58238 4.12044 7.6921 4.16499 7.80067C4.1994 7.89096 4.22612 7.9752 4.23228 8.06073C4.23626 8.1168 4.10749 8.13391 4.12436 8.21235C4.12726 8.22439 4.25867 8.28789 4.26249 8.33959C4.26414 8.37198 4.23545 8.54499 4.24037 8.5751C4.24769 8.62631 4.36763 8.58998 4.35376 8.62194C4.31445 8.71256 4.12559 8.73785 4.38833 8.7111C4.36186 8.72959 4.34323 8.74595 4.32848 8.7611C4.29345 8.84325 4.29587 8.90806 4.18037 8.97625C4.37457 8.95693 4.22747 9.08096 4.31317 9.14406C4.39921 9.20807 4.76793 9.17536 4.39679 9.30158C4.45349 9.32653 4.57341 9.45427 4.58573 9.47541C4.62204 9.54133 4.50711 9.53364 4.53653 9.58232C4.54158 9.59066 4.60979 9.56074 4.62004 9.62022C4.62558 9.66299 4.70954 9.92054 4.7075 9.93581C4.66755 10.1453 4.60219 9.8734 4.51444 9.85662C4.53192 9.84278 4.54955 9.82909 4.56672 9.81499C4.57309 9.7239 4.4291 9.82136 4.40533 9.87215C4.38149 9.92301 4.47662 9.96642 4.43706 10.016C4.41725 10.041 4.22651 10.1049 4.23063 10.0468C4.19255 10.1213 4.10428 10.0717 4.05773 10.113C4.0291 10.1386 4.04066 10.2311 4.07801 10.2992C4.10644 10.3511 4.14836 10.3886 4.19313 10.3697C4.18211 10.3378 4.16561 10.3021 4.15143 10.2676C4.14502 10.2519 4.13922 10.2366 4.1347 10.222C4.2047 10.1609 4.38599 10.1165 4.54167 10.0996C4.72986 10.0874 4.88531 10.1246 4.79228 10.263C4.6704 10.4489 4.44931 10.3409 4.7164 10.5222C4.70388 10.4812 4.70402 10.4409 4.69439 10.4021C4.82249 10.3361 4.70701 10.4615 4.76263 10.4694C4.78906 10.4722 4.83954 10.3453 4.9051 10.4002C4.75272 10.5542 4.96109 10.5063 5.0145 10.5872C4.96865 10.5834 4.92228 10.5772 4.87529 10.5691C4.84475 10.8119 4.56687 10.4379 4.69661 10.8185C4.66514 10.7821 4.64197 10.7401 4.60904 10.7025C4.55539 10.7611 4.3424 10.8354 4.31306 10.8788C4.23745 10.9952 4.35235 11.041 4.3883 11.1113C4.40455 11.1425 4.34318 11.1592 4.34453 11.1618C4.36769 11.2058 4.4325 11.1455 4.46184 11.1754C4.46528 11.1789 4.46862 11.1836 4.47189 11.1891C4.49998 11.2376 4.50831 11.3694 4.52647 11.3806C4.57927 11.4133 4.66771 11.2364 4.68093 11.233C4.77155 11.2157 4.75749 11.3191 4.84626 11.2545C4.78553 11.213 4.71678 11.1222 4.66906 11.0378C4.59576 10.8991 4.61382 10.791 4.8329 10.912C4.84459 10.9192 4.8568 10.9271 4.86953 10.9357C4.87558 10.9113 4.8834 10.888 4.89278 10.8661C4.95184 10.764 5.0528 10.6981 5.1347 10.6804C5.189 10.6831 5.2447 10.7101 5.29043 10.7639C5.40841 10.9045 5.26092 10.8643 5.22314 11.0002C5.22002 11.0183 5.29849 11.2339 5.36777 11.2019C5.21515 11.2889 5.12116 11.4309 4.94323 11.4884C4.91717 11.4968 4.87915 11.4178 4.77289 11.5219C4.7195 11.5741 4.60806 11.6955 4.52575 11.7395C4.58971 11.7195 4.66108 11.6961 4.72778 11.6753C4.81268 11.7746 4.76338 11.8276 4.69969 11.953C4.7405 11.9232 4.88429 11.7543 4.8836 11.8738C4.88316 11.8803 4.82113 11.9245 4.81728 11.9886C4.81036 12.1179 4.80458 12.1516 4.57145 12.2023C4.74922 12.2957 4.6843 12.4247 4.74696 12.5593C4.76165 12.5934 4.78601 12.6264 4.82946 12.6571C4.94723 12.5375 4.96261 12.4807 4.92288 12.429C4.89034 12.3866 4.82843 12.3451 4.75768 12.2819C4.80901 12.2359 4.86266 12.1947 4.91471 12.1485C4.93762 12.3906 4.91198 12.3828 4.98349 12.3842C5.00619 12.3838 5.03929 12.3841 5.08833 12.3936C5.13736 12.4031 5.22758 12.584 5.34224 12.4149C5.3691 12.3751 5.29187 12.2803 5.35773 12.2487C5.37032 12.2429 5.4868 12.3407 5.47994 12.3622C5.39861 12.6316 5.0876 12.492 5.4392 12.8071C5.44915 12.8156 5.51716 12.7669 5.54179 12.779C5.58801 12.8017 5.5134 12.8633 5.55748 12.8817C5.60189 12.9004 5.73799 12.8604 5.68781 12.9864C5.60024 13.2203 5.3179 13.0867 5.33142 12.9153C5.06038 13.0535 5.681 13.7656 5.75139 13.7772C6.00682 13.8742 5.66193 13.6288 5.70544 13.556C5.72296 13.5257 6.03153 13.2331 5.76223 13.3511C5.68129 13.3849 5.69288 13.5532 5.60662 13.5284C5.51989 13.5026 5.63267 13.4391 5.63512 13.429C5.64371 13.3946 5.55404 13.366 5.5601 13.346C5.65363 13.0458 5.96537 12.7851 5.66144 13.3451C5.8229 13.319 5.84191 13.0201 5.98491 13.0387C6.15554 13.0577 6.08432 13.2603 6.09063 13.2791C6.16225 13.4943 6.19355 13.1305 6.3065 13.3634C6.37225 13.4934 6.02609 13.3606 6.27032 13.5614C6.29523 13.5815 6.31637 13.5962 6.33515 13.6071C6.48535 13.6915 6.4554 13.5358 6.59501 13.3956C6.63221 13.358 6.7641 13.3815 6.62434 13.2979C6.60009 13.322 6.5705 13.3499 6.54115 13.3753C6.51982 13.393 6.49872 13.4096 6.48001 13.423C6.47269 13.3594 6.61436 13.0925 6.60473 13.0695C6.5547 12.9558 6.45306 13.0679 6.52991 12.8931C6.42715 13.0663 6.45358 12.9272 6.40372 12.9354C6.21852 12.9635 6.27545 13.1061 6.2466 12.7907C6.20119 12.8766 6.15612 12.9601 6.11267 13.0468C6.08888 13.0265 6.06519 13.006 6.04176 12.9853C6.15749 12.8137 6.0346 12.7147 6.28068 12.6845C6.21036 12.5205 6.13522 12.4967 5.98944 12.5677C5.96175 12.5813 5.93563 12.5686 5.91373 12.5463C5.88321 12.5788 5.7825 12.6712 5.76638 12.6779C5.62338 12.7358 5.77784 12.5216 5.86858 12.4797C5.85858 12.4598 5.85212 12.4428 5.85019 12.4366C5.83813 12.3971 5.95366 12.4016 5.95794 12.3585C5.95925 12.3447 5.87783 12.2716 5.90482 12.2479C6.0781 12.0973 6.05416 12.3394 5.94473 11.9758C5.77289 12.0941 5.91061 12.1997 5.70883 12.2997C5.49121 12.4063 5.68794 12.1377 5.44222 12.2958C5.47589 12.2608 5.50583 12.2341 5.5455 12.1961C5.37509 12.1572 5.51114 12.0363 5.5537 11.9621C5.55907 11.9534 5.56311 11.9455 5.56512 11.9384C5.60263 11.8174 5.37635 11.5008 5.39558 11.9092C5.34916 11.8788 5.31159 11.8398 5.26753 11.8061C5.62572 11.5579 5.49836 11.683 5.42 11.434C5.40261 11.3787 5.5549 11.2612 5.33247 11.3346C5.52581 11.2228 5.31924 11.1484 5.33253 11.1196C5.42346 10.9344 5.84191 11.1361 5.52943 11.381C5.6921 11.3512 5.52026 11.4593 5.57912 11.5017C5.66393 11.5618 5.70256 11.5495 5.63941 11.7235C5.87276 11.6959 5.48474 11.3175 5.89456 11.4344C5.95659 11.4504 6.0354 11.4969 6.11721 11.5449C6.47383 11.8201 6.90634 12.2264 7.31979 12.4992C7.37115 12.5011 7.70527 12.6631 7.8104 12.6978C8.38166 12.9149 8.79405 13.0332 9.26029 13.2017C9.33512 13.2278 9.43606 13.2604 9.5815 13.3094C9.63348 13.3158 10.3805 13.5833 10.1304 13.7502C10.0921 13.7701 9.76731 13.7402 9.94335 14.0175C9.93569 13.8917 10.1121 13.8864 10.1299 13.882C10.4815 13.7841 10.4267 13.6657 10.7163 13.8024C10.7201 13.8017 10.7261 13.8036 10.7378 13.8088ZM11.0243 16.1501C10.5316 15.9784 10.8658 16.2237 10.6737 16.5568C10.7417 16.5743 10.8082 16.5907 10.8737 16.6068C10.8616 16.5803 10.8496 16.5539 10.8374 16.5274C10.8373 16.5274 10.8373 16.5274 10.8372 16.5274C10.9003 16.4019 10.9628 16.2761 11.0243 16.1501ZM19.2088 17.2463C19.1881 17.2942 19.1674 17.3423 19.1447 17.3891C19.0787 17.3723 19.0127 17.3557 18.9469 17.3387C18.9558 17.3061 18.9646 17.273 18.9734 17.2404C19.0514 17.244 19.13 17.2477 19.2088 17.2463ZM5.24418 12.8912C5.29022 12.7316 5.10539 12.8858 5.1143 12.717C4.98259 12.8369 4.8553 12.9562 4.72633 13.0767C4.8093 13.1415 4.87634 13.1181 4.91269 13.2334C4.94899 13.1875 4.98556 13.1414 5.02268 13.0958C5.00162 13.089 4.97852 13.0821 4.95899 13.0748C5.06731 12.9546 5.19379 13.0761 5.24468 12.8912C5.24451 12.8912 5.24434 12.8912 5.24418 12.8912ZM4.59638 12.1156C4.5869 12.0581 4.55463 11.843 4.47867 11.8604C4.2176 11.9132 4.65298 12.3088 4.24309 12.0729C4.21448 12.0931 4.18448 12.1097 4.15516 12.1281C4.18436 12.1977 4.21634 12.2687 4.2519 12.3427C4.3658 12.2649 4.48211 12.1941 4.59638 12.1156ZM9.23609 15.5144C9.18839 15.472 8.83427 15.4788 8.88871 15.663C8.90579 15.7168 9.11147 15.5482 9.15664 15.5762C9.18528 15.5938 9.10753 15.6964 9.18268 15.6768C9.20005 15.625 9.22052 15.5681 9.23579 15.5147C9.23589 15.5146 9.23599 15.5145 9.23609 15.5144ZM9.63153 14.8984C9.54959 14.887 9.4648 14.8836 9.38269 14.8785C9.38768 15.03 9.52305 14.9868 9.45284 15.1727C9.42859 15.179 9.4044 15.1853 9.3803 15.192C9.38188 15.146 9.38349 15.1 9.38421 15.0538C9.28513 15.1319 9.30489 15.1955 9.2025 15.1263C9.17368 15.4349 9.11923 15.5824 9.4079 15.3735C9.31376 15.5107 9.13202 16.0079 9.37003 15.7003C9.41638 15.6441 9.36627 15.5696 9.36956 15.559C9.41404 15.4265 9.49174 15.3637 9.53308 15.2382C9.55157 15.1812 9.50214 15.1606 9.52679 15.0814C9.53851 15.0426 9.63371 14.9584 9.63153 14.8984ZM9.46937 15.6004C9.41594 15.6683 9.38653 15.8759 9.45286 15.8652C9.56062 15.8512 9.52535 15.616 9.46937 15.6004ZM19.2093 17.2461C19.2091 17.2462 19.209 17.2462 19.2088 17.2463C19.2089 17.2461 19.209 17.2459 19.209 17.2457C19.2091 17.2459 19.2092 17.246 19.2093 17.2461ZM4.66856 12.4028C4.57122 12.388 4.52725 12.3016 4.43582 12.37C4.43716 12.3312 4.4386 12.2928 4.44093 12.2549C4.41223 12.2736 4.38363 12.2927 4.35523 12.3112C4.38746 12.401 4.4228 12.4941 4.46428 12.5916C4.5321 12.5286 4.60114 12.4666 4.66856 12.4028ZM4.22517 11.5717C4.1801 11.4878 4.09923 11.6421 4.0263 11.6687C3.95397 11.6957 3.95887 11.6 3.87827 11.6719C3.90311 11.7118 3.93001 11.7568 3.95709 11.8032C4.04555 11.7255 4.13778 11.6496 4.22506 11.5716C4.22509 11.5716 4.22513 11.5717 4.22517 11.5717ZM13.0224 16.7991C12.9481 16.754 13.0008 16.6432 12.8198 16.7542C12.8199 16.7542 12.82 16.7542 12.8201 16.7542C12.9575 16.8757 13.1368 16.9871 13.304 16.9139C13.2246 16.7778 13.1382 16.8687 13.0224 16.7991ZM5.14934 13.3279C5.24269 13.2935 5.20145 13.1218 5.11249 13.1497C4.96649 13.1936 5.00531 13.3786 5.14934 13.3279ZM16.102 16.2007C16.2204 15.9143 16.0143 15.5863 15.7916 15.7208C15.7717 15.7326 15.9129 15.8278 15.8691 15.8831C15.8643 15.8885 15.786 15.8798 15.7665 15.9195C15.7459 15.9592 15.7642 16.0531 15.7308 16.0915C15.6727 16.1586 15.5499 16.0283 15.5059 16.1169C15.5008 16.1288 15.5742 16.2559 15.5794 16.2608C15.6598 16.3386 15.7396 16.1772 15.7533 16.1765C15.8165 16.1724 15.8041 16.3002 15.8195 16.3307C15.8489 16.388 15.905 16.3327 15.9081 16.3369C16.0029 16.4514 15.7798 16.4142 15.7501 16.4596C15.664 16.582 15.7384 16.6999 15.5398 16.7649C15.5228 16.771 15.2971 16.757 15.5753 16.9084C15.0133 17.1909 15.85 17.0865 15.9398 17.0215C15.982 16.992 15.9218 16.8686 15.9482 16.8142C16.0099 16.6899 16.1053 16.6698 16.1009 16.4926C16.0901 16.12 15.9568 16.3612 15.8716 16.2965C15.8829 16.2159 15.8883 16.1372 15.9067 16.0585C15.8774 16.1643 16.0937 16.2223 16.102 16.2014C16.102 16.2011 16.102 16.2009 16.102 16.2007ZM14.6964 16.5782C14.5779 16.4583 14.5707 16.6934 14.4642 16.5506C14.3438 16.7528 14.5506 16.7548 14.5728 16.7678C14.6773 16.828 14.6622 17.0569 14.7775 16.9925C14.747 16.8549 14.723 16.7162 14.6964 16.5782ZM15.7743 16.7157C15.6901 16.8326 15.8357 16.8342 15.8422 16.857C15.9016 17.1 15.4588 17.042 15.7743 16.7157ZM8.97026 14.9238C8.93276 14.9033 8.92337 15.02 8.87741 15.0405C8.83136 15.0616 8.73663 14.927 8.71662 14.9948C8.69552 15.0632 8.87567 15.3173 8.62295 15.2747C8.6183 15.3153 8.60585 15.3425 8.59823 15.3779C8.66635 15.4024 8.73186 15.4254 8.79341 15.4463C8.7945 15.3261 8.79588 15.1996 8.7971 15.0833C8.86101 15.0081 8.84417 15.1258 8.84613 15.1264C8.84617 15.1263 8.84621 15.1262 8.84625 15.1261C8.91442 15.1384 9.05375 14.9693 8.97026 14.9238ZM11.9557 16.308C12.0565 16.0409 11.8648 16.3131 11.8173 16.335C11.7695 16.3565 11.7512 16.2398 11.7328 16.3628C11.7656 16.462 11.9441 16.3376 11.9558 16.3076C11.9558 16.3077 11.9558 16.3078 11.9557 16.308ZM14.0087 16.5179C13.9059 16.5688 13.9019 16.6356 13.815 16.5727C13.8065 16.5663 13.7971 16.5586 13.7867 16.5493C13.7827 16.6183 13.7784 16.6888 13.7745 16.7567C13.7803 16.7576 13.7858 16.7576 13.7911 16.757C13.8783 16.7482 13.8995 16.5775 14.0024 16.666C14.0206 16.6815 13.9594 16.8354 14.0551 16.7946C14.0385 16.7069 14.0233 16.6098 14.0087 16.5179ZM13.4689 16.7077C13.5878 16.712 13.7495 16.17 13.5025 16.3927C13.4659 16.426 13.3791 16.7046 13.4689 16.7077ZM9.94144 15.315C9.91572 15.2992 9.89661 15.2883 9.8832 15.2823C9.85334 15.2697 9.85344 15.2867 9.86384 15.3167C9.886 15.3658 9.94308 15.4454 9.95342 15.4988C9.88215 15.4756 9.83011 15.4547 9.79444 15.44C9.72064 15.4141 9.7407 15.426 9.77943 15.4667C9.8552 15.5362 9.98514 15.6475 9.95865 15.7871C10.0583 15.7409 10.2333 15.608 10.1277 15.5141C10.0841 15.4743 10.0704 15.5602 10.0675 15.5587C9.97815 15.4978 10.0465 15.3774 9.94144 15.315ZM14.9151 16.5762C14.907 16.58 14.9147 16.6768 14.8888 16.6948C14.8628 16.7127 14.8109 16.6425 14.8018 16.7012C14.7932 16.7603 14.9045 16.8122 14.9402 16.7703C14.9767 16.7282 14.9855 16.5423 14.9151 16.5762ZM14.148 16.2806C14.0382 16.3382 14.1669 16.7095 14.1916 16.71C14.3942 16.7113 14.1273 16.3921 14.148 16.2806ZM10.5925 14.929C10.3263 15.0291 10.3668 15.3769 10.4736 15.6049C10.5049 15.5745 10.5362 15.5439 10.5662 15.5132C10.4116 15.7086 10.1759 15.8804 10.6025 15.7918C10.4173 15.684 10.6016 15.6707 10.6056 15.6581C10.7379 15.2547 10.4066 15.3623 10.5927 14.929C10.5926 14.929 10.5925 14.929 10.5925 14.929ZM15.2419 16.691C15.3491 16.6936 15.6272 16.6279 15.5043 16.4389C15.4162 16.5231 15.3309 16.6073 15.2419 16.691ZM7.02021 13.4271C7.00571 13.2952 6.94583 13.2605 6.87005 13.2163C6.84959 13.3894 6.79628 13.3746 6.75001 13.3884C6.68057 13.4093 6.77323 13.468 6.76809 13.4764C6.68641 13.5976 6.6087 13.5758 6.75556 13.6655C6.69261 13.6865 6.62849 13.7063 6.56342 13.7235C6.67388 13.8052 6.65019 13.9011 6.66792 14.0477C6.73981 13.7583 6.74631 13.971 6.90206 13.8949C6.9783 13.856 7.02488 13.4934 7.01995 13.4269C7.02004 13.427 7.02012 13.427 7.02021 13.4271ZM10.4038 14.801C10.3652 14.841 10.3204 14.8977 10.2771 14.943C10.2534 14.9388 10.23 14.9336 10.2065 14.9286C10.2235 14.8863 10.242 14.8424 10.2582 14.8017C10.2387 14.7775 10.2205 14.839 10.2102 14.8405C10.2103 14.8403 10.2104 14.8401 10.2105 14.8399C10.1793 14.8441 10.1527 14.8452 10.1305 14.8431C10.0278 14.8243 9.99055 14.7715 9.94923 14.628C9.88841 14.7534 9.82759 14.8787 9.76677 15.0041C9.79574 15.0034 9.8248 15.0034 9.85399 15.0037C9.90044 14.9434 9.94731 14.8833 9.9951 14.8238C10.0041 14.8751 10.0122 14.9261 10.0189 14.977C10.0329 14.9723 10.0477 14.9679 10.0626 14.9637C10.0829 14.9562 10.1031 14.9485 10.1202 14.9398C10.0771 15.1522 10.028 15.1517 9.97413 15.1208C9.93006 15.0952 9.88605 15.0529 9.85007 15.1189C9.82875 15.1585 9.86037 15.2029 9.9079 15.2385C9.98077 15.2916 10.0863 15.3179 10.1237 15.2896C10.1327 15.2819 10.1949 14.9934 10.226 15.1707C10.2279 15.1969 10.0093 15.787 10.297 15.3516C10.3359 15.289 10.4173 14.9043 10.4038 14.801ZM9.5465 14.1912C9.56864 14.6216 9.1379 14.0313 9.27756 14.4249C9.15255 14.5782 9.167 14.5803 9.18339 14.7578C9.18471 14.7736 9.12282 14.8068 9.1248 14.8142C9.15944 14.9202 9.24813 14.8996 9.19552 15.0552C9.21438 15.0524 9.23223 15.0503 9.25105 15.0477C9.23421 14.8781 9.37599 14.817 9.46616 14.7116C9.50698 14.6637 9.46667 14.6293 9.50164 14.5871C9.51469 14.5716 9.5673 14.6319 9.58953 14.5825C9.63987 14.4708 9.65678 14.2993 9.61118 14.1868C9.61122 14.1866 9.61126 14.1865 9.6113 14.1864C9.58962 14.1871 9.56797 14.1898 9.5465 14.1912ZM12.5454 15.5541C12.5332 15.6149 12.5306 15.666 12.5283 15.7089C12.5231 15.7796 12.5221 15.8289 12.4785 15.8627C12.4537 15.8819 12.4155 15.8962 12.3561 15.9066C12.352 15.9512 12.3483 15.9956 12.3443 16.0403C12.3685 16.0453 12.3922 16.0502 12.4162 16.0552C12.4268 16.0575 12.4376 16.0598 12.4485 16.0621C12.7297 15.4663 12.7225 16.2164 12.7148 15.7404C12.7137 15.6885 12.6288 15.7256 12.7318 15.6099C12.7317 15.6097 12.7317 15.6096 12.7316 15.6095C12.6385 15.6247 12.5987 15.6801 12.5638 15.5994C12.5577 15.5874 12.5517 15.5725 12.5454 15.5541ZM11.7837 15.4712C11.4069 15.8454 12.0441 15.8234 11.9865 15.6773C11.9808 15.663 11.7005 15.6812 11.7837 15.4712ZM13.8174 15.5168C13.703 15.4943 13.6646 15.7434 13.6648 15.8348C13.6651 15.9265 13.7559 15.8453 13.7644 15.8608C13.7918 15.9118 13.7172 15.9339 13.7524 16.0036C13.759 16.0164 13.8221 16.0585 13.8774 16.0911C13.9202 16.1162 13.9581 16.1354 13.9627 16.1312C14.0207 16.0777 13.9728 15.8623 13.9902 15.8405C14.0462 15.7689 14.0962 15.8838 14.1225 15.7756C14.1786 15.5448 14.0337 15.7769 14.0128 15.7782C13.9544 15.7815 13.9717 15.6637 13.9379 15.6242C13.936 15.6221 13.934 15.6202 13.9318 15.6185C13.8889 15.5862 13.853 15.6275 13.8135 15.613C13.8004 15.6082 13.8231 15.5184 13.8174 15.5168ZM13.3726 15.9969C13.5153 15.8231 13.2548 15.5802 13.217 15.6193C13.0982 15.7364 13.3023 16.0801 13.3726 15.9969ZM9.70757 14.9067C9.86993 14.8287 9.66928 14.6143 9.5741 14.6396C9.56905 14.6984 9.65529 14.934 9.70757 14.9067ZM10.6512 14.948C10.5483 14.9612 10.5767 15.2967 10.6621 15.3152C10.7641 15.1311 10.7087 15.1581 10.66 15.1353C10.6117 15.1123 10.731 14.9369 10.6512 14.948ZM15.0075 15.8522C14.9874 15.8487 14.6303 15.9986 14.8263 16.0798C14.842 16.0863 15.0873 16.0678 15.1079 16.0368C15.1481 15.9746 15.0625 15.8638 15.0075 15.8522ZM11.1674 14.7714C11.0771 14.932 11.0277 14.9175 11.0254 15.1308C11.0254 15.1308 11.0255 15.1308 11.0256 15.1308C10.881 15.1613 10.9813 14.7473 10.953 14.7496C10.8538 14.7565 10.8638 15.0722 10.779 15.1525C10.9425 15.0989 10.8514 15.2859 10.9578 15.3255C10.9818 15.3343 11.108 15.2388 11.1392 15.168C11.1705 15.0972 11.1724 14.8639 11.1674 14.7714ZM15.5008 15.8258C15.3869 15.7546 15.2666 16.0377 15.4305 16.0884C15.5092 16.1133 15.5729 15.8692 15.5008 15.8258ZM5.3583 11.4304C5.3042 11.4857 5.25062 11.5413 5.19784 11.5974C5.15924 11.5702 5.12021 11.5428 5.0811 11.5154C5.11975 11.5322 5.15807 11.5492 5.19642 11.5662C5.17502 11.4827 5.27077 11.3779 5.35819 11.4303C5.35823 11.4303 5.35827 11.4304 5.3583 11.4304ZM4.19692 8.82011C4.25161 8.7672 4.02321 8.80308 4.00947 8.81533C3.95317 8.87678 4.00219 8.89931 4.06551 8.88672C4.11062 8.88453 4.16164 8.8664 4.18898 8.82774C4.19176 8.82525 4.19441 8.8227 4.19692 8.82011ZM9.81282 14.2105C9.67498 14.1225 9.64785 14.5027 9.71963 14.5597C9.69352 14.4734 9.8898 14.2614 9.81282 14.2105ZM4.51444 9.85662C4.4884 9.87722 4.46254 9.89822 4.43716 9.92051C4.46505 9.8688 4.49087 9.85322 4.51444 9.85662ZM14.9681 15.5279C14.9476 15.4991 14.8027 15.4683 14.7798 15.5015C14.7338 15.5717 14.8386 15.7796 14.9114 15.7211C14.9192 15.7149 14.9872 15.5569 14.9678 15.5279C14.9679 15.5279 14.968 15.5279 14.9681 15.5279ZM5.3763 11.1969C5.37349 11.1989 5.3706 11.2006 5.36777 11.2019C5.37061 11.2003 5.37342 11.1984 5.3763 11.1969ZM3.9338 5.90959C3.92829 5.91096 3.92278 5.9121 3.91745 5.91287C3.92265 5.91186 3.92809 5.91061 3.9338 5.90959ZM13.9742 15.1294C13.9656 14.7779 13.8221 14.9461 13.8955 15.1286C13.8996 15.1382 13.9616 15.127 13.9742 15.1294ZM345.058 17.7019C343.179 17.669 341.119 17.667 339.245 17.5634C339.011 17.5506 339.032 17.4503 338.967 17.4355C338.792 17.3947 338.683 17.511 338.554 17.4993C337.925 17.4426 337.34 17.4119 336.725 17.3593C336.091 17.3053 336.399 16.9992 336.18 16.9178C335.753 16.7584 336.11 17.1752 335.938 17.2629C335.444 17.2268 334.951 17.171 334.454 17.1146C334.576 17.0793 334.698 17.0448 334.822 17.0124C334.605 16.9989 334.298 16.9286 334.662 16.8304C334.582 16.7991 334.509 16.763 334.427 16.7324C334.401 16.8805 334.022 16.8836 333.984 16.9709C333.948 17.0583 334.162 17.043 334.16 17.0507C334.147 17.1603 333.263 16.9893 333.205 16.9757C333.036 16.9391 333.189 16.7583 333.044 16.7668C332.797 16.7813 332.951 17.1601 332.632 16.6538C332.497 16.8127 332.493 16.7284 332.321 16.7132C332.298 16.7112 332.313 16.8054 332.304 16.8076C332.045 16.8712 332.247 16.7015 332.245 16.692C332.225 16.531 331.951 16.5959 331.895 16.5792C331.177 16.3705 330.661 16.2285 329.898 16.1661C329.747 16.1531 329.228 16.2061 329.08 16.1753C328.917 16.1445 329.008 16.031 328.925 15.9735C328.783 16.2485 328.672 16.2765 328.37 16.0861C328.255 16.2865 328.291 16.1235 328.062 16.1588C327.907 16.1888 327.548 16.424 327.407 16.2134C327.498 16.2249 327.54 16.2056 327.61 16.1771C327.662 16.1482 327.702 16.1091 327.843 16.0823C327.906 16.0638 328.807 16.0806 328.728 15.8712C328.708 15.7626 328.4 15.8548 328.395 15.8347C328.334 15.7171 328.492 15.5779 328.646 15.6316C328.608 15.6541 328.561 15.6768 328.521 15.6994C328.847 15.8522 328.63 15.2892 328.859 15.7822C328.887 15.8427 328.874 15.9047 328.922 15.9694C328.933 15.9434 328.874 15.8768 328.926 15.8664C328.98 15.8559 329.082 15.982 329.101 15.8782C329.127 15.7271 328.898 15.7815 328.883 15.7723C328.883 15.7732 328.883 15.7741 328.883 15.775C328.738 15.6912 329.044 15.6891 329.063 15.6752C329.164 15.5831 329.101 15.5089 329.239 15.4341C329.317 15.3915 329.522 15.4225 329.602 15.41C329.681 15.3972 329.561 15.3226 329.614 15.3085C329.668 15.2943 329.73 15.3503 329.787 15.3338C329.811 15.3265 329.812 15.2465 329.824 15.244C329.954 15.2163 329.865 15.3806 329.984 15.3732C330.061 15.3683 330.332 15.2195 330.149 15.169C330.237 15.155 330.328 15.1454 330.409 15.1347C330.357 15.1096 330.303 15.0922 330.248 15.0629C330.414 15.1049 330.481 14.9696 330.583 14.9618C330.684 14.954 330.772 15.1204 330.888 15.043C331.135 14.8783 330.531 14.9429 330.465 14.9109C330.438 14.8983 330.548 14.7722 330.565 14.7689C330.639 14.7545 330.726 14.8486 330.785 14.8459C330.999 14.8355 331.121 14.7169 331.318 14.697C331.997 14.6297 332.823 14.5815 333.463 14.57C333.698 14.5657 333.839 14.7055 333.946 14.7042C334.198 14.701 334.226 14.5827 334.444 14.5814C334.767 14.5792 335.219 14.6937 335.488 14.7224C335.674 14.7422 335.846 14.6311 335.894 14.6294C336.569 14.6039 337.387 14.6256 337.948 14.6373C338.21 14.6427 338.33 14.7749 338.385 14.7724C338.62 14.7618 338.56 14.6497 338.749 14.6653C338.851 14.6736 338.867 14.7802 338.881 14.7847C339 14.8224 339.027 14.6844 339.12 14.682C339.664 14.6684 340.183 14.7712 340.712 14.7968C340.75 14.7987 340.745 14.86 340.77 14.8574C340.881 14.8449 340.832 14.747 340.946 14.7426C341.186 14.7331 341.413 14.7544 341.669 14.7725C341.694 14.7743 341.704 14.8535 341.761 14.8548C341.818 14.8561 341.863 14.7823 341.951 14.7885C342.175 14.8045 342.41 14.8994 342.653 14.9099C342.693 14.9115 342.745 14.8175 342.804 14.8199C342.989 14.8273 343.285 14.9204 343.438 14.927C343.988 14.9492 344.473 14.906 344.979 14.9162C345.112 14.9191 345.213 15.0093 345.269 15.0126C345.399 15.0198 345.307 14.9346 345.451 14.9372C345.515 14.9383 345.54 14.9389 345.621 14.9404C345.653 14.941 345.68 14.9416 345.702 14.942C345.712 14.9422 345.721 14.9424 345.742 14.9427C345.749 14.9428 345.754 14.9428 345.751 14.9429C345.727 14.9455 345.806 14.9341 345.596 14.9534L345.501 14.9692C345.844 14.9086 345.985 14.9566 346.082 14.9695C346.177 14.9882 346.225 15.0028 346.264 15.0134C346.336 15.0344 346.366 15.0437 346.392 15.0508C346.44 15.0642 346.462 15.0687 346.493 15.0731C346.551 15.0811 346.632 15.0811 346.74 15.0622C346.785 15.0561 346.917 15.0352 346.962 15.037C347.585 15.0304 348.205 15.0166 348.845 14.9895C349.037 14.9818 349.245 14.9591 349.473 14.9393C349.771 14.9119 350.066 14.8824 350.327 14.8907C350.509 14.8967 350.545 15.0109 350.672 15.0085C350.901 15.0034 350.937 14.8548 351.171 14.8309C351.355 14.8118 351.572 14.948 351.751 14.9242C351.932 14.8998 351.992 14.7495 352.204 14.7056C352.218 14.7027 352.233 14.7001 352.249 14.6979C352.35 14.6838 352.544 14.698 352.728 14.6438C353.009 14.5885 353.188 14.4176 354.038 14.4758C353.775 14.4311 353.539 14.4976 353.431 14.5455C353.316 14.5956 353.281 14.6263 353.267 14.6334C353.244 14.6477 353.3 14.5896 353.37 14.5049C353.443 14.4184 353.537 14.303 353.692 14.1493C353.862 14.0064 354.036 13.757 354.684 13.5797C354.981 13.5082 355.23 13.4597 355.446 13.4094C355.645 13.3694 355.881 13.2789 355.778 13.3254C355.901 13.2569 355.984 13.2064 356.142 13.0979C356.288 12.9936 356.669 12.7496 356.998 12.6453C356.943 12.6779 356.994 12.6794 357.094 12.5938C357.308 12.433 357.428 12.1167 358.103 11.4932C358.306 11.3386 358.507 11.1978 358.712 11.0755C358.766 11.0429 358.792 11.209 358.917 11.0514C358.982 10.9669 359.008 10.7788 359.161 10.6125C359.282 10.4792 359.399 10.3477 359.479 10.2468C359.766 9.88258 359.978 9.73457 360.166 9.57606C360.347 9.43223 360.514 9.29126 360.545 9.27021C360.557 9.27895 360.648 9.15013 360.719 9.02231C360.795 8.88821 360.87 8.73711 360.959 8.55472C361.139 8.17344 361.401 7.75363 361.512 7.53073C361.628 7.29247 361.732 7.12315 361.808 6.97604C361.886 6.83596 361.936 6.67426 361.894 6.74637C361.904 6.69693 361.906 6.66468 361.936 6.55813C361.948 6.52243 361.943 6.51145 362.007 6.37282C362.021 6.34757 362.048 6.2813 362.137 6.16579C362.16 6.13682 362.188 6.10437 362.224 6.06803C362.26 6.03076 362.373 5.92248 362.534 5.84449C362.695 5.76252 362.954 5.69727 363.216 5.73999C363.482 5.77941 363.697 5.91505 363.82 6.03069C363.945 6.14535 364.014 6.2611 364.045 6.31497C364.07 6.36095 364.088 6.39988 364.103 6.43373C364.131 6.5013 364.145 6.54929 364.155 6.58825C364.17 6.64471 364.176 6.67868 364.181 6.70866C364.205 6.88007 364.198 6.87275 364.202 6.90813C364.204 6.93217 364.206 6.94645 364.208 6.93857C364.208 6.93226 364.21 6.92668 364.205 6.8777C364.201 6.85098 364.203 6.81919 364.169 6.69573C364.156 6.65127 364.138 6.5946 364.097 6.51147C364.074 6.46671 364.057 6.43186 364.003 6.35474C363.933 6.25821 363.822 6.12551 363.616 6.01089C363.421 5.89285 363.085 5.84215 362.889 5.8805C362.671 5.91309 362.51 5.99798 362.403 6.07144C362.172 6.24451 362.178 6.27974 362.131 6.33156C361.993 6.53276 362.017 6.52716 361.992 6.57331C361.979 6.60455 361.975 6.61457 361.97 6.62766C361.962 6.64901 361.96 6.65443 361.958 6.65821C361.954 6.66403 361.954 6.65822 361.954 6.64959C362.037 6.19351 362.075 5.94424 362.035 5.81475C362.011 5.2197 362.05 4.50599 362.227 3.86117C362.502 2.86895 362.725 1.90851 363.586 0.971165C363.671 0.878703 364.005 0.983946 364.094 1.05913C364.016 1.1061 363.926 1.14281 363.839 1.19217C364.256 1.32891 364.147 1.2994 364.068 1.56763C364.019 1.73276 364.222 1.62575 364.261 1.72252C364.311 1.8483 364.435 2.4344 364.169 2.28141C364.212 2.3242 364.254 2.36343 364.297 2.40408C364.273 2.80989 364.274 3.21091 364.252 3.62977C364.248 3.70158 364.334 3.72809 364.329 3.80321C364.314 4.00551 364.212 4.13773 364.161 4.32832C364.144 4.39313 364.174 4.43395 364.187 4.48879C364.196 4.51911 364.199 4.55282 364.183 4.59725C364.142 4.71415 364.006 4.67709 364.112 4.88035C364.307 4.81595 364.072 5.25843 364.062 5.44049C364.059 5.46692 364.188 5.69551 364.158 5.80704C364.144 5.86094 364.109 5.92749 364.082 6.00425C364.049 6.12238 364.016 6.24637 364.019 6.37383C364.022 6.48769 364.125 6.58343 364.102 6.69325C364.085 6.76998 363.955 6.82275 363.928 6.90084C363.905 6.96362 363.927 7.08627 363.939 7.14062C363.939 7.17021 363.938 7.19181 363.934 7.2067C363.919 7.29948 363.797 7.50379 363.844 7.36242C363.853 7.31847 363.849 7.29921 363.84 7.29971C363.835 7.30286 363.833 7.30083 363.814 7.33895C363.801 7.36414 363.807 7.35957 363.752 7.45192C363.738 7.47485 363.719 7.50268 363.689 7.5395C363.666 7.5586 363.613 7.66521 363.375 7.77501C363.252 7.82473 363.097 7.86554 362.877 7.81814C362.671 7.77112 362.527 7.652 362.451 7.56397C362.311 7.38871 362.327 7.36869 362.297 7.30424C362.239 7.11965 362.257 7.12628 362.249 7.08619C362.247 7.06076 362.246 7.04297 362.246 7.02962C362.245 7.00245 362.245 6.98618 362.246 6.97283C362.25 6.96595 362.235 6.87173 362.261 7.04418C362.266 7.06268 362.268 7.08058 362.286 7.1342C362.325 7.20117 362.256 7.19807 362.509 7.47102C362.628 7.59216 362.931 7.71527 363.175 7.66255C363.418 7.61852 363.545 7.49713 363.602 7.44297C363.675 7.36952 363.703 7.32086 363.725 7.28496C363.781 7.18367 363.775 7.17812 363.782 7.16181C363.79 7.13677 363.788 7.13975 363.787 7.14088C363.784 7.14645 363.778 7.16296 363.773 7.18224C363.581 7.77963 363.348 7.99661 363.268 8.25867C363.255 8.29614 363.361 8.29096 363.361 8.29709C363.355 8.35578 363.354 8.38909 363.351 8.40928C363.304 8.55607 363.277 8.41077 363.182 8.45777C363.053 8.53904 362.813 9.07611 362.963 9.1431C362.777 9.07329 362.86 9.25177 362.853 9.28314C362.844 9.3195 362.825 9.3375 362.803 9.34861C362.749 9.37672 362.675 9.35995 362.67 9.4659C362.668 9.52113 362.814 9.47335 362.789 9.5233C362.726 9.64846 362.506 9.69522 362.402 9.8697C362.377 9.91223 362.445 9.96266 362.4 10.0441C362.367 10.1197 362.035 10.4524 362.297 10.3666C362.229 10.4086 362.176 10.4469 362.13 10.4865C361.999 10.5916 361.97 10.6858 361.82 10.8286C361.769 10.8756 361.617 10.8358 361.549 10.9521C361.526 10.9914 361.613 11.0864 361.566 11.1294C361.462 11.2264 361.277 11.2127 361.173 11.3109C361.127 11.3536 361.092 11.3991 361.077 11.4304C360.898 11.7041 360.725 11.9577 360.502 12.1473C360.422 12.2142 360.349 12.1049 360.242 12.2061C360.226 12.2212 360.175 12.4249 360.094 12.4862C360.045 12.5242 359.761 12.6768 359.711 12.7131C359.628 12.7745 359.697 12.8796 359.639 12.899C359.475 12.9532 359.447 12.7404 359.467 13.028C359.469 13.0327 359.471 13.0376 359.473 13.0427C359.36 12.9563 359.311 13.0282 359.162 12.9396C359.27 13.1024 359.085 13.043 359.06 13.1788C359.037 13.3132 359.264 13.6176 358.932 13.4073C358.936 13.4827 358.831 13.7492 358.802 13.792C358.721 13.9137 358.689 13.7841 358.628 13.8763C358.616 13.8925 358.687 13.9265 358.593 14.0167C358.555 14.0813 357.998 14.5133 357.924 14.5078C357.404 14.6185 358.154 14.325 358.152 14.1819C358.178 14.1883 358.205 14.1945 358.232 14.1992C358.408 14.0981 358.21 14.047 358.122 14.0681C358.035 14.09 357.94 14.2435 357.846 14.2312C357.8 14.2242 357.727 14.0382 357.82 14.0094C357.701 14.0098 357.784 13.8827 357.719 13.8541C357.683 13.8376 357.57 13.8816 357.47 13.9211C357.367 13.9617 357.288 14.0293 357.312 14.0759C357.368 14.0502 357.434 14.0194 357.498 13.9972C357.516 13.9908 357.534 13.9843 357.551 13.9781C357.622 14.0341 357.67 14.1914 357.631 14.3573C357.613 14.5759 357.631 14.7409 357.432 14.6924C357.161 14.6498 357.365 14.3246 357.029 14.7527C357.103 14.7126 357.17 14.687 357.232 14.6526C357.322 14.7653 357.136 14.7038 357.109 14.7777C357.096 14.8138 357.31 14.7896 357.193 14.9117C356.976 14.8279 356.979 15.0238 356.806 15.1527C356.787 15.166 356.765 15.1789 356.744 15.1899C356.76 15.1714 356.778 15.1517 356.795 15.1319C356.826 15.0824 356.855 15.0336 356.885 14.9834C356.486 15.0544 357.158 14.5951 356.621 14.824C356.59 14.8374 356.554 14.8511 356.516 14.864C356.548 14.847 356.581 14.8291 356.613 14.8095C356.663 14.7792 356.712 14.7486 356.758 14.7127C356.682 14.6708 356.625 14.4456 356.568 14.4251C356.503 14.4001 356.452 14.4124 356.404 14.4378C356.356 14.4628 356.303 14.5075 356.245 14.5229C356.198 14.5351 356.206 14.4684 356.202 14.4695C356.14 14.4844 356.181 14.5631 356.126 14.5864C356.056 14.617 355.821 14.5876 355.788 14.6042C355.702 14.6494 355.893 14.7834 355.888 14.7976C355.848 14.8938 355.71 14.8526 355.739 14.9584C356.008 14.8501 356.926 14.6051 356.173 15.0619C356.453 15.161 356.465 15.4234 356.117 15.5329C355.843 15.6141 355.999 15.4768 355.836 15.4026C355.813 15.3947 355.458 15.4137 355.458 15.4912C355.437 15.3164 355.297 15.1858 355.335 14.9936C355.341 14.9654 355.482 14.9481 355.405 14.8149C355.366 14.748 355.266 14.6057 355.259 14.5122C355.243 14.5814 355.227 14.6588 355.211 14.7308C355.074 14.7713 355.008 14.7582 354.937 14.7176C354.877 14.7028 354.814 14.6879 354.735 14.6818C354.776 14.7191 354.984 14.8498 354.763 14.8916C354.752 14.8946 354.701 14.8319 354.59 14.8689C354.382 14.9443 354.331 14.9699 354.305 14.6871C354.073 15.0812 353.855 14.9974 353.742 15.1965C353.959 15.3881 353.977 15.2768 354.162 14.9875C354.223 15.0226 354.277 15.0634 354.338 15.0992C353.925 15.3205 354.089 15.1707 354.033 15.4248C354.011 15.5031 353.834 15.569 353.978 15.7071C354.016 15.7455 354.16 15.6264 354.19 15.6914C354.202 15.7079 354.019 15.8799 353.983 15.8599C353.861 15.8094 353.882 15.7205 353.875 15.6673C353.874 15.611 353.86 15.5718 353.873 15.5595C353.783 15.5348 353.62 15.5355 353.408 15.5971C353.386 15.6034 353.393 15.6869 353.355 15.7062C353.283 15.7428 353.262 15.6486 353.199 15.6854C353.137 15.7222 353.076 15.8705 352.952 15.7762C352.728 15.6053 353.103 15.3808 353.351 15.4531C353.364 15.2351 352.646 15.3584 352.338 15.3844C352.157 15.4027 352.026 15.421 352.003 15.4309C351.669 15.5711 352.236 15.453 352.279 15.5242C352.292 15.5486 352.322 15.8034 352.39 15.7881C352.408 15.7836 352.43 15.7542 352.452 15.6856C352.478 15.5993 352.302 15.5154 352.391 15.4573C352.477 15.3984 352.461 15.5274 352.469 15.5351C352.498 15.561 352.597 15.495 352.615 15.5092C352.897 15.7239 352.957 16.1316 352.539 15.6006C352.433 15.7584 352.776 15.9153 352.626 16.0375C352.559 16.0908 352.489 16.1025 352.43 16.0943C352.322 16.0798 352.243 16.0065 352.225 16.0029C351.897 15.9347 352.294 16.1793 351.894 16.1266C351.675 16.0941 352.199 15.9126 351.711 15.9702C351.3 16.0118 351.528 16.0959 351.51 16.322C351.506 16.3748 351.277 16.4516 351.592 16.4113C351.598 16.3524 351.609 16.2746 351.626 16.2195C351.704 16.2576 351.856 16.5395 351.9 16.546C352.11 16.5766 352.084 16.4256 352.224 16.5902C352.117 16.4054 352.27 16.5071 352.317 16.4596C352.446 16.3288 352.334 16.2821 352.459 16.3254C352.504 16.3395 352.577 16.3632 352.699 16.3907C352.624 16.3114 352.557 16.2314 352.49 16.1489C352.54 16.1383 352.591 16.1265 352.641 16.114C352.754 16.2998 353.03 16.2127 352.818 16.466C353.14 16.4564 353.237 16.3836 353.264 16.2172C353.269 16.1853 353.309 16.1637 353.357 16.1503C353.339 16.1092 353.297 15.9785 353.302 15.9604C353.344 15.7999 353.503 16.0296 353.482 16.1321C353.516 16.1307 353.542 16.1321 353.552 16.1331C353.609 16.1398 353.515 16.2429 353.564 16.2658C353.582 16.2709 353.714 16.2396 353.711 16.2777C353.711 16.475 353.653 16.3798 353.739 16.4351C353.898 16.4721 354.119 16.4513 354.292 16.3837C354.264 16.2998 354.166 16.3058 354.046 16.2977C353.926 16.2929 353.79 16.2509 353.777 16.1853C353.779 16.1702 353.781 16.1533 353.785 16.1342C353.791 16.1229 353.799 16.1109 353.809 16.0979C353.935 15.8946 354.211 16.0836 354.1 15.8107C354.137 15.8436 354.165 15.8731 354.207 15.9101C354.342 15.6429 354.491 15.8115 354.592 15.7891C354.786 15.7289 355.181 15.2909 354.65 15.5462C354.693 15.4682 354.743 15.399 354.788 15.3302C354.945 15.481 354.986 15.5321 355.021 15.5257C355.04 15.5275 355.143 15.4286 355.11 15.4819C355.109 15.4825 355.108 15.4833 355.107 15.4841C355.192 15.4886 355.255 15.6554 355.295 15.4212C355.326 15.6421 355.564 15.4575 355.596 15.4786C355.776 15.6079 355.325 15.92 355.151 15.6829C355.159 15.6564 355.159 15.6272 355.153 15.5952C355.264 15.7186 355.17 15.5293 355.149 15.58C355.108 15.6651 355.126 15.7027 354.894 15.733C354.908 15.8748 355.055 15.7442 355.145 15.7029C355.23 15.6678 355.283 15.6718 355.269 15.8786C355.257 15.9461 355.216 16.0503 355.094 16.2331C355.031 16.325 354.953 16.4361 354.791 16.5848C354.637 16.7082 354.33 17.0153 353.66 16.9549C353.832 16.9873 353.62 17.0134 353.42 17.0928C353.204 17.1658 352.926 17.259 352.589 17.322C351.545 17.5313 350.603 17.5595 350.238 17.5945C349.976 17.6139 349.738 17.6309 349.516 17.6464C348.66 17.7174 347.964 17.7839 347.033 17.8021L347.29 17.7729C347.186 17.7936 347.077 17.8111 346.962 17.8239C346.865 17.8376 346.396 17.8827 345.988 17.7797C345.788 17.7327 345.627 17.6632 345.576 17.6152C345.528 17.5674 345.547 17.527 345.584 17.474C345.571 17.4394 346.196 17.4993 345.757 17.1916C345.811 17.3242 345.543 17.3244 345.602 17.3534C345.614 17.3779 345.689 17.4574 346.005 17.4289C345.988 17.4336 345.934 17.4402 345.917 17.4437C345.711 17.4686 345.785 17.464 345.751 17.4726C345.738 17.4787 345.727 17.4846 345.716 17.4903C345.689 17.5016 345.677 17.5125 345.669 17.5229C345.65 17.5438 345.633 17.5624 345.616 17.579C345.584 17.6124 345.548 17.6377 345.509 17.6566C345.459 17.6949 345.319 17.7062 345.058 17.7019ZM343.262 15.4866C344.069 15.5605 343.478 15.3841 343.655 15.0198C343.545 15.0163 343.445 15.013 343.344 15.0097C343.37 15.0334 343.396 15.057 343.422 15.0807C343.422 15.0807 343.422 15.0807 343.422 15.0807C343.37 15.216 343.316 15.3513 343.262 15.4866ZM330.014 14.9312C330.046 14.8835 330.079 14.8357 330.115 14.7891C330.223 14.8067 330.337 14.8241 330.437 14.8415C330.424 14.8741 330.411 14.9071 330.398 14.9397C330.278 14.9355 330.139 14.9307 330.014 14.9312ZM353.476 15.3789C353.664 15.482 353.642 15.2876 353.904 15.3549C353.889 15.3572 353.872 15.3638 353.858 15.3758C353.864 15.2489 353.897 15.1237 353.957 15.0066C353.946 14.9541 353.933 14.9017 353.919 14.8493C353.544 14.8492 353.523 14.9411 353.282 14.9313C353.317 14.983 353.354 15.0351 353.387 15.088C353.423 15.0701 353.463 15.0507 353.503 15.0356C353.569 15.1857 353.235 15.2588 353.476 15.3793C353.476 15.3792 353.476 15.379 353.476 15.3789ZM354.456 14.6508C354.514 14.625 354.651 14.5395 354.888 14.4988C354.996 14.4922 355.095 14.4775 355.111 14.4354C355.158 14.3053 354.986 14.3121 354.849 14.3233C354.67 14.3558 354.574 14.4084 354.546 14.4055C354.53 14.4068 354.53 14.3423 354.827 14.2227C354.861 14.2016 354.904 14.1768 354.956 14.1481C354.946 14.1145 354.942 14.0803 354.935 14.0464C354.888 14.0517 354.84 14.0576 354.792 14.0644C354.491 14.1283 354.321 14.2455 354.192 14.3333C354.286 14.4349 354.363 14.5478 354.456 14.6508ZM346.308 15.6264C346.387 15.6787 346.748 15.5464 346.618 15.3935C346.588 15.3516 346.447 15.5753 346.384 15.5531C346.349 15.5405 346.411 15.427 346.334 15.4573C346.325 15.5112 346.314 15.5708 346.309 15.6261C346.308 15.6262 346.308 15.6263 346.308 15.6264ZM345.93 16.2707C346.061 16.2865 346.193 16.2922 346.321 16.2842C346.251 16.1359 346.068 16.1822 346.11 15.9869C346.145 15.9811 346.177 15.974 346.21 15.966C346.222 16.0133 346.235 16.0605 346.25 16.1075C346.365 16.0163 346.311 15.9594 346.475 16.0029C346.377 15.6905 346.47 15.5606 346.106 15.7753C346.159 15.706 346.207 15.5395 346.208 15.4299C346.206 15.3747 346.195 15.3338 346.144 15.3209C346.08 15.3147 346.035 15.299 345.685 15.4084C345.537 15.4634 345.818 15.4516 345.915 15.4981C346.028 15.5368 346.068 15.5672 346.07 15.5727C346.07 15.716 345.917 15.7703 345.929 15.9083C345.94 15.9708 346.038 15.9979 346.027 16.0806C346.022 16.1213 345.903 16.2067 345.93 16.2707ZM345.694 15.5378C345.739 15.4542 345.59 15.2516 345.489 15.2901C345.308 15.3495 345.587 15.5456 345.694 15.5378ZM330.013 14.9314C330.013 14.9313 330.013 14.9313 330.014 14.9312C330.014 14.9314 330.013 14.9316 330.013 14.9318C330.013 14.9316 330.013 14.9315 330.013 14.9314ZM354.005 14.9491C354.016 14.8289 354.15 14.7066 354.063 14.6341C354.123 14.6055 354.189 14.5741 354.262 14.5421C354.24 14.5163 354.216 14.4909 354.194 14.4653C353.998 14.6038 353.876 14.7161 353.764 14.8051C353.844 14.8538 353.923 14.9033 354.005 14.9491ZM355.732 14.2513C355.89 14.2251 355.723 14.1058 355.739 14.0249C355.755 13.9444 355.893 13.9702 355.848 13.8707C355.772 13.8882 355.681 13.906 355.589 13.9227C355.639 14.0313 355.682 14.1435 355.732 14.2512C355.732 14.2512 355.732 14.2513 355.732 14.2513ZM339.953 15.2884C340.073 15.3248 340.022 15.4419 340.264 15.3089C340.263 15.3089 340.263 15.3089 340.263 15.3089C340.037 15.2067 339.752 15.1137 339.501 15.2017C339.651 15.33 339.769 15.2316 339.953 15.2884ZM352.939 15.1306C352.908 15.234 353.165 15.2541 353.212 15.1566C353.283 14.9977 352.977 14.9738 352.939 15.1306ZM335.094 16.0057C334.906 16.2901 335.242 16.6221 335.608 16.4907C335.64 16.4792 335.408 16.3819 335.478 16.3272C335.486 16.3218 335.614 16.3317 335.647 16.2923C335.68 16.2528 335.648 16.1587 335.701 16.1207C335.794 16.0543 335.997 16.1861 336.067 16.0978C336.077 16.0859 335.952 15.958 335.944 15.9531C335.815 15.8745 335.685 16.0348 335.664 16.0354C335.559 16.0385 335.578 15.9109 335.552 15.8802C335.503 15.8224 335.414 15.8769 335.408 15.8726C335.252 15.7566 335.614 15.7972 335.664 15.7522C335.8 15.6308 335.68 15.5121 335.997 15.4492C336.027 15.4433 336.386 15.4592 335.937 15.3053C336.832 15.0274 335.495 15.1249 335.347 15.1873C335.28 15.2162 335.378 15.3406 335.336 15.3945C335.241 15.5179 335.083 15.5364 335.093 15.7137C335.115 16.0866 335.327 15.8476 335.469 15.9136C335.452 15.994 335.444 16.0727 335.415 16.1511C335.46 16.0458 335.108 15.9843 335.094 16.005C335.094 16.0052 335.094 16.0055 335.094 16.0057ZM337.354 15.6331C337.55 15.7501 337.543 15.5149 337.723 15.6535C337.889 15.4463 337.57 15.453 337.533 15.4403C337.365 15.3831 337.375 15.1538 337.2 15.2204C337.256 15.3575 337.301 15.4958 337.354 15.6331ZM335.62 15.4957C335.757 15.3799 335.517 15.3763 335.508 15.3533C335.408 15.1096 336.124 15.1732 335.62 15.4957ZM346.889 16.093C346.942 16.0903 346.905 16.0118 346.923 15.9627C346.935 15.961 346.973 15.955 346.986 15.9556C346.99 15.9483 346.997 15.942 347.005 15.9372C347.063 15.9018 347.27 15.9936 347.263 15.9228C347.255 15.8521 346.878 15.6781 347.251 15.6279C347.237 15.5884 347.24 15.5585 347.233 15.5227C347.147 15.5242 347.061 15.5252 346.975 15.5264C346.947 15.5253 346.865 15.5382 346.837 15.542C346.825 15.5442 346.814 15.5463 346.802 15.5482C346.82 15.5798 346.838 15.6116 346.858 15.6432C346.882 15.6399 346.953 15.6287 346.977 15.6296C347.02 15.7106 347.061 15.7922 347.102 15.869C347.046 15.9619 347.011 15.8456 347.008 15.8457C347.008 15.8458 347.008 15.8459 347.008 15.846C347 15.8469 346.991 15.8489 346.983 15.8519C346.967 15.8512 346.918 15.8588 346.902 15.861C346.829 15.91 346.76 16.0967 346.889 16.093ZM341.626 15.549C341.598 15.8337 341.768 15.5189 341.835 15.4851C341.901 15.4514 341.988 15.559 341.958 15.4356C341.855 15.3485 341.629 15.5172 341.626 15.5494C341.626 15.5492 341.626 15.5491 341.626 15.549ZM338.439 15.6579C338.609 15.5926 338.584 15.5179 338.786 15.6072C338.78 15.5381 338.774 15.4675 338.768 15.3994C338.605 15.3943 338.612 15.5946 338.425 15.5098C338.394 15.4958 338.464 15.3375 338.323 15.3856C338.361 15.4718 338.401 15.5675 338.439 15.6579ZM339.274 15.4217C339.079 15.4277 338.915 15.9819 339.276 15.7386C339.33 15.7022 339.42 15.417 339.274 15.4217ZM345.19 16.0008C345.495 16.0233 345.156 15.9262 345.062 15.8384C345.822 15.7857 344.98 15.8603 344.903 15.5733C344.815 15.6526 344.635 15.8344 344.826 15.8883C344.904 15.9106 344.877 15.8251 344.881 15.8256C345.011 15.8494 345.019 15.9885 345.19 16.0008ZM337.007 15.6388C337.02 15.6349 337.003 15.5381 337.042 15.5198C337.082 15.5016 337.169 15.5711 337.179 15.5122C337.189 15.453 337.012 15.4027 336.957 15.4447C336.901 15.4872 336.895 15.6732 337.007 15.6388ZM338.255 15.9053C338.419 15.8398 338.162 15.4789 338.126 15.4797C337.815 15.491 338.267 15.7932 338.255 15.9053ZM344.415 16.5868C344.81 16.4152 344.526 16.0958 344.291 15.9029C344.258 15.9403 344.223 15.9777 344.189 16.0148C344.344 15.7865 344.615 15.5635 344.02 15.7522C344.343 15.8139 344.07 15.8701 344.065 15.8831C344.025 16.3078 344.502 16.1207 344.415 16.5868C344.415 16.5868 344.415 16.5868 344.415 16.5868ZM336.478 15.5249C336.306 15.5223 335.859 15.5854 336.063 15.7757C336.201 15.6921 336.339 15.6085 336.478 15.5249ZM350.857 16.5597C351.001 16.6614 351.133 16.6553 351.307 16.6408C351.143 16.4932 351.247 16.4712 351.297 16.4312C351.376 16.3709 351.181 16.3839 351.181 16.3733C351.178 16.2266 351.301 16.1995 351.021 16.2132C351.089 16.1598 351.154 16.1058 351.221 16.0523C351.008 16.0541 350.955 15.9597 350.818 15.847C350.956 16.1285 350.78 15.9552 350.627 16.1013C350.551 16.1744 350.782 16.5079 350.858 16.5597C350.858 16.5597 350.857 16.5597 350.857 16.5597ZM344.823 16.6531C344.863 16.6025 344.899 16.5337 344.936 16.4757C344.979 16.471 345.029 16.4671 345.073 16.4625C345.078 16.5081 345.081 16.5557 345.087 16.5996C345.144 16.614 345.122 16.5502 345.139 16.5446C345.139 16.5449 345.139 16.5451 345.139 16.5454C345.253 16.5058 345.343 16.489 345.424 16.5001C345.496 16.5109 345.576 16.55 345.665 16.6218C345.667 16.4825 345.669 16.3432 345.672 16.2038C345.637 16.2166 345.584 16.2286 345.536 16.2406C345.516 16.3151 345.495 16.3896 345.472 16.4641C345.428 16.4219 345.378 16.3799 345.323 16.3375C345.271 16.3633 345.241 16.391 345.205 16.4165C345.022 16.0231 345.458 16.2969 345.465 16.1352C345.469 16.0314 345.029 16.0269 344.948 16.0968C344.939 16.1071 345.023 16.399 344.875 16.2447C344.85 16.2203 344.86 15.593 344.669 16.097C344.641 16.1684 344.725 16.5602 344.823 16.6531ZM346.392 16.9961C346.244 16.782 346.46 16.8131 346.643 16.8187C346.829 16.8246 346.981 16.8256 346.732 16.6862C346.846 16.4902 346.809 16.4972 346.684 16.3432C346.673 16.3295 346.746 16.2726 346.738 16.2666C346.629 16.1876 346.512 16.2336 346.515 16.0692C346.49 16.0775 346.467 16.0843 346.442 16.0914C346.542 16.2512 346.364 16.3486 346.262 16.4634C346.217 16.5165 346.299 16.5467 346.261 16.5936C346.246 16.6115 346.131 16.5532 346.115 16.6043C346.079 16.7211 346.124 16.904 346.273 17.0119C346.273 17.012 346.273 17.0121 346.273 17.0122C346.314 17.0086 346.353 17.0021 346.392 16.9961ZM341.077 16.4371C341.039 16.2143 340.869 16.1469 341.201 16.046C341.186 16.0019 341.17 15.9582 341.155 15.9142C341.099 15.9167 341.045 15.9193 340.988 15.9215C340.8 16.571 340.511 15.8264 340.696 16.2944C340.714 16.3452 340.851 16.2921 340.716 16.4258C340.716 16.426 340.716 16.4261 340.716 16.4262C340.902 16.3885 340.927 16.3104 341.077 16.4371ZM342.293 16.3103C342.726 15.8533 341.722 16.0367 341.887 16.1644C341.903 16.1759 342.326 16.0853 342.293 16.3103ZM338.924 16.6388C339.111 16.6512 339.128 16.3997 339.112 16.3086C339.095 16.2172 338.964 16.3061 338.948 16.2914C338.895 16.2429 339.011 16.2144 338.942 16.148C338.919 16.1265 338.595 16.0291 338.579 16.0396C338.494 16.0979 338.611 16.3085 338.587 16.3317C338.507 16.4079 338.404 16.2973 338.379 16.4073C338.325 16.6419 338.528 16.399 338.561 16.3958C338.662 16.3869 338.65 16.5194 338.724 16.5477C338.798 16.576 338.848 16.5317 338.914 16.5426C338.935 16.5463 338.915 16.6378 338.924 16.6388ZM339.559 16.1215C339.358 16.3076 339.83 16.526 339.886 16.4826C340.053 16.3538 339.655 16.0328 339.559 16.1215ZM345.813 16.2669C345.752 16.3352 345.775 16.3891 345.832 16.4443C345.9 16.5026 346.046 16.5597 346.117 16.5445C346.096 16.4869 345.879 16.2258 345.813 16.2669ZM344.308 16.5837C344.471 16.5443 344.266 16.2283 344.12 16.2299C344.03 16.4326 344.112 16.3939 344.205 16.4043C344.296 16.4148 344.178 16.6144 344.308 16.5837ZM336.894 16.3638C336.929 16.3679 337.506 16.2122 337.179 16.1342C337.154 16.1284 336.752 16.1488 336.72 16.1795C336.658 16.2418 336.802 16.3526 336.894 16.3638ZM343.504 16.8681C343.599 16.6932 343.686 16.6975 343.609 16.4878C343.609 16.4878 343.609 16.4878 343.608 16.4878C343.836 16.4293 343.832 16.8545 343.88 16.8465C344.041 16.8182 343.896 16.5122 343.999 16.4151C343.762 16.5033 343.834 16.3007 343.648 16.2836C343.605 16.2798 343.43 16.3978 343.409 16.4733C343.385 16.5487 343.457 16.7781 343.504 16.8681ZM336.083 16.389C336.274 16.4613 336.458 16.1786 336.191 16.1268C336.061 16.1014 335.966 16.3449 336.083 16.389ZM355.144 15.423C355.119 15.3842 355.093 15.3456 355.068 15.3073C355.06 15.2764 355.048 15.2466 355.032 15.2185C355.036 15.2134 355.041 15.2086 355.045 15.2042C355.097 15.1774 355.149 15.1509 355.203 15.1245C355.153 15.1591 355.103 15.1934 355.055 15.2282C355.188 15.226 355.273 15.3485 355.144 15.4229C355.144 15.423 355.144 15.423 355.144 15.423ZM359.307 12.8979C359.327 12.9042 359.335 12.8959 359.335 12.8799C359.355 12.8162 359.317 12.6784 359.3 12.6762C359.244 12.6689 359.21 12.6896 359.194 12.7211C359.172 12.7765 359.233 12.8765 359.307 12.8979ZM345.895 16.9925C346.181 17.0898 346.041 16.689 345.913 16.626C345.986 16.7184 345.75 16.9351 345.895 16.9925ZM358.152 14.1819C358.113 14.1724 358.074 14.1622 358.033 14.1525C358.129 14.1374 358.159 14.1492 358.152 14.1819ZM336.977 16.6879C337.011 16.7167 337.262 16.7457 337.296 16.7119C337.368 16.6407 337.177 16.4349 337.06 16.4941C337.047 16.5004 336.944 16.6592 336.978 16.6879C336.978 16.6879 336.977 16.6879 336.977 16.6879ZM355.459 15.501C355.458 15.4977 355.458 15.4944 355.458 15.4912C355.458 15.4944 355.459 15.4977 355.459 15.501ZM362.978 9.14878C362.973 9.1474 362.967 9.14555 362.963 9.1431C362.968 9.14497 362.973 9.14655 362.978 9.14878ZM338.745 17.0389C338.821 17.3883 339.017 17.2079 338.869 17.0326C338.861 17.0234 338.765 17.0401 338.745 17.0389Z" fill="#419DDF"/>
</svg>
