<svg width="325" height="4" viewBox="0 0 325 4" fill="none" xmlns="http://www.w3.org/2000/svg">
<path opacity="0.5" d="M124.362 0.524234C111.185 0.516534 96.7594 0.470268 83.53 0.530459C81.9059 0.537813 82.0169 0.638561 81.5613 0.651859C80.3157 0.688552 79.5657 0.569712 78.6577 0.578433C74.244 0.620425 70.1151 0.637521 65.7851 0.675662C61.3246 0.714857 63.4346 1.02802 61.8847 1.10431C58.8567 1.25372 61.4323 0.845352 60.2421 0.753666C56.7706 0.778161 53.2683 0.8224 49.7907 0.867191C50.6396 0.90532 51.4889 0.942639 52.3472 0.977971C50.8315 0.986374 48.662 1.04941 51.2004 1.15613C50.6393 1.18553 50.1156 1.21991 49.539 1.2486C49.381 1.09989 46.6974 1.08792 46.452 0.99976C46.2071 0.911572 47.716 0.931836 47.7067 0.924138C47.6066 0.814297 41.4172 0.964442 40.971 0.976689C39.7909 1.00928 40.8255 1.19364 39.8217 1.18177C38.0951 1.16147 39.2454 0.786357 36.9082 1.28504C35.9784 1.12304 35.8973 1.20717 34.72 1.21839C34.565 1.21979 34.6853 1.12599 34.6171 1.12354C32.8351 1.05392 34.2049 1.22835 34.1956 1.2378C34.0338 1.39831 32.1214 1.32696 31.7185 1.34235C26.6632 1.53411 22.959 1.66394 17.6247 1.70838C16.4716 1.71783 12.9595 1.6527 11.8436 1.68C10.7431 1.70694 11.3335 1.82259 10.7576 1.87812C9.83426 1.5999 8.95361 1.56922 6.88077 1.75251C6.10905 1.54956 6.2082 1.71327 4.72978 1.67268C3.49909 1.63905 1.35444 1.39559 1.06096e-05 1.6031C1.553 1.5842 1.39211 1.6839 3.14036 1.74409C3.72232 1.76402 9.79082 1.76828 9.33925 1.97572C9.10366 2.08384 7.09246 1.98453 7.01467 2.00446C6.5621 2.12065 7.68469 2.26343 8.67971 2.21339C8.43172 2.18994 8.13293 2.16616 7.86641 2.14271C10.1013 1.99748 8.56439 2.55527 10.2629 2.06782C10.4729 2.00803 10.3915 1.94568 10.7377 1.88215C10.809 1.90843 10.3853 1.97357 10.7501 1.98524C11.1222 1.997 11.8288 1.87331 11.9341 1.97755C12.0916 2.12913 10.55 2.06939 10.434 2.07826C10.4328 2.07734 10.4315 2.07642 10.4303 2.07551C9.4046 2.15599 11.5467 2.16517 11.649 2.17951C12.3116 2.27396 11.8598 2.34668 12.854 2.42469C13.4213 2.46914 14.8661 2.44294 15.3993 2.45729C15.9291 2.47199 15.1048 2.5437 15.4613 2.55909C15.8177 2.57449 16.2615 2.52 16.68 2.53785C16.8591 2.54572 16.8499 2.62569 16.9366 2.62849C17.8663 2.65926 17.2564 2.49291 18.0995 2.50306C18.6457 2.50981 20.4789 2.66488 19.2153 2.71107C19.8227 2.72716 20.415 2.73894 21.0192 2.75154C20.6381 2.77533 20.2443 2.79149 19.8724 2.81947C21.0095 2.78138 21.524 2.91824 22.2367 2.92842C22.9496 2.93857 23.5886 2.77433 24.3728 2.85444C26.0467 3.02487 21.9019 2.94613 21.3874 2.97657C21.1868 2.98854 21.957 3.11719 22.0755 3.12086C22.6022 3.13695 23.2253 3.04496 23.6314 3.04908C25.0851 3.06448 25.9753 3.1859 27.3607 3.2104C32.0783 3.29369 37.9307 3.36123 42.4004 3.38783C44.065 3.39763 45.0665 3.26112 45.8135 3.26497C47.5613 3.27408 47.7753 3.39304 49.2998 3.39937C51.5687 3.40917 54.7652 3.30531 56.6591 3.28291C57.9702 3.26751 59.1571 3.38264 59.4982 3.38545C64.2376 3.42674 70.0032 3.42415 73.9304 3.42555C75.7775 3.42625 76.6547 3.29687 77.0361 3.30067C78.6756 3.31677 78.236 3.42738 79.5652 3.41621C80.2833 3.41027 80.4176 3.30409 80.5137 3.29994C81.3599 3.26494 81.5283 3.40361 82.1886 3.40816C85.9854 3.43439 89.6428 3.34364 93.4024 3.33034C93.6751 3.32929 93.6509 3.26786 93.8276 3.27101C94.5863 3.28608 94.2336 3.38282 95.0265 3.38985C96.6755 3.40489 98.3688 3.38891 100.117 3.37666C100.29 3.37545 100.368 3.29649 100.764 3.29646C101.161 3.29646 101.462 3.37132 102.085 3.36714C103.712 3.35629 105.318 3.26675 107.041 3.26185C107.326 3.26115 107.68 3.35628 108.107 3.35524C109.45 3.35209 111.437 3.26574 112.587 3.26259C116.381 3.25279 119.881 3.30693 123.455 3.30763C124.294 3.30759 125.038 3.21946 125.475 3.21736C126.46 3.21284 125.717 3.29611 126.715 3.29646C134.867 3.29856 143.051 3.2607 151.299 3.26735C154.538 3.2698 158.481 3.35596 161.611 3.33217C162.913 3.32201 163.149 3.20687 164.07 3.20582C165.712 3.20446 166.01 3.35206 167.742 3.36677C169.124 3.37832 170.709 3.23097 172.147 3.24006C173.585 3.24916 174.249 3.39229 175.901 3.40944C177.262 3.42342 179.162 3.35847 180.643 3.36897C194.219 3.46556 207.588 3.52435 221.248 3.41237C226.068 3.37282 231.416 3.39338 236.397 3.2527C236.865 3.23938 236.149 3.10116 237.649 3.1302C238.455 3.14595 239.58 3.26505 241.443 3.27101C252.518 3.306 264.332 3.05124 275.593 3.10164C292.461 3.17758 309.943 4.16117 324.601 2.72187C325.32 2.65119 324.93 2.30483 324.499 2.20643C324.1 2.27676 323.73 2.36028 323.312 2.43971C322.785 2.00693 322.878 2.11961 320.925 2.15846C319.723 2.18258 320.683 1.99749 320.042 1.94495C319.212 1.87706 315.311 1.66329 316.062 1.9499C315.82 1.90021 315.597 1.8526 315.361 1.80396C312.537 1.76057 309.794 1.68881 307.032 1.60657C306.555 1.5922 306.533 1.50227 306.04 1.48792C304.717 1.44874 303.666 1.50782 302.302 1.49872C301.562 1.49383 301.459 1.3899 300.489 1.39655C299.519 1.40324 299.54 1.54353 298.217 1.39106C299.079 1.21504 295.235 1.34276 293.868 1.33191C293.67 1.33052 292.043 1.17238 291.178 1.19056C290.31 1.2084 288.993 1.30942 287.651 1.25208C287.022 1.22514 286.64 1.10198 285.961 1.09498C285.484 1.09008 284.91 1.19954 284.306 1.20411C283.702 1.20865 282.394 1.1188 282.155 1.11731C281.29 1.11137 282.244 1.18833 281.653 1.1922C278.798 1.2097 275.481 1.25095 272.667 1.19916C272.321 1.19288 272.8 1.10221 272.754 1.09919C270.405 0.987931 271.658 1.10607 271.024 1.18726C270.41 1.26577 265.913 1.22294 265.88 1.06531C265.742 1.2627 264.743 1.11194 264.483 1.10615C263.473 1.08377 263.671 1.25455 262.692 1.20173C262.332 1.18249 263.032 1.06706 262.646 1.07044C261.691 1.07884 260.832 1.26428 259.561 1.28284C259.254 1.28739 259.155 1.20479 258.609 1.20759C258.063 1.21043 255.773 1.31149 256.83 1.13727C255.441 1.27688 255.162 1.20026 253.547 1.20411C253.138 1.20528 252.611 1.3384 251.741 1.29712C251.446 1.28312 251.455 1.1548 251.012 1.15375C249.998 1.15099 249.043 1.28382 247.757 1.28907C245.352 1.29921 242.791 1.20584 240.284 1.23908C239.602 1.2482 239.772 1.37721 238.781 1.37971C238.636 1.37971 237.442 1.26814 236.757 1.27863C236.344 1.28493 234.208 1.36334 233.777 1.36963C233.065 1.37973 232.938 1.25496 232.548 1.27936C231.419 1.3497 232.325 1.53336 230.967 1.28211C230.521 1.42139 229.727 1.40746 229.473 1.57893C229.011 1.39102 228.412 1.57156 227.517 1.50861C226.621 1.44562 225.886 1.08168 225.669 1.47327C225.251 1.42568 223.468 1.34446 223.167 1.33851C222.281 1.32172 222.755 1.43004 222.086 1.41541C221.969 1.41296 222.092 1.33889 221.336 1.3462C220.84 1.3511 217.207 1.35564 216.99 1.36579C214.514 1.48175 218.339 1.43925 218.874 1.51942C218.969 1.49836 219.062 1.47723 219.163 1.45643C220.257 1.42145 219.634 1.58879 219.138 1.62763C218.642 1.66646 217.716 1.59192 217.303 1.64686C217.098 1.67444 217.225 1.87507 217.846 1.85084C217.182 1.91263 218.089 1.97788 217.826 2.03596C217.538 2.09962 214.551 2.11922 214.535 2.00868C215.093 2.00483 215.787 2.00864 216.351 2.0041C217.089 1.81197 214.848 1.15586 212.793 1.41797C211.302 1.60764 213.76 1.75845 210.233 1.59925C210.775 1.59155 211.234 1.57361 211.727 1.56556C211.779 1.42148 210.98 1.5799 210.568 1.53406C210.37 1.51165 211.59 1.40963 210.53 1.37568C209.619 1.58172 208.918 1.37446 207.39 1.37202C207.815 1.40876 208.24 1.44532 208.665 1.48206C206.083 1.63149 212.08 1.68078 207.059 1.76441C207.663 1.77105 208.264 1.76929 208.872 1.77943C208.577 1.85503 209.048 2.07696 208.785 2.12385C208.094 2.24693 207.071 2.17273 206.228 2.18354C205.859 2.18809 206.088 2.24801 206.057 2.24836C205.552 2.255 205.664 2.16717 205.22 2.16157C204.663 2.15458 203.052 2.23996 202.79 2.23023C202.115 2.20539 203.24 2.03206 203.175 2.01911C202.744 1.93516 201.864 2.00478 201.91 1.89497C204.028 1.97054 210.13 1.87352 204.609 1.6919C206.131 1.51448 205.692 1.26987 203.503 1.25062C201.693 1.23452 202.861 1.33253 201.919 1.44031C201.797 1.45381 199.373 1.50534 199.248 1.42914C199.346 1.60464 198.557 1.76005 199.086 1.94111C199.164 1.96771 200.158 1.95721 199.811 2.10279C199.638 2.17592 199.14 2.33508 199.22 2.42817C199.015 2.36344 198.801 2.29062 198.594 2.22309C197.103 2.2042 196.891 2.27393 196.076 2.39466C196.113 2.34427 196.866 2.13252 195.722 2.19691C195.664 2.20076 195.613 2.27676 195.032 2.31446C193.857 2.39004 193.612 2.41355 194.514 2.63673C192.081 2.50943 191.557 2.75817 189.062 2.68544C189.558 2.39853 190.435 2.46956 192.72 2.52485C192.819 2.45662 192.865 2.38907 192.968 2.32014C189.927 2.4748 191.43 2.45905 189.707 2.32051C189.286 2.28656 187.038 2.32288 187.788 2.12971C187.965 2.08426 189.361 2.08949 189.201 2.01783C189.17 2.00419 187.473 1.96947 187.323 1.98798C185.445 2.2165 188.801 2.37577 183.628 2.29249C183.486 2.29004 183.436 2.20652 183.157 2.19489C182.634 2.1732 182.627 2.26996 182.159 2.24763C181.691 2.22523 181.043 2.09509 180.339 2.2154C179.053 2.43447 182.087 2.56047 183.439 2.44428C183.987 2.73055 174.332 2.73685 173.734 2.71235C171.121 2.60564 175.469 2.66724 175.693 2.58784C175.786 2.55425 175.739 2.12842 176.839 2.40473C177.165 2.48662 175.805 2.59451 176.616 2.63966C177.428 2.6848 177.107 2.55942 177.165 2.55067C177.367 2.52068 178.231 2.56717 178.343 2.54939C180.067 2.27957 179.909 1.87186 177.624 2.47413C176.629 2.338 178.913 2.12102 177.676 2.02863C176.173 1.91634 175.076 2.11052 174.887 2.11927C172.622 2.22281 175.234 1.93935 172.467 2.02992C170.926 2.08031 174.772 2.21857 171.254 2.20002C168.31 2.18427 169.9 2.08559 169.686 1.86127C169.635 1.80879 168.022 1.74443 170.219 1.76752C170.281 1.82596 170.398 1.90297 170.538 1.95686C171.077 1.91419 171.975 1.62174 172.261 1.61152C173.659 1.56288 173.591 1.71467 174.416 1.5359C173.827 1.73147 174.785 1.61362 175.145 1.65491C176.48 1.8071 174.729 1.86368 177.726 1.6681C177.335 1.75979 176.982 1.84977 176.604 1.94111C176.963 1.94426 177.323 1.94748 177.682 1.95063C178.219 1.74871 180.128 1.77454 178.399 1.57123C180.479 1.5135 181.319 1.55752 181.775 1.71461C181.862 1.7446 182.174 1.75658 182.541 1.75947C182.472 1.80364 182.383 1.94012 182.441 1.95686C182.958 2.10406 183.761 1.84976 183.487 1.75269C183.744 1.74805 183.947 1.7426 184.019 1.74024C184.474 1.72517 183.582 1.6374 183.951 1.60731C184.072 1.59753 185.354 1.61662 185.379 1.58094C185.534 1.35218 183.424 1.51722 187.66 1.38428C187.763 1.59251 185.795 1.54672 186.3 1.76789C186.843 2.00549 187.949 1.68677 188.191 1.97828C188.281 1.93035 188.32 1.89039 188.398 1.83582C190.112 1.96283 190.134 1.72005 190.658 1.66645C191.675 1.56181 196.349 1.57753 192.152 1.78785C192.766 1.80885 193.392 1.81856 194.003 1.8371C194.142 1.40186 193.77 1.5751 196.712 1.50861C197.36 1.49392 197.57 1.30249 198.206 1.52985C198.119 1.30683 200.035 1.44156 200.214 1.4145C201.361 1.23848 197.103 0.99347 196.557 1.38776C195.838 1.23425 195.841 1.43718 195.038 1.41028C193.879 1.37144 193.718 1.33192 192.342 1.4817C190.987 1.27067 197.644 1.38885 193.609 1.10889C189.572 0.828952 166.066 0.672797 160.582 0.630801C150.648 0.554862 145.425 0.505228 136.501 0.517825C135.621 0.518875 128.975 0.498641 130.356 0.742496C130.555 0.777491 133.413 0.870233 130.961 1.06165C131.46 0.948631 130.019 0.875244 129.898 0.863346C127.124 0.593191 128.73 0.527033 124.362 0.524234ZM111.415 2.69917C117.115 2.64353 112.928 2.80655 114.112 3.1747C113.38 3.17575 112.651 3.17676 111.92 3.17781C112.112 3.15471 112.302 3.13169 112.494 3.10859C112.495 3.10859 112.495 3.10859 112.496 3.10859C112.137 2.97213 111.775 2.83563 111.415 2.69917ZM18.2347 2.94563C18.4571 2.9941 18.6768 3.04267 18.9178 3.0901C19.6709 3.07505 20.4211 3.06028 21.1742 3.04524C21.0843 3.01235 20.9975 2.97907 20.9076 2.94618C20.0167 2.94758 19.1286 2.9491 18.2347 2.94563ZM184.236 2.49757C185.302 2.36286 185.206 2.60326 186.623 2.49372C186.449 2.67113 186.256 2.84468 186.073 3.02034C184.995 2.99409 184.75 2.92662 183.579 2.96998C183.715 2.91296 183.855 2.8556 183.988 2.79823C184.183 2.81046 184.39 2.82438 184.579 2.83522C184.88 2.67566 183.008 2.65185 184.232 2.4972C184.233 2.49732 184.235 2.49745 184.236 2.49757ZM195.162 2.56898C195.736 2.54588 198.007 2.45905 198.317 2.53254C199.368 2.78171 192.959 2.62358 197.683 2.8451C197.661 2.88006 197.683 2.91432 197.683 2.94893C196.821 2.96117 195.962 2.97172 195.094 2.98152C195.14 2.84366 195.109 2.70754 195.162 2.56898ZM132.031 2.71455C132.913 2.69535 137.114 2.81255 135.745 2.97035C135.342 3.01654 133.466 2.79081 132.753 2.80061C132.291 2.80693 132.809 2.93069 131.897 2.8852C131.938 2.83065 131.963 2.77017 132.034 2.71492C132.033 2.71479 132.032 2.71467 132.031 2.71455ZM130.379 1.99439C131.29 2.01644 132.214 2.04437 133.131 2.06782C132.462 2.20882 131.144 2.11825 131.067 2.31666C131.318 2.3317 131.566 2.34666 131.817 2.3617C132.009 2.31832 132.198 2.2749 132.387 2.23152C133.174 2.3393 132.698 2.39285 134.164 2.3617C133.277 2.66161 133.113 2.82258 130.602 2.51918C131.076 2.6819 130.63 3.2121 129.238 2.8332C128.978 2.76286 130.065 2.71586 130.077 2.70466C130.245 2.56543 129.641 2.47657 129.821 2.34504C129.901 2.28555 130.565 2.28646 130.664 2.20387C130.71 2.16358 130.079 2.04863 130.379 1.99439ZM128.562 2.70045C128.845 2.78478 127.881 2.98492 127.044 2.94435C125.739 2.88136 127.797 2.691 128.562 2.70045ZM18.2297 2.94545C18.2314 2.94551 18.233 2.94557 18.2347 2.94563C18.2338 2.94545 18.233 2.94526 18.2322 2.94508C18.2314 2.9452 18.2305 2.94532 18.2297 2.94545ZM192.205 2.66658C192.881 2.73827 193.881 2.72782 193.807 2.84181C194.136 2.81941 194.468 2.79737 194.796 2.77497C194.793 2.80925 194.787 2.84359 194.784 2.87751C193.795 2.89886 192.81 2.92027 191.821 2.94197C191.945 2.85029 192.06 2.75826 192.205 2.66658ZM202.976 2.58674C204.219 2.57521 203.177 2.7303 203.45 2.80519C203.723 2.88008 204.83 2.81915 204.7 2.92659C203.968 2.93079 203.205 2.93501 202.464 2.93885C202.66 2.82197 202.796 2.70293 202.979 2.58674C202.978 2.58674 202.977 2.58674 202.976 2.58674ZM88.1519 2.8213C88.9949 2.7877 88.6509 2.66936 90.3154 2.80793C90.3141 2.80793 90.3129 2.80793 90.3116 2.80793C88.7278 2.90485 86.6889 2.99123 84.9409 2.89747C86.01 2.77262 86.8255 2.87379 88.1519 2.8213ZM181.288 2.84675C180.932 2.75298 182.59 2.67466 182.955 2.76179C183.547 2.90281 181.83 2.98918 181.288 2.84675ZM54.1014 1.99073C52.819 1.70204 55.2489 1.378 57.7935 1.51795C58.0136 1.5302 56.3708 1.62201 56.8575 1.67835C56.9066 1.6839 57.8084 1.67702 58.0315 1.71717C58.2547 1.75741 58.0203 1.85083 58.3861 1.89002C59.0279 1.95852 60.4783 1.8316 60.9587 1.92152C61.0219 1.93357 60.1225 2.0585 60.066 2.06324C59.1424 2.13882 58.2524 1.97552 58.1096 1.97443C57.3751 1.96884 57.486 2.09687 57.3001 2.12696C56.9498 2.18356 56.333 2.12698 56.2896 2.13117C55.1748 2.24346 57.7222 2.21133 58.0662 2.25752C58.9929 2.38209 58.1349 2.49791 60.3573 2.56825C60.5684 2.57487 63.0946 2.56735 59.911 2.7107C66.1621 3.00953 56.77 2.88068 55.7503 2.81489C55.2803 2.78439 55.992 2.66235 55.7069 2.60743C55.056 2.48182 53.9465 2.45967 54.0456 2.2826C54.2596 1.91034 55.7168 2.15426 56.7211 2.09162C56.6157 2.01078 56.5755 1.93194 56.3801 1.85285C56.6808 1.95924 54.1944 2.01246 54.1014 1.99146C54.1014 1.99122 54.1014 1.99098 54.1014 1.99073ZM69.926 2.41609C71.3301 2.30375 71.2308 2.53875 72.5171 2.40437C73.6515 2.61538 71.4139 2.60121 71.1533 2.61311C69.9632 2.66629 69.9906 2.89574 68.773 2.82515C69.1914 2.68938 69.5323 2.5522 69.926 2.41609ZM57.7129 2.51295C58.652 2.63193 56.9715 2.62991 56.9033 2.65266C56.1613 2.894 61.1932 2.8471 57.7129 2.51295ZM137.501 2.24177C137.978 2.23372 137.676 2.34764 138.096 2.3813C138.518 2.41523 139.959 2.31774 139.923 2.38862C139.885 2.45966 137.245 2.64389 139.895 2.68379C139.806 2.72366 139.836 2.75341 139.792 2.78944C139.064 2.79049 138.329 2.79224 137.6 2.79329C138 2.67851 138.41 2.55777 138.794 2.44685C138.385 2.35551 138.155 2.47267 138.134 2.47267C138.134 2.47254 138.134 2.47242 138.134 2.4723C137.371 2.46311 136.43 2.25967 137.501 2.24177ZM99.9373 2.59938C99.7947 2.31416 100.92 2.6327 101.382 2.66804C101.843 2.70326 102.478 2.59768 102.24 2.72041C101.493 2.80509 99.9528 2.6312 99.9373 2.59901C99.9373 2.59913 99.9373 2.59925 99.9373 2.59938ZM77.5543 2.41664C78.7313 2.48587 78.5444 2.56001 79.9843 2.47541C79.9285 2.54435 79.8727 2.6148 79.8169 2.68269C78.6732 2.68409 78.7536 2.48396 77.4303 2.5644C77.2134 2.5777 77.6779 2.73755 76.6989 2.68617C76.9838 2.60085 77.2725 2.50616 77.5543 2.41664ZM83.3875 2.67225C82.0361 2.66173 80.9642 2.10387 83.4532 2.35548C83.8221 2.39309 84.4038 2.6803 83.3875 2.67225ZM125.035 2.22767C127.334 2.21159 124.723 2.30161 124.124 2.38734C129.476 2.45591 123.52 2.36388 122.986 2.649C122.332 2.56781 121.108 2.38213 122.468 2.33241C123.035 2.31176 122.828 2.39666 122.862 2.39631C123.907 2.37531 123.78 2.23642 125.035 2.22767ZM67.4861 2.40235C67.5728 2.40655 67.4371 2.50286 67.713 2.5221C67.9891 2.54121 68.6144 2.47381 68.6763 2.53291C68.738 2.59237 67.4839 2.63849 67.0993 2.59516C66.7149 2.55142 66.7019 2.36527 67.4861 2.40235ZM76.3083 2.16505C77.4569 2.23435 75.5787 2.58913 75.3289 2.58747C73.1343 2.56893 76.3734 2.27738 76.3083 2.16505ZM119.697 1.62507C122.468 1.80529 120.441 2.11846 118.705 2.30604C118.476 2.26792 118.241 2.22974 118.014 2.19196C119.056 2.42363 120.881 2.65262 116.821 2.45069C119.043 2.39617 117.182 2.33394 117.168 2.32087C116.923 1.89533 120.215 2.09295 119.694 1.62507C119.695 1.62507 119.696 1.62507 119.697 1.62507ZM63.7506 2.50379C62.5445 2.50238 59.4091 2.42887 60.8719 2.24342C61.8325 2.33019 62.7899 2.41702 63.7506 2.50379ZM165.064 1.64997C166.05 1.54393 166.958 1.54574 168.173 1.55274C167.079 1.70706 167.798 1.72479 168.167 1.76258C168.727 1.81947 167.371 1.81481 167.368 1.8252C167.392 1.97182 168.257 1.99459 166.289 1.9911C166.775 2.04217 167.255 2.09363 167.742 2.14436C166.242 2.15102 165.889 2.24667 164.938 2.36354C165.861 2.07799 164.645 2.25677 163.542 2.11469C162.991 2.04356 164.563 1.7042 165.068 1.64997C165.066 1.64997 165.065 1.64997 165.064 1.64997ZM122.561 1.56776C122.846 1.61919 123.107 1.68878 123.383 1.74757C123.683 1.75317 123.985 1.75808 124.285 1.76368C124.322 1.7182 124.353 1.67063 124.397 1.6269C124.793 1.61366 124.639 1.67698 124.756 1.68293C124.756 1.68269 124.756 1.68244 124.756 1.6822C126.445 1.76614 127.137 1.7567 128.46 1.6161C128.46 1.75544 128.46 1.89478 128.46 2.03413C128.162 2.02084 127.862 2.00788 127.564 1.99494C127.406 1.92007 127.248 1.84515 127.09 1.77027C126.746 1.81157 126.405 1.85257 126.061 1.89387C125.785 1.86694 125.454 1.83861 125.215 1.81239C123.842 2.20186 126.963 1.93727 126.99 2.09895C127.009 2.20288 123.866 2.19833 123.414 2.1266C123.349 2.1161 124.028 1.82608 122.878 1.97718C122.698 2.00098 122.635 2.62842 121.395 2.12037C121.219 2.0483 121.836 1.65851 122.561 1.56776ZM133.972 1.36542C132.205 1.76681 138.726 1.34238 135.912 1.67268C136.715 1.85707 136.566 1.85467 135.757 2.01838C135.686 2.03305 136.244 2.08372 136.197 2.09016C135.441 2.18045 134.53 2.13257 134.523 2.2967C134.319 2.28796 134.127 2.28018 133.922 2.27143C134.774 2.11678 133.419 2.01285 132.896 1.88233C132.657 1.82322 133.205 1.80498 133.005 1.75324C132.93 1.73435 132.165 1.77206 132.133 1.7179C132.068 1.59542 132.549 1.42989 133.364 1.33961C133.364 1.33948 133.364 1.33936 133.364 1.33924C133.569 1.34728 133.767 1.35703 133.972 1.36542ZM96.2105 1.69886C95.9098 1.92073 94.7046 1.98424 97.0201 2.09272C96.9055 2.13642 96.7875 2.17976 96.6729 2.22346C96.2824 2.21961 95.9042 2.21579 95.5075 2.21229C94.3173 1.55865 92.1449 2.29629 93.5363 1.83271C93.6882 1.78232 94.6143 1.83862 93.6999 1.70179C93.7012 1.70167 93.7024 1.70155 93.7037 1.70142C94.9804 1.74342 95.1412 1.82203 96.2105 1.69886ZM104.756 1.85358C107.701 2.32042 100.687 2.11406 101.859 1.99018C101.964 1.97898 104.986 2.0793 104.756 1.85358ZM81.1273 1.44727C82.4475 1.43923 82.5349 1.6911 82.4018 1.78181C82.2686 1.87278 81.3544 1.78085 81.2364 1.79517C80.8521 1.84242 81.6673 1.87362 81.1683 1.93836C81.003 1.95939 78.7036 2.04918 78.5982 2.03834C78.0132 1.97809 78.8685 1.77026 78.7011 1.74647C78.1556 1.66847 77.415 1.77659 77.2568 1.66608C76.9159 1.4303 78.2968 1.67781 78.53 1.68183C79.2337 1.69303 79.1722 1.56029 79.6991 1.5337C80.2257 1.50715 80.5698 1.55262 81.0344 1.54322C81.1889 1.54008 81.0604 1.44811 81.1273 1.44727ZM85.4926 1.9792C84.1137 1.78852 87.471 1.58116 87.8693 1.6258C89.0409 1.75843 86.1528 2.07018 85.4926 1.9792ZM129.548 1.97114C128.287 1.83292 131.225 1.72104 132.065 1.77668C131.909 1.83412 129.982 2.01872 129.548 1.97114ZM118.928 1.6258C120.087 1.66884 118.55 1.98025 117.583 1.97535C117.016 1.7707 117.55 1.81126 118.182 1.80286C118.813 1.79439 118.024 1.59227 118.928 1.6258ZM66.8079 1.67487C67.058 1.67162 71.0891 1.84078 68.773 1.91108C68.5962 1.91633 65.7746 1.88654 65.5607 1.85505C65.1304 1.79135 66.1633 1.68397 66.8079 1.67487ZM113.368 1.32349C113.981 1.50052 114.585 1.49815 114.021 1.706C114.02 1.706 114.019 1.706 114.019 1.706C115.571 1.76966 115.64 1.34442 115.975 1.35352C117.146 1.38544 116.037 1.6881 116.771 1.78748C115.063 1.69406 115.553 1.89813 114.254 1.91108C113.963 1.91388 112.797 1.79201 112.626 1.71607C112.456 1.6401 113.052 1.41238 113.368 1.32349ZM61.1136 1.63074C62.4742 1.56291 63.72 1.84983 61.8327 1.89533C60.9121 1.91773 60.2829 1.67204 61.1136 1.63074ZM197.125 1.55897C196.917 1.6342 196.703 1.70911 196.48 1.78364C196.982 1.80183 197.484 1.8204 197.986 1.83894C197.59 1.81514 197.192 1.7917 196.792 1.76826C197.735 1.74201 198.166 1.60516 197.127 1.55897C197.126 1.55897 197.125 1.55897 197.125 1.55897ZM230.672 1.50165C231.093 1.42921 231.924 1.65353 231.819 1.67103C231.025 1.80142 230.087 1.60209 230.672 1.50165ZM131.411 1.2898C132.979 1.25842 131.901 1.62314 130.94 1.64814C131.528 1.57839 130.522 1.30764 131.411 1.2898ZM218.874 1.51942C218.733 1.55077 218.592 1.58213 218.434 1.61353C218.93 1.56993 219.016 1.54061 218.874 1.51942ZM67.4489 1.35279C67.6881 1.3248 69.4576 1.30169 69.6966 1.33631C70.1926 1.4091 68.8126 1.61046 68.0006 1.54853C67.9106 1.54188 67.2109 1.38079 67.4526 1.35279C67.4514 1.35279 67.4501 1.35279 67.4489 1.35279ZM199.245 1.41926C199.242 1.42275 199.243 1.42608 199.248 1.42914C199.247 1.42589 199.247 1.42252 199.245 1.41926ZM265.894 1.04865C265.884 1.05431 265.879 1.05992 265.88 1.06531C265.884 1.06002 265.891 1.05445 265.894 1.04865ZM79.9285 1.04316C80.5174 0.695654 81.875 0.880485 80.8025 1.05231C80.7425 1.06134 80.0713 1.04247 79.9285 1.04316Z" fill="#419DDF"/>
</svg>
