<svg width="944" height="4" viewBox="0 0 944 4" fill="none" xmlns="http://www.w3.org/2000/svg">
<path opacity="0.5" d="M361.224 0.524234C322.951 0.516534 281.049 0.470268 242.623 0.530459C237.905 0.537813 238.228 0.638561 236.904 0.651859C233.286 0.688552 231.108 0.569712 228.47 0.578433C215.65 0.620425 203.657 0.637521 191.08 0.675662C178.125 0.714857 184.253 1.02802 179.751 1.10431C170.956 1.25372 178.437 0.845352 174.98 0.753666C164.897 0.778161 154.724 0.8224 144.623 0.867191C147.089 0.905321 149.556 0.942639 152.048 0.977971C147.646 0.986374 141.344 1.04941 148.717 1.15613C147.088 1.18553 145.567 1.21991 143.892 1.2486C143.433 1.09989 135.638 1.08792 134.925 0.99976C134.214 0.911572 138.597 0.931836 138.569 0.924137C138.279 0.814297 120.301 0.964442 119.005 0.976689C115.577 1.00928 118.582 1.19364 115.667 1.18177C110.652 1.16147 113.993 0.786358 107.204 1.28504C104.503 1.12304 104.268 1.20717 100.848 1.21839C100.398 1.21979 100.747 1.12599 100.549 1.12354C95.3732 1.05392 99.3519 1.22835 99.325 1.2378C98.8549 1.39831 93.3002 1.32696 92.1299 1.34235C77.4462 1.53411 66.6872 1.66394 51.1929 1.70838C47.8434 1.71783 37.6424 1.6527 34.4011 1.68C31.2044 1.70694 32.9196 1.82259 31.2465 1.87812C28.5649 1.5999 26.0065 1.56922 19.986 1.75251C17.7443 1.54956 18.0327 1.71327 13.7381 1.67268C10.1636 1.63905 3.9342 1.39559 0 1.6031C4.51068 1.5842 4.04358 1.6839 9.12152 1.74409C10.8117 1.76402 28.4386 1.76828 27.1269 1.97572C26.4426 2.08384 20.6008 1.98453 20.3749 2.00446C19.0604 2.12065 22.3211 2.26343 25.2111 2.21339C24.4909 2.18994 23.623 2.16616 22.8488 2.14271C29.3401 1.99748 24.8762 2.55527 29.8097 2.06782C30.4197 2.00803 30.1835 1.94568 31.1889 1.88215C31.3956 1.90843 30.1655 1.97357 31.2249 1.98524C32.3057 1.997 34.358 1.87331 34.664 1.97755C35.1213 2.12913 30.6437 2.06939 30.3066 2.07826C30.303 2.07734 30.2996 2.07642 30.2958 2.07551C27.3168 2.15599 33.5385 2.16517 33.8358 2.17951C35.7603 2.27396 34.4479 2.34668 37.336 2.42469C38.9836 2.46914 43.1804 2.44294 44.729 2.45729C46.2676 2.47199 43.8737 2.5437 44.9091 2.55909C45.9444 2.57449 47.2334 2.52 48.4489 2.53785C48.969 2.54572 48.9426 2.62569 49.1943 2.62849C51.8948 2.65926 50.1232 2.49291 52.5721 2.50306C54.1585 2.50981 59.4833 2.66488 55.8131 2.71107C57.5771 2.72716 59.2977 2.73894 61.0527 2.75154C59.9456 2.77533 58.8017 2.79149 57.7217 2.81947C61.0244 2.78138 62.519 2.91824 64.5889 2.92842C66.6596 2.93857 68.5159 2.77433 70.7936 2.85444C75.6555 3.02487 63.6168 2.94613 62.1222 2.97657C61.5396 2.98854 63.7763 3.11719 64.1208 3.12086C65.6507 3.13695 67.4606 3.04496 68.6401 3.04908C72.8627 3.06448 75.448 3.1859 79.4722 3.2104C93.1753 3.29369 110.174 3.36123 123.157 3.38783C127.992 3.39763 130.901 3.26112 133.071 3.26497C138.147 3.27408 138.769 3.39304 143.197 3.39937C149.787 3.40917 159.072 3.30531 164.573 3.28291C168.381 3.26751 171.829 3.38264 172.819 3.38545C186.585 3.42674 203.332 3.42415 214.739 3.42555C220.105 3.42625 222.652 3.29687 223.76 3.30067C228.522 3.31677 227.246 3.42738 231.106 3.41621C233.192 3.41027 233.582 3.30409 233.861 3.29994C236.319 3.26494 236.808 3.40361 238.726 3.40816C249.754 3.43439 260.378 3.34364 271.298 3.33034C272.09 3.32929 272.02 3.26786 272.533 3.27101C274.737 3.28609 273.712 3.38282 276.015 3.38985C280.805 3.40489 285.723 3.38891 290.801 3.37666C291.305 3.37545 291.531 3.29649 292.681 3.29646C293.833 3.29646 294.707 3.37132 296.516 3.36714C301.243 3.35629 305.908 3.26675 310.913 3.26185C311.742 3.26115 312.768 3.35628 314.01 3.35524C317.909 3.35209 323.681 3.26574 327.021 3.26259C338.041 3.25279 348.207 3.30693 358.588 3.30763C361.027 3.30759 363.189 3.21946 364.458 3.21736C367.319 3.21284 365.16 3.29611 368.059 3.29646C391.737 3.29856 415.507 3.2607 439.465 3.26735C448.873 3.2698 460.325 3.35596 469.418 3.33217C473.2 3.32201 473.885 3.20687 476.559 3.20582C481.329 3.20446 482.194 3.35206 487.226 3.36677C491.241 3.37832 495.843 3.23097 500.02 3.24006C504.198 3.24916 506.126 3.39229 510.924 3.40944C514.877 3.42342 520.395 3.35847 524.699 3.36897C564.133 3.46556 602.964 3.52435 642.641 3.41237C656.641 3.37282 672.174 3.39338 686.643 3.2527C688.002 3.23938 685.923 3.10116 690.28 3.1302C692.621 3.14595 695.889 3.26505 701.299 3.27101C733.468 3.306 767.781 3.05124 800.491 3.10164C849.487 3.17758 900.265 4.16117 942.841 2.72187C944.93 2.65119 943.797 2.30483 942.546 2.20643C941.385 2.27676 940.311 2.36028 939.096 2.43971C937.566 2.00693 937.836 2.11961 932.164 2.15846C928.672 2.18258 931.461 1.99749 929.6 1.94495C927.187 1.87706 915.858 1.66329 918.037 1.9499C917.335 1.90021 916.687 1.8526 916.003 1.80396C907.801 1.76057 899.832 1.68881 891.81 1.60657C890.425 1.5922 890.361 1.50227 888.93 1.48792C885.086 1.44874 882.034 1.50782 878.072 1.49872C875.921 1.49383 875.622 1.3899 872.804 1.39655C869.988 1.40324 870.049 1.54353 866.207 1.39106C868.71 1.21504 857.545 1.34276 853.574 1.33191C852.998 1.33052 848.272 1.17238 845.76 1.19056C843.239 1.2084 839.413 1.30942 835.515 1.25208C833.687 1.22514 832.578 1.10198 830.607 1.09498C829.22 1.09008 827.555 1.19954 825.799 1.20411C824.044 1.20865 820.247 1.1188 819.551 1.11731C817.04 1.11137 819.81 1.18833 818.093 1.1922C809.801 1.2097 800.167 1.25095 791.992 1.19916C790.987 1.19288 792.378 1.10221 792.244 1.09919C785.422 0.987931 789.063 1.10607 787.221 1.18726C785.436 1.26577 772.376 1.22294 772.28 1.06531C771.879 1.2627 768.976 1.11194 768.221 1.10615C765.287 1.08377 765.863 1.25455 763.018 1.20173C761.974 1.18249 764.007 1.06706 762.885 1.07044C760.112 1.07884 757.616 1.26428 753.925 1.28284C753.034 1.28739 752.744 1.20479 751.16 1.20759C749.573 1.21043 742.923 1.31149 745.992 1.13727C741.959 1.27688 741.147 1.20026 736.456 1.20411C735.268 1.20528 733.738 1.3384 731.21 1.29712C730.354 1.28312 730.38 1.1548 729.092 1.15375C726.148 1.15099 723.375 1.28382 719.639 1.28907C712.653 1.29921 705.216 1.20584 697.932 1.23908C695.952 1.2482 696.447 1.37721 693.568 1.37971C693.144 1.37971 689.677 1.26814 687.687 1.27863C686.49 1.28493 680.285 1.36334 679.034 1.36963C676.964 1.37973 676.595 1.25496 675.461 1.27936C672.184 1.3497 674.813 1.53336 670.87 1.28211C669.573 1.42139 667.269 1.40746 666.531 1.57893C665.189 1.39102 663.45 1.57156 660.848 1.50861C658.246 1.44562 656.113 1.08168 655.483 1.47327C654.267 1.42568 649.089 1.34446 648.216 1.33851C645.642 1.32172 647.018 1.43004 645.075 1.41541C644.733 1.41296 645.092 1.33889 642.897 1.3462C641.456 1.3511 630.902 1.35564 630.271 1.36579C623.081 1.48175 634.19 1.43925 635.745 1.51942C636.02 1.49836 636.291 1.47723 636.584 1.45643C639.762 1.42145 637.952 1.58879 636.512 1.62763C635.071 1.66646 632.38 1.59192 631.182 1.64686C630.586 1.67444 630.956 1.87507 632.76 1.85084C630.829 1.91263 633.466 1.97788 632.702 2.03596C631.863 2.09962 623.187 2.11922 623.141 2.00868C624.762 2.00483 626.778 2.00864 628.417 2.0041C630.56 1.81197 624.051 1.15586 618.082 1.41797C613.752 1.60764 620.89 1.75845 610.646 1.59925C612.221 1.59155 613.553 1.57361 614.985 1.56556C615.137 1.42148 612.815 1.5799 611.618 1.53406C611.043 1.51165 614.587 1.40963 611.51 1.37568C608.863 1.58172 606.827 1.37446 602.388 1.37202C603.622 1.40876 604.857 1.44532 606.09 1.48206C598.591 1.63149 616.01 1.68078 601.427 1.76441C603.182 1.77105 604.928 1.76929 606.692 1.77943C605.837 1.85503 607.205 2.07696 606.439 2.12385C604.432 2.24693 601.462 2.17273 599.014 2.18354C597.943 2.18809 598.607 2.24801 598.517 2.24836C597.05 2.255 597.374 2.16717 596.086 2.16157C594.466 2.15458 589.787 2.23996 589.028 2.23023C587.066 2.20539 590.334 2.03206 590.145 2.01911C588.893 1.93516 586.337 2.00478 586.471 1.89497C592.622 1.97054 610.345 1.87352 594.311 1.6919C598.732 1.51448 597.455 1.26987 591.099 1.25062C585.841 1.23452 589.234 1.33253 586.497 1.44031C586.143 1.45381 579.101 1.50534 578.74 1.42914C579.022 1.60464 576.73 1.76005 578.268 1.94111C578.493 1.96771 581.383 1.95721 580.375 2.10279C579.871 2.17592 578.424 2.33508 578.657 2.42817C578.063 2.36344 577.442 2.29062 576.839 2.22309C572.508 2.2042 571.893 2.27393 569.525 2.39466C569.633 2.34427 571.821 2.13252 568.499 2.19691C568.328 2.20076 568.181 2.27676 566.493 2.31446C563.081 2.39004 562.369 2.41355 564.987 2.63673C557.922 2.50943 556.4 2.75817 549.154 2.68544C550.594 2.39853 553.142 2.46956 559.777 2.52485C560.065 2.45662 560.2 2.38907 560.497 2.32014C551.665 2.4748 556.03 2.45905 551.026 2.32051C549.802 2.28656 543.273 2.32288 545.452 2.12971C545.966 2.08426 550.022 2.08949 549.557 2.01783C549.467 2.00419 544.536 1.96947 544.101 1.98798C538.645 2.2165 548.395 2.37577 533.37 2.29249C532.956 2.29004 532.811 2.20652 532.002 2.19489C530.48 2.1732 530.461 2.26996 529.103 2.24763C527.743 2.22523 525.86 2.09509 523.816 2.2154C520.08 2.43447 528.894 2.56047 532.819 2.44428C534.413 2.73055 506.367 2.73685 504.63 2.71235C497.042 2.60564 509.669 2.66724 510.32 2.58784C510.59 2.55425 510.455 2.12842 513.651 2.40473C514.596 2.48662 510.645 2.59451 513.002 2.63966C515.361 2.6848 514.427 2.55942 514.598 2.55067C515.184 2.52068 517.693 2.56717 518.019 2.54939C523.025 2.27957 522.565 1.87186 515.93 2.47413C513.04 2.338 519.674 2.12102 516.081 2.02863C511.715 1.91634 508.528 2.11052 507.979 2.11927C501.399 2.22281 508.986 1.93935 500.95 2.02992C496.475 2.08031 507.646 2.21857 497.428 2.20002C488.874 2.18427 493.494 2.08559 492.872 1.86127C492.726 1.80879 488.039 1.74443 494.421 1.76752C494.601 1.82596 494.941 1.90297 495.346 1.95686C496.912 1.91419 499.521 1.62174 500.352 1.61152C504.412 1.56288 504.216 1.71467 506.61 1.5359C504.9 1.73147 507.684 1.61362 508.728 1.65491C512.606 1.8071 507.521 1.86368 516.225 1.6681C515.091 1.75979 514.065 1.84977 512.966 1.94111C514.01 1.94426 515.055 1.94748 516.099 1.95063C517.657 1.74871 523.204 1.77454 518.181 1.57123C524.221 1.5135 526.663 1.55752 527.986 1.71461C528.238 1.7446 529.146 1.75658 530.212 1.75947C530.01 1.80364 529.752 1.94012 529.92 1.95686C531.423 2.10406 533.754 1.84976 532.96 1.75269C533.705 1.74805 534.296 1.7426 534.504 1.74024C535.826 1.72517 533.235 1.6374 534.306 1.60731C534.659 1.59753 538.383 1.61662 538.455 1.58094C538.904 1.35218 532.776 1.51722 545.081 1.38428C545.378 1.59251 539.663 1.54672 541.13 1.76789C542.706 2.00549 545.92 1.68677 546.622 1.97828C546.883 1.93035 546.998 1.89039 547.223 1.83582C552.201 1.96283 552.267 1.72005 553.788 1.66645C556.741 1.56181 570.318 1.57753 558.127 1.78785C559.91 1.80885 561.73 1.81856 563.504 1.8371C563.909 1.40186 562.829 1.5751 571.372 1.50861C573.254 1.49392 573.866 1.30249 575.711 1.52985C575.461 1.30683 581.026 1.44156 581.545 1.4145C584.876 1.23848 572.508 0.99347 570.922 1.38776C568.834 1.23425 568.842 1.43718 566.511 1.41028C563.143 1.37144 562.676 1.33192 558.678 1.4817C554.744 1.27067 574.081 1.38885 562.359 1.10889C550.633 0.828952 482.357 0.672797 466.43 0.630801C437.574 0.554862 422.402 0.505228 396.482 0.517825C393.925 0.518875 374.624 0.498641 378.635 0.742496C379.211 0.777491 387.514 0.870233 380.393 1.06165C381.841 0.948631 377.654 0.875244 377.303 0.863346C369.245 0.593191 373.91 0.527033 361.224 0.524234ZM323.618 2.69917C340.174 2.64353 328.011 2.80655 331.45 3.1747C329.326 3.17575 327.208 3.17676 325.084 3.17781C325.642 3.15471 326.193 3.13169 326.751 3.10859C326.753 3.10859 326.756 3.10859 326.758 3.10859C325.714 2.97213 324.662 2.83563 323.618 2.69917ZM52.9647 2.94563C53.6106 2.9941 54.249 3.04267 54.9489 3.0901C57.1363 3.07506 59.3154 3.06028 61.5028 3.04524C61.2417 3.01235 60.9896 2.97907 60.7286 2.94618C58.1409 2.94758 55.5612 2.9491 52.9647 2.94563ZM535.135 2.49757C538.231 2.36286 537.952 2.60326 542.067 2.49372C541.562 2.67113 541.003 2.84468 540.471 3.02034C537.34 2.99409 536.628 2.92662 533.226 2.96998C533.622 2.91296 534.027 2.8556 534.414 2.79823C534.981 2.81046 535.584 2.82438 536.132 2.83522C537.005 2.67566 531.569 2.65185 535.124 2.4972C535.127 2.49732 535.131 2.49745 535.135 2.49757ZM566.871 2.56898C568.536 2.54588 575.135 2.45905 576.036 2.53254C579.088 2.78171 560.471 2.62358 574.192 2.8451C574.129 2.88006 574.192 2.91432 574.192 2.94893C571.689 2.96117 569.194 2.97172 566.673 2.98152C566.808 2.84366 566.718 2.70754 566.871 2.56898ZM383.5 2.71455C386.06 2.69535 398.264 2.81255 394.286 2.97035C393.115 3.01654 387.667 2.79081 385.596 2.80061C384.255 2.80693 385.758 2.93069 383.111 2.8852C383.228 2.83065 383.301 2.77017 383.508 2.71492C383.505 2.71479 383.503 2.71467 383.5 2.71455ZM378.7 1.99439C381.347 2.01644 384.03 2.04437 386.695 2.06782C384.75 2.20882 380.924 2.11825 380.699 2.31666C381.428 2.3317 382.148 2.34666 382.877 2.3617C383.436 2.31832 383.985 2.2749 384.534 2.23152C386.821 2.3393 385.436 2.39285 389.694 2.3617C387.119 2.66161 386.641 2.82258 379.348 2.51918C380.726 2.6819 379.429 3.2121 375.387 2.8332C374.631 2.76286 377.789 2.71586 377.825 2.70466C378.311 2.56543 376.558 2.47657 377.08 2.34504C377.314 2.28555 379.24 2.28646 379.528 2.20387C379.661 2.16358 377.829 2.04863 378.7 1.99439ZM373.425 2.70045C374.244 2.78478 371.444 2.98492 369.013 2.94435C365.223 2.88136 371.201 2.691 373.425 2.70045ZM52.9503 2.94545C52.9551 2.94551 52.9598 2.94557 52.9647 2.94563C52.9623 2.94545 52.9598 2.94526 52.9575 2.94508C52.9551 2.9452 52.9526 2.94532 52.9503 2.94545ZM558.282 2.66658C560.245 2.73827 563.149 2.72782 562.935 2.84181C563.889 2.81941 564.854 2.79737 565.809 2.77497C565.799 2.80925 565.781 2.84359 565.773 2.87751C562.901 2.89886 560.038 2.92027 557.166 2.94197C557.526 2.85029 557.859 2.75826 558.282 2.66658ZM589.568 2.58674C593.178 2.57521 590.152 2.7303 590.944 2.80519C591.736 2.88008 594.952 2.81915 594.574 2.92659C592.449 2.93079 590.233 2.93501 588.081 2.93885C588.648 2.82197 589.044 2.70293 589.576 2.58674C589.573 2.58674 589.571 2.58674 589.568 2.58674ZM256.047 2.8213C258.496 2.7877 257.497 2.66936 262.331 2.80793C262.328 2.80793 262.324 2.80793 262.32 2.80793C257.72 2.90485 251.798 2.99123 246.721 2.89747C249.826 2.77262 252.194 2.87379 256.047 2.8213ZM526.571 2.84675C525.537 2.75298 530.352 2.67466 531.415 2.76179C533.134 2.90281 528.147 2.98918 526.571 2.84675ZM157.144 1.99073C153.419 1.70204 160.477 1.378 167.868 1.51795C168.507 1.5302 163.735 1.62201 165.149 1.67835C165.292 1.6839 167.911 1.67702 168.559 1.71717C169.207 1.75741 168.527 1.85083 169.589 1.89002C171.453 1.95852 175.666 1.8316 177.061 1.92152C177.245 1.93357 174.633 2.0585 174.469 2.06324C171.786 2.13882 169.201 1.97552 168.786 1.97443C166.652 1.96884 166.975 2.09687 166.435 2.12696C165.417 2.18356 163.626 2.12698 163.5 2.13117C160.262 2.24346 167.661 2.21133 168.66 2.25752C171.352 2.38209 168.86 2.49791 175.315 2.56825C175.928 2.57487 183.265 2.56735 174.018 2.7107C192.175 3.00953 164.895 2.88068 161.933 2.81489C160.568 2.78439 162.635 2.66235 161.807 2.60743C159.917 2.48182 156.694 2.45967 156.982 2.2826C157.603 1.91034 161.836 2.15426 164.753 2.09162C164.447 2.01078 164.33 1.93194 163.763 1.85285C164.636 1.95924 157.414 2.01246 157.144 1.99146C157.144 1.99122 157.144 1.99098 157.144 1.99073ZM203.108 2.41609C207.187 2.30375 206.898 2.53875 210.634 2.40437C213.929 2.61538 207.43 2.60121 206.673 2.61311C203.216 2.66629 203.296 2.89574 199.759 2.82515C200.974 2.68938 201.965 2.5522 203.108 2.41609ZM167.634 2.51295C170.362 2.63193 165.48 2.62991 165.282 2.65266C163.127 2.894 177.743 2.8471 167.634 2.51295ZM399.388 2.24177C400.774 2.23372 399.895 2.34764 401.117 2.3813C402.341 2.41523 406.526 2.31774 406.421 2.38862C406.313 2.45966 398.644 2.64389 406.342 2.68379C406.081 2.72366 406.169 2.75341 406.043 2.78944C403.927 2.79049 401.792 2.79224 399.676 2.79329C400.838 2.67851 402.028 2.55777 403.144 2.44685C401.956 2.35551 401.288 2.47267 401.225 2.47267C401.225 2.47254 401.225 2.47242 401.225 2.4723C399.011 2.46311 396.276 2.25967 399.388 2.24177ZM290.279 2.59938C289.865 2.31416 293.133 2.6327 294.475 2.66804C295.816 2.70326 297.659 2.59768 296.966 2.72041C294.797 2.80509 290.324 2.6312 290.279 2.59901C290.279 2.59913 290.279 2.59925 290.279 2.59938ZM225.265 2.41664C228.684 2.48587 228.141 2.56001 232.324 2.47541C232.161 2.54435 231.999 2.6148 231.837 2.68269C228.515 2.68409 228.749 2.48396 224.905 2.5644C224.275 2.5777 225.625 2.73755 222.781 2.68617C223.608 2.60085 224.447 2.50616 225.265 2.41664ZM242.208 2.67225C238.283 2.66173 235.17 2.10387 242.399 2.35548C243.471 2.39309 245.161 2.6803 242.208 2.67225ZM363.18 2.22767C369.857 2.21159 362.271 2.30161 360.533 2.38734C376.078 2.45591 358.778 2.36388 357.227 2.649C355.327 2.56781 351.773 2.38213 355.722 2.33241C357.369 2.31176 356.768 2.39666 356.867 2.39631C359.901 2.37531 359.533 2.23642 363.18 2.22767ZM196.021 2.40235C196.273 2.40655 195.879 2.50286 196.68 2.5221C197.482 2.54121 199.298 2.47381 199.478 2.53291C199.657 2.59237 196.015 2.63849 194.898 2.59516C193.781 2.55142 193.743 2.36527 196.021 2.40235ZM221.646 2.16505C224.982 2.23435 219.527 2.58913 218.801 2.58747C212.427 2.56893 221.835 2.27738 221.646 2.16505ZM347.673 1.62507C355.722 1.80529 349.834 2.11846 344.792 2.30604C344.127 2.26792 343.443 2.22974 342.787 2.19196C345.812 2.42363 351.113 2.65262 339.319 2.45069C345.774 2.39617 340.369 2.33394 340.327 2.32087C339.616 1.89533 349.179 2.09295 347.666 1.62507C347.669 1.62507 347.671 1.62507 347.673 1.62507ZM185.171 2.50379C181.668 2.50238 172.56 2.42887 176.809 2.24342C179.6 2.33019 182.38 2.41702 185.171 2.50379ZM479.447 1.64997C482.311 1.54393 484.95 1.54574 488.479 1.55274C485.301 1.70706 487.39 1.72479 488.461 1.76258C490.086 1.81947 486.149 1.81481 486.138 1.8252C486.21 1.97182 488.721 1.99459 483.005 1.9911C484.418 2.04217 485.813 2.09363 487.226 2.14436C482.869 2.15102 481.844 2.24667 479.08 2.36354C481.763 2.07799 478.231 2.25677 475.025 2.11469C473.426 2.04356 477.991 1.7042 479.458 1.64997C479.455 1.64997 479.451 1.64997 479.447 1.64997ZM355.992 1.56776C356.82 1.61919 357.578 1.68878 358.379 1.74757C359.252 1.75317 360.128 1.75808 361.001 1.76368C361.109 1.7182 361.199 1.67063 361.325 1.6269C362.476 1.61366 362.027 1.67698 362.369 1.68293C362.369 1.68269 362.369 1.68244 362.369 1.6822C367.274 1.76614 369.283 1.7567 373.126 1.6161C373.126 1.75544 373.126 1.89478 373.126 2.03413C372.262 2.02084 371.389 2.00788 370.526 1.99494C370.067 1.92007 369.605 1.84515 369.146 1.77027C368.147 1.81157 367.157 1.85257 366.158 1.89387C365.357 1.86694 364.395 1.83861 363.702 1.81239C359.714 2.20186 368.777 1.93727 368.858 2.09895C368.912 2.20288 359.784 2.19833 358.469 2.1266C358.28 2.1161 360.253 1.82608 356.914 1.97718C356.391 2.00098 356.208 2.62842 352.607 2.12037C352.094 2.0483 353.885 1.65851 355.992 1.56776ZM389.136 1.36542C384.004 1.76681 402.945 1.34238 394.772 1.67268C397.103 1.85707 396.67 1.85467 394.322 2.01838C394.115 2.03305 395.738 2.08372 395.6 2.09016C393.403 2.18045 390.756 2.13257 390.739 2.2967C390.145 2.28796 389.586 2.28018 388.992 2.27143C391.466 2.11678 387.532 2.01285 386.01 1.88233C385.317 1.82322 386.91 1.80498 386.327 1.75324C386.111 1.73435 383.887 1.77206 383.796 1.7179C383.607 1.59542 385.004 1.42989 387.372 1.33961C387.372 1.33948 387.372 1.33936 387.372 1.33924C387.965 1.34728 388.542 1.35703 389.136 1.36542ZM279.454 1.69886C278.581 1.92073 275.081 1.98424 281.806 2.09272C281.473 2.13642 281.13 2.17976 280.798 2.22346C279.664 2.21961 278.565 2.21579 277.413 2.21229C273.955 1.55865 267.645 2.29629 271.687 1.83271C272.128 1.78232 274.818 1.83862 272.162 1.70179C272.166 1.70167 272.169 1.70155 272.173 1.70142C275.881 1.74342 276.349 1.82203 279.454 1.69886ZM304.277 1.85358C312.83 2.32042 292.458 2.11406 295.861 1.99018C296.167 1.97898 304.943 2.0793 304.277 1.85358ZM235.644 1.44727C239.478 1.43923 239.732 1.6911 239.346 1.78181C238.958 1.87278 236.303 1.78085 235.961 1.79517C234.844 1.84242 237.212 1.87362 235.763 1.93836C235.282 1.95939 228.603 2.04918 228.298 2.03834C226.598 1.97809 229.082 1.77026 228.596 1.74647C227.012 1.66847 224.861 1.77659 224.401 1.66608C223.411 1.4303 227.422 1.67781 228.099 1.68183C230.143 1.69303 229.965 1.56029 231.495 1.5337C233.025 1.50715 234.024 1.55262 235.374 1.54322C235.823 1.54008 235.449 1.44811 235.644 1.44727ZM248.323 1.9792C244.318 1.78852 254.07 1.58116 255.226 1.6258C258.63 1.75843 250.241 2.07018 248.323 1.9792ZM376.287 1.97114C372.624 1.83292 381.158 1.72104 383.598 1.77668C383.145 1.83412 377.548 2.01872 376.287 1.97114ZM345.441 1.6258C348.808 1.66884 344.342 1.98025 341.533 1.97535C339.887 1.7707 341.436 1.81126 343.273 1.80286C345.107 1.79439 342.814 1.59227 345.441 1.6258ZM194.051 1.67487C194.778 1.67162 206.486 1.84078 199.759 1.91108C199.246 1.91633 191.05 1.88654 190.429 1.85505C189.179 1.79135 192.179 1.68397 194.051 1.67487ZM329.29 1.32349C331.072 1.50052 332.826 1.49815 331.188 1.706C331.185 1.706 331.183 1.706 331.18 1.706C335.69 1.76966 335.891 1.34442 336.863 1.35352C340.264 1.38544 337.041 1.6881 339.175 1.78748C334.214 1.69406 335.637 1.89813 331.865 1.91108C331.018 1.91388 327.631 1.79201 327.136 1.71607C326.642 1.6401 328.372 1.41238 329.29 1.32349ZM177.512 1.63074C181.464 1.56291 185.082 1.84983 179.6 1.89533C176.926 1.91773 175.099 1.67204 177.512 1.63074ZM572.571 1.55897C571.968 1.6342 571.347 1.70911 570.699 1.78364C572.157 1.80183 573.616 1.8204 575.074 1.83894C573.922 1.81514 572.768 1.7917 571.606 1.76826C574.343 1.74201 575.595 1.60516 572.579 1.55897C572.576 1.55897 572.574 1.55897 572.571 1.55897ZM670.013 1.50165C671.237 1.42921 673.65 1.65353 673.344 1.67103C671.04 1.80142 668.313 1.60209 670.013 1.50165ZM381.7 1.2898C386.252 1.25842 383.122 1.62314 380.331 1.64814C382.039 1.57839 379.117 1.30764 381.7 1.2898ZM635.745 1.51942C635.336 1.55077 634.924 1.58213 634.467 1.61353C635.907 1.56993 636.156 1.54061 635.745 1.51942ZM195.913 1.35279C196.608 1.3248 201.748 1.30169 202.442 1.33631C203.882 1.4091 199.874 1.61046 197.516 1.54853C197.255 1.54188 195.221 1.38079 195.924 1.35279C195.92 1.35279 195.917 1.35279 195.913 1.35279ZM578.729 1.41926C578.721 1.42275 578.725 1.42608 578.74 1.42914C578.735 1.42589 578.736 1.42252 578.729 1.41926ZM772.32 1.04865C772.292 1.05431 772.277 1.05992 772.28 1.06531C772.291 1.06002 772.312 1.05445 772.32 1.04865ZM232.161 1.04316C233.872 0.695654 237.815 0.880485 234.7 1.05231C234.526 1.06134 232.576 1.04247 232.161 1.04316Z" fill="#419DDF"/>
</svg>
