<svg width="364" height="18" viewBox="0 0 364 18" fill="none" xmlns="http://www.w3.org/2000/svg">
<path d="M220.855 15.0191C234.538 15.014 249.519 14.9831 263.257 15.0232C264.944 15.0281 264.829 15.0953 265.302 15.1042C266.595 15.1286 267.374 15.0494 268.317 15.0552C272.9 15.0832 277.188 15.0946 281.685 15.12C286.317 15.1462 284.126 15.355 285.735 15.4058C288.88 15.5054 286.205 15.2332 287.441 15.172C291.046 15.1884 294.683 15.2179 298.294 15.2477C297.413 15.2732 296.531 15.298 295.64 15.3216C297.214 15.3272 299.466 15.3692 296.83 15.4404C297.413 15.46 297.957 15.4829 298.556 15.502C298.72 15.4029 301.507 15.3949 301.761 15.3361C302.016 15.2773 300.449 15.2908 300.458 15.2857C300.562 15.2125 306.99 15.3126 307.453 15.3207C308.679 15.3425 307.604 15.4654 308.647 15.4574C310.44 15.4439 309.245 15.1938 311.672 15.5263C312.638 15.4183 312.722 15.4744 313.945 15.4819C314.106 15.4828 313.981 15.4203 314.052 15.4186C315.902 15.3722 314.48 15.4885 314.489 15.4948C314.657 15.6018 316.643 15.5542 317.062 15.5645C322.311 15.6923 326.158 15.7789 331.697 15.8085C332.895 15.8148 336.542 15.7714 337.701 15.7896C338.844 15.8076 338.231 15.8847 338.829 15.9217C339.787 15.7362 340.702 15.7157 342.855 15.8379C343.656 15.7026 343.553 15.8118 345.088 15.7847C346.366 15.7623 348.593 15.6 350 15.7383C348.387 15.7257 348.554 15.7922 346.739 15.8323C346.135 15.8456 339.833 15.8485 340.302 15.9867C340.546 16.0588 342.635 15.9926 342.716 16.0059C343.185 16.0834 342.02 16.1786 340.986 16.1452C341.244 16.1296 341.554 16.1137 341.831 16.0981C339.51 16.0013 341.106 16.3731 339.342 16.0481C339.124 16.0083 339.209 15.9667 338.849 15.9244C338.775 15.9419 339.215 15.9853 338.836 15.9931C338.45 16.0009 337.716 15.9185 337.607 15.988C337.443 16.089 339.044 16.0492 339.165 16.0551C339.166 16.0545 339.167 16.0539 339.169 16.0533C340.234 16.1069 338.009 16.113 337.903 16.1226C337.215 16.1856 337.684 16.2341 336.652 16.2861C336.063 16.3157 334.562 16.2982 334.008 16.3078C333.458 16.3176 334.314 16.3654 333.944 16.3757C333.574 16.3859 333.113 16.3496 332.678 16.3615C332.493 16.3668 332.502 16.4201 332.412 16.4219C331.447 16.4424 332.08 16.3315 331.204 16.3383C330.637 16.3428 328.734 16.4462 330.046 16.477C329.415 16.4877 328.8 16.4956 328.172 16.504C328.568 16.5198 328.977 16.5306 329.363 16.5493C328.182 16.5239 327.648 16.6151 326.908 16.6219C326.168 16.6286 325.504 16.5192 324.69 16.5726C322.952 16.6862 327.256 16.6337 327.79 16.654C327.998 16.662 327.199 16.7477 327.075 16.7502C326.528 16.7609 325.881 16.6996 325.46 16.7023C323.95 16.7126 323.026 16.7935 321.587 16.8099C316.688 16.8654 310.61 16.9104 305.969 16.9282C304.24 16.9347 303.2 16.8437 302.424 16.8462C300.61 16.8523 300.387 16.9316 298.804 16.9358C296.448 16.9424 293.128 16.8731 291.162 16.8582C289.8 16.8479 288.568 16.9247 288.213 16.9266C283.292 16.9541 277.304 16.9524 273.226 16.9533C271.308 16.9538 270.397 16.8675 270.001 16.8701C268.298 16.8808 268.755 16.9545 267.375 16.9471C266.629 16.9431 266.489 16.8723 266.39 16.8696C265.511 16.8462 265.336 16.9387 264.65 16.9417C260.707 16.9592 256.909 16.8987 253.005 16.8898C252.722 16.8891 252.747 16.8482 252.564 16.8503C251.776 16.8603 252.142 16.9248 251.319 16.9295C249.606 16.9395 247.848 16.9289 246.032 16.9207C245.852 16.9199 245.772 16.8673 245.36 16.8672C244.948 16.8672 244.636 16.9171 243.989 16.9144C242.299 16.9071 240.632 16.8474 238.842 16.8442C238.546 16.8437 238.179 16.9071 237.735 16.9064C236.341 16.9043 234.277 16.8468 233.083 16.8447C229.143 16.8381 225.508 16.8742 221.797 16.8747C220.925 16.8747 220.152 16.8159 219.699 16.8145C218.676 16.8115 219.447 16.867 218.411 16.8672C209.946 16.8686 201.447 16.8434 192.882 16.8478C189.518 16.8495 185.424 16.9069 182.173 16.891C180.821 16.8843 180.576 16.8075 179.62 16.8068C177.915 16.8059 177.605 16.9043 175.806 16.9141C174.371 16.9218 172.726 16.8236 171.232 16.8296C169.739 16.8357 169.049 16.9311 167.334 16.9426C165.921 16.9519 163.948 16.9086 162.409 16.9156C148.311 16.98 134.428 17.0192 120.242 16.9445C115.237 16.9182 109.683 16.9319 104.511 16.8381C104.025 16.8292 104.768 16.737 103.21 16.7564C102.373 16.7669 101.205 16.8463 99.2707 16.8503C87.7696 16.8736 75.5019 16.7038 63.8076 16.7374C46.2906 16.788 28.1363 17.4437 12.9142 16.4842C12.1676 16.4371 12.5725 16.2062 13.0198 16.1406C13.435 16.1874 13.8188 16.2431 14.2532 16.2961C14.8003 16.0076 14.7038 16.0827 16.7316 16.1086C17.98 16.1247 16.9828 16.0013 17.6482 15.9662C18.5109 15.921 22.5612 15.7785 21.7823 15.9695C22.0333 15.9364 22.2651 15.9047 22.5097 15.8722C25.442 15.8433 28.2909 15.7955 31.1589 15.7407C31.6543 15.7311 31.6771 15.6711 32.1888 15.6616C33.5632 15.6354 34.6543 15.6748 36.0705 15.6688C36.8398 15.6655 36.9466 15.5962 37.9541 15.6006C38.961 15.6051 38.9389 15.6986 40.3127 15.597C39.4179 15.4796 43.4095 15.5648 44.8291 15.5575C45.0351 15.5566 46.7248 15.4512 47.6229 15.4633C48.5241 15.4752 49.8922 15.5426 51.2857 15.5043C51.9392 15.4864 52.3357 15.4043 53.0406 15.3996C53.5362 15.3963 54.1317 15.4693 54.7593 15.4723C55.3867 15.4754 56.7443 15.4155 56.9931 15.4145C57.891 15.4105 56.9004 15.4618 57.5145 15.4644C60.479 15.4761 63.9233 15.5036 66.846 15.469C67.2053 15.4649 66.7082 15.4044 66.7559 15.4024C69.1952 15.3282 67.8932 15.407 68.5519 15.4611C69.19 15.5134 73.8592 15.4849 73.8936 15.3798C74.037 15.5114 75.0749 15.4109 75.3445 15.407C76.3937 15.3921 76.1879 15.506 77.2049 15.4708C77.5781 15.4579 76.8515 15.381 77.2526 15.3832C78.2439 15.3888 79.1361 15.5125 80.4558 15.5248C80.7744 15.5279 80.878 15.4728 81.4445 15.4747C82.0117 15.4766 84.3892 15.5439 83.292 15.4278C84.734 15.5209 85.0242 15.4698 86.7012 15.4723C87.1261 15.4731 87.673 15.5619 88.5771 15.5344C88.8828 15.525 88.8738 15.4395 89.3341 15.4388C90.3865 15.4369 91.378 15.5255 92.7137 15.529C95.2115 15.5357 97.8705 15.4735 100.474 15.4957C101.182 15.5017 101.006 15.5877 102.035 15.5894C102.186 15.5894 103.426 15.515 104.137 15.522C104.565 15.5262 106.784 15.5785 107.231 15.5827C107.971 15.5894 108.103 15.5062 108.508 15.5225C109.68 15.5694 108.74 15.6918 110.15 15.5243C110.613 15.6172 111.437 15.6079 111.701 15.7222C112.181 15.5969 112.803 15.7173 113.733 15.6753C114.663 15.6334 115.426 15.3907 115.651 15.6518C116.086 15.6201 117.937 15.5659 118.249 15.5619C119.169 15.5508 118.677 15.623 119.372 15.6132C119.494 15.6116 119.366 15.5622 120.151 15.5671C120.666 15.5703 124.439 15.5734 124.665 15.5801C127.236 15.6574 123.264 15.6291 122.708 15.6825C122.61 15.6685 122.512 15.6544 122.408 15.6406C121.272 15.6172 121.918 15.7288 122.433 15.7547C122.948 15.7806 123.911 15.7309 124.339 15.7675C124.552 15.7859 124.42 15.9196 123.775 15.9035C124.465 15.9447 123.523 15.9882 123.796 16.0269C124.096 16.0694 127.197 16.0824 127.214 16.0087C126.634 16.0062 125.913 16.0087 125.328 16.0057C124.562 15.8776 126.889 15.4402 129.023 15.6149C130.571 15.7414 128.019 15.8419 131.681 15.7358C131.118 15.7306 130.642 15.7187 130.13 15.7133C130.075 15.6173 130.906 15.7229 131.334 15.6923C131.539 15.6774 130.272 15.6094 131.372 15.5867C132.319 15.7241 133.047 15.5859 134.633 15.5843C134.192 15.6088 133.751 15.6331 133.31 15.6576C135.991 15.7573 129.763 15.7901 134.977 15.8459C134.35 15.8503 133.726 15.8491 133.095 15.8559C133.401 15.9063 132.911 16.0542 133.185 16.0855C133.903 16.1676 134.964 16.1181 135.84 16.1253C136.223 16.1283 135.985 16.1683 136.017 16.1685C136.542 16.1729 136.426 16.1144 136.886 16.1106C137.466 16.106 139.139 16.1629 139.41 16.1564C140.112 16.1399 138.943 16.0243 139.011 16.0157C139.458 15.9597 140.372 16.0061 140.324 15.9329C138.125 15.9833 131.789 15.9186 137.521 15.7975C135.941 15.6793 136.397 15.5162 138.67 15.5033C140.549 15.4926 139.336 15.558 140.315 15.6298C140.441 15.6388 142.959 15.6732 143.088 15.6224C142.987 15.7394 143.807 15.843 143.257 15.9637C143.176 15.9814 142.143 15.9744 142.504 16.0715C142.684 16.1202 143.201 16.2263 143.118 16.2884C143.33 16.2452 143.552 16.1967 143.768 16.1517C145.316 16.1391 145.536 16.1856 146.383 16.266C146.344 16.2325 145.562 16.0913 146.75 16.1342C146.811 16.1368 146.863 16.1874 147.467 16.2126C148.687 16.263 148.941 16.2786 148.005 16.4274C150.531 16.3426 151.075 16.5084 153.666 16.4599C153.151 16.2686 152.24 16.316 149.868 16.3528C149.765 16.3073 149.717 16.2623 149.61 16.2164C152.768 16.3195 151.208 16.309 152.996 16.2166C153.434 16.194 155.768 16.2182 154.989 16.0894C154.806 16.0591 153.355 16.0626 153.522 16.0148C153.554 16.0057 155.317 15.9826 155.472 15.9949C157.423 16.1473 153.937 16.2534 159.309 16.1979C159.457 16.1963 159.509 16.1406 159.798 16.1329C160.342 16.1184 160.349 16.1829 160.835 16.168C161.321 16.1531 161.994 16.0663 162.725 16.1465C164.06 16.2926 160.909 16.3766 159.506 16.2991C158.936 16.49 168.963 16.4942 169.584 16.4778C172.297 16.4067 167.783 16.4478 167.55 16.3948C167.453 16.3724 167.501 16.0886 166.359 16.2728C166.021 16.3273 167.434 16.3993 166.591 16.4294C165.747 16.4595 166.082 16.3759 166.02 16.3701C165.811 16.3501 164.914 16.3811 164.797 16.3692C163.008 16.1893 163.172 15.9175 165.544 16.319C166.577 16.2283 164.206 16.0836 165.49 16.022C167.051 15.9472 168.19 16.0766 168.387 16.0825C170.739 16.1515 168.027 15.9625 170.9 16.0229C172.5 16.0565 168.506 16.1486 172.159 16.1363C175.217 16.1258 173.566 16.06 173.788 15.9105C173.84 15.8755 175.516 15.8326 173.234 15.848C173.17 15.8869 173.048 15.9382 172.903 15.9742C172.344 15.9457 171.411 15.7508 171.114 15.7439C169.662 15.7115 169.732 15.8127 168.876 15.6935C169.487 15.8239 168.492 15.7454 168.119 15.7729C166.733 15.8743 168.551 15.9121 165.439 15.7817C165.844 15.8428 166.211 15.9028 166.604 15.9637C166.23 15.9658 165.857 15.9679 165.484 15.97C164.927 15.8354 162.944 15.8526 164.739 15.7171C162.58 15.6786 161.707 15.708 161.234 15.8127C161.144 15.8327 160.819 15.8407 160.438 15.8426C160.51 15.872 160.602 15.963 160.542 15.9742C160.005 16.0723 159.172 15.9028 159.456 15.8381C159.189 15.835 158.978 15.8313 158.903 15.8298C158.431 15.8197 159.357 15.7612 158.974 15.7411C158.848 15.7346 157.517 15.7474 157.491 15.7236C157.331 15.5711 159.521 15.6811 155.122 15.5925C155.016 15.7313 157.059 15.7008 156.534 15.8482C155.971 16.0066 154.822 15.7941 154.571 15.9885C154.478 15.9565 154.436 15.9299 154.356 15.8935C152.576 15.9782 152.553 15.8163 152.009 15.7806C150.953 15.7108 146.099 15.7213 150.458 15.8615C149.82 15.8755 149.17 15.882 148.535 15.8943C148.391 15.6042 148.777 15.7197 145.722 15.6753C145.05 15.6655 144.831 15.5379 144.171 15.6895C144.261 15.5408 142.271 15.6306 142.085 15.6126C140.894 15.4953 145.316 15.3319 145.883 15.5948C146.63 15.4924 146.627 15.6277 147.46 15.6098C148.664 15.5839 148.831 15.5575 150.261 15.6574C151.667 15.5167 144.754 15.5955 148.945 15.4089C153.137 15.2222 177.547 15.1181 183.242 15.0901C193.558 15.0395 198.982 15.0064 208.249 15.0148C209.163 15.0155 216.064 15.002 214.63 15.1646C214.424 15.1879 211.456 15.2498 214.002 15.3774C213.484 15.302 214.981 15.2531 215.106 15.2452C217.987 15.0651 216.319 15.021 220.855 15.0191ZM234.3 16.469C228.38 16.432 232.729 16.5406 231.499 16.7861C232.259 16.7868 233.016 16.7874 233.776 16.7881C233.576 16.7727 233.379 16.7574 233.18 16.742C233.179 16.742 233.178 16.742 233.177 16.742C233.55 16.651 233.926 16.56 234.3 16.469ZM331.064 16.6334C330.833 16.6657 330.605 16.6981 330.355 16.7297C329.573 16.7196 328.793 16.7098 328.011 16.6998C328.105 16.6778 328.195 16.6556 328.288 16.6337C329.213 16.6347 330.136 16.6357 331.064 16.6334ZM158.678 16.3346C157.571 16.2448 157.671 16.4051 156.2 16.3321C156.38 16.4504 156.58 16.5661 156.77 16.6832C157.89 16.6657 158.144 16.6207 159.36 16.6496C159.219 16.6116 159.074 16.5733 158.936 16.5351C158.733 16.5432 158.518 16.5525 158.321 16.5597C158.009 16.4534 159.953 16.4375 158.682 16.3344C158.681 16.3345 158.679 16.3346 158.678 16.3346ZM147.332 16.3823C146.736 16.3669 144.377 16.309 144.055 16.358C142.964 16.5241 149.62 16.4187 144.714 16.5663C144.737 16.5896 144.714 16.6125 144.714 16.6356C145.609 16.6437 146.501 16.6508 147.402 16.6573C147.354 16.5654 147.386 16.4746 147.332 16.3823ZM212.89 16.4793C211.975 16.4665 207.612 16.5446 209.035 16.6498C209.453 16.6806 211.401 16.5301 212.141 16.5367C212.621 16.5409 212.083 16.6234 213.03 16.5931C212.988 16.5567 212.962 16.5164 212.888 16.4795C212.889 16.4795 212.89 16.4794 212.89 16.4793ZM214.607 15.9992C213.66 16.0139 212.701 16.0325 211.749 16.0481C212.444 16.1422 213.812 16.0818 213.892 16.214C213.631 16.2241 213.374 16.234 213.113 16.2441C212.914 16.2152 212.717 16.1862 212.521 16.1573C211.703 16.2291 212.199 16.2648 210.676 16.2441C211.597 16.444 211.768 16.5513 214.375 16.3491C213.882 16.4575 214.346 16.811 215.791 16.5584C216.062 16.5115 214.932 16.4802 214.92 16.4727C214.746 16.3799 215.372 16.3207 215.186 16.233C215.102 16.1933 214.414 16.1939 214.311 16.1388C214.263 16.112 214.918 16.0354 214.607 15.9992ZM216.493 16.4699C216.2 16.5261 217.201 16.6595 218.07 16.6325C219.425 16.5905 217.288 16.4636 216.493 16.4699ZM331.069 16.6332C331.067 16.6333 331.066 16.6333 331.064 16.6334C331.065 16.6332 331.066 16.6331 331.067 16.633C331.067 16.6331 331.068 16.6332 331.069 16.6332ZM150.402 16.4473C149.701 16.4951 148.662 16.4882 148.739 16.5641C148.398 16.5492 148.053 16.5345 147.711 16.5196C147.715 16.5424 147.721 16.5653 147.724 16.5879C148.751 16.6022 149.775 16.6165 150.801 16.6309C150.673 16.5698 150.554 16.5084 150.402 16.4473ZM139.217 16.3941C137.926 16.3864 139.008 16.4898 138.725 16.5397C138.442 16.5897 137.292 16.549 137.427 16.6207C138.187 16.6235 138.979 16.6263 139.749 16.6288C139.546 16.5509 139.404 16.4716 139.214 16.3941C139.215 16.3941 139.216 16.3941 139.217 16.3941ZM258.458 16.5505C257.582 16.5281 257.939 16.4492 256.211 16.5416C256.212 16.5416 256.214 16.5416 256.215 16.5416C257.86 16.6062 259.977 16.6638 261.792 16.6013C260.682 16.518 259.835 16.5855 258.458 16.5505ZM161.74 16.5674C162.109 16.5049 160.388 16.4527 160.008 16.5108C159.393 16.6048 161.176 16.6624 161.74 16.5674ZM293.818 15.9968C295.15 15.8043 292.626 15.5883 289.984 15.6816C289.755 15.6897 291.461 15.7509 290.956 15.7885C290.905 15.7922 289.968 15.7876 289.737 15.8144C289.505 15.8412 289.748 15.9035 289.368 15.9296C288.702 15.9753 287.196 15.8907 286.697 15.9506C286.631 15.9586 287.565 16.0419 287.624 16.0451C288.583 16.0955 289.507 15.9866 289.655 15.9859C290.418 15.9822 290.303 16.0675 290.496 16.0876C290.86 16.1253 291.5 16.0876 291.545 16.0904C292.703 16.1652 290.058 16.1438 289.7 16.1746C288.738 16.2577 289.629 16.3349 287.321 16.3818C287.102 16.3862 284.479 16.3812 287.785 16.4767C281.293 16.676 291.046 16.5901 292.105 16.5462C292.594 16.5259 291.854 16.4445 292.15 16.4079C292.827 16.3242 293.979 16.3094 293.876 16.1913C293.653 15.9432 292.14 16.1058 291.097 16.064C291.207 16.0101 291.249 15.9576 291.451 15.9048C291.139 15.9758 293.721 16.0112 293.818 15.9972C293.818 15.9971 293.818 15.9969 293.818 15.9968ZM277.385 16.2803C275.926 16.2054 276.03 16.3621 274.694 16.2725C273.516 16.4132 275.839 16.4037 276.11 16.4117C277.346 16.4471 277.317 16.6001 278.582 16.553C278.147 16.4625 277.793 16.3711 277.385 16.2803ZM290.067 16.3449C289.092 16.4242 290.837 16.4229 290.908 16.438C291.679 16.5989 286.453 16.5677 290.067 16.3449ZM207.21 16.1641C206.715 16.1588 207.029 16.2347 206.592 16.2571C206.155 16.2798 204.658 16.2148 204.696 16.262C204.734 16.3094 207.476 16.4322 204.724 16.4588C204.817 16.4854 204.786 16.5052 204.831 16.5292C205.587 16.5299 206.351 16.5311 207.107 16.5318C206.692 16.4553 206.267 16.3748 205.867 16.3008C206.292 16.2399 206.531 16.318 206.554 16.318C206.554 16.318 206.554 16.3179 206.554 16.3178C207.345 16.3117 208.323 16.176 207.21 16.1641ZM246.219 16.4025C246.367 16.2124 245.199 16.4247 244.719 16.4483C244.24 16.4718 243.581 16.4014 243.828 16.4832C244.604 16.5397 246.203 16.4237 246.219 16.4023C246.219 16.4024 246.219 16.4024 246.219 16.4025ZM269.463 16.2807C268.241 16.3268 268.435 16.3763 266.939 16.3199C266.997 16.3658 267.055 16.4128 267.113 16.4581C268.301 16.459 268.217 16.3256 269.592 16.3792C269.817 16.3881 269.334 16.4946 270.351 16.4604C270.055 16.4035 269.755 16.3404 269.463 16.2807ZM263.405 16.4511C264.809 16.4441 265.922 16.0722 263.337 16.2399C262.954 16.265 262.35 16.4565 263.405 16.4511ZM220.156 16.1547C217.768 16.144 220.48 16.204 221.102 16.2612C215.544 16.3069 221.729 16.2455 222.284 16.4356C222.963 16.3815 224.234 16.2577 222.822 16.2245C222.233 16.2108 222.448 16.2674 222.413 16.2671C221.328 16.2531 221.459 16.1605 220.156 16.1547ZM279.918 16.2712C279.828 16.274 279.969 16.3382 279.683 16.351C279.396 16.3637 278.747 16.3188 278.682 16.3582C278.618 16.3979 279.92 16.4286 280.32 16.3997C280.719 16.3706 280.733 16.2465 279.918 16.2712ZM270.757 16.113C269.564 16.1592 271.514 16.3957 271.774 16.3946C274.053 16.3822 270.689 16.1879 270.757 16.113ZM225.699 15.753C222.822 15.8731 224.927 16.0819 226.729 16.207C226.967 16.1815 227.212 16.1561 227.447 16.1309C226.365 16.2854 224.47 16.438 228.686 16.3034C226.378 16.2671 228.311 16.2256 228.326 16.2169C228.58 15.9332 225.161 16.0649 225.702 15.753C225.701 15.753 225.7 15.753 225.699 15.753ZM283.797 16.3388C285.05 16.3379 288.306 16.2888 286.787 16.1652C285.789 16.2231 284.795 16.281 283.797 16.3388ZM178.587 15.7696C177.564 15.6989 176.62 15.7001 175.358 15.7048C176.495 15.8076 175.748 15.8195 175.365 15.8447C174.784 15.8826 176.191 15.8795 176.195 15.8864C176.17 15.9842 175.272 15.9993 177.315 15.997C176.81 16.0311 176.312 16.0654 175.806 16.0992C177.364 16.1036 177.731 16.1674 178.719 16.2453C177.76 16.0549 179.022 16.1741 180.168 16.0794C180.74 16.032 179.108 15.8057 178.584 15.7696C178.585 15.7696 178.586 15.7696 178.587 15.7696ZM222.725 15.7148C222.429 15.7491 222.158 15.7955 221.872 15.8346C221.56 15.8384 221.247 15.8417 220.935 15.8454C220.896 15.8151 220.864 15.7834 220.819 15.7542C220.407 15.7454 220.568 15.7876 220.445 15.7916C220.445 15.7914 220.445 15.7912 220.445 15.7911C218.692 15.847 217.974 15.8407 216.6 15.747C216.6 15.8399 216.6 15.9328 216.6 16.0257C216.908 16.0168 217.22 16.0082 217.529 15.9996C217.693 15.9496 217.858 15.8997 218.022 15.8498C218.38 15.8773 218.734 15.9047 219.091 15.9322C219.377 15.9142 219.721 15.8953 219.969 15.8779C221.395 16.1375 218.154 15.9611 218.125 16.0689C218.106 16.1382 221.37 16.1352 221.84 16.0873C221.907 16.0803 221.202 15.887 222.396 15.9877C222.583 16.0036 222.648 16.4219 223.936 16.0832C224.119 16.0351 223.478 15.7753 222.725 15.7148ZM210.876 15.5799C212.71 15.8475 205.939 15.5645 208.861 15.7847C208.027 15.9077 208.182 15.9061 209.022 16.0152C209.096 16.025 208.515 16.0587 208.565 16.063C209.35 16.1232 210.296 16.0913 210.303 16.2007C210.515 16.1949 210.715 16.1897 210.927 16.1839C210.043 16.0808 211.449 16.0115 211.993 15.9245C212.241 15.8851 211.671 15.8729 211.88 15.8384C211.957 15.8258 212.752 15.851 212.785 15.8149C212.853 15.7332 212.353 15.6229 211.506 15.5627C211.506 15.5626 211.506 15.5625 211.506 15.5624C211.294 15.5678 211.088 15.5743 210.876 15.5799ZM250.089 15.8022C250.401 15.9501 251.653 15.9924 249.248 16.0648C249.367 16.0939 249.49 16.1228 249.609 16.1519C250.014 16.1493 250.407 16.1468 250.819 16.1445C252.055 15.7087 254.311 16.2005 252.866 15.8914C252.708 15.8578 251.747 15.8954 252.696 15.8041C252.695 15.804 252.694 15.804 252.692 15.8039C251.367 15.8319 251.2 15.8843 250.089 15.8022ZM241.215 15.9053C238.157 16.2166 245.44 16.079 244.223 15.9964C244.114 15.9889 240.976 16.0558 241.215 15.9053ZM265.752 15.6345C264.381 15.6291 264.291 15.797 264.429 15.8575C264.567 15.9181 265.517 15.8568 265.639 15.8664C266.038 15.8979 265.192 15.9187 265.71 15.9618C265.882 15.9759 268.269 16.0357 268.379 16.0285C268.986 15.9883 268.098 15.8498 268.272 15.8339C268.838 15.7819 269.608 15.854 269.772 15.7803C270.126 15.6231 268.692 15.7881 268.45 15.7908C267.719 15.7983 267.783 15.7098 267.236 15.6921C266.689 15.6744 266.331 15.7047 265.849 15.6984C265.688 15.6963 265.822 15.635 265.752 15.6345ZM261.219 15.9891C262.651 15.862 259.165 15.7237 258.751 15.7535C257.534 15.8419 260.534 16.0497 261.219 15.9891ZM215.469 15.9837C216.779 15.8915 213.728 15.817 212.856 15.8541C213.018 15.8923 215.019 16.0154 215.469 15.9837ZM226.498 15.7535C225.294 15.7822 226.89 15.9898 227.895 15.9865C228.483 15.8501 227.929 15.8771 227.273 15.8715C226.617 15.8659 227.437 15.7311 226.498 15.7535ZM280.623 15.7862C280.363 15.784 276.177 15.8968 278.582 15.9437C278.765 15.9472 281.696 15.9273 281.918 15.9063C282.365 15.8638 281.292 15.7923 280.623 15.7862ZM232.272 15.5519C231.635 15.67 231.008 15.6684 231.593 15.8069C231.594 15.8069 231.595 15.8069 231.596 15.8069C229.983 15.8494 229.912 15.5659 229.564 15.572C228.349 15.5932 229.5 15.795 228.738 15.8613C230.511 15.799 230.003 15.935 231.351 15.9437C231.654 15.9455 232.865 15.8643 233.042 15.8137C233.219 15.763 232.6 15.6112 232.272 15.5519ZM286.536 15.7568C285.123 15.7115 283.829 15.9028 285.789 15.9332C286.745 15.9481 287.399 15.7843 286.536 15.7568ZM145.294 15.7089C145.509 15.7591 145.731 15.809 145.963 15.8587C145.442 15.8708 144.92 15.8832 144.399 15.8956C144.811 15.8797 145.223 15.8641 145.639 15.8484C144.66 15.8309 144.213 15.7397 145.291 15.7089C145.292 15.7089 145.293 15.7089 145.294 15.7089ZM110.456 15.6707C110.018 15.6224 109.156 15.772 109.265 15.7836C110.089 15.8705 111.064 15.7377 110.456 15.6707ZM213.534 15.5295C211.907 15.5086 213.026 15.7517 214.023 15.7684C213.413 15.7219 214.458 15.5414 213.534 15.5295ZM122.708 15.6825C122.854 15.7035 123.001 15.7244 123.165 15.7453C122.65 15.7162 122.561 15.6967 122.708 15.6825ZM279.957 15.5715C279.708 15.5528 277.871 15.5374 277.623 15.5605C277.108 15.609 278.541 15.7432 279.384 15.702C279.477 15.6975 280.204 15.5901 279.953 15.5715C279.954 15.5715 279.956 15.5715 279.957 15.5715ZM143.092 15.6158C143.095 15.6181 143.093 15.6203 143.088 15.6224C143.09 15.6202 143.09 15.618 143.092 15.6158ZM73.8794 15.3687C73.8894 15.3725 73.8947 15.3762 73.8936 15.3798C73.8897 15.3763 73.8819 15.3726 73.8794 15.3687ZM266.997 15.365C266.386 15.1334 264.976 15.2566 266.09 15.3711C266.152 15.3772 266.849 15.3646 266.997 15.365ZM9.52485 14.2523C9.7272 14.3496 10.1189 14.4415 10.5277 14.5269C11.0092 14.6312 11.4243 14.7797 11.7903 14.8995C11.9616 14.958 12.3273 15.0134 12.6618 15.067C12.801 15.0894 12.784 15.1549 12.8225 15.1687C12.8899 15.1928 12.9456 15.1735 12.998 15.1603C13.0267 15.1526 13.0532 15.1466 13.0803 15.1522C13.4336 15.2259 13.7507 15.2581 14.1185 15.2986C14.4955 15.3391 14.3094 15.5407 14.4413 15.5961C14.6989 15.7033 14.4856 15.4247 14.589 15.3665C14.8875 15.3912 15.1889 15.4268 15.4924 15.462C15.4159 15.4861 15.3456 15.5097 15.2682 15.5318C15.3996 15.5399 15.5886 15.5853 15.3657 15.6524C15.4131 15.6729 15.4608 15.6967 15.5094 15.7167C15.524 15.6178 15.7579 15.6138 15.7807 15.5553C15.8027 15.4969 15.6712 15.5082 15.6727 15.5031C15.6761 15.4781 15.7393 15.4744 15.827 15.4807C16.0022 15.4927 16.2462 15.5464 16.2721 15.5526C16.3749 15.5778 16.2804 15.6976 16.3684 15.6927C16.5203 15.6845 16.4289 15.431 16.6212 15.7707C16.7066 15.6658 16.7118 15.7221 16.8139 15.7333C16.8275 15.7348 16.8192 15.6719 16.8253 15.6705C16.9823 15.6298 16.8585 15.7416 16.8591 15.7479C16.8696 15.8554 17.0374 15.814 17.0726 15.8255C17.5078 15.969 17.8279 16.0662 18.292 16.108C18.2997 16.1087 18.3086 16.1091 18.3186 16.1093C18.3254 16.109 18.3454 16.1123 18.3522 16.1131C18.4694 16.137 18.7351 16.1502 18.8201 16.1811C18.9105 16.2146 18.8471 16.2821 18.8908 16.3269C18.9998 16.1565 19.0745 16.1483 19.2347 16.2936C19.3188 16.1685 19.2948 16.2754 19.4271 16.2653C19.4711 16.2628 19.524 16.2391 19.6035 16.2293L19.583 16.2259C19.6474 16.194 19.7356 16.1647 19.8095 16.2501C19.6811 16.2368 19.6901 16.303 19.5693 16.332L19.582 16.3342C19.5774 16.3343 19.5727 16.3344 19.5677 16.3346C19.4961 16.3334 18.9874 16.2714 19.0024 16.4104C19.0116 16.4851 19.1959 16.4448 19.2005 16.4585C19.2297 16.5406 19.1181 16.6217 19.0361 16.5757C19.0597 16.5634 19.0883 16.5516 19.1138 16.5394C18.9337 16.4151 19.0105 16.8026 18.9132 16.4586C18.9013 16.4163 18.9146 16.3764 18.8921 16.3298C18.8832 16.3461 18.9123 16.3948 18.8799 16.3974C18.8459 16.3999 18.7995 16.3084 18.7789 16.3753C18.7478 16.4726 18.8885 16.4559 18.8971 16.463C18.8973 16.4625 18.8975 16.4619 18.8977 16.4613C18.9785 16.5286 18.7916 16.5047 18.7806 16.5122C18.713 16.5645 18.7435 16.6191 18.6475 16.655C18.5928 16.6755 18.4689 16.6347 18.4209 16.6351C18.3725 16.6357 18.4359 16.6966 18.4026 16.7007C18.3687 16.7046 18.3376 16.6615 18.2986 16.6658C18.282 16.6678 18.2723 16.7203 18.2643 16.7206C18.248 16.7213 18.2373 16.7182 18.2304 16.7128L18.3029 16.721C18.2712 16.7035 18.2966 16.6327 18.2367 16.6366C18.1891 16.6398 18.0255 16.7387 18.1352 16.7726C18.0821 16.7819 18.0291 16.7882 17.9764 16.7951C18.0091 16.8119 18.0433 16.8237 18.0757 16.8432C17.9764 16.815 17.9285 16.9049 17.866 16.9098C17.8029 16.9147 17.7502 16.8036 17.68 16.8548C17.5292 16.9637 17.8952 16.9227 17.9395 16.9441C17.9569 16.9526 17.8867 17.0364 17.8764 17.0385C17.8293 17.0478 17.7772 16.9849 17.7409 16.9865C17.6131 16.9928 17.5322 17.0712 17.4098 17.0834C16.994 17.1252 16.4775 17.1494 16.096 17.1552C15.9542 17.1574 15.8733 17.0646 15.8121 17.0661C15.8086 17.0662 15.8051 17.0664 15.8018 17.0666C15.6562 17.0737 15.6363 17.1488 15.5049 17.1506C15.3051 17.1537 15.027 17.079 14.8595 17.0601C14.743 17.0472 14.6361 17.1211 14.6067 17.1222C14.1868 17.1387 13.6646 17.1178 13.2879 17.0838C13.1119 17.0683 13.0389 16.9722 13.0034 16.9709C12.8507 16.9636 12.8819 17.0415 12.7626 17.0188C12.7608 17.0185 12.7591 17.0181 12.7574 17.0177C12.7023 17.0032 12.6996 16.9353 12.6921 16.9316C12.6231 16.8993 12.5971 16.9893 12.5399 16.9852C12.2081 16.9597 11.8901 16.8675 11.4913 16.7707C11.4617 16.7631 11.4738 16.7239 11.4541 16.7213C11.3681 16.7103 11.3922 16.7835 11.2977 16.7623C11.2647 16.7547 11.2309 16.7456 11.1962 16.7351C11.0739 16.6988 10.9576 16.6509 10.8416 16.6056C10.8279 16.6003 10.838 16.5481 10.8062 16.5377C10.7743 16.5273 10.7349 16.567 10.6869 16.5486C10.5617 16.501 10.4569 16.4065 10.3308 16.369C10.3099 16.3629 10.268 16.4174 10.2379 16.4091C10.2016 16.399 10.161 16.3801 10.1207 16.36C10.0381 16.3238 9.95222 16.2814 9.8891 16.2655C9.55114 16.1786 9.21253 16.1371 8.82198 15.971C8.72967 15.9308 8.67138 15.8351 8.623 15.8069C8.61259 15.8009 8.60368 15.7962 8.59597 15.7926C8.55443 15.7767 8.56458 15.8342 8.50986 15.8048C8.22061 15.6459 7.94201 15.569 7.45028 15.3903C7.15633 15.2765 6.87245 15.1581 6.58421 15.0353C6.31112 14.9191 5.95491 14.8172 5.6928 14.661C5.58343 14.5954 5.60042 14.5168 5.52076 14.4712C5.37845 14.3878 5.30266 14.459 5.13254 14.3578C5.05 14.307 4.97842 14.2147 4.89321 14.1043C4.86093 14.0523 4.82782 14.003 4.78486 13.9665C4.67831 13.8751 4.56404 13.8978 4.43955 13.7873C4.33686 13.6958 4.23992 13.5255 4.14005 13.4188C3.91568 13.1806 3.71862 12.9394 3.53765 12.7142C3.21217 12.2943 3.00935 11.9283 2.82111 11.6886C2.53731 11.3183 2.38559 10.9421 2.27039 10.6468C2.19479 10.4558 2.13887 10.2674 2.09568 10.091C2.02812 9.80987 1.95076 9.50128 1.93346 9.42749C1.83796 9.1961 1.79297 8.98914 1.7735 8.79414C1.76938 8.74637 1.87634 8.78948 1.81906 8.65208C1.78887 8.57932 1.68456 8.49058 1.64291 8.32635C1.62855 8.26991 1.6153 8.21437 1.60327 8.16305C1.51177 7.77571 1.48244 7.40107 1.43499 7.10785C1.39837 6.84972 1.26868 6.45085 1.24012 5.98639C1.22878 5.75762 1.20755 5.54128 1.16532 5.33559C1.10891 5.05942 1.007 4.79821 0.880608 4.54911C0.316214 3.42817 -0.0689793 2.18517 0.528734 1.10382C0.56621 1.03344 0.79976 1.03529 0.87014 1.06376C0.828786 1.10551 0.778294 1.14547 0.731065 1.18878C1.02298 1.19129 0.947868 1.1974 0.946615 1.36784C0.946089 1.47503 1.05589 1.37341 1.09875 1.42418C1.15364 1.48767 1.34546 1.80498 1.14678 1.76838C1.18269 1.78426 1.21696 1.79851 1.25205 1.81349C1.3179 2.05318 1.40215 2.27995 1.49693 2.50716C1.51342 2.54622 1.57257 2.53647 1.58951 2.57758C1.63486 2.68389 1.6126 2.78066 1.64088 2.89333C1.65615 2.95354 1.72594 2.94966 1.73821 3.0302C1.75069 3.11023 1.65893 3.12966 1.78271 3.21538C1.88045 3.11959 1.8704 3.44824 1.90958 3.55627C1.91474 3.57222 2.05287 3.67315 2.06218 3.74556C2.07145 3.81821 2.04009 3.945 2.11154 4.04361C2.13679 4.07869 2.19229 4.08991 2.22837 4.11758C2.24077 4.12784 2.25092 4.13984 2.25689 4.15497C2.27367 4.19758 2.21973 4.27107 2.23256 4.32653C2.24572 4.3818 2.33571 4.48628 2.34221 4.5086C2.36631 4.58743 2.29432 4.51203 2.30553 4.56715C2.36066 4.83294 2.38913 5.14493 2.45663 5.39878C2.46496 5.43008 2.51912 5.37813 2.52165 5.38203C2.62287 5.59022 2.52977 5.48384 2.48314 5.54843C2.45583 5.5863 2.47155 5.74954 2.50916 5.8689C2.5318 5.92513 2.56872 5.96683 2.60963 5.96105C2.48072 5.99036 2.59195 6.04162 2.59952 6.05757C2.62874 6.12288 2.51479 6.13512 2.56677 6.19835C2.5859 6.22137 2.6475 6.15159 2.65242 6.18001C2.66452 6.24964 2.56421 6.34881 2.58351 6.45781C2.58815 6.48426 2.64337 6.47671 2.65537 6.52413C2.66758 6.56938 2.66066 6.80013 2.74599 6.67132C2.72816 6.72216 2.7219 6.75819 2.72292 6.78928C2.72432 6.85077 2.75715 6.89114 2.77674 6.99156C2.78393 7.0295 2.70687 7.09505 2.74879 7.167C2.76298 7.19131 2.84689 7.17459 2.855 7.21364C2.87371 7.30265 2.80149 7.40078 2.81851 7.50894C2.83714 7.62801 2.8808 7.74304 2.92027 7.85746C2.94999 7.94695 2.97441 8.03273 2.98542 8.11898C2.99267 8.17564 2.90561 8.1823 2.92379 8.26257C2.92672 8.27474 3.02293 8.35074 3.03093 8.40439C3.03495 8.43764 3.03414 8.61242 3.04194 8.64422C3.05371 8.69792 3.13508 8.67714 3.12989 8.70905C3.116 8.79992 2.97974 8.79256 3.17083 8.81089C3.15442 8.82592 3.14348 8.83998 3.13523 8.85341C3.11734 8.91949 3.1246 8.97662 3.04967 9.02744C3.18404 9.02709 3.09193 9.12613 3.15689 9.19311C3.22203 9.26064 3.47362 9.25949 3.22793 9.34967C3.2691 9.378 3.36299 9.51319 3.37363 9.53568C3.40493 9.60443 3.32449 9.58602 3.34956 9.6372C3.3539 9.64604 3.39829 9.62267 3.41146 9.68338C3.41852 9.726 3.50893 9.99771 3.51086 10.0134C3.51138 10.2199 3.42569 9.93553 3.36311 9.90919C3.37387 9.89737 3.38473 9.88568 3.39523 9.87348C3.38935 9.78255 3.29908 9.86475 3.28787 9.91227C3.27658 9.95986 3.34923 10.0142 3.32725 10.0584C3.31622 10.0806 3.18763 10.1198 3.18403 10.0642C3.16543 10.1319 3.09731 10.0741 3.06896 10.1088C3.05149 10.1303 3.06957 10.2194 3.10444 10.2878C3.13114 10.3404 3.16585 10.3809 3.19578 10.3685C3.18395 10.337 3.16776 10.3012 3.15339 10.2667C3.14689 10.2512 3.14091 10.2359 3.13596 10.2215C3.17891 10.1717 3.3028 10.1498 3.41355 10.1547C3.54729 10.1658 3.66437 10.2219 3.61586 10.3437C3.55316 10.5068 3.37422 10.3707 3.59777 10.5836C3.58217 10.5422 3.57636 10.5034 3.56374 10.4646C3.64846 10.4192 3.58157 10.5237 3.62414 10.5397C3.64433 10.5468 3.66206 10.4304 3.71961 10.4945C3.6302 10.6208 3.77833 10.6071 3.83742 10.6988C3.80026 10.6858 3.76298 10.6711 3.72551 10.655C3.74325 10.8816 3.4693 10.4819 3.63068 10.8611C3.60014 10.8221 3.57568 10.7791 3.54502 10.7386C3.51348 10.7852 3.36473 10.8228 3.34895 10.8584C3.30843 10.9535 3.40058 11.0094 3.43859 11.0764C3.45557 11.106 3.41085 11.1118 3.41226 11.1142C3.43623 11.1555 3.47753 11.1127 3.50481 11.143C3.50801 11.1465 3.5113 11.151 3.51468 11.1563C3.54532 11.2038 3.57362 11.3237 3.58957 11.3369C3.63594 11.3749 3.67629 11.23 3.68614 11.2293C3.75382 11.228 3.75878 11.3182 3.8172 11.274C3.76428 11.2278 3.697 11.1364 3.64613 11.0554C3.56614 10.9207 3.5588 10.8202 3.75536 10.9715C3.76554 10.9794 3.77621 10.988 3.78737 10.9973C3.78847 10.9771 3.79115 10.9583 3.79528 10.9409C3.8236 10.8582 3.89114 10.8146 3.95656 10.8171C3.9987 10.8267 4.04487 10.8566 4.08695 10.9088C4.19581 11.0457 4.07804 10.991 4.06831 11.1043C4.06842 11.1192 4.15915 11.3221 4.20714 11.3039C4.10389 11.3595 4.05352 11.4736 3.92665 11.4989C3.90808 11.5026 3.86714 11.4255 3.80174 11.5034C3.76889 11.5425 3.70237 11.6356 3.64624 11.663C3.69208 11.6547 3.74298 11.6444 3.79067 11.6356C3.8704 11.7386 3.84076 11.7791 3.81096 11.8828C3.8376 11.862 3.92175 11.7309 3.93906 11.8387C3.93969 11.8445 3.8991 11.8752 3.90563 11.9322C3.91948 12.0472 3.91958 12.0756 3.74989 12.0874C3.89816 12.1956 3.86706 12.2994 3.93273 12.4218C3.94964 12.4541 3.97392 12.487 4.01274 12.5207C4.08625 12.4342 4.08934 12.3867 4.05001 12.3349C4.01896 12.294 3.9656 12.2495 3.90274 12.184C3.93535 12.151 3.97036 12.1224 4.00341 12.0892C4.0563 12.306 4.03495 12.2931 4.09041 12.305C4.10816 12.3083 4.13416 12.3138 4.17413 12.33C4.21407 12.3461 4.31347 12.5191 4.3768 12.3889C4.39158 12.3583 4.31582 12.2625 4.3625 12.2452C4.37143 12.2421 4.47866 12.3469 4.47674 12.3646C4.45579 12.5876 4.18833 12.4175 4.5154 12.7462C4.52462 12.7552 4.57087 12.7239 4.59237 12.7382C4.63277 12.7652 4.58315 12.8064 4.62118 12.8292C4.65945 12.8522 4.76229 12.84 4.7422 12.9396C4.7083 13.1238 4.46221 12.968 4.447 12.8227C4.25366 12.9046 4.85355 13.59 4.9165 13.6066C5.14167 13.7239 4.82041 13.4727 4.84542 13.4189C4.85525 13.3967 5.06174 13.2027 4.86011 13.2583C4.7996 13.274 4.8347 13.4148 4.76086 13.3812C4.68676 13.3468 4.76843 13.3113 4.76887 13.3033C4.77051 13.2761 4.69369 13.2385 4.69558 13.2228C4.72447 12.9852 4.93505 12.8152 4.77729 13.2376C4.90463 13.2414 4.87214 12.9933 4.99191 13.0323C5.13539 13.077 5.11069 13.2346 5.11872 13.2509C5.21361 13.4406 5.17969 13.1452 5.31331 13.3561C5.38993 13.4733 5.07716 13.3086 5.31514 13.512C5.3394 13.5324 5.35969 13.5477 5.37737 13.5596C5.51545 13.6477 5.46868 13.5215 5.56593 13.4315C5.59172 13.4072 5.71651 13.4525 5.57354 13.3564C5.55659 13.3718 5.53568 13.3894 5.5147 13.405C5.49943 13.4159 5.48417 13.4259 5.47043 13.4337C5.45383 13.3809 5.529 13.1853 5.51649 13.1642C5.45347 13.0607 5.38728 13.1366 5.42132 13.0033C5.36502 13.1308 5.36272 13.0185 5.32215 13.0165C5.17155 13.0074 5.2445 13.1395 5.16539 12.8658C5.14282 12.9314 5.11983 12.9946 5.09847 13.0604C5.07537 13.0392 5.05241 13.0179 5.02969 12.9965C5.09612 12.8707 4.97718 12.7633 5.17487 12.7806C5.08741 12.6263 5.02206 12.5913 4.91629 12.6285C4.89622 12.6356 4.87299 12.6201 4.85163 12.597C4.83256 12.6202 4.76707 12.6839 4.75525 12.687C4.65035 12.714 4.73875 12.553 4.80422 12.5312C4.79288 12.5121 4.7849 12.4962 4.78232 12.4904C4.76606 12.4536 4.8592 12.477 4.85538 12.4399C4.85401 12.4279 4.77675 12.3498 4.79434 12.3334C4.90725 12.2293 4.92829 12.4397 4.7807 12.0992C4.66428 12.1756 4.79075 12.2917 4.64734 12.3467C4.49264 12.4052 4.60445 12.2004 4.43642 12.3001C4.45731 12.2747 4.47657 12.256 4.50167 12.2288C4.36142 12.1672 4.44905 12.0823 4.47056 12.0236C4.47332 12.0167 4.47514 12.0102 4.47551 12.0042C4.48221 11.9002 4.25679 11.5753 4.33731 11.9493C4.29624 11.9143 4.2611 11.8731 4.22202 11.8357C4.45871 11.6668 4.3792 11.7596 4.28131 11.5211C4.25968 11.4683 4.35795 11.3847 4.19982 11.418C4.33009 11.3456 4.16254 11.2489 4.1685 11.2253C4.21122 11.0737 4.55668 11.3128 4.35666 11.4896C4.47626 11.4875 4.36164 11.5595 4.41343 11.6074C4.48822 11.6759 4.51638 11.6717 4.49675 11.8209C4.67372 11.8356 4.30908 11.4211 4.64633 11.5976C4.69764 11.6233 4.76743 11.6806 4.84623 11.7455C5.16517 12.0408 5.60482 12.5084 6.03379 12.821C6.16457 12.9026 6.48676 13.0561 6.60228 13.104C7.19404 13.3542 7.60392 13.487 8.0887 13.6653C8.17808 13.6974 8.28756 13.7324 8.4301 13.7797C8.49006 13.7893 9.1684 14.0377 8.96396 14.1349C8.93331 14.1455 8.6395 14.0947 8.82305 14.3062C8.80454 14.2167 8.96093 14.2295 8.97586 14.2281C9.27465 14.1929 9.21356 14.1014 9.47566 14.2299C9.48762 14.2347 9.50305 14.242 9.52485 14.2523ZM10.0757 15.9228C9.58557 15.7707 9.92711 15.9619 9.76547 16.1761C9.83152 16.1928 9.89649 16.2086 9.96092 16.224C9.94741 16.2051 9.93399 16.1863 9.92046 16.1674C9.92038 16.1673 9.92031 16.1673 9.92024 16.1673C9.97253 16.086 10.0244 16.0045 10.0757 15.9228ZM18.2171 16.9312C18.1969 16.963 18.1767 16.9948 18.1545 17.0259C18.0886 17.0141 18.0227 17.0024 17.957 16.9904C17.9656 16.9687 17.974 16.9468 17.9824 16.9251C18.0603 16.9283 18.1386 16.9314 18.2171 16.9312ZM4.37439 12.7885C4.38593 12.6577 4.26439 12.7627 4.2453 12.6174C4.16055 12.7014 4.07908 12.7853 3.99635 12.8699C4.0708 12.938 4.11983 12.928 4.16529 13.0316C4.18702 12.9979 4.20887 12.9639 4.23121 12.9306C4.21364 12.9215 4.19449 12.9122 4.17809 12.903C4.24485 12.8161 4.36298 12.9398 4.37479 12.7886C4.37466 12.7886 4.37452 12.7885 4.37439 12.7885ZM3.75633 12.0137C3.74097 11.9613 3.68436 11.7618 3.62889 11.7658C3.43857 11.7751 3.82812 12.1968 3.48168 11.9232C3.46293 11.9371 3.4426 11.9477 3.42306 11.96C3.45586 12.0276 3.49045 12.0961 3.52774 12.1667C3.60295 12.1137 3.68097 12.0673 3.75633 12.0137ZM8.32266 15.2925C8.26737 15.2539 7.91502 15.2203 7.98918 15.3555C8.01176 15.3949 8.20058 15.3001 8.25008 15.3262C8.28172 15.3427 8.21586 15.4057 8.29068 15.4022C8.30117 15.3672 8.31414 15.329 8.32239 15.2927C8.32248 15.2926 8.32257 15.2926 8.32266 15.2925ZM8.63079 14.9001C8.55181 14.882 8.47025 14.8698 8.39046 14.8573C8.41211 14.9648 8.538 14.9503 8.49321 15.0752C8.47035 15.0766 8.44746 15.0781 8.42462 15.0799C8.42043 15.0471 8.41646 15.0145 8.41174 14.9818C8.32424 15.0258 8.35049 15.0727 8.24201 15.0124C8.24704 15.2269 8.21575 15.3256 8.47573 15.2143C8.40024 15.3005 8.29124 15.6365 8.48677 15.4483C8.52457 15.414 8.46234 15.3511 8.46418 15.3441C8.48938 15.2537 8.55724 15.219 8.58003 15.1332C8.59021 15.0942 8.53955 15.0727 8.55335 15.0189C8.55991 14.9924 8.64028 14.9436 8.63079 14.9001ZM8.57079 15.3901C8.52778 15.4318 8.53347 15.5822 8.59925 15.5865C8.7046 15.5951 8.6283 15.4099 8.57079 15.3901ZM18.2176 16.9311C18.2174 16.9311 18.2173 16.9312 18.2171 16.9312C18.2172 16.9311 18.2173 16.931 18.2174 16.9308C18.2174 16.9309 18.2175 16.931 18.2176 16.9311ZM3.85175 12.2771C3.77568 12.251 3.73043 12.1691 3.67067 12.2165C3.66632 12.1825 3.66204 12.1488 3.65843 12.1155C3.63935 12.1281 3.62037 12.1409 3.60149 12.1534C3.6385 12.2375 3.67784 12.3235 3.72193 12.4121C3.76509 12.3672 3.80921 12.3231 3.85175 12.2771ZM3.38561 11.4599C3.33472 11.3744 3.2983 11.502 3.2451 11.5133C3.19237 11.5247 3.17647 11.435 3.12494 11.486C3.15433 11.5296 3.18513 11.5777 3.21536 11.6265C3.27112 11.57 3.33036 11.5161 3.3855 11.4597C3.38553 11.4598 3.38557 11.4598 3.38561 11.4599ZM12.0615 16.5281C11.9878 16.4945 12.0327 16.4223 11.8642 16.4885C11.8643 16.4886 11.8644 16.4886 11.8645 16.4886C12.0017 16.5772 12.18 16.6596 12.3419 16.6172C12.2581 16.5225 12.1769 16.58 12.0615 16.5281ZM4.36532 13.1462C4.43418 13.1312 4.37577 12.9797 4.30987 12.9899C4.20168 13.0058 4.25903 13.168 4.36532 13.1462ZM15.1019 16.2037C15.2184 16.0136 15.0099 15.7935 14.7877 15.8814C14.7679 15.8891 14.91 15.9537 14.8666 15.9903C14.8618 15.9939 14.7834 15.9874 14.7641 16.0137C14.7439 16.04 14.7629 16.1028 14.7299 16.1281C14.6724 16.1724 14.5483 16.0844 14.5052 16.143C14.5001 16.1509 14.5747 16.2364 14.58 16.2397C14.661 16.2923 14.7393 16.1854 14.7531 16.185C14.8163 16.1828 14.8049 16.2679 14.8206 16.2884C14.8504 16.3268 14.906 16.2904 14.9091 16.2932C15.0046 16.3703 14.7815 16.3438 14.7523 16.3738C14.6674 16.4547 14.7425 16.534 14.5452 16.5755C14.5282 16.5795 14.3035 16.5679 14.5818 16.6715C14.0258 16.8546 14.8562 16.793 14.9458 16.75C14.9877 16.7306 14.9268 16.6478 14.9527 16.6118C15.0133 16.5294 15.1084 16.5166 15.1028 16.3984C15.0895 16.1499 14.9579 16.3098 14.8723 16.266C14.883 16.2123 14.8877 16.1599 14.9056 16.1075C14.8771 16.1779 15.0938 16.2181 15.1019 16.2042C15.1019 16.2041 15.1019 16.2039 15.1019 16.2037ZM13.7047 16.4398C13.5849 16.3573 13.583 16.5142 13.4747 16.4162C13.3613 16.5485 13.5645 16.5549 13.5866 16.5639C13.6908 16.6063 13.68 16.7588 13.7922 16.7179C13.7599 16.6255 13.7337 16.5324 13.7047 16.4398ZM14.7784 16.5447C14.6955 16.622 14.8406 16.6243 14.8473 16.6395C14.9083 16.8021 14.4668 16.7598 14.7784 16.5447ZM7.99488 14.8471C7.95666 14.8292 7.95878 14.9096 7.91649 14.9196C7.87409 14.9299 7.77116 14.8269 7.75884 14.8723C7.74576 14.9184 7.93878 15.1121 7.69714 15.0592C7.69652 15.0871 7.68738 15.1049 7.6835 15.129C7.74898 15.1522 7.813 15.1741 7.87423 15.1945C7.86386 15.1108 7.85344 15.0229 7.84362 14.9418C7.89755 14.8954 7.89269 14.9759 7.89461 14.9765C7.89463 14.9764 7.89466 14.9763 7.89468 14.9763C7.96125 14.9913 8.08024 14.8869 7.99488 14.8471ZM11.0182 16.1182C11.0893 15.9414 10.9304 16.1127 10.8859 16.1231C10.8412 16.1333 10.8115 16.0499 10.8058 16.134C10.8484 16.2068 11.01 16.1378 11.0183 16.1179C11.0182 16.118 11.0182 16.1181 11.0182 16.1182ZM13.0251 16.38C12.9258 16.4102 12.9247 16.4549 12.8362 16.4091C12.8274 16.4044 12.8177 16.3988 12.8069 16.3921C12.8058 16.4383 12.8046 16.4855 12.8036 16.531C12.8095 16.5318 12.815 16.5321 12.8203 16.532C12.9057 16.5296 12.9199 16.4158 13.0245 16.4791C13.0429 16.4902 12.9886 16.5913 13.0808 16.5674C13.0615 16.5079 13.043 16.4422 13.0251 16.38ZM12.4967 16.4854C12.615 16.4931 12.7538 16.1356 12.5172 16.2751C12.4822 16.296 12.4075 16.4796 12.4967 16.4854ZM8.97637 15.2476C8.95132 15.233 8.93293 15.2226 8.92026 15.2165C8.89045 15.2026 8.89302 15.2152 8.90736 15.2394C8.93291 15.2784 8.9931 15.3426 9.00816 15.3819C8.94166 15.3575 8.89375 15.3364 8.86109 15.3216C8.78693 15.2905 8.80775 15.3025 8.85108 15.3394C8.92414 15.3989 9.0525 15.4916 9.04196 15.5875C9.12594 15.5641 9.27595 15.4879 9.1686 15.4111C9.12424 15.3785 9.1207 15.4379 9.11784 15.4366C9.03033 15.384 9.07909 15.3056 8.97637 15.2476ZM13.9215 16.4422C13.9135 16.4446 13.9226 16.5093 13.8972 16.5209C13.8717 16.5325 13.8192 16.4848 13.8112 16.5238C13.8038 16.5632 13.9146 16.5996 13.9493 16.5722C13.9849 16.5446 13.9909 16.4207 13.9215 16.4422ZM13.154 16.226C13.0475 16.2606 13.1878 16.5142 13.2114 16.5152C13.4101 16.5224 13.1383 16.3003 13.154 16.226ZM9.5545 15.048C9.3006 15.0889 9.38317 15.3407 9.50285 15.5072C9.53006 15.4888 9.55754 15.4703 9.58388 15.4517C9.45181 15.5733 9.24345 15.6735 9.64157 15.6467C9.45575 15.5576 9.6308 15.5632 9.63386 15.5549C9.72878 15.2884 9.41602 15.3328 9.55469 15.0481C9.55463 15.0481 9.55456 15.0481 9.5545 15.048ZM14.2478 16.5232C14.3543 16.5262 14.631 16.485 14.5067 16.3578C14.4196 16.4131 14.3354 16.4684 14.2478 16.5232ZM5.96095 13.5276C5.92655 13.425 5.86402 13.388 5.78448 13.3384C5.79735 13.472 5.7442 13.4501 5.7046 13.4532C5.64499 13.4579 5.73924 13.5196 5.7359 13.525C5.68101 13.6053 5.60772 13.5773 5.75399 13.6681C5.70002 13.6745 5.64542 13.6801 5.59046 13.6836C5.70045 13.7624 5.69357 13.8312 5.72924 13.9432C5.75417 13.7366 5.78878 13.8967 5.92067 13.8615C5.98557 13.8434 5.97651 13.5793 5.96068 13.5274C5.96077 13.5275 5.96086 13.5275 5.96095 13.5276ZM9.3502 14.9348C9.31674 14.9583 9.27988 14.9932 9.24363 15.0202C9.2198 15.0139 9.19621 15.0068 9.17266 14.9997C9.183 14.9711 9.1945 14.9414 9.20418 14.9137C9.18081 14.8925 9.17274 14.9355 9.16278 14.935C9.16286 14.9349 9.16293 14.9347 9.163 14.9346C9.13287 14.9327 9.10707 14.9291 9.0851 14.9237C8.98978 14.8961 8.94818 14.8522 8.89337 14.7431C8.85283 14.8267 8.81228 14.9103 8.77173 14.9939C8.79884 14.9972 8.826 15.001 8.85322 15.0052C8.88832 14.9671 8.92359 14.9291 8.95956 14.8916C8.97445 14.9305 8.98869 14.9692 9.00182 15.008C9.01391 15.0064 9.02686 15.0052 9.03986 15.004C9.05783 15.0016 9.07584 14.9989 9.09089 14.995C9.08123 15.1464 9.03399 15.139 8.98088 15.1088C8.93654 15.0833 8.88981 15.0459 8.86544 15.0897C8.85107 15.1161 8.88715 15.1534 8.93673 15.1873C9.00854 15.236 9.1087 15.2669 9.14053 15.2509C9.14827 15.2465 9.17154 15.0464 9.22307 15.1777C9.22927 15.1971 9.08503 15.5916 9.31072 15.3139C9.34147 15.2739 9.37879 15.0115 9.3502 14.9348ZM8.47661 14.3908C8.54016 14.694 8.07285 14.2406 8.2438 14.5286C8.13822 14.6236 8.15198 14.6264 8.1853 14.7519C8.18815 14.7632 8.13142 14.7802 8.13405 14.7856C8.1781 14.863 8.26235 14.8578 8.22746 14.9616C8.24563 14.9616 8.26288 14.9621 8.28101 14.9623C8.24638 14.8411 8.37815 14.8133 8.45253 14.7484C8.48626 14.7188 8.44441 14.6904 8.4732 14.6643C8.48394 14.6547 8.5399 14.7027 8.55554 14.6702C8.59087 14.5964 8.58911 14.4769 8.53639 14.3938C8.53642 14.3937 8.53645 14.3936 8.53648 14.3936C8.51643 14.392 8.49654 14.3919 8.47661 14.3908ZM11.5144 15.6496C11.5086 15.6908 11.511 15.7263 11.5131 15.756C11.5154 15.805 11.5188 15.8391 11.4799 15.8586C11.4577 15.8696 11.4221 15.8758 11.3658 15.8772C11.3662 15.908 11.367 15.9387 11.3675 15.9695C11.3913 15.9754 11.4147 15.9811 11.4383 15.9869C11.4485 15.9895 11.4587 15.992 11.4692 15.9945C11.6897 15.6078 11.7469 16.1208 11.7022 15.7947C11.6972 15.7592 11.6143 15.7775 11.7089 15.7066C11.7088 15.7065 11.7087 15.7064 11.7087 15.7063C11.615 15.7088 11.5811 15.7434 11.5367 15.683C11.5296 15.674 11.5223 15.663 11.5144 15.6496ZM10.7698 15.518C10.4365 15.7427 11.0566 15.7875 10.9855 15.6804C10.9789 15.6698 10.7079 15.6558 10.7698 15.518ZM12.7943 15.6996C12.68 15.6798 12.6518 15.8456 12.6558 15.907C12.6598 15.9686 12.7468 15.9177 12.7559 15.9285C12.7853 15.964 12.712 15.9757 12.7498 16.024C12.757 16.0328 12.8214 16.0637 12.8778 16.088C12.9214 16.1067 12.9599 16.1211 12.9643 16.1185C13.0198 16.085 12.9632 15.9383 12.9797 15.9243C13.0327 15.8786 13.0875 15.9578 13.1096 15.8861C13.1569 15.7335 13.0203 15.8834 12.9997 15.8834C12.9414 15.8832 12.9537 15.8048 12.9181 15.7767C12.9162 15.7752 12.9141 15.7739 12.9119 15.7727C12.868 15.7492 12.8342 15.7754 12.7944 15.7641C12.7812 15.7603 12.8001 15.7009 12.7943 15.6996ZM12.3718 16.0038C12.5067 15.8931 12.236 15.7186 12.1994 15.7427C12.0865 15.8161 12.3057 16.0569 12.3718 16.0038ZM8.70359 14.9155C8.84525 14.8786 8.63366 14.7002 8.54709 14.709C8.54808 14.7495 8.65738 14.9281 8.70359 14.9155ZM9.61503 15.0674C9.51416 15.0662 9.57579 15.3034 9.65986 15.3231C9.74383 15.2048 9.69189 15.2187 9.64171 15.1984C9.59189 15.1779 9.69344 15.0675 9.61503 15.0674ZM14.0027 15.9604C13.9822 15.9581 13.6267 16.0516 13.8247 16.1094C13.8406 16.1141 14.0857 16.1056 14.106 16.085C14.1455 16.0441 14.0581 15.969 14.0027 15.9604ZM10.1157 14.9909C10.0381 15.0939 9.98804 15.08 10.0025 15.2261C10.0025 15.2261 10.0026 15.2261 10.0027 15.2261C9.86235 15.2358 9.92735 14.9591 9.89905 14.9582C9.79989 14.9542 9.83781 15.1728 9.76061 15.2209C9.91767 15.1978 9.84316 15.3188 9.95084 15.3543C9.97508 15.3622 10.0923 15.3063 10.1179 15.2602C10.1435 15.2141 10.1279 15.0547 10.1157 14.9909ZM14.4971 15.9489C14.3821 15.9002 14.2649 16.0877 14.4294 16.1233C14.5084 16.1407 14.5699 15.9785 14.4971 15.9489ZM4.23378 11.5086C4.20093 11.5506 4.16852 11.5929 4.1368 11.6358C4.10328 11.6053 4.0695 11.5746 4.03564 11.544C4.06756 11.565 4.09925 11.5861 4.131 11.6073C4.10216 11.5284 4.15932 11.4479 4.23367 11.5084C4.23371 11.5085 4.23375 11.5085 4.23378 11.5086ZM3.04686 8.89134C3.07793 8.84502 2.91625 8.84669 2.9083 8.85765C2.87591 8.91098 2.91478 8.93949 2.95992 8.93716C2.99191 8.93975 3.02632 8.92851 3.04223 8.89784C3.04388 8.89575 3.04543 8.89358 3.04686 8.89134ZM8.72391 14.4299C8.58959 14.3545 8.60081 14.6192 8.67447 14.6679C8.64128 14.6039 8.79917 14.4737 8.72391 14.4299ZM3.36311 9.90919C3.34709 9.92678 3.33124 9.94471 3.31586 9.96388C3.32961 9.91578 3.34607 9.90304 3.36311 9.90919ZM13.9579 15.7434C13.9368 15.7239 13.7895 15.7007 13.7669 15.7224C13.7218 15.7683 13.8318 15.9093 13.9039 15.8714C13.9116 15.8674 13.9776 15.763 13.9576 15.7434C13.9577 15.7434 13.9578 15.7434 13.9579 15.7434ZM4.21289 11.3006C4.21105 11.3021 4.20911 11.3032 4.20714 11.3039C4.20906 11.3029 4.21093 11.3016 4.21289 11.3006ZM2.62047 5.95847C2.61684 5.95966 2.6132 5.96057 2.60963 5.96105C2.61308 5.96027 2.61668 5.95922 2.62047 5.95847ZM12.9335 15.4457C12.9107 15.2092 12.7759 15.3164 12.8558 15.442C12.8602 15.4486 12.921 15.4436 12.9335 15.4457ZM344.325 17.2154C342.422 17.1802 340.337 17.1619 338.431 17.0777C338.196 17.0673 338.213 17.0005 338.147 16.9901C337.968 16.9615 337.859 17.0382 337.728 17.0294C337.088 16.9865 336.496 16.9612 335.872 16.9212C335.229 16.88 335.538 16.6784 335.316 16.6224C334.881 16.5125 335.246 16.7934 335.073 16.8505C334.574 16.8225 334.07 16.7812 333.567 16.7395C333.69 16.717 333.815 16.695 333.938 16.6743C333.72 16.6636 333.406 16.6142 333.775 16.5517C333.694 16.5302 333.619 16.5055 333.536 16.4844C333.511 16.583 333.125 16.5819 333.089 16.6399C333.052 16.6978 333.269 16.6894 333.267 16.6945C333.254 16.7674 332.357 16.6463 332.297 16.6367C332.13 16.611 332.281 16.4916 332.135 16.4961C331.883 16.5037 332.043 16.7576 331.714 16.4174C331.578 16.5222 331.57 16.4659 331.4 16.4544C331.378 16.453 331.394 16.5159 331.384 16.5173C331.121 16.5575 331.325 16.446 331.324 16.4397C331.302 16.3321 331.023 16.3732 330.966 16.3616C330.239 16.2166 329.709 16.1176 328.937 16.0698C328.782 16.0598 328.255 16.0909 328.109 16.0693C327.942 16.0474 328.034 15.9724 327.949 15.9334C327.805 16.1156 327.698 16.1335 327.386 16.004C327.269 16.1366 327.31 16.0284 327.074 16.05C326.914 16.0687 326.559 16.2227 326.407 16.0811C326.505 16.0895 326.544 16.077 326.616 16.0585C326.667 16.0396 326.709 16.0139 326.853 15.9972C326.915 15.9853 327.828 16.0038 327.747 15.8636C327.724 15.791 327.417 15.85 327.409 15.8365C327.346 15.7576 327.51 15.6662 327.661 15.7031C327.628 15.718 327.577 15.7326 327.537 15.7473C327.865 15.8518 327.643 15.4747 327.879 15.8053C327.909 15.8458 327.896 15.8871 327.946 15.9306C327.957 15.9134 327.895 15.8685 327.949 15.862C328.004 15.8554 328.109 15.9404 328.128 15.8713C328.153 15.7708 327.919 15.8052 327.904 15.7989C327.904 15.7995 327.904 15.8001 327.904 15.8007C327.756 15.7436 328.068 15.7448 328.087 15.7357C328.19 15.6751 328.121 15.625 328.262 15.5763C328.34 15.5485 328.55 15.5709 328.632 15.5632C328.712 15.5553 328.589 15.5046 328.643 15.4956C328.7 15.4866 328.756 15.5243 328.816 15.5138C328.841 15.5092 328.841 15.4558 328.854 15.4542C328.986 15.4368 328.896 15.5457 329.018 15.5417C329.096 15.5391 329.372 15.4422 329.184 15.407C329.276 15.3984 329.361 15.3925 329.446 15.3861C329.391 15.369 329.34 15.357 329.284 15.337C329.446 15.3662 329.519 15.2767 329.622 15.2723C329.725 15.2679 329.815 15.3796 329.933 15.3289C330.184 15.2212 329.569 15.2592 329.501 15.2373C329.473 15.2287 329.584 15.1455 329.602 15.1435C329.677 15.1345 329.767 15.198 329.827 15.1966C330.047 15.1915 330.163 15.1133 330.366 15.1017C331.051 15.0623 331.894 15.0371 332.54 15.0345C332.779 15.0336 332.923 15.128 333.032 15.128C333.284 15.1278 333.315 15.0492 333.535 15.0502C333.865 15.0514 334.321 15.1313 334.596 15.1527C334.786 15.1674 334.958 15.0947 335.007 15.094C335.691 15.0824 336.523 15.1036 337.09 15.1159C337.354 15.1216 337.481 15.2108 337.536 15.2096C337.774 15.2044 337.712 15.1292 337.903 15.1411C338.006 15.1474 338.023 15.2186 338.037 15.2217C338.157 15.2479 338.185 15.156 338.281 15.1552C338.83 15.1505 339.357 15.2233 339.897 15.2446C339.937 15.2462 339.933 15.2871 339.959 15.2856C340.069 15.2781 340.02 15.2124 340.134 15.2104C340.371 15.2058 340.614 15.2221 340.869 15.2361C340.894 15.2375 340.904 15.2904 340.961 15.2917C341.017 15.293 341.061 15.2441 341.149 15.2489C341.383 15.2615 341.623 15.3267 341.861 15.3354C341.899 15.3367 341.957 15.2746 342.019 15.2767C342.224 15.2835 342.483 15.3469 342.665 15.3531C343.195 15.3715 343.727 15.3474 344.233 15.3575C344.332 15.3596 344.475 15.4213 344.521 15.4235C344.655 15.4291 344.572 15.3721 344.697 15.374C344.706 15.3741 344.719 15.3743 344.739 15.3745C344.747 15.3746 344.752 15.3746 344.751 15.3746C344.737 15.3763 344.788 15.3688 344.651 15.3814L344.588 15.392C345.044 15.3383 345.062 15.4221 345.147 15.4284C345.213 15.4469 345.249 15.458 345.283 15.4669C345.349 15.4844 345.398 15.4936 345.453 15.4995C345.561 15.511 345.684 15.505 345.824 15.4784C345.854 15.4737 345.943 15.4611 345.973 15.4616C346.703 15.4504 347.426 15.4287 348.179 15.401C348.274 15.3979 348.375 15.3926 348.48 15.3872C348.879 15.3658 349.311 15.3235 349.668 15.3265C349.852 15.3282 349.889 15.4037 350.018 15.4C350.247 15.3924 350.287 15.2927 350.521 15.2698C350.708 15.2513 350.921 15.3324 351.113 15.3038C351.194 15.2917 351.256 15.2649 351.318 15.2351C351.381 15.1974 351.441 15.1533 351.552 15.1237C351.712 15.0826 351.974 15.0564 352.239 14.9976C352.416 14.9644 352.606 14.9093 352.965 14.9506C352.871 14.941 353.107 14.9311 353.242 14.9012C353.399 14.8734 353.567 14.8382 353.737 14.8005C354.079 14.7243 354.416 14.6392 354.788 14.55C355.223 14.4473 355.776 14.276 356.02 14.1494C356.181 14.0608 356.337 13.973 356.531 13.8725C356.726 13.7696 356.974 13.6681 357.167 13.6038C357.29 13.5635 357.406 13.517 357.52 13.4619C357.791 13.3334 358.045 13.1195 358.398 12.8257C358.63 12.6369 358.86 12.4583 359.087 12.2963C359.14 12.2587 359.133 12.3933 359.267 12.2374C359.338 12.1536 359.394 11.9904 359.553 11.8144C359.651 11.7049 359.744 11.5959 359.818 11.4979C360.114 11.092 360.432 10.5774 360.871 10.02C360.881 10.0347 361.03 9.74436 361.114 9.54593C361.212 9.32211 361.291 9.1133 361.415 8.82783C361.424 8.83206 361.464 8.65644 361.477 8.50716C361.492 8.34935 361.499 8.17541 361.503 7.99663C361.506 7.8373 361.505 7.67346 361.507 7.49451C361.508 7.40456 361.51 7.31181 361.518 7.20386C361.534 7.0856 361.513 7.00481 361.627 6.72131L361.573 6.87055C361.565 6.86838 361.556 6.73002 361.524 6.55823C361.497 6.38142 361.452 6.1643 361.461 5.85418C361.461 5.27269 361.52 4.61349 361.696 4.01138C362.011 2.98476 362.205 1.96947 362.824 1.00633C362.886 0.908865 363.106 0.998603 363.162 1.06999C363.107 1.12108 363.045 1.16279 362.984 1.21678C363.258 1.33377 363.186 1.30953 363.119 1.58387C363.078 1.75243 363.22 1.63392 363.241 1.73024C363.269 1.8553 363.321 2.43478 363.149 2.29751C363.176 2.33789 363.202 2.37474 363.229 2.41291C363.19 2.82214 363.166 3.22256 363.115 3.63438C363.106 3.70545 363.164 3.72404 363.153 3.79765C363.125 3.99536 363.041 4.13255 362.987 4.32357C362.976 4.36371 362.978 4.39331 362.982 4.42315C362.99 4.46718 363.002 4.50891 362.977 4.58514C362.937 4.70919 362.846 4.68423 362.902 4.88252C363.041 4.79677 362.846 5.27844 362.833 5.46781C362.83 5.49506 362.906 5.72741 362.883 5.84514C362.875 5.88473 362.86 5.93086 362.845 5.98233C362.818 6.04524 362.798 6.14959 362.831 6.26589C362.854 6.34867 362.941 6.39514 362.953 6.49926C362.961 6.57343 362.895 6.67142 362.892 6.78093C362.891 6.86837 362.917 7.07654 362.898 7.19836C362.894 7.22203 362.868 7.28755 362.858 7.30977C362.869 7.29524 362.872 7.28971 362.874 7.28649C362.882 7.27602 362.832 7.25946 362.826 7.27318C362.767 7.51984 362.745 8.06709 362.747 8.48658C362.747 8.54054 362.813 8.47074 362.814 8.47791C362.857 8.85731 362.794 8.65253 362.73 8.74801C362.69 8.8044 362.68 9.02299 362.578 9.32832C362.545 9.44697 362.525 9.59552 362.57 9.61154C362.44 9.58355 362.484 9.75337 362.474 9.79079C362.435 9.93502 362.339 9.86705 362.319 10.0159C362.312 10.0708 362.422 10.0008 362.398 10.0541C362.34 10.1871 362.179 10.2607 362.082 10.4415C362.057 10.4854 362.101 10.5236 362.054 10.6103C362.033 10.6454 361.985 10.718 361.905 10.8139C361.851 10.87 361.808 10.9385 361.913 10.9117C361.734 11.0036 361.752 11.0696 361.626 11.2571C361.593 11.3051 361.478 11.3196 361.434 11.4396C361.419 11.4802 361.491 11.5254 361.457 11.5794C361.38 11.7032 361.231 11.772 361.125 11.9285C361.047 12.041 360.979 12.1593 360.892 12.2932C360.75 12.5083 360.599 12.7023 360.424 12.8638C360.348 12.9339 360.304 12.8557 360.198 12.9593C360.183 12.9746 360.107 13.1528 360.028 13.2176C359.981 13.2577 359.714 13.4331 359.665 13.4716C359.583 13.5367 359.625 13.6109 359.572 13.6368C359.418 13.7117 359.434 13.5325 359.399 13.7888C359.348 13.7767 359.304 13.7878 359.261 13.7971C359.211 13.8078 359.163 13.817 359.106 13.7841C359.14 13.9219 358.995 13.8903 358.922 14.0092C358.85 14.1274 358.91 14.39 358.721 14.2066C358.693 14.2723 358.495 14.4827 358.454 14.5116C358.34 14.5988 358.365 14.4967 358.279 14.5608C358.264 14.5717 358.307 14.605 358.197 14.6613C358.144 14.6924 357.82 14.8493 357.648 14.9034C357.603 14.9187 357.573 14.929 357.566 14.93C357.345 14.9631 357.482 14.9004 357.623 14.8341C357.701 14.7983 357.774 14.758 357.793 14.7311C357.812 14.7382 357.831 14.7452 357.851 14.7514C358.02 14.7 357.881 14.6415 357.802 14.6485C357.739 14.6543 357.656 14.7167 357.586 14.7362C357.569 14.741 357.554 14.7426 357.539 14.7397C357.51 14.7336 357.483 14.6331 357.535 14.5968C357.543 14.5913 357.553 14.5871 357.565 14.5849C357.546 14.5843 357.535 14.5811 357.527 14.5762C357.517 14.5695 357.515 14.5598 357.517 14.5488C357.521 14.5205 357.548 14.4841 357.518 14.4705C357.512 14.4676 357.501 14.4669 357.487 14.4679C357.375 14.4717 357.057 14.6099 357.087 14.6723C357.16 14.6383 357.25 14.5948 357.327 14.567C357.46 14.6526 357.376 15.1498 357.056 15.1347C356.81 15.1279 357.068 14.8669 356.677 15.2096C356.749 15.1754 356.812 15.153 356.876 15.123C356.93 15.2028 356.778 15.1676 356.741 15.2236C356.724 15.2506 356.911 15.223 356.788 15.3182C356.743 15.3043 356.707 15.3047 356.676 15.3152C356.567 15.3546 356.499 15.4731 356.33 15.5416C356.384 15.4942 356.437 15.4456 356.489 15.3947C356.081 15.4651 356.912 15.0653 356.188 15.3164C356.27 15.28 356.354 15.2467 356.435 15.2012C356.374 15.1743 356.374 15.0108 356.326 14.9986C356.206 14.9646 356.094 15.0627 355.978 15.0963C355.928 15.111 355.945 15.0624 355.941 15.0637C355.872 15.083 355.906 15.1332 355.848 15.1569C355.774 15.1875 355.538 15.1997 355.505 15.2154C355.417 15.2579 355.603 15.3246 355.597 15.3351C355.553 15.4067 355.418 15.3961 355.443 15.4648C355.726 15.3464 356.59 15.0972 355.861 15.482C356.112 15.5226 356.107 15.701 355.79 15.8123C355.528 15.9 355.68 15.7877 355.525 15.7568C355.505 15.7546 355.145 15.8099 355.138 15.862C355.125 15.745 354.99 15.6692 355.039 15.5345C355.046 15.515 355.187 15.4887 355.116 15.4059C355.08 15.3644 354.988 15.2768 354.985 15.2137C354.975 15.2406 354.965 15.2692 354.954 15.2979C354.946 15.3208 354.938 15.344 354.928 15.3667C354.722 15.4265 354.68 15.3885 354.549 15.3357C354.561 15.3674 354.699 15.4811 354.528 15.4755C354.519 15.4749 354.502 15.4269 354.415 15.4205C354.239 15.4076 354.202 15.3994 354.296 15.2267C353.976 15.3825 353.869 15.2366 353.538 15.3454C353.638 15.5217 353.753 15.455 354.062 15.353C354.085 15.3947 354.101 15.4374 354.125 15.4794C353.679 15.4654 353.893 15.4327 353.669 15.5691C353.614 15.6036 353.298 15.6289 353.421 15.7398C353.451 15.7666 353.648 15.7298 353.633 15.7805C353.631 15.7908 353.393 15.8531 353.369 15.843C353.094 15.7168 353.505 15.5964 352.862 15.6742C352.859 15.6742 352.857 15.6767 352.854 15.6805C352.835 15.6935 352.816 15.7269 352.778 15.7305C352.691 15.7413 352.689 15.6783 352.613 15.6982C352.537 15.7194 352.456 15.8196 352.338 15.7618C352.12 15.6657 352.54 15.4542 352.847 15.5701C352.916 15.4637 352.41 15.4156 352.076 15.4924C351.719 15.5576 351.409 15.6168 351.373 15.6261C351.372 15.6266 351.37 15.6271 351.369 15.6275C351.193 15.6858 351.26 15.6844 351.375 15.6749C351.473 15.6681 351.616 15.6435 351.636 15.6657C351.652 15.6849 351.704 15.9655 351.816 15.7519C351.847 15.6891 351.649 15.6592 351.751 15.6059C351.854 15.5519 351.829 15.643 351.838 15.6469C351.87 15.6602 351.983 15.6017 352.002 15.6094C352.289 15.727 352.325 15.9972 351.913 15.6819C351.795 15.8028 352.147 15.8687 351.988 15.9694C351.793 16.0928 351.611 15.9948 351.585 15.9932C351.342 15.9804 351.499 16.0484 351.428 16.0839C351.404 16.0956 351.353 16.103 351.251 16.0999C351.028 16.092 351.563 15.9374 351.066 16.0064C350.65 16.0561 350.88 16.0998 350.862 16.2521C350.858 16.2875 350.626 16.3493 350.945 16.3078C350.951 16.2682 350.963 16.2155 350.98 16.1779C351.059 16.1992 351.211 16.3787 351.254 16.3804C351.378 16.3852 351.42 16.3509 351.462 16.345C351.492 16.3407 351.522 16.3491 351.581 16.3883C351.471 16.2735 351.629 16.3287 351.678 16.2911C351.854 16.1518 351.592 16.1719 352.05 16.2017C351.981 16.1552 351.917 16.1085 351.85 16.0609C351.901 16.0476 351.951 16.0337 352.001 16.0198C352.108 16.1327 352.369 16.0538 352.16 16.2421C352.459 16.2097 352.547 16.1687 352.594 16.0572C352.602 16.0362 352.642 16.0232 352.687 16.0196C352.678 15.9904 352.661 15.9003 352.668 15.8887C352.745 15.7844 352.843 15.9691 352.795 16.0282C352.797 16.0287 352.799 16.0293 352.801 16.0298C352.843 16.039 352.874 16.0432 352.885 16.0453C352.966 16.0587 352.803 16.1095 352.868 16.1332C352.898 16.1451 353.107 16.1239 353.111 16.1455C353.143 16.2908 352.812 16.2275 353.477 16.234C353.472 16.0959 353.18 16.1641 353.239 16.0078C353.3 15.8421 353.489 16.0285 353.494 15.8306C353.512 15.8601 353.522 15.8855 353.539 15.9196C353.771 15.7946 353.801 15.9514 353.884 15.9725C354.045 16.0147 354.708 15.8615 354.082 15.8507C354.167 15.8191 354.254 15.794 354.338 15.7632C354.419 16.0421 354.343 15.9423 354.769 15.8915C354.862 15.8803 354.922 15.9976 354.976 15.8296C354.984 15.8915 355.033 15.9012 355.087 15.8936C355.169 15.8814 355.264 15.8314 355.282 15.8378C355.384 15.8755 355.274 15.9811 355.118 16.0348C354.995 16.0798 354.829 16.0887 354.765 15.975C354.685 16.098 354.656 15.9659 354.546 16.0089C354.386 16.0705 354.368 16.1017 354.15 16.0451C353.984 16.2252 354.924 15.9417 354.384 16.2499C354.286 16.3046 354.1 16.3763 353.844 16.4519C353.715 16.4896 353.571 16.5282 353.403 16.5635C353.22 16.5934 353.096 16.6481 352.711 16.6201C352.765 16.6303 352.531 16.6685 352.32 16.7376C352.096 16.8034 351.833 16.8817 351.538 16.931C350.666 17.0861 349.888 17.1062 349.566 17.1306C349.169 17.1542 348.827 17.1725 348.509 17.1884C347.714 17.2359 347.036 17.287 346.098 17.3046C346.082 17.3049 346.056 17.3057 346.02 17.3067L346.192 17.2872C346.019 17.325 345.664 17.3695 345.369 17.3278C345.074 17.2887 344.889 17.1955 345.029 17.1543C345.079 17.1512 345.654 17.1428 345.185 16.9654C345.272 17.0557 344.979 17.0575 344.955 17.056C344.775 17.071 344.696 17.0886 344.666 17.115C344.652 17.1279 344.647 17.1417 344.667 17.1572C344.695 17.1677 344.716 17.2084 344.954 17.1783C344.94 17.1818 344.898 17.1876 344.884 17.19C344.614 17.216 344.702 17.2092 344.605 17.2147C344.513 17.217 344.46 17.2178 344.325 17.2154ZM342.483 15.7247C343.317 15.7806 342.707 15.6581 342.885 15.4167C342.781 15.4136 342.675 15.4106 342.565 15.4074C342.593 15.4234 342.621 15.4394 342.649 15.4554C342.649 15.4554 342.65 15.4554 342.65 15.4554C342.595 15.5452 342.536 15.6349 342.483 15.7247ZM329.044 15.2472C329.077 15.2157 329.11 15.1841 329.146 15.1533C329.258 15.166 329.368 15.1784 329.472 15.1909C329.459 15.2125 329.446 15.2344 329.433 15.256C329.313 15.2523 329.172 15.2479 329.044 15.2472ZM352.929 15.5416C353.053 15.6292 353.035 15.4704 353.227 15.5219C353.188 15.4076 353.152 15.2954 353.116 15.1814C353.005 15.2116 352.927 15.2558 352.922 15.2266C352.909 15.2633 352.91 15.3021 352.916 15.3406C352.927 15.3331 352.944 15.3239 352.962 15.3163C352.987 15.4243 352.831 15.4347 352.929 15.5418C352.929 15.5417 352.929 15.5416 352.929 15.5416ZM354.396 15.2509C354.479 15.2485 354.81 15.2322 354.843 15.1743C354.952 14.9791 354.08 15.2859 354.707 14.9916C354.699 14.9696 354.697 14.9466 354.692 14.9241C354.568 14.9441 354.448 14.9642 354.327 14.9845C354.353 15.0728 354.368 15.1624 354.396 15.2509ZM345.459 15.8872C345.533 15.9113 345.85 15.8305 345.878 15.7426C345.899 15.7393 345.959 15.7307 345.98 15.731C345.988 15.72 345.989 15.7085 345.979 15.6969C345.957 15.6965 345.893 15.7057 345.871 15.7091C345.865 15.7022 345.855 15.6957 345.842 15.6897C345.796 15.6699 345.616 15.8429 345.538 15.8325C345.49 15.8272 345.544 15.7474 345.454 15.7728C345.455 15.8093 345.454 15.8497 345.46 15.887C345.46 15.887 345.46 15.8871 345.459 15.8872ZM345.193 16.336C345.325 16.3469 345.459 16.3391 345.587 16.3206C345.494 16.2315 345.312 16.2737 345.321 16.1396C345.354 16.1342 345.386 16.1276 345.418 16.1201C345.44 16.1508 345.463 16.1811 345.486 16.2109C345.592 16.1397 345.527 16.1093 345.715 16.1172C345.58 15.9222 345.595 15.8362 345.286 15.9974C345.35 15.8966 345.383 15.5515 345.18 15.7586C345.139 15.7964 345.253 15.8583 345.251 15.8646C345.251 15.9598 345.168 16.0014 345.168 16.0915C345.169 16.133 345.253 16.1498 345.257 16.2058C345.26 16.234 345.158 16.2924 345.193 16.336ZM345.069 15.819C345.093 15.7997 345.09 15.7561 345.056 15.7102C345.004 15.6743 345.002 15.5791 344.634 15.6185L344.681 15.6108C344.809 15.6003 344.739 15.6083 344.742 15.6093C344.611 15.634 344.756 15.684 344.696 15.732L344.659 15.7383C345.005 15.7313 345.004 15.8179 345.069 15.819ZM329.044 15.2473C329.044 15.2473 329.044 15.2473 329.044 15.2472C329.044 15.2474 329.044 15.2475 329.044 15.2476C329.044 15.2475 329.044 15.2474 329.044 15.2473ZM353.972 15.2753C354.056 15.2094 354.195 15.1865 354.169 15.1143C354.217 15.1193 354.267 15.1235 354.315 15.128C354.31 15.1058 354.304 15.0836 354.299 15.0616C354.159 15.078 354.021 15.0929 353.882 15.1061C353.911 15.1626 353.939 15.2195 353.972 15.2753ZM355.464 14.9799C355.63 14.9385 355.463 14.8804 355.484 14.8218C355.506 14.7638 355.659 14.7577 355.621 14.6947C355.527 14.7219 355.428 14.7489 355.332 14.7735C355.378 14.8413 355.418 14.9125 355.464 14.9798C355.464 14.9798 355.464 14.9798 355.464 14.9799ZM339.132 15.5664C339.254 15.5916 339.203 15.6693 339.445 15.5825C339.445 15.5825 339.445 15.5825 339.445 15.5825C339.219 15.5127 338.92 15.4481 338.671 15.5048C338.823 15.5916 338.938 15.5268 339.132 15.5664ZM352.414 15.3203C352.361 15.3906 352.657 15.3996 352.754 15.3512C352.9 15.2568 352.479 15.2017 352.414 15.3203ZM334.206 16.0053C334.017 16.1933 334.361 16.4175 334.733 16.3329C334.765 16.3255 334.528 16.2587 334.6 16.2228C334.607 16.2193 334.738 16.2269 334.77 16.2009C334.803 16.1748 334.77 16.1118 334.824 16.0869C334.917 16.0434 335.124 16.1329 335.195 16.0746C335.204 16.0668 335.076 15.9805 335.068 15.9771C334.936 15.9236 334.806 16.0294 334.785 16.0297C334.679 16.0309 334.697 15.946 334.671 15.9253C334.621 15.8864 334.531 15.922 334.524 15.9191C334.365 15.8404 334.733 15.8705 334.783 15.8409C334.919 15.761 334.797 15.6809 335.118 15.6415C335.149 15.6378 335.513 15.6513 335.056 15.5451C335.962 15.367 334.608 15.4212 334.457 15.4615C334.389 15.4803 334.49 15.564 334.448 15.5997C334.352 15.6812 334.191 15.6922 334.203 15.8105C334.228 16.0594 334.442 15.9017 334.586 15.9469C334.57 16.0004 334.563 16.0528 334.533 16.1049C334.578 16.035 334.22 15.9911 334.206 16.0048C334.206 16.0049 334.206 16.0051 334.206 16.0053ZM336.496 15.7752C336.698 15.8548 336.687 15.6979 336.87 15.7918C337.037 15.6549 336.714 15.6568 336.677 15.648C336.506 15.6086 336.512 15.4557 336.336 15.4987C336.394 15.5906 336.441 15.6831 336.496 15.7752ZM334.736 15.6694C334.874 15.5933 334.631 15.589 334.621 15.5736C334.519 15.4102 335.243 15.4585 334.736 15.6694ZM346.211 16.1518C346.28 16.1553 346.235 16.0806 346.294 16.0564C346.355 16.0321 346.563 16.0908 346.557 16.0437C346.55 15.9966 346.167 15.8852 346.547 15.8471C346.533 15.821 346.537 15.801 346.53 15.7772C346.425 15.7797 346.319 15.7817 346.215 15.7839C346.275 15.8588 346.336 15.9375 346.393 16.0098C346.337 16.0724 346.301 15.9953 346.298 15.9954C346.298 15.9955 346.298 15.9955 346.298 15.9956C346.188 16.0049 346.057 16.1441 346.211 16.1518ZM340.831 15.7536C340.806 15.9432 340.973 15.7346 341.039 15.7125C341.105 15.6906 341.193 15.763 341.161 15.6804C341.058 15.6216 340.834 15.7324 340.831 15.7538C340.831 15.7537 340.831 15.7536 340.831 15.7536ZM337.598 15.8005C337.769 15.7583 337.743 15.7083 337.948 15.7695C337.942 15.7234 337.935 15.6762 337.928 15.6308C337.763 15.626 337.772 15.7597 337.582 15.7016C337.551 15.692 337.621 15.5871 337.478 15.618C337.518 15.6758 337.558 15.7399 337.598 15.8005ZM338.443 15.6497C338.247 15.6522 338.083 16.0204 338.448 15.8611C338.502 15.8373 338.59 15.6478 338.443 15.6497ZM344.449 16.0821C344.764 16.0988 344.42 16.0323 344.311 15.9728C345.11 15.9426 344.207 15.9867 344.159 15.7952C344.066 15.8473 343.868 15.9669 344.079 16.0046C344.163 16.0201 344.133 15.9629 344.138 15.9632C344.285 15.9803 344.258 16.0724 344.449 16.0821ZM336.144 15.7761C336.157 15.7736 336.139 15.709 336.179 15.6971C336.219 15.6853 336.308 15.7323 336.318 15.6931C336.328 15.6537 336.148 15.6187 336.092 15.6463C336.035 15.6742 336.031 15.7982 336.144 15.7761ZM337.413 15.964C337.581 15.9217 337.313 15.6789 337.278 15.6791C336.962 15.6842 337.423 15.8893 337.413 15.964ZM343.668 16.4674C344.065 16.3558 343.794 16.1411 343.528 16.0102C343.497 16.0349 343.464 16.0597 343.432 16.0842C343.576 15.9328 343.84 15.786 343.266 15.9079C343.582 15.9513 343.317 15.9869 343.314 15.9956C343.273 16.2785 343.746 16.1571 343.668 16.4674C343.668 16.4674 343.668 16.4674 343.668 16.4674ZM335.607 15.6959C335.433 15.6928 334.979 15.7312 335.187 15.8597C335.327 15.8052 335.467 15.7505 335.607 15.6959ZM350.198 16.4312C350.345 16.4961 350.478 16.489 350.656 16.4732C350.49 16.3802 350.594 16.3622 350.646 16.3336C350.725 16.2907 350.529 16.306 350.527 16.2988C350.526 16.2008 350.65 16.1797 350.366 16.1964C350.435 16.159 350.501 16.1212 350.569 16.0833C350.354 16.0911 350.301 16.0289 350.162 15.9566C350.301 16.1414 350.123 16.0298 349.968 16.1296C349.89 16.1796 350.123 16.3983 350.199 16.4312C350.199 16.4312 350.199 16.4312 350.198 16.4312ZM344.082 16.5145C344.125 16.4811 344.163 16.4355 344.202 16.3971C344.246 16.3943 344.273 16.3916 344.329 16.389C344.335 16.4195 344.339 16.4513 344.345 16.4806C344.407 16.4906 344.384 16.4479 344.402 16.4443C344.402 16.4445 344.402 16.4447 344.402 16.4448C344.489 16.4278 344.529 16.4169 344.608 16.4144C344.671 16.411 344.703 16.4188 344.786 16.428C344.789 16.4275 344.797 16.4263 344.8 16.4256C344.764 16.4402 344.812 16.4627 344.856 16.51C344.881 16.4206 344.906 16.3312 344.932 16.2419C344.888 16.2389 344.843 16.2345 344.799 16.24C344.785 16.2671 344.775 16.2965 344.779 16.3246C344.756 16.349 344.756 16.3701 344.743 16.392C344.663 16.3637 344.656 16.336 344.591 16.3073C344.535 16.3243 344.504 16.3425 344.469 16.3593C344.278 16.0959 344.724 16.2812 344.728 16.1728C344.741 16.1044 344.262 16.0979 344.211 16.1446C344.202 16.1514 344.293 16.3467 344.134 16.2426C344.11 16.2262 344.105 15.8078 343.916 16.1425C343.89 16.19 343.97 16.4516 344.082 16.5145ZM345.743 16.7814C345.553 16.6311 345.884 16.6545 346.056 16.6213L346.003 16.6274C346.104 16.6296 346.153 16.62 346.001 16.5416L346.039 16.5373C346.036 16.5364 346.033 16.5355 346.029 16.5345C346.032 16.5308 346.034 16.5272 346.037 16.5237L346 16.5278C346.094 16.4228 346.084 16.412 345.995 16.3351C345.987 16.3283 345.975 16.321 345.962 16.3128C345.956 16.3089 345.971 16.2948 345.987 16.2811C346.012 16.2698 346.03 16.2599 346.026 16.2579C346.015 16.2523 346.004 16.2476 345.993 16.2435C345.99 16.2434 345.983 16.2445 345.98 16.245C345.876 16.2257 345.778 16.2535 345.766 16.1554C345.739 16.1644 345.715 16.1719 345.688 16.1798C345.812 16.2722 345.636 16.3595 345.555 16.4447C345.518 16.4843 345.602 16.4958 345.572 16.5306C345.56 16.5442 345.442 16.5164 345.434 16.5513C345.419 16.6316 345.492 16.7496 345.639 16.8048C345.639 16.8048 345.639 16.8049 345.639 16.805C345.674 16.7983 345.709 16.7897 345.743 16.7814ZM340.278 16.3413C340.238 16.1925 340.068 16.1462 340.399 16.0815C340.384 16.052 340.368 16.0227 340.352 15.9932C340.297 15.9945 340.242 15.9958 340.185 15.9968C340.005 16.4285 339.697 15.9295 339.894 16.2432C339.916 16.2773 340.051 16.2429 339.916 16.331C339.916 16.3311 339.916 16.3312 339.916 16.3313C340.103 16.3076 340.127 16.2557 340.278 16.3413ZM341.515 16.2666C341.949 15.9652 340.924 16.0793 341.096 16.1659C341.105 16.1736 341.554 16.1169 341.515 16.2666ZM338.096 16.4585C338.288 16.4684 338.305 16.3008 338.287 16.2399C338.269 16.1788 338.134 16.237 338.117 16.227C338.063 16.1943 338.18 16.1762 338.11 16.1314C338.087 16.1168 337.758 16.0493 337.742 16.0562C337.657 16.0944 337.777 16.2357 337.753 16.251C337.673 16.3012 337.568 16.2266 337.543 16.2998C337.49 16.4558 337.694 16.2954 337.727 16.2935C337.829 16.2884 337.818 16.3767 337.893 16.3962C337.968 16.4156 338.018 16.3865 338.084 16.3943C338.106 16.3969 338.087 16.4578 338.096 16.4585ZM338.736 16.1187C338.536 16.2412 339.01 16.3905 339.073 16.3622C339.246 16.2777 338.829 16.0602 338.736 16.1187ZM345.072 16.3245C344.863 16.3658 345.284 16.5539 345.426 16.5115C345.398 16.4767 345.136 16.3144 345.072 16.3245ZM343.551 16.4643C343.73 16.4395 343.497 16.2268 343.368 16.2272C343.284 16.3618 343.362 16.3365 343.449 16.344C343.536 16.3516 343.422 16.4838 343.551 16.4643ZM336.035 16.2587C336.071 16.2617 336.654 16.1625 336.322 16.1079C336.297 16.1038 335.889 16.1141 335.858 16.1344C335.795 16.1754 335.942 16.2505 336.035 16.2587ZM342.751 16.6481C342.842 16.5321 342.926 16.5356 342.85 16.3952C342.85 16.3952 342.85 16.3952 342.85 16.3952C343.067 16.3577 343.073 16.6414 343.124 16.6364C343.299 16.619 343.139 16.4136 343.249 16.3498C342.993 16.4064 343.067 16.272 342.886 16.2593C342.846 16.2565 342.675 16.334 342.648 16.384C342.622 16.4341 342.706 16.5878 342.751 16.6481ZM335.213 16.2689C335.408 16.3187 335.592 16.1317 335.321 16.095C335.188 16.0769 335.093 16.2386 335.213 16.2689ZM354.82 15.8455C354.78 15.8031 354.737 15.7617 354.696 15.7201C354.764 15.6922 354.832 15.6639 354.9 15.6358C354.848 15.6638 354.794 15.6923 354.742 15.7201C354.879 15.7069 354.96 15.7818 354.82 15.8454C354.82 15.8454 354.82 15.8455 354.82 15.8455ZM359.27 13.7079C359.347 13.7035 359.338 13.5116 359.318 13.5131C359.175 13.5248 359.162 13.7141 359.27 13.7079ZM345.288 16.8254C345.572 16.868 345.383 16.6164 345.239 16.5781C345.33 16.6376 345.131 16.7933 345.288 16.8254ZM357.793 14.7311C357.764 14.7205 357.735 14.7099 357.705 14.6996C357.787 14.6974 357.808 14.7092 357.793 14.7311ZM336.123 16.4755C336.157 16.495 336.411 16.5163 336.446 16.4941C336.519 16.4472 336.323 16.3084 336.205 16.3469C336.192 16.3511 336.089 16.4561 336.123 16.4755C336.123 16.4755 336.123 16.4755 336.123 16.4755ZM355.139 15.8685C355.138 15.8664 355.138 15.8641 355.138 15.862C355.138 15.8642 355.139 15.8663 355.139 15.8685ZM362.581 9.61366C362.577 9.6136 362.573 9.61296 362.57 9.61154C362.573 9.6123 362.577 9.61261 362.581 9.61366ZM337.918 16.7239C337.997 16.9575 338.194 16.8388 338.044 16.7207C338.035 16.7145 337.939 16.7248 337.918 16.7239Z" fill="#419DDF"/>
</svg>
