<svg width="946" height="19" viewBox="0 0 946 19" fill="none" xmlns="http://www.w3.org/2000/svg">
<path d="M580.96 14.5267C618.26 14.519 659.096 14.4727 696.546 14.5329C701.143 14.5403 700.829 14.641 702.119 14.6543C705.645 14.691 707.768 14.5722 710.338 14.5809C722.833 14.6229 734.52 14.64 746.778 14.6781C759.404 14.7173 753.431 15.0305 757.819 15.1068C766.391 15.2562 759.099 14.8478 762.469 14.7561C772.295 14.7806 782.21 14.8248 792.054 14.8696C789.651 14.9078 787.247 14.9451 784.817 14.9804C789.108 14.9888 795.249 15.0518 788.064 15.1586C789.652 15.188 791.134 15.2223 792.766 15.251C793.214 15.1023 800.811 15.0904 801.505 15.0022C802.198 14.914 797.927 14.9343 797.954 14.9266C798.237 14.8167 815.757 14.9669 817.021 14.9791C820.361 15.0117 817.433 15.1961 820.274 15.1842C825.161 15.1639 821.906 14.7888 828.521 15.2875C831.153 15.1255 831.383 15.2096 834.716 15.2208C835.155 15.2222 834.814 15.1284 835.007 15.126C840.052 15.0564 836.174 15.2308 836.2 15.2402C836.658 15.4008 842.072 15.3294 843.212 15.3448C857.523 15.5366 868.008 15.6664 883.109 15.7108C886.373 15.7203 896.315 15.6551 899.473 15.6824C902.589 15.7094 900.917 15.825 902.548 15.8806C905.161 15.6023 907.655 15.5717 913.522 15.755C915.707 15.552 915.426 15.7157 919.611 15.6751C923.095 15.6415 929.166 15.398 933 15.6055C928.604 15.5866 929.059 15.6863 924.11 15.7465C922.463 15.7665 905.285 15.7707 906.563 15.9782C907.23 16.0863 912.923 15.987 913.143 16.0069C914.424 16.1231 911.246 16.2659 908.43 16.2158C909.132 16.1924 909.977 16.1686 910.732 16.1452C904.406 15.9999 908.756 16.5577 903.948 16.0703C903.354 16.0105 903.584 15.9481 902.604 15.8846C902.403 15.9109 903.602 15.976 902.569 15.9877C901.515 15.9994 899.516 15.8758 899.217 15.98C898.772 16.1316 903.135 16.0718 903.464 16.0807C903.467 16.0798 903.471 16.0789 903.474 16.078C906.378 16.1584 900.314 16.1676 900.024 16.182C898.149 16.2764 899.428 16.3491 896.613 16.4271C895.007 16.4716 890.918 16.4454 889.408 16.4597C887.909 16.4744 890.242 16.5461 889.233 16.5615C888.224 16.5769 886.967 16.5224 885.783 16.5403C885.276 16.5482 885.302 16.6281 885.056 16.6309C882.425 16.6617 884.151 16.4954 881.764 16.5055C880.218 16.5122 875.029 16.6673 878.606 16.7135C876.887 16.7296 875.21 16.7414 873.5 16.754C874.578 16.7778 875.693 16.7939 876.746 16.8219C873.527 16.7838 872.071 16.9207 870.053 16.9309C868.035 16.941 866.226 16.7768 864.006 16.8569C859.268 17.0273 871.001 16.9486 872.457 16.979C873.025 16.991 870.845 17.1196 870.509 17.1233C869.018 17.1394 867.255 17.0474 866.105 17.0515C861.99 17.0669 859.47 17.1883 855.548 17.2128C842.194 17.2961 825.627 17.3637 812.974 17.3903C808.262 17.4001 805.427 17.2636 803.312 17.2674C798.365 17.2765 797.759 17.3955 793.444 17.4018C787.021 17.4116 777.972 17.3078 772.611 17.2854C768.9 17.27 765.54 17.3851 764.574 17.3879C751.158 17.4292 734.837 17.4266 723.72 17.428C718.491 17.4287 716.008 17.2993 714.929 17.3031C710.287 17.3192 711.532 17.4298 707.769 17.4187C705.737 17.4127 705.356 17.3065 705.084 17.3024C702.689 17.2674 702.212 17.406 700.343 17.4106C689.595 17.4368 679.242 17.3461 668.599 17.3328C667.827 17.3317 667.896 17.2703 667.396 17.2735C665.248 17.2885 666.246 17.3853 664.002 17.3923C659.334 17.4073 654.541 17.3914 649.592 17.3791C649.102 17.3779 648.881 17.2989 647.76 17.2989C646.637 17.2989 645.785 17.3738 644.022 17.3696C639.416 17.3587 634.87 17.2692 629.991 17.2643C629.184 17.2636 628.184 17.3587 626.973 17.3577C623.174 17.3545 617.548 17.2682 614.293 17.265C603.553 17.2552 593.645 17.3094 583.529 17.3101C581.151 17.31 579.045 17.2219 577.808 17.2198C575.02 17.2153 577.123 17.2986 574.298 17.2989C551.222 17.301 528.057 17.2631 504.708 17.2698C495.539 17.2722 484.378 17.3584 475.516 17.3346C471.831 17.3245 471.162 17.2093 468.556 17.2083C463.908 17.2069 463.065 17.3545 458.161 17.3692C454.248 17.3808 449.763 17.2334 445.692 17.2425C441.621 17.2516 439.742 17.3947 435.065 17.4119C431.213 17.4259 425.835 17.3609 421.641 17.3714C383.21 17.468 345.366 17.5268 306.697 17.4148C293.053 17.3753 277.915 17.3958 263.814 17.2551C262.49 17.2418 264.516 17.1036 260.27 17.1326C257.988 17.1484 254.803 17.2675 249.531 17.2735C218.179 17.3084 184.738 17.0537 152.861 17.1041C105.111 17.18 55.6233 18.1636 14.1292 16.7243C12.0938 16.6536 13.1976 16.3073 14.417 16.2089C15.5486 16.2792 16.5948 16.3627 17.7791 16.4421C19.2704 16.0094 19.0074 16.1221 24.5349 16.1609C27.938 16.185 25.2197 15.9999 27.0337 15.9474C29.3853 15.8795 40.4262 15.6657 38.3028 15.9523C38.9872 15.9026 39.6188 15.855 40.2857 15.8064C48.2789 15.763 56.0449 15.6913 63.8627 15.609C65.2131 15.5946 65.2754 15.5047 66.6703 15.4904C70.4166 15.4512 73.391 15.5103 77.2515 15.5012C79.3486 15.4963 79.6395 15.3923 82.3859 15.399C85.1307 15.4057 85.0705 15.546 88.8154 15.3935C86.3761 15.2175 97.2571 15.3452 101.127 15.3344C101.688 15.333 106.294 15.1748 108.742 15.193C111.199 15.2108 114.928 15.3119 118.727 15.2545C120.508 15.2276 121.589 15.1044 123.511 15.0974C124.862 15.0925 126.485 15.202 128.196 15.2065C129.906 15.2111 133.607 15.1212 134.285 15.1198C136.732 15.1138 134.032 15.1908 135.706 15.1946C143.787 15.2121 153.176 15.2534 161.143 15.2016C162.123 15.1953 160.767 15.1047 160.898 15.1016C167.547 14.9904 163.998 15.1085 165.793 15.1897C167.533 15.2682 180.261 15.2254 180.354 15.0678C180.745 15.2651 183.575 15.1144 184.31 15.1086C187.169 15.0862 186.609 15.257 189.381 15.2042C190.398 15.1849 188.417 15.0695 189.511 15.0729C192.213 15.0813 194.645 15.2667 198.242 15.2853C199.111 15.2898 199.393 15.2072 200.938 15.21C202.484 15.2129 208.965 15.3139 205.974 15.1397C209.904 15.2793 210.696 15.2027 215.267 15.2065C216.425 15.2077 217.916 15.3408 220.38 15.2996C221.214 15.2856 221.189 15.1572 222.444 15.1562C225.313 15.1534 228.016 15.2863 231.657 15.2915C238.465 15.3017 245.714 15.2083 252.812 15.2415C254.741 15.2506 254.26 15.3797 257.066 15.3821C257.478 15.3821 260.857 15.2706 262.797 15.2811C263.964 15.2874 270.01 15.3658 271.23 15.3721C273.247 15.3822 273.607 15.2574 274.711 15.2818C277.905 15.3521 275.343 15.5358 279.186 15.2846C280.45 15.4238 282.696 15.4099 283.415 15.5814C284.722 15.3935 286.418 15.574 288.953 15.5111C291.489 15.4481 293.568 15.0841 294.182 15.4757C295.367 15.4281 300.413 15.3469 301.264 15.3409C303.773 15.3242 302.432 15.4325 304.325 15.4179C304.658 15.4154 304.309 15.3413 306.448 15.3486C307.852 15.3535 318.138 15.3581 318.752 15.3682C325.76 15.4842 314.934 15.4417 313.418 15.5219C313.15 15.5008 312.886 15.4797 312.6 15.4589C309.503 15.4239 311.267 15.5912 312.67 15.6301C314.074 15.6689 316.698 15.5944 317.865 15.6493C318.446 15.6769 318.086 15.8775 316.327 15.8533C318.209 15.9151 315.639 15.9803 316.384 16.0384C317.202 16.1021 325.656 16.1217 325.701 16.0111C324.122 16.0073 322.157 16.0111 320.56 16.0065C318.472 15.8144 324.815 15.1583 330.632 15.4204C334.852 15.6101 327.895 15.7609 337.879 15.6017C336.344 15.594 335.045 15.576 333.65 15.568C333.502 15.4239 335.765 15.5823 336.932 15.5365C337.492 15.5141 334.038 15.4121 337.037 15.3781C339.616 15.5842 341.601 15.3769 345.927 15.3745C344.725 15.4112 343.521 15.4478 342.319 15.4845C349.628 15.6339 332.651 15.6832 346.864 15.7669C345.153 15.7735 343.452 15.7717 341.733 15.7819C342.566 15.8575 341.233 16.0794 341.978 16.1263C343.935 16.2494 346.829 16.1752 349.215 16.186C350.259 16.1905 349.612 16.2505 349.699 16.2508C351.129 16.2574 350.814 16.1696 352.068 16.164C353.647 16.157 358.208 16.2424 358.947 16.2327C360.86 16.2078 357.675 16.0345 357.859 16.0216C359.079 15.9376 361.57 16.0072 361.439 15.8974C355.445 15.973 338.172 15.876 353.799 15.6943C349.49 15.5169 350.734 15.2723 356.929 15.2531C362.053 15.237 358.747 15.335 361.414 15.4428C361.759 15.4562 368.622 15.5078 368.974 15.4316C368.699 15.6071 370.932 15.7625 369.433 15.9436C369.214 15.9701 366.398 15.9597 367.38 16.1052C367.872 16.1784 369.282 16.3375 369.054 16.4306C369.634 16.3659 370.239 16.2931 370.827 16.2255C375.047 16.2066 375.647 16.2764 377.955 16.3971C377.849 16.3467 375.717 16.135 378.955 16.1993C379.121 16.2032 379.265 16.2792 380.91 16.3169C384.235 16.3925 384.929 16.416 382.377 16.6392C389.263 16.5119 390.746 16.7606 397.808 16.6879C396.404 16.401 393.921 16.472 387.455 16.5273C387.174 16.4591 387.042 16.3915 386.753 16.3226C395.36 16.4772 391.107 16.4615 395.983 16.3229C397.176 16.289 403.539 16.3253 401.416 16.1321C400.915 16.0867 396.962 16.0919 397.415 16.0203C397.503 16.0066 402.308 15.9719 402.732 15.9904C408.049 16.2189 398.547 16.3782 413.19 16.2949C413.594 16.2925 413.735 16.209 414.524 16.1973C416.006 16.1756 416.025 16.2724 417.349 16.2501C418.674 16.2277 420.509 16.0975 422.501 16.2178C426.142 16.4369 417.553 16.5629 413.727 16.4467C412.174 16.733 439.506 16.7393 441.2 16.7148C448.595 16.6081 436.289 16.6697 435.655 16.5903C435.391 16.5567 435.522 16.1309 432.408 16.4072C431.487 16.4891 435.338 16.5969 433.04 16.6421C430.741 16.6872 431.652 16.5619 431.485 16.5531C430.914 16.5231 428.469 16.5696 428.151 16.5518C423.273 16.282 423.72 15.8743 430.187 16.4766C433.004 16.3404 426.538 16.1235 430.039 16.0311C434.295 15.9188 437.401 16.113 437.936 16.1217C444.348 16.2253 436.954 15.9418 444.786 16.0324C449.147 16.0827 438.26 16.221 448.219 16.2025C456.555 16.1867 452.053 16.088 452.658 15.8637C452.801 15.8112 457.368 15.7469 451.149 15.77C450.974 15.8284 450.642 15.9054 450.247 15.9593C448.722 15.9166 446.178 15.6242 445.369 15.614C441.412 15.5653 441.603 15.7171 439.27 15.5383C440.936 15.7339 438.224 15.6161 437.206 15.6574C433.427 15.8095 438.382 15.8661 429.899 15.6705C431.005 15.7622 432.005 15.8522 433.075 15.9436C432.058 15.9467 431.039 15.9499 430.022 15.9531C428.504 15.7512 423.098 15.777 427.993 15.5737C422.107 15.5159 419.727 15.56 418.437 15.717C418.192 15.747 417.307 15.759 416.268 15.7619C416.465 15.8061 416.716 15.9426 416.552 15.9593C415.087 16.1065 412.816 15.8522 413.59 15.7551C412.863 15.7505 412.288 15.745 412.085 15.7427C410.797 15.7276 413.322 15.6398 412.278 15.6097C411.934 15.6 408.305 15.6191 408.235 15.5834C407.797 15.3546 413.769 15.5197 401.777 15.3867C401.488 15.5949 407.057 15.5492 405.627 15.7703C404.092 16.0079 400.96 15.6892 400.275 15.9807C400.021 15.9328 399.908 15.8928 399.689 15.8383C394.838 15.9653 394.773 15.7225 393.291 15.6689C390.413 15.5643 377.182 15.58 389.062 15.7903C387.325 15.8113 385.551 15.821 383.823 15.8395C383.428 15.4043 384.481 15.5775 376.154 15.5111C374.321 15.4964 373.724 15.3049 371.925 15.5323C372.17 15.3093 366.746 15.444 366.24 15.4169C362.993 15.2409 375.047 14.9959 376.593 15.3902C378.628 15.2367 378.62 15.4396 380.892 15.4127C384.174 15.3739 384.629 15.3344 388.525 15.4841C392.36 15.2731 373.514 15.3913 384.939 15.1113C396.366 14.8314 462.906 14.6752 478.429 14.6332C506.551 14.5573 521.336 14.5077 546.598 14.5203C549.089 14.5213 567.9 14.5011 563.991 14.7449C563.429 14.7799 555.338 14.8727 562.278 15.0641C560.867 14.9511 564.947 14.8777 565.29 14.8658C573.142 14.5956 568.597 14.5295 580.96 14.5267ZM617.61 16.7016C601.474 16.646 613.328 16.809 609.976 17.1771C612.047 17.1782 614.11 17.1792 616.181 17.1802C615.637 17.1572 615.1 17.1341 614.556 17.111C614.554 17.111 614.551 17.111 614.549 17.111C615.567 16.9746 616.592 16.8381 617.61 16.7016ZM881.382 16.9481C880.752 16.9965 880.13 17.0451 879.448 17.0925C877.316 17.0775 875.193 17.0627 873.061 17.0477C873.315 17.0148 873.561 16.9815 873.815 16.9486C876.337 16.95 878.851 16.9515 881.382 16.9481ZM411.471 16.5C408.452 16.3653 408.725 16.6057 404.715 16.4962C405.206 16.6736 405.752 16.8471 406.269 17.0228C409.322 16.9965 410.015 16.9291 413.331 16.9724C412.945 16.9154 412.55 16.858 412.172 16.8007C411.62 16.8129 411.033 16.8268 410.498 16.8377C409.648 16.6781 414.946 16.6543 411.481 16.4996C411.478 16.4998 411.474 16.4999 411.471 16.5ZM380.541 16.5714C378.918 16.5483 372.487 16.4615 371.609 16.535C368.635 16.7841 386.779 16.626 373.406 16.8475C373.468 16.8825 373.406 16.9168 373.406 16.9514C375.845 16.9636 378.277 16.9742 380.734 16.984C380.603 16.8461 380.69 16.71 380.541 16.5714ZM559.25 16.717C556.755 16.6978 544.862 16.815 548.739 16.9728C549.879 17.019 555.189 16.7933 557.207 16.8031C558.514 16.8094 557.049 16.9331 559.629 16.8876C559.515 16.8331 559.444 16.7726 559.243 16.7174C559.245 16.7172 559.247 16.7171 559.25 16.717ZM563.928 15.9968C561.348 16.0189 558.734 16.0468 556.137 16.0703C558.032 16.2113 561.761 16.1207 561.98 16.3191C561.27 16.3341 560.567 16.3491 559.857 16.3641C559.313 16.3208 558.777 16.2773 558.242 16.234C556.014 16.3417 557.364 16.3953 553.213 16.3641C555.723 16.6641 556.189 16.825 563.296 16.5216C561.954 16.6843 563.217 17.2145 567.157 16.8356C567.894 16.7653 564.816 16.7183 564.781 16.7071C564.307 16.5679 566.015 16.479 565.507 16.3475C565.279 16.288 563.401 16.2889 563.121 16.2063C562.991 16.166 564.777 16.0511 563.928 15.9968ZM569.069 16.7029C568.271 16.7872 570.999 16.9874 573.368 16.9468C577.063 16.8838 571.237 16.6934 569.069 16.7029ZM881.396 16.9479C881.391 16.9479 881.387 16.948 881.382 16.9481C881.384 16.9479 881.387 16.9477 881.389 16.9475C881.391 16.9476 881.394 16.9478 881.396 16.9479ZM388.911 16.669C386.999 16.7407 384.168 16.7303 384.377 16.8442C383.447 16.8219 382.507 16.7998 381.576 16.7774C381.585 16.8117 381.603 16.846 381.612 16.88C384.41 16.9013 387.201 16.9227 389.999 16.9444C389.648 16.8527 389.324 16.7607 388.911 16.669ZM358.421 16.5892C354.903 16.5776 357.852 16.7327 357.08 16.8076C356.308 16.8825 353.174 16.8216 353.542 16.929C355.613 16.9332 357.773 16.9374 359.87 16.9413C359.317 16.8244 358.931 16.7054 358.414 16.5892C358.416 16.5892 358.418 16.5892 358.421 16.5892ZM683.462 16.8237C681.076 16.7901 682.05 16.6718 677.338 16.8104C677.342 16.8104 677.345 16.8104 677.349 16.8104C681.832 16.9073 687.604 16.9937 692.552 16.8999C689.525 16.7751 687.217 16.8762 683.462 16.8237ZM419.816 16.8492C420.824 16.7554 416.131 16.6771 415.096 16.7642C413.421 16.9053 418.281 16.9916 419.816 16.8492ZM779.851 15.9932C783.482 15.7045 776.603 15.3804 769.4 15.5204C768.777 15.5326 773.427 15.6245 772.05 15.6808C771.91 15.6863 769.358 15.6795 768.726 15.7196C768.094 15.7599 768.758 15.8533 767.722 15.8925C765.906 15.961 761.8 15.834 760.44 15.924C760.261 15.936 762.807 16.0609 762.967 16.0657C765.582 16.1413 768.101 15.978 768.505 15.9769C770.585 15.9713 770.27 16.0993 770.797 16.1294C771.788 16.186 773.534 16.1294 773.657 16.1336C776.813 16.2459 769.602 16.2138 768.628 16.26C766.005 16.3845 768.433 16.5004 762.142 16.5707C761.545 16.5773 754.394 16.5698 763.406 16.7131C745.711 17.012 772.297 16.8831 775.184 16.8173C776.514 16.7868 774.5 16.6648 775.307 16.6099C777.149 16.4843 780.29 16.4621 780.009 16.285C779.404 15.9128 775.278 16.1567 772.436 16.0941C772.734 16.0132 772.848 15.9344 773.401 15.8553C772.55 15.9617 779.588 16.0149 779.851 15.9939C779.851 15.9937 779.851 15.9934 779.851 15.9932ZM735.056 16.4185C731.081 16.3062 731.362 16.5412 727.721 16.4068C724.51 16.6178 730.844 16.6037 731.581 16.6156C734.95 16.6687 734.873 16.8982 738.32 16.8276C737.135 16.6918 736.17 16.5546 735.056 16.4185ZM769.628 16.5154C766.97 16.6344 771.727 16.6324 771.92 16.6551C774.02 16.8964 759.776 16.8495 769.628 16.5154ZM543.766 16.2442C542.415 16.2362 543.272 16.3501 542.081 16.3837C540.888 16.4177 536.809 16.3202 536.912 16.3911C537.017 16.4621 544.491 16.6463 536.989 16.6862C537.243 16.7261 537.157 16.7558 537.28 16.7919C539.342 16.7929 541.423 16.7947 543.485 16.7957C542.353 16.681 541.193 16.5602 540.105 16.4493C541.263 16.358 541.914 16.4751 541.976 16.4751C541.976 16.475 541.976 16.4749 541.976 16.4747C544.134 16.4656 546.799 16.2621 543.766 16.2442ZM650.101 16.6018C650.505 16.3166 647.319 16.6351 646.012 16.6705C644.705 16.7057 642.909 16.6001 643.583 16.7229C645.698 16.8075 650.057 16.6336 650.101 16.6015C650.101 16.6016 650.101 16.6017 650.101 16.6018ZM713.462 16.4191C710.13 16.4883 710.659 16.5625 706.583 16.4779C706.741 16.5468 706.899 16.6172 707.057 16.6851C710.294 16.6865 710.067 16.4864 713.813 16.5668C714.427 16.5801 713.112 16.74 715.883 16.6886C715.077 16.6033 714.259 16.5086 713.462 16.4191ZM696.949 16.6747C700.775 16.6642 703.809 16.1063 696.763 16.3579C695.719 16.3955 694.072 16.6827 696.949 16.6747ZM579.054 16.2301C572.546 16.214 579.939 16.3041 581.633 16.3898C566.484 16.4584 583.344 16.3663 584.855 16.6514C586.707 16.5702 590.171 16.3846 586.322 16.3348C584.716 16.3142 585.303 16.3991 585.206 16.3988C582.249 16.3777 582.607 16.2389 579.054 16.2301ZM741.963 16.4048C741.717 16.409 742.101 16.5053 741.32 16.5245C740.539 16.5437 738.769 16.4763 738.593 16.5353C738.419 16.5948 741.968 16.6409 743.058 16.5976C744.146 16.5539 744.182 16.3677 741.963 16.4048ZM716.989 16.1675C713.737 16.2368 719.054 16.5916 719.761 16.5899C725.974 16.5714 716.804 16.2798 716.989 16.1675ZM594.166 15.6275C586.322 15.8077 592.06 16.1209 596.974 16.3085C597.622 16.2704 598.288 16.2322 598.928 16.1944C595.98 16.4261 590.813 16.6551 602.308 16.4531C596.016 16.3986 601.285 16.3364 601.325 16.3233C602.019 15.8978 592.699 16.0954 594.173 15.6275C594.171 15.6275 594.168 15.6275 594.166 15.6275ZM752.537 16.5062C755.951 16.5048 764.827 16.4313 760.686 16.2459C757.966 16.3326 755.256 16.4195 752.537 16.5062ZM465.742 15.6524C462.952 15.5464 460.38 15.5482 456.94 15.5552C460.037 15.7095 458.002 15.7272 456.958 15.765C455.374 15.8219 459.21 15.8173 459.221 15.8276C459.151 15.9743 456.704 15.997 462.274 15.9935C460.897 16.0446 459.538 16.0961 458.161 16.1468C462.407 16.1535 463.407 16.2491 466.1 16.366C463.485 16.0804 466.928 16.2592 470.052 16.1171C471.611 16.046 467.161 15.7066 465.731 15.6524C465.735 15.6524 465.738 15.6524 465.742 15.6524ZM586.059 15.5702C585.252 15.6216 584.513 15.6912 583.732 15.75C582.881 15.7556 582.028 15.7605 581.177 15.7661C581.072 15.7206 580.984 15.6731 580.861 15.6293C579.74 15.6161 580.177 15.6794 579.843 15.6854C579.843 15.6851 579.843 15.6849 579.843 15.6846C575.063 15.7686 573.106 15.7591 569.361 15.6185C569.361 15.7579 569.361 15.8972 569.361 16.0366C570.202 16.0233 571.053 16.0103 571.894 15.9974C572.342 15.9225 572.791 15.8476 573.239 15.7727C574.213 15.814 575.178 15.855 576.151 15.8963C576.932 15.8694 577.87 15.8411 578.545 15.8148C582.432 16.2043 573.598 15.9397 573.519 16.1014C573.467 16.2053 582.363 16.2008 583.644 16.129C583.829 16.1185 581.906 15.8285 585.16 15.9796C585.669 16.0034 585.848 16.6309 589.358 16.1228C589.858 16.0507 588.112 15.6609 586.059 15.5702ZM553.757 15.3679C558.759 15.7692 540.3 15.3448 548.265 15.6751C545.993 15.8595 546.414 15.8571 548.704 16.0208C548.905 16.0355 547.323 16.0862 547.458 16.0926C549.599 16.1829 552.178 16.135 552.195 16.2991C552.774 16.2904 553.319 16.2826 553.898 16.2739C551.486 16.1192 555.321 16.0153 556.804 15.8848C557.479 15.8257 555.926 15.8074 556.495 15.7557C556.705 15.7368 558.873 15.7745 558.962 15.7203C559.146 15.5979 557.784 15.4323 555.477 15.342C555.477 15.3419 555.477 15.3418 555.477 15.3417C554.898 15.3497 554.336 15.3595 553.757 15.3679ZM660.65 15.7013C661.502 15.9232 664.913 15.9867 658.359 16.0952C658.683 16.1389 659.017 16.1822 659.341 16.2259C660.447 16.2221 661.517 16.2182 662.64 16.2147C666.01 15.5611 672.159 16.2987 668.22 15.8352C667.79 15.7848 665.169 15.8411 667.757 15.7042C667.754 15.7041 667.75 15.704 667.747 15.7039C664.133 15.7459 663.677 15.8245 660.65 15.7013ZM636.459 15.856C628.124 16.3229 647.978 16.1165 644.661 15.9926C644.363 15.9814 635.81 16.0817 636.459 15.856ZM703.347 15.4497C699.61 15.4417 699.363 15.6935 699.739 15.7842C700.117 15.8752 702.704 15.7833 703.038 15.7976C704.126 15.8449 701.819 15.8761 703.231 15.9408C703.699 15.9618 710.209 16.0516 710.507 16.0408C712.163 15.9805 709.742 15.7727 710.215 15.7489C711.759 15.6709 713.856 15.779 714.304 15.6685C715.269 15.4327 711.36 15.6803 710.7 15.6843C708.708 15.6955 708.882 15.5627 707.39 15.5361C705.9 15.5096 704.926 15.5551 703.61 15.5457C703.173 15.5425 703.537 15.4506 703.347 15.4497ZM690.99 15.9816C694.893 15.791 685.39 15.5836 684.262 15.6282C680.946 15.7609 689.121 16.0726 690.99 15.9816ZM566.279 15.9736C569.849 15.8354 561.533 15.7235 559.155 15.7791C559.596 15.8366 565.051 16.0212 566.279 15.9736ZM596.342 15.6282C593.06 15.6713 597.412 15.9827 600.15 15.9778C601.755 15.7731 600.244 15.8137 598.455 15.8053C596.667 15.7968 598.902 15.5947 596.342 15.6282ZM743.882 15.6773C743.174 15.6741 731.763 15.8432 738.32 15.9135C738.82 15.9188 746.807 15.889 747.413 15.8575C748.631 15.7938 745.707 15.6864 743.882 15.6773ZM612.082 15.3259C610.345 15.503 608.636 15.5006 610.232 15.7084C610.235 15.7084 610.237 15.7084 610.24 15.7084C605.844 15.7721 605.649 15.3469 604.701 15.356C601.387 15.3879 604.527 15.6905 602.448 15.7899C607.283 15.6965 605.896 15.9006 609.573 15.9135C610.397 15.9163 613.698 15.7945 614.181 15.7185C614.663 15.6425 612.977 15.4148 612.082 15.3259ZM760.001 15.6332C756.15 15.5654 752.623 15.8523 757.966 15.8978C760.572 15.9202 762.353 15.6745 760.001 15.6332ZM374.986 15.5614C375.573 15.6366 376.179 15.7116 376.811 15.7861C375.39 15.8043 373.967 15.8228 372.546 15.8414C373.67 15.8176 374.794 15.7941 375.926 15.7707C373.259 15.7445 372.039 15.6076 374.979 15.5614C374.981 15.5614 374.983 15.5614 374.986 15.5614ZM280.021 15.5041C278.828 15.4317 276.477 15.656 276.775 15.6735C279.021 15.8039 281.678 15.6045 280.021 15.5041ZM561.004 15.2922C556.568 15.2609 559.619 15.6256 562.338 15.6506C560.674 15.5808 563.522 15.3101 561.004 15.2922ZM313.418 15.5219C313.816 15.5532 314.218 15.5846 314.664 15.616C313.261 15.5724 313.017 15.543 313.418 15.5219ZM742.068 15.3552C741.39 15.3272 736.382 15.3041 735.705 15.3388C734.301 15.4115 738.207 15.6129 740.506 15.551C740.761 15.5443 742.742 15.3832 742.057 15.3552C742.061 15.3552 742.064 15.3552 742.068 15.3552ZM368.984 15.4217C368.992 15.4252 368.988 15.4285 368.974 15.4316C368.979 15.4283 368.977 15.425 368.984 15.4217ZM180.316 15.0511C180.343 15.0567 180.358 15.0624 180.354 15.0678C180.344 15.0625 180.323 15.0569 180.316 15.0511ZM706.741 15.0456C705.074 14.6981 701.231 14.8829 704.267 15.0548C704.437 15.0638 706.337 15.0449 706.741 15.0456ZM903.803 17.83C900.484 17.8536 896.852 17.9172 893.519 17.8729C893.11 17.8675 893.138 17.7666 893.023 17.7539C892.71 17.7187 892.524 17.8384 892.297 17.8307C891.172 17.7941 890.157 17.7818 889.051 17.7489C887.923 17.7151 888.456 17.3994 888.066 17.3249C887.311 17.1791 887.954 17.5844 887.659 17.6775C886.786 17.6572 885.888 17.6172 885.032 17.5764C885.249 17.5373 885.452 17.499 885.666 17.4626C885.289 17.456 884.757 17.3955 885.381 17.2858C885.242 17.2571 885.117 17.2233 884.965 17.1953C884.923 17.3442 884.237 17.3594 884.177 17.4479C884.116 17.5364 884.498 17.5143 884.496 17.522C884.459 17.632 882.933 17.4891 882.808 17.4774C882.503 17.4463 882.769 17.2607 882.511 17.2737C882.07 17.2961 882.362 17.6699 881.773 17.174C881.542 17.337 881.521 17.253 881.232 17.2432C881.194 17.2419 881.224 17.3356 881.208 17.3381C880.775 17.4098 881.107 17.2338 881.104 17.2243C881.077 17.064 880.566 17.1377 880.467 17.1228C879.197 16.937 878.272 16.8115 876.911 16.7735C876.618 16.7654 875.752 16.8346 875.453 16.8087C875.178 16.7831 875.325 16.6667 875.184 16.6118C875.071 16.7515 874.973 16.8292 874.826 16.8494C874.66 16.8697 874.457 16.8325 874.204 16.742C874.005 16.9459 874.087 16.7818 873.668 16.8244C873.495 16.842 873.295 16.9122 873.104 16.9522C872.826 16.9926 872.647 17.0025 872.5 16.8993C872.501 16.9041 872.708 16.9005 872.711 16.8928C872.756 16.885 872.797 16.8722 872.843 16.857C872.918 16.8265 873.105 16.7857 873.268 16.7548C873.4 16.7343 874.935 16.7229 874.849 16.5158C874.774 16.408 874.247 16.5098 874.235 16.4899C874.125 16.3743 874.392 16.2302 874.666 16.279C874.598 16.3028 874.519 16.3269 874.45 16.3507C875.04 16.4932 874.664 15.9371 875.065 16.4227C875.115 16.4823 875.096 16.5447 875.179 16.6078C875.196 16.5815 875.094 16.5168 875.182 16.5047C875.271 16.4926 875.448 16.6154 875.475 16.5111C875.512 16.3593 875.13 16.4208 875.105 16.4121C875.105 16.413 875.105 16.4139 875.105 16.4148C874.86 16.3355 875.371 16.3239 875.402 16.3094C875.569 16.2142 875.452 16.142 875.709 16.0628C875.861 16.0177 876.237 16.0421 876.356 16.0272C876.484 16.0119 876.285 15.9411 876.37 15.9253C876.456 15.9095 876.565 15.9635 876.669 15.9451C876.714 15.9371 876.711 15.8571 876.733 15.8542C876.967 15.8223 876.813 15.9894 877.029 15.9782C877.167 15.9709 877.656 15.8135 877.319 15.7689C877.485 15.752 877.628 15.7395 877.773 15.7263C877.679 15.7029 877.592 15.6872 877.494 15.6597C877.773 15.6964 877.893 15.559 878.07 15.548C878.246 15.537 878.407 15.7005 878.608 15.6194C879.035 15.447 877.977 15.5307 877.861 15.5008C877.812 15.4891 877.999 15.3596 878.029 15.3557C878.159 15.339 878.315 15.4303 878.418 15.4257C878.78 15.4086 879.043 15.2859 879.37 15.2599C880.536 15.1711 882.013 15.0966 883.157 15.0646C883.566 15.0529 883.818 15.1882 884.006 15.1835C884.447 15.1723 884.501 15.053 884.893 15.0449C885.469 15.0324 886.253 15.1325 886.74 15.1526C887.073 15.1664 887.383 15.0498 887.462 15.0466C888.633 14.9998 890.108 14.9954 891.088 14.9893C891.554 14.9864 891.778 15.1147 891.875 15.1105C892.294 15.0924 892.176 14.9823 892.51 14.9919C892.69 14.997 892.724 15.103 892.748 15.1071C892.96 15.141 893.002 15.0022 893.168 14.9968C894.125 14.9661 895.048 15.0524 895.992 15.0612C896.061 15.0619 896.055 15.1234 896.1 15.12C896.291 15.104 896.201 15.0077 896.401 14.9998C896.818 14.9827 897.245 14.9967 897.684 15.0068C897.728 15.0078 897.748 15.0867 897.847 15.0862C897.947 15.0858 898.022 15.0106 898.179 15.014C898.589 15.0229 898.994 15.1105 899.428 15.1133C899.5 15.1137 899.588 15.0181 899.696 15.0186C900.034 15.0202 900.535 15.1041 900.825 15.1059C901.778 15.1111 902.662 15.0527 903.561 15.0477C903.773 15.0467 903.96 15.134 904.07 15.1356C904.317 15.1389 904.13 15.0565 904.38 15.055C906.442 15.0429 908.489 15.0709 910.575 15.0542C911.388 15.0478 912.38 14.9568 913.172 14.9767C913.498 14.9853 913.557 15.1001 913.786 15.1C914.188 15.0994 914.271 14.9514 914.713 14.9345C915.066 14.9213 915.466 15.0667 915.821 15.0558C916.174 15.045 916.34 14.901 916.767 14.8818C917.117 14.8661 917.595 14.9287 917.957 14.9164C920.822 14.8219 924.04 14.737 926.577 14.8009L926.47 14.8186C926.851 14.7519 927.005 14.8055 927.111 14.8196C927.214 14.8404 927.264 14.8562 927.304 14.8676C927.379 14.8901 927.406 14.8994 927.429 14.9065C927.471 14.9196 927.484 14.9238 927.507 14.9289C927.548 14.9381 927.614 14.9426 927.713 14.9292C927.763 14.921 927.909 14.9008 927.959 14.9013C928.012 14.9016 928.063 14.902 928.116 14.9023C928.859 14.9084 929.62 14.8721 930.472 14.8823C930.965 14.8933 931.456 14.9147 931.923 14.9536C932.036 14.9629 931.87 15.1081 932.23 15.0647C932.424 15.0394 932.677 14.9126 933.082 14.8595C933.142 14.8517 933.203 14.8433 933.266 14.8346C933.408 14.815 933.592 14.773 933.83 14.7178C934.092 14.6771 934.295 14.5458 935.016 14.6166C934.788 14.5813 934.585 14.6422 934.496 14.6853C934.401 14.7304 934.378 14.7569 934.372 14.7619C934.367 14.7717 934.432 14.7147 934.508 14.6344C934.589 14.5524 934.686 14.4446 934.837 14.3058C934.999 14.1765 935.167 13.9571 935.735 13.8093C936.027 13.754 936.279 13.719 936.505 13.6789C936.717 13.6465 936.958 13.5733 936.928 13.5917C937.065 13.5227 937.167 13.4636 937.328 13.3563C937.478 13.252 937.813 13.0403 938.109 12.9451C938.122 12.9601 938.288 12.8577 938.469 12.6354C938.67 12.4108 938.807 12.1325 939.272 11.6837C939.421 11.5504 939.565 11.4191 939.704 11.2878C940.048 10.9606 940.39 10.5974 940.566 10.3111C940.83 9.94769 941.026 9.78007 941.194 9.60177C941.356 9.4381 941.503 9.27118 941.503 9.23684C941.489 9.23701 941.553 9.10051 941.599 8.96523C941.65 8.8234 941.7 8.66615 941.768 8.47189C941.905 8.0661 942.147 7.59435 942.219 7.39051C942.317 7.12214 942.456 6.73954 942.576 6.41156C942.637 6.24326 942.698 6.07581 942.756 5.91517C942.785 5.8352 942.814 5.7565 942.838 5.68499C942.86 5.62793 942.896 5.50175 942.871 5.59524L942.838 5.79603C942.889 5.19726 943.022 4.48873 943.272 3.87504C943.698 2.94925 944.019 2.00234 944.58 1.01385C944.676 0.8435 945.004 0.991796 945.086 1.11271C945.002 1.20039 944.906 1.28109 944.812 1.37388C945.221 1.56681 945.114 1.5293 945.001 2.00683C944.93 2.30065 945.151 2.09255 945.177 2.25934C945.219 2.47267 945.235 3.49502 944.99 3.24615C945.026 3.31617 945.059 3.38263 945.092 3.45277C945.036 3.77338 944.964 4.08793 944.897 4.3952C944.818 4.75851 944.782 5.1215 944.778 5.48952C944.777 5.60498 944.865 5.62106 944.866 5.73982C944.867 5.82422 944.863 5.90426 944.855 5.98278C944.855 5.99714 944.847 6.03901 944.844 6.05314C944.754 6.37163 944.656 6.51229 944.566 6.76583C944.5 6.94418 944.587 7.00761 944.487 7.23463C944.386 7.4615 944.26 7.40073 944.268 7.77209C944.417 7.69319 944.301 7.96482 944.125 8.3009C944.001 8.52991 943.875 8.71316 943.823 8.8249C943.806 8.8604 943.787 9.12806 943.738 9.32003C943.726 9.36555 943.71 9.40987 943.691 9.44622C943.582 9.64689 943.38 9.91517 943.178 10.3389C943.155 10.3831 943.136 10.4281 943.116 10.4751C943.048 10.6368 943.02 10.7771 942.906 10.8963C942.804 11.0019 942.614 11.0244 942.5 11.1202C942.378 11.221 942.25 11.4705 942.243 11.4866C942.185 11.5657 942.19 11.4379 942.149 11.4827C942.149 11.4828 942.149 11.4829 942.149 11.4831C941.632 12.1319 941.011 12.6057 940.526 13.0945C940.517 13.106 940.503 13.1237 940.488 13.1448C940.457 13.1876 940.572 13.1962 940.568 13.2051C940.393 13.5836 940.434 13.3567 940.289 13.4076C940.214 13.4385 940.025 13.6954 939.797 13.9878C939.581 14.2796 939.254 14.5763 939.284 14.6442C939.159 14.5347 938.962 14.7393 938.806 14.8283C938.798 14.8387 938.792 14.8465 938.787 14.8495C938.688 14.9194 938.651 14.7426 938.521 14.8936C938.468 14.9542 938.656 14.9629 938.588 15.0068C938.432 15.109 938.137 15.1446 937.859 15.245C937.798 15.2713 937.741 15.2936 937.685 15.3155C937.581 15.3547 937.575 15.4471 937.406 15.4977C937.226 15.5576 936.607 15.5823 936.922 15.6936C936.555 15.6383 936.482 15.7076 936.172 15.7792C936.203 15.7728 936.228 15.764 936.245 15.7562C936.323 15.717 936.188 15.6242 936.092 15.7906C936.058 15.8472 936.156 15.93 936.083 16.0125C935.998 16.1067 935.883 16.1931 935.713 16.2998C935.54 16.3813 935.316 16.6267 934.719 16.5694C934.722 16.5693 934.724 16.5692 934.724 16.5691C934.723 16.5573 934.494 16.6025 934.286 16.6689C934.067 16.7336 933.816 16.8121 933.528 16.856C933.361 16.8822 933.185 16.9029 933.009 16.9099C932.825 16.9162 932.859 16.7851 932.6 16.7988C932.562 16.8016 932.255 16.9284 932.08 16.9235C931.972 16.9219 931.429 16.8578 931.319 16.8533C931.139 16.847 931.11 16.9723 931.009 16.9499C930.723 16.8847 930.949 16.6971 930.611 16.9541C930.58 16.9174 930.543 16.8917 930.503 16.8705C930.403 16.8123 930.285 16.7896 930.235 16.6654C930.126 16.8566 929.971 16.6812 929.748 16.7524C929.526 16.8236 929.354 17.1941 929.285 16.8048C929.181 16.8563 928.734 16.9529 928.658 16.961C928.434 16.9848 928.551 16.8728 928.382 16.8925C928.352 16.8958 928.386 16.9691 928.194 16.9671C928.166 16.9667 928.1 16.9675 928.012 16.9686L928.124 16.9558C927.76 17.0627 926.972 16.9675 926.936 16.924C926.749 16.8444 926.739 16.8191 926.744 16.8069C926.747 16.7934 926.796 16.7997 926.903 16.8221C927.116 16.8742 927.482 16.8928 927.563 16.8463C927.592 16.8671 927.623 16.8875 927.655 16.907C928.004 16.9151 927.785 16.7679 927.641 16.7362C927.496 16.7081 927.205 16.756 927.094 16.672C927.041 16.6309 927.122 16.4494 927.282 16.4974C927.116 16.4098 927.362 16.381 927.301 16.3133C927.248 16.2826 927.057 16.1683 926.744 16.1552C926.785 16.1569 926.587 16.1671 926.575 16.1794C926.537 16.1921 926.51 16.2094 926.509 16.2318C926.553 16.2327 926.556 16.2332 926.633 16.2328C926.715 16.2324 926.76 16.2318 926.761 16.2317C926.825 16.2225 926.883 16.2466 926.936 16.262C926.967 16.3203 926.947 16.3931 926.891 16.4637C926.864 16.4994 926.827 16.5338 926.795 16.5699C926.773 16.602 926.709 16.6592 926.853 16.6825C926.846 16.6841 926.826 16.687 926.819 16.6881C926.714 16.7356 926.739 16.7671 926.622 16.7989C926.56 16.8292 926.531 16.853 926.47 16.8678C926.374 16.8973 926.143 16.8912 926.062 16.8254C925.702 16.6378 926.355 16.4833 925.402 16.6479C925.56 16.6547 925.687 16.6719 925.811 16.6793C925.827 16.8233 925.62 16.666 925.499 16.7125C925.444 16.7353 925.787 16.8353 925.489 16.871C925.244 16.6663 925.121 16.8742 924.712 16.8789C924.825 16.8415 924.933 16.8044 925.037 16.7671C924.388 16.6212 925.897 16.5637 924.621 16.487C924.785 16.4795 924.939 16.4804 925.086 16.4695C925.014 16.3942 925.128 16.1717 925.063 16.1251C924.897 16.003 924.624 16.0786 924.393 16.0691C924.308 16.065 924.36 16.0048 924.353 16.0045C924.236 15.9984 924.262 16.0861 924.157 16.0923C924.028 16.1 923.62 16.0167 923.548 16.0268C923.371 16.0526 923.667 16.2244 923.649 16.2374C923.54 16.322 923.304 16.2536 923.316 16.3633C923.899 16.2847 925.36 16.3739 924.012 16.5627C924.376 16.7382 924.287 16.9833 923.738 17.0055C923.268 17.024 923.572 16.9244 923.321 16.8179C923.26 16.8048 922.703 16.7561 922.663 16.8325C922.686 16.6569 922.489 16.5025 922.62 16.3208C922.64 16.2941 922.883 16.3033 922.798 16.1582C922.755 16.0853 922.631 15.9267 922.651 15.8335C922.6 15.8985 922.547 15.9716 922.496 16.0394C922.118 16.0602 922.059 15.9908 921.842 15.8712C921.852 15.9215 922.055 16.1323 921.748 16.0694C921.731 16.0657 921.721 15.9897 921.581 15.9527C921.298 15.8786 921.236 15.8554 921.455 15.6311C920.861 15.7614 920.724 15.5133 920.07 15.5894C920.198 15.8756 920.44 15.8034 921.013 15.7452C921.039 15.8133 921.05 15.8808 921.076 15.9496C920.308 15.7988 920.688 15.8127 920.241 15.9534C920.111 15.988 919.585 15.9544 919.764 16.1466C919.809 16.1919 920.143 16.185 920.108 16.2568C920.098 16.2705 919.69 16.3072 919.651 16.2889C919.181 16.0628 920.031 15.8993 918.719 15.9891C918.682 15.9917 918.67 16.0753 918.598 16.0873C918.462 16.1096 918.46 16.0129 918.337 16.0358C918.212 16.0588 918.064 16.1897 917.888 16.0703C917.575 15.8528 918.301 15.7232 918.669 15.8375C918.777 15.5507 916.393 15.5562 916.214 15.5816C915.57 15.6915 916.649 15.6246 916.718 15.7036C916.742 15.7371 916.733 16.163 917.012 15.8853C917.094 15.803 916.747 15.6968 916.954 15.6506C917.16 15.6045 917.079 15.7303 917.094 15.7389C917.146 15.7687 917.363 15.7211 917.391 15.7388C917.822 16.0064 917.787 16.4143 917.21 15.8149C916.96 15.9523 917.537 16.1664 917.226 16.2603C916.847 16.3745 916.561 16.1817 916.512 16.1732C915.929 16.0726 916.59 16.3528 915.906 16.2656C915.525 16.217 916.476 16.0741 915.605 16.0969C914.868 16.1163 915.266 16.213 915.214 16.4376C915.201 16.4902 914.795 16.5565 915.348 16.5307C915.363 16.4722 915.392 16.395 915.427 16.341C915.562 16.383 915.787 16.6743 915.857 16.6842C916.205 16.7311 916.176 16.5795 916.393 16.7572C916.239 16.5624 916.489 16.679 916.581 16.6372C916.923 16.4834 916.478 16.429 917.24 16.6208C917.141 16.5296 917.051 16.4401 916.954 16.3492C917.046 16.3456 917.137 16.3419 917.228 16.3383C917.365 16.5396 917.84 16.5114 917.41 16.7168C917.93 16.772 918.131 16.727 918.241 16.5693C918.26 16.5393 918.345 16.5268 918.44 16.5235C918.421 16.4794 918.397 16.343 918.413 16.3262C918.547 16.1784 918.755 16.4316 918.685 16.529C918.752 16.5334 918.804 16.5385 918.822 16.5408C918.939 16.5553 918.711 16.6442 918.805 16.6738C918.837 16.6835 919.163 16.6627 919.169 16.6984C919.206 16.927 918.685 16.7645 919.736 16.8922C919.762 16.6839 919.275 16.7321 919.399 16.5103C919.533 16.272 919.806 16.5894 919.863 16.2976C919.885 16.3454 919.895 16.3853 919.914 16.4398C920.332 16.3107 920.361 16.5533 920.492 16.6062C920.765 16.7095 921.918 16.688 920.874 16.4829C921.029 16.4611 921.185 16.4506 921.334 16.4313C921.378 16.8664 921.254 16.6938 922.015 16.7564C922.185 16.7702 922.241 16.9613 922.401 16.7332C922.383 16.9563 922.859 16.8191 922.899 16.8459C923.183 17.0205 922.136 17.2709 921.975 16.8774C921.788 17.0319 921.775 16.829 921.587 16.8569C921.308 16.8971 921.269 16.9369 920.924 16.7888C920.595 17.0015 922.225 16.8751 921.241 17.16C920.217 17.4453 914.301 17.6307 912.926 17.6793C910.417 17.7675 909.115 17.8234 906.857 17.8217C906.64 17.8217 904.965 17.85 905.311 17.6045C905.362 17.5692 906.082 17.473 905.463 17.2846C905.589 17.397 905.225 17.4721 905.195 17.4842C904.493 17.7577 904.899 17.8219 903.803 17.83ZM900.532 15.6707C901.967 15.7195 900.913 15.5615 901.209 15.1919C901.025 15.1918 900.841 15.1916 900.657 15.1915C900.706 15.2143 900.753 15.2371 900.802 15.26C900.802 15.26 900.802 15.26 900.803 15.26C900.713 15.3969 900.622 15.5338 900.532 15.6707ZM877.062 15.5355C877.119 15.4868 877.176 15.4379 877.239 15.3902C877.442 15.4043 877.63 15.4182 877.809 15.4324C877.787 15.4654 877.767 15.4988 877.745 15.5318C877.543 15.5313 877.29 15.531 877.062 15.5355ZM918.874 15.7832C919.146 15.9166 919.122 15.6763 919.475 15.7841C919.431 15.6069 919.382 15.4336 919.336 15.2581C919.066 15.2857 919.004 15.3535 918.703 15.3116C918.738 15.3685 918.774 15.4257 918.809 15.4829C918.859 15.4704 918.912 15.4562 918.96 15.4451C919.038 15.6043 918.558 15.6305 918.873 15.7836C918.873 15.7835 918.874 15.7833 918.874 15.7832ZM921.611 15.698C921.738 15.7205 922.356 15.8042 922.424 15.7303C922.703 15.4797 921.022 15.6464 922.261 15.4186C922.255 15.3837 922.26 15.3494 922.26 15.3148C922.045 15.3036 921.79 15.2944 921.593 15.2856C921.605 15.4234 921.598 15.5595 921.611 15.698ZM905.725 15.6304C905.948 15.6485 907 15.5263 906.656 15.3701C906.555 15.3244 906.086 15.5524 905.906 15.5435C905.79 15.5377 905.92 15.4133 905.69 15.4599C905.7 15.5144 905.707 15.5749 905.725 15.63C905.725 15.6302 905.725 15.6303 905.725 15.6304ZM905.311 16.3526C905.541 16.3294 905.774 16.3003 906.005 16.2758C905.836 16.1356 905.504 16.2278 905.483 16.0295C905.546 16.0141 905.609 15.9989 905.672 15.9835C905.721 16.0267 905.769 16.0698 905.817 16.113C906.014 16.0043 905.894 15.9513 906.263 15.9807C906.039 15.6818 905.997 15.5211 905.365 15.8275C905.484 15.6642 905.369 15.1346 905.018 15.5152C904.952 15.5858 905.228 15.6315 905.231 15.6427C905.274 15.7817 905.122 15.8713 905.168 16.0026C905.189 16.062 905.356 16.0603 905.382 16.1427C905.394 16.183 905.235 16.2987 905.311 16.3526ZM904.847 15.6487C904.919 15.564 904.672 15.3651 904.464 15.4067C904.138 15.4712 904.651 15.6591 904.847 15.6487ZM877.061 15.5357C877.061 15.5356 877.061 15.5356 877.062 15.5355C877.062 15.5357 877.061 15.5359 877.061 15.5361C877.061 15.536 877.061 15.5358 877.061 15.5357ZM920.883 15.6041C921.054 15.5316 921.3 15.5408 921.281 15.4269C921.362 15.4489 921.443 15.4705 921.522 15.4925C921.521 15.4582 921.52 15.4239 921.519 15.39C921.28 15.3698 921.036 15.3497 920.785 15.3292C920.817 15.4208 920.846 15.5126 920.883 15.6041ZM923.595 15.6701C923.915 15.6799 923.646 15.5262 923.716 15.451C923.787 15.3757 924.061 15.4352 924.027 15.328C923.849 15.3247 923.655 15.3215 923.459 15.3187C923.511 15.4353 923.548 15.5541 923.596 15.6701C923.596 15.6701 923.595 15.6701 923.595 15.6701ZM894.677 15.5765C894.888 15.6091 894.802 15.7279 895.219 15.5873C895.218 15.5873 895.218 15.5873 895.218 15.5873C894.821 15.4923 894.306 15.4084 893.864 15.5042C894.134 15.6278 894.343 15.5256 894.677 15.5765ZM918.117 15.4378C918.027 15.532 918.443 15.6083 918.543 15.5206C918.7 15.3788 918.236 15.2948 918.117 15.4378ZM886.1 16.4478C885.78 16.738 886.387 17.0592 887.038 16.9162C887.094 16.9036 886.674 16.8138 886.798 16.7569C886.811 16.7513 887.041 16.7571 887.098 16.7167C887.155 16.6761 887.095 16.583 887.188 16.5434C887.359 16.4741 887.71 16.5993 887.831 16.5088C887.847 16.4967 887.623 16.3728 887.609 16.3682C887.383 16.2936 887.153 16.458 887.117 16.4593C886.929 16.4658 886.957 16.3376 886.909 16.3078C886.819 16.2516 886.663 16.3089 886.652 16.3048C886.368 16.1938 887.015 16.2229 887.105 16.1763C887.339 16.0506 887.131 15.9358 887.679 15.8628C887.731 15.8559 888.36 15.8605 887.568 15.7209C889.123 15.4147 886.784 15.5546 886.512 15.6217C886.393 15.6528 886.574 15.7739 886.502 15.8292C886.337 15.9556 886.059 15.9791 886.084 16.156C886.14 16.528 886.505 16.2824 886.762 16.3438C886.735 16.4248 886.725 16.5036 886.676 16.583C886.751 16.4762 886.122 16.426 886.1 16.4471C886.1 16.4473 886.1 16.4476 886.1 16.4478ZM890.088 16.0036C890.439 16.1142 890.413 15.8794 890.736 16.0122C891.021 15.7998 890.458 15.8167 890.394 15.8051C890.096 15.7533 890.102 15.5238 889.799 15.5959C889.904 15.7311 889.989 15.8679 890.088 16.0036ZM887.013 15.9213C887.253 15.8012 886.823 15.8052 886.805 15.7825C886.613 15.5421 887.904 15.5829 887.013 15.9213ZM907.098 16.0966C907.217 16.104 907.141 15.9905 907.248 15.9563C907.355 15.9219 907.721 16.0176 907.712 15.9468C907.702 15.8758 907.03 15.6948 907.703 15.6516C907.68 15.6119 907.688 15.5821 907.677 15.5461C907.492 15.5459 907.304 15.5451 907.12 15.5449C907.221 15.6592 907.327 15.7795 907.425 15.8899C907.321 15.9817 907.262 15.8649 907.257 15.8649C907.257 15.865 907.257 15.8651 907.257 15.8653C907.062 15.8754 906.832 16.08 907.098 16.0966ZM897.643 15.7843C897.608 16.0697 897.889 15.7498 898.006 15.7139C898.122 15.6781 898.282 15.783 898.221 15.6605C898.033 15.5767 897.646 15.7525 897.643 15.7847C897.643 15.7846 897.643 15.7844 897.643 15.7843ZM892.011 15.9939C892.309 15.9232 892.258 15.8493 892.619 15.9322C892.605 15.8633 892.591 15.793 892.577 15.7251C892.29 15.7251 892.315 15.9251 891.979 15.8463C891.924 15.8332 892.041 15.6728 891.792 15.7254C891.865 15.8104 891.939 15.9047 892.011 15.9939ZM893.473 15.7313C893.133 15.7435 892.866 16.3026 893.491 16.048C893.584 16.01 893.729 15.722 893.473 15.7313ZM903.964 16.1258C904.541 16.1391 903.885 16.0522 903.734 15.9672C905.077 15.8922 903.583 15.9914 903.447 15.7069C903.283 15.7889 902.975 15.976 903.318 16.0241C903.461 16.0441 903.408 15.9594 903.417 15.9597C903.68 15.9795 903.649 16.1185 903.964 16.1258ZM889.476 16.0202C889.498 16.0159 889.463 15.9198 889.533 15.9002C889.604 15.8807 889.762 15.9474 889.777 15.8882C889.794 15.8287 889.474 15.7841 889.376 15.8279C889.278 15.8721 889.276 16.0582 889.476 16.0202ZM891.695 16.247C891.987 16.1763 891.508 15.8238 891.445 15.8257C890.89 15.8469 891.711 16.1346 891.695 16.247ZM902.622 16.7348C903.321 16.5512 902.808 16.2405 902.368 16.055C902.311 16.0934 902.251 16.1319 902.194 16.17C902.457 15.937 902.915 15.7058 901.893 15.9127C902.451 15.9645 901.985 16.029 901.981 16.0421C901.92 16.4679 902.751 16.2663 902.622 16.7348C902.622 16.7348 902.622 16.7348 902.622 16.7348ZM888.528 15.9232C888.222 15.9261 887.444 16.0033 887.808 16.187C888.047 16.0991 888.286 16.0112 888.528 15.9232ZM914.039 16.6547C914.281 16.7595 914.525 16.7565 914.832 16.748C914.552 16.5951 914.736 16.5764 914.83 16.5382C914.972 16.4806 914.626 16.487 914.625 16.4766C914.63 16.3299 914.853 16.3061 914.347 16.312C914.472 16.2603 914.595 16.2083 914.719 16.1569C914.338 16.1522 914.233 16.057 914.004 15.9413C914.232 16.2257 913.933 16.0484 913.66 16.1918C913.524 16.2636 913.915 16.601 914.04 16.6547C914.039 16.6547 914.039 16.6547 914.039 16.6547ZM903.345 16.7887C903.416 16.7369 903.482 16.667 903.551 16.6079C903.626 16.6019 903.702 16.5966 903.778 16.5906C903.787 16.6361 903.795 16.6836 903.806 16.7273C903.906 16.7401 903.867 16.6769 903.896 16.6708C903.896 16.6711 903.896 16.6713 903.896 16.6716C904.321 16.5856 904.491 16.5942 904.826 16.7332C904.826 16.5939 904.825 16.4545 904.824 16.3152C904.749 16.3288 904.673 16.3421 904.599 16.3554C904.56 16.4305 904.52 16.5056 904.481 16.5807C904.395 16.5398 904.309 16.4992 904.223 16.4583C904.154 16.4856 904.071 16.5143 904.011 16.5408C903.665 16.153 904.449 16.4138 904.455 16.2521C904.459 16.1482 903.671 16.1565 903.557 16.2288C903.541 16.2394 903.713 16.5286 903.423 16.3788C903.377 16.3553 903.359 15.7279 903.049 16.2375C903.004 16.3097 903.162 16.6988 903.345 16.7887ZM906.219 16.9772C905.775 16.5779 907.41 16.9945 906.704 16.6676C906.904 16.4822 906.867 16.4848 906.664 16.3221C906.646 16.3075 906.785 16.2561 906.773 16.2497C906.584 16.1604 906.356 16.2093 906.353 16.0452C906.302 16.0542 906.254 16.0622 906.203 16.0712C906.417 16.2248 906.078 16.3304 905.946 16.4616C905.887 16.521 906.025 16.5385 905.974 16.5905C905.956 16.6095 905.763 16.5727 905.755 16.6269C905.739 16.7495 905.861 16.9144 906.067 17.0037C906.067 17.0038 906.067 17.004 906.067 17.0041C906.118 16.9958 906.168 16.9858 906.219 16.9772ZM896.708 16.6893C896.631 16.4678 896.327 16.4057 896.911 16.2945C896.882 16.2509 896.852 16.2077 896.823 16.1642C896.724 16.1685 896.629 16.1727 896.528 16.1767C896.231 16.8318 895.681 16.0968 896.033 16.5587C896.072 16.6089 896.305 16.5515 896.075 16.6894C896.075 16.6895 896.076 16.6896 896.076 16.6898C896.398 16.6462 896.438 16.5674 896.708 16.6893ZM898.859 16.5243C899.598 16.0539 897.833 16.2687 898.129 16.3912C898.155 16.4023 898.916 16.2983 898.859 16.5243ZM892.911 16.959C893.242 16.9654 893.263 16.7135 893.229 16.6229C893.195 16.5321 892.966 16.6251 892.936 16.611C892.84 16.5642 893.044 16.532 892.919 16.4678C892.877 16.447 892.301 16.36 892.275 16.3709C892.13 16.4319 892.344 16.6387 892.302 16.6627C892.168 16.7413 891.979 16.6341 891.939 16.7448C891.854 16.981 892.204 16.7318 892.26 16.7275C892.435 16.7155 892.421 16.8483 892.553 16.8743C892.684 16.9002 892.77 16.8543 892.887 16.8631C892.926 16.8661 892.894 16.9582 892.911 16.959ZM894.008 16.4218C893.66 16.6142 894.511 16.8175 894.612 16.7724C894.906 16.6383 894.175 16.33 894.008 16.4218ZM905.101 16.3768C904.782 16.5166 905.527 16.6249 905.738 16.5682C905.698 16.511 905.211 16.3287 905.101 16.3768ZM902.428 16.735C902.721 16.6906 902.33 16.381 902.087 16.3871C901.946 16.5924 902.079 16.5512 902.239 16.5589C902.398 16.5666 902.2 16.7696 902.428 16.735ZM889.306 16.7485C889.376 16.7514 890.381 16.5775 889.804 16.5099C889.766 16.5049 889.04 16.5381 888.988 16.5698C888.879 16.634 889.142 16.7402 889.306 16.7485ZM901.03 17.044C901.184 16.8662 901.336 16.8679 901.193 16.6607C901.193 16.6607 901.193 16.6607 901.192 16.6607C901.583 16.5952 901.602 17.0203 901.686 17.0108C901.98 16.9775 901.7 16.6762 901.884 16.5759C901.455 16.6714 901.577 16.4668 901.251 16.4554C901.177 16.4529 900.885 16.5762 900.842 16.6523C900.8 16.7285 900.95 16.9555 901.03 17.044ZM887.871 16.7994C888.211 16.8656 888.522 16.5772 888.05 16.534C887.82 16.5127 887.665 16.7591 887.871 16.7994ZM922.123 16.7055C922.068 16.6305 922.012 16.5559 921.953 16.4817C922.085 16.4628 922.216 16.4436 922.344 16.4244C922.243 16.4487 922.14 16.4726 922.035 16.4966C922.281 16.5216 922.392 16.6579 922.124 16.7055C922.123 16.7055 922.123 16.7055 922.123 16.7055ZM930.532 16.7358C930.64 16.8066 930.846 16.5786 930.818 16.5616C930.689 16.48 930.547 16.5349 930.499 16.6106C930.481 16.6422 930.479 16.6773 930.501 16.7077C930.508 16.7177 930.519 16.7272 930.532 16.7358ZM905.575 17.0559C905.971 17.0854 905.697 16.722 905.454 16.6981C905.603 16.7672 905.35 17.0391 905.575 17.0559ZM927.563 16.8463C927.518 16.8152 927.475 16.783 927.429 16.7491C927.577 16.7989 927.607 16.8237 927.563 16.8463ZM889.471 17.0698C889.535 17.0975 889.977 17.1185 890.036 17.0836C890.158 17.0102 889.817 16.8105 889.611 16.8734C889.588 16.8801 889.41 17.0421 889.472 17.0698C889.472 17.0698 889.471 17.0698 889.471 17.0698ZM922.662 16.8424C922.661 16.8389 922.662 16.8356 922.663 16.8325C922.662 16.8358 922.663 16.8391 922.662 16.8424ZM939.298 14.655C939.292 14.6525 939.287 14.6489 939.284 14.6442C939.289 14.6478 939.294 14.6507 939.298 14.655ZM892.612 17.3645C892.761 17.7113 893.101 17.5249 892.831 17.3543C892.816 17.3454 892.648 17.365 892.612 17.3645ZM35.316 15.1803C38.204 15.2069 41.3569 15.1994 44.2533 15.296C44.6082 15.3078 44.5824 15.4082 44.6816 15.4228C44.9528 15.4629 45.1162 15.3461 45.3172 15.3573C46.2879 15.4116 47.1863 15.4401 48.1351 15.4904C49.1016 15.5419 48.6409 15.8492 48.9811 15.9299C49.6474 16.0878 49.0846 15.6722 49.3479 15.5839C50.105 15.6181 50.8755 15.6723 51.6331 15.7269C51.4486 15.7626 51.2626 15.7975 51.0733 15.8304C51.4069 15.8431 51.8764 15.9122 51.3225 16.0118C51.4448 16.0428 51.5583 16.0786 51.6827 16.1089C51.719 15.9607 52.2977 15.9562 52.3592 15.8688C52.4158 15.7814 52.0755 15.7972 52.0814 15.7896C52.1081 15.6801 53.4702 15.8479 53.5568 15.8613C53.8101 15.8972 53.5792 16.0786 53.8045 16.0696C54.1908 16.0544 53.9416 15.676 54.4497 16.1813C54.6549 16.022 54.6718 16.1064 54.9246 16.1209C54.9578 16.1227 54.9333 16.0286 54.9479 16.0263C55.3286 15.9617 55.0346 16.1323 55.0364 16.1418C55.0625 16.3026 55.4929 16.2369 55.5824 16.2535C56.6876 16.4597 57.468 16.5998 58.6641 16.6601C58.8861 16.6724 59.7087 16.6182 59.9212 16.6483C60.1473 16.6783 60.0302 16.7924 60.1591 16.8496C60.383 16.5743 60.5559 16.5459 61.011 16.7353C61.1909 16.5347 61.1778 16.6983 61.4802 16.6617C61.5852 16.6463 61.8367 16.5803 61.9928 16.5433C62.0564 16.5245 62.2025 16.5144 62.2816 16.5213C62.3244 16.5248 62.3599 16.5326 62.3887 16.5461C62.4588 16.5602 62.5087 16.5797 62.5 16.6055C62.2249 16.5831 62.1708 16.6821 61.8397 16.7379C61.6631 16.7555 60.3902 16.7428 60.4778 16.9514C60.5374 17.0604 60.9327 16.9663 60.9759 16.9868C61.0805 17.1044 60.8135 17.2436 60.6163 17.191C60.669 17.1682 60.7313 17.1453 60.7855 17.1225C60.3204 16.9711 60.6408 17.5332 60.2705 17.0408C60.2233 16.9804 60.2431 16.9183 60.1636 16.8537C60.1468 16.8798 60.2442 16.9462 60.1594 16.9567C60.0671 16.9673 59.9206 16.8416 59.8986 16.9456C59.8572 17.0966 60.2008 17.0415 60.2313 17.0507C60.2316 17.0498 60.2319 17.0489 60.2322 17.048C60.4701 17.1316 59.9613 17.1341 59.9546 17.1483C59.8165 17.2409 59.9108 17.3149 59.6995 17.3901C59.5799 17.433 59.2589 17.4026 59.1338 17.4153C59.0111 17.4283 59.2007 17.5026 59.1181 17.5169C59.032 17.5311 58.9404 17.4754 58.8532 17.4921C58.8155 17.4995 58.8163 17.5795 58.7981 17.582C58.6006 17.6102 58.7329 17.4456 58.5514 17.4533C58.435 17.4585 58.0226 17.6082 58.304 17.6581C58.169 17.6724 58.0348 17.6824 57.8954 17.6932C57.983 17.7181 58.0724 17.7355 58.1558 17.7645C57.8968 17.723 57.7826 17.8584 57.6337 17.8666C57.4824 17.8748 57.3468 17.7087 57.1736 17.7866C56.8047 17.9522 57.7128 17.8854 57.8116 17.9171C57.8535 17.9296 57.6907 18.0562 57.6652 18.0595C57.5538 18.0741 57.4212 17.9804 57.333 17.9833C57.0184 17.9946 56.8082 18.1133 56.503 18.1338C55.4944 18.2038 54.1877 18.2543 53.218 18.2683C52.8575 18.2734 52.6373 18.134 52.4718 18.1357C52.0814 18.1397 52.0353 18.2581 51.7067 18.2602C51.2218 18.2637 50.4963 18.1505 50.0969 18.123C49.8136 18.1039 49.5522 18.2157 49.4774 18.2175C48.4255 18.2453 47.174 18.2268 46.3173 18.2173C45.9145 18.2129 45.7231 18.0811 45.6395 18.0839C45.279 18.0954 45.3742 18.2072 45.0813 18.1924C44.9249 18.1845 44.8973 18.0779 44.8764 18.0735C44.6927 18.0362 44.6542 18.1744 44.5101 18.1771C43.6806 18.1929 42.8786 18.0921 42.0575 18.0686C41.9979 18.0668 42.0039 18.0055 41.9652 18.0081C41.7989 18.0212 41.8749 18.1188 41.7012 18.1237C41.3394 18.1343 40.9696 18.1137 40.5872 18.0968C40.5494 18.0951 40.5333 18.0159 40.4467 18.0148C40.3599 18.0138 40.2932 18.0878 40.157 18.0819C39.801 18.0667 39.4519 17.9729 39.0736 17.9634C39.0111 17.9619 38.9325 18.0561 38.8389 18.0539C38.5449 18.0472 38.1116 17.9556 37.8609 17.9494C37.03 17.9295 36.2641 17.9745 35.4828 17.9659C35.2977 17.9637 35.1353 17.8736 35.0395 17.8704C34.8237 17.8633 34.9855 17.9485 34.7671 17.9463C32.9835 17.9274 31.199 17.8689 29.3876 17.8557C28.7011 17.8506 27.7996 17.9271 27.1403 17.8964C26.8474 17.8832 26.7967 17.7676 26.5933 17.7644C26.2328 17.7594 26.1665 17.9063 25.7975 17.9173C25.4971 17.9259 25.1343 17.7749 24.8259 17.7811C24.513 17.7872 24.3857 17.9291 24.0053 17.9428C23.6955 17.9539 23.3032 17.8855 22.9754 17.8932C21.829 17.9213 20.6445 17.9433 19.5476 17.961C19.2541 17.9568 19.1595 17.9349 19.0221 17.9188C18.895 17.9013 18.7809 17.8829 18.6686 17.864C18.445 17.8261 18.2327 17.7861 18.021 17.7445L18.276 17.7735C17.5198 17.7554 16.8607 17.7761 15.9767 17.7644C15.3371 17.7439 14.692 17.7094 14.0207 17.6339C13.5889 17.5871 13.0918 17.5148 12.7012 17.4511C12.2444 17.3715 11.8051 17.3529 11.0769 17.1038C10.8641 17.0172 10.6761 16.9308 10.5043 16.8488C10.4222 16.81 10.5911 16.7146 10.3108 16.6632C10.2398 16.6513 10.151 16.6602 10.0518 16.6702C9.90779 16.6725 9.72941 16.6681 9.49401 16.6114C9.17103 16.5285 8.82201 16.4431 8.37031 16.1935C8.09865 16.0316 7.88936 15.9707 7.31499 15.7558C6.4377 15.3645 5.76359 15.1457 4.70564 14.3154C4.20707 13.8545 3.76026 13.2698 3.42341 12.7988C3.18262 12.4657 3.02468 12.1856 2.87053 11.9663C2.81742 11.8899 2.76625 11.8219 2.71916 11.7668C2.41516 11.387 2.23878 11.006 2.09344 10.723C1.84611 10.2244 1.67855 9.59779 1.61361 9.58029C1.33313 9.04829 1.22512 8.61533 1.11143 8.27718C0.984107 7.86346 0.902614 7.48708 0.820033 7.25996C0.757719 7.07515 0.561183 6.64143 0.494052 6.05546C0.430284 5.54311 0.36533 5.15952 0.268035 4.74524C-0.0808506 3.51804 -0.00953708 2.25747 0.298151 1.19071C0.345257 1.02204 0.700619 1.05984 0.811485 1.13907C0.754045 1.23329 0.683663 1.32976 0.61797 1.42921C1.0635 1.48304 0.947833 1.4773 0.973744 1.9064C0.990017 2.16963 1.14084 1.93427 1.21438 2.06477C1.30622 2.23722 1.66603 3.02658 1.35688 2.92128C1.41573 2.9635 1.472 3.00196 1.52976 3.04102C1.64245 3.44698 1.79776 3.81911 1.9742 4.19896C2.0559 4.37888 2.13154 4.56283 2.20005 4.75098C2.23794 4.85578 2.32713 4.84272 2.36342 4.95398C2.45976 5.25393 2.43137 5.5073 2.47007 5.81178C2.47287 5.83414 2.4772 5.85377 2.4826 5.87136C2.51607 5.95591 2.59378 5.97077 2.61984 6.11517C2.65584 6.29051 2.52043 6.31811 2.75016 6.56118C2.7977 6.4618 2.84832 6.55097 2.89732 6.74615C2.96297 7.01032 2.98242 7.37492 3.02054 7.5314C3.02626 7.55605 3.1096 7.67658 3.18068 7.79703C3.2299 7.89054 3.27014 7.97923 3.27916 8.04811C3.3014 8.2211 3.27006 8.50854 3.40402 8.67258C3.41581 8.68671 3.43027 8.6972 3.44597 8.70498C3.55555 8.83181 3.66742 8.91018 3.71663 9.04855C3.75864 9.16858 3.68689 9.32327 3.7167 9.44459C3.74626 9.57112 3.90546 9.7671 3.92145 9.79998C3.97922 9.93204 3.84934 9.81223 3.88253 9.90579C3.88754 9.9194 3.89258 9.93281 3.89776 9.94631C4.00566 10.2224 4.1012 10.4586 4.21758 10.6168C4.46079 10.9469 4.63038 11.2443 4.80461 11.4618C4.847 11.5152 4.87158 11.3871 4.87911 11.393C5.02395 11.5293 5.05888 11.562 5.05907 11.5879C5.06413 11.6287 4.98261 11.6182 4.99193 11.7096C5.00961 11.8819 5.60608 12.5459 5.72829 12.4233C5.60224 12.5785 5.84453 12.6095 5.88354 12.6376C5.99754 12.7232 5.94968 12.7997 5.98984 12.8704C5.99023 12.8827 6.00194 12.8946 6.03607 12.9032C6.08337 12.9144 6.08532 12.7718 6.11899 12.8012C6.20661 12.8763 6.25817 13.1246 6.47413 13.258C6.52715 13.2905 6.58186 13.226 6.67922 13.2773C6.77397 13.3298 7.1656 13.6176 7.03797 13.3687C7.2427 13.6133 7.32907 13.5675 7.63924 13.698C7.71751 13.7307 7.77209 13.8961 7.95639 13.921C7.97157 13.9231 7.98541 13.9173 7.99895 13.9078C8.03815 13.8776 8.0745 13.8129 8.13353 13.8323C8.31295 13.8917 8.49467 14.0776 8.79824 14.2039C8.97982 14.28 9.16767 14.3617 9.35018 14.4528C9.54544 14.5387 9.89064 14.598 10.2283 14.699C10.3495 14.7352 10.3141 14.8313 10.4478 14.887C10.4681 14.8949 10.4917 14.9024 10.5192 14.9092C10.5541 14.9159 10.8647 14.8818 11.0141 14.9402C11.1096 14.974 11.5376 15.1986 11.6192 15.2319C11.6404 15.2404 11.6599 15.2451 11.6778 15.2471C11.7497 15.2482 11.7948 15.1693 11.8435 15.2022C12.0253 15.3119 11.8303 15.4626 12.1333 15.2593C12.1992 15.411 12.3676 15.4198 12.3996 15.5968C12.5219 15.4233 12.627 15.6181 12.8313 15.5804C12.871 15.573 12.911 15.5543 12.9499 15.5318C13.1127 15.4392 13.2456 15.2816 13.2408 15.5991C13.339 15.5653 13.7198 15.5304 13.7825 15.5297C13.9678 15.5317 13.859 15.6297 14.0008 15.6282C14.0254 15.6278 14.0061 15.5524 14.1637 15.5726C14.2648 15.5895 15.0381 15.6353 15.0855 15.6447C15.6119 15.7795 14.7923 15.7083 14.6747 15.7797C14.6552 15.7576 14.6363 15.7354 14.6162 15.7134C14.3854 15.6648 14.5072 15.8398 14.6119 15.8846C14.7167 15.9296 14.9207 15.8645 15.0063 15.9228C15.0497 15.9521 15.0143 16.1517 14.88 16.1216C15.0232 16.1897 14.8209 16.2461 14.8761 16.3067C14.9357 16.3748 15.5929 16.4154 15.5968 16.3037C15.4768 16.297 15.3219 16.2963 15.2005 16.2876C15.0489 16.0899 15.551 15.4523 15.9878 15.7208C15.9953 15.7253 16.0024 15.7298 16.0091 15.7342C16.2748 15.9182 15.7912 16.0629 16.5323 15.8996C16.4141 15.8937 16.3148 15.8771 16.2098 15.8696C16.1978 15.7257 16.3688 15.8828 16.4587 15.8355C16.5008 15.8125 16.2362 15.7141 16.4643 15.677C16.6651 15.8802 16.8161 15.6694 17.1558 15.6643C17.0616 15.7017 16.9678 15.7392 16.8746 15.7772C17.4453 15.92 16.1261 15.9843 17.2313 16.0562C17.0988 16.0635 16.9658 16.0632 16.8333 16.0752C16.8982 16.1499 16.7991 16.3732 16.8568 16.4193C17.0094 16.5402 17.2309 16.464 17.4142 16.4749C17.4947 16.4795 17.4446 16.5394 17.4515 16.5398C17.5611 16.5466 17.5369 16.4587 17.6337 16.4537C17.755 16.4469 18.1045 16.5379 18.161 16.5298C18.3091 16.5082 18.0676 16.3295 18.0817 16.317C18.1459 16.2619 18.2526 16.277 18.3147 16.2601C18.3537 16.258 18.375 16.2452 18.379 16.2091C18.3646 16.2086 18.3494 16.2077 18.3332 16.2065C18.3298 16.206 18.3196 16.2045 18.3161 16.2046C17.8167 16.2508 16.5933 16.1592 17.7715 15.9851C17.4373 15.8056 17.533 15.5594 18.0232 15.5473C18.3934 15.5398 18.204 15.617 18.3286 15.7163C18.3494 15.716 18.4099 15.7246 18.4304 15.7278C18.44 15.739 18.4521 15.7507 18.4672 15.7631C18.49 15.7825 18.993 15.9326 19.0308 15.8604C18.9783 16.0294 19.1192 16.212 18.9751 16.3705C18.954 16.3941 18.7414 16.3441 18.7898 16.5011C18.8132 16.58 18.8944 16.7564 18.8603 16.8448C18.9172 16.7892 18.9764 16.7257 19.0336 16.6668C19.3216 16.6968 19.3747 16.755 19.5472 16.85C19.5658 16.8652 19.5858 16.8816 19.6088 16.8991C19.6021 16.8487 19.4541 16.6369 19.6791 16.7013C19.6915 16.7052 19.699 16.7812 19.8234 16.8191C20.0828 16.8952 20.1482 16.919 19.9374 17.1416C20.4976 17.016 20.5738 17.2653 21.1377 17.1959C21.0561 16.9085 20.8096 16.9778 20.3365 17.0311C20.3165 16.9627 20.3073 16.8952 20.2869 16.8261C20.928 16.9837 20.6098 16.9665 21.0084 16.8302C21.0881 16.7966 21.5706 16.8361 21.4108 16.6419C21.3707 16.5962 21.0785 16.5996 21.1132 16.5281C21.117 16.5145 21.4776 16.4821 21.5133 16.5009C21.9239 16.7323 21.2 16.8862 22.3225 16.8114C22.353 16.8092 22.3643 16.7257 22.4246 16.7146C22.5385 16.6938 22.5393 16.7906 22.6428 16.7691C22.7467 16.7475 22.8935 16.6186 23.0551 16.7403C23.3466 16.9618 22.646 17.0818 22.362 16.9635C22.2359 17.2483 24.3559 17.273 24.4914 17.2502C25.0482 17.1487 24.1252 17.2016 24.0596 17.1216C24.0394 17.0879 24.0519 16.6621 23.8058 16.9362C23.733 17.0174 24.0334 17.1281 23.853 17.1716C23.6734 17.2151 23.7458 17.0904 23.7328 17.0815C23.6884 17.0511 23.5008 17.0959 23.4773 17.0779C23.1139 16.8049 23.1463 16.3975 23.6333 17.0041C23.851 16.8699 23.3569 16.6485 23.626 16.5585C23.9538 16.4491 24.2036 16.6456 24.2464 16.6548C24.7397 16.7629 24.1763 16.4741 24.7684 16.5703C25.101 16.6239 24.2676 16.7542 25.0302 16.743C25.681 16.7335 25.3317 16.6315 25.3805 16.4076C25.3924 16.3552 25.7539 16.2944 25.2627 16.3127C25.2483 16.371 25.2216 16.4477 25.1902 16.5013C25.0712 16.4575 24.8783 16.1632 24.8169 16.1524C24.5164 16.1009 24.5308 16.2528 24.3588 16.0724C24.4821 16.2692 24.2773 16.1494 24.192 16.1899C23.8911 16.3393 24.276 16.3994 23.6184 16.1979C23.7025 16.2903 23.7792 16.381 23.8621 16.4731C23.7825 16.4755 23.7035 16.478 23.6253 16.4805C23.5092 16.2775 23.1038 16.2998 23.4739 16.0997C23.0422 16.0382 22.8319 16.0805 22.7328 16.2368C22.7132 16.2666 22.6432 16.278 22.5625 16.2802C22.5774 16.3245 22.5959 16.4612 22.583 16.4778C22.4673 16.6241 22.2976 16.3684 22.357 16.2718C22.3019 16.2667 22.2588 16.261 22.2437 16.2585C22.1474 16.2427 22.3372 16.1564 22.2592 16.1257C22.2311 16.1157 21.9693 16.1328 21.9583 16.097C21.9254 15.8681 22.3981 16.0364 21.4435 15.8967C21.4167 16.1047 21.8588 16.062 21.7439 16.2824C21.6173 16.5191 21.3777 16.1987 21.3252 16.4899C21.3063 16.4419 21.2981 16.4018 21.2821 16.3472C20.9312 16.472 20.9052 16.2291 20.7889 16.1749C20.6698 16.1219 20.3606 16.0981 20.2111 16.1148C20.0174 16.1313 20.0398 16.1876 20.4582 16.2946C20.3232 16.315 20.2187 16.3243 20.0579 16.3423C20.0387 15.9233 20.0676 16.0677 19.547 16.0195C19.5407 16.0176 19.5277 16.0151 19.512 16.0115C19.4076 15.9879 19.3904 15.7914 19.2286 15.9964C19.284 15.781 18.8662 15.8439 18.8317 15.8086C18.6255 15.5914 19.5662 15.5185 19.5375 15.8919C19.5432 15.8799 19.5465 15.8699 19.5469 15.8618C19.656 15.7697 19.6656 15.9394 19.8237 15.9149C20.0746 15.8766 20.1492 15.8373 20.4195 15.9883C20.7315 15.7781 19.2277 15.8917 20.1555 15.6144C21.0069 15.3332 26.2023 15.2258 27.3899 15.1975C29.5744 15.1447 30.6972 15.1078 32.6588 15.1429C32.8456 15.146 34.3146 15.1429 34.0047 15.3832C33.9642 15.4177 33.328 15.503 33.8689 15.7008C33.7608 15.5865 34.0771 15.5168 34.1027 15.5052C34.7092 15.2421 34.3577 15.1718 35.316 15.1803ZM38.1234 17.3891C36.8802 17.3184 37.7926 17.4925 37.5292 17.8575C37.6894 17.8605 37.8476 17.8634 38.0074 17.8664C37.9658 17.8428 37.9247 17.8192 37.883 17.7956C37.8828 17.7956 37.8827 17.7956 37.8825 17.7956C37.9626 17.6601 38.0432 17.5246 38.1234 17.3891ZM58.5162 17.8955C58.4673 17.9433 58.4186 17.9912 58.3649 18.038C58.199 18.0207 58.0297 18.0037 57.8558 17.9864C57.877 17.9538 57.8974 17.9208 57.9185 17.8881C58.1234 17.8922 58.3221 17.8964 58.5162 17.8955ZM22.192 17.0154C21.9717 16.879 21.9878 17.1195 21.6657 17.0077C21.7035 17.1854 21.7461 17.3592 21.7867 17.5352C22.0446 17.5108 22.0745 17.4436 22.3278 17.4889C22.299 17.4317 22.2698 17.3741 22.242 17.3165C22.2006 17.3284 22.1569 17.342 22.1174 17.3525C22.0547 17.1925 22.4505 17.1717 22.1928 17.0151C22.1925 17.0152 22.1922 17.0153 22.192 17.0154ZM19.795 17.0736C19.747 17.0644 19.6458 17.0455 19.5473 17.0304C19.2701 16.9988 19.1035 16.9437 19.045 16.9824C18.905 17.0927 19.2153 17.1793 19.5474 17.2088C19.6453 17.2216 19.6886 17.2369 19.5474 17.2827C19.4179 17.2995 19.3005 17.3078 19.1482 17.3145C19.1487 17.3498 19.1385 17.383 19.1335 17.4172C19.2473 17.4379 19.3381 17.4616 19.5475 17.4705C19.6285 17.4758 19.7156 17.481 19.8089 17.4861C19.7992 17.3482 19.806 17.2121 19.795 17.0736ZM33.6129 17.3508C33.4166 17.3293 32.4979 17.4359 32.7952 17.5971C32.8821 17.6443 33.2954 17.4234 33.4528 17.435C33.5545 17.4425 33.4388 17.5649 33.6405 17.5218C33.6322 17.4671 33.6274 17.4066 33.6123 17.3512C33.6125 17.351 33.6127 17.3509 33.6129 17.3508ZM33.9852 16.6349C33.7869 16.6547 33.5795 16.6802 33.378 16.7013C33.5235 16.844 33.8159 16.7568 33.8309 16.9554C33.7751 16.9698 33.72 16.9841 33.6644 16.9985C33.6224 16.9546 33.5812 16.9107 33.54 16.8669C33.3653 16.9726 33.4693 17.0274 33.1478 16.9925C33.3389 17.2947 33.3727 17.456 33.9308 17.1591C33.8258 17.3206 33.9164 17.8519 34.2227 17.4766C34.28 17.4069 34.0446 17.3571 34.0421 17.3459C34.0075 17.2063 34.1393 17.119 34.102 16.987C34.0852 16.9273 33.9415 16.9265 33.921 16.8437C33.9116 16.8033 34.0495 16.6899 33.9852 16.6349ZM34.3711 17.3456C34.3088 17.4292 34.516 17.6318 34.6994 17.5933C34.9855 17.5337 34.5375 17.3381 34.3711 17.3456ZM58.5173 17.8953C58.5169 17.8954 58.5166 17.8954 58.5162 17.8955C58.5164 17.8953 58.5166 17.8951 58.5168 17.8949C58.5169 17.8951 58.5171 17.8952 58.5173 17.8953ZM20.4429 17.1733C20.303 17.2443 20.0932 17.2331 20.1015 17.3471C20.0227 17.3245 19.9463 17.3022 19.8739 17.2797C19.8745 17.314 19.8758 17.3483 19.8765 17.3822C20.1061 17.4041 20.3163 17.4263 20.5236 17.449C20.4973 17.3572 20.4732 17.2651 20.4429 17.1733ZM18.1134 16.8854C17.8468 16.8688 18.0674 17.028 18.0077 17.1018C17.9479 17.1754 17.7128 17.1117 17.7394 17.2196C17.895 17.2253 18.0578 17.2322 18.2152 17.2398C18.1772 17.122 18.1493 17.0023 18.1129 16.8853C18.113 16.8853 18.1132 16.8853 18.1134 16.8854ZM43.2109 17.5739C43.0275 17.538 43.1041 17.4206 42.739 17.5547C42.7393 17.5547 42.7396 17.5547 42.7398 17.5547C43.0834 17.6559 43.5306 17.7479 43.9148 17.6589C43.6821 17.5311 43.5019 17.63 43.2109 17.5739ZM22.833 17.3698C22.9134 17.2767 22.542 17.1953 22.4639 17.2818C22.3338 17.4218 22.7069 17.5111 22.833 17.3698ZM50.6724 16.8381C50.9614 16.5531 50.4218 16.2221 49.8736 16.355C49.8258 16.3666 50.1809 16.463 50.0746 16.518C50.064 16.5234 49.8684 16.514 49.8192 16.5535C49.7701 16.5931 49.8199 16.6872 49.7397 16.7254C49.5992 16.7921 49.2825 16.6611 49.1752 16.7496C49.1612 16.7615 49.3576 16.8889 49.3698 16.8939C49.5718 16.972 49.7678 16.8112 49.7989 16.8105C49.9588 16.807 49.9329 16.9347 49.9729 16.9653C50.0482 17.0229 50.1823 16.968 50.1916 16.9723C50.4309 17.0877 49.881 17.0485 49.8047 17.0937C49.6008 17.2157 49.7879 17.3339 49.2993 17.398C49.2529 17.404 48.6963 17.3894 49.3955 17.5417C48.0132 17.8228 50.0879 17.7206 50.2991 17.6575C50.4007 17.6283 50.249 17.5043 50.3111 17.4502C50.4488 17.3263 50.7024 17.3074 50.681 17.1301C50.6372 16.7572 50.3132 16.997 50.0988 16.9316C50.1227 16.8511 50.1324 16.7723 50.1756 16.6938C50.1082 16.7993 50.6481 16.8595 50.6724 16.8388C50.6724 16.8386 50.6724 16.8383 50.6724 16.8381ZM47.2051 17.2191C46.8962 17.1028 46.915 17.338 46.6377 17.2001C46.3888 17.408 46.8742 17.4 46.9313 17.4126C47.1939 17.4691 47.185 17.6985 47.4538 17.6313C47.3636 17.4944 47.2902 17.3563 47.2051 17.2191ZM49.8783 17.3501C49.6725 17.4665 50.038 17.4692 50.0521 17.4921C50.2114 17.7355 49.1154 17.6745 49.8783 17.3501ZM32.4218 16.8642C32.3186 16.855 32.3828 16.9696 32.2914 17.0022C32.2026 17.0351 31.8834 16.934 31.8907 17.005C31.8984 17.0761 32.4809 17.267 31.8934 17.3002C31.9128 17.3403 31.9058 17.37 31.915 17.4061C32.078 17.409 32.2365 17.4126 32.394 17.4154C32.3087 17.2997 32.2216 17.1779 32.1401 17.0661C32.2293 16.9757 32.2777 17.0935 32.2824 17.0935C32.2824 17.0934 32.2824 17.0933 32.2824 17.0931C32.4471 17.0858 32.6539 16.8848 32.4218 16.8642ZM40.6361 17.32C40.6709 17.0352 40.4208 17.3507 40.3193 17.3848C40.2179 17.4188 40.0804 17.3115 40.131 17.4348C40.2934 17.5215 40.6324 17.3518 40.6361 17.3197C40.6361 17.3198 40.6361 17.3199 40.6361 17.32ZM45.5368 17.1985C45.2775 17.2644 45.3161 17.3391 45.0019 17.2505C45.0131 17.3196 45.0244 17.3902 45.0356 17.4582C45.2867 17.4628 45.2725 17.2624 45.5622 17.3466C45.6097 17.3605 45.5057 17.519 45.7213 17.4703C45.6598 17.3842 45.5976 17.2888 45.5368 17.1985ZM44.2576 17.438C44.5529 17.4312 44.7939 16.8763 44.2472 17.121C44.1661 17.1576 44.0352 17.4432 44.2576 17.438ZM35.1478 16.8819C34.6438 16.8599 35.2152 16.9567 35.3462 17.0439C34.1711 17.0986 35.4781 17.022 35.5939 17.3086C35.7409 17.2291 36.0066 17.0466 35.7121 16.9933C35.5871 16.9712 35.6318 17.0567 35.6243 17.0562C35.3942 17.0325 35.4236 16.8939 35.1478 16.8819ZM47.7416 17.2122C47.7225 17.2161 47.7511 17.3128 47.6904 17.3313C47.6297 17.3496 47.4932 17.2805 47.4788 17.3394C47.4646 17.3987 47.7393 17.4483 47.8238 17.406C47.9084 17.3634 47.9137 17.1773 47.7416 17.2122ZM45.8135 16.9503C45.5608 17.0165 45.9681 17.3764 46.0226 17.3755C46.5023 17.363 45.7983 17.0625 45.8135 16.9503ZM36.3237 16.2933C35.7178 16.4663 36.155 16.7847 36.5321 16.9768C36.5827 16.9392 36.6346 16.9017 36.6845 16.8645C36.4541 17.0934 36.0517 17.3176 36.9429 17.1264C36.4567 17.066 36.8651 17.0087 36.8684 16.9956C36.9267 16.5708 36.2047 16.7597 36.3242 16.2933C36.3241 16.2933 36.3239 16.2933 36.3237 16.2933ZM48.5531 17.324C48.8138 17.3259 49.5116 17.2613 49.1902 17.0717C48.9788 17.1558 48.7589 17.2398 48.5531 17.324ZM26.3911 16.2064C26.1772 16.0982 25.9812 16.098 25.7243 16.1025C25.9545 16.2591 25.8018 16.2753 25.7235 16.3123C25.6014 16.368 25.8924 16.3662 25.8925 16.3766C25.8862 16.5232 25.6999 16.5441 26.122 16.5448C26.0166 16.5948 25.9134 16.6453 25.8097 16.695C26.1287 16.7048 26.2054 16.8013 26.4115 16.9202C26.2132 16.6326 26.475 16.8141 26.7212 16.6745C26.8439 16.6047 26.4993 16.2617 26.3903 16.2064C26.3906 16.2064 26.3909 16.2064 26.3911 16.2064ZM35.7006 16.2285C35.637 16.2792 35.5786 16.3481 35.5171 16.4061C35.4508 16.411 35.3844 16.4151 35.3182 16.4199C35.3105 16.3743 35.3043 16.3267 35.2953 16.2828C35.2083 16.2686 35.2415 16.3323 35.2155 16.3379C35.2156 16.3377 35.2156 16.3374 35.2156 16.3372C34.8437 16.4168 34.6928 16.4055 34.4063 16.2615C34.4046 16.4009 34.403 16.5402 34.4014 16.6796C34.4663 16.667 34.5319 16.6548 34.5969 16.6427C34.6323 16.5682 34.6678 16.4937 34.7032 16.4192C34.7779 16.4614 34.852 16.5033 34.9269 16.5455C34.9876 16.5193 35.0606 16.4918 35.1133 16.4662C35.41 16.8592 34.7284 16.5865 34.721 16.7481C34.7152 16.852 35.4045 16.8556 35.5058 16.7851C35.5203 16.7747 35.3739 16.483 35.6257 16.6371C35.6648 16.6613 35.6728 17.2889 35.9478 16.7841C35.9869 16.7125 35.8581 16.3211 35.7006 16.2285ZM33.2015 15.9968C33.5827 16.4026 32.1638 15.9618 32.7737 16.2991C32.5968 16.4815 32.6291 16.4795 32.8034 16.6452C32.8188 16.66 32.6965 16.7093 32.7067 16.7159C32.8702 16.808 33.0703 16.7625 33.0698 16.9266C33.1146 16.9184 33.1569 16.9111 33.2019 16.9029C33.0169 16.7461 33.315 16.6456 33.432 16.5164C33.4853 16.4579 33.3647 16.4383 33.4095 16.3871C33.4261 16.3684 33.5944 16.408 33.6021 16.354C33.6179 16.2316 33.5135 16.0649 33.3352 15.9725C33.3352 15.9724 33.3352 15.9723 33.3352 15.9722C33.2902 15.9797 33.2464 15.9889 33.2015 15.9968ZM41.4627 16.4296C41.5259 16.6523 41.7891 16.7191 41.2805 16.8213C41.305 16.8653 41.3302 16.9089 41.3548 16.953C41.4405 16.9502 41.5234 16.9474 41.6104 16.9449C41.8794 16.2946 42.3456 17.0381 42.0468 16.5708C42.0142 16.5199 41.8107 16.5737 42.0126 16.4394C42.0124 16.4393 42.0121 16.4391 42.0118 16.439C41.7317 16.4775 41.6955 16.5557 41.4627 16.4296ZM39.5914 16.5613C38.942 17.0203 40.4778 16.8327 40.2233 16.7057C40.2003 16.6942 39.5384 16.7864 39.5914 16.5613ZM44.7661 16.2193C44.4786 16.2076 44.4561 16.4592 44.4841 16.5503C44.512 16.6416 44.7125 16.5522 44.738 16.5669C44.8211 16.6152 44.6432 16.6441 44.751 16.7102C44.7863 16.7317 45.2873 16.8278 45.3119 16.8173C45.4415 16.7587 45.2558 16.5485 45.2929 16.5252C45.4141 16.4487 45.5756 16.5588 45.6117 16.4488C45.6896 16.214 45.383 16.4576 45.3314 16.461C45.1763 16.4702 45.1912 16.3377 45.0757 16.3096C44.9617 16.2816 44.8862 16.3262 44.7852 16.3155C44.7516 16.3119 44.7807 16.2203 44.7661 16.2193ZM43.8054 16.7392C44.1102 16.5523 43.3765 16.3357 43.288 16.3793C43.0287 16.5087 43.6598 16.8284 43.8054 16.7392ZM34.1655 16.6138C34.4404 16.4788 33.8066 16.3595 33.6164 16.4129C33.6508 16.4707 34.0725 16.6603 34.1655 16.6138ZM36.4915 16.296C36.2379 16.336 36.5696 16.6514 36.7816 16.649C36.9082 16.4459 36.7908 16.4851 36.6526 16.475C36.5146 16.4649 36.6896 16.2648 36.4915 16.296ZM47.8992 16.4866C47.8459 16.4827 46.9567 16.6405 47.4655 16.7173C47.505 16.7231 48.1227 16.7012 48.1689 16.6703C48.2633 16.6078 48.0401 16.4975 47.8992 16.4866ZM37.714 16.0084C37.5787 16.1838 37.445 16.1798 37.5669 16.3891C37.567 16.3891 37.5672 16.3891 37.5674 16.3891C37.225 16.4487 37.2153 16.0233 37.1416 16.0315C36.8843 16.0603 37.124 16.3659 36.9618 16.4633C37.3376 16.3744 37.2277 16.5772 37.5131 16.5936C37.5781 16.5972 37.8325 16.4784 37.8709 16.4029C37.909 16.3274 37.7819 16.0981 37.714 16.0084ZM49.1447 16.4584C48.8452 16.3868 48.5644 16.6701 48.9824 16.721C49.1858 16.746 49.3273 16.5021 49.1447 16.4584ZM19.4377 16.0551C19.4676 16.1341 19.4996 16.2124 19.5342 16.2879C19.4474 16.3035 19.3337 16.3064 19.2264 16.3089C19.3136 16.2981 19.4009 16.2866 19.4792 16.2694C19.295 16.2246 19.2303 16.0741 19.4373 16.0551C19.4374 16.0551 19.4376 16.0551 19.4377 16.0551ZM12.1592 15.4854C12.0843 15.4016 11.8824 15.5931 11.8989 15.6136C12.0372 15.7725 12.2671 15.6023 12.1592 15.4854ZM33.7665 15.9277C33.4206 15.8923 33.6541 16.2598 33.8667 16.2873C33.7373 16.216 33.9632 15.9479 33.7665 15.9277ZM14.6747 15.7797C14.704 15.8127 14.7312 15.8455 14.7641 15.8785C14.6606 15.8297 14.6427 15.7992 14.6747 15.7797ZM47.7631 16.1628C47.7114 16.1341 47.3228 16.1061 47.2694 16.14C47.1591 16.2114 47.461 16.4166 47.6397 16.357C47.6596 16.3506 47.8149 16.1914 47.7623 16.1628C47.7626 16.1628 47.7629 16.1628 47.7631 16.1628ZM19.0333 15.8508C19.0333 15.8543 19.0324 15.8576 19.0308 15.8604C19.0317 15.8573 19.0322 15.8539 19.0333 15.8508ZM5.73866 12.41C5.73577 12.4152 5.73235 12.4197 5.72829 12.4233C5.73166 12.4191 5.73475 12.4143 5.73866 12.41ZM45.0321 15.8185C44.9085 15.4694 44.6104 15.6505 44.8418 15.8253C44.8548 15.8345 45.0011 15.8174 45.0321 15.8185Z" fill="#419DDF"/>
</svg>
