<svg width="1048" height="170" viewBox="0 0 1048 170" fill="none" xmlns="http://www.w3.org/2000/svg">
<path d="M782.5 86.5391H826.805C828.671 86.5177 830.497 86.0023 832.097 85.0454C833.697 84.0888 835.012 82.7252 835.909 81.0944L872.325 8.49809C873.222 6.69064 874.653 5.2002 876.425 4.22701C878.197 3.25361 880.225 2.84405 882.238 3.05337C884.242 3.18848 886.155 3.93965 887.713 5.20383C889.271 6.46781 890.397 8.1825 890.937 10.1113L936.052 159.74C936.644 161.771 937.861 163.564 939.53 164.866C941.201 166.169 943.239 166.915 945.358 167C947.343 166.933 949.265 166.288 950.884 165.141C952.503 163.991 953.747 162.394 954.462 160.547L982.178 92.9921C982.94 91.0972 984.253 89.4714 985.947 88.3222C987.64 87.1731 989.637 86.5522 991.686 86.5391H1045.5M3 86.5H768" stroke="#FFE067" stroke-width="5" stroke-linecap="round" stroke-linejoin="round"/>
</svg>
