<svg width="1922" height="170" viewBox="0 0 1922 170" fill="none" xmlns="http://www.w3.org/2000/svg">
<path d="M1656 86.5391H1700.31C1702.17 86.5177 1704 86.0023 1705.6 85.0454C1707.2 84.0888 1708.51 82.7252 1709.41 81.0944L1745.82 8.49809C1746.72 6.69064 1748.15 5.2002 1749.93 4.22701C1751.7 3.25361 1753.73 2.84405 1755.74 3.05337C1757.74 3.18848 1759.66 3.93965 1761.21 5.20383C1762.77 6.46781 1763.9 8.1825 1764.44 10.1113L1809.55 159.74C1810.14 161.771 1811.36 163.564 1813.03 164.866C1814.7 166.169 1816.74 166.915 1818.86 167C1820.84 166.933 1822.77 166.288 1824.38 165.141C1826 163.991 1827.25 162.394 1827.96 160.547L1855.68 92.9921C1856.44 91.0972 1857.75 89.4714 1859.45 88.3222C1861.14 87.1731 1863.14 86.5522 1865.19 86.5391H1919M575 86.5H1641.5M3 87H82.5M100.5 86.2576H136.719C138.244 86.2401 139.737 85.819 141.045 85.0371C142.353 84.2555 143.428 83.1413 144.162 81.8088L173.931 22.4923C174.664 21.0155 175.834 19.7977 177.283 19.0026C178.731 18.2072 180.39 17.8726 182.035 18.0436C183.673 18.154 185.237 18.7678 186.511 19.8007C187.784 20.8335 188.705 22.2345 189.146 23.8105L226.027 146.068C226.511 147.728 227.506 149.192 228.871 150.257C230.236 151.321 231.903 151.931 233.635 152C235.258 151.946 236.829 151.418 238.153 150.481C239.476 149.542 240.493 148.237 241.077 146.727L263.735 91.5301C264.358 89.9818 265.431 88.6535 266.816 87.7145C268.2 86.7756 269.832 86.2683 271.508 86.2576H315.5M331.5 86.5H608.5" stroke="#FFE067" stroke-width="5" stroke-linecap="round" stroke-linejoin="round"/>
</svg>
