<svg width="411" height="112" viewBox="0 0 411 112" fill="none" xmlns="http://www.w3.org/2000/svg">
<path d="M204.469 56.9795H233.534C234.757 56.9654 235.955 56.6262 237.005 55.9965C238.054 55.3669 238.917 54.4694 239.506 53.3962L263.395 5.61845C263.983 4.42892 264.922 3.44802 266.085 2.80753C267.247 2.16691 268.578 1.89736 269.898 2.03512C271.213 2.12404 272.467 2.61841 273.49 3.45041C274.512 4.28227 275.251 5.41075 275.604 6.68018L305.2 105.155C305.588 106.492 306.387 107.672 307.482 108.529C308.578 109.386 309.915 109.877 311.305 109.933C312.608 109.889 313.868 109.465 314.931 108.71C315.993 107.953 316.809 106.902 317.277 105.686L335.459 61.2264C335.96 59.9793 336.821 58.9093 337.932 58.153C339.043 57.3968 340.353 56.9881 341.697 56.9795H408.5M2 56.9541H194.37" stroke="#FFE067" stroke-width="3.29064" stroke-linecap="round" stroke-linejoin="round"/>
</svg>
