<svg width="4" height="140" viewBox="0 0 4 140" fill="none" xmlns="http://www.w3.org/2000/svg">
<path d="M0.141619 53.5608C0.174463 47.8846 0.172585 41.6701 0.273481 35.9717C0.285832 35.2721 0.386236 35.3206 0.400935 35.1244C0.44146 34.5881 0.324931 34.2642 0.336446 33.8732C0.392018 31.9722 0.421817 30.1937 0.473281 28.3287C0.526199 26.4076 0.832866 27.3187 0.913922 26.6516C1.07264 25.3483 0.656358 26.4549 0.568337 25.9415C0.603514 24.4463 0.658528 22.9379 0.714018 21.4402C0.749534 21.8062 0.784239 22.1723 0.816929 22.5422C0.829995 21.8894 0.899701 20.9553 0.998615 22.0495C1.02974 21.808 1.06572 21.5827 1.09619 21.3345C0.947968 21.2654 0.944263 20.1092 0.856857 20.0029C0.769424 19.8968 0.785045 20.5469 0.777375 20.5429C0.667845 20.499 0.83703 17.8339 0.850651 17.6417C0.886868 17.1336 1.06804 17.5806 1.05926 17.1481C1.04428 16.4042 0.665634 16.897 1.17149 15.8938C1.01236 15.4921 1.09674 15.4578 1.11158 14.9507C1.11345 14.884 1.01929 14.9351 1.01705 14.9057C0.952913 14.1376 1.12312 14.7289 1.1326 14.7249C1.29361 14.6564 1.22814 13.8321 1.24477 13.6586C1.45209 11.4823 1.5933 9.88765 1.65416 7.59007C1.66715 7.09343 1.61284 5.58006 1.64357 5.09957C1.67389 4.62566 1.78772 4.88089 1.84502 4.63314C1.56965 4.23346 1.54168 3.85382 1.73134 2.96224C1.53077 2.62837 1.69417 2.67228 1.65813 2.03509C1.62829 1.50472 1.39144 0.579136 1.60311 -0.00284289C1.57943 0.665981 1.67962 0.597414 1.73443 1.35093C1.75257 1.60178 1.73816 4.21591 1.94698 4.02287C2.05583 3.92219 1.96271 3.05506 1.98288 3.02172C2.10045 2.82763 2.23978 3.31217 2.18668 3.74046C2.16399 3.63348 2.14113 3.50461 2.1185 3.38962C1.9664 4.35125 2.5289 3.69321 2.03624 4.42141C1.9758 4.51144 1.91371 4.47597 1.84911 4.62462C1.87517 4.65548 1.94161 4.47347 1.95216 4.6307C1.96278 4.79109 1.83692 5.09455 1.94083 5.14068C2.09192 5.20961 2.03693 4.54508 2.04615 4.49519C2.04524 4.49466 2.04433 4.49409 2.04341 4.49357C2.12705 4.05231 2.12963 4.97513 2.14367 5.01929C2.23607 5.30539 2.31018 5.11125 2.38513 5.54014C2.42783 5.78481 2.39718 6.40703 2.40989 6.63681C2.42297 6.86508 2.49721 6.51058 2.5115 6.66423C2.5258 6.8179 2.46996 7.00867 2.48652 7.18906C2.49383 7.26623 2.57383 7.26289 2.57636 7.30025C2.60427 7.70094 2.4398 7.43707 2.44736 7.80031C2.45242 8.0356 2.60185 8.82643 2.65193 8.28243C2.66615 8.54418 2.67611 8.79941 2.68684 9.05978C2.7118 8.89577 2.72918 8.72624 2.7583 8.56626C2.71671 9.05584 2.85198 9.27841 2.85997 9.5855C2.86793 9.89264 2.70173 10.1668 2.77943 10.5051C2.9447 11.2274 2.87871 9.44144 2.91074 9.22C2.92333 9.13372 3.0496 9.46628 3.05291 9.51745C3.06738 9.74448 2.97347 10.0122 2.97635 10.1872C2.98727 10.8135 3.10594 11.1978 3.12618 11.7948C3.19495 13.8276 3.24449 16.3491 3.25733 18.2747C3.26201 18.9918 3.12242 19.4222 3.12397 19.7441C3.1277 20.497 3.246 20.5901 3.24764 21.2468C3.25046 22.2243 3.13677 23.6005 3.10854 24.4161C3.08911 24.9808 3.20058 25.493 3.20234 25.6399C3.22905 27.6818 3.20872 30.1654 3.19804 31.8571C3.19305 32.6528 3.06098 33.0298 3.06361 33.1941C3.07466 33.9004 3.18662 33.7118 3.17136 34.2844C3.16321 34.5936 3.05661 34.6507 3.05217 34.6921C3.01457 35.0564 3.15271 35.1299 3.15523 35.4144C3.16978 37.0501 3.06778 38.6249 3.04291 40.2444C3.04102 40.3618 2.97967 40.351 2.98228 40.4271C2.99502 40.754 3.09284 40.6028 3.09742 40.9444C3.10739 41.6549 3.0862 42.3842 3.06857 43.1372C3.06683 43.2117 2.98763 43.2447 2.98638 43.4154C2.98516 43.5862 3.05909 43.7164 3.053 43.9846C3.03714 44.6856 2.94267 45.3767 2.93246 46.1191C2.93089 46.2419 3.02492 46.3948 3.02257 46.579C3.01529 47.1572 2.92282 48.0125 2.91613 48.5079C2.89466 50.1421 2.93803 51.6503 2.92774 53.1898C2.92511 53.5515 2.83469 53.8714 2.83125 54.0596C2.8237 54.4839 2.90926 54.1644 2.90653 54.5943C2.88355 58.1059 2.82051 61.6308 2.80178 65.1839C2.79427 66.5792 2.8683 68.2783 2.83487 69.6267C2.82071 70.1873 2.70484 70.2883 2.70096 70.6848C2.69455 71.3922 2.84123 71.5215 2.85061 72.2678C2.8579 72.8634 2.70568 73.5448 2.71035 74.1644C2.71502 74.784 2.8561 75.071 2.86817 75.7828C2.87796 76.369 2.80717 77.187 2.81311 77.8252C2.86792 83.6742 2.88557 89.4335 2.73157 95.317C2.67719 97.3931 2.68129 99.6968 2.52529 101.842C2.51054 102.043 2.37452 101.734 2.39894 102.38C2.41221 102.727 2.52784 103.213 2.52808 104.015C2.52899 108.786 2.23789 113.873 2.25363 118.725C2.27767 125.992 3.20744 133.529 1.72308 139.833C1.65019 140.143 1.30504 139.972 1.20796 139.786C1.27952 139.614 1.36418 139.456 1.44489 139.276C1.01375 139.046 1.12614 139.087 1.17099 138.246C1.19881 137.728 1.01077 138.14 0.96021 137.864C0.894877 137.506 0.693107 135.824 0.977403 136.149C0.928457 136.045 0.881541 135.948 0.833626 135.846C0.798921 134.63 0.735606 133.447 0.66187 132.257C0.648963 132.052 0.5591 132.041 0.546272 131.829C0.511165 131.259 0.573477 130.807 0.568576 130.219C0.565956 129.9 0.462352 129.855 0.471986 129.437C0.48166 129.019 0.62188 129.029 0.473482 128.459C0.294812 128.828 0.434359 127.174 0.427722 126.585C0.426933 126.499 0.273808 125.797 0.294646 125.425C0.31516 125.051 0.420232 124.484 0.36702 123.906C0.342012 123.635 0.220036 123.469 0.215119 123.177C0.211689 122.971 0.322918 122.725 0.32934 122.465C0.335746 122.204 0.249912 121.641 0.249168 121.537C0.245881 121.165 0.319906 121.576 0.325602 121.322C0.351882 120.092 0.403331 118.663 0.360209 117.451C0.354995 117.302 0.262849 117.507 0.259968 117.487C0.155942 116.475 0.270225 117.016 0.353361 116.743C0.433755 116.479 0.404767 114.542 0.247243 114.526C0.445053 114.468 0.297369 114.037 0.292374 113.925C0.273108 113.489 0.443273 113.576 0.393465 113.154C0.375333 112.999 0.257751 113.299 0.262322 113.133C0.273658 112.722 0.46174 112.353 0.484211 111.806C0.489705 111.674 0.407408 111.63 0.411886 111.395C0.416409 111.16 0.524509 110.174 0.347049 110.628C0.490927 110.031 0.415165 109.91 0.423983 109.215C0.426414 109.038 0.561151 108.812 0.522556 108.437C0.509455 108.31 0.381117 108.313 0.381431 108.122C0.381786 107.685 0.51755 107.275 0.526756 106.721C0.544301 105.685 0.458805 104.581 0.499765 103.501C0.510985 103.208 0.639467 103.282 0.64501 102.855C0.645458 102.792 0.53757 102.277 0.550167 101.982C0.557735 101.805 0.642711 100.885 0.650336 100.7C0.662625 100.393 0.538248 100.337 0.563851 100.169C0.63766 99.6837 0.818532 100.075 0.571461 99.4883C0.71211 99.297 0.700618 98.9552 0.872865 98.8469C0.686383 98.6466 0.86876 98.3899 0.808574 98.0036C0.74834 97.6173 0.386665 97.2983 0.778919 97.2076C0.732614 97.027 0.656878 96.2585 0.651855 96.1289C0.637799 95.7471 0.744659 95.952 0.732084 95.6638C0.729997 95.613 0.655551 95.6656 0.665179 95.3402C0.671604 95.1266 0.687329 93.5613 0.698145 93.4679C0.821721 92.4023 0.767451 94.0496 0.845969 94.2808C0.824623 94.3213 0.803211 94.3615 0.782093 94.4048C0.743753 94.8758 0.913002 94.6087 0.95337 94.3953C0.993727 94.182 0.922034 93.7822 0.978241 93.605C1.00646 93.5168 1.20669 93.573 1.18055 93.8404C1.24439 93.5545 1.30684 93.946 1.36572 93.8332C1.43028 93.7092 1.45906 92.4227 1.34857 92.4151C1.343 92.6554 1.34468 92.9545 1.3384 93.1974C1.14401 93.5139 0.494811 92.5439 0.763242 91.6605C0.957486 91.0197 1.10074 92.0794 0.95239 90.559C0.943021 90.7925 0.923666 90.9901 0.914102 91.2023C0.769862 91.2238 0.930744 90.8806 0.886176 90.7027C0.864374 90.6172 0.758596 91.1422 0.727907 90.6856C0.936745 90.2945 0.731656 89.991 0.733908 89.3328C0.769345 89.5159 0.804593 89.6994 0.84003 89.8826C0.997396 88.7714 1.02823 91.3551 1.12731 89.193C1.1321 89.4533 1.12848 89.7122 1.13675 89.9739C1.21326 89.8476 1.43373 90.0521 1.48143 89.9389C1.60663 89.6421 1.53559 89.2011 1.54899 88.8381C1.55467 88.6793 1.61389 88.7783 1.61433 88.7649C1.62253 88.5473 1.53435 88.5948 1.53012 88.4038C1.52484 88.1635 1.61518 87.4701 1.60626 87.3575C1.58349 87.0663 1.40671 87.5497 1.39396 87.5216C1.31133 87.3354 1.38366 86.9568 1.27371 86.976C1.34276 87.8886 1.22697 90.5164 1.06234 88.1371C0.880241 88.7915 0.636991 88.6004 0.624471 87.6576C0.613943 86.8777 0.708357 87.3816 0.819039 86.9764C0.832907 86.9241 0.891901 85.88 0.816087 85.826C0.991277 85.8691 1.14911 85.5303 1.32854 85.7597C1.3549 85.7933 1.34134 86.2218 1.48799 86.0733C1.56164 85.999 1.72233 85.7856 1.81518 85.8209C1.75108 85.7323 1.67892 85.6396 1.61203 85.5497C1.59772 84.9073 1.6681 84.8166 1.79134 84.4662C1.74084 84.4819 1.52677 84.8049 1.59468 84.3126C1.59871 84.2874 1.67486 84.2661 1.71436 84.016C1.79355 83.5106 1.81781 83.4051 2.03821 83.7951C1.91839 82.7463 2.16875 82.5223 2.10369 81.4472C1.81526 81.6588 1.88359 82.0371 1.93185 83.0215C1.86332 83.0637 1.79563 83.0833 1.72638 83.1268C1.8904 81.8182 1.87002 82.4653 1.73678 81.7223C1.70414 81.5404 1.74737 80.5724 1.5519 80.8942C1.5059 80.9701 1.50684 81.5717 1.43567 81.5022C1.42212 81.4888 1.39264 80.7572 1.41161 80.6929C1.64589 79.8854 1.79483 81.3325 1.72747 79.1036C1.72546 79.0422 1.64209 79.02 1.63133 78.8999C1.61125 78.6742 1.70803 78.672 1.68713 78.4704C1.66618 78.2686 1.53804 77.9884 1.66051 77.6862C1.88353 77.1336 2.00019 78.4416 1.87985 79.0229C2.16441 79.2613 2.20042 75.1021 2.17777 74.8443C2.07909 73.7182 2.12732 75.5913 2.04723 75.6872C2.01335 75.727 1.58768 75.704 1.8606 76.1799C1.94148 76.3206 2.05356 75.7354 2.09621 76.0854C2.13885 76.4356 2.01446 76.2961 2.00553 76.3214C1.97492 76.4082 2.01875 76.7806 2.00063 76.8287C1.72552 77.5692 1.3183 77.4982 1.92758 76.5184C1.79452 76.0888 1.57052 77.0711 1.48194 76.5377C1.37428 75.8893 1.57183 75.4181 1.58116 75.3367C1.69166 74.3617 1.40017 75.4848 1.49925 74.2936C1.55438 73.6303 1.6808 75.2881 1.67308 73.7725C1.66639 72.5039 1.56282 73.1882 1.33917 73.0945C1.28684 73.0723 1.22745 72.3769 1.24378 73.3234C1.30202 73.3506 1.37867 73.4016 1.43213 73.4621C1.38781 73.6939 1.0926 74.0788 1.08149 74.2019C1.02855 74.8038 1.18055 74.7757 0.999243 75.1296C1.19663 74.8774 1.07583 75.2893 1.11602 75.4445C1.26409 76.0207 1.32606 75.267 1.12126 76.5565C1.21414 76.3889 1.30522 76.2373 1.39771 76.0751C1.39976 76.2299 1.40187 76.3849 1.40392 76.5398C1.20036 76.7693 1.2203 77.5922 1.02233 76.8458C0.958197 77.7412 0.999626 78.1036 1.15531 78.301C1.18503 78.3385 1.19605 78.4732 1.19781 78.6314C1.24219 78.6018 1.37894 78.5645 1.3955 78.5895C1.54111 78.8135 1.28434 79.1574 1.18812 79.0388C1.18269 79.1494 1.17662 79.237 1.17404 79.2679C1.15756 79.4637 1.07254 79.0789 1.04131 79.2375C1.03116 79.2898 1.04631 79.8422 1.01055 79.8526C0.781325 79.9175 0.952855 79.01 0.806883 80.8338C1.01478 80.8794 0.975056 80.0315 1.19467 80.2507C1.43059 80.4861 1.10848 80.9604 1.39923 81.0667C1.35103 81.105 1.31094 81.1219 1.25614 81.1548C1.37788 81.894 1.13503 81.902 1.07982 82.1272C0.972057 82.5644 0.973388 84.578 1.19662 82.7716C1.21573 83.0362 1.22351 83.3061 1.24018 83.5693C0.804514 83.6263 0.97889 83.4673 0.903358 84.7339C0.886668 85.0128 0.694598 85.1023 0.920001 85.3776C0.697246 85.3388 0.826082 86.1651 0.798467 86.2419C0.618928 86.7347 0.387026 84.8986 0.782988 84.6663C0.631688 84.3555 0.834612 84.3581 0.810182 84.0122C0.774905 83.5126 0.735879 83.4429 0.889889 82.8511C0.683041 82.2661 0.780732 85.1348 0.513195 83.3943C0.245684 81.6533 0.161859 71.5265 0.136737 69.1641C0.0913674 64.8841 0.0578055 62.6338 0.0978603 58.7897C0.101619 58.4106 0.101832 55.5479 0.341432 56.1446C0.375815 56.2302 0.45976 57.4622 0.658716 56.4075C0.544165 56.6215 0.475215 56 0.46369 55.9478C0.202077 54.7509 0.13098 55.4422 0.141619 53.5608ZM2.35634 47.9992C2.28316 50.4542 2.45906 48.6515 2.82355 49.1642C2.82685 48.849 2.83011 48.5351 2.83341 48.22C2.80972 48.3026 2.78612 48.3841 2.76243 48.4667C2.76243 48.4671 2.76243 48.4675 2.76242 48.4678C2.62707 48.312 2.49169 48.155 2.35634 47.9992ZM2.8895 7.86167C2.93729 7.95782 2.98518 8.05284 3.03186 8.15697C3.0145 8.48125 2.99742 8.80434 2.98006 9.12864C2.94745 9.08971 2.91444 9.05204 2.88182 9.01312C2.88596 8.62933 2.89022 8.24679 2.8895 7.86167ZM1.93068 79.3667C1.79269 79.8251 2.03338 79.7853 1.91949 80.3948C2.09743 80.3213 2.27156 80.2395 2.44778 80.1619C2.42484 79.6973 2.35814 79.5913 2.4051 79.087C2.34766 79.1454 2.28987 79.2051 2.23209 79.2621C2.24373 79.3462 2.257 79.4357 2.26726 79.5171C2.10678 79.6454 2.08873 78.839 1.93032 79.3651C1.93044 79.3657 1.93056 79.3662 1.93068 79.3667ZM1.96847 84.0739C1.94361 84.3208 1.84979 85.2987 1.92232 85.4328C2.16825 85.8872 2.02985 83.1251 2.23683 85.1616C2.27185 85.1525 2.30604 85.1621 2.34065 85.1623C2.35555 84.7913 2.36874 84.4212 2.3812 84.0475C2.2432 84.0665 2.10719 84.0522 1.96847 84.0739ZM2.30828 56.8801C2.28638 57.2597 2.39064 59.0703 2.55265 58.4815C2.60008 58.3082 2.38013 57.4986 2.39212 57.1916C2.39986 56.9928 2.52203 57.2165 2.47934 56.8237C2.42467 56.8406 2.36411 56.851 2.30864 56.8812C2.30852 56.8809 2.3084 56.8805 2.30828 56.8801ZM1.59323 56.1631C1.61247 56.5558 1.63756 56.9539 1.65818 57.3492C1.80124 57.0618 1.71472 56.4938 1.91337 56.4618C1.92764 56.57 1.94183 56.677 1.9561 56.7852C1.91213 56.8677 1.86813 56.9489 1.82416 57.03C1.92952 57.3699 1.98454 57.1649 1.94888 57.7962C2.25151 57.4165 2.41299 57.3467 2.11731 56.263C2.27857 56.4684 2.81013 56.28 2.43553 55.6778C2.36599 55.5651 2.31564 56.0332 2.30441 56.0384C2.16466 56.1094 2.07766 55.8489 1.94558 55.9253C1.88585 55.9596 1.88471 56.2453 1.80182 56.2874C1.76139 56.3069 1.64838 56.0343 1.59323 56.1631ZM2.30486 55.3858C2.38832 55.5079 2.59141 55.0941 2.55342 54.7333C2.49445 54.1707 2.29776 55.0559 2.30486 55.3858ZM2.88933 7.85954C2.88939 7.86025 2.88944 7.86096 2.8895 7.86167C2.88932 7.86132 2.88914 7.86096 2.88896 7.8606C2.88908 7.86025 2.88921 7.85989 2.88933 7.85954ZM2.07516 82.8009C2.14477 83.0924 2.13125 83.5231 2.24546 83.4921C2.22205 83.6335 2.19899 83.7764 2.17558 83.9178C2.20986 83.9167 2.24423 83.9143 2.27816 83.9132C2.30254 83.4875 2.32699 83.063 2.35173 82.6373C2.25967 82.69 2.16728 82.7388 2.07516 82.8009ZM1.96218 87.4402C1.94683 87.9754 2.10512 87.5277 2.17917 87.6458C2.25322 87.7638 2.18888 88.2403 2.29672 88.185C2.30317 87.8699 2.30973 87.5412 2.31586 87.2221C2.19838 87.3054 2.07892 87.3633 1.96218 87.4413C1.96218 87.4409 1.96218 87.4405 1.96218 87.4402ZM2.55004 37.979C2.51385 38.3419 2.39657 38.1929 2.53002 38.9108C2.53002 38.9103 2.53003 38.9098 2.53003 38.9092C2.63182 38.2277 2.72447 37.35 2.63609 36.5963C2.50796 37.056 2.60661 37.408 2.55004 37.979ZM2.28892 78.0992C2.19625 77.9452 2.11283 78.6588 2.19883 78.8169C2.33803 79.0729 2.42967 78.3339 2.28892 78.0992ZM1.82427 23.3052C1.53953 22.7507 1.20802 23.7951 1.34014 24.8922C1.35171 24.9871 1.44857 24.2801 1.50341 24.4901C1.50881 24.5114 1.49916 24.8998 1.53862 24.9962C1.57818 25.0926 1.67231 24.9923 1.71038 25.1501C1.7769 25.4271 1.64551 26.051 1.73395 26.2585C1.74581 26.2859 1.8735 25.8993 1.87842 25.875C1.95684 25.4777 1.79628 25.0931 1.79564 25.0317C1.7923 24.7151 1.91998 24.7639 1.95065 24.684C2.00833 24.5335 1.95364 24.2674 1.95797 24.2488C2.07369 23.7693 2.03372 24.8664 2.07884 25.015C2.20057 25.415 2.31902 25.0463 2.38252 26.0041C2.38849 26.0951 2.3732 27.1832 2.52634 25.8129C2.80593 28.5078 2.70598 24.4611 2.64333 24.0213C2.61428 23.8186 2.49005 24.1243 2.43601 24.0012C2.31241 23.7199 2.29367 23.2418 2.1163 23.2832C1.74339 23.3727 1.98282 24.0022 1.91709 24.4343C1.83658 24.3884 1.75786 24.3704 1.67938 24.2858C1.78484 24.4161 1.84571 23.3454 1.825 23.3052C1.82475 23.3052 1.82451 23.3052 1.82427 23.3052ZM2.20092 30.1249C2.08427 30.729 2.31956 30.6878 2.18123 31.241C2.38874 31.7312 2.38146 30.7672 2.39416 30.655C2.45101 30.1427 2.68036 30.1562 2.61352 29.6312C2.47647 29.8104 2.33824 29.9563 2.20092 30.1249ZM2.33536 24.8646C2.45144 25.27 2.4546 24.5461 2.47756 24.5168C2.72118 24.1989 2.65879 26.3662 2.33536 24.8646ZM1.81868 59.233C1.80917 59.4385 1.92402 59.3089 1.95637 59.4904C1.98901 59.6721 1.88709 60.2921 1.95808 60.2771C2.02923 60.2616 2.22158 59.1255 2.25332 60.2675C2.29347 60.2291 2.32312 60.2423 2.35929 60.2239C2.36258 59.9101 2.36659 59.5935 2.36988 59.2797C2.25388 59.4511 2.13188 59.6268 2.01978 59.7915C1.9297 59.6146 2.04756 59.5164 2.04763 59.5071C2.04751 59.5071 2.04738 59.5071 2.04726 59.5071C2.04042 59.1786 1.83988 58.7716 1.81868 59.233ZM2.29186 43.0542C2.0071 42.9907 2.32216 43.4776 2.35608 43.6768C2.38988 43.876 2.28234 44.1486 2.40581 44.0468C2.49279 43.7256 2.32364 43.0611 2.2915 43.0542C2.29162 43.0542 2.29174 43.0542 2.29186 43.0542ZM2.178 33.411C2.2436 33.9185 2.31833 33.8385 2.2293 34.4582C2.29841 34.4346 2.36902 34.4111 2.43708 34.3875C2.442 33.8949 2.24163 33.9281 2.32614 33.3586C2.3401 33.2653 2.49853 33.4665 2.45015 33.0444C2.36396 33.1666 2.26838 33.2902 2.178 33.411ZM2.41566 35.9255C2.40929 35.3433 1.85475 34.8776 2.09869 35.9516C2.13516 36.1108 2.42058 36.3634 2.41566 35.9255ZM1.84294 53.863C1.81979 54.8532 1.91784 53.7288 2.00541 53.4716C2.05751 55.7775 1.98381 53.2112 2.27056 52.9832C2.19139 52.7009 2.00948 52.1724 1.95557 52.7577C1.93318 53.0019 2.01872 52.9133 2.01826 52.928C1.99405 53.3778 1.85555 53.3223 1.84294 53.863ZM2.19469 29.0738C2.19863 29.1112 2.29535 29.0534 2.31374 29.1724C2.332 29.2915 2.26268 29.5603 2.32158 29.5874C2.38086 29.6144 2.43083 29.0746 2.38869 28.9085C2.34613 28.7427 2.16003 28.7357 2.19469 29.0738ZM1.93025 32.8724C1.99601 33.3677 2.35657 32.5612 2.35568 32.4536C2.34388 31.5081 2.04238 32.9013 1.93025 32.8724ZM1.25678 51.559C1.42847 52.754 1.74787 51.883 1.94079 51.1366C1.90337 51.0376 1.86591 50.9361 1.82884 50.8384C2.0573 51.2887 2.28066 52.0765 2.09123 50.3259C2.02988 51.2829 1.97337 50.4808 1.96035 50.4745C1.53557 50.366 1.72306 51.7856 1.25679 51.558C1.25678 51.5583 1.25678 51.5587 1.25678 51.559ZM2.30763 27.4654C2.30992 26.9458 2.24606 25.5946 2.05611 26.2235C2.13993 26.6379 2.22381 27.0509 2.30763 27.4654ZM1.14209 71.102C1.03302 71.5258 1.03204 71.9173 1.0353 72.4407C1.19298 71.9705 1.20849 72.2804 1.24515 72.4395C1.30032 72.681 1.29982 72.0971 1.31023 72.0955C1.45677 72.1073 1.47688 72.4797 1.47944 71.6321C1.52901 71.842 1.579 72.0492 1.62822 72.2591C1.6395 71.613 1.73624 71.4616 1.85603 71.0526C1.56764 71.4485 1.75017 70.9259 1.61149 70.4495C1.54205 70.2117 1.19786 70.8864 1.14208 71.1036C1.14208 71.1031 1.14209 71.1025 1.14209 71.102ZM1.19066 52.7923C1.24122 52.9155 1.31 53.0284 1.36793 53.1477C1.37261 53.2772 1.3766 53.407 1.38127 53.5366C1.33568 53.5523 1.28801 53.5653 1.24415 53.5837C1.22969 53.7542 1.29349 53.6882 1.29907 53.7389C1.29883 53.7389 1.29858 53.7389 1.29834 53.7389C1.37709 54.467 1.36552 54.7648 1.22085 55.3337C1.36019 55.3347 1.49953 55.3357 1.63887 55.3367C1.62649 55.2085 1.61446 55.079 1.60244 54.9508C1.52805 54.8822 1.45362 54.8133 1.37923 54.7447C1.42158 54.5967 1.46364 54.4502 1.50599 54.3023C1.47992 54.1833 1.45261 54.0404 1.42711 53.9375C1.8208 53.3488 1.54662 54.6911 1.7082 54.7043C1.81208 54.713 1.8172 53.3592 1.74686 53.1637C1.73656 53.1356 1.44446 53.4261 1.5991 52.9319C1.62344 52.8547 2.25106 52.8319 1.74684 52.2942C1.67531 52.2176 1.28364 52.4806 1.19066 52.7923ZM0.953219 57.7063C1.36003 56.9481 0.915546 59.7541 1.25449 58.5443C1.43642 58.8914 1.43448 58.8272 1.60067 58.48C1.61556 58.4495 1.6645 58.6905 1.67109 58.6701C1.7637 58.345 1.71863 57.9521 1.88278 57.9506C1.87466 57.8625 1.86747 57.7796 1.85936 57.6914C1.70209 58.0573 1.60233 57.473 1.47343 57.2464C1.41505 57.1433 1.39512 57.3793 1.344 57.2925C1.32534 57.2604 1.36541 56.9308 1.31135 56.9168C1.18907 56.8879 1.02206 57.0939 0.929271 57.4444C0.929149 57.4444 0.929027 57.4444 0.928905 57.4444C0.936321 57.5325 0.945457 57.6182 0.953219 57.7063ZM1.40284 41.4424C1.62562 41.3144 1.69284 40.7957 1.7942 41.7939C1.83825 41.7449 1.88195 41.6943 1.926 41.6453C1.92335 41.4771 1.92069 41.3141 1.91841 41.1432C1.26845 40.6258 2.01276 39.6953 1.54491 40.2913C1.49405 40.3564 1.5475 40.7558 1.41349 40.3609C1.41336 40.3614 1.41324 40.362 1.41311 40.3625C1.45118 40.9128 1.52929 40.9826 1.40284 41.4424ZM1.53126 45.1247C1.98903 46.3965 1.80425 43.3738 1.67677 43.8776C1.66525 43.9229 1.75627 45.2251 1.53126 45.1247ZM1.19766 34.9432C1.18555 35.5118 1.43716 35.5513 1.52827 35.4946C1.61965 35.4379 1.53053 35.0434 1.54522 34.9927C1.59365 34.8275 1.62234 35.1788 1.68862 34.9643C1.71015 34.8933 1.80702 33.9034 1.7965 33.858C1.73805 33.6055 1.52759 33.9724 1.50432 33.9002C1.428 33.6647 1.53839 33.3464 1.42838 33.2774C1.19365 33.1289 1.43691 33.7255 1.44021 33.826C1.44924 34.1292 1.3167 34.1018 1.28848 34.3286C1.26032 34.5552 1.30473 34.7038 1.29389 34.9038C1.29028 34.9704 1.19871 34.9144 1.19766 34.9432ZM1.71614 36.8274C1.52972 36.2321 1.31202 37.6768 1.35544 37.8487C1.48447 38.3544 1.8051 37.1125 1.71614 36.8274ZM1.57253 55.8051C1.43819 55.2609 1.31728 56.5256 1.37033 56.8879C1.42825 56.8212 1.61878 55.9923 1.57253 55.8051ZM1.25988 51.2279C1.29935 51.7276 1.61548 51.0676 1.61356 50.651C1.41066 50.4053 1.44958 50.6354 1.43923 50.9077C1.42881 51.1797 1.22913 50.8381 1.25988 51.2279ZM1.46932 28.7765C1.4653 28.8842 1.62205 30.6218 1.69947 29.6246C1.70527 29.5486 1.68416 28.3329 1.65333 28.2405C1.59096 28.0546 1.4804 28.4989 1.46932 28.7765ZM0.974685 48.8305C1.14983 49.0961 1.14559 49.3562 1.35517 49.1147C1.35518 49.1143 1.35518 49.114 1.35518 49.1136C1.41406 49.783 0.988624 49.8096 0.996692 49.9538C1.025 50.4585 1.33107 49.9827 1.42819 50.2998C1.34003 49.5635 1.54259 49.7759 1.55953 49.2165C1.56323 49.0911 1.44495 48.5879 1.36954 48.5139C1.29409 48.4401 1.06454 48.695 0.974685 48.8305ZM1.44271 26.3232C1.3707 26.9088 1.65377 27.4475 1.70508 26.6349C1.73031 26.2384 1.48656 25.9657 1.44271 26.3232ZM0.95244 84.9121C1.02831 84.8232 1.10388 84.7316 1.17909 84.636C1.19574 84.8523 1.21276 85.0689 1.22975 85.2853C1.20718 85.1142 1.18496 84.9429 1.16275 84.7705C1.1336 85.1762 0.99543 85.3608 0.952433 84.9132C0.952435 84.9128 0.952438 84.9124 0.95244 84.9121ZM0.791908 99.3628C0.718172 99.5438 0.939926 99.9033 0.957748 99.858C1.09058 99.5172 0.894145 99.1114 0.791908 99.3628ZM0.885476 56.6029C0.849274 57.2778 1.2173 56.8162 1.24525 56.4026C1.1737 56.6552 0.906053 56.22 0.885476 56.6029ZM0.845969 94.2808C0.877756 94.2204 0.909549 94.1595 0.941438 94.0919C0.89631 94.3051 0.866723 94.3419 0.845969 94.2808ZM1.14527 29.0503C1.11655 29.1531 1.08799 29.9152 1.12188 30.0184C1.19314 30.2326 1.39874 29.6396 1.33931 29.2893C1.33294 29.2506 1.174 28.9479 1.14526 29.0519C1.14526 29.0513 1.14527 29.0508 1.14527 29.0503ZM0.806211 85.8243C0.80971 85.8232 0.813036 85.8238 0.816087 85.826C0.812839 85.8252 0.809471 85.8254 0.806211 85.8243ZM0.230539 114.532C0.236226 114.528 0.241857 114.526 0.247243 114.526C0.24194 114.528 0.236349 114.531 0.230539 114.532ZM0.797247 34.4239C0.447941 34.6751 0.628591 35.2612 0.803713 34.8005C0.812928 34.7747 0.796124 34.4854 0.797247 34.4239Z" fill="#419DDF"/>
</svg>
