<svg width="3" height="110" viewBox="0 0 3 110" fill="none" xmlns="http://www.w3.org/2000/svg">
<path d="M0.633544 42.0828C0.668955 37.623 0.682499 32.7401 0.763331 28.2628C0.773231 27.7131 0.840052 27.7513 0.850319 27.5972C0.878612 27.1758 0.801697 26.9213 0.810304 26.614C0.851879 25.1204 0.87598 23.723 0.914729 22.2577C0.954582 20.7482 1.15686 21.4643 1.21249 20.9402C1.3214 19.9162 1.04124 20.7855 0.983785 20.3821C1.0108 19.2073 1.05106 18.0222 1.09162 16.8454C1.11443 17.133 1.13669 17.4206 1.15761 17.7113C1.16787 17.1983 1.21657 16.4645 1.27991 17.3242C1.30123 17.1345 1.32576 16.9575 1.34666 16.7625C1.24801 16.7081 1.24829 15.7997 1.19027 15.7161C1.13224 15.6327 1.1411 16.1435 1.136 16.1403C1.06308 16.1058 1.18222 14.0119 1.19176 13.8609C1.21711 13.4617 1.33683 13.813 1.33201 13.4731C1.32379 12.8886 1.07018 13.2757 1.40982 12.4877C1.30468 12.172 1.36101 12.145 1.37212 11.7466C1.37353 11.6942 1.31063 11.7343 1.3092 11.7112C1.26828 11.1077 1.38034 11.5724 1.38667 11.5693C1.49417 11.5154 1.45249 10.8678 1.46399 10.7315C1.60738 9.02164 1.70533 7.76871 1.75137 5.96351C1.76121 5.57326 1.7286 4.3842 1.75023 4.00666C1.77158 3.63434 1.84686 3.83489 1.88565 3.64027C1.70302 3.32611 1.68527 3.02781 1.81384 2.32737C1.68092 2.06494 1.78975 2.09952 1.76724 1.59885C1.74861 1.18213 1.59291 0.454767 1.73541 -0.00240696C1.71803 0.523089 1.78499 0.46926 1.81974 1.06134C1.83123 1.25841 1.8154 3.3124 1.95508 3.16083C2.02788 3.08176 1.96787 2.40041 1.98139 2.37422C2.06024 2.22174 2.15197 2.60257 2.11555 2.93903C2.10068 2.85496 2.08574 2.7537 2.07093 2.66334C1.96724 3.41884 2.34381 2.90207 2.01363 3.474C1.97313 3.54472 1.93182 3.51679 1.8884 3.63358C1.9057 3.65783 1.95043 3.51488 1.95708 3.63841C1.96378 3.76443 1.87915 4.00282 1.94831 4.03909C2.04888 4.09332 2.0138 3.57118 2.02006 3.53197C2.01946 3.53153 2.01885 3.53113 2.01824 3.5307C2.07505 3.18403 2.07458 3.90911 2.08383 3.94381C2.14475 4.16864 2.19462 4.01617 2.24357 4.35316C2.27145 4.54541 2.24954 5.03431 2.25746 5.21484C2.26564 5.39422 2.31597 5.1157 2.32514 5.23643C2.33431 5.35717 2.29662 5.50705 2.30723 5.64878C2.31192 5.70944 2.36527 5.70684 2.36686 5.7362C2.38452 6.05105 2.2755 5.84364 2.27967 6.12904C2.28249 6.31394 2.38022 6.93533 2.4149 6.50795C2.42376 6.71361 2.42979 6.91416 2.43633 7.11874C2.45336 6.98988 2.46535 6.85671 2.48514 6.73101C2.45625 7.11565 2.5459 7.2906 2.5505 7.53188C2.55507 7.77323 2.44362 7.98853 2.49461 8.25443C2.60307 8.82198 2.56334 7.41871 2.58522 7.24473C2.59381 7.17692 2.6772 7.43831 2.67929 7.47849C2.68839 7.65689 2.62515 7.86722 2.62665 8.00468C2.63244 8.4968 2.71064 8.7988 2.72271 9.26786C2.76372 10.8651 2.79074 12.8463 2.79472 14.3593C2.79613 14.9228 2.70204 15.2609 2.70231 15.5138C2.70301 16.1054 2.78165 16.1786 2.78118 16.6946C2.78073 17.4626 2.70166 18.5438 2.6809 19.1847C2.6666 19.6284 2.7397 20.0308 2.74052 20.1462C2.75347 21.7506 2.734 23.702 2.72285 25.0312C2.71763 25.6564 2.62869 25.9525 2.63004 26.0816C2.63573 26.6367 2.71082 26.4885 2.69929 26.9383C2.69312 27.1814 2.62192 27.2261 2.61886 27.2587C2.59292 27.5448 2.68484 27.6027 2.68584 27.8262C2.69165 29.1114 2.6199 30.3488 2.59946 31.6212C2.59792 31.7135 2.55705 31.7049 2.5586 31.7647C2.56632 32.0216 2.63189 31.9028 2.63414 32.1712C2.63909 32.7295 2.62323 33.3025 2.60968 33.8941C2.60835 33.9527 2.55547 33.9786 2.55423 34.1127C2.55301 34.2469 2.60198 34.3492 2.59728 34.56C2.58504 35.1107 2.52041 35.6537 2.51184 36.237C2.5105 36.3335 2.57283 36.4536 2.57082 36.5984C2.56459 37.0527 2.50091 37.7247 2.49527 38.1139C2.47706 39.398 2.50239 40.5829 2.49186 41.7926C2.48925 42.0768 2.4282 42.3281 2.42546 42.476C2.41942 42.8094 2.47722 42.5583 2.47438 42.8961C2.45069 45.6553 2.40027 48.4248 2.37933 51.2165C2.371 52.3128 2.4163 53.6478 2.39081 54.7073C2.38003 55.1478 2.30255 55.227 2.29902 55.5386C2.29306 56.0944 2.39054 56.1961 2.39502 56.7825C2.39846 57.2504 2.29535 57.7858 2.29699 58.2726C2.29863 58.7595 2.392 58.9849 2.39835 59.5442C2.40349 60.0049 2.35435 60.6475 2.35678 61.149C2.3794 65.7447 2.37746 70.2699 2.26078 74.8926C2.21958 76.5237 2.21683 78.3338 2.10772 80.0189C2.09741 80.1772 2.00747 79.9341 2.02221 80.442C2.03023 80.7148 2.10616 81.0964 2.1044 81.7269C2.09365 85.4756 1.88747 89.4724 1.88642 93.2842C1.88514 98.9939 2.48705 104.917 1.48246 109.869C1.43313 110.112 1.20343 109.978 1.13915 109.832C1.18727 109.697 1.24409 109.572 1.29832 109.431C1.01144 109.25 1.08627 109.282 1.11817 108.622C1.13795 108.215 1.01161 108.539 0.978558 108.322C0.935856 108.04 0.805345 106.719 0.994103 106.974C0.961722 106.892 0.930673 106.816 0.898972 106.736C0.878732 105.78 0.839336 104.851 0.793012 103.916C0.784897 103.755 0.725013 103.747 0.716966 103.58C0.694919 103.132 0.737537 102.776 0.735669 102.315C0.734682 102.064 0.665719 102.029 0.673137 101.7C0.680581 101.372 0.774038 101.38 0.676464 100.931C0.556469 101.222 0.653441 99.9218 0.650418 99.4591C0.650096 99.3919 0.549683 98.8402 0.564462 98.5476C0.579028 98.254 0.650426 97.8087 0.616328 97.3542C0.600301 97.1411 0.519377 97.0111 0.516795 96.7813C0.514998 96.6197 0.589738 96.4263 0.594639 96.2218C0.59953 96.0173 0.543649 95.5743 0.543399 95.4932C0.542094 95.2005 0.590465 95.5238 0.594868 95.3237C0.615316 94.3576 0.653017 93.2353 0.627156 92.2824C0.624035 92.1652 0.562114 92.3267 0.560241 92.3111C0.493301 91.5154 0.568202 91.9405 0.624276 91.7263C0.678501 91.5188 0.663788 89.9968 0.558808 89.9846C0.69082 89.939 0.593391 89.5998 0.590327 89.5119C0.57852 89.1698 0.691758 89.2379 0.659558 88.9061C0.647839 88.7844 0.568734 89.0205 0.572178 88.8898C0.580714 88.5668 0.706981 88.2771 0.723265 87.8471C0.727242 87.7433 0.672481 87.709 0.676026 87.5244C0.679601 87.3395 0.754015 86.5653 0.634627 86.9218C0.731968 86.4527 0.681747 86.3576 0.689282 85.8111C0.691323 85.6726 0.781686 85.4952 0.756849 85.2002C0.748417 85.1005 0.662851 85.1027 0.663515 84.9526C0.664791 84.6096 0.756279 84.2873 0.763735 83.852C0.777899 83.0379 0.723528 82.1707 0.753406 81.3222C0.761585 81.0916 0.847064 81.15 0.851776 80.8145C0.852224 80.7652 0.781525 80.3604 0.790625 80.1286C0.796093 79.9891 0.854934 79.2666 0.860459 79.1209C0.869382 78.8798 0.786596 78.836 0.804064 78.7041C0.854427 78.3226 0.974078 78.6301 0.810759 78.1691C0.904982 78.0188 0.898134 77.7502 1.01322 77.6652C0.889378 77.5078 1.01158 77.3062 0.972371 77.0026C0.933135 76.699 0.692775 76.4483 0.954496 76.3772C0.924056 76.2353 0.875394 75.6314 0.872354 75.5296C0.863893 75.2296 0.934645 75.3906 0.926948 75.1641C0.925677 75.1243 0.875921 75.1656 0.883115 74.9099C0.887907 74.742 0.902117 73.5122 0.90955 73.4388C0.994472 72.6016 0.95437 73.8958 1.00616 74.0775C0.991838 74.1094 0.977467 74.1409 0.963285 74.1749C0.936604 74.545 1.05007 74.3352 1.07749 74.1676C1.10491 73.9999 1.05806 73.6859 1.09596 73.5467C1.11498 73.4773 1.24833 73.5216 1.23027 73.7317C1.27351 73.5071 1.31421 73.8147 1.35374 73.7261C1.39707 73.6287 1.41932 72.6179 1.34568 72.6119C1.34139 72.8006 1.3418 73.0357 1.33704 73.2266C1.20669 73.4751 0.776192 72.7127 0.957252 72.0187C1.08827 71.5153 1.18125 72.348 1.08597 71.1533C1.07917 71.3368 1.0658 71.492 1.05892 71.6587C0.962704 71.6756 1.07078 71.406 1.04149 71.2662C1.02716 71.199 0.955388 71.6115 0.936016 71.2527C1.07617 70.9455 0.940169 70.7069 0.943238 70.1897C0.966427 70.3337 0.989489 70.4778 1.01268 70.6218C1.12023 69.7488 1.13464 71.7789 1.20584 70.0801C1.20841 70.2846 1.20538 70.488 1.21028 70.6937C1.26158 70.5945 1.40808 70.7553 1.44015 70.6664C1.52432 70.4332 1.47801 70.0867 1.48781 69.8015C1.49198 69.6767 1.53122 69.7545 1.53154 69.744C1.53753 69.573 1.47863 69.6102 1.47626 69.4602C1.47332 69.2714 1.53519 68.7266 1.52951 68.6382C1.51503 68.4093 1.39602 68.7891 1.38759 68.767C1.33295 68.6206 1.38207 68.3232 1.30872 68.3382C1.35258 69.0553 1.26913 71.12 1.16504 69.2505C1.04208 69.7645 0.880369 69.6143 0.874267 68.8735C0.869105 68.2607 0.930849 68.6567 1.0056 68.3384C1.01497 68.2972 1.05679 67.477 1.00637 67.4345C1.12306 67.4684 1.2291 67.2023 1.34817 67.3826C1.36566 67.409 1.3556 67.7457 1.45372 67.6291C1.503 67.5707 1.61064 67.4031 1.67245 67.4309C1.62993 67.3612 1.58204 67.2884 1.53766 67.2177C1.52965 66.713 1.57679 66.6417 1.65979 66.3665C1.62608 66.3788 1.4826 66.6325 1.52904 66.2457C1.53179 66.2259 1.58261 66.2092 1.60953 66.0127C1.66353 65.6156 1.67996 65.5328 1.82597 65.8393C1.74858 65.0152 1.91602 64.8393 1.87521 63.9945C1.68242 64.1606 1.72707 64.4579 1.7569 65.2314C1.71111 65.2646 1.66594 65.2799 1.61967 65.3141C1.73213 64.2859 1.717 64.7944 1.62995 64.2105C1.60861 64.0676 1.63975 63.3071 1.50866 63.5598C1.47781 63.6194 1.47701 64.0921 1.42973 64.0375C1.42073 64.0269 1.40281 63.4521 1.41561 63.4016C1.57373 62.7672 1.66957 63.9043 1.62997 62.1529C1.62878 62.1047 1.57325 62.0872 1.56636 61.9929C1.55351 61.8155 1.61804 61.8139 1.60459 61.6554C1.5911 61.4969 1.50634 61.2766 1.58871 61.0392C1.7387 60.6052 1.81336 61.6329 1.73175 62.0897C1.9209 62.2771 1.95481 59.0091 1.94032 58.8065C1.87721 57.9217 1.90491 59.3934 1.85128 59.4688C1.8286 59.5 1.54487 59.4818 1.72569 59.8558C1.77927 59.9664 1.85539 59.5067 1.88299 59.7817C1.91058 60.0568 1.82799 59.9472 1.82197 59.967C1.80136 60.0352 1.82969 60.3278 1.81749 60.3657C1.63232 60.9473 1.36101 60.8914 1.76954 60.1218C1.68185 59.7842 1.53018 60.5559 1.47239 60.1368C1.40216 59.6273 1.53498 59.2571 1.5414 59.1932C1.61739 58.4271 1.42039 59.3094 1.48928 58.3735C1.52761 57.8524 1.60794 59.155 1.60641 57.9642C1.60497 56.9674 1.53429 57.5051 1.38541 57.4313C1.35058 57.4139 1.31264 56.8674 1.32127 57.6112C1.36003 57.6325 1.41101 57.6726 1.44651 57.7202C1.41641 57.9023 1.21869 58.2046 1.21099 58.3013C1.17426 58.7742 1.27566 58.7522 1.15395 59.0302C1.28614 58.8321 1.20463 59.1557 1.23105 59.2776C1.32839 59.7304 1.3715 59.1383 1.23189 60.1514C1.29422 60.0197 1.35529 59.9007 1.41734 59.7733C1.41834 59.8949 1.41938 60.0167 1.42037 60.1384C1.28412 60.3187 1.29546 60.9652 1.16525 60.3786C1.12036 61.0821 1.14712 61.3669 1.25044 61.5221C1.27016 61.5516 1.27719 61.6574 1.27799 61.7817C1.30765 61.7585 1.3989 61.7292 1.40988 61.7489C1.50642 61.925 1.33443 62.195 1.27056 62.1018C1.26667 62.1887 1.26242 62.2575 1.26062 62.2818C1.24917 62.4357 1.19341 62.1333 1.17221 62.2579C1.16532 62.299 1.17411 62.7329 1.15024 62.7411C0.997266 62.792 1.11378 62.079 1.01212 63.512C1.15062 63.5479 1.12615 62.8817 1.27204 63.054C1.42876 63.2391 1.21289 63.6116 1.40647 63.6952C1.37425 63.7254 1.34748 63.7386 1.31087 63.7644C1.39026 64.3453 1.22834 64.3515 1.191 64.5284C1.11812 64.8719 1.11421 66.454 1.26734 65.0347C1.27944 65.2426 1.28399 65.4547 1.29448 65.6615C1.0039 65.7061 1.12053 65.5813 1.06715 66.5764C1.05536 66.7956 0.927103 66.8658 1.07672 67.0822C0.928305 67.0516 1.01223 67.7009 0.993636 67.7613C0.872769 68.1483 0.722538 66.7056 0.987068 66.5232C0.88694 66.279 1.02222 66.2811 1.00676 66.0093C0.984427 65.6167 0.958575 65.562 1.06266 65.0971C0.926151 64.6373 0.984449 66.8913 0.810233 65.5237C0.636036 64.1556 0.604263 56.1988 0.59314 54.3426C0.573083 50.9797 0.556066 49.2116 0.591922 46.1913C0.59533 45.8934 0.602288 43.6441 0.760602 44.113C0.78332 44.1804 0.836351 45.1483 0.971501 44.3197C0.894624 44.4878 0.850136 43.9995 0.842577 43.9585C0.671016 43.0179 0.621972 43.5611 0.633544 42.0828ZM2.12328 37.714C2.06865 39.6429 2.19021 38.2265 2.43199 38.6295C2.43494 38.3819 2.43785 38.1352 2.4408 37.8877C2.42482 37.9526 2.40889 38.0166 2.3929 38.0815C2.39289 38.0818 2.39289 38.0821 2.39289 38.0823C2.30303 37.9599 2.21314 37.8365 2.12328 37.714ZM2.57429 6.17746C2.60592 6.25302 2.63762 6.32771 2.66849 6.40954C2.65615 6.66434 2.64399 6.91817 2.63165 7.17297C2.61 7.14237 2.58808 7.11275 2.56643 7.08216C2.5701 6.78062 2.57385 6.48006 2.57429 6.17746ZM1.76482 62.3598C1.67173 62.7198 1.83229 62.6888 1.75491 63.1675C1.87371 63.1099 1.99 63.0457 2.10766 62.9848C2.09348 62.6197 2.04926 62.5364 2.08177 62.1403C2.04334 62.1861 2.00467 62.2329 1.96601 62.2777C1.97357 62.3438 1.98221 62.4141 1.98885 62.4781C1.88156 62.5788 1.87145 61.9452 1.76459 62.3585C1.76466 62.359 1.76474 62.3594 1.76482 62.3598ZM1.77881 66.0583C1.76164 66.2523 1.69677 67.0207 1.74481 67.126C1.90768 67.4832 1.82199 65.3129 1.95513 66.9131C1.9785 66.906 2.00126 66.9135 2.02434 66.9137C2.03515 66.6221 2.04483 66.3314 2.05403 66.0377C1.96198 66.0526 1.87134 66.0413 1.77881 66.0583ZM2.0701 44.6919C2.05459 44.9901 2.11979 46.4128 2.2292 45.9502C2.26123 45.8141 2.11652 45.1778 2.12525 44.9366C2.13088 44.7804 2.2118 44.9563 2.18427 44.6476C2.14778 44.6609 2.10738 44.6689 2.07033 44.6927C2.07025 44.6924 2.07018 44.6921 2.0701 44.6919ZM1.5951 44.1282C1.60699 44.4367 1.62277 44.7495 1.63558 45.0602C1.73163 44.8344 1.67531 44.388 1.80782 44.363C1.81707 44.448 1.82628 44.5321 1.83554 44.6171C1.80602 44.6819 1.77649 44.7457 1.74699 44.8094C1.81642 45.0765 1.85359 44.9154 1.82831 45.4115C2.03097 45.1132 2.13879 45.0585 1.94425 44.2069C2.05127 44.3684 2.4061 44.2205 2.15779 43.7472C2.1117 43.6586 2.07702 44.0264 2.06952 44.0305C1.97618 44.0862 1.9188 43.8815 1.83057 43.9415C1.79066 43.9684 1.78922 44.1929 1.73386 44.2259C1.70686 44.2412 1.63218 44.027 1.5951 44.1282ZM2.07137 43.5177C2.12672 43.6137 2.26311 43.2886 2.23864 43.0051C2.20066 42.5631 2.06743 43.2585 2.07137 43.5177ZM2.57418 6.17578C2.57422 6.17634 2.57425 6.1769 2.57429 6.17746C2.57417 6.17718 2.57405 6.1769 2.57393 6.17662C2.57401 6.17634 2.5741 6.17606 2.57418 6.17578ZM1.85296 65.0581C1.89868 65.2872 1.88864 65.6256 1.96485 65.6013C1.94891 65.7124 1.9332 65.8247 1.91725 65.9358C1.94011 65.9349 1.96303 65.933 1.98565 65.9322C2.00292 65.5977 2.02023 65.2642 2.03773 64.9297C1.97624 64.9711 1.91453 65.0094 1.85296 65.0581ZM1.7666 68.7033C1.75509 69.1238 1.86169 68.7721 1.91077 68.8649C1.95985 68.9577 1.91583 69.332 1.98785 69.2886C1.9929 69.041 1.99806 68.7828 2.00291 68.5321C1.92439 68.5975 1.84461 68.6429 1.76659 68.7041C1.7666 68.7038 1.7666 68.7035 1.7666 68.7033ZM2.27627 29.841C2.25128 30.1261 2.17345 30.009 2.26071 30.5732C2.26071 30.5727 2.26071 30.5723 2.26072 30.5719C2.3302 30.0364 2.39406 29.3469 2.33693 28.7547C2.25041 29.1158 2.31534 29.3924 2.27627 29.841ZM2.00667 61.3641C1.94525 61.243 1.88794 61.8036 1.9449 61.9279C2.03709 62.1291 2.09995 61.5485 2.00667 61.3641ZM1.82735 18.3112C1.63885 17.8754 1.41535 18.6959 1.50082 19.5579C1.50831 19.6325 1.57457 19.077 1.61063 19.2421C1.61418 19.2588 1.60682 19.564 1.6329 19.6397C1.65904 19.7155 1.72203 19.6367 1.74704 19.7608C1.79073 19.9784 1.70165 20.4686 1.76011 20.6317C1.76795 20.6532 1.854 20.3495 1.85734 20.3304C1.91057 20.0183 1.80444 19.716 1.80416 19.6677C1.80269 19.419 1.88769 19.4574 1.90833 19.3946C1.94714 19.2764 1.91131 19.0673 1.91425 19.0527C1.99253 18.676 1.96327 19.538 1.99301 19.6547C2.0732 19.9691 2.15305 19.6795 2.1931 20.4321C2.19687 20.5035 2.18408 21.3585 2.28944 20.2819C2.46942 22.3994 2.41242 19.2198 2.3717 18.8743C2.35281 18.715 2.26927 18.9551 2.23353 18.8583C2.1518 18.6372 2.14044 18.2616 2.0221 18.2941C1.77327 18.3643 1.9314 18.8589 1.88655 19.1985C1.83299 19.1623 1.78055 19.1482 1.72843 19.0816C1.79842 19.184 1.84155 18.3428 1.82784 18.3112C1.82768 18.3112 1.82752 18.3112 1.82735 18.3112ZM2.06222 23.6698C1.98302 24.1443 2.13998 24.1121 2.04644 24.5467C2.18361 24.9319 2.18106 24.1745 2.18979 24.0864C2.22891 23.6839 2.38178 23.6946 2.33847 23.282C2.24667 23.4228 2.15417 23.5374 2.06222 23.6698ZM2.16437 19.5367C2.2408 19.8553 2.24463 19.2865 2.26 19.2635C2.42317 19.0138 2.37642 20.7167 2.16437 19.5367ZM1.73809 46.5404C1.73126 46.7018 1.80814 46.6 1.82928 46.7426C1.8506 46.8855 1.78117 47.3725 1.82854 47.3608C1.87601 47.3486 2.00695 46.4561 2.02539 47.3533C2.05225 47.3232 2.07199 47.3336 2.09614 47.3191C2.09908 47.0726 2.10251 46.8238 2.10545 46.5773C2.02771 46.7119 1.94596 46.8498 1.87083 46.9793C1.8112 46.8402 1.89 46.7631 1.89007 46.7558C1.88999 46.7558 1.88991 46.7558 1.88983 46.7558C1.88605 46.4977 1.75332 46.1778 1.73809 46.5404ZM2.09207 33.8285C1.90237 33.7786 2.11126 34.1613 2.1334 34.3178C2.15546 34.4743 2.08312 34.6885 2.16567 34.6085C2.22442 34.3562 2.11324 33.834 2.09182 33.8285C2.09191 33.8285 2.09199 33.8285 2.09207 33.8285ZM2.03912 26.2517C2.08165 26.6505 2.13165 26.5876 2.07082 27.0745C2.11695 27.056 2.16409 27.0376 2.20952 27.0191C2.21397 26.632 2.08031 26.658 2.13801 26.2106C2.14754 26.1373 2.25267 26.2955 2.22143 25.9638C2.16368 26.0597 2.09966 26.1568 2.03912 26.2517ZM2.19157 28.2275C2.18871 27.7701 1.82012 27.4039 1.9802 28.2478C2.00413 28.3729 2.19381 28.5716 2.19157 28.2275ZM1.76705 42.321C1.74926 43.099 1.81731 42.2156 1.87629 42.0136C1.90554 43.8254 1.86251 41.8089 2.05423 41.6299C2.00212 41.4081 1.8821 40.9928 1.84477 41.4526C1.82926 41.6445 1.8865 41.5749 1.88616 41.5865C1.86894 41.9399 1.77674 41.8962 1.76705 42.321ZM2.06058 22.8439C2.06311 22.8733 2.12773 22.8279 2.13971 22.9214C2.1516 23.015 2.10474 23.2262 2.14395 23.2475C2.1834 23.2687 2.218 22.8446 2.1903 22.7141C2.16232 22.5838 2.03827 22.5782 2.06058 22.8439ZM1.87523 25.8284C1.9179 26.2176 2.16019 25.5841 2.15985 25.4995C2.15424 24.7566 1.94992 25.8512 1.87523 25.8284ZM1.38176 40.5105C1.49338 41.4495 1.70839 40.7653 1.83877 40.1789C1.81406 40.1011 1.78933 40.0213 1.76485 39.9445C1.91608 40.2984 2.06312 40.9176 1.941 39.542C1.89782 40.2939 1.86205 39.6636 1.85339 39.6587C1.57046 39.5732 1.69207 40.6887 1.38177 40.5097C1.38176 40.5099 1.38176 40.5102 1.38176 40.5105ZM2.13969 21.5802C2.14246 21.1719 2.1031 20.1103 1.97497 20.6043C2.02986 20.9299 2.0848 21.2545 2.13969 21.5802ZM1.25877 55.8657C1.18505 56.1987 1.18346 56.5062 1.18438 56.9175C1.29062 56.5481 1.30023 56.7916 1.32429 56.9167C1.36049 57.1064 1.36156 56.6476 1.3685 56.6464C1.46616 56.6557 1.47868 56.9484 1.48241 56.2823C1.51496 56.4473 1.54779 56.6101 1.5801 56.7751C1.58916 56.2675 1.65401 56.1485 1.73485 55.8272C1.54165 56.1381 1.66457 55.7276 1.57325 55.3532C1.52753 55.1664 1.29646 55.6963 1.25876 55.867C1.25876 55.8665 1.25876 55.8661 1.25877 55.8657ZM1.33474 41.4795C1.36815 41.5763 1.41374 41.665 1.45208 41.7588C1.45489 41.8606 1.45724 41.9625 1.46004 42.0643C1.42961 42.0767 1.3978 42.0869 1.36852 42.1013C1.35847 42.2353 1.40116 42.1834 1.40476 42.2233C1.4046 42.2233 1.40444 42.2233 1.40427 42.2233C1.45504 42.7954 1.44662 43.0293 1.34881 43.4763C1.44171 43.4771 1.5346 43.478 1.62749 43.4788C1.61955 43.3781 1.61183 43.2763 1.60412 43.1756C1.55469 43.1217 1.50524 43.0675 1.45581 43.0136C1.4844 42.8974 1.51278 42.7822 1.54137 42.666C1.52427 42.5726 1.5064 42.4603 1.48965 42.3793C1.75351 41.917 1.56753 42.9715 1.67522 42.982C1.74445 42.9889 1.75109 41.9252 1.70466 41.7716C1.69786 41.7495 1.50243 41.9776 1.6067 41.5894C1.62312 41.5287 2.04159 41.5111 1.70672 41.0884C1.65922 41.0281 1.39747 41.2346 1.33474 41.4795ZM1.16475 45.3404C1.43776 44.7449 1.13476 46.9493 1.3636 45.999C1.48406 46.2717 1.48292 46.2213 1.59454 45.9486C1.60454 45.9246 1.6366 46.114 1.64103 46.098C1.70355 45.8426 1.67444 45.5339 1.78387 45.5328C1.77867 45.4635 1.77408 45.3984 1.76888 45.3291C1.66316 45.6165 1.59804 45.1574 1.51265 44.9793C1.47397 44.8982 1.46013 45.0837 1.42626 45.0154C1.41389 44.9902 1.44139 44.7312 1.40538 44.7202C1.32393 44.6975 1.2121 44.8593 1.1494 45.1346C1.14932 45.1346 1.14924 45.1346 1.14916 45.1346C1.15389 45.2038 1.15978 45.2712 1.16475 45.3404ZM1.50322 32.5617C1.65205 32.4613 1.69809 32.0538 1.76329 32.8381C1.79277 32.7996 1.82203 32.7599 1.85151 32.7214C1.85015 32.5892 1.84876 32.4612 1.84765 32.3269C1.41557 31.9201 1.914 31.1893 1.60067 31.6574C1.56661 31.7085 1.6013 32.0223 1.51289 31.712C1.51281 31.7124 1.51272 31.7129 1.51264 31.7133C1.53671 32.1456 1.58862 32.2006 1.50322 32.5617ZM1.58007 35.4551C1.88222 36.4546 1.76623 34.0794 1.68004 34.4753C1.67225 34.5109 1.72983 35.5341 1.58007 35.4551ZM1.38191 27.4551C1.37248 27.9019 1.54012 27.933 1.601 27.8885C1.66206 27.844 1.60358 27.534 1.6135 27.4942C1.64617 27.3644 1.66447 27.6405 1.70916 27.472C1.72369 27.4162 1.79062 26.6384 1.78372 26.6027C1.74535 26.4043 1.60417 26.6925 1.58883 26.6358C1.53851 26.4507 1.61286 26.2006 1.53969 26.1464C1.38355 26.0296 1.5443 26.4985 1.54627 26.5775C1.55157 26.8157 1.46327 26.7941 1.44392 26.9723C1.4246 27.1503 1.45386 27.2671 1.44616 27.4242C1.44359 27.4765 1.38267 27.4325 1.38191 27.4551ZM1.72308 28.9358C1.60021 28.468 1.45164 29.603 1.48018 29.7381C1.56499 30.1355 1.7817 29.1598 1.72308 28.9358ZM1.58215 43.8469C1.49389 43.4192 1.41027 44.4129 1.44477 44.6975C1.48354 44.6451 1.61254 43.994 1.58215 43.8469ZM1.38461 40.2503C1.40974 40.643 1.62206 40.1245 1.62177 39.7972C1.48709 39.604 1.51249 39.7849 1.50495 39.9988C1.49735 40.2125 1.36504 39.944 1.38461 40.2503ZM1.57769 22.6099C1.57476 22.6946 1.67512 24.06 1.72911 23.2765C1.73316 23.2167 1.72198 22.2615 1.70164 22.1889C1.66051 22.0429 1.58574 22.3918 1.57769 22.6099ZM1.20019 38.3665C1.31632 38.5753 1.31287 38.7796 1.45317 38.59C1.45318 38.5897 1.45318 38.5894 1.45318 38.5891C1.49084 39.1151 1.20715 39.1358 1.21219 39.2492C1.22986 39.6457 1.43504 39.272 1.49903 39.5212C1.44201 38.9426 1.57654 39.1096 1.58917 38.6701C1.59193 38.5715 1.51428 38.1762 1.46418 38.118C1.41406 38.0599 1.26042 38.2601 1.20019 38.3665ZM1.5658 20.6824C1.51639 21.1425 1.70383 21.5659 1.73997 20.9273C1.75773 20.6159 1.59588 20.4015 1.5658 20.6824ZM1.09945 66.7164C1.15024 66.6466 1.20084 66.5747 1.25121 66.4996C1.26179 66.6696 1.27262 66.8398 1.28344 67.0098C1.2688 66.8753 1.2544 66.7407 1.24 66.6053C1.2196 66.924 1.12704 67.069 1.09944 66.7173C1.09945 66.717 1.09945 66.7167 1.09945 66.7164ZM0.958024 78.0705C0.908435 78.2128 1.05542 78.4953 1.06741 78.4597C1.15677 78.192 1.02678 77.8731 0.958024 78.0705ZM1.12221 44.4734C1.09647 45.0037 1.34292 44.6411 1.36254 44.3161C1.31424 44.5146 1.13684 44.1725 1.12221 44.4734ZM1.00616 74.0775C1.0275 74.0301 1.04884 73.9823 1.07026 73.9292C1.03967 74.0967 1.01986 74.1256 1.00616 74.0775ZM1.36101 22.8249C1.34162 22.9057 1.32076 23.5045 1.34311 23.5856C1.3901 23.7539 1.52859 23.2881 1.4898 23.0128C1.48564 22.9824 1.3804 22.7445 1.361 22.8262C1.361 22.8258 1.361 22.8254 1.36101 22.8249ZM0.999793 67.4331C1.00213 67.4322 1.00434 67.4328 1.00637 67.4345C1.00421 67.4338 1.00196 67.434 0.999793 67.4331ZM0.547658 89.9891C0.551459 89.9859 0.555218 89.9842 0.558808 89.9846C0.555268 89.9858 0.551533 89.9883 0.547658 89.9891ZM1.1162 27.0469C0.882726 27.2441 1.00176 27.7048 1.11961 27.3428C1.12582 27.3225 1.1153 27.0952 1.1162 27.0469Z" fill="#419DDF"/>
</svg>
