<svg width="1920" height="335" viewBox="0 0 1920 335" fill="none" xmlns="http://www.w3.org/2000/svg">
<g clip-path="url(#clip0_1767_19910)">
<path d="M704 203.038C717.298 186.482 763.563 156.604 842.239 169.54" stroke="#333333" stroke-width="3" stroke-linecap="round"/>
<path d="M894.627 170.757L892.074 170.272C891.874 167.192 890.813 164.23 889.013 161.723C887.213 159.216 884.746 157.263 881.892 156.088C879.038 154.913 875.911 154.561 872.868 155.074C869.824 155.587 866.985 156.943 864.674 158.989C862.362 161.035 860.671 163.687 859.792 166.646C858.913 169.605 858.882 172.751 859.702 175.727C860.521 178.703 862.159 181.389 864.429 183.48C866.699 185.571 869.51 186.984 872.543 187.558L890.78 191.02C893.467 191.53 896.247 190.952 898.507 189.413C900.768 187.874 902.325 185.499 902.835 182.812C903.345 180.125 902.767 177.346 901.228 175.085C899.689 172.824 897.314 171.267 894.627 170.757Z" fill="#FF7A59" stroke="#333333" stroke-width="3" stroke-linecap="round" stroke-linejoin="round"/>
<path opacity="0.4" d="M1912.47 143.25H1901.24C1897.91 130.39 1891.03 118.719 1881.37 109.564C1871.71 100.409 1859.67 94.1357 1846.62 91.458C1833.56 88.7802 1820.02 89.8051 1807.52 94.4161C1795.02 99.0272 1784.06 107.039 1775.91 117.543C1767.75 128.046 1762.71 140.618 1761.36 153.832C1760.02 167.046 1762.42 180.371 1768.29 192.293C1774.17 204.215 1783.28 214.256 1794.6 221.275C1805.91 228.294 1818.98 232.01 1832.31 232H1912.47C1924.28 232 1935.6 227.325 1943.96 219.003C1952.31 210.681 1957 199.394 1957 187.625C1957 175.856 1952.31 164.569 1943.96 156.247C1935.6 147.925 1924.28 143.25 1912.47 143.25Z" fill="#FFA658"/>
<path opacity="0.4" d="M1465.73 254.625H1460.12C1458.46 248.195 1455.01 242.36 1450.19 237.782C1445.36 233.204 1439.34 230.068 1432.81 228.729C1426.28 227.39 1419.51 227.903 1413.26 230.208C1407.01 232.514 1401.53 236.52 1397.45 241.771C1393.37 247.023 1390.85 253.309 1390.18 259.916C1389.51 266.523 1390.71 273.185 1393.65 279.146C1396.58 285.107 1401.14 290.128 1406.8 293.638C1412.46 297.147 1418.99 299.005 1425.65 299H1465.73C1471.64 299 1477.3 296.662 1481.48 292.501C1485.65 288.34 1488 282.697 1488 276.812C1488 270.928 1485.65 265.285 1481.48 261.124C1477.3 256.963 1471.64 254.625 1465.73 254.625Z" fill="#FF9F4B"/>
<path opacity="0.4" d="M1173.56 110.75H1157.07C1152.18 91.7318 1142.06 74.4723 1127.87 60.9327C1113.68 47.393 1095.99 38.1161 1076.81 34.1561C1057.62 30.1961 1037.72 31.7118 1019.35 38.5309C1000.98 45.35 984.891 57.1991 972.903 72.7319C960.915 88.2646 953.512 106.858 951.535 126.4C949.558 145.941 953.086 165.647 961.718 183.278C970.35 200.909 983.74 215.759 1000.37 226.139C1016.99 236.52 1036.19 242.015 1055.78 242H1173.56C1190.92 242 1207.56 235.086 1219.83 222.779C1232.11 210.472 1239 193.78 1239 176.375C1239 158.97 1232.11 142.278 1219.83 129.971C1207.56 117.664 1190.92 110.75 1173.56 110.75Z" fill="#FFBB80"/>
<path opacity="0.4" d="M135.154 172.5H119.064C114.287 154.025 104.416 137.259 90.5717 124.106C76.7278 110.953 59.4666 101.941 40.7495 98.0945C22.0324 94.2477 2.60995 95.72 -15.311 102.344C-33.2319 108.969 -48.9326 120.479 -60.6291 135.568C-72.3256 150.657 -79.5488 168.719 -81.478 187.702C-83.4072 206.686 -79.9651 225.829 -71.5427 242.956C-63.1203 260.083 -50.0553 274.509 -33.8324 284.592C-17.6095 294.676 1.12084 300.014 20.2303 300H135.154C152.087 300 168.326 293.283 180.3 281.328C192.273 269.373 199 253.158 199 236.25C199 219.342 192.273 203.127 180.3 191.172C168.326 179.216 152.087 172.5 135.154 172.5Z" fill="#FFBB80"/>
</g>
<defs>
<clipPath id="clip0_1767_19910">
<rect width="1920" height="335" fill="white"/>
</clipPath>
</defs>
</svg>
