<svg width="1024" height="335" viewBox="0 0 1024 335" fill="none" xmlns="http://www.w3.org/2000/svg">
<g clip-path="url(#clip0_1959_19424)">
<path d="M263 203.038C276.298 186.482 322.563 156.604 401.239 169.54" stroke="#333333" stroke-width="3" stroke-linecap="round"/>
<path d="M456.307 171.701L453.754 171.216C453.553 168.136 452.493 165.174 450.693 162.666C448.893 160.159 446.426 158.207 443.572 157.031C440.718 155.856 437.591 155.505 434.547 156.018C431.504 156.53 428.665 157.887 426.354 159.932C424.042 161.978 422.351 164.631 421.472 167.59C420.593 170.548 420.562 173.694 421.381 176.67C422.201 179.646 423.839 182.332 426.109 184.423C428.379 186.515 431.19 187.927 434.223 188.501L452.46 191.964C455.147 192.474 457.926 191.896 460.187 190.356C462.448 188.817 464.005 186.443 464.515 183.756C465.025 181.069 464.447 178.289 462.908 176.028C461.368 173.768 458.994 172.211 456.307 171.701Z" fill="#FF7A59" stroke="#333333" stroke-width="3" stroke-linecap="round" stroke-linejoin="round"/>
<path opacity="0.4" d="M1027.47 169.25H1016.24C1012.91 156.39 1006.03 144.719 996.37 135.564C986.714 126.409 974.674 120.136 961.619 117.458C948.564 114.78 935.016 115.805 922.516 120.416C910.016 125.027 899.065 133.039 890.906 143.543C882.748 154.046 877.71 166.618 876.364 179.832C875.018 193.046 877.419 206.371 883.294 218.293C889.169 230.215 898.282 240.256 909.597 247.275C920.913 254.294 933.978 258.01 947.307 258H1027.47C1039.28 258 1050.6 253.325 1058.96 245.003C1067.31 236.681 1072 225.394 1072 213.625C1072 201.856 1067.31 190.569 1058.96 182.247C1050.6 173.925 1039.28 169.25 1027.47 169.25Z" fill="#FFA658"/>
<path opacity="0.4" d="M665.733 254.625H660.122C658.456 248.195 655.013 242.36 650.185 237.782C645.357 233.204 639.337 230.068 632.809 228.729C626.282 227.39 619.508 227.903 613.258 230.208C607.008 232.514 601.532 236.52 597.453 241.771C593.374 247.023 590.855 253.309 590.182 259.916C589.509 266.523 590.71 273.185 593.647 279.146C596.584 285.107 601.141 290.128 606.799 293.638C612.456 297.147 618.989 299.005 625.653 299H665.733C671.639 299 677.302 296.662 681.478 292.501C685.654 288.34 688 282.697 688 276.812C688 270.928 685.654 265.285 681.478 261.124C677.302 256.963 671.639 254.625 665.733 254.625Z" fill="#FF9F4B"/>
</g>
<defs>
<clipPath id="clip0_1959_19424">
<rect width="1024" height="335" fill="white"/>
</clipPath>
</defs>
</svg>
