<svg width="203" height="52" viewBox="0 0 203 52" fill="none" xmlns="http://www.w3.org/2000/svg">
<path d="M192.627 17.7571L190.074 17.2723C189.874 14.1922 188.813 11.2302 187.013 8.72278C185.213 6.21535 182.746 4.26306 179.892 3.08775C177.038 1.91244 173.911 1.56124 170.868 2.07405C167.824 2.58687 164.985 3.94313 162.674 5.98873C160.362 8.03433 158.671 10.6872 157.792 13.646C156.913 16.6048 156.882 19.7508 157.702 22.7266C158.521 25.7023 160.159 28.3885 162.429 30.4798C164.699 32.5712 167.51 33.9839 170.543 34.5574L188.78 38.02C191.467 38.5302 194.247 37.9521 196.507 36.4128C198.768 34.8736 200.325 32.4993 200.835 29.8122C201.345 27.1252 200.767 24.3455 199.228 22.0847C197.689 19.824 195.314 18.2672 192.627 17.7571Z" fill="#FF7A59"/>
<path d="M2 50.0382C15.2981 33.482 61.5632 3.60375 140.239 16.5399M192.627 17.7571L190.074 17.2723C189.874 14.1922 188.813 11.2302 187.013 8.72278C185.213 6.21535 182.746 4.26306 179.892 3.08775C177.038 1.91244 173.911 1.56124 170.868 2.07405C167.824 2.58687 164.985 3.94313 162.674 5.98873C160.362 8.03433 158.671 10.6872 157.792 13.646C156.913 16.6048 156.882 19.7508 157.702 22.7266C158.521 25.7023 160.159 28.3885 162.429 30.4798C164.699 32.5712 167.51 33.9839 170.543 34.5574L188.78 38.02C191.467 38.5302 194.247 37.9521 196.507 36.4128C198.768 34.8736 200.325 32.4993 200.835 29.8122C201.345 27.1252 200.767 24.3455 199.228 22.0847C197.689 19.824 195.314 18.2672 192.627 17.7571Z" stroke="#333333" stroke-width="3" stroke-linecap="round" stroke-linejoin="round"/>
</svg>
