<svg width="402" height="200" viewBox="0 0 402 200" fill="none" xmlns="http://www.w3.org/2000/svg">
<g clip-path="url(#clip0_1959_19431)">
<path opacity="0.4" d="M378.374 134.5H368.64C365.75 123.27 359.778 113.079 351.403 105.084C343.027 97.0892 332.585 91.6114 321.261 89.2731C309.938 86.9348 298.188 87.8298 287.346 91.8563C276.504 95.8829 267.005 102.879 259.929 112.051C252.853 121.223 248.483 132.202 247.316 143.741C246.149 155.28 248.231 166.915 253.326 177.326C258.422 187.737 266.326 196.505 276.141 202.635C285.955 208.764 297.287 212.009 308.848 212H378.374C388.618 212 398.443 207.917 405.687 200.65C412.93 193.383 417 183.527 417 173.25C417 162.973 412.93 153.117 405.687 145.85C398.443 138.583 388.618 134.5 378.374 134.5Z" fill="#FFC28C"/>
<path d="M239 110.52C244.974 103.083 265.755 89.6618 301.096 95.4726" stroke="#333333" stroke-width="1.5" stroke-linecap="round"/>
<path d="M336.955 97.1586L335.158 96.8175C335.017 94.6502 334.271 92.566 333.004 90.8016C331.738 89.0373 330.002 87.6636 327.994 86.8366C325.985 86.0096 323.785 85.7625 321.644 86.1233C319.502 86.4842 317.505 87.4385 315.878 88.8779C314.252 90.3172 313.062 92.1839 312.443 94.2659C311.825 96.3478 311.803 98.5615 312.379 100.655C312.956 102.749 314.109 104.639 315.706 106.111C317.303 107.582 319.281 108.576 321.415 108.98L334.248 111.416C336.138 111.775 338.094 111.369 339.685 110.286C341.276 109.202 342.371 107.532 342.73 105.641C343.089 103.75 342.682 101.794 341.599 100.204C340.516 98.6129 338.845 97.5175 336.955 97.1586Z" fill="#FF7A59" stroke="#333333" stroke-width="1.5" stroke-linecap="round" stroke-linejoin="round"/>
<path opacity="0.4" d="M60.234 127.625H53.993C52.1398 120.471 48.3107 113.978 42.9406 108.884C37.5706 103.791 30.8749 100.301 23.6146 98.8111C16.3542 97.3214 8.82023 97.8916 1.8687 100.457C-5.08282 103.022 -11.1731 107.48 -15.7102 113.323C-20.2473 119.166 -23.0492 126.161 -23.7975 133.512C-24.5459 140.864 -23.2107 148.277 -19.9436 154.909C-16.6765 161.542 -11.6086 167.128 -5.31578 171.033C0.977094 174.938 8.2426 177.006 15.6552 177H60.234C66.8023 177 73.1017 174.399 77.7462 169.769C82.3907 165.139 85 158.86 85 152.312C85 145.765 82.3907 139.486 77.7462 134.856C73.1017 130.226 66.8023 127.625 60.234 127.625Z" fill="#FF9F4B"/>
</g>
<defs>
<clipPath id="clip0_1959_19431">
<rect width="402" height="200" fill="white"/>
</clipPath>
</defs>
</svg>
