<svg width="1024" height="335" viewBox="0 0 1024 335" fill="none" xmlns="http://www.w3.org/2000/svg">
<g clip-path="url(#clip0_1958_19392)">
<path d="M413.91 148.769C415.215 146.29 418.9 146.773 419.522 149.504L422.622 163.099C422.818 163.958 423.379 164.688 424.158 165.098L436.496 171.595C438.975 172.9 438.492 176.585 435.761 177.208L422.166 180.307C421.307 180.503 420.576 181.064 420.166 181.843L413.669 194.181C412.364 196.66 408.68 196.177 408.057 193.446L404.958 179.851C404.762 178.992 404.201 178.262 403.421 177.851L391.083 171.355C388.605 170.049 389.087 166.365 391.819 165.742L405.414 162.643C406.272 162.447 407.003 161.886 407.413 161.107L413.91 148.769Z" fill="#FF8000" stroke="#333333" stroke-width="3" stroke-linejoin="round"/>
<path d="M232 203.038C245.298 186.482 291.563 156.604 370.239 169.54" stroke="#333333" stroke-width="3" stroke-linecap="round"/>
<path d="M806.894 140.032C809.85 131.989 821.15 131.989 824.106 140.032L838.821 180.065C839.75 182.593 841.731 184.587 844.243 185.523L884.008 200.336C891.997 203.312 891.997 214.688 884.008 217.664L844.243 232.477C841.731 233.413 839.75 235.407 838.821 237.935L824.106 277.968C821.15 286.011 809.85 286.011 806.894 277.968L792.179 237.935C791.25 235.407 789.269 233.413 786.757 232.477L746.992 217.664C739.003 214.688 739.003 203.312 746.992 200.336L786.757 185.523C789.269 184.587 791.25 182.593 792.179 180.065L806.894 140.032Z" fill="#FFDF92"/>
<path d="M522.937 244.177C524.504 239.941 530.496 239.941 532.063 244.177L539.865 265.261C540.358 266.592 541.408 267.642 542.739 268.135L563.823 275.937C568.059 277.504 568.059 283.496 563.823 285.063L542.739 292.865C541.408 293.358 540.358 294.408 539.865 295.739L532.063 316.823C530.496 321.059 524.504 321.059 522.937 316.823L515.135 295.739C514.642 294.408 513.592 293.358 512.261 292.865L491.177 285.063C486.941 283.496 486.941 277.504 491.177 275.937L512.261 268.135C513.592 267.642 514.642 266.592 515.135 265.261L522.937 244.177Z" fill="#FFD587"/>
<path d="M1018.07 69.8258C1020.45 63.3914 1029.55 63.3914 1031.93 69.8258L1043.78 101.852C1044.53 103.875 1046.13 105.47 1048.15 106.218L1080.17 118.069C1086.61 120.45 1086.61 129.55 1080.17 131.931L1048.15 143.782C1046.13 144.53 1044.53 146.125 1043.78 148.148L1031.93 180.174C1029.55 186.609 1020.45 186.609 1018.07 180.174L1006.22 148.148C1005.47 146.125 1003.87 144.53 1001.85 143.782L969.826 131.931C963.391 129.55 963.391 120.45 969.826 118.069L1001.85 106.218C1003.87 105.47 1005.47 103.875 1006.22 101.852L1018.07 69.8258Z" fill="#FFD382"/>
</g>
<defs>
<clipPath id="clip0_1958_19392">
<rect width="1024" height="335" fill="white"/>
</clipPath>
</defs>
</svg>
