<svg width="402" height="200" viewBox="0 0 402 200" fill="none" xmlns="http://www.w3.org/2000/svg">
<g clip-path="url(#clip0_1958_19400)">
<path d="M123.511 91.866C125.912 85.378 135.088 85.378 137.489 91.866L149.438 124.159C150.193 126.199 151.801 127.807 153.841 128.562L186.134 140.511C192.622 142.912 192.622 152.088 186.134 154.489L153.841 166.438C151.801 167.193 150.193 168.801 149.438 170.841L137.489 203.134C135.088 209.622 125.912 209.622 123.511 203.134L111.562 170.841C110.807 168.801 109.199 167.193 107.159 166.438L74.866 154.489C68.378 152.088 68.378 142.912 74.866 140.511L107.159 128.562C109.199 127.807 110.807 126.199 111.562 124.159L123.511 91.866Z" fill="#FFDF92"/>
<path opacity="0.3" d="M117.307 49.4826C117.545 48.8391 118.455 48.8391 118.693 49.4826L119.878 52.6852C119.953 52.8875 120.113 53.047 120.315 53.1218L123.517 54.3069C124.161 54.545 124.161 55.455 123.517 55.6931L120.315 56.8782C120.113 56.953 119.953 57.1125 119.878 57.3148L118.693 60.5174C118.455 61.1609 117.545 61.1609 117.307 60.5174L116.122 57.3148C116.047 57.1125 115.887 56.953 115.685 56.8782L112.483 55.6931C111.839 55.455 111.839 54.545 112.483 54.3069L115.685 53.1218C115.887 53.047 116.047 52.8875 116.122 52.6852L117.307 49.4826Z" fill="#FF8000"/>
<path opacity="0.2" d="M7.84479 14.8043C8.24161 13.7319 9.75839 13.7319 10.1552 14.8043L12.1303 20.1419C12.2551 20.4791 12.5209 20.7449 12.8581 20.8697L18.1957 22.8448C19.2681 23.2416 19.2681 24.7584 18.1957 25.1552L12.8581 27.1303C12.5209 27.2551 12.2551 27.5209 12.1303 27.8581L10.1552 33.1957C9.75839 34.2681 8.24161 34.2681 7.84479 33.1957L5.86968 27.8581C5.74492 27.5209 5.4791 27.2551 5.14194 27.1303L-0.195704 25.1552C-1.2681 24.7584 -1.2681 23.2416 -0.195705 22.8448L5.14194 20.8697C5.4791 20.7449 5.74492 20.4791 5.86968 20.1419L7.84479 14.8043Z" fill="#FF8000"/>
<path opacity="0.3" d="M367.307 26.4826C367.545 25.8391 368.455 25.8391 368.693 26.4826L369.878 29.6852C369.953 29.8875 370.113 30.047 370.315 30.1218L373.517 31.3069C374.161 31.545 374.161 32.455 373.517 32.6931L370.315 33.8782C370.113 33.953 369.953 34.1125 369.878 34.3148L368.693 37.5174C368.455 38.1609 367.545 38.1609 367.307 37.5174L366.122 34.3148C366.047 34.1125 365.887 33.953 365.685 33.8782L362.483 32.6931C361.839 32.455 361.839 31.545 362.483 31.3069L365.685 30.1218C365.887 30.047 366.047 29.8875 366.122 29.6852L367.307 26.4826Z" fill="#FF8000"/>
<path opacity="0.2" d="M234.634 13.6032C234.931 12.7989 236.069 12.7989 236.366 13.6032L237.848 17.6065C237.941 17.8593 238.141 18.0587 238.394 18.1523L242.397 19.6336C243.201 19.9312 243.201 21.0688 242.397 21.3664L238.394 22.8477C238.141 22.9413 237.941 23.1407 237.848 23.3935L236.366 27.3968C236.069 28.2011 234.931 28.2011 234.634 27.3968L233.152 23.3935C233.059 23.1407 232.859 22.9413 232.606 22.8477L228.603 21.3664C227.799 21.0688 227.799 19.9312 228.603 19.6336L232.606 18.1523C232.859 18.0587 233.059 17.8593 233.152 17.6065L234.634 13.6032Z" fill="#FF8000"/>
<path d="M320.712 86.142C321.298 85.0286 322.954 85.2454 323.233 86.4723L324.625 92.579C324.713 92.9648 324.965 93.2928 325.315 93.4772L330.858 96.3954C331.971 96.9817 331.754 98.6368 330.527 98.9165L324.421 100.309C324.035 100.397 323.707 100.649 323.522 100.999L320.604 106.541C320.018 107.654 318.363 107.437 318.083 106.211L316.691 100.104C316.603 99.7181 316.351 99.39 316.001 99.2057L310.459 96.2874C309.345 95.7011 309.562 94.046 310.789 93.7663L316.896 92.3741C317.281 92.2862 317.61 92.0341 317.794 91.6841L320.712 86.142Z" fill="#FF8000" stroke="#333333" stroke-width="1.5" stroke-linejoin="round"/>
<path d="M239 110.52C244.974 103.083 265.755 89.6618 301.096 95.4726" stroke="#333333" stroke-width="1.5" stroke-linecap="round"/>
<path d="M-4.94756 73.0965C-3.41979 68.9678 2.41979 68.9678 3.94756 73.0965L11.5517 93.6465C12.032 94.9445 13.0555 95.968 14.3535 96.4483L34.9035 104.052C39.0322 105.58 39.0322 111.42 34.9035 112.948L14.3535 120.552C13.0555 121.032 12.032 122.055 11.5517 123.354L3.94756 143.903C2.4198 148.032 -3.41979 148.032 -4.94756 143.903L-12.5517 123.354C-13.032 122.055 -14.0555 121.032 -15.3535 120.552L-35.9035 112.948C-40.0322 111.42 -40.0322 105.58 -35.9035 104.052L-15.3535 96.4483C-14.0555 95.968 -13.032 94.9445 -12.5517 93.6465L-4.94756 73.0965Z" fill="#FFD587"/>
<path d="M382.303 102.574C383.573 99.1421 388.427 99.1421 389.697 102.574L396.017 119.654C396.416 120.733 397.267 121.584 398.346 121.983L415.426 128.303C418.858 129.573 418.858 134.427 415.426 135.697L398.346 142.017C397.267 142.416 396.416 143.267 396.017 144.346L389.697 161.426C388.427 164.858 383.573 164.858 382.303 161.426L375.983 144.346C375.584 143.267 374.733 142.416 373.654 142.017L356.574 135.697C353.142 134.427 353.142 129.573 356.574 128.303L373.654 121.983C374.733 121.584 375.584 120.733 375.983 119.654L382.303 102.574Z" fill="#FFD382"/>
</g>
<defs>
<clipPath id="clip0_1958_19400">
<rect width="402" height="200" fill="white"/>
</clipPath>
</defs>
</svg>
