<svg width="1920" height="335" viewBox="0 0 1920 335" fill="none" xmlns="http://www.w3.org/2000/svg">
<g clip-path="url(#clip0_1959_19413)">
<path d="M490.383 213.719H497.648L505.5 232.898H505.812L513.664 213.719H520.93V242H515.227V223.484H514.992L507.609 241.883H503.703L496.32 223.406H496.086V242H490.383V213.719ZM523.977 213.719H530.578L537.102 225.906H537.375L543.859 213.719H550.461L540.148 231.922V242H534.289V231.922L523.977 213.719ZM562.727 242V213.719H573.82C580.266 213.719 583.938 217.664 583.938 223.25C583.938 228.914 580.188 232.781 573.664 232.781H568.586V242H562.727ZM568.586 228.055H572.727C576.203 228.055 577.883 226.102 577.883 223.25C577.883 220.438 576.203 218.523 572.727 218.523H568.586V228.055ZM613.547 227.859C613.547 237.078 607.805 242.391 600.344 242.391C592.805 242.391 587.102 237.039 587.102 227.859C587.102 218.641 592.805 213.328 600.344 213.328C607.805 213.328 613.547 218.641 613.547 227.859ZM607.57 227.859C607.57 221.805 604.719 218.523 600.344 218.523C595.969 218.523 593.078 221.805 593.078 227.859C593.078 233.914 595.969 237.195 600.344 237.195C604.719 237.195 607.57 233.914 607.57 227.859ZM617.766 242V213.719H628.859C635.305 213.719 638.977 217.664 638.977 223.25C638.977 228.914 635.227 232.781 628.703 232.781H623.625V242H617.766ZM623.625 228.055H627.766C631.242 228.055 632.922 226.102 632.922 223.25C632.922 220.438 631.242 218.523 627.766 218.523H623.625V228.055Z" fill="#333333"/>
<path d="M856.911 148.769C858.216 146.29 861.901 146.773 862.523 149.504L865.623 163.099C865.818 163.958 866.38 164.688 867.159 165.098L879.497 171.595C881.976 172.9 881.493 176.585 878.762 177.208L865.167 180.307C864.308 180.503 863.577 181.064 863.167 181.843L856.67 194.181C855.365 196.66 851.681 196.177 851.058 193.446L847.958 179.851C847.763 178.992 847.202 178.262 846.422 177.851L834.084 171.355C831.606 170.049 832.088 166.365 834.82 165.742L848.415 162.643C849.273 162.447 850.004 161.886 850.414 161.107L856.911 148.769Z" fill="#FF8000" stroke="#333333" stroke-width="3" stroke-linejoin="round"/>
<path d="M675 203.038C688.298 186.482 734.563 156.604 813.239 169.54" stroke="#333333" stroke-width="3" stroke-linecap="round"/>
<path d="M1369.83 190.078C1373.33 180.641 1386.67 180.641 1390.17 190.078L1407.55 237.049C1408.64 240.016 1410.98 242.355 1413.95 243.453L1460.92 260.834C1470.36 264.326 1470.36 277.674 1460.92 281.166L1413.95 298.547C1410.98 299.645 1408.64 301.984 1407.55 304.951L1390.17 351.922C1386.67 361.359 1373.33 361.359 1369.83 351.922L1352.45 304.951C1351.36 301.984 1349.02 299.645 1346.05 298.547L1299.08 281.166C1289.64 277.674 1289.64 264.326 1299.08 260.834L1346.05 243.453C1349.02 242.355 1351.36 240.016 1352.45 237.049L1369.83 190.078Z" fill="#FFDF92"/>
<path d="M1907.41 69.7668C1911.73 58.0777 1928.27 58.0777 1932.59 69.7668L1954.12 127.947C1955.48 131.622 1958.38 134.52 1962.05 135.88L2020.23 157.408C2031.92 161.734 2031.92 178.266 2020.23 182.592L1962.05 204.12C1958.38 205.48 1955.48 208.378 1954.12 212.053L1932.59 270.233C1928.27 281.922 1911.73 281.922 1907.41 270.233L1885.88 212.053C1884.52 208.378 1881.62 205.48 1877.95 204.12L1819.77 182.592C1808.08 178.266 1808.08 161.734 1819.77 157.408L1877.95 135.88C1881.62 134.52 1884.52 131.622 1885.88 127.947L1907.41 69.7668Z" fill="#FFD382"/>
<path d="M1013.13 199.74C1014.97 194.753 1022.03 194.753 1023.87 199.74L1033.06 224.56C1033.64 226.128 1034.87 227.364 1036.44 227.944L1061.26 237.128C1066.25 238.973 1066.25 246.027 1061.26 247.872L1036.44 257.056C1034.87 257.636 1033.64 258.872 1033.06 260.44L1023.87 285.26C1022.03 290.247 1014.97 290.247 1013.13 285.26L1003.94 260.44C1003.36 258.872 1002.13 257.636 1000.56 257.056L975.74 247.872C970.753 246.027 970.753 238.973 975.74 237.128L1000.56 227.944C1002.13 227.364 1003.36 226.128 1003.94 224.56L1013.13 199.74Z" fill="#FFCA72"/>
<path d="M204.834 -16.9222C208.326 -26.3593 221.674 -26.3593 225.166 -16.9222L242.547 30.0491C243.645 33.0161 245.984 35.3553 248.951 36.4532L295.922 53.8342C305.359 57.3262 305.359 70.6738 295.922 74.1658L248.951 91.5468C245.984 92.6447 243.645 94.984 242.547 97.9509L225.166 144.922C221.674 154.359 208.326 154.359 204.834 144.922L187.453 97.9509C186.355 94.984 184.016 92.6447 181.049 91.5468L134.078 74.1659C124.641 70.6738 124.641 57.3262 134.078 53.8342L181.049 36.4532C184.016 35.3553 186.355 33.0161 187.453 30.0491L204.834 -16.9222Z" fill="#FFD382"/>
<path d="M360.491 248.228C363.07 241.257 372.93 241.257 375.509 248.228L388.347 282.923C389.158 285.114 390.886 286.842 393.077 287.653L427.772 300.491C434.743 303.07 434.743 312.93 427.772 315.509L393.077 328.347C390.886 329.158 389.158 330.886 388.347 333.077L375.509 367.772C372.93 374.743 363.07 374.743 360.491 367.772L347.653 333.077C346.842 330.886 345.114 329.158 342.923 328.347L308.228 315.509C301.257 312.93 301.257 303.07 308.228 300.491L342.923 287.653C345.114 286.842 346.842 285.114 347.653 282.923L360.491 248.228Z" fill="#FFD891"/>
<path d="M1633.07 68.8258C1635.45 62.3914 1644.55 62.3914 1646.93 68.8258L1658.78 100.852C1659.53 102.875 1661.13 104.47 1663.15 105.218L1695.17 117.069C1701.61 119.45 1701.61 128.55 1695.17 130.931L1663.15 142.782C1661.13 143.53 1659.53 145.125 1658.78 147.148L1646.93 179.174C1644.55 185.609 1635.45 185.609 1633.07 179.174L1621.22 147.148C1620.47 145.125 1618.87 143.53 1616.85 142.782L1584.83 130.931C1578.39 128.55 1578.39 119.45 1584.83 117.069L1616.85 105.218C1618.87 104.47 1620.47 102.875 1621.22 100.852L1633.07 68.8258Z" fill="#FFD382"/>
</g>
<defs>
<clipPath id="clip0_1959_19413">
<rect width="1920" height="335" fill="white"/>
</clipPath>
</defs>
</svg>
