<svg width="210" height="60" viewBox="0 0 210 60" fill="none" xmlns="http://www.w3.org/2000/svg">
<path d="M2 57.8824C15.2981 41.3263 61.5632 11.448 140.239 24.3842M175.415 17.4869L161.82 20.5862C159.089 21.2089 158.606 24.8935 161.085 26.1988L173.423 32.6955C174.202 33.1058 174.763 33.8362 174.959 34.6949L178.058 48.2899C178.681 51.0213 182.366 51.504 183.671 49.0252L190.167 36.6874C190.578 35.908 191.308 35.3469 192.167 35.1511L205.762 32.0518C208.493 31.4291 208.976 27.7445 206.497 26.4392L194.159 19.9425C193.38 19.5321 192.819 18.8018 192.623 17.943L189.524 4.34802C188.901 1.61663 185.217 1.13392 183.911 3.61274L177.415 15.9506C177.004 16.7299 176.274 17.2911 175.415 17.4869Z" stroke="#333333" stroke-width="3" stroke-linecap="round" stroke-linejoin="round"/>
</svg>
