<svg width="364" height="26" viewBox="0 0 364 26" fill="none" xmlns="http://www.w3.org/2000/svg">
<path d="M220.663 0.0161558C234.367 0.011023 249.37 -0.0198216 263.129 0.0203062C264.818 0.0252089 264.702 0.0923739 265.176 0.101239C266.472 0.125701 267.252 0.0464747 268.196 0.0522887C272.786 0.0802836 277.08 0.0916808 281.583 0.117108C286.222 0.143238 284.028 0.352016 285.64 0.402876C288.789 0.502481 286.11 0.230234 287.348 0.16911C290.959 0.185441 294.601 0.214934 298.218 0.244794C297.335 0.270214 296.452 0.295093 295.559 0.318647C297.135 0.324249 299.391 0.36627 296.752 0.437422C297.335 0.457019 297.88 0.479937 298.479 0.499068C298.644 0.399924 301.435 0.39195 301.69 0.333174C301.945 0.274382 300.375 0.287891 300.385 0.282758C300.489 0.209531 306.926 0.309628 307.39 0.317793C308.617 0.339518 307.542 0.462427 308.585 0.454512C310.381 0.44098 309.185 0.190905 311.615 0.52336C312.582 0.415359 312.667 0.471446 313.891 0.478926C314.052 0.479859 313.927 0.417327 313.998 0.415693C315.852 0.36928 314.427 0.485567 314.437 0.491866C314.605 0.598874 316.594 0.551305 317.013 0.561568C322.27 0.68941 326.123 0.775959 331.67 0.805587C332.87 0.811885 336.522 0.768469 337.683 0.786666C338.827 0.804625 338.213 0.881727 338.812 0.918747C339.772 0.733267 340.688 0.71281 342.844 0.835007C343.647 0.699706 343.543 0.808846 345.081 0.781784C346.361 0.759365 348.591 0.597061 350 0.735397C348.385 0.722798 348.552 0.789263 346.734 0.829391C346.129 0.842681 339.818 0.845521 340.287 0.983811C340.532 1.0559 342.624 0.989689 342.705 1.00298C343.175 1.08043 342.008 1.17562 340.973 1.14226C341.231 1.12663 341.542 1.11077 341.819 1.09514C339.495 0.998321 341.093 1.37018 339.327 1.04521C339.108 1.00535 339.193 0.96379 338.833 0.921433C338.759 0.938951 339.199 0.982379 338.82 0.990158C338.433 0.997999 337.698 0.915541 337.589 0.985031C337.425 1.08608 339.028 1.04626 339.149 1.05217C339.15 1.05156 339.151 1.05095 339.153 1.05034C340.219 1.10399 337.991 1.11011 337.885 1.11968C337.196 1.18264 337.666 1.23112 336.632 1.28313C336.042 1.31276 334.539 1.29529 333.985 1.30486C333.434 1.31466 334.291 1.36246 333.92 1.37273C333.55 1.38299 333.088 1.34667 332.653 1.35857C332.467 1.36381 332.476 1.41713 332.386 1.41899C331.419 1.43951 332.053 1.32861 331.177 1.33537C330.608 1.33987 328.702 1.44325 330.016 1.47405C329.384 1.48477 328.769 1.49263 328.14 1.50102C328.536 1.51688 328.946 1.52766 329.333 1.54631C328.15 1.52092 327.615 1.61216 326.874 1.61895C326.133 1.62571 325.468 1.51622 324.652 1.56963C322.912 1.68325 327.222 1.63075 327.757 1.65105C327.966 1.65903 327.165 1.74479 327.041 1.74724C326.494 1.75797 325.846 1.69664 325.423 1.69939C323.911 1.70965 322.986 1.7906 321.545 1.80693C316.639 1.86246 310.552 1.90749 305.904 1.92522C304.172 1.93175 303.131 1.84074 302.354 1.84331C300.536 1.84938 300.314 1.92869 298.728 1.93291C296.369 1.93944 293.044 1.87021 291.075 1.85527C289.711 1.84501 288.476 1.92176 288.122 1.92363C283.193 1.95116 277.197 1.94943 273.112 1.95037C271.191 1.95083 270.279 1.86458 269.882 1.86711C268.177 1.87785 268.635 1.95159 267.252 1.94414C266.505 1.94018 266.366 1.86939 266.266 1.86663C265.386 1.8433 265.21 1.93574 264.524 1.93877C260.575 1.95626 256.772 1.89576 252.862 1.88689C252.578 1.88619 252.603 1.84524 252.419 1.84734C251.63 1.85739 251.997 1.92188 251.172 1.92656C249.457 1.9366 247.696 1.92594 245.878 1.91777C245.698 1.91697 245.617 1.86433 245.205 1.86431C244.793 1.86431 244.48 1.91421 243.832 1.91143C242.14 1.90419 240.47 1.8445 238.677 1.84124C238.381 1.84077 238.013 1.90418 237.568 1.90349C236.173 1.90139 234.106 1.84382 232.91 1.84172C228.964 1.83519 225.324 1.87129 221.607 1.87175C220.734 1.87173 219.96 1.81297 219.506 1.81157C218.481 1.80856 219.254 1.86407 218.216 1.86431C209.738 1.86571 201.227 1.84047 192.649 1.8449C189.281 1.84653 185.18 1.90398 181.924 1.88811C180.571 1.88134 180.325 1.80458 179.367 1.80388C177.66 1.80297 177.35 1.90137 175.548 1.91118C174.111 1.91888 172.463 1.82065 170.967 1.82671C169.471 1.83278 168.781 1.92819 167.063 1.93962C165.648 1.94895 163.672 1.90565 162.131 1.91265C148.012 1.97704 134.108 2.01623 119.902 1.94158C114.889 1.91521 109.327 1.92892 104.147 1.83513C103.66 1.82626 104.405 1.73411 102.845 1.75347C102.007 1.76396 100.836 1.84336 98.8993 1.84734C87.3811 1.87067 75.0952 1.70083 63.3836 1.73442C45.8406 1.78505 27.6594 2.44078 12.4149 1.48125C11.6671 1.43413 12.0726 1.20322 12.5206 1.13762C12.9363 1.1845 13.3207 1.24019 13.7558 1.29314C14.3037 1.00462 14.2071 1.07974 16.2378 1.10564C17.4881 1.12172 16.4894 0.998326 17.1559 0.963303C18.0198 0.918042 22.0762 0.775525 21.296 0.966599C21.5475 0.933472 21.7795 0.901736 22.0245 0.869308C24.9612 0.840379 27.8143 0.79254 30.6865 0.737716C31.1827 0.728132 31.2055 0.668178 31.718 0.658614C33.0944 0.632495 34.1871 0.671881 35.6054 0.665816C36.3759 0.66255 36.4828 0.593268 37.4918 0.597701C38.5002 0.602161 38.4781 0.695688 39.8539 0.594039C38.9577 0.47669 42.9553 0.561839 44.377 0.55461C44.5833 0.553677 46.2755 0.448254 47.1749 0.460371C48.0775 0.472268 49.4476 0.539615 50.8432 0.501387C51.4976 0.483423 51.8947 0.401321 52.6006 0.39665C53.097 0.393384 53.6933 0.466363 54.3219 0.469405C54.9502 0.472436 56.3098 0.41253 56.559 0.411543C57.4582 0.407578 56.4662 0.458886 57.0812 0.46147C60.0501 0.473135 63.4995 0.500631 66.4265 0.466109C66.7864 0.461923 66.2885 0.401473 66.3363 0.399458C68.7792 0.325287 67.4753 0.404049 68.1349 0.458174C68.7739 0.510511 73.4501 0.481962 73.4845 0.376875C73.6282 0.508468 74.6676 0.407959 74.9376 0.404097C75.9883 0.38918 75.7823 0.503033 76.8008 0.467818C77.1746 0.454992 76.4468 0.378037 76.8485 0.380293C77.8413 0.385892 78.7348 0.509521 80.0564 0.521895C80.3756 0.524928 80.4793 0.469857 81.0467 0.471724C81.6147 0.473619 83.9957 0.540991 82.8969 0.424849C84.341 0.517921 84.6317 0.466838 86.3112 0.469405C86.7366 0.470187 87.2844 0.558933 88.1898 0.531417C88.496 0.522078 88.487 0.436535 88.9479 0.435835C90.0019 0.433993 90.9949 0.522546 92.3325 0.526045C94.834 0.532808 97.4969 0.470557 100.105 0.49272C100.814 0.498802 100.637 0.584808 101.668 0.58647C101.819 0.58647 103.061 0.512094 103.773 0.519087C104.202 0.523287 106.423 0.575557 106.871 0.579757C107.612 0.586488 107.745 0.503307 108.15 0.519576C109.324 0.566469 108.383 0.68891 109.794 0.521407C110.259 0.61426 111.084 0.60497 111.348 0.719283C111.828 0.594011 112.451 0.714371 113.383 0.672408C114.314 0.630414 115.078 0.387784 115.304 0.648849C115.739 0.61712 117.593 0.562971 117.906 0.559004C118.827 0.547816 118.335 0.62003 119.03 0.610274C119.153 0.608642 119.024 0.559263 119.81 0.564131C120.326 0.567398 124.105 0.570427 124.331 0.577193C126.905 0.654501 122.928 0.626166 122.371 0.67961C122.273 0.665573 122.175 0.65149 122.071 0.637618C120.933 0.614301 121.581 0.725859 122.096 0.751754C122.612 0.777643 123.576 0.727945 124.005 0.764572C124.218 0.782962 124.086 0.916711 123.44 0.900559C124.131 0.941756 123.187 0.985256 123.46 1.02397C123.761 1.06642 126.867 1.07948 126.884 1.00578C126.304 1.00322 125.581 1.00576 124.995 1.00273C124.228 0.874649 126.558 0.43724 128.695 0.611983C130.246 0.738425 127.69 0.838969 131.358 0.732833C130.794 0.7277 130.317 0.715738 129.804 0.710372C129.75 0.614317 130.581 0.719935 131.01 0.689376C131.216 0.674435 129.947 0.606418 131.048 0.583785C131.996 0.721144 132.725 0.582976 134.314 0.581343C133.873 0.60584 133.431 0.630211 132.989 0.654708C135.674 0.754325 129.437 0.787185 134.659 0.842941C134.03 0.847369 133.405 0.846191 132.774 0.852951C133.08 0.903353 132.59 1.05131 132.864 1.08257C133.583 1.16462 134.646 1.11516 135.523 1.12236C135.906 1.12539 135.668 1.16534 135.7 1.16557C136.226 1.17 136.11 1.11145 136.571 1.10771C137.151 1.10305 138.826 1.15998 139.098 1.15349C139.801 1.13692 138.631 1.02137 138.698 1.01274C139.146 0.956773 140.061 1.00319 140.013 0.929978C137.811 0.980359 131.465 0.91568 137.206 0.794601C135.624 0.676319 136.081 0.513246 138.357 0.500411C140.239 0.489679 139.024 0.555019 140.004 0.626876C140.131 0.635871 142.653 0.670228 142.782 0.61943C142.681 0.736425 143.501 0.840032 142.951 0.960739C142.87 0.97847 141.835 0.971474 142.196 1.06853C142.377 1.11728 142.895 1.22339 142.811 1.28545C143.024 1.24229 143.246 1.19375 143.462 1.14873C145.013 1.13613 145.233 1.18262 146.081 1.26311C146.042 1.22951 145.259 1.08834 146.449 1.13127C146.51 1.13384 146.562 1.1845 147.167 1.20964C148.388 1.26003 148.643 1.2757 147.706 1.42449C150.236 1.33962 150.781 1.50545 153.375 1.45696C152.859 1.26568 151.947 1.31304 149.571 1.3499C149.468 1.30441 149.42 1.25938 149.314 1.21343C152.476 1.31653 150.913 1.30603 152.705 1.21367C153.143 1.19104 155.481 1.21525 154.701 1.08647C154.516 1.05617 153.064 1.05966 153.231 1.01189C153.263 1.00279 155.028 0.979649 155.184 0.99199C157.138 1.14433 153.647 1.25051 159.026 1.19499C159.175 1.19336 159.227 1.13768 159.516 1.12993C160.061 1.11547 160.068 1.17998 160.554 1.16509C161.041 1.15016 161.715 1.0634 162.447 1.1436C163.785 1.28965 160.629 1.37365 159.224 1.29619C158.653 1.48703 168.695 1.49123 169.317 1.4749C172.034 1.40376 167.513 1.44483 167.28 1.39189C167.183 1.3695 167.231 1.08561 166.087 1.26982C165.749 1.32441 167.163 1.39634 166.319 1.42644C165.475 1.45654 165.809 1.37295 165.748 1.36711C165.538 1.34712 164.64 1.37811 164.523 1.36626C162.731 1.18638 162.895 0.914575 165.271 1.31609C166.306 1.22533 163.93 1.08068 165.217 1.01909C166.78 0.94423 167.921 1.07368 168.118 1.07951C170.474 1.14854 167.757 0.959567 170.635 1.01994C172.237 1.05354 168.237 1.14571 171.896 1.13335C174.958 1.12285 173.304 1.05706 173.527 0.907517C173.579 0.872527 175.257 0.829623 172.972 0.845016C172.908 0.88397 172.786 0.93531 172.641 0.971237C172.08 0.942797 171.146 0.747829 170.849 0.741012C169.395 0.708585 169.465 0.809781 168.608 0.690597C169.22 0.820981 168.223 0.742415 167.85 0.769943C166.461 0.8714 168.282 0.909121 165.165 0.778732C165.571 0.839857 165.939 0.899848 166.332 0.960739C165.958 0.962838 165.584 0.964988 165.21 0.967087C164.653 0.832476 162.666 0.849691 164.465 0.714156C162.302 0.675669 161.428 0.705013 160.954 0.809738C160.864 0.82973 160.539 0.837721 160.157 0.839645C160.229 0.869093 160.322 0.960078 160.262 0.971237C159.723 1.06937 158.889 0.899839 159.173 0.835129C158.906 0.832032 158.695 0.8284 158.62 0.826828C158.147 0.816777 159.075 0.758264 158.691 0.738204C158.565 0.731685 157.232 0.744416 157.206 0.720626C157.045 0.56812 159.239 0.67815 154.833 0.589522C154.727 0.728337 156.773 0.697814 156.248 0.84526C155.684 1.00366 154.533 0.791183 154.282 0.98552C154.188 0.953569 154.147 0.926924 154.066 0.890549C152.284 0.975223 152.26 0.813365 151.716 0.777633C150.658 0.707876 145.797 0.718352 150.162 0.858566C149.524 0.872564 148.872 0.879038 148.237 0.891403C148.092 0.60124 148.479 0.716731 145.42 0.672408C144.746 0.662611 144.527 0.534993 143.866 0.686568C143.956 0.537885 141.963 0.627708 141.777 0.609664C140.585 0.49232 145.013 0.32898 145.581 0.591842C146.328 0.489498 146.326 0.624789 147.16 0.606856C148.366 0.58096 148.533 0.554612 149.965 0.654464C151.373 0.513783 144.45 0.592569 148.647 0.405928C152.845 0.219301 177.292 0.115198 182.994 0.087201C193.326 0.0365749 198.758 0.00348517 208.039 0.0118833C208.955 0.0125831 215.866 -0.000905681 214.429 0.161664C214.223 0.184994 211.25 0.246822 213.8 0.374433C213.281 0.299087 214.781 0.250162 214.906 0.242231C217.791 0.0621274 216.121 0.0180222 220.663 0.0161558ZM234.128 1.46611C228.2 1.42902 232.555 1.5377 231.324 1.78313C232.085 1.78383 232.843 1.78451 233.604 1.78521C233.404 1.76981 233.206 1.75446 233.007 1.73906C233.006 1.73906 233.005 1.73906 233.004 1.73906C233.378 1.64809 233.754 1.55709 234.128 1.46611ZM331.036 1.63042C330.805 1.66274 330.576 1.69511 330.326 1.72673C329.542 1.7167 328.762 1.70686 327.979 1.69683C328.072 1.6749 328.163 1.65271 328.256 1.63079C329.183 1.63172 330.106 1.63273 331.036 1.63042ZM158.395 1.33171C157.286 1.2419 157.386 1.40217 155.913 1.32915C156.093 1.44742 156.294 1.56312 156.484 1.68022C157.605 1.66272 157.86 1.61775 159.078 1.64666C158.936 1.60864 158.791 1.5704 158.652 1.53215C158.45 1.54031 158.234 1.54959 158.037 1.55681C157.725 1.45044 159.671 1.43457 158.399 1.33147C158.397 1.33155 158.396 1.33163 158.395 1.33171ZM147.031 1.37932C146.435 1.36392 144.072 1.30604 143.75 1.35503C142.657 1.52114 149.323 1.41572 144.41 1.5634C144.433 1.58671 144.41 1.60954 144.41 1.63262C145.306 1.64078 146.2 1.64781 147.102 1.65435C147.054 1.56244 147.086 1.47169 147.031 1.37932ZM212.687 1.47637C211.771 1.46357 207.401 1.5417 208.826 1.6469C209.245 1.6777 211.195 1.52721 211.937 1.53374C212.417 1.53795 211.879 1.62046 212.827 1.59014C212.785 1.55377 212.759 1.51344 212.685 1.47661C212.686 1.47653 212.686 1.47645 212.687 1.47637ZM214.406 0.996262C213.458 1.01096 212.498 1.02958 211.544 1.04521C212.24 1.13921 213.61 1.07883 213.69 1.21111C213.43 1.22114 213.171 1.23111 212.91 1.24114C212.711 1.21221 212.514 1.18327 212.317 1.15434C211.499 1.2262 211.994 1.2619 210.47 1.24114C211.392 1.44108 211.563 1.54839 214.174 1.34612C213.681 1.4546 214.145 1.80807 215.592 1.55547C215.863 1.50857 214.732 1.47724 214.719 1.46977C214.545 1.37695 215.173 1.31771 214.986 1.23003C214.902 1.19037 214.213 1.19097 214.11 1.13591C214.062 1.10905 214.718 1.03242 214.406 0.996262ZM216.295 1.46697C216.002 1.52319 217.004 1.65661 217.875 1.62957C219.232 1.58757 217.091 1.46067 216.295 1.46697ZM331.041 1.6303C331.039 1.63034 331.038 1.63038 331.036 1.63042C331.037 1.6303 331.038 1.63018 331.039 1.63005C331.039 1.63013 331.04 1.63022 331.041 1.6303ZM150.107 1.44438C149.404 1.49218 148.364 1.48521 148.441 1.56121C148.099 1.54627 147.754 1.53158 147.412 1.51665C147.415 1.5395 147.421 1.56239 147.425 1.58501C148.453 1.59924 149.478 1.61352 150.506 1.62798C150.377 1.56686 150.258 1.5055 150.107 1.44438ZM138.905 1.39116C137.612 1.38347 138.696 1.48687 138.412 1.53679C138.128 1.58672 136.977 1.5461 137.112 1.61772C137.873 1.62052 138.667 1.62334 139.437 1.6259C139.234 1.54798 139.092 1.46862 138.902 1.39116C138.903 1.39116 138.904 1.39116 138.905 1.39116ZM258.322 1.54753C257.445 1.52513 257.803 1.44624 256.072 1.53862C256.073 1.53862 256.075 1.53862 256.076 1.53862C257.723 1.60324 259.844 1.66082 261.661 1.59832C260.55 1.51508 259.702 1.58252 258.322 1.54753ZM161.461 1.5645C161.831 1.50199 160.107 1.44978 159.727 1.50786C159.111 1.60188 160.897 1.65945 161.461 1.5645ZM293.735 0.993821C295.068 0.801363 292.541 0.585333 289.895 0.678634C289.666 0.686799 291.374 0.748006 290.868 0.785568C290.817 0.789267 289.879 0.784682 289.647 0.811447C289.415 0.838277 289.659 0.900552 289.278 0.926682C288.611 0.972349 287.103 0.887731 286.603 0.947678C286.537 0.955711 287.473 1.039 287.531 1.04216C288.492 1.09255 289.418 0.983679 289.566 0.982956C290.33 0.979223 290.214 1.06458 290.408 1.08464C290.772 1.12237 291.414 1.08465 291.459 1.08745C292.618 1.16231 289.969 1.14089 289.611 1.17168C288.647 1.25473 289.54 1.33194 287.228 1.37883C287.009 1.38325 284.382 1.37823 287.693 1.4738C281.191 1.67302 290.959 1.58712 292.02 1.54326C292.509 1.52293 291.768 1.44157 292.065 1.40495C292.742 1.32121 293.896 1.30644 293.793 1.1884C293.57 0.940225 292.054 1.10284 291.01 1.06108C291.12 1.00719 291.162 0.954627 291.365 0.901901C291.052 0.972825 293.638 1.00831 293.735 0.994309C293.735 0.994146 293.735 0.993983 293.735 0.993821ZM277.277 1.27739C275.817 1.2025 275.92 1.35917 274.582 1.26958C273.402 1.41025 275.73 1.40081 276.001 1.40874C277.238 1.4442 277.21 1.59716 278.476 1.5501C278.041 1.45959 277.686 1.36813 277.277 1.27739ZM289.979 1.34197C289.002 1.42128 290.75 1.41994 290.821 1.43511C291.592 1.596 286.359 1.56473 289.979 1.34197ZM206.999 1.16118C206.502 1.15582 206.817 1.23176 206.38 1.2542C205.942 1.27682 204.443 1.21182 204.481 1.25908C204.519 1.30644 207.265 1.42926 204.509 1.45586C204.602 1.48244 204.571 1.50227 204.616 1.52629C205.373 1.52699 206.138 1.52816 206.896 1.52886C206.48 1.45234 206.054 1.37185 205.654 1.2979C206.079 1.23701 206.319 1.31511 206.341 1.31511C206.341 1.31503 206.341 1.31495 206.341 1.31487C207.134 1.30874 208.113 1.17311 206.999 1.16118ZM246.065 1.39958C246.214 1.20944 245.044 1.4218 244.563 1.44536C244.083 1.46884 243.423 1.39845 243.671 1.48027C244.448 1.53673 246.049 1.4208 246.065 1.39934C246.065 1.39942 246.065 1.3995 246.065 1.39958ZM269.344 1.27776C268.119 1.32391 268.314 1.37334 266.816 1.31694C266.874 1.3629 266.932 1.40987 266.99 1.45513C268.18 1.45606 268.096 1.32264 269.472 1.37627C269.698 1.38513 269.215 1.4917 270.233 1.45745C269.937 1.40057 269.637 1.33744 269.344 1.27776ZM263.277 1.44817C264.682 1.44115 265.797 1.06925 263.209 1.23699C262.825 1.26206 262.22 1.45353 263.277 1.44817ZM219.963 1.15178C217.572 1.14106 220.289 1.20108 220.911 1.25823C215.345 1.30394 221.539 1.24259 222.095 1.43267C222.775 1.37854 224.048 1.25475 222.634 1.2216C222.044 1.20784 222.259 1.26444 222.224 1.26421C221.137 1.25021 221.269 1.15761 219.963 1.15178ZM279.814 1.26824C279.724 1.27104 279.865 1.33524 279.579 1.34807C279.291 1.36081 278.641 1.31587 278.577 1.35527C278.513 1.39492 279.817 1.42566 280.217 1.39678C280.616 1.36761 280.63 1.24351 279.814 1.26824ZM270.639 1.11003C269.445 1.15623 271.398 1.39275 271.658 1.39165C273.94 1.37928 270.572 1.18492 270.639 1.11003ZM225.515 0.750045C222.633 0.870195 224.742 1.07898 226.547 1.20403C226.785 1.17861 227.03 1.15316 227.265 1.12798C226.182 1.28242 224.284 1.43508 228.507 1.30046C226.195 1.26412 228.131 1.22262 228.146 1.21391C228.4 0.930219 224.976 1.06197 225.518 0.750045C225.517 0.750045 225.516 0.750045 225.515 0.750045ZM283.699 1.33586C284.954 1.33492 288.215 1.28591 286.693 1.16228C285.694 1.22013 284.699 1.27802 283.699 1.33586ZM178.333 0.766647C177.308 0.695956 176.363 0.697161 175.1 0.701827C176.238 0.804705 175.49 0.816525 175.106 0.84172C174.524 0.879649 175.934 0.876539 175.938 0.883469C175.912 0.981214 175.013 0.996395 177.06 0.994065C176.554 1.02811 176.054 1.06242 175.548 1.09624C177.108 1.10068 177.476 1.16445 178.465 1.24236C177.504 1.05199 178.769 1.17118 179.917 1.07646C180.49 1.02904 178.855 0.802801 178.33 0.766647C178.331 0.766647 178.332 0.766647 178.333 0.766647ZM222.537 0.711837C222.24 0.746129 221.969 0.792519 221.682 0.831711C221.369 0.835443 221.056 0.83872 220.743 0.842453C220.705 0.812134 220.672 0.780419 220.627 0.751266C220.215 0.742441 220.376 0.784655 220.253 0.78862C220.253 0.788457 220.253 0.788294 220.253 0.788131C218.497 0.844096 217.778 0.837802 216.402 0.744064C216.402 0.83696 216.402 0.929856 216.402 1.02275C216.711 1.01389 217.024 1.00525 217.333 0.996628C217.497 0.946712 217.662 0.896764 217.827 0.846847C218.185 0.874377 218.539 0.901716 218.897 0.929245C219.184 0.911296 219.528 0.892408 219.776 0.874924C221.204 1.13457 217.959 0.958181 217.93 1.06596C217.911 1.13525 221.179 1.13222 221.65 1.0844C221.717 1.0774 221.011 0.884053 222.207 0.984787C222.394 1.00065 222.46 1.41895 223.749 1.08025C223.933 1.0322 223.291 0.772337 222.537 0.711837ZM210.67 0.576949C212.507 0.844538 205.725 0.561585 208.652 0.781784C207.817 0.904715 207.972 0.903116 208.813 1.01225C208.887 1.02204 208.306 1.05581 208.355 1.06011C209.142 1.1203 210.089 1.08838 210.096 1.1978C210.308 1.19197 210.508 1.18678 210.721 1.18096C209.835 1.07786 211.244 1.00857 211.789 0.921555C212.037 0.882145 211.467 0.869987 211.675 0.835495C211.753 0.822901 212.549 0.848043 212.582 0.811935C212.649 0.73028 212.149 0.619929 211.301 0.559737C211.301 0.559656 211.301 0.559574 211.301 0.559493C211.089 0.564856 210.882 0.571354 210.67 0.576949ZM249.941 0.79924C250.254 0.947153 251.507 0.989491 249.099 1.06181C249.218 1.09095 249.341 1.11984 249.46 1.14897C249.866 1.14641 250.26 1.14386 250.672 1.14153C251.91 0.705764 254.169 1.19753 252.722 0.888474C252.564 0.854878 251.601 0.892414 252.552 0.801193C252.551 0.801112 252.55 0.80103 252.548 0.800949C251.22 0.828947 251.053 0.881353 249.941 0.79924ZM241.053 0.90239C237.991 1.21361 245.285 1.07604 244.067 0.993454C243.957 0.985989 240.815 1.05287 241.053 0.90239ZM265.628 0.631515C264.255 0.62615 264.164 0.79407 264.302 0.854538C264.441 0.91519 265.391 0.8539 265.514 0.863449C265.914 0.894945 265.066 0.915748 265.585 0.958908C265.757 0.972925 268.148 1.03279 268.258 1.02556C268.866 0.985394 267.977 0.846839 268.151 0.830978C268.718 0.778981 269.488 0.851058 269.653 0.777389C270.007 0.620199 268.571 0.785208 268.329 0.787887C267.597 0.795353 267.661 0.706863 267.113 0.689132C266.565 0.671435 266.207 0.70175 265.724 0.69548C265.564 0.693386 265.697 0.632075 265.628 0.631515ZM261.088 0.98613C262.522 0.859016 259.03 0.72077 258.616 0.750534C257.397 0.838955 260.401 1.04679 261.088 0.98613ZM215.27 0.980759C216.582 0.888611 213.526 0.814027 212.653 0.85112C212.815 0.889412 214.819 1.01248 215.27 0.980759ZM226.315 0.750534C225.109 0.77923 226.708 0.986833 227.714 0.983567C228.303 0.847133 227.748 0.874175 227.091 0.868576C226.434 0.862925 227.255 0.728181 226.315 0.750534ZM280.52 0.783249C280.26 0.781082 276.067 0.893855 278.476 0.94072C278.66 0.944219 281.594 0.924363 281.817 0.903366C282.264 0.860903 281.19 0.789313 280.52 0.783249ZM232.098 0.548995C231.459 0.667016 230.831 0.665431 231.418 0.804001C231.419 0.804001 231.42 0.804001 231.421 0.804001C229.806 0.846439 229.734 0.562949 229.386 0.569014C228.168 0.59029 229.322 0.792067 228.558 0.858322C230.334 0.796039 229.825 0.932087 231.176 0.94072C231.479 0.942586 232.691 0.861341 232.869 0.810714C233.046 0.760065 232.426 0.608254 232.098 0.548995ZM286.442 0.753829C285.027 0.708609 283.731 0.899885 285.694 0.930222C286.651 0.945153 287.306 0.781359 286.442 0.753829ZM144.99 0.705978C145.206 0.75613 145.429 0.806073 145.661 0.855759C145.139 0.867886 144.616 0.880264 144.094 0.892624C144.507 0.87676 144.92 0.861136 145.336 0.845505C144.356 0.828007 143.908 0.736774 144.988 0.705978C144.989 0.705978 144.99 0.705978 144.99 0.705978ZM110.101 0.66777C109.663 0.619476 108.799 0.76902 108.909 0.780685C109.734 0.867612 110.71 0.734729 110.101 0.66777ZM213.332 0.526534C211.702 0.505613 212.823 0.748762 213.822 0.765426C213.211 0.718926 214.257 0.538428 213.332 0.526534ZM122.371 0.67961C122.517 0.700514 122.665 0.721419 122.829 0.742355C122.313 0.713286 122.224 0.693737 122.371 0.67961ZM279.853 0.568526C279.604 0.54987 277.764 0.534461 277.516 0.55754C277 0.606066 278.435 0.740308 279.279 0.69902C279.373 0.694587 280.101 0.58719 279.849 0.568526C279.851 0.568526 279.852 0.568526 279.853 0.568526ZM142.786 0.612838C142.788 0.615165 142.787 0.617385 142.782 0.61943C142.784 0.61726 142.783 0.615016 142.786 0.612838ZM73.4703 0.365766C73.4804 0.369538 73.4857 0.373282 73.4845 0.376875C73.4807 0.373347 73.4729 0.369635 73.4703 0.365766ZM266.874 0.362104C266.262 0.130436 264.85 0.253657 265.965 0.368208C266.028 0.374228 266.726 0.361649 266.874 0.362104ZM6.78493 2.72758C6.98596 2.64331 7.19036 2.56075 7.40274 2.48033C7.93879 2.29036 8.20401 2.22183 8.50484 2.04456C9.1514 1.70109 9.63661 1.63553 10.096 1.52806C10.329 1.47957 10.5884 1.40292 10.8642 1.3208C11.0245 1.27299 11.0365 1.33975 11.0848 1.33317C11.1328 1.32662 11.1708 1.30939 11.2043 1.28887C11.2918 1.24345 11.3561 1.19429 11.4348 1.1791C11.9707 1.08513 12.3586 1.07 12.7645 1.03608C12.8002 1.03327 12.8358 1.03061 12.8721 1.02805C13.3688 0.996655 13.1576 1.23234 13.3323 1.26594C13.6711 1.33837 13.3682 1.08943 13.495 1.01838C13.8821 1.00713 14.2537 1.02518 14.6224 1.04489C14.5323 1.07271 14.4444 1.10013 14.3542 1.12659C14.5153 1.12702 14.7439 1.16305 14.479 1.2416C14.5384 1.25946 14.5951 1.28082 14.6552 1.29839C14.6693 1.1987 14.9503 1.18403 14.9751 1.12482C14.9988 1.06547 14.843 1.08247 14.8424 1.07739C14.8509 1.00343 15.5026 1.09061 15.5482 1.09838C15.6726 1.11798 15.5676 1.24269 15.6709 1.23304C15.7684 1.22403 15.7772 1.14584 15.8049 1.13041C15.8259 1.11759 15.8603 1.1482 15.9715 1.29616C16.0633 1.18565 16.0734 1.24148 16.1945 1.24507C16.2105 1.24547 16.1961 1.18338 16.203 1.18152C16.3856 1.12892 16.2477 1.24994 16.2491 1.2562C16.2696 1.36264 16.4656 1.30812 16.5082 1.31679C17.0385 1.42526 17.4285 1.49693 17.9855 1.5104C18.0486 1.5119 18.1807 1.49767 18.3083 1.48642L18.2719 1.49054C18.3839 1.46044 18.4931 1.43446 18.5493 1.43283C18.6667 1.42955 18.6195 1.51658 18.6852 1.5424C18.7482 1.34315 18.8396 1.30569 19.0743 1.39469C19.1357 1.24929 19.1415 1.3583 19.2916 1.31126C19.3488 1.29276 19.4372 1.23941 19.4872 1.20253C19.4915 1.20138 19.5047 1.19971 19.5091 1.19889C19.6311 1.15481 19.7366 1.14819 19.8095 1.21977C19.6665 1.20991 19.6562 1.25477 19.5231 1.30797C19.5204 1.30849 19.512 1.30954 19.5093 1.31027C19.4975 1.31901 19.4803 1.32802 19.4584 1.33683C19.4095 1.35577 18.7702 1.44928 18.8423 1.58142C18.8782 1.64806 19.0744 1.55057 19.0846 1.56294C19.1423 1.63286 19.041 1.74344 18.9354 1.72676C18.9581 1.70727 18.9863 1.68678 19.0108 1.6672C18.7668 1.60792 18.9856 1.94915 18.7578 1.65806C18.7295 1.62253 18.7311 1.58004 18.6877 1.54468C18.6835 1.56322 18.7348 1.59825 18.6984 1.61258C18.662 1.62695 18.5745 1.55918 18.576 1.62961C18.5789 1.7317 18.7284 1.66402 18.7416 1.66794C18.7416 1.66732 18.7417 1.66669 18.7417 1.66607C18.8555 1.70065 18.6382 1.74493 18.6298 1.75659C18.5734 1.83112 18.6288 1.86995 18.5383 1.94013C18.5052 1.96553 18.4353 1.97915 18.3736 1.99152C18.363 1.99303 18.332 1.99781 18.3213 1.99745C18.2841 1.9983 18.2509 1.99902 18.2308 2.00308C18.1764 2.01433 18.2626 2.05986 18.2262 2.0711C18.1894 2.08234 18.1423 2.04728 18.0994 2.06038C18.0808 2.06614 18.0833 2.11941 18.0743 2.12153C17.9786 2.14477 18.0389 2.0321 17.9513 2.04141C17.895 2.04751 17.708 2.15669 17.8397 2.18347C17.7773 2.1961 17.7163 2.20586 17.6536 2.21627C17.6938 2.23085 17.7347 2.24034 17.7739 2.25779C17.6556 2.23606 17.6047 2.32903 17.5315 2.33823C17.4576 2.34745 17.3878 2.24027 17.3083 2.29647C17.1387 2.41603 17.5667 2.34869 17.6205 2.36744C17.6416 2.37474 17.5643 2.46306 17.5523 2.46591C17.4982 2.47843 17.432 2.4193 17.3896 2.4235C17.2394 2.43893 17.1499 2.52313 17.0071 2.54467C16.6494 2.59774 16.2353 2.65107 15.8296 2.68138C15.6865 2.69209 15.5538 2.70111 15.428 2.70818C15.2572 2.71783 15.1505 2.62901 15.0739 2.63318C14.8931 2.64316 14.8738 2.72295 14.717 2.73111C14.4852 2.74339 14.1574 2.68493 13.9685 2.67939C13.8366 2.67534 13.7257 2.75929 13.6936 2.76334C13.4716 2.79099 13.2443 2.82061 13.0002 2.85603C12.7221 2.89538 12.4663 2.92514 12.2755 2.95343C12.1026 2.979 12.0165 2.90841 11.9842 2.91698C11.854 2.95431 11.9031 3.01943 11.8166 3.03407C11.7882 3.03929 11.7689 3.01233 11.7559 2.9933C11.7465 2.98441 11.7403 2.97719 11.7369 2.9773C11.6492 2.98129 11.6616 3.07462 11.5982 3.09873C11.2729 3.2221 10.9093 3.29821 10.5054 3.3715C10.4622 3.37888 10.4196 3.38667 10.3774 3.39517C10.3505 3.40053 10.3438 3.36006 10.327 3.36603C10.2555 3.39272 10.304 3.44769 10.2295 3.46991C10.0757 3.51644 9.92057 3.54482 9.7786 3.58056C9.7646 3.58412 9.74244 3.53581 9.71127 3.546C9.68037 3.55625 9.67356 3.61115 9.62928 3.62457C9.55084 3.64847 9.47335 3.65113 9.41526 3.66186C9.35266 3.68682 9.28987 3.71289 9.2275 3.74344C9.19519 3.75934 9.18302 3.83625 9.13247 3.85938C8.97482 3.93328 8.71675 3.9718 8.58896 4.01242C8.36472 4.08586 8.18188 4.14703 8.04238 4.20855C7.8893 4.27374 7.73615 4.34281 7.57986 4.40696C7.50315 4.4383 7.41225 4.41274 7.37176 4.42837C7.28066 4.46384 7.37005 4.48599 7.27963 4.52512C6.81515 4.72568 6.23991 4.99563 6.02546 5.16868C5.82988 5.33816 5.65333 5.51347 5.48763 5.70869C5.33212 5.89032 5.18392 6.14974 5.0197 6.38195C4.99146 6.42236 4.96144 6.46468 4.92989 6.5061C4.85978 6.59875 4.7824 6.57826 4.7332 6.65418C4.64394 6.79361 4.71216 6.87209 4.61654 7.03993C4.54191 7.1697 4.3677 7.27034 4.25593 7.41168C4.25344 7.41473 4.25111 7.4179 4.24896 7.42119C4.19901 7.49991 4.25685 7.58598 4.2095 7.6969C4.17025 7.7887 4.06218 7.92173 4.00908 8.06352C4.0051 8.07408 4.0011 8.08472 3.99705 8.09546C3.87342 8.40727 3.88478 8.69542 3.61784 9.37615C3.54061 9.55996 3.46914 9.87656 3.38735 10.25C3.31692 10.5492 3.26989 10.8907 3.15649 11.317C3.07639 11.6069 2.99353 11.8135 2.94657 11.9719C2.92495 12.0426 2.91055 12.1061 2.9016 12.1665C2.85108 12.5933 2.77597 13.0924 2.58789 13.5253C2.56547 13.5762 2.49806 13.4729 2.47149 13.6463C2.46024 13.7169 2.48071 13.8191 2.46238 13.9564C2.47101 13.9544 2.47019 13.9769 2.46576 14.0027C2.33491 14.9454 2.12054 16.2585 2.08767 17.408C2.04151 19.1573 2.63436 21.0399 1.48223 22.5289C1.42497 22.5973 1.20228 22.5235 1.14332 22.4712C1.19539 22.4368 1.25578 22.405 1.31411 22.3657C1.03511 22.2699 1.10821 22.2996 1.15735 22.0926C1.18649 21.9718 1.05333 22.0566 1.02538 21.9877C0.990449 21.8954 0.884752 21.4809 1.06806 21.574C1.03725 21.546 1.00754 21.5212 0.977287 21.4943C0.973559 21.1965 0.946117 20.9143 0.910849 20.6223C0.90457 20.5727 0.844898 20.5664 0.838715 20.5149C0.821735 20.3748 0.867797 20.2705 0.870472 20.1279C0.871939 20.0503 0.803443 20.0354 0.813825 19.9358C0.824211 19.8359 0.917477 19.8435 0.823981 19.6995C0.701729 19.7824 0.809524 19.3884 0.809896 19.2467C0.810091 19.2263 0.714057 19.0509 0.730924 18.9621C0.747611 18.8731 0.822152 18.7392 0.791268 18.598C0.776751 18.5317 0.696831 18.4877 0.695838 18.417C0.695157 18.3672 0.771132 18.3113 0.777426 18.2486C0.783711 18.1859 0.730903 18.0469 0.731199 18.022C0.731875 17.932 0.777999 18.0338 0.783754 17.9724C0.810758 17.6754 0.855983 17.3326 0.837189 17.0367C0.834922 17.0006 0.771911 17.047 0.770153 17.0421C0.709146 16.7939 0.780859 16.9281 0.838457 16.8648C0.894007 16.8036 0.891667 16.3322 0.787062 16.3239C0.919184 16.3182 0.825018 16.2057 0.822751 16.1786C0.814083 16.0719 0.92651 16.0993 0.897429 15.9962C0.88689 15.958 0.805687 16.026 0.810349 15.9862C0.82212 15.8846 0.951015 15.8028 0.971845 15.6718C0.976988 15.6393 0.922718 15.625 0.928372 15.5676C0.933903 15.5105 1.01776 15.2754 0.89414 15.3791C0.99751 15.2355 0.948059 15.2095 0.963897 15.0355C0.968083 14.9917 1.06075 14.9443 1.04084 14.8514C1.0342 14.8186 0.948872 14.8123 0.952242 14.7646C0.959578 14.6581 1.05717 14.5615 1.07433 14.428C1.11235 14.164 1.06311 13.9122 1.18247 13.5581C1.18382 13.5545 1.18525 13.5511 1.18675 13.5479C1.21494 13.4966 1.28786 13.5317 1.31604 13.443C1.32031 13.4292 1.28057 13.2978 1.30341 13.2362C1.31826 13.1996 1.41612 13.0102 1.42792 12.9693C1.44854 12.9024 1.36899 12.8745 1.39201 12.8405C1.45762 12.7417 1.56339 12.8482 1.42024 12.6899C1.519 12.6619 1.52142 12.5828 1.63809 12.5736C1.52049 12.5105 1.64788 12.4676 1.61692 12.3726C1.58589 12.2774 1.35184 12.1799 1.61379 12.1845C1.59978 12.161 1.58339 12.1008 1.57031 12.0432C1.55895 11.9773 1.55406 11.9144 1.55485 11.8962C1.56093 11.7864 1.62266 11.8559 1.62759 11.7754C1.62886 11.7615 1.57675 11.7659 1.60068 11.6786C1.61377 11.6143 1.72805 11.2303 1.7397 11.2175C1.88377 10.9998 1.74826 11.3611 1.7821 11.4373C1.76579 11.4433 1.74947 11.4493 1.73312 11.4562C1.67842 11.5671 1.80446 11.5287 1.84373 11.4845C1.88305 11.4398 1.86311 11.3319 1.9103 11.3015C1.93396 11.2863 2.05855 11.3366 2.02471 11.3943C2.08384 11.3394 2.09878 11.4425 2.14367 11.4272C2.19336 11.4116 2.29255 11.1119 2.21917 11.0919C2.20268 11.1477 2.18583 11.2181 2.16658 11.2737C2.06148 11.302 1.84988 11.1242 1.81509 10.9852C1.80217 10.9302 1.81592 10.877 1.87478 10.8326C2.02827 10.7128 2.07918 10.9768 2.04343 10.6029C2.02806 10.6569 2.00753 10.7006 1.99256 10.7484C1.89734 10.735 2.01654 10.6762 1.99435 10.6286C1.98343 10.6062 1.8934 10.7153 1.8913 10.6053C2.04372 10.5389 1.9204 10.4425 1.94961 10.2817C1.96502 10.331 1.98061 10.3798 1.9965 10.4282C2.14463 10.1798 2.06025 10.8045 2.21311 10.2971C2.20521 10.3604 2.19237 10.4223 2.18741 10.4858C2.24258 10.4649 2.37905 10.5402 2.41479 10.519C2.50861 10.4634 2.47959 10.3506 2.50409 10.267C2.51467 10.2305 2.54908 10.2616 2.54994 10.2585C2.56478 10.2088 2.50513 10.208 2.51105 10.1626C2.51425 10.1383 2.5327 10.0972 2.55317 10.0564C2.58106 9.99991 2.61155 9.94297 2.61135 9.92723C2.61085 9.85514 2.47216 9.9433 2.46524 9.9349C2.42059 9.87874 2.48648 9.79958 2.4141 9.78782C2.41377 9.84731 2.39985 9.93335 2.37912 10.016C2.32163 10.2502 2.21743 10.4747 2.21908 10.0326C2.08439 10.152 1.94837 10.1037 1.95241 9.91699C1.95243 9.89802 1.95431 9.87692 1.95817 9.85413C1.98979 9.66748 2.02625 9.80093 2.11868 9.72001C2.12949 9.70988 2.22535 9.46343 2.18109 9.43658C2.29149 9.47634 2.41349 9.4222 2.5153 9.508C2.53009 9.52047 2.4973 9.61923 2.60036 9.60833C2.65205 9.60281 2.76752 9.58132 2.82538 9.60531C2.78893 9.57453 2.74772 9.54113 2.71002 9.50875C2.73918 9.36027 2.79173 9.35296 2.89299 9.30474C2.8604 9.29642 2.70176 9.3223 2.78024 9.22817C2.7847 9.22368 2.83385 9.23537 2.87736 9.19227C2.96626 9.10565 2.98792 9.09959 3.09434 9.22834C3.0946 9.18953 3.10063 9.15863 3.11019 9.13366C3.18825 8.93679 3.31064 8.8864 3.33546 8.65801C3.13351 8.65994 3.16901 8.7499 3.10126 9.02879C3.05442 9.02301 3.0106 9.01105 2.96353 9.00413C3.18643 8.7086 3.11445 8.86313 3.08251 8.65764C3.07394 8.60701 3.15985 8.389 3.01492 8.42915C2.98081 8.43862 2.94479 8.57978 2.90326 8.55075C2.89556 8.54514 2.92086 8.36868 2.93708 8.357C3.13881 8.21368 3.13794 8.56702 3.24241 8.05519C3.24549 8.04133 3.19454 8.01817 3.1967 7.98906C3.20116 7.93428 3.26185 7.9563 3.26459 7.90769C3.26661 7.87416 3.24077 7.81978 3.25837 7.77751C3.26658 7.75782 3.28344 7.74085 3.31545 7.72996C3.41199 7.69726 3.4459 7.76663 3.43893 7.85523C3.43481 7.93171 3.40025 8.02313 3.3441 8.07086C3.40287 8.11147 3.47832 8.0232 3.55887 7.90686C3.71488 7.65544 3.88164 7.34348 3.89375 7.31644C3.9558 7.09443 3.78822 7.4216 3.73524 7.42234C3.7121 7.41866 3.46187 7.28177 3.57701 7.46217C3.61208 7.51359 3.73403 7.43251 3.72644 7.51363C3.71962 7.59446 3.65803 7.53115 3.65032 7.53342C3.62373 7.54176 3.61605 7.63078 3.60082 7.63594C3.36625 7.71952 3.12423 7.59039 3.58513 7.55107C3.5461 7.42201 3.31652 7.56856 3.31471 7.42817C3.31476 7.25298 3.48675 7.21425 3.50049 7.20224C3.67909 7.04379 3.37392 7.16613 3.58467 6.96267C3.69427 6.86616 3.57411 7.16611 3.7069 6.9903C3.71977 6.97393 3.7347 6.95364 3.75171 6.92885C3.92584 6.66509 3.77152 6.76759 3.66202 6.66438C3.63618 6.64007 3.6923 6.48122 3.5798 6.67358C3.60818 6.70098 3.64344 6.74016 3.66441 6.77273C3.62229 6.79516 3.49086 6.77659 3.42119 6.77102C3.39725 6.77133 3.37959 6.7736 3.37341 6.77913C3.25062 6.89404 3.3436 6.94204 3.19164 6.96041C3.33824 6.97039 3.21375 7.02315 3.21813 7.07237C3.23648 7.25252 3.35727 7.09481 3.09531 7.32987C3.16873 7.31771 3.23933 7.3099 3.31163 7.30195C3.29639 7.33662 3.28173 7.3715 3.26746 7.40644C3.12129 7.39904 3.05263 7.59488 3.00582 7.369C2.92888 7.48231 2.89724 7.56052 2.89943 7.62301C2.89977 7.66832 2.9172 7.70522 2.94889 7.73971C2.96391 7.75594 2.95868 7.79052 2.94645 7.82849C2.97669 7.83174 3.06507 7.85532 3.07333 7.86499C3.14608 7.94913 2.95904 7.97142 2.90728 7.92325C2.89524 7.94832 2.88476 7.96812 2.88082 7.9749C2.85565 8.01841 2.83102 7.90796 2.79919 7.93961C2.78822 7.95026 2.75778 8.08746 2.73469 8.08288C2.5854 8.05364 2.75233 7.86758 2.54011 8.28186C2.67037 8.33023 2.69912 8.12002 2.82573 8.21326C2.9616 8.31241 2.7261 8.36535 2.90639 8.44227C2.87312 8.4426 2.84633 8.43946 2.80913 8.43742C2.84251 8.63177 2.68559 8.58849 2.63652 8.62726C2.5877 8.667 2.52935 8.7916 2.51424 8.84897C2.49589 8.90903 2.50785 8.93581 2.57566 8.87831C2.59884 8.86327 2.62939 8.83638 2.66675 8.79104C2.6616 8.83204 2.65191 8.87157 2.64121 8.90962C2.63465 8.93081 2.62859 8.95215 2.62356 8.97346C2.35488 8.87114 2.46271 8.87831 2.31194 9.17934C2.28033 9.24522 2.15078 9.23289 2.27654 9.34329C2.13538 9.29316 2.16616 9.52352 2.14507 9.53695C1.99742 9.6365 1.96382 9.1199 2.24096 9.13729C2.17102 9.02476 2.29849 9.06899 2.31529 8.97449C2.33283 8.88305 2.33418 8.83764 2.38014 8.78491C2.39675 8.77272 2.42408 8.75936 2.46976 8.73494C2.4327 8.66998 2.38961 8.73023 2.35087 8.77093C2.26342 8.89958 2.18005 9.06028 2.20109 8.72953C2.20204 8.72068 2.20332 8.71124 2.20495 8.70123C2.1888 8.61449 2.2046 8.11939 2.43517 7.42317C2.53464 7.12949 2.67289 6.7476 2.92482 6.39005C3.13326 6.06094 3.36548 5.60413 3.50904 5.39442C3.52798 5.36518 3.5474 5.33589 3.56727 5.30673C3.96389 4.70186 4.33854 4.21955 4.80638 3.79702C5.08456 3.55457 5.29698 3.43996 5.54554 3.3034C5.64132 3.24385 6.31125 2.90987 6.23865 3.12546C6.22775 3.15554 5.97008 3.34632 6.26806 3.34644C6.18649 3.30136 6.30932 3.19009 6.31823 3.17753C6.5217 2.88885 6.34325 2.9165 6.78493 2.72758ZM8.59138 3.61263C7.97927 3.78415 8.45373 3.7363 8.40508 4.012C8.48175 3.98788 8.5625 3.96168 8.64526 3.93267C8.61849 3.92593 8.59194 3.91902 8.56575 3.91182C8.56565 3.91185 8.56556 3.91188 8.56547 3.91191C8.57527 3.81222 8.58466 3.71218 8.59138 3.61263ZM17.946 2.33674C17.924 2.36971 17.9023 2.40275 17.8782 2.43511C17.8003 2.42742 17.7223 2.42 17.6439 2.41249C17.6524 2.39027 17.6607 2.36781 17.6693 2.3456C17.7617 2.34358 17.8535 2.34177 17.946 2.33674ZM3.35281 8.15555C3.23506 8.22778 3.39087 8.26543 3.28104 8.38043C3.3995 8.39655 3.51593 8.41058 3.63315 8.42719C3.64565 8.32464 3.60943 8.28881 3.67074 8.19855C3.63088 8.19746 3.59055 8.19722 3.55039 8.19666C3.55241 8.21623 3.55514 8.23761 3.55665 8.25646C3.44607 8.25126 3.48771 8.07667 3.35269 8.15513C3.35273 8.15527 3.35277 8.15541 3.35281 8.15555ZM3.03129 9.26467C2.99736 9.304 2.87612 9.49442 2.91601 9.53836C3.04546 9.67186 3.12342 9.08954 3.13278 9.53944C3.15567 9.54426 3.17698 9.5527 3.19908 9.55933C3.22906 9.48776 3.25916 9.41989 3.29005 9.35803C3.20294 9.32847 3.1192 9.29341 3.03129 9.26467ZM6.63834 4.39031C6.54979 4.41564 6.22166 4.67496 6.38962 4.70599C6.43657 4.71537 6.5308 4.49842 6.59858 4.47323C6.64158 4.45707 6.63138 4.55351 6.69942 4.48721C6.68015 4.45611 6.66053 4.42079 6.63822 4.39064C6.63826 4.39053 6.6383 4.39042 6.63834 4.39031ZM6.58673 3.88401C6.50669 3.93722 6.42782 3.99531 6.34943 4.05128C6.45266 4.105 6.54961 3.99226 6.61295 4.1088C6.59403 4.12875 6.5752 4.14869 6.55642 4.16875C6.52628 4.15108 6.4964 4.13331 6.46623 4.11576C6.42501 4.21581 6.48433 4.22586 6.34185 4.27395C6.51305 4.41216 6.56924 4.5019 6.71301 4.21109C6.71584 4.3296 6.90398 4.63114 6.92523 4.34412C6.92977 4.29053 6.81722 4.30727 6.81298 4.30112C6.75875 4.22386 6.78978 4.14447 6.73675 4.07232C6.7127 4.03966 6.6512 4.06868 6.61865 4.02315C6.60293 4.0008 6.63014 3.90377 6.58673 3.88401ZM6.95096 4.23553C6.94814 4.29838 7.09049 4.38075 7.15626 4.32276C7.26007 4.23209 7.0192 4.19777 6.95096 4.23553ZM17.9465 2.3366C17.9463 2.33664 17.9461 2.33669 17.946 2.33674C17.946 2.33661 17.9461 2.33649 17.9462 2.33636C17.9463 2.33644 17.9464 2.33652 17.9465 2.3366ZM3.21335 9.00187C3.22166 9.05695 3.20471 9.12261 3.19788 9.17554C3.20104 9.19911 3.2114 9.21861 3.24258 9.2299C3.21867 9.24654 3.19475 9.26529 3.17072 9.2852C3.19203 9.29344 3.21348 9.30147 3.23457 9.30964C3.25441 9.27783 3.27452 9.2482 3.29454 9.22172C3.33773 9.14891 3.37224 9.08113 3.40302 9.0176C3.33992 9.01267 3.27708 9.006 3.21335 9.00187ZM2.83879 9.99885C2.8024 10.1238 2.92743 10.0406 2.96976 10.0795C2.98848 10.0965 2.98601 10.1271 2.98355 10.1563C2.98135 10.1892 2.9797 10.2197 3.02027 10.2216C3.02499 10.2038 3.02977 10.1861 3.03469 10.1681C3.05024 10.1102 3.06504 10.0537 3.07934 9.99998C2.99896 10.0018 2.91842 9.99803 2.83873 9.9991C2.83875 9.99902 2.83877 9.99893 2.83879 9.99885ZM10.8667 2.9216C10.7699 2.92612 10.788 2.84043 10.6306 2.97801C10.6308 2.97797 10.6309 2.97794 10.6311 2.9779C10.8215 2.99558 11.0576 2.98344 11.216 2.86605C11.0814 2.82206 11.0178 2.91337 10.8667 2.9216ZM3.66536 7.98181C3.61982 7.92742 3.51499 8.04667 3.55874 8.09923C3.62927 8.17996 3.73445 8.0598 3.66536 7.98181ZM14.1935 1.8077C14.3202 1.61084 14.0581 1.40244 13.792 1.51022C13.7693 1.51948 13.9459 1.57181 13.8963 1.61192C13.8914 1.61581 13.7958 1.61613 13.7745 1.64419C13.7525 1.6723 13.7806 1.73308 13.7436 1.76138C13.6797 1.81059 13.5222 1.73658 13.4766 1.80057C13.471 1.80899 13.5703 1.885 13.5766 1.88782C13.6755 1.93128 13.7601 1.81751 13.776 1.81589C13.8513 1.80799 13.8453 1.89389 13.8654 1.91292C13.9026 1.94876 13.9657 1.90803 13.9698 1.91066C14.0885 1.98012 13.8241 1.9709 13.7911 2.00406C13.7002 2.09275 13.7917 2.16352 13.5709 2.22578C13.5497 2.23166 13.2981 2.24628 13.6224 2.31731C13.022 2.56467 13.9365 2.40537 14.046 2.36351C14.0921 2.34117 14.0172 2.26297 14.0443 2.22515C14.1065 2.13857 14.2208 2.11951 14.2066 2.00193C14.1741 1.75474 14.03 1.923 13.924 1.88642C13.9325 1.83205 13.9345 1.77934 13.952 1.72574C13.9239 1.79777 14.1838 1.82225 14.1935 1.80819C14.1935 1.80803 14.1935 1.80787 14.1935 1.8077ZM12.5875 2.23352C12.4336 2.1774 12.4637 2.33138 12.3212 2.25982C12.2251 2.41463 12.45 2.37501 12.478 2.37972C12.6042 2.39944 12.6202 2.55171 12.7406 2.48923C12.6858 2.40486 12.6395 2.31847 12.5875 2.23352ZM13.8361 2.17214C13.7456 2.25649 13.9158 2.24592 13.9233 2.26092C14.0061 2.41695 13.4976 2.41475 13.8361 2.17214ZM6.00555 4.3624C5.96114 4.38148 6.02533 4.43226 6.00004 4.47274C5.97578 4.51212 5.82072 4.53172 5.85021 4.56965C5.87979 4.60581 6.15311 4.58251 5.95859 4.73391C5.97964 4.75199 5.98804 4.77016 6.00417 4.78837C6.05944 4.75401 6.11795 4.72058 6.17834 4.68709C6.10796 4.63905 6.03363 4.58919 5.96324 4.5452C5.96679 4.47207 6.02561 4.52836 6.02745 4.52726C6.02741 4.52719 6.02737 4.52712 6.02733 4.52705C6.08778 4.48477 6.10673 4.31964 6.00555 4.3624ZM9.64049 3.08085C9.59747 2.89496 9.55631 3.1304 9.52637 3.1663C9.49454 3.20207 9.4172 3.15636 9.46595 3.22535C9.54457 3.25494 9.64361 3.10168 9.64042 3.08062C9.64044 3.0807 9.64046 3.08078 9.64049 3.08085ZM11.8234 2.34805C11.722 2.41728 11.7514 2.45964 11.6129 2.44006C11.6308 2.48269 11.6486 2.5264 11.6657 2.56858C11.7571 2.54438 11.7213 2.41556 11.8547 2.44222C11.8766 2.44699 11.8542 2.55958 11.9382 2.50877C11.9013 2.45776 11.8621 2.40105 11.8234 2.34805ZM11.3256 2.67212C11.4575 2.62114 11.4465 2.2331 11.2529 2.47374C11.2242 2.50961 11.2258 2.71066 11.3256 2.67212ZM7.1565 3.80309C6.93368 3.8859 7.20561 3.8354 7.28407 3.86523C6.79574 4.12099 7.33578 3.82507 7.45772 3.98259C7.49881 3.90743 7.56957 3.74607 7.42782 3.76703C7.36813 3.77625 7.40952 3.82062 7.40608 3.82175C7.30172 3.84913 7.27828 3.75851 7.1565 3.80309ZM12.8391 2.19272C12.8305 2.19665 12.8527 2.25855 12.8256 2.27492C12.7984 2.29122 12.7279 2.25477 12.7264 2.29466C12.7248 2.33483 12.8591 2.34896 12.8958 2.31507C12.9323 2.28095 12.9175 2.15778 12.8391 2.19272ZM11.9143 2.16005C11.8087 2.22604 12.0352 2.42548 12.0579 2.42142C12.2721 2.37549 11.9226 2.23322 11.9143 2.16005ZM7.52444 3.22261C7.29502 3.44052 7.57224 3.55557 7.78191 3.61064C7.7888 3.5939 7.79573 3.57714 7.80252 3.56049C7.80869 3.54529 7.81493 3.53015 7.8211 3.51514C7.81647 3.53319 7.81121 3.55149 7.80587 3.56955C7.76419 3.70455 7.71342 3.82562 7.86498 3.72925C7.89576 3.70932 7.93605 3.67985 7.99054 3.63894C7.77136 3.67613 7.9306 3.57688 7.92995 3.56806C7.89906 3.44193 7.82472 3.42146 7.74674 3.40977C7.65435 3.39552 7.55724 3.39172 7.52469 3.22252C7.5246 3.22255 7.52452 3.22258 7.52444 3.22261ZM13.2273 2.21363C13.347 2.19835 13.6601 2.12571 13.5024 2.0138C13.4084 2.07918 13.3176 2.14573 13.2273 2.21363ZM3.80125 6.18756C3.68653 6.23721 3.63807 6.31754 3.57541 6.42291C3.72192 6.38549 3.69261 6.45296 3.69311 6.49852C3.69368 6.5674 3.76672 6.44878 3.77269 6.45194C3.85366 6.50649 3.81845 6.59098 3.926 6.41653C3.92783 6.47754 3.93006 6.53819 3.93089 6.59946C4.01935 6.46934 4.09246 6.47161 4.21108 6.42945C3.99894 6.40949 4.1667 6.36567 4.14803 6.2188C4.13907 6.14461 3.85979 6.16192 3.80104 6.18789C3.80111 6.18778 3.80118 6.18767 3.80125 6.18756ZM7.22842 3.29778C7.21276 3.34106 7.20537 3.39412 7.1931 3.44147C7.16485 3.45705 7.13745 3.47188 7.10941 3.48755C7.09416 3.46105 7.07896 3.43302 7.06351 3.40787C7.02162 3.41575 7.05289 3.44847 7.04298 3.4569C7.04292 3.45675 7.04286 3.4566 7.0428 3.45645C6.90022 3.57702 6.83226 3.59987 6.66612 3.57102C6.70395 3.65587 6.74177 3.74071 6.77959 3.82556C6.80426 3.80487 6.82927 3.78436 6.85426 3.76398C6.8493 3.71165 6.84452 3.65923 6.83981 3.60684C6.88397 3.61765 6.92768 3.62858 6.9715 3.63979C6.9911 3.61189 7.01556 3.581 7.03181 3.55519C7.26465 3.73877 6.8964 3.70289 6.93663 3.80368C6.96254 3.86721 7.25992 3.73791 7.28569 3.67661C7.2893 3.66761 7.15061 3.51528 7.29965 3.56338C7.32332 3.57101 7.48448 3.95661 7.4783 3.59475C7.47797 3.54325 7.32227 3.32518 7.22842 3.29778ZM6.06113 3.67166C6.35126 3.82192 5.59672 3.89782 5.96886 3.9499C5.95141 4.09882 5.96618 4.08886 6.09145 4.14575C6.10244 4.15095 6.06734 4.20795 6.07382 4.2094C6.17072 4.22549 6.23962 4.15451 6.28968 4.25183C6.3055 4.23722 6.32069 4.22372 6.33688 4.20907C6.21216 4.15649 6.30525 4.03176 6.31706 3.92943C6.32224 3.88303 6.26518 3.89741 6.26895 3.85716C6.27034 3.84237 6.3542 3.82966 6.34161 3.79573C6.31259 3.71914 6.21866 3.64151 6.11246 3.62684C6.11243 3.62676 6.11239 3.62669 6.11236 3.62662C6.09476 3.6413 6.07863 3.6566 6.06113 3.67166ZM9.84937 2.40186C9.9162 2.53796 10.0461 2.54907 9.83086 2.6772C9.84952 2.7025 9.86839 2.72752 9.88692 2.75291C9.92503 2.74069 9.96229 2.72895 10.0014 2.71719C10.0216 2.26403 10.3542 2.69389 10.1438 2.42435C10.1209 2.39506 10.0345 2.45333 10.1078 2.34303C10.1077 2.34298 10.1075 2.34293 10.1074 2.34288C9.98258 2.40014 9.97873 2.45486 9.84937 2.40186ZM9.01157 2.79426C8.99345 2.84701 8.98946 2.88584 8.99371 2.91299C8.9972 2.93627 9.00644 2.95134 9.01999 2.95969C9.1067 3.01498 9.43417 2.78288 9.33087 2.75622C9.31435 2.7497 9.05764 2.93432 9.01157 2.79426ZM11.294 1.82262C11.1602 1.86092 11.2049 2.02315 11.237 2.07622C11.2691 2.12945 11.3405 2.04135 11.3553 2.04658C11.4033 2.064 11.3289 2.11029 11.3918 2.13507C11.3992 2.1379 11.4349 2.13745 11.4783 2.13546C11.5577 2.13118 11.6615 2.13029 11.6673 2.12421C11.7178 2.07117 11.5984 1.95682 11.6114 1.93751C11.6585 1.8725 11.7526 1.9269 11.7549 1.85145C11.7614 1.68964 11.6433 1.88209 11.6198 1.89123C11.5455 1.91683 11.5305 1.82954 11.4655 1.82912C11.4332 1.82922 11.409 1.83974 11.3864 1.85173C11.3664 1.86304 11.3478 1.87566 11.3232 1.88035C11.3071 1.88344 11.3009 1.82095 11.294 1.82262ZM10.9725 2.30137C11.0689 2.13701 10.6979 2.11064 10.6691 2.14891C10.5786 2.26829 10.9244 2.38166 10.9725 2.30137ZM6.65897 3.83382C6.74142 3.69511 6.42906 3.75502 6.36504 3.82795C6.39669 3.85481 6.63113 3.88087 6.65897 3.83382ZM7.60091 3.19418C7.52188 3.24726 7.63215 3.33806 7.72961 3.36349C7.76136 3.37151 7.79165 3.37307 7.81457 3.36421C7.8262 3.21588 7.782 3.25923 7.71618 3.27726C7.70895 3.27924 7.70291 3.27914 7.69777 3.27745C7.65726 3.26345 7.67424 3.14554 7.60091 3.19418ZM12.8475 1.70268C12.8222 1.70412 12.4198 1.86794 12.6649 1.88456C12.6759 1.88526 12.7811 1.86605 12.8692 1.8449C12.931 1.83014 12.9842 1.81508 12.9924 1.80541C13.0316 1.75853 12.9192 1.70176 12.8508 1.70261C12.8497 1.70262 12.8486 1.70264 12.8475 1.70268ZM8.09476 2.81496C8.0745 2.94606 8.01386 2.9638 8.11186 3.07776C8.11194 3.07773 8.11202 3.07771 8.1121 3.07768C7.97293 3.16717 7.87793 2.8997 7.84579 2.91654C7.73206 2.97616 7.90865 3.13052 7.85514 3.21801C8.00751 3.1023 7.99987 3.24858 8.13112 3.21524C8.16081 3.20781 8.24943 3.09275 8.24852 3.03923C8.24792 2.98588 8.1427 2.86156 8.09476 2.81496ZM13.4449 1.60864C13.2956 1.57547 13.1839 1.77905 13.3841 1.79077C13.4807 1.79735 13.5356 1.62922 13.4449 1.60864ZM2.32973 9.23379C2.38452 9.22673 2.4393 9.21965 2.49408 9.21248C2.48836 9.26789 2.48423 9.32302 2.48108 9.37779C2.47772 9.33279 2.47526 9.28745 2.47376 9.24142C2.4263 9.33259 2.32527 9.35372 2.32964 9.23405C2.32967 9.23396 2.3297 9.23388 2.32973 9.23379ZM1.56935 12.6845C1.51534 12.7177 1.64857 12.8244 1.66177 12.8164C1.76153 12.7518 1.64455 12.6367 1.56935 12.6845ZM6.28856 3.50488C6.12641 3.55908 6.33722 3.72739 6.43582 3.69962C6.35939 3.68412 6.38033 3.47485 6.28856 3.50488ZM1.7821 11.4373C1.80639 11.4284 1.83069 11.4195 1.85548 11.4092C1.81284 11.4519 1.79149 11.456 1.7821 11.4373ZM12.7546 1.49813C12.728 1.48279 12.5441 1.49025 12.522 1.51626C12.4766 1.57081 12.6363 1.68623 12.7144 1.63476C12.7232 1.62919 12.7813 1.51355 12.7542 1.49818C12.7543 1.49816 12.7544 1.49815 12.7546 1.49813ZM2.17482 9.43448C2.17715 9.43479 2.17925 9.43552 2.18109 9.43658C2.17904 9.43583 2.17686 9.4353 2.17482 9.43448ZM0.775891 16.3247C0.779713 16.3239 0.783481 16.3236 0.787062 16.3239C0.783517 16.3241 0.779767 16.3247 0.775891 16.3247ZM11.3461 1.52325C11.3158 1.48049 11.2835 1.4555 11.2542 1.44328C11.1682 1.39155 11.1315 1.50404 11.245 1.56161C11.249 1.56354 11.2681 1.55543 11.2877 1.54654C11.312 1.53622 11.3371 1.52566 11.3461 1.52325ZM350.317 2.8242C349.734 2.79937 349.109 2.79307 348.478 2.78599C347.608 2.76962 346.797 2.73344 345.97 2.71245C345.935 2.71294 345.832 2.69847 345.797 2.6928C345.602 2.65279 345.41 2.61654 345.221 2.58511C345.011 2.54857 344.917 2.54461 344.563 2.4832L344.635 2.49529C344.811 2.51056 344.739 2.50086 344.755 2.50294C344.754 2.50284 344.74 2.50294 344.732 2.50301C344.722 2.503 344.71 2.50306 344.695 2.50319C344.669 2.50335 344.616 2.50424 344.596 2.50433C344.543 2.5048 344.461 2.50607 344.402 2.50671C344.285 2.50795 344.141 2.50984 344.021 2.51081C343.751 2.51371 343.785 2.44558 343.71 2.43889C343.51 2.42028 343.399 2.50286 343.257 2.50127C342.563 2.49397 341.917 2.50225 341.238 2.49759C340.535 2.493 340.863 2.27405 340.618 2.23071C340.136 2.14589 340.551 2.40549 340.366 2.47235C339.826 2.47262 339.27 2.46029 338.727 2.44722C338.86 2.41768 338.992 2.38871 339.125 2.36103C338.889 2.36273 338.547 2.33127 338.942 2.24785C338.854 2.23097 338.771 2.21061 338.68 2.19429C338.658 2.29416 338.238 2.31516 338.202 2.3751C338.165 2.43505 338.401 2.41422 338.399 2.4194C338.387 2.49305 337.413 2.42313 337.343 2.41713C337.158 2.40115 337.317 2.27326 337.159 2.28607C336.889 2.30802 337.076 2.55238 336.701 2.23145C336.559 2.3439 336.544 2.28826 336.359 2.28654C336.334 2.28637 336.355 2.34828 336.344 2.35025C336.067 2.40533 336.278 2.28242 336.276 2.27617C336.246 2.17003 335.952 2.2268 335.887 2.21855C335.094 2.11533 334.505 2.0471 333.672 2.04344C333.488 2.04287 332.939 2.10339 332.765 2.09062C332.595 2.07791 332.688 1.99789 332.593 1.96383C332.443 2.15405 332.327 2.17814 331.984 2.0665C331.871 2.20536 331.883 2.09581 331.648 2.13014C331.457 2.15835 331.139 2.33105 330.908 2.19875C331.152 2.20479 331.133 2.13838 331.397 2.09025C331.491 2.07413 332.447 2.04162 332.365 1.9058C332.331 1.83475 332.011 1.91093 332 1.89797C331.925 1.82278 332.102 1.72206 332.26 1.75055C332.225 1.76728 332.176 1.78466 332.132 1.80165C332.487 1.88751 332.229 1.52346 332.509 1.83991C332.544 1.8787 332.532 1.92066 332.589 1.96124C332.6 1.94337 332.53 1.90211 332.589 1.89249C332.653 1.88266 332.757 1.96193 332.772 1.89192C332.793 1.79016 332.559 1.8373 332.536 1.8321C332.536 1.83272 332.535 1.83333 332.535 1.83395C332.368 1.78547 332.715 1.76856 332.724 1.7587C332.824 1.69259 332.752 1.64634 332.907 1.5895C332.998 1.55701 333.223 1.56748 333.305 1.55536C333.387 1.54298 333.257 1.49921 333.312 1.48722C333.368 1.47523 333.439 1.50935 333.506 1.49536C333.534 1.48923 333.531 1.43598 333.545 1.43368C333.692 1.40858 333.598 1.52246 333.728 1.51164C333.811 1.50455 334.098 1.39217 333.898 1.36761C333.992 1.35394 334.09 1.34301 334.182 1.33176C334.125 1.31768 334.058 1.30896 333.999 1.29214C334.185 1.31177 334.254 1.21832 334.367 1.20802C334.478 1.1978 334.583 1.30407 334.706 1.24679C334.964 1.12506 334.312 1.19793 334.234 1.18004C334.203 1.17303 334.319 1.0836 334.338 1.08057C334.419 1.0673 334.519 1.12553 334.584 1.12077C334.815 1.1033 334.945 1.01827 335.165 0.995074C335.902 0.916557 336.817 0.843001 337.517 0.803524C337.778 0.788894 337.938 0.874983 338.055 0.868787C338.329 0.854213 338.358 0.773952 338.598 0.762296C338.953 0.744764 339.458 0.798413 339.753 0.804273C339.961 0.808114 340.143 0.725704 340.196 0.722201C340.939 0.671777 341.841 0.645908 342.457 0.626365C342.746 0.617153 342.89 0.699149 342.946 0.694932C343.201 0.676558 343.138 0.604678 343.341 0.606075C343.448 0.606873 343.476 0.676876 343.491 0.679189C343.63 0.698435 343.652 0.605296 343.752 0.599354C343.927 0.589347 344.069 0.586463 344.253 0.585811C344.333 0.585847 344.416 0.586628 344.501 0.587939C344.541 0.588659 344.573 0.589707 344.626 0.59041C344.649 0.590855 344.669 0.591412 344.687 0.592075C344.693 0.592465 344.709 0.592621 344.729 0.592887C344.767 0.595371 344.696 0.586211 344.879 0.601934C344.893 0.604208 344.933 0.60986 344.946 0.613126C344.956 0.622331 345.143 0.652323 345.266 0.675159C345.401 0.699621 345.537 0.725206 345.673 0.750364C345.717 0.758741 345.707 0.798469 345.736 0.801418C345.861 0.813637 345.815 0.739673 345.946 0.759221C346.024 0.771055 346.102 0.785219 346.181 0.801175L346.019 0.782877C346.208 0.787701 346.399 0.800185 346.596 0.812111C346.623 0.813771 346.633 0.866749 346.696 0.868776C346.758 0.870773 346.807 0.82243 346.906 0.828527C347.162 0.844379 347.413 0.913382 347.682 0.92658C347.727 0.928707 347.784 0.867353 347.85 0.87046C348.05 0.879735 348.337 0.942283 348.507 0.951271C348.516 0.951717 348.525 0.952058 348.533 0.952284C349.131 0.968843 349.679 0.941904 350.257 0.964204C350.393 0.969746 350.512 1.03467 350.583 1.04013C350.745 1.05282 350.626 0.989605 350.792 1.0005C351.042 1.01739 351.302 1.04612 351.541 1.07886C352.004 1.14875 352.45 1.16511 353.089 1.35557C353.491 1.49006 353.852 1.62042 354.18 1.69368C354.347 1.73114 354.52 1.76985 354.7 1.81517C354.992 1.89235 355.335 1.95912 355.744 2.16804C355.928 2.25842 356.099 2.32251 356.278 2.39214C356.443 2.45564 356.459 2.53915 356.602 2.58677C356.701 2.61921 356.779 2.63222 356.853 2.64083C356.964 2.65051 357.06 2.64272 357.229 2.70297C357.444 2.78015 357.646 2.97108 357.865 3.06193C358.084 3.15375 358.224 3.11243 358.483 3.22847C358.697 3.32661 358.966 3.51611 359.23 3.69361C359.301 3.74155 359.374 3.79384 359.457 3.86521C359.967 4.28459 360.427 4.83222 360.778 5.29678C361.097 5.72216 361.295 6.09033 361.486 6.32886C361.771 6.69824 361.928 7.07219 362.054 7.36252C362.268 7.85767 362.378 8.44259 362.433 8.56083C362.618 8.97429 362.686 9.31887 362.751 9.63853C362.765 9.70603 362.777 9.77261 362.79 9.83307C362.871 10.2215 362.919 10.599 362.978 10.882C363.024 11.127 363.166 11.5411 363.172 12.0195C363.172 12.0417 363.171 12.0639 363.17 12.0859C363.168 12.1554 363.065 12.0606 363.108 12.2775C363.132 12.3933 363.228 12.5434 363.278 12.7924C363.324 13.0169 363.379 13.2378 363.446 13.4606C363.707 15.3931 363.471 16.6998 363.542 18.2594C363.625 20.9051 364.229 23.6408 363.469 25.8798C363.435 25.9791 363.2 25.9653 363.127 25.9095C363.166 25.847 363.213 25.771 363.261 25.7112C362.967 25.6661 363.039 25.6554 363.043 25.3618C363.047 25.169 362.934 25.3291 362.892 25.23C362.837 25.1107 362.667 24.4968 362.864 24.607C362.829 24.5682 362.796 24.5367 362.762 24.5016C362.716 24.0549 362.658 23.6329 362.594 23.1978C362.583 23.1234 362.523 23.1212 362.512 23.0435C362.482 22.8306 362.518 22.6734 362.509 22.455C362.504 22.3385 362.435 22.3249 362.437 22.1724C362.44 22.0204 362.533 22.0194 362.429 21.8154C362.313 21.9524 362.392 21.3469 362.383 21.1334C362.382 21.1021 362.274 20.8474 362.285 20.712C362.296 20.5758 362.362 20.3683 362.322 20.1584C362.303 20.0598 362.221 20.0006 362.215 19.8941C362.212 19.8192 362.284 19.7288 362.286 19.6341C362.289 19.5395 362.228 19.3351 362.226 19.2973C362.222 19.1617 362.274 19.311 362.276 19.2182C362.285 18.7722 362.308 18.2502 362.27 17.8112C362.265 17.7567 362.206 17.8326 362.204 17.8254C362.126 17.4578 362.207 17.654 362.26 17.5545C362.312 17.4586 362.275 16.7546 362.169 16.7508C362.301 16.7269 362.198 16.5754 362.194 16.5344C362.176 16.3743 362.291 16.4036 362.253 16.2523C362.239 16.1972 362.164 16.3063 362.165 16.2468C362.168 16.1047 362.289 15.9564 362.297 15.7651C362.299 15.7199 362.244 15.7018 362.243 15.6162C362.244 15.5301 362.3 15.1746 362.189 15.3437C362.275 15.1179 362.223 15.0879 362.215 14.8326C362.213 14.7721 362.299 14.6857 362.264 14.5528C362.252 14.5094 362.167 14.5151 362.162 14.4524C362.149 14.2921 362.229 14.145 362.209 13.9708C362.204 13.9241 362.189 13.8584 362.187 13.8636C362.073 13.5423 361.951 13.1989 361.914 12.8509C361.902 12.7372 361.991 12.7523 361.971 12.5908C361.967 12.5674 361.87 12.3814 361.866 12.2702C361.865 12.249 361.867 12.1995 361.869 12.1401C361.879 12.0433 361.874 11.8969 361.867 11.8562C361.851 11.7588 361.765 11.7623 361.766 11.7041C361.765 11.53 361.921 11.6288 361.7 11.4714C361.769 11.3773 361.724 11.2497 361.824 11.1795C361.817 11.1773 361.811 11.1748 361.805 11.1721C361.693 11.1213 361.775 11.0021 361.709 10.8757C361.64 10.7418 361.381 10.6728 361.632 10.5921C361.589 10.5322 361.484 10.2785 361.47 10.2374C361.448 10.1676 361.464 10.1532 361.478 10.1374C361.489 10.1242 361.498 10.11 361.483 10.0651C361.478 10.0477 361.433 10.0762 361.412 9.96152C361.402 9.87932 361.267 9.37122 361.257 9.35036C361.21 9.0117 361.369 9.50233 361.435 9.57544C361.425 9.59266 361.415 9.60962 361.406 9.62758C361.424 9.78985 361.509 9.67351 361.515 9.59426C361.521 9.51472 361.434 9.39805 361.449 9.33033C361.456 9.29614 361.589 9.269 361.603 9.36513C361.611 9.25529 361.695 9.37533 361.72 9.32499C361.738 9.28893 361.686 9.0813 361.609 8.95447C361.571 8.8917 361.538 8.84257 361.514 8.85085C361.527 8.89033 361.544 8.93355 361.564 8.97571C361.587 9.02212 361.607 9.06985 361.622 9.11337C361.58 9.19926 361.4 9.17807 361.258 9.12211C361.117 9.02712 361.018 8.86536 361.053 8.70005C361.109 8.43856 361.312 8.77637 361.06 8.28477C361.078 8.36439 361.086 8.43529 361.101 8.51036C361.011 8.54415 361.079 8.39623 361.032 8.34552C361.01 8.32122 360.996 8.51622 360.93 8.37011C361.022 8.20112 360.861 8.14037 360.781 7.94841C360.826 7.9928 360.87 8.03996 360.914 8.08936C360.876 7.70216 361.213 8.5137 361.007 7.81318C361.006 7.80946 361.004 7.8057 361.003 7.8019C361.005 7.80548 361.006 7.80905 361.008 7.81263C361.046 7.89051 361.076 7.97154 361.111 8.05262C361.144 7.99339 361.307 8.01374 361.323 7.96436C361.35 7.87786 361.313 7.787 361.269 7.7004C361.247 7.65703 361.223 7.61394 361.207 7.57118C361.186 7.51645 361.238 7.53344 361.236 7.52887C361.207 7.45335 361.161 7.49362 361.128 7.43108C361.089 7.3527 361.017 7.09421 360.986 7.0603C360.914 6.97435 360.91 7.19086 360.896 7.18501C360.815 7.15402 360.779 7.01538 360.722 7.06271C360.961 7.29818 361.257 8.20661 360.805 7.4803C360.795 7.74122 360.618 7.7282 360.472 7.4768C360.345 7.28058 360.479 7.37769 360.472 7.23434C360.471 7.22798 360.453 7.18885 360.424 7.14389C360.349 7.03378 360.256 6.88802 360.221 6.89521C360.326 6.8428 360.344 6.68065 360.491 6.68449C360.512 6.68525 360.594 6.8181 360.643 6.71813C360.668 6.6681 360.714 6.54623 360.773 6.52206C360.72 6.52045 360.661 6.51982 360.606 6.51742C360.471 6.33018 360.494 6.27613 360.493 6.12454C360.468 6.14758 360.412 6.32313 360.351 6.14782C360.349 6.13856 360.388 6.10482 360.358 6.01302C360.297 5.8278 360.283 5.78202 360.491 5.82428C360.42 5.75411 360.368 5.69108 360.327 5.63103C360.208 5.46019 360.207 5.31016 359.984 5.08868C359.886 5.27171 360.012 5.3529 360.257 5.62141C360.229 5.66101 360.198 5.69369 360.17 5.73399C359.966 5.28799 360.099 5.48248 359.859 5.32183C359.801 5.28175 359.588 4.98914 359.567 5.16466C359.563 5.20521 359.704 5.37386 359.651 5.38419C359.641 5.38524 359.455 5.19519 359.448 5.17034C359.362 4.85056 359.815 5.16453 359.192 4.60457C359.174 4.58983 359.13 4.62425 359.092 4.59946C359.021 4.55289 359.064 4.50487 358.999 4.46534C358.984 4.45646 358.965 4.44935 358.945 4.44205C358.871 4.41272 358.784 4.39412 358.745 4.293C358.68 4.13466 358.87 4.15848 359.063 4.30922C359.138 4.36866 359.205 4.44299 359.24 4.51021C359.297 4.48855 359.242 4.37901 359.126 4.23815C358.75 3.82319 358.025 3.51467 357.955 3.48977C357.542 3.37742 358.198 3.63458 358.206 3.70264C358.21 3.72988 358.075 3.97842 358.317 3.89604C358.389 3.87225 358.224 3.70591 358.357 3.74037C358.489 3.77579 358.403 3.82536 358.409 3.8349C358.428 3.86733 358.569 3.90961 358.579 3.92953C358.735 4.2314 358.575 4.44553 358.451 3.91554C358.267 3.9184 358.518 4.22115 358.316 4.18022C358.075 4.13379 357.977 3.94498 357.953 3.92614C357.659 3.71089 357.952 4.05525 357.582 3.81953C357.375 3.69005 357.967 3.85267 357.454 3.63871C357.022 3.46574 357.228 3.62581 357.139 3.75009C357.118 3.77935 356.87 3.7226 357.191 3.83984C357.215 3.8077 357.252 3.76754 357.286 3.74307C357.353 3.80233 357.402 4.03696 357.439 4.06105C357.622 4.17874 357.655 4.08354 357.719 4.24512C357.693 4.08865 357.792 4.2225 357.853 4.22208C358.081 4.22284 357.864 4.06563 358.207 4.3947C358.185 4.31246 358.165 4.23398 358.141 4.15291C358.191 4.17672 358.242 4.20105 358.292 4.2263C358.303 4.38404 358.554 4.5139 358.264 4.5003C358.513 4.68836 358.603 4.73116 358.718 4.69069C358.72 4.68984 358.722 4.68934 358.725 4.68914C358.749 4.68977 358.786 4.71372 358.824 4.74634C358.836 4.71754 358.887 4.641 358.901 4.63883C359.028 4.62142 359.002 4.83157 358.926 4.84855C358.952 4.87791 358.972 4.90227 358.979 4.91103C359.021 4.9665 358.884 4.91367 358.909 4.96705C358.918 4.98386 359.062 5.1123 359.047 5.1319C358.949 5.25506 358.827 4.94655 359.175 5.4711C359.293 5.39228 359.074 5.19143 359.233 5.14912C359.408 5.10522 359.358 5.37389 359.531 5.27811C359.515 5.30931 359.498 5.33105 359.478 5.36342C359.711 5.51644 359.584 5.62165 359.605 5.70654C359.623 5.77895 359.716 5.9285 359.793 6.02617C359.871 6.1262 359.935 6.16884 359.865 5.97287C359.851 5.93719 359.833 5.89432 359.809 5.84289C359.842 5.87548 359.873 5.90931 359.904 5.94368C359.938 5.98004 359.97 6.01764 360.003 6.05448C359.776 6.23853 359.841 6.11461 360.046 6.5235C360.091 6.61446 360.002 6.71154 360.184 6.71617C360.05 6.78379 360.299 6.9994 360.305 7.03442C360.318 7.26614 359.776 6.74954 359.965 6.54587C359.819 6.50629 359.934 6.43419 359.853 6.34221C359.76 6.23753 359.72 6.21669 359.691 6.10185C359.681 6.07093 359.672 6.03405 359.663 5.98845C359.581 5.95935 359.608 6.03281 359.657 6.12668C359.737 6.28716 359.882 6.52653 359.572 6.28462C359.553 6.2711 359.532 6.25441 359.51 6.23581C359.264 6.01839 358.87 5.54633 358.33 5.1337C357.886 4.84566 356.849 4.45259 356.255 4.25648C356.012 4.1803 355.695 4.09738 355.509 4.0282C355.276 3.94628 355.054 3.8472 354.858 3.74327C354.631 3.63523 354.188 3.54651 353.786 3.46799C353.316 3.37203 352.917 3.23346 352.522 3.10707C352.441 3.08069 352.283 3.04754 352.103 3.01913C352.03 3.00515 351.572 2.95373 351.308 2.87761C351.183 2.83923 351.121 2.79689 351.196 2.74985C351.208 2.74295 351.268 2.73729 351.328 2.726C351.438 2.70696 351.54 2.66857 351.348 2.56833C351.337 2.56242 351.326 2.55632 351.313 2.55002C351.378 2.63421 351.156 2.65547 351.139 2.66181C350.716 2.79979 350.96 2.85909 350.317 2.8242ZM348.347 1.32418C348.406 1.32814 348.457 1.33103 348.501 1.33292C349.155 1.36035 348.594 1.24097 348.772 1.01487C348.682 1.01277 348.597 1.01085 348.506 1.00887C348.482 1.00832 348.457 1.00768 348.431 1.00698C348.456 1.02114 348.482 1.03521 348.506 1.04922C348.509 1.05104 348.513 1.05287 348.516 1.05469C348.516 1.0547 348.517 1.0547 348.517 1.0547C348.513 1.06043 348.509 1.06616 348.505 1.07189C348.455 1.15627 348.401 1.24034 348.347 1.32418ZM333.74 1.21608C333.773 1.18271 333.806 1.14928 333.843 1.1165C333.96 1.1229 334.086 1.12882 334.2 1.13531C334.187 1.15766 334.174 1.18025 334.161 1.20259C334.021 1.20603 333.877 1.20948 333.74 1.21608ZM359.358 4.57618C359.417 4.76342 359.523 4.6406 359.627 4.8634C359.696 4.76341 359.76 4.6615 359.825 4.55899C359.684 4.43358 359.623 4.43491 359.499 4.27365C359.49 4.31725 359.48 4.36134 359.47 4.40446C359.499 4.42162 359.53 4.44018 359.558 4.45794C359.518 4.56722 359.285 4.35992 359.358 4.57592C359.358 4.576 359.358 4.57609 359.358 4.57618ZM360.512 5.93838C360.552 6.02703 360.69 6.35893 360.756 6.3701C360.985 6.42263 360.361 5.62937 360.881 6.17695C360.898 6.16171 360.92 6.15229 360.939 6.13996C360.876 6.02514 360.81 5.90531 360.737 5.77946C360.664 5.83596 360.585 5.88098 360.512 5.93838ZM351.618 1.47816C351.747 1.50563 352.431 1.51844 352.226 1.38466C352.163 1.34391 351.845 1.45506 351.737 1.43521C351.666 1.42209 351.756 1.35026 351.612 1.36268C351.613 1.39955 351.612 1.44004 351.619 1.47797C351.618 1.47803 351.618 1.4781 351.618 1.47816ZM351.301 1.92187C351.345 1.92271 351.388 1.92337 351.432 1.92406C351.533 1.92557 351.634 1.92571 351.735 1.92731C351.659 1.83938 351.5 1.84769 351.451 1.77762C351.44 1.76303 351.435 1.74509 351.435 1.72222C351.443 1.72131 351.451 1.7204 351.458 1.7195C351.491 1.7155 351.523 1.71144 351.556 1.70735C351.582 1.73981 351.607 1.77221 351.633 1.80459C351.764 1.74863 351.694 1.70364 351.921 1.75321C351.817 1.55598 351.796 1.44786 351.481 1.54556C351.45 1.5547 351.416 1.56584 351.379 1.579C351.468 1.48124 351.442 1.11986 351.184 1.34537C351.137 1.38724 351.31 1.43812 351.311 1.44602C351.326 1.54134 351.223 1.58883 351.242 1.6793C351.25 1.72007 351.354 1.73215 351.363 1.7888C351.367 1.81627 351.259 1.88024 351.301 1.92187ZM351.065 1.42204C351.117 1.37072 350.97 1.22171 350.829 1.2386C350.612 1.26528 350.94 1.41489 351.065 1.42204ZM333.739 1.21623C333.739 1.21618 333.74 1.21613 333.74 1.21608C333.74 1.21621 333.74 1.21633 333.739 1.21646C333.739 1.21638 333.739 1.21631 333.739 1.21623ZM360.284 5.49971C360.323 5.52144 360.359 5.55343 360.393 5.58214C360.453 5.63687 360.502 5.68123 360.536 5.64764C360.557 5.70345 360.576 5.75873 360.594 5.81288C360.613 5.79991 360.631 5.78648 360.65 5.77363C360.603 5.68653 360.552 5.59746 360.495 5.50607C360.462 5.45136 360.429 5.39628 360.394 5.34073C360.358 5.39332 360.319 5.44464 360.284 5.49971ZM361.206 6.96648C361.308 7.16236 361.308 6.95097 361.375 6.96916C361.445 6.9898 361.498 7.18573 361.551 7.13326C361.497 7.01497 361.432 6.88711 361.357 6.76266C361.311 6.83651 361.257 6.89937 361.206 6.96686C361.206 6.96673 361.206 6.96661 361.206 6.96648ZM344.701 0.964853C344.745 0.969372 344.709 0.96828 344.83 0.98348C344.838 0.9848 344.861 0.988082 344.869 0.989979C344.895 1.02414 344.888 1.06639 345.116 1.01831C345.116 1.01828 345.116 1.01826 345.116 1.01823C345.035 0.984254 344.913 0.947236 344.882 0.92444C344.874 0.922305 344.847 0.91861 344.839 0.917124C344.63 0.899056 344.693 0.901682 344.614 0.896774C344.551 0.893908 344.526 0.891876 344.473 0.892749C344.36 0.89472 344.294 0.904249 344.195 0.927194C344.369 1.00568 344.489 0.934477 344.701 0.964853ZM359.134 4.05562C359.087 4.05801 359.118 4.11492 359.174 4.18349C359.217 4.24161 359.283 4.30144 359.327 4.30126C359.432 4.30148 359.355 4.158 359.251 4.09747C359.21 4.07042 359.167 4.05418 359.134 4.05562ZM339.38 1.67765C339.185 1.87621 339.57 2.08045 339.968 1.97483C340.003 1.96559 339.741 1.91242 339.817 1.8725C339.825 1.86856 339.967 1.86875 340.001 1.84092C340.036 1.81303 339.997 1.75191 340.053 1.72403C340.154 1.67524 340.378 1.75301 340.455 1.69067C340.464 1.68233 340.319 1.60347 340.311 1.60055C340.167 1.55458 340.031 1.6677 340.008 1.66912C339.893 1.67641 339.908 1.59056 339.878 1.57141C339.821 1.5354 339.725 1.57613 339.718 1.57352C339.542 1.50407 339.942 1.51315 339.996 1.48069C340.138 1.39322 340.003 1.32012 340.346 1.26265C340.38 1.25719 340.778 1.24996 340.274 1.16985C341.251 0.940497 339.78 1.07168 339.621 1.12051C339.548 1.14309 339.661 1.22099 339.618 1.25896C339.52 1.34578 339.346 1.36592 339.365 1.48343C339.407 1.73044 339.629 1.56089 339.787 1.59778C339.772 1.65216 339.767 1.70491 339.738 1.75854C339.783 1.6862 339.395 1.6627 339.38 1.67716C339.38 1.67732 339.38 1.67748 339.38 1.67765ZM341.851 1.31803C342.071 1.38628 342.05 1.23018 342.258 1.3135C342.433 1.16745 342.078 1.18766 342.036 1.18099C341.853 1.1511 341.852 0.998073 341.662 1.05098C341.731 1.13942 341.787 1.2292 341.851 1.31803ZM339.935 1.3122C340.08 1.22836 339.816 1.23786 339.804 1.22305C339.684 1.06579 340.474 1.07272 339.935 1.3122ZM352.435 1.90898C352.51 1.9279 352.475 1.84424 352.547 1.83514C352.62 1.82377 352.843 1.9467 352.85 1.90215C352.862 1.85189 352.427 1.62009 352.901 1.71191C352.892 1.6816 352.903 1.66411 352.901 1.63873C352.766 1.59978 352.638 1.57262 352.516 1.54982C352.57 1.63719 352.623 1.72979 352.671 1.81622C352.59 1.86073 352.569 1.77741 352.565 1.77654C352.565 1.77662 352.565 1.7767 352.565 1.77678C352.437 1.75808 352.268 1.86887 352.435 1.90898ZM346.551 1.32917C346.523 1.51852 346.706 1.31177 346.78 1.29065C346.853 1.26955 346.95 1.3433 346.915 1.26025C346.8 1.19978 346.554 1.30799 346.551 1.32942C346.551 1.32933 346.551 1.32925 346.551 1.32917ZM343.042 1.28167C343.232 1.22982 343.203 1.18122 343.423 1.23113C343.413 1.18543 343.403 1.13874 343.394 1.09375C343.22 1.09798 343.236 1.23098 343.02 1.18378C342.987 1.1759 343.055 1.06725 342.907 1.10596C342.952 1.16149 342.997 1.22332 343.042 1.28167ZM343.957 1.08419C343.733 1.09772 343.584 1.4741 343.974 1.29499C344.031 1.26826 344.115 1.07428 343.957 1.08419ZM350.476 1.6951C350.838 1.72664 350.43 1.64221 350.338 1.58178C351.189 1.5831 350.241 1.58957 350.164 1.39999C350.058 1.45004 349.862 1.56746 350.075 1.60788C350.163 1.62484 350.133 1.56717 350.138 1.56757C350.303 1.5881 350.279 1.67939 350.476 1.6951ZM341.467 1.33892C341.48 1.33571 341.457 1.27217 341.499 1.25806C341.541 1.24404 341.644 1.28585 341.652 1.24618C341.661 1.20626 341.46 1.18163 341.403 1.21226C341.345 1.24323 341.347 1.36732 341.467 1.33892ZM342.857 1.45503C343.033 1.40352 342.736 1.17581 342.694 1.17818C342.34 1.20124 342.869 1.37972 342.857 1.45503ZM349.627 2.06605C350.062 1.95816 349.751 1.73978 349.483 1.60836C349.446 1.6329 349.408 1.6575 349.373 1.68189C349.539 1.53138 349.83 1.38495 349.189 1.50543C349.538 1.54921 349.242 1.58438 349.242 1.59309C349.196 1.87556 349.717 1.75602 349.626 2.06604C349.626 2.06605 349.626 2.06605 349.627 2.06605ZM340.88 1.28924C340.696 1.29582 340.198 1.36017 340.434 1.47659C340.585 1.41408 340.733 1.3516 340.88 1.28924ZM356.423 3.62087C356.44 3.63776 356.456 3.65315 356.473 3.6674C356.577 3.75223 356.695 3.79607 356.844 3.85162C356.725 3.69357 356.833 3.72359 356.895 3.72145C356.99 3.71867 356.793 3.64309 356.795 3.63684C356.834 3.54746 356.967 3.58173 356.678 3.4729C356.761 3.46805 356.845 3.46379 356.928 3.46042C356.757 3.38927 356.702 3.32636 356.631 3.24176C356.61 3.21791 356.588 3.1926 356.562 3.16538C356.64 3.3956 356.492 3.21431 356.298 3.2527C356.201 3.27157 356.367 3.5619 356.423 3.62105C356.423 3.62099 356.423 3.62093 356.423 3.62087ZM350.071 2.11783C350.116 2.08514 350.159 2.04036 350.203 2.00292C350.25 2.00111 350.297 1.99983 350.344 1.99827C350.348 2.02882 350.351 2.06072 350.356 2.09015C350.418 2.10193 350.396 2.05862 350.414 2.05556C350.414 2.05572 350.414 2.05588 350.414 2.05605C350.677 2.01374 350.786 2.02799 350.979 2.14C350.987 2.04753 350.996 1.95506 351.005 1.86259C350.958 1.86693 350.911 1.8714 350.863 1.87614C350.835 1.9239 350.806 1.97169 350.778 2.01966C350.727 1.9882 350.675 1.95727 350.624 1.92648C350.58 1.94168 350.527 1.95756 350.49 1.97307C350.288 1.70201 350.767 1.90528 350.779 1.8C350.787 1.72909 350.291 1.70403 350.218 1.75064C350.208 1.75728 350.306 1.95457 350.13 1.84689C350.102 1.83006 350.107 1.41125 349.901 1.74352C349.872 1.79071 349.96 2.05329 350.071 2.11783ZM351.807 2.40828C351.573 2.10586 352.525 2.52354 352.13 2.24487C352.27 2.14122 352.249 2.13946 352.139 2.01332C352.129 2.00199 352.221 1.98112 352.214 1.97586C352.105 1.89872 351.958 1.91208 351.971 1.80344C351.939 1.80506 351.908 1.80636 351.875 1.8081C351.995 1.92728 351.775 1.96912 351.683 2.04545C351.641 2.07992 351.725 2.10263 351.689 2.13296C351.676 2.14402 351.56 2.10419 351.551 2.13937C351.53 2.2191 351.592 2.33806 351.711 2.41356C351.711 2.41364 351.711 2.41372 351.711 2.4138C351.743 2.41244 351.775 2.40984 351.807 2.40828ZM345.916 1.90198C345.902 1.76208 345.753 1.68428 346.004 1.67147C346.022 1.66504 346.05 1.65941 346.084 1.65366C346.067 1.62407 346.049 1.5947 346.032 1.56511C346.021 1.56528 346.01 1.56546 345.999 1.56563L346.025 1.56853C345.974 1.56044 345.926 1.55285 345.875 1.54491C345.61 1.93646 345.364 1.39754 345.525 1.73804C345.543 1.77506 345.69 1.76317 345.535 1.82839C345.535 1.8285 345.535 1.82861 345.536 1.82872C345.734 1.83551 345.77 1.78941 345.916 1.90198ZM347.29 1.85166C347.762 1.55723 346.658 1.65548 346.839 1.74479C346.856 1.75261 347.331 1.70246 347.29 1.85166ZM343.627 1.91084C343.834 1.91012 343.835 1.74213 343.815 1.68221C343.795 1.62211 343.657 1.68746 343.637 1.6785C343.575 1.6488 343.703 1.62422 343.623 1.5834C343.593 1.57027 343.236 1.52093 343.218 1.52871C343.127 1.57163 343.267 1.70608 343.241 1.72272C343.157 1.77722 343.029 1.70895 343.012 1.78317C342.962 1.94193 343.178 1.77038 343.215 1.7666C343.325 1.75584 343.318 1.84459 343.399 1.85993C343.475 1.87537 343.536 1.84323 343.61 1.84734C343.635 1.84871 343.616 1.91059 343.627 1.91084ZM344.301 1.53666C344.09 1.66971 344.613 1.79333 344.679 1.76247C344.853 1.67003 344.394 1.47298 344.301 1.53666ZM351.17 1.92206C351.014 1.97592 351.237 2.05993 351.41 2.09089C351.464 2.10029 351.513 2.10391 351.545 2.09915C351.537 2.08235 351.485 2.04567 351.421 2.00952C351.329 1.95724 351.212 1.9078 351.17 1.92206ZM349.507 2.06256C349.688 2.03838 349.452 1.82467 349.301 1.82477C349.21 1.95928 349.294 1.93398 349.393 1.94181C349.491 1.94972 349.365 2.08155 349.507 2.06256ZM341.377 1.82688C341.411 1.828 342.048 1.69573 341.68 1.66007C341.648 1.65755 341.213 1.6907 341.178 1.71278C341.112 1.75731 341.277 1.82386 341.377 1.82688ZM348.634 2.24684C348.732 2.13044 348.827 2.13369 348.741 1.99361C348.741 1.99361 348.741 1.9936 348.741 1.9936C348.985 1.95541 348.989 2.23918 349.042 2.23411C349.224 2.21642 349.055 2.01125 349.172 1.94732C348.904 2.00431 348.983 1.86982 348.78 1.85754C348.734 1.85485 348.551 1.93307 348.523 1.98326C348.495 2.03347 348.587 2.18678 348.634 2.24684ZM340.485 1.88367C340.702 1.92224 340.89 1.72512 340.593 1.70387C340.448 1.6934 340.352 1.86021 340.485 1.88367ZM360.109 6.56051C360.134 6.50614 360.158 6.45127 360.182 6.39533C360.234 6.45525 360.286 6.51568 360.339 6.57588C360.292 6.53157 360.246 6.48688 360.199 6.44216C360.263 6.57649 360.223 6.6835 360.109 6.56084C360.109 6.56073 360.109 6.56062 360.109 6.56051ZM361.827 11.3847C361.8 11.4647 361.98 11.5454 361.986 11.5265C362.035 11.385 361.865 11.2751 361.827 11.3847ZM351.402 2.40814C351.623 2.45533 351.529 2.24345 351.399 2.17703C351.386 2.17026 351.373 2.16504 351.359 2.16177C351.436 2.21405 351.297 2.34954 351.371 2.39644C351.379 2.40136 351.389 2.40533 351.402 2.40814ZM361.435 9.57544C361.449 9.54988 361.464 9.52399 361.477 9.49567C361.47 9.57443 361.454 9.59182 361.435 9.57544ZM341.483 2.03848C341.516 2.05613 341.803 2.06277 341.837 2.03864C341.913 1.98778 341.694 1.86015 341.564 1.90543C341.548 1.91035 341.446 2.02092 341.483 2.03846C341.483 2.03846 341.483 2.03847 341.483 2.03848ZM360.215 6.89836C360.217 6.89669 360.219 6.89566 360.221 6.89521C360.219 6.89617 360.217 6.89748 360.215 6.89836ZM362.158 16.7531C362.162 16.7516 362.166 16.7507 362.169 16.7508C362.166 16.7515 362.162 16.7527 362.158 16.7531ZM343.443 2.18579C343.541 2.41466 343.758 2.28499 343.582 2.17556C343.573 2.1698 343.46 2.18573 343.443 2.18579Z" fill="#419DDF"/>
</svg>
