<svg width="947" height="27" viewBox="0 0 947 27" fill="none" xmlns="http://www.w3.org/2000/svg">
<path d="M579.96 0.524234C617.26 0.516534 658.096 0.470268 695.546 0.530459C700.143 0.537813 699.829 0.638561 701.119 0.651859C704.645 0.688552 706.768 0.569712 709.338 0.578433C721.833 0.620425 733.52 0.637521 745.778 0.675662C758.404 0.714857 752.431 1.02802 756.819 1.10431C765.391 1.25372 758.099 0.845352 761.469 0.753666C771.295 0.778161 781.21 0.8224 791.054 0.867191C788.651 0.90532 786.247 0.942639 783.817 0.977971C788.108 0.986374 794.249 1.04941 787.064 1.15613C788.652 1.18553 790.134 1.21991 791.766 1.2486C792.214 1.09989 799.811 1.08792 800.505 0.99976C801.198 0.911572 796.927 0.931836 796.954 0.924138C797.237 0.814297 814.757 0.964442 816.021 0.976689C819.361 1.00928 816.433 1.19364 819.274 1.18177C824.161 1.16147 820.906 0.786357 827.521 1.28504C830.153 1.12304 830.383 1.20717 833.716 1.21839C834.155 1.21979 833.814 1.12599 834.007 1.12354C839.052 1.05392 835.174 1.22835 835.2 1.2378C835.658 1.39831 841.072 1.32696 842.212 1.34235C856.523 1.53411 867.008 1.66394 882.109 1.70838C885.373 1.71783 895.315 1.6527 898.473 1.68C901.589 1.70694 899.917 1.82259 901.548 1.87812C904.161 1.5999 906.655 1.56922 912.522 1.75251C914.707 1.54956 914.426 1.71327 918.611 1.67268C922.095 1.63905 928.166 1.39559 932 1.6031C927.604 1.5842 928.059 1.6839 923.11 1.74409C921.463 1.76402 904.285 1.76828 905.563 1.97572C906.23 2.08384 911.923 1.98453 912.143 2.00446C913.424 2.12065 910.246 2.26343 907.43 2.21339C908.132 2.18994 908.977 2.16616 909.732 2.14271C903.406 1.99748 907.756 2.55527 902.948 2.06782C902.354 2.00803 902.584 1.94568 901.604 1.88215C901.403 1.90843 902.602 1.97357 901.569 1.98524C900.515 1.997 898.516 1.87331 898.217 1.97755C897.772 2.12913 902.135 2.06939 902.464 2.07826C902.467 2.07734 902.471 2.07642 902.474 2.07551C905.378 2.15599 899.314 2.16517 899.024 2.17951C897.149 2.27396 898.428 2.34668 895.613 2.42469C894.007 2.46914 889.918 2.44294 888.408 2.45729C886.909 2.47199 889.242 2.5437 888.233 2.55909C887.224 2.57449 885.967 2.52 884.783 2.53785C884.276 2.54572 884.302 2.62569 884.056 2.62849C881.425 2.65926 883.151 2.49291 880.764 2.50306C879.218 2.50981 874.029 2.66488 877.606 2.71107C875.887 2.72716 874.21 2.73894 872.5 2.75154C873.578 2.77533 874.693 2.79149 875.746 2.81947C872.527 2.78138 871.071 2.91824 869.053 2.92842C867.035 2.93857 865.226 2.77433 863.006 2.85444C858.268 3.02487 870.001 2.94613 871.457 2.97657C872.025 2.98854 869.845 3.11719 869.509 3.12086C868.018 3.13695 866.255 3.04496 865.105 3.04908C860.99 3.06448 858.47 3.1859 854.548 3.2104C841.194 3.29369 824.627 3.36123 811.974 3.38783C807.262 3.39763 804.427 3.26112 802.312 3.26497C797.365 3.27408 796.759 3.39304 792.444 3.39937C786.021 3.40917 776.972 3.30531 771.611 3.28291C767.9 3.26751 764.54 3.38264 763.574 3.38545C750.158 3.42674 733.837 3.42415 722.72 3.42555C717.491 3.42625 715.008 3.29687 713.929 3.30067C709.287 3.31677 710.532 3.42738 706.769 3.41621C704.737 3.41027 704.356 3.30409 704.084 3.29994C701.689 3.26494 701.212 3.40361 699.343 3.40816C688.595 3.43439 678.242 3.34364 667.599 3.33034C666.827 3.32929 666.896 3.26786 666.396 3.27101C664.248 3.28608 665.246 3.38282 663.002 3.38985C658.334 3.40489 653.541 3.38891 648.592 3.37666C648.102 3.37545 647.881 3.29649 646.76 3.29646C645.637 3.29646 644.785 3.37132 643.022 3.36714C638.416 3.35629 633.87 3.26675 628.991 3.26185C628.184 3.26115 627.184 3.35628 625.973 3.35524C622.174 3.35209 616.548 3.26574 613.293 3.26259C602.553 3.25279 592.645 3.30693 582.529 3.30763C580.151 3.30759 578.045 3.21946 576.808 3.21736C574.02 3.21284 576.123 3.29611 573.298 3.29646C550.222 3.29856 527.057 3.2607 503.708 3.26735C494.539 3.2698 483.378 3.35596 474.516 3.33217C470.831 3.32201 470.162 3.20687 467.556 3.20582C462.908 3.20446 462.065 3.35206 457.161 3.36677C453.248 3.37832 448.763 3.23097 444.692 3.24006C440.621 3.24916 438.742 3.39229 434.065 3.40944C430.213 3.42342 424.835 3.35847 420.641 3.36897C382.21 3.46556 344.366 3.52435 305.697 3.41237C292.053 3.37282 276.915 3.39338 262.814 3.2527C261.49 3.23938 263.516 3.10116 259.27 3.1302C256.988 3.14595 253.803 3.26505 248.531 3.27101C217.179 3.306 183.738 3.05124 151.861 3.10164C104.111 3.17758 54.6233 4.16117 13.1292 2.72187C11.0938 2.65119 12.1976 2.30483 13.417 2.20643C14.5486 2.27676 15.5948 2.36028 16.7791 2.43971C18.2704 2.00693 18.0074 2.11961 23.5349 2.15846C26.938 2.18258 24.2197 1.99749 26.0337 1.94495C28.3853 1.87706 39.4262 1.66329 37.3028 1.9499C37.9872 1.90021 38.6188 1.8526 39.2857 1.80396C47.2789 1.76057 55.0449 1.68881 62.8627 1.60657C64.2131 1.5922 64.2754 1.50227 65.6703 1.48792C69.4166 1.44874 72.391 1.50782 76.2515 1.49872C78.3486 1.49383 78.6395 1.3899 81.3859 1.39655C84.1307 1.40324 84.0705 1.54353 87.8154 1.39106C85.3761 1.21504 96.2571 1.34276 100.127 1.33191C100.688 1.33052 105.294 1.17238 107.742 1.19056C110.199 1.2084 113.928 1.30942 117.727 1.25208C119.508 1.22514 120.589 1.10198 122.511 1.09498C123.862 1.09008 125.485 1.19954 127.196 1.20411C128.906 1.20865 132.607 1.1188 133.285 1.11731C135.732 1.11137 133.032 1.18833 134.706 1.1922C142.787 1.2097 152.176 1.25095 160.143 1.19916C161.123 1.19288 159.767 1.10221 159.898 1.09919C166.547 0.987931 162.998 1.10607 164.793 1.18726C166.533 1.26577 179.261 1.22294 179.354 1.06531C179.745 1.2627 182.575 1.11194 183.31 1.10615C186.169 1.08377 185.609 1.25455 188.381 1.20173C189.398 1.18249 187.417 1.06706 188.511 1.07044C191.213 1.07884 193.645 1.26428 197.242 1.28284C198.111 1.28739 198.393 1.20479 199.938 1.20759C201.484 1.21043 207.965 1.31149 204.974 1.13727C208.904 1.27688 209.696 1.20026 214.267 1.20411C215.425 1.20528 216.916 1.3384 219.38 1.29712C220.214 1.28312 220.189 1.1548 221.444 1.15375C224.313 1.15099 227.016 1.28382 230.657 1.28907C237.465 1.29921 244.714 1.20584 251.812 1.23908C253.741 1.2482 253.26 1.37721 256.066 1.37971C256.478 1.37971 259.857 1.26814 261.797 1.27863C262.964 1.28493 269.01 1.36334 270.23 1.36963C272.247 1.37973 272.607 1.25496 273.711 1.27936C276.905 1.3497 274.343 1.53336 278.186 1.28211C279.45 1.42139 281.696 1.40746 282.415 1.57893C283.722 1.39102 285.418 1.57156 287.953 1.50861C290.489 1.44562 292.568 1.08168 293.182 1.47327C294.367 1.42568 299.413 1.34446 300.264 1.33851C302.773 1.32172 301.432 1.43004 303.325 1.41541C303.658 1.41296 303.309 1.33889 305.448 1.3462C306.852 1.3511 317.138 1.35564 317.752 1.36579C324.76 1.48175 313.934 1.43925 312.418 1.51942C312.15 1.49836 311.886 1.47723 311.6 1.45643C308.503 1.42145 310.267 1.58879 311.67 1.62763C313.074 1.66646 315.698 1.59192 316.865 1.64686C317.446 1.67444 317.086 1.87507 315.327 1.85084C317.209 1.91263 314.639 1.97788 315.384 2.03596C316.202 2.09962 324.656 2.11922 324.701 2.00868C323.122 2.00483 321.157 2.00864 319.56 2.0041C317.472 1.81197 323.815 1.15586 329.632 1.41797C333.852 1.60764 326.895 1.75845 336.879 1.59925C335.344 1.59155 334.045 1.57361 332.65 1.56556C332.502 1.42148 334.765 1.5799 335.932 1.53406C336.492 1.51165 333.038 1.40963 336.037 1.37568C338.616 1.58172 340.601 1.37446 344.927 1.37202C343.725 1.40876 342.521 1.44532 341.319 1.48206C348.628 1.63149 331.651 1.68078 345.864 1.76441C344.153 1.77105 342.452 1.76929 340.733 1.77943C341.566 1.85503 340.233 2.07696 340.978 2.12385C342.935 2.24693 345.829 2.17273 348.215 2.18354C349.259 2.18809 348.612 2.24801 348.699 2.24836C350.129 2.255 349.814 2.16717 351.068 2.16157C352.647 2.15458 357.208 2.23996 357.947 2.23023C359.86 2.20539 356.675 2.03206 356.859 2.01911C358.079 1.93516 360.57 2.00478 360.439 1.89497C354.445 1.97054 337.172 1.87352 352.799 1.6919C348.49 1.51448 349.734 1.26987 355.929 1.25062C361.053 1.23452 357.747 1.33253 360.414 1.44031C360.759 1.45381 367.622 1.50534 367.974 1.42914C367.699 1.60464 369.932 1.76005 368.433 1.94111C368.214 1.96771 365.398 1.95721 366.38 2.10279C366.872 2.17592 368.282 2.33508 368.054 2.42817C368.634 2.36344 369.239 2.29062 369.827 2.22309C374.047 2.2042 374.647 2.27393 376.955 2.39466C376.849 2.34427 374.717 2.13252 377.955 2.19691C378.121 2.20076 378.265 2.27676 379.91 2.31446C383.235 2.39004 383.929 2.41355 381.377 2.63673C388.263 2.50943 389.746 2.75817 396.808 2.68544C395.404 2.39853 392.921 2.46956 386.455 2.52485C386.174 2.45662 386.042 2.38907 385.753 2.32014C394.36 2.4748 390.107 2.45905 394.983 2.32051C396.176 2.28656 402.539 2.32288 400.416 2.12971C399.915 2.08426 395.962 2.08949 396.415 2.01783C396.503 2.00419 401.308 1.96947 401.732 1.98798C407.049 2.2165 397.547 2.37577 412.19 2.29249C412.594 2.29004 412.735 2.20652 413.524 2.19489C415.006 2.1732 415.025 2.26996 416.349 2.24763C417.674 2.22523 419.509 2.09509 421.501 2.2154C425.142 2.43447 416.553 2.56047 412.727 2.44428C411.174 2.73055 438.506 2.73685 440.2 2.71235C447.595 2.60564 435.289 2.66724 434.655 2.58784C434.391 2.55425 434.522 2.12842 431.408 2.40473C430.487 2.48662 434.338 2.59451 432.04 2.63966C429.741 2.6848 430.652 2.55942 430.485 2.55067C429.914 2.52068 427.469 2.56717 427.151 2.54939C422.273 2.27957 422.72 1.87186 429.187 2.47413C432.004 2.338 425.538 2.12102 429.039 2.02863C433.295 1.91634 436.401 2.11052 436.936 2.11927C443.348 2.22281 435.954 1.93935 443.786 2.02992C448.147 2.08031 437.26 2.21857 447.219 2.20002C455.555 2.18427 451.053 2.08559 451.658 1.86127C451.801 1.80879 456.368 1.74443 450.149 1.76752C449.974 1.82596 449.642 1.90297 449.247 1.95686C447.722 1.91419 445.178 1.62174 444.369 1.61152C440.412 1.56288 440.603 1.71467 438.27 1.5359C439.936 1.73147 437.224 1.61362 436.206 1.65491C432.427 1.8071 437.382 1.86368 428.899 1.6681C430.005 1.75979 431.005 1.84977 432.075 1.94111C431.058 1.94426 430.039 1.94748 429.022 1.95063C427.504 1.74871 422.098 1.77454 426.993 1.57123C421.107 1.5135 418.727 1.55752 417.437 1.71461C417.192 1.7446 416.307 1.75658 415.268 1.75947C415.465 1.80364 415.716 1.94012 415.552 1.95686C414.087 2.10406 411.816 1.84976 412.59 1.75269C411.863 1.74805 411.288 1.7426 411.085 1.74024C409.797 1.72517 412.322 1.6374 411.278 1.60731C410.934 1.59753 407.305 1.61662 407.235 1.58094C406.797 1.35218 412.769 1.51722 400.777 1.38428C400.488 1.59251 406.057 1.54672 404.627 1.76789C403.092 2.00549 399.96 1.68677 399.275 1.97828C399.021 1.93035 398.908 1.89039 398.689 1.83582C393.838 1.96283 393.773 1.72005 392.291 1.66645C389.413 1.56181 376.182 1.57753 388.062 1.78785C386.325 1.80885 384.551 1.81856 382.823 1.8371C382.428 1.40186 383.481 1.5751 375.154 1.50861C373.321 1.49392 372.724 1.30249 370.925 1.52985C371.17 1.30683 365.746 1.44156 365.24 1.4145C361.993 1.23848 374.047 0.99347 375.593 1.38776C377.628 1.23425 377.62 1.43718 379.892 1.41028C383.174 1.37144 383.629 1.33192 387.525 1.4817C391.36 1.27067 372.514 1.38885 383.939 1.10889C395.366 0.828952 461.906 0.672797 477.429 0.630801C505.551 0.554862 520.336 0.505228 545.598 0.517825C548.089 0.518875 566.9 0.498641 562.991 0.742496C562.429 0.777491 554.338 0.870233 561.278 1.06165C559.867 0.948631 563.947 0.875244 564.29 0.863346C572.142 0.593191 567.597 0.527033 579.96 0.524234ZM616.61 2.69917C600.474 2.64353 612.328 2.80655 608.976 3.1747C611.047 3.17575 613.11 3.17676 615.181 3.17781C614.637 3.15471 614.1 3.13169 613.556 3.10859C613.554 3.10859 613.551 3.10859 613.549 3.10859C614.567 2.97213 615.592 2.83563 616.61 2.69917ZM880.382 2.94563C879.752 2.9941 879.13 3.04267 878.448 3.0901C876.316 3.07505 874.193 3.06028 872.061 3.04524C872.315 3.01235 872.561 2.97907 872.815 2.94618C875.337 2.94758 877.851 2.9491 880.382 2.94563ZM410.471 2.49757C407.452 2.36286 407.725 2.60326 403.715 2.49372C404.206 2.67113 404.752 2.84468 405.269 3.02034C408.322 2.99409 409.015 2.92662 412.331 2.96998C411.945 2.91296 411.55 2.8556 411.172 2.79823C410.62 2.81046 410.033 2.82438 409.498 2.83522C408.648 2.67566 413.946 2.65185 410.481 2.4972C410.478 2.49732 410.474 2.49745 410.471 2.49757ZM379.541 2.56898C377.918 2.54588 371.487 2.45905 370.609 2.53254C367.635 2.78171 385.779 2.62358 372.406 2.8451C372.468 2.88006 372.406 2.91432 372.406 2.94893C374.845 2.96117 377.277 2.97172 379.734 2.98152C379.603 2.84366 379.69 2.70754 379.541 2.56898ZM558.25 2.71455C555.755 2.69535 543.862 2.81255 547.739 2.97035C548.879 3.01654 554.189 2.79081 556.207 2.80061C557.514 2.80693 556.049 2.93069 558.629 2.8852C558.515 2.83065 558.444 2.77017 558.243 2.71492C558.245 2.71479 558.247 2.71467 558.25 2.71455ZM562.928 1.99439C560.348 2.01644 557.734 2.04437 555.137 2.06782C557.032 2.20882 560.761 2.11825 560.98 2.31666C560.27 2.3317 559.567 2.34666 558.857 2.3617C558.313 2.31832 557.777 2.2749 557.242 2.23152C555.014 2.3393 556.364 2.39285 552.213 2.3617C554.723 2.66161 555.189 2.82258 562.296 2.51918C560.954 2.6819 562.217 3.2121 566.157 2.8332C566.894 2.76286 563.816 2.71586 563.781 2.70466C563.307 2.56543 565.015 2.47657 564.507 2.34504C564.279 2.28555 562.401 2.28646 562.121 2.20387C561.991 2.16358 563.777 2.04863 562.928 1.99439ZM568.069 2.70045C567.271 2.78478 569.999 2.98492 572.368 2.94435C576.063 2.88136 570.237 2.691 568.069 2.70045ZM880.396 2.94545C880.391 2.94551 880.387 2.94557 880.382 2.94563C880.384 2.94545 880.387 2.94526 880.389 2.94508C880.391 2.9452 880.394 2.94532 880.396 2.94545ZM387.911 2.66658C385.999 2.73827 383.168 2.72782 383.377 2.84181C382.447 2.81941 381.507 2.79737 380.576 2.77497C380.585 2.80925 380.603 2.84359 380.612 2.87751C383.41 2.89886 386.201 2.92027 388.999 2.94197C388.648 2.85029 388.324 2.75826 387.911 2.66658ZM357.421 2.58674C353.903 2.57521 356.852 2.7303 356.08 2.80519C355.308 2.88008 352.174 2.81915 352.542 2.92659C354.613 2.93079 356.773 2.93501 358.87 2.93885C358.317 2.82197 357.931 2.70293 357.414 2.58674C357.416 2.58674 357.418 2.58674 357.421 2.58674ZM682.462 2.8213C680.076 2.7877 681.05 2.66936 676.338 2.80793C676.342 2.80793 676.345 2.80793 676.349 2.80793C680.832 2.90485 686.604 2.99123 691.552 2.89747C688.525 2.77262 686.217 2.87379 682.462 2.8213ZM418.816 2.84675C419.824 2.75298 415.131 2.67466 414.096 2.76179C412.421 2.90281 417.281 2.98918 418.816 2.84675ZM778.851 1.99073C782.482 1.70204 775.603 1.378 768.4 1.51795C767.777 1.5302 772.427 1.62201 771.05 1.67835C770.91 1.6839 768.358 1.67702 767.726 1.71717C767.094 1.75741 767.758 1.85083 766.722 1.89002C764.906 1.95852 760.8 1.8316 759.44 1.92152C759.261 1.93357 761.807 2.0585 761.967 2.06324C764.582 2.13882 767.101 1.97552 767.505 1.97443C769.585 1.96884 769.27 2.09687 769.797 2.12696C770.788 2.18356 772.534 2.12698 772.657 2.13117C775.813 2.24346 768.602 2.21133 767.628 2.25752C765.005 2.38209 767.433 2.49791 761.142 2.56825C760.545 2.57487 753.394 2.56735 762.406 2.7107C744.711 3.00953 771.297 2.88068 774.184 2.81489C775.514 2.78439 773.5 2.66235 774.307 2.60743C776.149 2.48182 779.29 2.45967 779.009 2.2826C778.404 1.91034 774.278 2.15426 771.436 2.09162C771.734 2.01078 771.848 1.93194 772.401 1.85285C771.55 1.95924 778.588 2.01246 778.851 1.99146C778.851 1.99122 778.851 1.99098 778.851 1.99073ZM734.056 2.41609C730.081 2.30375 730.362 2.53875 726.721 2.40437C723.51 2.61538 729.844 2.60121 730.581 2.61311C733.95 2.66629 733.873 2.89574 737.32 2.82515C736.135 2.68938 735.17 2.5522 734.056 2.41609ZM768.628 2.51295C765.97 2.63193 770.727 2.62991 770.92 2.65266C773.02 2.894 758.776 2.8471 768.628 2.51295ZM542.766 2.24177C541.415 2.23372 542.272 2.34764 541.081 2.3813C539.888 2.41523 535.809 2.31774 535.912 2.38862C536.017 2.45966 543.491 2.64389 535.989 2.68379C536.243 2.72366 536.157 2.75341 536.28 2.78944C538.342 2.79049 540.423 2.79224 542.485 2.79329C541.353 2.67851 540.193 2.55777 539.105 2.44685C540.263 2.35551 540.914 2.47267 540.976 2.47267C540.976 2.47254 540.976 2.47242 540.976 2.4723C543.134 2.46311 545.799 2.25967 542.766 2.24177ZM649.101 2.59938C649.505 2.31416 646.319 2.6327 645.012 2.66804C643.705 2.70326 641.909 2.59768 642.583 2.72041C644.698 2.80509 649.057 2.6312 649.101 2.59901C649.101 2.59913 649.101 2.59925 649.101 2.59938ZM712.462 2.41664C709.13 2.48587 709.659 2.56001 705.583 2.47541C705.741 2.54435 705.899 2.6148 706.057 2.68269C709.294 2.68409 709.067 2.48396 712.813 2.5644C713.427 2.5777 712.112 2.73755 714.883 2.68617C714.077 2.60085 713.259 2.50616 712.462 2.41664ZM695.949 2.67225C699.775 2.66173 702.809 2.10387 695.763 2.35548C694.719 2.39309 693.072 2.6803 695.949 2.67225ZM578.054 2.22767C571.546 2.21159 578.939 2.30161 580.633 2.38734C565.484 2.45591 582.344 2.36388 583.855 2.649C585.707 2.56781 589.171 2.38213 585.322 2.33241C583.716 2.31176 584.303 2.39666 584.206 2.39631C581.249 2.37531 581.607 2.23642 578.054 2.22767ZM740.963 2.40235C740.717 2.40655 741.101 2.50286 740.32 2.5221C739.539 2.54121 737.769 2.47381 737.593 2.53291C737.419 2.59237 740.968 2.63849 742.058 2.59516C743.146 2.55142 743.182 2.36527 740.963 2.40235ZM715.989 2.16505C712.737 2.23435 718.054 2.58913 718.761 2.58747C724.974 2.56893 715.804 2.27738 715.989 2.16505ZM593.166 1.62507C585.322 1.80529 591.06 2.11846 595.974 2.30604C596.622 2.26792 597.288 2.22974 597.928 2.19196C594.98 2.42363 589.813 2.65262 601.308 2.45069C595.016 2.39617 600.285 2.33394 600.325 2.32087C601.019 1.89533 591.699 2.09295 593.173 1.62507C593.171 1.62507 593.168 1.62507 593.166 1.62507ZM751.537 2.50379C754.951 2.50238 763.827 2.42887 759.686 2.24342C756.966 2.33019 754.256 2.41702 751.537 2.50379ZM464.742 1.64997C461.952 1.54393 459.38 1.54574 455.94 1.55274C459.037 1.70706 457.002 1.72479 455.958 1.76258C454.374 1.81947 458.21 1.81481 458.221 1.8252C458.151 1.97182 455.704 1.99459 461.274 1.9911C459.897 2.04217 458.538 2.09363 457.161 2.14436C461.407 2.15102 462.407 2.24667 465.1 2.36354C462.485 2.07799 465.928 2.25677 469.052 2.11469C470.611 2.04356 466.161 1.7042 464.731 1.64997C464.735 1.64997 464.738 1.64997 464.742 1.64997ZM585.059 1.56776C584.252 1.61919 583.513 1.68878 582.732 1.74757C581.881 1.75317 581.028 1.75808 580.177 1.76368C580.072 1.7182 579.984 1.67063 579.861 1.6269C578.74 1.61366 579.177 1.67698 578.843 1.68293C578.843 1.68269 578.843 1.68244 578.843 1.6822C574.063 1.76614 572.106 1.7567 568.361 1.6161C568.361 1.75544 568.361 1.89478 568.361 2.03413C569.202 2.02084 570.053 2.00788 570.894 1.99494C571.342 1.92007 571.791 1.84515 572.239 1.77027C573.213 1.81157 574.178 1.85257 575.151 1.89387C575.932 1.86694 576.87 1.83861 577.545 1.81239C581.432 2.20186 572.598 1.93727 572.519 2.09895C572.467 2.20288 581.363 2.19833 582.644 2.1266C582.829 2.1161 580.906 1.82608 584.16 1.97718C584.669 2.00098 584.848 2.62842 588.358 2.12037C588.858 2.0483 587.112 1.65851 585.059 1.56776ZM552.757 1.36542C557.759 1.76681 539.3 1.34238 547.265 1.67268C544.993 1.85707 545.414 1.85467 547.704 2.01838C547.905 2.03305 546.323 2.08372 546.458 2.09016C548.599 2.18045 551.178 2.13257 551.195 2.2967C551.774 2.28796 552.319 2.28018 552.898 2.27143C550.486 2.11678 554.321 2.01285 555.804 1.88233C556.479 1.82322 554.926 1.80498 555.495 1.75324C555.705 1.73435 557.873 1.77206 557.962 1.7179C558.146 1.59542 556.784 1.42989 554.477 1.33961C554.477 1.33948 554.477 1.33936 554.477 1.33924C553.898 1.34728 553.336 1.35703 552.757 1.36542ZM659.65 1.69886C660.502 1.92073 663.913 1.98424 657.359 2.09272C657.683 2.13642 658.017 2.17976 658.341 2.22346C659.447 2.21961 660.517 2.21579 661.64 2.21229C665.01 1.55865 671.159 2.29629 667.22 1.83271C666.79 1.78232 664.169 1.83862 666.757 1.70179C666.754 1.70167 666.75 1.70155 666.747 1.70142C663.133 1.74342 662.677 1.82203 659.65 1.69886ZM635.459 1.85358C627.124 2.32042 646.978 2.11406 643.661 1.99018C643.363 1.97898 634.81 2.0793 635.459 1.85358ZM702.347 1.44727C698.61 1.43923 698.363 1.6911 698.739 1.78181C699.117 1.87278 701.704 1.78085 702.038 1.79517C703.126 1.84242 700.819 1.87362 702.231 1.93836C702.699 1.95939 709.209 2.04918 709.507 2.03834C711.163 1.97809 708.742 1.77026 709.215 1.74647C710.759 1.66847 712.856 1.77659 713.304 1.66608C714.269 1.4303 710.36 1.67781 709.7 1.68183C707.708 1.69303 707.882 1.56029 706.39 1.5337C704.9 1.50715 703.926 1.55262 702.61 1.54322C702.173 1.54008 702.537 1.44811 702.347 1.44727ZM689.99 1.9792C693.893 1.78852 684.39 1.58116 683.262 1.6258C679.946 1.75843 688.121 2.07018 689.99 1.9792ZM565.279 1.97114C568.849 1.83292 560.533 1.72104 558.155 1.77668C558.596 1.83412 564.051 2.01872 565.279 1.97114ZM595.342 1.6258C592.06 1.66884 596.412 1.98025 599.15 1.97535C600.755 1.7707 599.244 1.81126 597.455 1.80286C595.667 1.79439 597.902 1.59227 595.342 1.6258ZM742.882 1.67487C742.174 1.67162 730.763 1.84078 737.32 1.91108C737.82 1.91633 745.807 1.88654 746.413 1.85505C747.631 1.79135 744.707 1.68397 742.882 1.67487ZM611.082 1.32349C609.345 1.50052 607.636 1.49815 609.232 1.706C609.235 1.706 609.237 1.706 609.24 1.706C604.844 1.76966 604.649 1.34442 603.701 1.35352C600.387 1.38544 603.527 1.6881 601.448 1.78748C606.283 1.69406 604.896 1.89813 608.573 1.91108C609.397 1.91388 612.698 1.79201 613.181 1.71607C613.663 1.6401 611.977 1.41238 611.082 1.32349ZM759.001 1.63074C755.15 1.56291 751.623 1.84983 756.966 1.89533C759.572 1.91773 761.353 1.67204 759.001 1.63074ZM373.986 1.55897C374.573 1.6342 375.179 1.70911 375.811 1.78364C374.39 1.80183 372.967 1.8204 371.546 1.83894C372.67 1.81514 373.794 1.7917 374.926 1.76826C372.259 1.74201 371.039 1.60516 373.979 1.55897C373.981 1.55897 373.983 1.55897 373.986 1.55897ZM279.021 1.50165C277.828 1.42921 275.477 1.65353 275.775 1.67103C278.021 1.80142 280.678 1.60209 279.021 1.50165ZM560.004 1.2898C555.568 1.25842 558.619 1.62314 561.338 1.64814C559.674 1.57839 562.522 1.30764 560.004 1.2898ZM312.418 1.51942C312.816 1.55077 313.218 1.58213 313.664 1.61353C312.261 1.56993 312.017 1.54061 312.418 1.51942ZM741.068 1.35279C740.39 1.3248 735.382 1.30169 734.705 1.33631C733.301 1.4091 737.207 1.61046 739.506 1.54853C739.761 1.54188 741.742 1.38079 741.057 1.35279C741.061 1.35279 741.064 1.35279 741.068 1.35279ZM367.984 1.41926C367.992 1.42275 367.988 1.42608 367.974 1.42914C367.979 1.42589 367.977 1.42252 367.984 1.41926ZM179.316 1.04865C179.343 1.05431 179.358 1.05992 179.354 1.06531C179.344 1.06002 179.323 1.05445 179.316 1.04865ZM705.741 1.04316C704.074 0.695654 700.231 0.880485 703.267 1.05231C703.437 1.06134 705.337 1.04247 705.741 1.04316ZM904.356 3.98371C900.445 3.99157 896.175 4.03815 892.249 3.97833C891.767 3.97102 891.8 3.87027 891.665 3.85698C891.297 3.82033 891.076 3.93919 890.809 3.93049C889.484 3.88863 888.286 3.87166 886.985 3.83366C885.667 3.79461 886.291 3.48137 885.836 3.40513C884.936 3.25583 885.703 3.66411 885.347 3.75584C884.297 3.73146 883.299 3.68734 882.241 3.64267C882.494 3.60451 882.749 3.56716 883.008 3.5318C882.55 3.52345 881.904 3.4605 882.663 3.35368C882.494 3.3243 882.338 3.28995 882.166 3.26127C882.118 3.40999 881.327 3.42205 881.257 3.51022C881.186 3.59842 881.627 3.5781 881.625 3.5858C881.606 3.69564 879.754 3.54573 879.625 3.5335C879.277 3.50096 879.581 3.31655 879.287 3.32846C878.779 3.34883 879.132 3.72389 878.43 3.2253C878.147 3.38734 878.122 3.30321 877.77 3.29204C877.724 3.29064 877.76 3.38444 877.74 3.38689C877.211 3.45658 877.617 3.2821 877.614 3.27265C877.565 3.11214 877.004 3.18357 876.89 3.16819C875.374 2.97663 874.27 2.84696 872.709 2.80274C872.326 2.79335 871.372 2.85861 870.985 2.83137C870.652 2.80448 870.83 2.6888 870.66 2.6333C870.391 2.91156 870.15 2.94228 869.508 2.75908C869.273 2.96207 869.352 2.79834 868.88 2.83901C868.715 2.85283 868.516 2.90195 868.338 2.94078C868.144 2.9796 867.86 3.00815 867.736 2.98077C867.652 2.96879 867.572 2.94607 867.5 2.9088C867.598 2.91283 867.674 2.91144 867.736 2.90616C867.896 2.8868 868.026 2.81505 868.408 2.76767C868.553 2.74771 870.412 2.74317 870.257 2.53576C870.226 2.42764 869.552 2.52705 869.548 2.50712C869.416 2.39096 869.738 2.24812 870.066 2.29812C869.985 2.32158 869.889 2.34538 869.806 2.36884C870.52 2.51396 870.022 1.95625 870.516 2.44362C870.577 2.5034 870.553 2.56575 870.654 2.62927C870.675 2.60299 870.551 2.53786 870.657 2.52618C870.765 2.5144 870.979 2.63806 871.012 2.53382C871.058 2.38223 870.595 2.44203 870.565 2.43318C870.565 2.43409 870.565 2.43501 870.564 2.43592C870.268 2.35549 870.888 2.34622 870.925 2.33187C871.128 2.23739 870.987 2.16469 871.299 2.08663C871.492 2.04216 871.873 2.0683 872.038 2.05393C872.193 2.0392 871.951 1.96753 872.056 1.95212C872.16 1.93671 872.292 1.99117 872.419 1.97331C872.474 1.96543 872.471 1.88546 872.497 1.88266C872.783 1.85185 872.594 2.01822 872.857 2.00804C873.031 2.00127 873.54 1.84613 873.183 1.79998C873.355 1.78387 873.527 1.77206 873.705 1.75944C873.593 1.73567 873.478 1.71952 873.371 1.69156C873.699 1.7296 873.854 1.59272 874.068 1.58251C874.282 1.57233 874.484 1.73654 874.721 1.65639C875.216 1.4859 873.965 1.56481 873.814 1.53439C873.754 1.52243 873.983 1.39375 874.019 1.39007C874.178 1.37396 874.368 1.46593 874.494 1.46178C874.94 1.44633 875.171 1.32488 875.586 1.30032C877.021 1.21683 878.73 1.14907 880.049 1.1223C880.544 1.11244 880.863 1.24892 881.071 1.24504C881.58 1.23587 881.643 1.1169 882.095 1.11052C882.774 1.10063 883.722 1.20438 884.278 1.22671C884.666 1.24206 885.021 1.1269 885.123 1.12408C886.526 1.08262 888.248 1.08503 889.401 1.08352C889.948 1.08276 890.211 1.21211 890.325 1.2083C890.814 1.19216 890.685 1.08156 891.076 1.09269C891.287 1.09861 891.327 1.20479 891.356 1.20893C891.605 1.2439 891.655 1.10524 891.851 1.10067C892.977 1.07433 894.062 1.16499 895.176 1.1782C895.257 1.17924 895.25 1.24067 895.303 1.23751C895.528 1.22242 895.423 1.12569 895.659 1.11865C896.149 1.10356 896.65 1.1195 897.168 1.13171C897.22 1.13291 897.243 1.21188 897.36 1.2119C897.478 1.21189 897.567 1.13703 897.751 1.14119C898.234 1.152 898.708 1.24151 899.221 1.24637C899.306 1.24707 899.411 1.15194 899.538 1.15297C899.937 1.15609 900.525 1.24241 900.865 1.24554C901.987 1.25526 903.034 1.20107 904.084 1.20032C904.336 1.20036 904.558 1.28848 904.688 1.29057C904.982 1.29508 904.76 1.21182 905.057 1.21145C907.461 1.20927 909.908 1.24709 912.348 1.24049C913.306 1.23805 914.482 1.15194 915.406 1.17579C915.788 1.18597 915.847 1.30111 916.123 1.30218C916.624 1.30358 916.714 1.15599 917.227 1.14132C917.639 1.12981 918.075 1.27721 918.529 1.26817C918.964 1.25912 919.162 1.11602 919.639 1.09895C920.002 1.08502 920.635 1.15007 921.054 1.13966C923.052 1.09842 924.649 1.04231 926.949 1.05759C926.971 1.06105 927.035 1.07044 927.057 1.07549C926.995 1.06473 927.169 1.08835 927.267 1.10032C927.38 1.11487 927.497 1.1313 927.612 1.14911C927.842 1.18478 928.067 1.22576 928.289 1.27033L928.033 1.24137C928.87 1.25927 929.745 1.30463 930.517 1.33264C931.378 1.36106 932.206 1.37171 933.184 1.48449C933.33 1.50264 933.474 1.52324 933.611 1.54374C934.062 1.62198 934.489 1.6261 935.251 1.8546C935.661 1.99627 936.007 2.1266 936.289 2.20464C936.756 2.33792 937.254 2.42957 937.933 2.83433C937.947 2.84483 937.96 2.85484 937.974 2.86503C938.053 2.91915 937.854 2.98266 938.152 3.08606C938.303 3.13761 938.471 3.08725 939.002 3.24059C939.076 3.26274 939.153 3.28855 939.233 3.31877C940.034 3.65312 940.651 3.81524 941.681 4.61356C942.189 5.06828 942.648 5.66603 942.977 6.14997C943.294 6.60966 943.473 6.98313 943.637 7.21316C943.931 7.61396 944.083 8.00601 944.202 8.29953C944.414 8.81768 944.525 9.42415 944.564 9.49904C944.798 10.0238 944.866 10.4484 944.947 10.7973C945.039 11.2054 945.091 11.5785 945.16 11.8377C945.179 11.9115 945.207 12.0021 945.241 12.1101C945.31 12.3334 945.406 12.6412 945.445 12.9948C945.508 13.5102 945.606 13.9338 945.774 14.3561C946.464 19.2948 946.61 23.1521 945.702 26.8018C945.655 26.9836 945.3 26.951 945.187 26.834C945.243 26.7045 945.317 26.6016 945.386 26.4703C944.945 26.3571 945.054 26.3687 945.064 25.7932C945.072 25.4356 944.9 25.7277 944.839 25.539C944.759 25.296 944.517 24.1439 944.809 24.3582C944.758 24.2876 944.709 24.2243 944.659 24.1553C944.599 23.3164 944.52 22.5037 944.431 21.6848C944.416 21.5434 944.326 21.5372 944.31 21.3911C944.268 20.9991 944.325 20.6869 944.313 20.2825C944.307 20.0621 944.203 20.0351 944.208 19.7455C944.212 19.4584 944.353 19.4635 944.197 19.0729C944.023 19.3301 944.142 18.19 944.125 17.7869C944.123 17.7288 943.958 17.2526 943.971 16.9967C943.984 16.7466 944.076 16.3489 944.003 15.9651C943.969 15.7831 943.841 15.6753 943.823 15.4927C943.809 15.3564 943.907 15.187 943.894 15.0478C943.892 15.0056 943.862 14.9148 943.862 14.9683C943.779 14.7927 943.687 14.5995 943.674 14.5478C943.599 14.2657 943.749 14.56 943.707 14.3663C943.626 13.9794 943.582 13.561 943.554 13.17C943.545 12.9556 943.448 12.686 943.337 12.2885C943.282 12.082 943.241 11.892 943.199 11.7247C943.174 11.6256 943.111 11.7809 943.105 11.7684C942.871 11.1353 943.054 11.4679 943.098 11.2787C943.101 11.2658 943.102 11.2479 943.102 11.2255C943.091 11.0096 942.967 10.4988 942.824 10.3303C942.661 10.0338 942.601 9.90606 942.545 9.91282C942.718 9.80507 942.495 9.56152 942.471 9.50372C942.374 9.26673 942.551 9.25664 942.419 9.06688C942.419 9.06631 942.418 9.06574 942.418 9.06517C942.386 9.01752 942.364 9.06341 942.344 9.09929C942.327 9.12189 942.311 9.13936 942.298 9.11876C942.296 9.115 942.294 9.11039 942.292 9.10485C942.191 8.85277 942.279 8.58273 942.144 8.3676C942.143 8.36579 942.141 8.36408 942.14 8.36249C942.078 8.28338 941.991 8.29491 941.893 8.14636C941.782 7.97799 941.525 7.37391 941.537 7.72077C941.491 7.51356 941.444 7.41728 941.379 7.3331C941.301 7.23149 941.206 7.13084 941.075 6.95876C941.007 6.87094 941.022 6.67335 940.837 6.52894C940.774 6.48093 940.682 6.56942 940.603 6.48852C940.502 6.3863 940.429 6.2606 940.335 6.12814C940.319 6.07251 940.23 5.97595 940.108 5.9019C939.603 5.59824 938.91 5.39232 938.298 5.14189C938.268 5.12967 938.237 5.11724 938.205 5.10437C938.034 5.03721 938.124 4.9339 937.829 4.83325C937.789 4.82236 937.362 4.78627 937.149 4.66106C937.116 4.64256 937.049 4.60116 936.969 4.54585C936.874 4.45555 936.572 4.31203 936.49 4.28672C936.308 4.22618 936.242 4.34007 936.142 4.29084C935.895 4.17316 936.057 4.06918 935.861 4.13069C935.817 4.14168 935.758 4.15832 935.675 4.1801C935.565 4.00947 935.323 3.95121 935.3 3.7639C935.108 3.9009 934.989 3.67075 934.722 3.64939C934.705 3.64806 934.688 3.64799 934.67 3.64898C934.47 3.68172 934.25 3.94817 934.257 3.57702C934.141 3.6031 933.619 3.61933 933.526 3.61399C933.404 3.60646 933.37 3.58307 933.35 3.55923C933.327 3.53145 933.322 3.50242 933.219 3.49767C933.186 3.49645 933.21 3.57247 933.002 3.54285C932.876 3.51332 931.834 3.46296 931.765 3.45489C931.043 3.31998 932.164 3.3906 932.32 3.32119C932.345 3.34345 932.373 3.36589 932.4 3.38811C932.711 3.44029 932.543 3.26289 932.402 3.21676C932.259 3.1704 931.985 3.23509 931.866 3.17669C931.807 3.14738 931.85 2.94758 932.033 2.97804C931.839 2.90965 932.109 2.8535 932.033 2.79282C931.95 2.72432 931.064 2.68396 931.057 2.79531C931.222 2.80233 931.428 2.80293 931.595 2.81176C931.808 3.00933 931.131 3.64789 930.532 3.37684C930.514 3.36924 930.499 3.36173 930.485 3.35431C930.139 3.16649 930.783 3.05399 929.767 3.17319C929.928 3.18674 930.064 3.2095 930.212 3.22197C930.223 3.36659 929.988 3.20063 929.864 3.24193C929.805 3.26228 930.164 3.37698 929.848 3.39981C929.585 3.18424 929.369 3.38302 928.919 3.36991C929.045 3.33747 929.172 3.3054 929.299 3.27324C928.541 3.09657 930.316 3.11069 928.834 2.97444C929.013 2.97377 929.19 2.98186 929.371 2.97831C929.286 2.89956 929.434 2.6829 929.358 2.63318C929.157 2.50267 928.851 2.56613 928.602 2.54755C928.492 2.53959 928.562 2.48181 928.553 2.48118C928.403 2.46996 928.434 2.55875 928.302 2.56053C928.236 2.56143 928.121 2.54628 928 2.52849L928.032 2.53214C927.858 2.47384 927.672 2.4113 927.624 2.40906C927.42 2.39887 927.723 2.62742 927.7 2.63716C927.559 2.6959 927.315 2.58613 927.311 2.69707C927.481 2.70236 927.734 2.73882 927.98 2.79214C927.982 2.79262 927.991 2.79373 927.994 2.79371C928.67 2.82031 929.3 2.92837 928.108 3.02501C928.5 3.19268 928.439 3.3995 927.977 3.44736C927.951 3.4475 927.875 3.43731 927.85 3.43293C927.789 3.42889 927.724 3.42139 927.652 3.41007C927.148 3.33519 927.49 3.29652 927.244 3.14674C927.21 3.13 926.964 3.07641 926.655 3.03271L926.694 3.03919C926.822 3.04946 926.675 3.04654 926.627 3.05416C926.56 3.06035 926.569 3.06961 926.558 3.08244C926.585 2.90699 926.386 2.75118 926.521 2.57039C926.544 2.55716 926.548 2.55306 926.685 2.53461C926.768 2.51604 926.766 2.48256 926.745 2.40948C926.732 2.37277 926.673 2.31443 926.597 2.25368C926.569 2.19304 926.544 2.12992 926.554 2.0834C926.507 2.14802 926.45 2.22074 926.387 2.28816C926.129 2.29722 926.025 2.28444 925.931 2.25417C925.837 2.22392 925.762 2.17623 925.633 2.11576C925.644 2.16616 925.885 2.37811 925.517 2.31342C925.506 2.30957 925.455 2.23352 925.305 2.19572C924.987 2.11993 924.908 2.09638 925.165 1.87336C924.828 1.9368 924.578 1.90631 924.343 1.86902C924.141 1.83175 923.932 1.78765 923.552 1.82388C923.715 2.11085 923.932 2.03987 924.633 1.98493C924.664 2.05318 924.678 2.12073 924.71 2.18968C923.771 2.03456 924.263 2.05056 923.746 2.18888C923.63 2.22278 922.912 2.18621 923.151 2.37947C923.212 2.42494 923.645 2.41986 923.594 2.4915C923.595 2.50514 923.035 2.53966 923.017 2.52115C922.477 2.29248 923.479 2.13348 921.932 2.21634C921.888 2.21878 921.872 2.3023 921.785 2.3139C921.619 2.33555 921.62 2.23879 921.488 2.2611C921.356 2.28346 921.171 2.41356 920.965 2.29321C920.596 2.07407 921.45 1.94824 921.873 2.06453C922.019 1.77826 919.176 1.77143 919.005 1.79594C918.226 1.90255 919.523 1.84112 919.579 1.92053C919.605 1.95413 919.594 2.37996 919.906 2.10369C919.998 2.02182 919.612 1.91387 919.843 1.86876C920.073 1.82365 919.989 1.94902 920.003 1.95777C920.067 1.98777 920.333 1.94133 920.367 1.95911C920.887 2.22902 920.846 2.63672 920.146 2.03433C919.838 2.17041 920.544 2.38751 920.162 2.47983C919.698 2.59204 919.407 2.39783 919.345 2.38907C918.677 2.28543 919.454 2.569 918.626 2.47833C918.158 2.42788 919.326 2.28976 918.256 2.30818C917.386 2.32383 917.859 2.42256 917.794 2.64687C917.779 2.69936 917.314 2.76366 917.947 2.74064C917.965 2.68221 917.998 2.60521 918.038 2.55132C918.198 2.594 918.478 2.88648 918.563 2.89672C918.986 2.94541 918.963 2.79362 919.207 2.97242C919.033 2.77682 919.316 2.89471 919.42 2.85344C919.811 2.70131 919.284 2.64464 920.177 2.84037C920.058 2.74866 919.942 2.65866 919.839 2.5673C919.937 2.56417 920.054 2.56097 920.164 2.55784C920.332 2.75978 920.907 2.73406 920.384 2.93727C921.016 2.99511 921.248 2.95115 921.379 2.79409C921.404 2.76411 921.493 2.75214 921.596 2.74928C921.576 2.7051 921.551 2.56862 921.568 2.55189C921.714 2.40472 921.976 2.65908 921.888 2.75613C921.968 2.76079 922.03 2.76625 922.052 2.76862C922.191 2.78373 921.918 2.87143 922.031 2.90155C922.07 2.91133 922.455 2.89234 922.461 2.92803C922.499 3.1568 921.91 2.99157 923.11 3.12488C923.142 2.91666 922.586 2.96228 922.729 2.74115C922.886 2.5036 923.189 2.82241 923.28 2.53094C923.308 2.57887 923.321 2.61885 923.345 2.67342C923.877 2.5466 923.87 2.78939 924.023 2.84305C924.096 2.86924 924.231 2.88793 924.37 2.89795C924.542 2.90799 924.714 2.90935 924.83 2.90085C925.052 2.88384 925.118 2.82734 924.449 2.72184C924.651 2.70094 924.844 2.69133 925.02 2.67289C925.04 2.89053 925.024 2.95602 925.106 2.97548C925.188 2.99494 925.36 2.96832 925.826 3.00198C926.027 3.01687 926.013 3.20826 926.26 2.98121C926.239 3.16401 926.68 3.11087 926.688 3.0911L926.645 3.08399C926.705 3.09364 926.732 3.09653 926.743 3.1032C926.847 3.17217 926.825 3.2367 926.612 3.2465L926.666 3.25564C926.88 3.29392 926.533 3.30574 926.526 3.32089C926.446 3.33388 926.336 3.33877 926.209 3.33198C925.987 3.31845 925.846 3.25834 925.78 3.12278C925.569 3.27612 925.533 3.07315 925.306 3.09989C924.991 3.13853 924.948 3.17803 924.511 3.02802C924.288 3.13343 924.732 3.15685 925.013 3.18885C925.291 3.22085 925.48 3.26141 924.904 3.40104C923.638 3.67987 916.752 3.83512 915.103 3.87714C912.153 3.95293 910.603 4.00257 907.96 3.99001C907.7 3.98896 905.721 4.00925 906.134 3.76538C906.193 3.73039 907.03 3.63762 906.312 3.44622C906.458 3.55924 906.035 3.63264 905.999 3.64454C905.179 3.91472 905.658 3.98086 904.356 3.98371ZM900.519 1.80897C902.203 1.86451 900.966 1.70157 901.316 1.3334C901.1 1.33236 900.884 1.33136 900.668 1.33033C900.725 1.35342 900.781 1.37644 900.838 1.39953C900.838 1.39953 900.838 1.39953 900.838 1.39953C900.732 1.536 900.625 1.67251 900.519 1.80897ZM872.9 1.56546C872.974 1.51698 873.028 1.4684 873.098 1.42096C873.311 1.43598 873.528 1.45072 873.751 1.46573C873.724 1.49863 873.698 1.53191 873.672 1.5648C873.408 1.56345 873.163 1.56195 872.9 1.56546ZM922.119 2.01131C922.44 2.1461 922.415 1.9057 922.821 2.01535C922.772 1.83793 922.717 1.66436 922.664 1.48869C922.35 1.51485 922.278 1.58229 921.917 1.53884C921.959 1.59587 922.002 1.65325 922.043 1.71063C922.103 1.69841 922.166 1.68451 922.223 1.67369C922.315 1.83327 921.743 1.85693 922.117 2.01167C922.118 2.01155 922.118 2.01143 922.119 2.01131ZM925.34 1.94122C925.411 1.95282 925.676 1.98049 925.864 1.99608C925.961 2.00388 926.047 2.00865 926.112 2.0069C926.193 2.00516 926.277 1.99692 926.299 1.97858C926.384 1.91641 926.326 1.87948 926.186 1.85562C926.055 1.83179 925.939 1.82115 925.801 1.81137C925.517 1.79184 925.446 1.77586 926.09 1.66575C926.085 1.63079 926.09 1.59654 926.09 1.56193C925.882 1.54944 925.588 1.53865 925.322 1.52867C925.334 1.66654 925.326 1.80265 925.34 1.94122ZM906.626 1.79331C906.893 1.8125 908.143 1.69528 907.736 1.53749C907.616 1.4913 907.057 1.71704 906.843 1.70725C906.704 1.70094 906.859 1.57716 906.586 1.62266C906.598 1.67721 906.605 1.7377 906.626 1.79295C906.626 1.79307 906.626 1.79319 906.626 1.79331ZM906.14 2.51349C906.408 2.49143 906.679 2.46349 906.956 2.44004C906.753 2.29904 906.365 2.38962 906.343 2.19121C906.416 2.17617 906.489 2.16121 906.563 2.14616C906.618 2.18954 906.676 2.23297 906.733 2.27635C906.969 2.16855 906.826 2.11501 907.265 2.14614C907.003 1.84624 906.94 1.68527 906.206 1.9887C906.345 1.82598 906.215 1.29577 905.804 1.67469C905.728 1.74503 906.048 1.79202 906.052 1.80322C906.101 1.94245 905.923 2.03131 905.976 2.16284C906 2.22233 906.195 2.22142 906.224 2.30401C906.238 2.3443 906.052 2.45925 906.14 2.51349ZM905.605 1.80745C905.688 1.72311 905.403 1.52299 905.155 1.56356C904.767 1.62657 905.379 1.8169 905.605 1.80745ZM872.898 1.56565C872.899 1.56559 872.899 1.56552 872.9 1.56546C872.9 1.56565 872.899 1.56583 872.899 1.56601C872.899 1.56589 872.899 1.56577 872.898 1.56565ZM924.467 1.84312C924.691 1.77153 924.986 1.78215 924.964 1.66815C925.06 1.69061 925.153 1.71271 925.242 1.73516C925.241 1.70089 925.24 1.66654 925.239 1.63262C924.973 1.6111 924.665 1.58952 924.346 1.56767C924.375 1.65937 924.422 1.75142 924.467 1.84312ZM927.742 2.06795C928.117 2.14915 927.83 1.93787 927.926 1.87975C927.974 1.85159 928.076 1.86694 928.165 1.87784L928.017 1.86106C928.109 1.85584 928.187 1.8472 928.168 1.7915C928.119 1.78921 928.07 1.78698 928.019 1.78474L928.18 1.80302C928.005 1.76404 927.825 1.72687 927.645 1.69361C927.686 1.81916 927.708 1.94379 927.743 2.06808C927.743 2.06804 927.743 2.06799 927.742 2.06795ZM893.622 1.68736C893.871 1.72094 893.769 1.83929 894.262 1.70067C894.261 1.70067 894.261 1.70067 894.26 1.70067C893.792 1.6038 893.188 1.51747 892.667 1.61128C892.985 1.7361 893.231 1.63491 893.622 1.68736ZM921.24 1.66192C921.143 1.75567 921.6 1.83409 921.722 1.74699C921.899 1.60601 921.391 1.51952 921.24 1.66192ZM883.527 2.51898C883.153 2.80771 883.857 3.13167 884.615 2.99163C884.68 2.97938 884.193 2.88762 884.337 2.83126C884.352 2.82572 884.619 2.83256 884.686 2.79241C884.752 2.75215 884.682 2.65875 884.791 2.61954C884.982 2.55102 885.418 2.6779 885.563 2.58796C885.582 2.57591 885.311 2.45101 885.294 2.44627C885.016 2.37072 884.751 2.53405 884.709 2.53514C884.49 2.54076 884.523 2.41273 884.468 2.38264C884.364 2.32605 884.182 2.38266 884.169 2.37846C883.84 2.26621 884.592 2.29826 884.696 2.25206C884.973 2.12745 884.715 2.01166 885.382 1.94125C885.446 1.93462 886.203 1.94206 885.247 1.79881C887.111 1.49977 884.305 1.62894 884.01 1.69476C883.872 1.72528 884.081 1.84729 883.997 1.90222C883.805 2.02786 883.481 2.05005 883.51 2.22711C883.572 2.59937 883.999 2.35539 884.297 2.418C884.265 2.49884 884.254 2.57769 884.196 2.65678C884.284 2.55039 883.553 2.49725 883.527 2.51825C883.527 2.51849 883.527 2.51874 883.527 2.51898ZM888.221 2.0931C888.633 2.20539 888.604 1.9704 888.983 2.10474C889.318 1.8937 888.657 1.90793 888.581 1.89604C888.231 1.84289 888.242 1.61345 887.876 1.68408C888.001 1.81983 888.105 1.957 888.221 2.0931ZM884.591 1.99664C884.87 1.87763 884.37 1.8797 884.351 1.85696C884.129 1.61564 885.628 1.66237 884.591 1.99664ZM908.256 2.26606C908.396 2.2741 908.307 2.16018 908.431 2.12653C908.555 2.0926 908.977 2.19008 908.966 2.1192C908.956 2.04816 908.182 1.86394 908.958 1.82403C908.932 1.78416 908.941 1.75441 908.928 1.71838C908.715 1.71733 908.5 1.71559 908.285 1.71454C908.403 1.82931 908.523 1.95005 908.636 2.06097C908.516 2.15231 908.448 2.03516 908.442 2.03516C908.442 2.03528 908.442 2.0354 908.442 2.03553C908.218 2.04472 907.939 2.24816 908.256 2.26606ZM897.115 1.909C897.073 2.19422 897.406 1.87566 897.543 1.8403C897.68 1.80507 897.868 1.91064 897.797 1.78792C897.576 1.70325 897.12 1.87717 897.115 1.90937C897.115 1.90925 897.115 1.90912 897.115 1.909ZM890.479 2.09232C890.832 2.02306 890.775 1.94891 891.199 2.03348C891.183 1.96454 891.167 1.89409 891.15 1.8262C890.813 1.82484 890.839 2.02496 890.442 1.94456C890.378 1.93127 890.516 1.7714 890.224 1.82282C890.309 1.90812 890.395 2.00281 890.479 2.09232ZM892.206 1.83654C891.805 1.8471 891.488 2.40499 892.226 2.15331C892.335 2.11569 892.508 1.82847 892.206 1.83654ZM904.557 2.28026C905.242 2.29632 904.464 2.20633 904.285 2.12061C905.881 2.05197 904.104 2.14407 903.946 1.85896C903.753 1.94016 903.393 2.12586 903.793 2.17556C903.96 2.1962 903.899 2.1113 903.909 2.11165C904.217 2.13264 904.183 2.27153 904.557 2.28026ZM887.491 2.10691C887.517 2.10271 887.477 2.00641 887.559 1.98715C887.641 1.96804 887.828 2.03542 887.847 1.97632C887.865 1.91685 887.49 1.87077 887.376 1.91411C887.261 1.95787 887.257 2.14402 887.491 2.10691ZM890.108 2.34395C890.45 2.27461 889.89 1.91989 889.816 1.92155C889.164 1.94016 890.126 2.23161 890.108 2.34395ZM902.975 2.88294C903.794 2.70267 903.196 2.38953 902.682 2.20198C902.614 2.24011 902.544 2.27829 902.477 2.31607C902.785 2.08438 903.328 1.85537 902.122 2.05736C902.782 2.11184 902.229 2.17411 902.225 2.18717C902.153 2.61272 903.129 2.41504 902.975 2.88294C902.975 2.88294 902.975 2.88294 902.975 2.88294ZM886.384 2.00559C886.032 2.00705 885.099 2.08066 885.536 2.26606C885.824 2.17926 886.099 2.09239 886.384 2.00559ZM916.426 2.85805C916.725 2.96411 916.997 2.96233 917.354 2.95536C917.032 2.80102 917.244 2.78331 917.352 2.74552C917.516 2.68865 917.118 2.69327 917.116 2.68288C917.123 2.53626 917.382 2.51351 916.795 2.51696C916.941 2.4659 917.084 2.41445 917.227 2.36374C916.784 2.35704 916.676 2.26137 916.387 2.14449C916.669 2.43006 916.295 2.25124 915.965 2.3933C915.802 2.46442 916.271 2.80381 916.427 2.85806C916.427 2.85805 916.426 2.85805 916.426 2.85805ZM903.821 2.94021C903.905 2.88877 903.981 2.81918 904.063 2.76039C904.153 2.75479 904.243 2.74987 904.333 2.74427C904.344 2.78974 904.353 2.83731 904.366 2.88104C904.485 2.89428 904.439 2.83096 904.474 2.82501C904.474 2.82525 904.474 2.8255 904.474 2.82574C904.978 2.74177 905.183 2.75121 905.574 2.8918C905.574 2.75246 905.574 2.61311 905.574 2.47377C905.486 2.48706 905.397 2.50002 905.309 2.51296C905.262 2.58784 905.215 2.66276 905.168 2.73764C905.066 2.69635 904.965 2.65535 904.863 2.61406C904.781 2.64098 904.682 2.66932 904.611 2.69555C904.201 2.30609 905.132 2.57064 905.139 2.40897C905.145 2.30503 904.209 2.30961 904.072 2.38136C904.053 2.39186 904.254 2.68187 903.914 2.53078C903.861 2.50699 903.843 1.87955 903.477 2.38761C903.425 2.45969 903.607 2.84947 903.821 2.94021ZM907.207 3.14243C906.682 2.74105 908.621 3.16544 907.785 2.83516C908.023 2.65076 907.979 2.65316 907.739 2.48946C907.718 2.47479 907.884 2.42412 907.87 2.41768C907.646 2.32739 907.374 2.37527 907.372 2.21114C907.311 2.21989 907.254 2.22767 907.193 2.23642C907.447 2.39106 907.043 2.495 906.885 2.62553C906.814 2.68464 906.978 2.70287 906.918 2.75461C906.896 2.77351 906.666 2.7358 906.656 2.78996C906.637 2.91244 906.782 3.07797 907.026 3.16825C907.026 3.16837 907.026 3.16849 907.026 3.16861C907.087 3.16057 907.146 3.15082 907.207 3.14243ZM896.01 2.8096C895.921 2.58774 895.564 2.52426 896.25 2.41572C896.216 2.37202 896.181 2.32869 896.148 2.28499C896.032 2.28885 895.919 2.29268 895.802 2.29619C895.448 2.94986 894.803 2.21227 895.216 2.67582C895.261 2.72621 895.536 2.66988 895.265 2.80673C895.265 2.80686 895.266 2.80698 895.266 2.8071C895.645 2.76507 895.693 2.68646 896.01 2.8096ZM898.543 2.65469C899.415 2.18779 897.338 2.39429 897.685 2.51815C897.716 2.52935 898.611 2.42896 898.543 2.65469ZM891.537 3.06158C891.927 3.06959 891.954 2.81771 891.914 2.72701C891.874 2.63604 891.604 2.728 891.569 2.71368C891.456 2.66645 891.697 2.63522 891.549 2.57049C891.5 2.54947 890.822 2.45974 890.791 2.47059C890.617 2.53085 890.871 2.73866 890.822 2.76246C890.66 2.84047 890.437 2.73237 890.391 2.84288C890.289 3.07868 890.701 2.83112 890.771 2.8271C890.978 2.81588 890.96 2.94862 891.115 2.9752C891.271 3.00173 891.372 2.95625 891.509 2.96564C891.555 2.96878 891.517 3.06075 891.537 3.06158ZM892.832 2.52954C892.421 2.72025 893.422 2.92753 893.538 2.88287C893.885 2.75021 893.029 2.43853 892.832 2.52954ZM905.896 2.53675C905.524 2.67498 906.39 2.78683 906.636 2.73118C906.589 2.67375 906.024 2.48916 905.896 2.53675ZM902.748 2.88222C903.091 2.83916 902.636 2.52777 902.349 2.53269C902.18 2.73735 902.339 2.69678 902.526 2.70516C902.714 2.71363 902.48 2.91576 902.748 2.88222ZM887.289 2.83441C887.362 2.83766 888.571 2.66837 887.876 2.59814C887.822 2.5929 886.981 2.62278 886.919 2.65428C886.791 2.71799 887.097 2.82534 887.289 2.83441ZM901.096 3.18462C901.277 3.00757 901.455 3.00994 901.289 2.8021C901.289 2.8021 901.288 2.8021 901.288 2.8021C901.749 2.73841 901.771 3.16365 901.87 3.15454C902.219 3.12261 901.889 2.81996 902.107 2.72057C901.599 2.81402 901.744 2.60994 901.358 2.59701C901.272 2.59422 900.927 2.71611 900.877 2.79205C900.827 2.86803 901.003 3.09573 901.096 3.18462ZM885.609 2.87873C886.009 2.94651 886.373 2.65956 885.821 2.61412C885.555 2.59175 885.357 2.83746 885.609 2.87873ZM925.943 2.95173C925.886 2.87645 925.825 2.80148 925.758 2.72689C925.915 2.70884 926.023 2.69038 926.181 2.67203C926.048 2.69566 925.971 2.71902 925.85 2.74235C926.114 2.76885 926.212 2.90583 925.943 2.95173C925.943 2.95173 925.943 2.95173 925.943 2.95173ZM935.638 3.94337C935.695 3.99803 935.811 3.98305 935.901 3.94975C935.978 3.91766 936.038 3.87359 936.025 3.86214C935.997 3.83651 935.966 3.81736 935.934 3.80375C935.734 3.72028 935.508 3.81786 935.638 3.94337ZM906.444 3.21807C906.906 3.24944 906.586 2.88472 906.306 2.85973C906.478 2.92948 906.183 3.20023 906.444 3.21807ZM932.32 3.32119C932.28 3.28799 932.241 3.25491 932.196 3.22164C932.339 3.27119 932.361 3.30199 932.32 3.32119ZM887.48 3.15648C887.551 3.18445 888.081 3.20751 888.153 3.17289C888.302 3.10008 887.887 2.89876 887.645 2.96072C887.618 2.96737 887.409 3.12849 887.481 3.15648C887.481 3.15648 887.481 3.15648 887.48 3.15648ZM926.557 3.09232C926.556 3.08883 926.557 3.0855 926.558 3.08244C926.557 3.08569 926.558 3.08905 926.557 3.09232ZM942.53 9.92201C942.535 9.91725 942.54 9.91398 942.545 9.91282C942.54 9.91553 942.536 9.91957 942.53 9.92201ZM891.183 3.46573C891.357 3.81322 891.758 3.62835 891.441 3.45655C891.423 3.44752 891.225 3.46641 891.183 3.46573ZM14.3557 1.33C14.8333 1.31333 15.3088 1.30061 15.7916 1.28834C16.5535 1.26258 17.4378 1.21207 18.2753 1.19525L18.0153 1.22474C18.2392 1.17998 18.466 1.13937 18.6971 1.10488C18.8124 1.08765 18.9292 1.07201 19.0422 1.05847C19.1397 1.04754 19.3124 1.02507 19.2487 1.03753C19.27 1.03169 19.3358 1.02364 19.3575 1.0194C19.5466 1.00054 19.4916 1.01009 19.5243 1.0076C19.5398 1.00739 19.5519 1.00736 19.5659 1.00732C19.5863 1.00736 19.5916 1.0076 19.6059 1.00776C19.6309 1.00812 19.6641 1.00849 19.695 1.00893C19.7395 1.0099 19.792 1.01096 19.8521 1.0121C19.9451 1.01448 20.0685 1.01717 20.1604 1.02029C20.3869 1.02725 20.3833 1.12804 20.4413 1.14125C20.6106 1.17772 20.7313 1.05877 20.8518 1.06739C21.4779 1.10887 22.0641 1.12585 22.6783 1.16396C23.316 1.20314 23.0107 1.51632 23.2315 1.59262C23.6637 1.74206 23.2956 1.33366 23.4662 1.24199C23.9543 1.26654 24.4562 1.3109 24.9466 1.35585C24.826 1.39394 24.7067 1.43122 24.5849 1.46652C24.7991 1.47498 25.1062 1.53811 24.747 1.64473C24.8262 1.67415 24.9004 1.70855 24.9822 1.73727C25.0048 1.58856 25.3855 1.57673 25.4201 1.48858C25.4547 1.4004 25.2411 1.42059 25.2425 1.41289C25.2561 1.30305 26.1342 1.45353 26.1971 1.46582C26.364 1.49848 26.2175 1.68278 26.3596 1.67097C26.6051 1.65078 26.4423 1.27559 26.7729 1.77443C26.9042 1.61249 26.9155 1.69663 27.0833 1.70793C27.1054 1.70934 27.0883 1.61553 27.098 1.61309C27.351 1.5436 27.1565 1.71793 27.1579 1.72738C27.1812 1.8879 27.4506 1.81669 27.5076 1.83211C28.2227 2.02426 28.7515 2.15439 29.5054 2.19932C29.6707 2.20887 30.1685 2.14407 30.3265 2.17148C30.4792 2.19852 30.3933 2.31412 30.4778 2.3697C30.6194 2.09158 30.724 2.06097 31.0311 2.24448C31.1375 2.04161 31.1227 2.20531 31.3364 2.16487C31.5072 2.13137 31.8106 1.88814 32 2.09578C31.7954 2.07674 31.8 2.17643 31.5623 2.23645C31.4772 2.25632 30.6121 2.25995 30.6821 2.46744C30.7115 2.57559 31.0022 2.47649 31.0122 2.49642C31.0773 2.61266 30.9135 2.75532 30.7729 2.70518C30.8055 2.68175 30.8492 2.658 30.8891 2.63458C30.5723 2.48913 30.7936 3.04707 30.5503 2.55945C30.5197 2.49964 30.5318 2.43731 30.4808 2.37373C30.4703 2.40001 30.5328 2.46519 30.4789 2.47682C30.4225 2.48854 30.3298 2.36479 30.3137 2.46902C30.2922 2.62058 30.5043 2.561 30.5254 2.56987C30.5255 2.56896 30.5257 2.56804 30.5259 2.56713C30.6753 2.64771 30.3623 2.65667 30.3531 2.67101C30.2608 2.76539 30.3249 2.83816 30.1833 2.91607C30.0992 2.96046 29.8976 2.93413 29.8225 2.94843C29.7475 2.96308 29.8641 3.03486 29.8137 3.05023C29.7633 3.06559 29.6998 3.01107 29.6389 3.02887C29.6129 3.03672 29.6141 3.1167 29.6015 3.11949C29.4696 3.15017 29.5567 2.98388 29.4388 2.99395C29.3634 3.00065 29.1002 3.15555 29.2811 3.20186C29.1956 3.2179 29.1049 3.22962 29.0235 3.24217C29.0755 3.26599 29.1333 3.28219 29.1868 3.3102C29.02 3.272 28.9549 3.40882 28.8526 3.41894C28.7521 3.42903 28.659 3.26474 28.5475 3.34479C28.3105 3.51507 28.9018 3.43668 28.972 3.46717C29.0001 3.47916 28.8922 3.60774 28.8753 3.6114C28.801 3.62745 28.712 3.5354 28.6535 3.53949C28.4455 3.55476 28.3244 3.67611 28.1249 3.7005C27.4567 3.78341 26.6271 3.85053 25.9936 3.87687C25.7576 3.88657 25.6155 3.75001 25.5097 3.75382C25.262 3.76283 25.2324 3.88179 25.0155 3.88804C24.6945 3.89774 24.2404 3.79376 23.973 3.77132C23.7853 3.75588 23.6186 3.87099 23.5708 3.87379C22.8983 3.91499 22.084 3.91244 21.5277 3.91409C21.2571 3.91491 21.1417 3.78562 21.0881 3.78945C20.8479 3.80572 20.9117 3.91628 20.7302 3.90528C20.6248 3.89944 20.6048 3.79328 20.5911 3.78915C20.4689 3.7543 20.4533 3.89298 20.3577 3.89767C20.2109 3.90456 20.0875 3.90388 19.9478 3.89897C19.8904 3.89648 19.8084 3.89301 19.7484 3.88885C19.7212 3.88676 19.6834 3.88456 19.6494 3.88229C19.6334 3.88115 19.6199 3.87998 19.6095 3.87877C19.6079 3.87813 19.5899 3.87768 19.5892 3.87705C19.6073 3.87395 19.5253 3.88407 19.7237 3.8645L19.8249 3.84763C19.5223 3.89071 19.4845 3.8744 19.3504 3.88518C19.2344 3.89157 19.1198 3.90142 19.0029 3.91815C18.9682 3.92305 18.9609 3.86201 18.9391 3.86903C18.8453 3.90105 18.9074 3.98807 18.8084 4.0136C18.7377 4.03212 18.6654 4.04783 18.5913 4.06212C18.5423 4.06878 18.3987 4.09152 18.3493 4.08957C18.195 4.0921 18.0374 4.08684 17.8765 4.08366C17.8523 4.08319 17.8393 4.00457 17.7835 4.00627C17.7283 4.008 17.6884 4.08414 17.601 4.08282C17.373 4.07943 17.1446 3.99798 16.901 4.00205C16.8609 4.00282 16.8144 4.09973 16.7536 4.10093C16.5636 4.10481 16.2761 4.02893 16.1065 4.0306C16.0169 4.03163 15.9271 4.03398 15.8353 4.03668C15.3963 4.05017 14.9814 4.096 14.5678 4.10829C14.4509 4.11158 14.3484 4.02683 14.2873 4.02691C14.1533 4.02734 14.2571 4.10666 14.1224 4.11241C13.7381 4.12887 13.4159 4.14806 13.0441 4.19267C12.5726 4.24628 12.0524 4.29818 11.8734 4.35468C11.6156 4.43527 11.3264 4.53533 11.0021 4.6301C10.8763 4.6667 10.7393 4.70895 10.5898 4.75018C10.2381 4.85149 9.90673 4.98078 9.73975 5.03115C9.66959 5.05111 9.62743 4.99147 9.59252 4.97501C9.56441 4.9815 9.53662 4.99102 9.50504 5.00783C9.2375 5.14618 9.24236 5.3071 8.94453 5.44034C8.70535 5.54397 8.41429 5.47545 8.26687 5.53561C8.23105 5.55006 8.20536 5.56952 8.18486 5.5918C8.09397 5.67285 8.04163 5.78513 7.89465 5.85787C7.73563 5.93631 7.48117 5.97294 7.31102 6.06087C7.11063 6.16419 6.91515 6.27044 6.7414 6.37485C6.57825 6.46995 6.38443 6.61194 6.41433 6.60449C6.07091 6.93563 5.83339 7.24982 5.48775 7.72671C5.33291 7.93269 5.1296 8.32125 4.76023 8.797C4.7006 8.85891 4.60336 9.01892 4.46942 9.29706C4.44249 9.34716 4.41521 9.40361 4.38713 9.46828C4.28185 9.68864 4.2751 9.91326 3.98833 10.5514C3.91665 10.6559 3.80717 10.9574 3.65833 11.3111C3.65358 11.3208 3.64882 11.3305 3.64403 11.3402C3.61902 11.3923 3.50212 11.2754 3.49228 11.4633C3.48651 11.5681 3.58023 11.7219 3.5317 12.008C3.51114 12.126 3.48559 12.2538 3.45215 12.3884C3.33167 12.8411 3.2404 13.0591 3.21594 13.1938C3.13888 13.7717 2.98991 14.444 2.75757 15.0492C2.75592 15.0136 2.71322 15.1801 2.69247 15.2972C2.6677 15.4309 2.6473 15.5683 2.62947 15.712C2.59404 15.9991 2.57077 16.2945 2.56024 16.5908C2.47686 18.9445 3.4135 21.4993 1.7227 23.5449C1.63795 23.6399 1.30336 23.5331 1.21403 23.4603C1.29126 23.4145 1.38174 23.3655 1.46758 23.3174C1.04627 23.1932 1.15881 23.2142 1.22575 22.9452C1.26697 22.7742 1.06927 22.8927 1.02568 22.7982C0.970437 22.6771 0.802088 22.1083 1.07893 22.2379C1.03203 22.2004 0.986973 22.1656 0.940998 22.1287C0.927909 21.7279 0.881073 21.3366 0.822238 20.9421C0.811869 20.8742 0.722276 20.8658 0.71203 20.7954C0.683827 20.6058 0.751122 20.4616 0.752621 20.2688C0.753445 20.1641 0.650478 20.144 0.664515 20.007C0.678508 19.8708 0.818455 19.8813 0.676071 19.6861C0.493938 19.7984 0.6499 19.2624 0.648989 19.0682C0.649027 19.0404 0.503015 18.8013 0.527482 18.6802C0.551669 18.5581 0.662193 18.3773 0.615 18.1833C0.592814 18.0924 0.472702 18.0318 0.470824 17.9358C0.469603 17.867 0.58333 17.7911 0.592561 17.7059C0.601663 17.6222 0.5225 17.4283 0.522934 17.3949C0.52395 17.2723 0.593113 17.4115 0.601742 17.3282C0.642467 16.9222 0.712595 16.4541 0.692209 16.0423C0.689843 15.991 0.594044 16.0543 0.591548 16.0474C0.507408 15.6969 0.61074 15.892 0.699295 15.804C0.782317 15.7204 0.806655 15.0641 0.657565 15.0217C0.855185 15.0299 0.72957 14.8454 0.731866 14.801C0.745251 14.6101 0.893781 14.7049 0.906389 14.4643C0.906647 14.4615 0.906761 14.4589 0.906734 14.4566C0.901349 14.4379 0.872587 14.4365 0.844152 14.4365C0.806748 14.4475 0.768759 14.4645 0.783537 14.4171C0.783729 14.4165 0.783952 14.4159 0.784207 14.4153C0.826949 14.3083 1.0352 14.2587 1.09198 14.1068C1.10551 14.0704 1.02827 14.0392 1.04582 13.974C1.06498 13.9102 1.21587 13.6451 1.02071 13.7443C1.18821 13.598 1.11855 13.5492 1.1485 13.3438C1.15599 13.2916 1.29638 13.2377 1.26695 13.1164C1.2569 13.0754 1.12909 13.0644 1.13362 13.0047C1.13371 13.0035 1.1338 13.0023 1.13391 13.0011C1.15253 12.8005 1.31558 12.6471 1.37349 12.4484C1.43356 12.2437 1.47013 12.0542 1.48796 11.9026C1.50552 11.7663 1.52244 11.6192 1.56676 11.464C1.59336 11.3712 1.71538 11.4191 1.74471 11.2777C1.74841 11.2576 1.67299 11.0607 1.70664 10.9584C1.71193 10.9421 1.72617 10.9089 1.74522 10.8672C1.79346 10.7701 1.87719 10.5989 1.89331 10.5537C1.9286 10.4516 1.81313 10.4009 1.85243 10.3475C1.96862 10.1915 2.10268 10.3868 1.92631 10.102C2.08055 10.0739 2.11217 9.9435 2.28794 9.96603C2.18503 9.86913 2.25546 9.82296 2.31186 9.75057C2.32726 9.73826 2.33956 9.7182 2.33184 9.68548C2.30747 9.57304 1.98244 9.38369 2.36635 9.46706C2.33541 9.40508 2.32503 9.13795 2.33341 9.08965C2.35567 8.95485 2.43856 9.05569 2.45501 8.95259C2.45843 8.93423 2.38079 8.93109 2.42585 8.81822C2.4405 8.78207 2.49477 8.62878 2.5638 8.47681C2.62349 8.34458 2.69178 8.20314 2.70417 8.18958C2.97875 7.88429 2.67754 8.41564 2.72949 8.51067C2.70881 8.51414 2.68815 8.51748 2.66742 8.52141C2.66322 8.52252 2.65902 8.52365 2.65482 8.52483C2.55349 8.67833 2.74802 8.64398 2.81376 8.58857C2.81483 8.58766 2.81588 8.58672 2.81691 8.58576C2.87666 8.53435 2.86444 8.38411 2.93932 8.35086C2.9773 8.33443 3.15103 8.43577 3.0927 8.5071C3.18804 8.44516 3.19462 8.59045 3.26301 8.57969C3.33499 8.56395 3.53471 8.20842 3.44631 8.15277C3.40297 8.21878 3.36064 8.30751 3.32173 8.37729C3.10027 8.40243 2.65083 7.77742 3.10469 7.59751C3.13249 7.58816 3.1567 7.58369 3.17784 7.58252C3.36618 7.60208 3.32931 7.85612 3.45002 7.42539C3.40354 7.48158 3.35487 7.52071 3.31183 7.56666C3.19099 7.48823 3.37847 7.49802 3.37121 7.42606C3.36654 7.39319 3.19501 7.46397 3.24243 7.33372C3.47994 7.34926 3.35604 7.15769 3.46885 6.9731C3.46761 7.04416 3.46701 7.11402 3.46676 7.18316C3.78569 6.95738 3.37895 7.69487 3.82626 7.14186C3.78588 7.21843 3.7395 7.28949 3.70261 7.36654C3.78861 7.37209 3.94043 7.5471 4.00004 7.54064C4.15708 7.52291 4.17079 7.36009 4.24322 7.26696C4.2748 7.22615 4.30798 7.28542 4.31062 7.28194C4.354 7.22699 4.27194 7.19205 4.3011 7.13765C4.32414 7.09472 4.40999 7.02537 4.47407 6.9763C4.51382 6.94454 4.54527 6.91818 4.5505 6.90509C4.58743 6.8138 4.35362 6.83775 4.34862 6.82284C4.31749 6.72373 4.44802 6.66542 4.3563 6.60478C4.33241 6.66156 4.29011 6.73214 4.24018 6.80315C4.04007 7.09516 3.7305 7.42562 3.96059 6.80249C3.69121 6.88963 3.50396 6.71684 3.70208 6.4048C3.70247 6.40419 3.70287 6.40358 3.70326 6.40297C3.84559 6.18418 3.82396 6.3776 3.99191 6.33289C4.01201 6.32694 4.27046 6.07524 4.22455 6.01295C4.35311 6.13302 4.54597 6.14132 4.63901 6.31445C4.65254 6.33964 4.55694 6.44402 4.70189 6.49526C4.77462 6.52092 4.94172 6.56663 5.00745 6.63355C4.97411 6.57159 4.93574 6.50321 4.90155 6.43833C5.01753 6.26809 5.09162 6.29186 5.25357 6.2919C5.2135 6.26118 4.98619 6.19635 5.13982 6.12325C5.14818 6.12 5.20866 6.16591 5.28972 6.13515C5.45416 6.07318 5.49087 6.07138 5.56897 6.30973C5.65193 6.10653 5.78161 6.09329 5.90968 6.03668C5.94887 6.03273 6.00083 6.00864 6.06793 5.93485C5.92497 5.78198 5.84164 5.8094 5.78261 5.8937C5.74524 5.93997 5.70479 5.99918 5.65488 6.06785C5.59854 6.02725 5.54751 5.98258 5.4898 5.9424C5.63131 5.88236 5.70419 5.86311 5.7422 5.84824C5.79805 5.83636 5.74556 5.82536 5.80161 5.67423C5.82071 5.61503 6.09751 5.49259 5.9136 5.37734C5.86865 5.34959 5.70818 5.45691 5.68744 5.38601C5.68261 5.37059 5.86986 5.21553 5.89899 5.22202C6.2419 5.29631 5.90314 5.64865 6.49659 5.25284C6.51314 5.24208 6.483 5.16382 6.51301 5.13652C6.56951 5.08549 6.61179 5.17259 6.66109 5.12489C6.71025 5.07728 6.73964 4.92068 6.87874 4.99058C7.12942 5.11926 6.79967 5.40186 6.58624 5.37806C6.63776 5.65649 7.83732 5.14331 7.90891 5.10423C7.94433 5.07675 7.96869 5.0564 7.98154 5.04245C8.00249 5.01815 7.99495 5.01121 7.97086 5.0136C7.89291 5.02274 7.65349 5.12488 7.61563 5.08461C7.59155 5.05817 7.43865 4.66012 7.40076 4.97391C7.39064 5.06641 7.60362 5.09628 7.51804 5.17978C7.43241 5.26357 7.42556 5.13099 7.41472 5.12595C7.37749 5.10873 7.28584 5.1975 7.26508 5.18709C6.94034 5.03299 6.79959 4.64822 7.32705 5.07943C7.40289 4.90035 7.0243 4.82331 7.14894 4.67103C7.3033 4.48497 7.51994 4.60922 7.54784 4.60765C7.85321 4.59165 7.50795 4.47801 7.75054 4.41831C7.77326 4.41284 7.80106 4.4081 7.83498 4.40445C8.05368 4.38281 7.59677 4.68486 8.04959 4.51209C8.4426 4.36908 8.19722 4.34404 8.15621 4.1218C8.14694 4.06959 8.33815 3.93882 8.05636 4.05564C8.06599 4.11393 8.07385 4.19229 8.07146 4.24965C7.98669 4.23185 7.77264 3.99394 7.7267 3.99919C7.67339 4.00477 7.6361 4.01846 7.60813 4.03354C7.52904 4.07737 7.53194 4.13282 7.3997 4.03938C7.54965 4.19127 7.37775 4.13098 7.34399 4.18879C7.22085 4.40195 7.47716 4.35794 7.00354 4.34103C7.09088 4.40392 7.17172 4.46794 7.25625 4.53214C7.20982 4.55444 7.16408 4.57678 7.11809 4.59937C6.97029 4.4418 6.7258 4.57507 6.87614 4.28956C6.5754 4.3549 6.48055 4.44851 6.48656 4.61831C6.48778 4.65077 6.45176 4.68056 6.40515 4.7057C6.43306 4.74139 6.50245 4.85958 6.50212 4.87823C6.49882 5.04221 6.28626 4.86278 6.27876 4.75854C6.24328 4.77057 6.21451 4.77867 6.20403 4.78121C6.13775 4.79711 6.21608 4.66064 6.15426 4.65753C6.13362 4.65629 5.97386 4.75848 5.95389 4.72915C5.82637 4.5407 6.19141 4.52414 5.55329 4.7245C5.64634 4.90948 5.88257 4.72654 5.92132 4.95791C5.96687 5.20262 5.66851 5.00684 5.78752 5.27621C5.75175 5.24183 5.72608 5.21068 5.68796 5.17005C5.54457 5.41039 5.40806 5.21802 5.30124 5.23192C5.27968 5.23451 5.25047 5.2455 5.22027 5.26099C5.00587 5.35657 4.68186 5.72446 5.20813 5.47647C5.15669 5.55273 5.09766 5.62305 5.04818 5.699C4.72687 5.40837 4.8817 5.48232 4.53268 5.76884C4.45731 5.83244 4.28886 5.73503 4.40182 5.95463C4.23741 5.80186 4.15914 6.11405 4.12348 6.11765C3.87167 6.15132 4.09696 5.47313 4.45795 5.67092C4.41852 5.48488 4.56883 5.62094 4.63392 5.51268C4.73001 5.35702 4.7231 5.3073 4.97893 5.27154C4.98538 4.96439 4.32467 5.79282 4.5775 5.14006C4.61238 5.05427 4.68904 4.93221 4.80106 4.78932C5.47218 4.09462 6.36208 3.65375 7.30583 3.21676C7.9498 2.96292 8.11875 2.88462 8.33368 2.73877C8.61048 2.57494 8.80125 2.50311 8.93196 2.45014C9.38707 2.27565 9.715 2.19379 10.004 2.11167C10.3006 2.02197 10.6265 1.88773 11.029 1.74554C11.6567 1.54776 12.0446 1.5284 12.5048 1.46888C12.5328 1.46561 12.6024 1.45605 12.6883 1.4464C13.0109 1.40399 13.6237 1.39046 13.4628 1.59126C13.433 1.62712 12.9974 1.75913 13.3933 1.91664C13.3071 1.81003 13.5249 1.71944 13.5423 1.70684C13.9476 1.4126 13.7098 1.35613 14.3557 1.33ZM16.2587 3.46213C15.9858 3.45268 15.8661 3.46011 15.8266 3.49033C15.8016 3.51003 15.8097 3.53934 15.828 3.57851C15.8668 3.65931 15.953 3.78146 15.8757 3.94835C15.9874 3.94728 16.095 3.9452 16.2013 3.94288C16.1728 3.92068 16.1441 3.89853 16.1155 3.87627C16.1154 3.87628 16.1153 3.87628 16.1152 3.87628C16.1638 3.73833 16.2118 3.60022 16.2587 3.46213ZM29.4196 3.43651C29.3884 3.48496 29.3574 3.53351 29.3232 3.58092C29.2176 3.56581 29.1036 3.55096 29.0017 3.53586C29.0143 3.50297 29.0264 3.4697 29.0389 3.43682C29.1639 3.43829 29.2952 3.4399 29.4196 3.43651ZM6.51271 5.47344C6.32349 5.41794 6.44403 5.62508 6.22915 5.61677C6.3344 5.76136 6.43884 5.90216 6.54107 6.04669C6.64555 5.96171 6.64419 5.88671 6.79884 5.85921C6.75804 5.81564 6.71671 5.772 6.67557 5.72831C6.65791 5.75064 6.64026 5.77498 6.62314 5.79572C6.5151 5.67098 6.72853 5.53897 6.513 5.47289C6.5129 5.47307 6.51281 5.47325 6.51271 5.47344ZM5.46261 6.32272C5.39469 6.35776 5.1331 6.52567 5.16432 6.60596C5.26901 6.86123 5.67918 6.15456 5.45635 6.74395C5.48477 6.76448 5.50917 6.78867 5.53559 6.81102C5.61319 6.73831 5.6896 6.66862 5.76795 6.60026C5.66405 6.50947 5.56787 6.41307 5.46261 6.32272ZM13.3851 3.57653C13.3175 3.57131 13.1119 3.62837 12.9812 3.70719C12.8788 3.76584 12.8256 3.8327 12.9175 3.88879C12.9347 3.89913 12.9647 3.88802 13.0018 3.86604C13.0956 3.80697 13.2308 3.67135 13.2996 3.67158C13.36 3.67177 13.3059 3.80134 13.4185 3.74481C13.4082 3.69097 13.3995 3.63103 13.3848 3.57693C13.3849 3.5768 13.385 3.57666 13.3851 3.57653ZM13.5503 2.8401C13.4232 2.87143 13.2958 2.91102 13.1701 2.94849C13.2785 3.07788 13.4522 2.97164 13.4794 3.16879C13.4461 3.18661 13.4138 3.20441 13.3808 3.22255C13.3511 3.18172 13.3205 3.14103 13.2905 3.10043C13.1931 3.21904 13.2653 3.26425 13.0612 3.25702C13.2205 3.54092 13.2482 3.69537 13.5584 3.36572C13.509 3.53302 13.6036 4.05612 13.7623 3.66665C13.7932 3.5942 13.6442 3.5565 13.642 3.54564C13.6095 3.40829 13.6857 3.31406 13.6525 3.18447C13.6371 3.12578 13.5458 3.13318 13.5261 3.05196C13.5161 3.01225 13.5966 2.8911 13.5503 2.8401ZM13.8453 3.52892C13.8121 3.6152 13.952 3.80782 14.0636 3.76249C14.2382 3.69214 13.949 3.51335 13.8453 3.52892ZM29.4203 3.43633C29.4201 3.43639 29.4198 3.43645 29.4196 3.43651C29.4197 3.43633 29.4198 3.43614 29.42 3.43596C29.4201 3.43608 29.4202 3.4362 29.4203 3.43633ZM5.80032 6.12572C5.78556 6.23671 5.68989 6.31675 5.77685 6.3912C5.7325 6.40373 5.68799 6.41755 5.64359 6.43141C5.66857 6.45489 5.69385 6.47815 5.71855 6.5014C5.8174 6.42943 5.91811 6.3615 6.02233 6.29563C5.9493 6.23818 5.87638 6.1802 5.80032 6.12572ZM4.82116 7.13858C4.79482 7.16956 4.78616 7.19195 4.78867 7.20919C4.79482 7.23414 4.82765 7.24881 4.8629 7.26414C4.9011 7.2783 4.94252 7.29239 4.95717 7.32193C4.95977 7.32718 4.9615 7.3325 4.9625 7.33787C4.98344 7.39847 4.88287 7.46377 4.97341 7.50874C5.00082 7.47244 5.02811 7.4376 5.05433 7.40585C5.08539 7.36714 5.11594 7.32912 5.14601 7.29182C5.03631 7.24342 4.92946 7.18762 4.82095 7.13886C4.82102 7.13876 4.82109 7.13867 4.82116 7.13858ZM19.65 3.30899C19.4841 3.30059 19.5286 3.17295 19.3193 3.34101C19.3195 3.34099 19.3197 3.34097 19.3198 3.34094C19.433 3.369 19.4991 3.41039 19.7316 3.39261L19.6644 3.40382C19.4857 3.42164 19.6191 3.41474 19.6067 3.41945C19.6188 3.42195 19.6341 3.42398 19.6521 3.4255C19.6927 3.42853 19.7255 3.42964 19.7574 3.42832C19.8258 3.42565 19.9029 3.41324 19.9635 3.38775C19.8985 3.32935 19.8289 3.32073 19.7636 3.32271C19.7306 3.32371 19.7086 3.32729 19.6622 3.3288C19.6427 3.32954 19.6254 3.32972 19.6111 3.32873C19.6279 3.32559 19.484 3.33266 19.653 3.31548L19.7137 3.30536C19.69 3.30801 19.669 3.30908 19.65 3.30899ZM7.0193 5.61957C7.02414 5.5141 6.78838 5.53608 6.78224 5.63616C6.77306 5.79664 7.01213 5.77861 7.0193 5.61957ZM24.335 2.47921C24.5157 2.19057 24.1763 1.86644 23.8116 2.00633C23.7801 2.01857 24.0143 2.11042 23.9449 2.16675C23.9378 2.1723 23.8093 2.1654 23.7778 2.20554C23.7462 2.24578 23.7793 2.3392 23.7276 2.37838C23.6368 2.44687 23.4333 2.31992 23.3633 2.40983C23.3541 2.42188 23.4831 2.54682 23.4914 2.55157C23.6206 2.62717 23.7464 2.46388 23.7667 2.4628C23.8709 2.45722 23.8553 2.58525 23.8817 2.61535C23.9315 2.67196 24.0199 2.61539 24.0261 2.61959C24.1853 2.73191 23.821 2.6997 23.7728 2.74588C23.6416 2.87044 23.7633 2.98627 23.4494 3.05657C23.4187 3.06319 23.0579 3.05563 23.5132 3.19904C22.6231 3.49778 23.9559 3.36905 24.1022 3.30332C24.1682 3.27283 24.0683 3.15078 24.1083 3.09586C24.1997 2.97027 24.3568 2.94816 24.3429 2.77109C24.3118 2.39882 24.1086 2.64269 23.9643 2.58002C23.9794 2.49919 23.9852 2.42035 24.0132 2.34126C23.9721 2.44764 24.3211 2.50094 24.335 2.47995C24.335 2.4797 24.335 2.47946 24.335 2.47921ZM22.0921 2.90445C21.8999 2.79216 21.905 3.02716 21.7238 2.89283C21.5637 3.1039 21.8797 3.08963 21.9197 3.10151C22.0894 3.15466 22.0813 3.3841 22.2548 3.31348C22.1952 3.17773 22.1471 3.04055 22.0921 2.90445ZM23.8229 3.00133C23.6896 3.12028 23.9282 3.11831 23.9382 3.14106C24.0425 3.38242 23.3306 3.3354 23.8229 3.00133ZM12.5783 3.19705C12.5105 3.19744 12.567 3.30515 12.5125 3.34595C12.4578 3.38682 12.2468 3.31655 12.2616 3.38634C12.2769 3.45551 12.6594 3.59087 12.3058 3.6782C12.3232 3.71605 12.3232 3.74607 12.3339 3.78097C12.4308 3.76873 12.5314 3.7577 12.633 3.74602C12.5631 3.63912 12.4913 3.52648 12.4241 3.42335C12.4689 3.32545 12.5159 3.43763 12.5188 3.43725C12.5188 3.43713 12.5188 3.43701 12.5188 3.43688C12.6235 3.41438 12.7311 3.19602 12.5783 3.19705ZM17.8783 3.30596C17.8897 3.02026 17.741 3.34346 17.6771 3.38089C17.6136 3.41815 17.5204 3.31559 17.558 3.43715C17.6659 3.51826 17.877 3.33781 17.8783 3.3056C17.8783 3.30572 17.8783 3.30584 17.8783 3.30596ZM21.011 2.90547C20.8397 2.97483 20.8727 3.04894 20.6677 2.96454C20.6761 3.03347 20.6845 3.10391 20.6929 3.17179C20.8531 3.17304 20.8364 2.97292 21.0293 3.05322C21.0602 3.0665 20.9963 3.22639 21.1342 3.17492C21.0972 3.08962 21.0518 2.99496 21.011 2.90547ZM20.1838 3.16205C20.3744 3.15119 20.5331 2.59309 20.1742 2.84529C20.1246 2.88299 20.0486 3.17035 20.1838 3.16205ZM14.3145 3.03568C13.9898 3.03128 14.3608 3.10768 14.4472 3.19116C13.7009 3.28594 14.5313 3.16374 14.6141 3.4481C14.7026 3.36443 14.8728 3.1745 14.6784 3.12968C14.5992 3.11111 14.6293 3.19526 14.6249 3.19503C14.4777 3.17813 14.4917 3.03864 14.3145 3.03568ZM22.4402 2.89067C22.4276 2.89487 22.4473 2.99117 22.4072 3.01042C22.367 3.02953 22.2773 2.96214 22.2686 3.02124C22.2587 3.08071 22.4424 3.1268 22.4943 3.08347C22.5476 3.03972 22.5499 2.85357 22.4402 2.89067ZM21.1875 2.65376C21.0298 2.72316 21.2878 3.07778 21.3252 3.07611C21.6412 3.0574 21.1745 2.76609 21.1875 2.65376ZM15.0541 2.41336C14.6655 2.60229 14.9614 2.90859 15.2086 3.09132C15.2398 3.05257 15.2724 3.01375 15.3044 2.97537C15.1614 3.20992 14.9085 3.44361 15.4781 3.23095C15.1631 3.18219 15.4236 3.11514 15.4259 3.10204C15.453 2.67577 14.9903 2.88252 15.0545 2.41335C15.0544 2.41335 15.0543 2.41336 15.0541 2.41336ZM22.9695 2.99209C23.1351 2.99066 23.5853 2.9172 23.3756 2.73173C23.2381 2.81849 23.103 2.90532 22.9695 2.99209ZM8.65193 3.69771C8.49145 3.65837 8.3934 3.70317 8.24872 3.76375C8.43473 3.85886 8.35605 3.90767 8.32144 3.96059C8.26943 4.04029 8.44091 3.97211 8.44465 3.98085C8.49545 4.11731 8.39089 4.18752 8.64621 4.07666C8.60392 4.151 8.55897 4.22491 8.5105 4.29757C8.71725 4.22425 8.80124 4.28851 8.98564 4.32868C8.7345 4.13571 8.97771 4.21396 9.0523 4.01535C9.05277 4.01382 9.05323 4.01228 9.05369 4.01071C9.06289 3.97916 9.03396 3.93618 8.98414 3.89428C8.88022 3.8084 8.70612 3.71223 8.65149 3.69792C8.65164 3.69785 8.65178 3.69778 8.65193 3.69771ZM14.6454 2.36563C14.6071 2.41809 14.5697 2.48872 14.5332 2.54858C14.4915 2.55536 14.4468 2.56161 14.4056 2.56849C14.3991 2.52319 14.3929 2.47579 14.3852 2.43228C14.3274 2.42088 14.352 2.48346 14.3353 2.48995C14.3353 2.4897 14.3353 2.48946 14.3353 2.48921C14.0974 2.58127 14 2.57587 13.8013 2.44536C13.8087 2.58451 13.8162 2.72365 13.8236 2.8628C13.8659 2.84723 13.9064 2.83224 13.9484 2.81732C13.9669 2.7415 13.9861 2.66563 14.0059 2.58981C14.0559 2.62896 14.1075 2.6679 14.1571 2.70733C14.1961 2.67888 14.2407 2.64893 14.2745 2.62152C14.4824 3.00399 14.0312 2.75512 14.0342 2.91757C14.036 3.02074 14.4772 3.00045 14.5397 2.92757C14.5489 2.91683 14.4442 2.6296 14.6112 2.77611C14.6387 2.79922 14.6617 3.42608 14.8243 2.91393C14.8475 2.8413 14.7514 2.45362 14.6454 2.36563ZM12.9688 2.26466C13.1134 2.43819 12.9654 2.46072 12.8206 2.46734C12.6629 2.47383 12.5007 2.45724 12.7306 2.60443C12.6415 2.8015 12.6616 2.79659 12.7958 2.94464C12.8077 2.95793 12.7354 3.01814 12.7429 3.02367C12.7975 3.05898 12.8531 3.06418 12.8994 3.07567C12.9526 3.08902 12.9924 3.11131 13.0038 3.19863C13.0308 3.18644 13.0566 3.17543 13.0836 3.16339C12.9471 3.0242 13.1219 2.89795 13.1833 2.76048C13.2112 2.69804 13.1306 2.68836 13.1538 2.63382C13.1627 2.61371 13.2767 2.63997 13.2761 2.58576C13.274 2.46301 13.1877 2.30451 13.0556 2.22853C13.0556 2.22841 13.0556 2.22829 13.0556 2.22817C13.0261 2.2396 12.9979 2.25272 12.9688 2.26466ZM18.3282 2.38416C18.4112 2.58416 18.5767 2.61986 18.3293 2.77146C18.3265 2.77184 18.3184 2.77312 18.3156 2.77301C18.3032 2.7779 18.2899 2.78287 18.2758 2.78797C18.2899 2.82315 18.3044 2.85809 18.3187 2.89319C18.3257 2.89347 18.3462 2.89023 18.3532 2.88928C18.3578 2.89664 18.3625 2.90402 18.367 2.91141C18.4202 2.89673 18.4706 2.88287 18.5249 2.86885C18.5688 2.19389 19.0063 2.86887 18.7309 2.44533C18.7011 2.39925 18.579 2.47813 18.6852 2.32038C18.685 2.32029 18.6848 2.3202 18.6846 2.32011C18.5096 2.39383 18.5037 2.47529 18.3282 2.38416ZM17.1728 2.58301C16.7729 3.06419 17.7573 2.82342 17.5881 2.70555C17.5724 2.69468 17.149 2.80959 17.1728 2.58301ZM20.502 1.93659C20.3265 1.92876 20.3 2.18071 20.3232 2.27137C20.3473 2.36231 20.4707 2.2702 20.4873 2.28451C20.5406 2.33169 20.4279 2.36303 20.4969 2.42769C20.5179 2.44867 20.8503 2.53813 20.8614 2.52729C20.9436 2.46697 20.8232 2.25924 20.8467 2.23543C20.9223 2.15737 21.0307 2.2654 21.0542 2.15488C21.1039 1.91906 20.9018 2.16672 20.8706 2.17077C20.7722 2.18205 20.7823 2.04931 20.7095 2.02278C20.6301 1.99632 20.5803 2.04185 20.5151 2.03252C20.4935 2.0294 20.5113 1.93742 20.502 1.93659ZM19.8876 2.46968C20.0733 2.27877 19.6141 2.07133 19.5288 2.11912C19.5234 2.12118 19.5192 2.12279 19.5 2.12685C19.4946 2.12791 19.4783 2.1299 19.473 2.13135C19.4536 2.18017 19.4652 2.24165 19.5067 2.29555C19.5096 2.29476 19.5185 2.29367 19.5214 2.29309C19.6387 2.41183 19.8123 2.5309 19.8876 2.46968ZM13.6661 2.8089C13.8387 2.65952 13.4092 2.57407 13.2916 2.64332C13.3209 2.69735 13.6088 2.85931 13.6661 2.8089ZM15.164 2.41183C14.9989 2.45827 15.2242 2.76504 15.3609 2.75766C15.4368 2.55158 15.3635 2.59346 15.2729 2.5868C15.1828 2.58007 15.2903 2.3758 15.164 2.41183ZM22.5348 2.16318C22.5034 2.15992 21.9245 2.32917 22.2547 2.39942C22.2816 2.40466 22.6799 2.37483 22.7101 2.34334C22.7712 2.27964 22.6243 2.17227 22.5348 2.16318ZM15.9423 2.09524C15.8624 2.27435 15.7787 2.27324 15.8608 2.47967C15.8609 2.47967 15.861 2.47967 15.8611 2.47966C15.8428 2.48545 15.8257 2.48762 15.8106 2.48676C15.6375 2.47771 15.623 2.12279 15.578 2.13187C15.4125 2.16665 15.5743 2.46655 15.4733 2.56772C15.7048 2.47353 15.65 2.6614 15.8138 2.68358C15.8195 2.68439 15.8255 2.68498 15.8319 2.68532C15.873 2.68762 16.0344 2.56162 16.0558 2.4849C16.0775 2.40827 15.9872 2.18309 15.9423 2.09524ZM23.3411 2.11906C23.147 2.05121 22.9727 2.33812 23.2388 2.38364C23.3694 2.40604 23.4601 2.16036 23.3411 2.11906ZM4.5294 5.8491C4.60675 5.8747 4.68405 5.9002 4.76145 5.92536C4.72615 5.99232 4.69246 6.05988 4.66007 6.12751C4.67865 6.0682 4.69848 6.00899 4.71961 5.94943C4.60958 6.03566 4.46247 5.99855 4.52915 5.84938C4.52924 5.84928 4.52932 5.84919 4.5294 5.8491ZM2.1501 10.1231C2.05898 10.1671 2.23823 10.3548 2.25999 10.3429C2.41668 10.2669 2.27459 10.0678 2.1501 10.1231ZM13.3438 2.1497C13.1042 2.14037 13.3036 2.48716 13.4433 2.50101C13.3517 2.43852 13.4787 2.15634 13.3438 2.1497ZM2.72949 8.51067C2.76631 8.50448 2.80324 8.49809 2.84118 8.48961C2.77253 8.53821 2.74094 8.5377 2.72949 8.51067ZM22.4455 1.8411C22.4096 1.81312 22.1565 1.79004 22.124 1.82467C22.0545 1.89747 22.2475 2.0988 22.3655 2.03685C22.3783 2.0302 22.4801 1.86909 22.4449 1.8411C22.4451 1.8411 22.4453 1.8411 22.4455 1.8411ZM4.21718 6.00634C4.22016 6.00819 4.22263 6.01045 4.22455 6.01295C4.22218 6.01071 4.2195 6.00866 4.21718 6.00634ZM0.640764 15.0217C0.646573 15.0209 0.652246 15.0209 0.657565 15.0217C0.652242 15.0216 0.646567 15.0221 0.640764 15.0217ZM20.6745 1.53228C20.5844 1.18486 20.397 1.36993 20.5472 1.54157C20.5553 1.55059 20.6527 1.53162 20.6745 1.53228Z" fill="#419DDF"/>
</svg>
