<svg width="283" height="27" viewBox="0 0 283 27" fill="none" xmlns="http://www.w3.org/2000/svg">
<path d="M170.337 0.524234C180.473 0.516534 191.57 0.470268 201.746 0.530459C202.995 0.537813 202.91 0.638561 203.261 0.651859C204.219 0.688552 204.796 0.569712 205.494 0.578433C208.889 0.620425 212.065 0.637521 215.396 0.675662C218.827 0.714857 217.204 1.02802 218.396 1.10431C220.726 1.25372 218.744 0.845352 219.66 0.753666C222.33 0.778161 225.024 0.8224 227.699 0.867191C227.046 0.90532 226.393 0.942639 225.733 0.977971C226.899 0.986374 228.568 1.04941 226.615 1.15613C227.047 1.18553 227.45 1.21991 227.893 1.2486C228.015 1.09989 230.079 1.08792 230.268 0.99976C230.456 0.911572 229.295 0.931836 229.303 0.924138C229.38 0.814297 234.141 0.964442 234.484 0.976689C235.392 1.00928 234.596 1.19364 235.368 1.18177C236.696 1.16147 235.811 0.786357 237.609 1.28504C238.324 1.12304 238.387 1.20717 239.292 1.21839C239.412 1.21979 239.319 1.12599 239.371 1.12354C240.742 1.05392 239.689 1.22835 239.696 1.2378C239.82 1.39831 241.291 1.32696 241.601 1.34235C245.49 1.53411 248.339 1.66394 252.443 1.70838C253.33 1.71783 256.031 1.6527 256.89 1.68C257.736 1.70694 257.282 1.82259 257.725 1.87812C258.435 1.5999 259.113 1.56922 260.707 1.75251C261.301 1.54956 261.224 1.71327 262.362 1.67268C263.308 1.63905 264.958 1.39559 266 1.6031C264.805 1.5842 264.929 1.6839 263.584 1.74409C263.137 1.76402 258.469 1.76828 258.816 1.97572C258.997 2.08384 260.544 1.98453 260.604 2.00446C260.952 2.12065 260.089 2.26343 259.323 2.21339C259.514 2.18994 259.744 2.16616 259.949 2.14271C258.23 1.99748 259.412 2.55527 258.105 2.06782C257.944 2.00803 258.007 1.94568 257.74 1.88215C257.685 1.90843 258.011 1.97357 257.731 1.98524C257.444 1.997 256.901 1.87331 256.82 1.97755C256.699 2.12913 257.885 2.06939 257.974 2.07826C257.975 2.07734 257.976 2.07642 257.977 2.07551C258.766 2.15599 257.118 2.16517 257.039 2.17951C256.53 2.27396 256.877 2.34668 256.112 2.42469C255.676 2.46914 254.565 2.44294 254.154 2.45729C253.747 2.47199 254.381 2.5437 254.107 2.55909C253.833 2.57449 253.491 2.52 253.169 2.53785C253.031 2.54572 253.039 2.62569 252.972 2.62849C252.257 2.65926 252.726 2.49291 252.077 2.50306C251.657 2.50981 250.247 2.66488 251.219 2.71107C250.752 2.72716 250.296 2.73894 249.831 2.75154C250.125 2.77533 250.428 2.79149 250.714 2.81947C249.839 2.78138 249.443 2.91824 248.895 2.92842C248.347 2.93857 247.855 2.77433 247.252 2.85444C245.964 3.02487 249.152 2.94613 249.548 2.97657C249.702 2.98854 249.11 3.11719 249.019 3.12086C248.614 3.13695 248.134 3.04496 247.822 3.04908C246.704 3.06448 246.019 3.1859 244.953 3.2104C241.324 3.29369 236.823 3.36123 233.384 3.38783C232.104 3.39763 231.333 3.26112 230.759 3.26497C229.414 3.27408 229.25 3.39304 228.077 3.39937C226.332 3.40917 223.873 3.30531 222.416 3.28291C221.408 3.26751 220.494 3.38264 220.232 3.38545C216.586 3.42674 212.151 3.42415 209.13 3.42555C207.71 3.42625 207.035 3.29687 206.741 3.30067C205.48 3.31677 205.818 3.42738 204.796 3.41621C204.244 3.41027 204.14 3.30409 204.066 3.29994C203.415 3.26494 203.286 3.40361 202.778 3.40816C199.857 3.43439 197.044 3.34364 194.152 3.33034C193.942 3.32929 193.961 3.26786 193.825 3.27101C193.241 3.28608 193.513 3.38282 192.903 3.38985C191.634 3.40489 190.332 3.38891 188.987 3.37666C188.854 3.37545 188.794 3.29649 188.489 3.29646C188.184 3.29646 187.953 3.37132 187.473 3.36714C186.222 3.35629 184.986 3.26675 183.661 3.26185C183.441 3.26115 183.17 3.35628 182.84 3.35524C181.808 3.35209 180.279 3.26574 179.395 3.26259C176.476 3.25279 173.784 3.30693 171.035 3.30763C170.389 3.30759 169.817 3.21946 169.48 3.21736C168.723 3.21284 169.294 3.29611 168.527 3.29646C162.256 3.29856 155.961 3.2607 149.616 3.26735C147.125 3.2698 144.092 3.35596 141.684 3.33217C140.682 3.32201 140.501 3.20687 139.793 3.20582C138.529 3.20446 138.3 3.35206 136.968 3.36677C135.904 3.37832 134.686 3.23097 133.579 3.24006C132.473 3.24916 131.962 3.39229 130.692 3.40944C129.645 3.42342 128.183 3.35847 127.044 3.36897C116.6 3.46556 106.317 3.52435 95.809 3.41237C92.1013 3.37282 87.9878 3.39338 84.1561 3.2527C83.7962 3.23938 84.3467 3.10116 83.1929 3.1302C82.573 3.14595 81.7075 3.26505 80.2746 3.27101C71.7553 3.306 62.668 3.05124 54.0056 3.10164C41.03 3.17758 27.5824 4.16117 16.3068 2.72187C15.7538 2.65119 16.0537 2.30483 16.385 2.20643C16.6926 2.27676 16.9769 2.36028 17.2987 2.43971C17.7039 2.00693 17.6325 2.11961 19.1345 2.15846C20.0592 2.18258 19.3206 1.99749 19.8135 1.94495C20.4525 1.87706 23.4528 1.66329 22.8758 1.9499C23.0617 1.90021 23.2334 1.8526 23.4146 1.80396C25.5867 1.76057 27.697 1.68881 29.8214 1.60657C30.1884 1.5922 30.2053 1.50227 30.5843 1.48792C31.6023 1.44874 32.4106 1.50782 33.4596 1.49872C34.0295 1.49383 34.1086 1.3899 34.8549 1.39655C35.6007 1.40324 35.5844 1.54353 36.602 1.39106C35.9392 1.21504 38.8959 1.34276 39.9475 1.33191C40.1001 1.33052 41.3517 1.17238 42.017 1.19056C42.6845 1.2084 43.6979 1.30942 44.7302 1.25208C45.2142 1.22514 45.5079 1.10198 46.03 1.09498C46.3972 1.09008 46.8383 1.19954 47.3032 1.20411C47.7679 1.20865 48.7736 1.1188 48.9578 1.11731C49.6229 1.11137 48.8892 1.18833 49.3441 1.1922C51.54 1.2097 54.0913 1.25095 56.2563 1.19916C56.5225 1.19288 56.1542 1.10221 56.1895 1.09919C57.9964 0.987931 57.032 1.10607 57.5199 1.18726C57.9925 1.26577 61.4512 1.22294 61.4767 1.06531C61.583 1.2627 62.3518 1.11194 62.5515 1.10615C63.3287 1.08377 63.1762 1.25455 63.9296 1.20173C64.206 1.18249 63.6678 1.06706 63.9649 1.07044C64.6992 1.07884 65.3601 1.26428 66.3376 1.28284C66.5737 1.28739 66.6504 1.20479 67.07 1.20759C67.4902 1.21043 69.2512 1.31149 68.4385 1.13727C69.5066 1.27688 69.7217 1.20026 70.9639 1.20411C71.2785 1.20528 71.6837 1.3384 72.3534 1.29712C72.5799 1.28312 72.5732 1.1548 72.9141 1.15375C73.6937 1.15099 74.4282 1.28382 75.4175 1.28907C77.2678 1.29921 79.2374 1.20584 81.1663 1.23908C81.6906 1.2482 81.5597 1.37721 82.3221 1.37971C82.4342 1.37971 83.3526 1.26814 83.8795 1.27863C84.1966 1.28493 85.8398 1.36334 86.1712 1.36963C86.7192 1.37973 86.817 1.25496 87.1172 1.27936C87.9851 1.3497 87.2889 1.53336 88.3332 1.28211C88.6765 1.42139 89.2868 1.40746 89.4823 1.57893C89.8376 1.39102 90.2983 1.57156 90.9872 1.50861C91.6763 1.44562 92.2413 1.08168 92.4082 1.47327C92.7301 1.42568 94.1015 1.34446 94.3327 1.33851C95.0144 1.32172 94.6499 1.43004 95.1643 1.41541C95.2549 1.41296 95.1601 1.33889 95.7413 1.3462C96.1228 1.3511 98.918 1.35564 99.0849 1.36579C100.989 1.48175 98.0472 1.43925 97.6353 1.51942C97.5626 1.49836 97.4907 1.47723 97.4131 1.45643C96.5716 1.42145 97.0507 1.58879 97.4322 1.62763C97.8137 1.66646 98.5265 1.59192 98.8436 1.64686C99.0016 1.67444 98.9037 1.87507 98.4259 1.85084C98.9372 1.91263 98.239 1.97788 98.4412 2.03596C98.6635 2.09962 100.961 2.11922 100.973 2.00868C100.544 2.00483 100.01 2.00864 99.576 2.0041C99.0086 1.81197 100.732 1.15586 102.313 1.41797C103.46 1.60764 101.569 1.75845 104.282 1.59925C103.865 1.59155 103.512 1.57361 103.133 1.56556C103.093 1.42148 103.708 1.5799 104.025 1.53406C104.177 1.51165 103.239 1.40963 104.054 1.37568C104.754 1.58172 105.294 1.37446 106.469 1.37202C106.143 1.40876 105.815 1.44532 105.489 1.48206C107.475 1.63149 102.862 1.68078 106.724 1.76441C106.259 1.77105 105.797 1.76929 105.33 1.77943C105.556 1.85503 105.194 2.07696 105.396 2.12385C105.928 2.24693 106.714 2.17273 107.363 2.18354C107.647 2.18809 107.471 2.24801 107.494 2.24836C107.883 2.255 107.797 2.16717 108.138 2.16157C108.567 2.15458 109.806 2.23996 110.007 2.23023C110.527 2.20539 109.662 2.03206 109.712 2.01911C110.043 1.93516 110.72 2.00478 110.684 1.89497C109.056 1.97054 104.362 1.87352 108.608 1.6919C107.438 1.51448 107.776 1.26987 109.459 1.25062C110.851 1.23452 109.953 1.33253 110.678 1.44031C110.771 1.45381 112.636 1.50534 112.732 1.42914C112.657 1.60464 113.264 1.76005 112.857 1.94111C112.797 1.96771 112.032 1.95721 112.299 2.10279C112.433 2.17592 112.816 2.33508 112.754 2.42817C112.911 2.36344 113.076 2.29062 113.236 2.22309C114.382 2.2042 114.545 2.27393 115.172 2.39466C115.144 2.34427 114.564 2.13252 115.444 2.19691C115.489 2.20076 115.528 2.27676 115.975 2.31446C116.879 2.39004 117.068 2.41355 116.374 2.63673C118.245 2.50943 118.648 2.75817 120.567 2.68544C120.186 2.39853 119.511 2.46956 117.754 2.52485C117.678 2.45662 117.642 2.38907 117.563 2.32014C119.902 2.4748 118.746 2.45905 120.071 2.32051C120.396 2.28656 122.125 2.32288 121.548 2.12971C121.412 2.08426 120.337 2.08949 120.461 2.01783C120.484 2.00419 121.79 1.96947 121.905 1.98798C123.35 2.2165 120.768 2.37577 124.747 2.29249C124.857 2.29004 124.895 2.20652 125.11 2.19489C125.513 2.1732 125.518 2.26996 125.877 2.24763C126.237 2.22523 126.736 2.09509 127.277 2.2154C128.267 2.43447 125.933 2.56047 124.893 2.44428C124.471 2.73055 131.898 2.73685 132.359 2.71235C134.368 2.60564 131.024 2.66724 130.852 2.58784C130.78 2.55425 130.816 2.12842 129.97 2.40473C129.719 2.48662 130.766 2.59451 130.141 2.63966C129.517 2.6848 129.764 2.55942 129.719 2.55067C129.563 2.52068 128.899 2.56717 128.813 2.54939C127.487 2.27957 127.609 1.87186 129.366 2.47413C130.131 2.338 128.375 2.12102 129.326 2.02863C130.482 1.91634 131.326 2.11052 131.472 2.11927C133.214 2.22281 131.205 1.93935 133.333 2.02992C134.518 2.08031 131.56 2.21857 134.266 2.20002C136.531 2.18427 135.308 2.08559 135.472 1.86127C135.511 1.80879 136.752 1.74443 135.062 1.76752C135.015 1.82596 134.924 1.90297 134.817 1.95686C134.403 1.91419 133.712 1.62174 133.492 1.61152C132.416 1.56288 132.468 1.71467 131.834 1.5359C132.287 1.73147 131.55 1.61362 131.273 1.65491C130.246 1.8071 131.593 1.86368 129.288 1.6681C129.588 1.75979 129.86 1.84977 130.151 1.94111C129.874 1.94426 129.598 1.94748 129.321 1.95063C128.909 1.74871 127.44 1.77454 128.77 1.57123C127.17 1.5135 126.524 1.55752 126.173 1.71461C126.106 1.7446 125.866 1.75658 125.584 1.75947C125.637 1.80364 125.705 1.94012 125.661 1.95686C125.263 2.10406 124.646 1.84976 124.856 1.75269C124.659 1.74805 124.502 1.7426 124.447 1.74024C124.097 1.72517 124.783 1.6374 124.499 1.60731C124.406 1.59753 123.42 1.61662 123.401 1.58094C123.282 1.35218 124.905 1.51722 121.646 1.38428C121.567 1.59251 123.081 1.54672 122.692 1.76789C122.275 2.00549 121.424 1.68677 121.238 1.97828C121.169 1.93035 121.138 1.89039 121.079 1.83582C119.76 1.96283 119.743 1.72005 119.34 1.66645C118.558 1.56181 114.962 1.57753 118.191 1.78785C117.719 1.80885 117.237 1.81856 116.767 1.8371C116.66 1.40186 116.946 1.5751 114.683 1.50861C114.185 1.49392 114.023 1.30249 113.534 1.52985C113.6 1.30683 112.127 1.44156 111.989 1.4145C111.107 1.23848 114.382 0.99347 114.802 1.38776C115.355 1.23425 115.353 1.43718 115.971 1.41028C116.862 1.37144 116.986 1.33192 118.045 1.4817C119.087 1.27067 113.966 1.38885 117.07 1.10889C120.176 0.828952 138.257 0.672797 142.475 0.630801C150.117 0.554862 154.135 0.505228 160.999 0.517825C161.677 0.518875 166.788 0.498641 165.726 0.742496C165.573 0.777491 163.375 0.870233 165.26 1.06165C164.877 0.948631 165.986 0.875244 166.079 0.863346C168.213 0.593191 166.977 0.527033 170.337 0.524234ZM180.296 2.69917C175.911 2.64353 179.133 2.80655 178.222 3.1747C178.785 3.17575 179.345 3.17676 179.908 3.17781C179.76 3.15471 179.614 3.13169 179.466 3.10859C179.466 3.10859 179.465 3.10859 179.464 3.10859C179.741 2.97213 180.02 2.83563 180.296 2.69917ZM251.973 2.94563C251.802 2.9941 251.633 3.04267 251.448 3.0901C250.869 3.07505 250.291 3.06028 249.712 3.04524C249.781 3.01235 249.848 2.97907 249.917 2.94618C250.603 2.94758 251.286 2.9491 251.973 2.94563ZM124.28 2.49757C123.46 2.36286 123.534 2.60326 122.444 2.49372C122.578 2.67113 122.726 2.84468 122.867 3.02034C123.696 2.99409 123.885 2.92662 124.785 2.96998C124.681 2.91296 124.573 2.8556 124.471 2.79823C124.321 2.81046 124.161 2.82438 124.016 2.83522C123.785 2.67566 125.224 2.65185 124.283 2.4972C124.282 2.49732 124.281 2.49745 124.28 2.49757ZM115.875 2.56898C115.434 2.54588 113.687 2.45905 113.448 2.53254C112.64 2.78171 117.57 2.62358 113.936 2.8451C113.953 2.88006 113.936 2.91432 113.936 2.94893C114.599 2.96117 115.26 2.97172 115.928 2.98152C115.892 2.84366 115.916 2.70754 115.875 2.56898ZM164.437 2.71455C163.759 2.69535 160.528 2.81255 161.581 2.97035C161.891 3.01654 163.334 2.79081 163.882 2.80061C164.237 2.80693 163.839 2.93069 164.54 2.8852C164.509 2.83065 164.49 2.77017 164.436 2.71492C164.436 2.71479 164.437 2.71467 164.437 2.71455ZM165.709 1.99439C165.008 2.01644 164.297 2.04437 163.591 2.06782C164.107 2.20882 165.12 2.11825 165.179 2.31666C164.986 2.3317 164.795 2.34666 164.602 2.3617C164.455 2.31832 164.309 2.2749 164.164 2.23152C163.558 2.3393 163.925 2.39285 162.797 2.3617C163.479 2.66161 163.606 2.82258 165.537 2.51918C165.172 2.6819 165.516 3.2121 166.586 2.8332C166.786 2.76286 165.95 2.71586 165.94 2.70466C165.812 2.56543 166.276 2.47657 166.138 2.34504C166.076 2.28555 165.566 2.28646 165.489 2.20387C165.454 2.16358 165.939 2.04863 165.709 1.99439ZM167.106 2.70045C166.889 2.78478 167.63 2.98492 168.274 2.94435C169.278 2.88136 167.695 2.691 167.106 2.70045ZM251.977 2.94545C251.976 2.94551 251.975 2.94557 251.973 2.94563C251.974 2.94545 251.975 2.94526 251.975 2.94508C251.976 2.9452 251.977 2.94532 251.977 2.94545ZM118.15 2.66658C117.63 2.73827 116.861 2.72782 116.918 2.84181C116.665 2.81941 116.409 2.79737 116.157 2.77497C116.159 2.80925 116.164 2.84359 116.166 2.87751C116.927 2.89886 117.685 2.92027 118.445 2.94197C118.35 2.85029 118.262 2.75826 118.15 2.66658ZM109.864 2.58674C108.908 2.57521 109.71 2.7303 109.5 2.80519C109.29 2.88008 108.439 2.81915 108.539 2.92659C109.101 2.93079 109.688 2.93501 110.258 2.93885C110.108 2.82197 110.003 2.70293 109.862 2.58674C109.863 2.58674 109.864 2.58674 109.864 2.58674ZM198.191 2.8213C197.542 2.7877 197.807 2.66936 196.527 2.80793C196.528 2.80793 196.529 2.80793 196.53 2.80793C197.748 2.90485 199.316 2.99123 200.661 2.89747C199.838 2.77262 199.211 2.87379 198.191 2.8213ZM126.548 2.84675C126.822 2.75298 125.547 2.67466 125.265 2.76179C124.81 2.90281 126.131 2.98918 126.548 2.84675ZM224.384 1.99073C225.37 1.70204 223.501 1.378 221.543 1.51795C221.374 1.5302 222.638 1.62201 222.263 1.67835C222.226 1.6839 221.532 1.67702 221.36 1.71717C221.189 1.75741 221.369 1.85083 221.088 1.89002C220.594 1.95852 219.478 1.8316 219.109 1.92152C219.06 1.93357 219.752 2.0585 219.795 2.06324C220.506 2.13882 221.191 1.97552 221.3 1.97443C221.865 1.96884 221.78 2.09687 221.923 2.12696C222.192 2.18356 222.667 2.12698 222.7 2.13117C223.558 2.24346 221.598 2.21133 221.334 2.25752C220.621 2.38209 221.281 2.49791 219.571 2.56825C219.409 2.57487 217.466 2.56735 219.915 2.7107C215.106 3.00953 222.331 2.88068 223.115 2.81489C223.477 2.78439 222.929 2.66235 223.149 2.60743C223.649 2.48182 224.503 2.45967 224.426 2.2826C224.262 1.91034 223.141 2.15426 222.368 2.09162C222.449 2.01078 222.48 1.93194 222.631 1.85285C222.399 1.95924 224.312 2.01246 224.384 1.99146C224.384 1.99122 224.384 1.99098 224.384 1.99073ZM212.211 2.41609C211.131 2.30375 211.207 2.53875 210.218 2.40437C209.345 2.61538 211.066 2.60121 211.267 2.61311C212.182 2.66629 212.161 2.89574 213.098 2.82515C212.776 2.68938 212.514 2.5522 212.211 2.41609ZM221.605 2.51295C220.883 2.63193 222.176 2.62991 222.228 2.65266C222.799 2.894 218.928 2.8471 221.605 2.51295ZM160.23 2.24177C159.863 2.23372 160.096 2.34764 159.772 2.3813C159.448 2.41523 158.34 2.31774 158.367 2.38862C158.396 2.45966 160.427 2.64389 158.388 2.68379C158.457 2.72366 158.434 2.75341 158.467 2.78944C159.028 2.79049 159.593 2.79224 160.153 2.79329C159.846 2.67851 159.531 2.55777 159.235 2.44685C159.55 2.35551 159.727 2.47267 159.743 2.47267C159.743 2.47254 159.743 2.47242 159.743 2.4723C160.33 2.46311 161.054 2.25967 160.23 2.24177ZM189.125 2.59938C189.235 2.31416 188.369 2.6327 188.014 2.66804C187.659 2.70326 187.171 2.59768 187.354 2.72041C187.929 2.80509 189.113 2.6312 189.125 2.59901C189.125 2.59913 189.125 2.59925 189.125 2.59938ZM206.343 2.41664C205.437 2.48587 205.581 2.56001 204.474 2.47541C204.517 2.54435 204.559 2.6148 204.602 2.68269C205.482 2.68409 205.42 2.48396 206.438 2.5644C206.605 2.5777 206.248 2.73755 207.001 2.68617C206.782 2.60085 206.56 2.50616 206.343 2.41664ZM201.856 2.67225C202.895 2.66173 203.72 2.10387 201.805 2.35548C201.522 2.39309 201.074 2.6803 201.856 2.67225ZM169.819 2.22767C168.051 2.21159 170.06 2.30161 170.52 2.38734C166.403 2.45591 170.985 2.36388 171.395 2.649C171.898 2.56781 172.84 2.38213 171.794 2.33241C171.358 2.31176 171.517 2.39666 171.491 2.39631C170.687 2.37531 170.785 2.23642 169.819 2.22767ZM214.088 2.40235C214.021 2.40655 214.125 2.50286 213.913 2.5221C213.701 2.54121 213.22 2.47381 213.172 2.53291C213.125 2.59237 214.089 2.63849 214.385 2.59516C214.681 2.55142 214.691 2.36527 214.088 2.40235ZM207.301 2.16505C206.418 2.23435 207.863 2.58913 208.055 2.58747C209.743 2.56893 207.251 2.27738 207.301 2.16505ZM173.926 1.62507C171.794 1.80529 173.353 2.11846 174.688 2.30604C174.865 2.26792 175.046 2.22974 175.22 2.19196C174.418 2.42363 173.015 2.65262 176.138 2.45069C174.428 2.39617 175.86 2.33394 175.871 2.32087C176.059 1.89533 173.527 2.09295 173.927 1.62507C173.927 1.62507 173.926 1.62507 173.926 1.62507ZM216.961 2.50379C217.889 2.50238 220.301 2.42887 219.176 2.24342C218.436 2.33019 217.7 2.41702 216.961 2.50379ZM139.028 1.64997C138.269 1.54393 137.571 1.54574 136.636 1.55274C137.477 1.70706 136.924 1.72479 136.641 1.76258C136.21 1.81947 137.253 1.81481 137.256 1.8252C137.237 1.97182 136.572 1.99459 138.085 1.9911C137.711 2.04217 137.342 2.09363 136.968 2.14436C138.121 2.15102 138.393 2.24667 139.125 2.36354C138.414 2.07799 139.35 2.25677 140.199 2.11469C140.622 2.04356 139.413 1.7042 139.025 1.64997C139.026 1.64997 139.027 1.64997 139.028 1.64997ZM171.723 1.56776C171.503 1.61919 171.302 1.68878 171.09 1.74757C170.859 1.75317 170.627 1.75808 170.396 1.76368C170.367 1.7182 170.344 1.67063 170.31 1.6269C170.005 1.61366 170.124 1.67698 170.034 1.68293C170.034 1.68269 170.034 1.68244 170.034 1.6822C168.735 1.76614 168.203 1.7567 167.185 1.6161C167.185 1.75544 167.185 1.89478 167.185 2.03413C167.414 2.02084 167.645 2.00788 167.873 1.99494C167.995 1.92007 168.117 1.84515 168.239 1.77027C168.503 1.81157 168.766 1.85257 169.03 1.89387C169.242 1.86694 169.497 1.83861 169.681 1.81239C170.737 2.20186 168.336 1.93727 168.315 2.09895C168.301 2.20288 170.718 2.19833 171.066 2.1266C171.116 2.1161 170.594 1.82608 171.478 1.97718C171.617 2.00098 171.665 2.62842 172.619 2.12037C172.755 2.0483 172.28 1.65851 171.723 1.56776ZM162.945 1.36542C164.304 1.76681 159.288 1.34238 161.452 1.67268C160.835 1.85707 160.95 1.85467 161.572 2.01838C161.626 2.03305 161.197 2.08372 161.233 2.09016C161.815 2.18045 162.516 2.13257 162.521 2.2967C162.678 2.28796 162.826 2.28018 162.983 2.27143C162.328 2.11678 163.37 2.01285 163.773 1.88233C163.956 1.82322 163.534 1.80498 163.689 1.75324C163.746 1.73435 164.335 1.77206 164.359 1.7179C164.409 1.59542 164.039 1.42989 163.412 1.33961C163.412 1.33948 163.412 1.33936 163.412 1.33924C163.255 1.34728 163.102 1.35703 162.945 1.36542ZM191.992 1.69886C192.223 1.92073 193.15 1.98424 191.369 2.09272C191.457 2.13642 191.548 2.17976 191.636 2.22346C191.937 2.21961 192.228 2.21579 192.533 2.21229C193.448 1.55865 195.119 2.29629 194.049 1.83271C193.932 1.78232 193.22 1.83862 193.923 1.70179C193.922 1.70167 193.921 1.70155 193.92 1.70142C192.938 1.74342 192.814 1.82203 191.992 1.69886ZM185.418 1.85358C183.153 2.32042 188.548 2.11406 187.647 1.99018C187.566 1.97898 185.242 2.0793 185.418 1.85358ZM203.594 1.44727C202.579 1.43923 202.512 1.6911 202.614 1.78181C202.717 1.87278 203.42 1.78085 203.51 1.79517C203.806 1.84242 203.179 1.87362 203.563 1.93836C203.69 1.95939 205.459 2.04918 205.54 2.03834C205.99 1.97809 205.332 1.77026 205.461 1.74647C205.88 1.66847 206.45 1.77659 206.572 1.66608C206.834 1.4303 205.772 1.67781 205.592 1.68183C205.051 1.69303 205.098 1.56029 204.693 1.5337C204.288 1.50715 204.023 1.55262 203.666 1.54322C203.547 1.54008 203.646 1.44811 203.594 1.44727ZM200.236 1.9792C201.297 1.78852 198.715 1.58116 198.408 1.6258C197.507 1.75843 199.729 2.07018 200.236 1.9792ZM166.348 1.97114C167.318 1.83292 165.058 1.72104 164.412 1.77668C164.531 1.83412 166.014 2.01872 166.348 1.97114ZM174.517 1.6258C173.625 1.66884 174.808 1.98025 175.552 1.97535C175.988 1.7707 175.577 1.81126 175.091 1.80286C174.605 1.79439 175.212 1.59227 174.517 1.6258ZM214.609 1.67487C214.417 1.67162 211.316 1.84078 213.098 1.91108C213.234 1.91633 215.404 1.88654 215.569 1.85505C215.9 1.79135 215.105 1.68397 214.609 1.67487ZM178.794 1.32349C178.322 1.50052 177.858 1.49815 178.291 1.706C178.292 1.706 178.293 1.706 178.293 1.706C177.099 1.76966 177.046 1.34442 176.788 1.35352C175.888 1.38544 176.741 1.6881 176.176 1.78748C177.49 1.69406 177.113 1.89813 178.112 1.91108C178.336 1.91388 179.233 1.79201 179.364 1.71607C179.495 1.6401 179.037 1.41238 178.794 1.32349ZM218.99 1.63074C217.943 1.56291 216.985 1.84983 218.436 1.89533C219.145 1.91773 219.629 1.67204 218.99 1.63074ZM114.366 1.55897C114.525 1.6342 114.69 1.70911 114.862 1.78364C114.475 1.80183 114.089 1.8204 113.703 1.83894C114.008 1.81514 114.314 1.7917 114.621 1.76826C113.896 1.74201 113.565 1.60516 114.364 1.55897C114.364 1.55897 114.365 1.55897 114.366 1.55897ZM88.5601 1.50165C88.2359 1.42921 87.5969 1.65353 87.678 1.67103C88.2882 1.80142 89.0102 1.60209 88.5601 1.50165ZM164.914 1.2898C163.709 1.25842 164.538 1.62314 165.277 1.64814C164.825 1.57839 165.598 1.30764 164.914 1.2898ZM97.6353 1.51942C97.7435 1.55077 97.8526 1.58213 97.9739 1.61353C97.5925 1.56993 97.5265 1.54061 97.6353 1.51942ZM214.116 1.35279C213.932 1.3248 212.571 1.30169 212.387 1.33631C212.006 1.4091 213.067 1.61046 213.692 1.54853C213.761 1.54188 214.299 1.38079 214.113 1.35279C214.114 1.35279 214.115 1.35279 214.116 1.35279ZM112.735 1.41926C112.737 1.42275 112.736 1.42608 112.732 1.42914C112.733 1.42589 112.733 1.42252 112.735 1.41926ZM61.4662 1.04865C61.4736 1.05431 61.4776 1.05992 61.4767 1.06531C61.4739 1.06002 61.4681 1.05445 61.4662 1.04865ZM204.517 1.04316C204.064 0.695654 203.019 0.880485 203.844 1.05231C203.89 1.06134 204.407 1.04247 204.517 1.04316ZM6.57875 3.28558C6.79046 3.19599 7.00469 3.10835 7.23013 3.02192C7.82673 2.80961 8.0035 2.76466 8.25859 2.61361C9.02387 2.20797 9.52023 2.15419 9.98727 2.04408C10.1863 2.00477 10.4291 1.93712 10.699 1.86097C10.8588 1.8158 10.8823 1.91408 10.9322 1.91162C10.9872 1.90878 11.0276 1.88513 11.0628 1.85616C11.1553 1.7996 11.2234 1.73872 11.3077 1.72341C11.9148 1.62547 12.2989 1.62076 12.7071 1.59692C12.7402 1.5951 12.7733 1.59344 12.8073 1.59185C13.3217 1.57105 13.1143 1.91164 13.2963 1.96987C13.6487 2.09082 13.3269 1.70712 13.4553 1.60517C13.8569 1.60074 14.2327 1.63349 14.6054 1.66793C14.5144 1.7085 14.4267 1.74838 14.3356 1.78667C14.4983 1.78981 14.729 1.84676 14.4632 1.96098C14.5242 1.98859 14.5802 2.02142 14.6416 2.04851C14.6541 1.89927 14.9373 1.88051 14.9611 1.79193C14.9844 1.70319 14.8275 1.72699 14.827 1.71933C14.8352 1.60875 15.4907 1.74584 15.5365 1.75769C15.6614 1.78814 15.5568 1.97431 15.6608 1.96069C15.7646 1.94718 15.767 1.8157 15.7997 1.80468C15.8206 1.79674 15.8567 1.85177 15.9603 2.0583C16.0497 1.89385 16.0605 1.97771 16.1812 1.98506C16.1971 1.98594 16.1817 1.89259 16.1886 1.88991C16.3695 1.81415 16.2343 1.99326 16.2358 2.00266C16.2578 2.16259 16.453 2.08429 16.4958 2.09808C17.0288 2.27037 17.4217 2.38518 17.9803 2.41338C18.0439 2.41655 18.1772 2.39682 18.3056 2.38151L18.2509 2.38773C18.3622 2.35414 18.471 2.32573 18.528 2.3282C18.648 2.33351 18.6074 2.45857 18.6765 2.50254C18.7235 2.21188 18.8158 2.16385 19.0614 2.3129C19.1138 2.10041 19.1276 2.26341 19.2767 2.20279C19.3323 2.17915 19.4239 2.1032 19.457 2.05589C19.4634 2.05398 19.4834 2.05184 19.4899 2.05041C19.6268 1.99017 19.7368 1.9796 19.8095 2.08698C19.6647 2.07179 19.6526 2.14015 19.511 2.21401C19.5069 2.21491 19.4943 2.21626 19.4903 2.21747C19.4814 2.22882 19.466 2.24065 19.4453 2.25212C19.4018 2.27697 18.7547 2.37333 18.8397 2.57345C18.8815 2.67562 19.0725 2.54535 19.0838 2.56427C19.147 2.6725 19.0532 2.83013 18.9456 2.79693C18.9669 2.76973 18.9938 2.74142 19.017 2.71412C18.7656 2.60712 19.0151 3.13163 18.7603 2.68042C18.7286 2.62525 18.7265 2.5623 18.6793 2.50614C18.6766 2.53331 18.7319 2.58966 18.6961 2.60786C18.6604 2.62611 18.5652 2.51788 18.573 2.62249C18.5853 2.77422 18.7309 2.68692 18.7448 2.69372C18.7447 2.6928 18.7447 2.69187 18.7447 2.69095C18.8629 2.75194 18.6465 2.79926 18.6392 2.81562C18.5888 2.92107 18.6483 2.98377 18.5636 3.0794C18.5327 3.1136 18.4647 3.12717 18.4038 3.13932C18.3879 3.14112 18.3412 3.14926 18.3252 3.14826C18.2872 3.14907 18.2532 3.14964 18.2327 3.15557C18.1785 3.17173 18.2654 3.24114 18.2291 3.25751C18.1924 3.27389 18.1449 3.22068 18.1021 3.23973C18.0837 3.24811 18.0869 3.32803 18.0779 3.33108C17.9826 3.36458 18.0412 3.19647 17.9538 3.20917C17.8975 3.21753 17.7122 3.37839 17.8444 3.42055C17.7821 3.43854 17.7213 3.45224 17.6588 3.46685C17.6991 3.48935 17.7403 3.50422 17.7797 3.53099C17.6611 3.49658 17.6117 3.63515 17.5387 3.64775C17.465 3.66035 17.3935 3.49846 17.3149 3.58136C17.1474 3.75771 17.5742 3.6641 17.6282 3.69299C17.6495 3.70427 17.5735 3.83546 17.5617 3.83954C17.5078 3.85742 17.4406 3.76765 17.3984 3.77323C17.2485 3.79379 17.1606 3.91844 17.0181 3.94816C16.6621 4.02118 16.2534 4.09173 15.8369 4.13371C15.6919 4.14889 15.5579 4.1615 15.4306 4.1711C15.26 4.18402 15.1527 4.04971 15.0766 4.05517C14.8963 4.06819 14.8783 4.18762 14.7223 4.1979C14.4917 4.21345 14.1666 4.12037 13.9815 4.10728C13.8521 4.09804 13.7477 4.22012 13.7168 4.22506C13.5061 4.25866 13.2986 4.28963 13.0615 4.32582C12.7753 4.3682 12.5182 4.39808 12.335 4.42582C12.1713 4.45054 12.0877 4.33587 12.0591 4.3451C11.9488 4.38415 12.0002 4.48673 11.9398 4.49093C11.9261 4.49175 11.9133 4.4664 11.9015 4.44095C11.8805 4.41856 11.8666 4.39416 11.8615 4.39364C11.7716 4.38623 11.7985 4.52344 11.7358 4.54899C11.4166 4.67834 11.0359 4.73882 10.6029 4.80963C10.5557 4.81637 10.5093 4.82383 10.4639 4.83243C10.4375 4.83736 10.4262 4.77694 10.41 4.78387C10.3415 4.81512 10.3962 4.90169 10.3249 4.92567C10.1783 4.97586 10.0319 4.99718 9.90721 5.02379C9.8951 5.02638 9.86523 4.95294 9.83861 4.96175C9.81217 4.97064 9.81739 5.04795 9.78212 5.05676C9.72229 5.07169 9.66312 5.05464 9.62866 5.04124C9.55267 5.06671 9.47663 5.09412 9.40229 5.12978C9.36737 5.14663 9.36451 5.25418 9.30901 5.27907C9.13428 5.35941 8.84462 5.37825 8.71035 5.41968C8.47919 5.49324 8.30639 5.55572 8.19144 5.61266C8.04058 5.68173 7.88903 5.75568 7.73206 5.82057C7.65752 5.85116 7.55657 5.79811 7.51698 5.81268C7.42727 5.84612 7.52635 5.89416 7.43823 5.93264C7.20448 6.03502 6.97247 6.13861 6.75935 6.24311C6.55795 6.33807 6.31633 6.4847 6.30869 6.49223C6.12051 6.6533 5.95569 6.81614 5.79946 7.00293C5.65877 7.16968 5.53518 7.42457 5.37791 7.65576C5.35349 7.69335 5.32441 7.73476 5.2913 7.77552C5.2231 7.85998 5.11318 7.8191 5.06478 7.89353C4.97597 8.03192 5.08609 8.13636 4.99015 8.31374C4.91758 8.4461 4.71255 8.53178 4.5855 8.67606C4.58161 8.67924 4.5784 8.68302 4.57601 8.6875C4.545 8.74669 4.65063 8.84633 4.62011 8.93969C4.59438 9.01709 4.47213 9.12949 4.42228 9.27316C4.42033 9.27875 4.41836 9.28438 4.41638 9.29005C4.37982 9.4123 4.34717 9.55678 4.30614 9.74859C4.25718 9.94725 4.2388 10.1622 4.05242 10.6008C4.01527 10.7089 3.94649 11.0014 3.86572 11.3814C3.80143 11.6568 3.75468 11.9918 3.6279 12.4567C3.53448 12.7839 3.44876 12.9844 3.40447 13.1073C3.3848 13.1594 3.37288 13.2003 3.36469 13.2356C3.30663 13.675 3.2237 14.2142 2.98977 14.669C2.96216 14.722 2.85152 14.6024 2.83164 14.7875C2.82341 14.8606 2.86256 14.9699 2.85634 15.1123C2.87617 15.0934 2.88172 15.1058 2.87924 15.1262C2.77566 15.9825 2.46803 17.3317 2.45408 18.4731C2.43338 20.2224 3.35362 22.1381 1.72058 23.615C1.63973 23.6821 1.30294 23.5905 1.21148 23.5336C1.28682 23.5021 1.37485 23.4735 1.45951 23.4369C1.03742 23.3226 1.14773 23.3575 1.20981 23.1508C1.24697 23.0303 1.05244 23.1091 1.00707 23.0383C0.949628 22.9434 0.772816 22.5232 1.05133 22.6244C1.00402 22.5949 0.958491 22.5688 0.912078 22.5406C0.893875 22.2417 0.84252 21.9579 0.779855 21.6641C0.768785 21.6142 0.679201 21.606 0.668236 21.5542C0.638191 21.4134 0.703896 21.3103 0.70352 21.1677C0.703343 21.09 0.600274 21.0729 0.612851 20.9736C0.625447 20.8738 0.765395 20.8842 0.621147 20.7372C0.440331 20.8167 0.590568 20.4254 0.587324 20.2833C0.587052 20.2629 0.43836 20.0846 0.461271 19.9961C0.483889 19.9073 0.592042 19.7752 0.542062 19.6328C0.518569 19.566 0.397649 19.5199 0.394319 19.449C0.392003 19.3991 0.504414 19.345 0.512223 19.2823C0.520017 19.2196 0.437286 19.0789 0.437089 19.054C0.435778 18.9637 0.50753 19.0669 0.514569 19.0056C0.547385 18.7084 0.60631 18.3659 0.570277 18.0682C0.56592 18.0319 0.472727 18.0769 0.469963 18.072C0.371907 17.8214 0.482956 17.9578 0.567575 17.8958C0.649259 17.8358 0.632647 17.3623 0.475592 17.3509C0.673413 17.3488 0.529051 17.2333 0.524866 17.2058C0.508759 17.0983 0.678013 17.1291 0.631362 17.0244C0.614395 16.9862 0.494816 17.0516 0.500598 17.0118C0.51513 16.9105 0.70579 16.831 0.732752 16.7006C0.739412 16.668 0.657664 16.6518 0.664258 16.5941C0.670759 16.5364 0.788202 16.3027 0.606645 16.4031C0.756462 16.2616 0.681588 16.233 0.698684 16.0585C0.70326 16.0144 0.840264 15.969 0.806557 15.8753C0.795279 15.8418 0.667323 15.832 0.670376 15.7836C0.676912 15.675 0.81852 15.5824 0.837606 15.4462C0.880172 15.1744 0.795953 14.9313 0.935034 14.5307C0.939086 14.5202 0.943929 14.5111 0.949373 14.5032C0.988473 14.4683 1.08846 14.5049 1.11493 14.4243C1.11916 14.4107 1.04257 14.2733 1.06815 14.2153C1.08458 14.181 1.2064 14.005 1.22011 13.9656C1.24366 13.9016 1.12325 13.866 1.15401 13.8351C1.24207 13.7446 1.40863 13.8583 1.18237 13.69C1.32674 13.6711 1.32437 13.5933 1.49757 13.5927C1.31789 13.5217 1.50478 13.4883 1.45293 13.3919C1.401 13.2954 1.04616 13.1869 1.43794 13.2052C1.41424 13.1796 1.38437 13.1119 1.36146 13.0506C1.34417 12.9847 1.33452 12.9242 1.33444 12.9059C1.33575 12.7864 1.43275 12.8661 1.43343 12.7792C1.434 12.7643 1.35745 12.765 1.38464 12.6721C1.40025 12.6011 1.51903 12.2037 1.53322 12.195C1.71391 11.9901 1.56556 12.3441 1.62428 12.4318C1.60116 12.4362 1.57799 12.4406 1.55487 12.4461C1.48807 12.5584 1.66866 12.5311 1.72057 12.4892C1.77256 12.4467 1.72894 12.3308 1.79371 12.3055C1.8262 12.2928 2.01496 12.3619 1.97335 12.4176C2.05226 12.3682 2.0881 12.4777 2.15158 12.4677C2.22133 12.4585 2.32767 12.1587 2.21877 12.1294C2.20085 12.1849 2.18507 12.2558 2.1643 12.3111C2.01005 12.3273 1.6611 12.0977 1.60687 11.9581C1.58897 11.9076 1.60677 11.8624 1.68244 11.8279C1.89721 11.7247 1.99799 11.995 1.90963 11.6145C1.89181 11.6677 1.86546 11.7098 1.84798 11.7563C1.70568 11.7333 1.87647 11.6862 1.83924 11.636C1.82093 11.6125 1.69778 11.7134 1.68432 11.6028C1.90408 11.55 1.71275 11.4415 1.74129 11.2787C1.76869 11.3309 1.79625 11.3822 1.82419 11.433C2.02126 11.1925 1.95319 11.8226 2.13331 11.3182C2.12758 11.3824 2.11422 11.4443 2.11258 11.5087C2.19254 11.4922 2.40175 11.5811 2.45287 11.5626C2.58699 11.5144 2.5335 11.3972 2.5613 11.3146C2.57328 11.2784 2.62732 11.3134 2.6283 11.3103C2.64513 11.2614 2.55683 11.2547 2.56078 11.2091C2.56317 11.1821 2.59078 11.1362 2.61938 11.093C2.652 11.0422 2.68481 10.9944 2.68301 10.9792C2.67439 10.9052 2.47938 10.9809 2.46826 10.9714C2.39634 10.9089 2.48469 10.8351 2.37669 10.8149C2.38245 10.873 2.37279 10.9532 2.35355 11.0314C2.29582 11.271 2.15857 11.5111 2.11561 11.0462C1.92396 11.1593 1.7115 11.0916 1.70899 10.8823C1.70824 10.8673 1.70905 10.851 1.71143 10.8338C1.73753 10.6467 1.80602 10.787 1.93351 10.7134C1.94864 10.7047 2.06168 10.4577 1.99299 10.4236C2.16009 10.4779 2.33222 10.4358 2.49246 10.5375C2.51584 10.5522 2.47989 10.6504 2.62996 10.6511C2.70528 10.6514 2.87186 10.6436 2.95981 10.6753C2.90228 10.6396 2.83744 10.6003 2.77786 10.5623C2.79994 10.4137 2.87472 10.4128 3.01298 10.3796C2.96461 10.3655 2.73956 10.3687 2.83725 10.2829C2.84282 10.279 2.91601 10.2987 2.97029 10.2616C3.08066 10.1872 3.10745 10.1886 3.28641 10.3383C3.27712 10.2939 3.28018 10.2615 3.29032 10.2376C3.37816 10.0341 3.54352 9.98624 3.55089 9.75335C3.25556 9.73207 3.31813 9.82145 3.25515 10.1327C3.18679 10.1191 3.12228 10.0981 3.05392 10.0822C3.33585 9.78497 3.25417 9.94504 3.1806 9.72063C3.16171 9.66552 3.2593 9.44994 3.05229 9.47322C3.00369 9.47846 2.96908 9.62102 2.90466 9.58509C2.89266 9.57814 2.90677 9.39847 2.9289 9.38833C3.20318 9.26651 3.2559 9.63029 3.32967 9.11742C3.33188 9.10342 3.25438 9.07176 3.25268 9.04157C3.24982 8.98502 3.34088 9.01788 3.33608 8.96749C3.33237 8.92908 3.2746 8.85589 3.31131 8.8156C3.32267 8.80282 3.34252 8.7932 3.37489 8.78876C3.49719 8.7721 3.5586 8.84148 3.57142 8.92727C3.58886 9.00997 3.55731 9.1066 3.47915 9.1495C3.57376 9.20209 3.67224 9.11701 3.76378 9.00986C3.9402 8.76522 4.08369 8.49402 4.08751 8.46801C4.10453 8.24658 3.97894 8.55227 3.90123 8.54161C3.86856 8.53205 3.49159 8.33136 3.69112 8.55021C3.75163 8.61215 3.90255 8.55199 3.91056 8.6365C3.91941 8.72048 3.81915 8.6407 3.80897 8.64146C3.77378 8.64488 3.78157 8.73821 3.76104 8.74075C3.4456 8.78611 3.07963 8.6015 3.72147 8.6471C3.64017 8.50027 3.34688 8.61462 3.31619 8.46206C3.28203 8.2701 3.51117 8.25994 3.52685 8.25021C3.73218 8.11089 3.34889 8.18402 3.58287 7.9957C3.70552 7.90733 3.61822 8.24234 3.76045 8.04444C3.77088 8.03069 3.78243 8.01449 3.79484 7.99593C3.96867 7.72504 3.78478 7.81147 3.61424 7.66525C3.57412 7.63083 3.6113 7.46223 3.50669 7.65592C3.55106 7.69443 3.60723 7.74844 3.64278 7.79143C3.59846 7.80534 3.4574 7.7667 3.36156 7.73908C3.30876 7.72902 3.26708 7.72438 3.25717 7.73204C3.11677 7.84643 3.25378 7.91952 3.04862 7.91208C3.25279 7.9518 3.09255 7.98945 3.10855 8.04666C3.1704 8.25499 3.30998 8.09972 2.98756 8.31368C3.08894 8.31344 3.18678 8.31782 3.28637 8.32288C3.27216 8.35831 3.25855 8.39389 3.24531 8.42947C3.03814 8.39427 2.97652 8.59695 2.86832 8.34092C2.78847 8.44168 2.75557 8.51582 2.76084 8.57926C2.76309 8.63882 2.79545 8.6883 2.85393 8.73671C2.87819 8.7569 2.87665 8.79351 2.86524 8.83263C2.90936 8.84069 3.04048 8.87975 3.054 8.89135C3.17327 8.99198 2.90634 8.98705 2.82375 8.92865C2.81014 8.95391 2.79798 8.97329 2.79325 8.98005C2.76313 9.02317 2.71096 8.90154 2.66948 8.93097C2.65525 8.94126 2.63055 9.08314 2.59604 9.07522C2.37376 9.02388 2.59369 8.85109 2.33804 9.25948C2.53512 9.32685 2.54934 9.11035 2.74681 9.22435C2.95895 9.34539 2.6212 9.37011 2.89514 9.47292C2.84645 9.46908 2.80685 9.46231 2.75214 9.45534C2.82625 9.66123 2.59169 9.5945 2.526 9.62618C2.46432 9.65724 2.4051 9.75956 2.39405 9.81059C2.36869 9.89196 2.39026 9.93465 2.499 9.86059C2.52515 9.84993 2.55739 9.83055 2.59556 9.79776C2.59524 9.83388 2.59016 9.86821 2.58418 9.90118C2.57733 9.92929 2.57126 9.95739 2.56723 9.98556C2.16453 9.82796 2.32515 9.85757 2.15088 10.1644C2.11419 10.2312 1.92296 10.2028 2.12136 10.3358C1.90853 10.2658 1.98161 10.5144 1.95186 10.5254C1.74605 10.617 1.63747 10.0588 2.04161 10.1096C1.92393 9.97715 2.11569 10.0424 2.12523 9.94005C2.13721 9.83155 2.12915 9.77936 2.20368 9.71988C2.22357 9.71626 2.25514 9.71239 2.30441 9.70181C2.24289 9.63615 2.19347 9.67693 2.15583 9.69708C2.04671 9.83518 1.94527 10.0369 1.92209 9.64399C1.92197 9.62692 1.92293 9.60792 1.92507 9.58713C1.85477 9.53971 1.84063 9.04706 2.0718 8.28342C2.16081 7.983 2.30138 7.55965 2.58492 7.14453C2.74147 6.86261 2.97497 6.38952 3.12208 6.16214C3.14591 6.12358 3.17085 6.08442 3.19673 6.04518C3.57888 5.42792 3.98178 4.88787 4.477 4.43655C4.80845 4.14662 5.03001 4.03039 5.28951 3.88667C5.39531 3.82108 6.08886 3.46648 6.04497 3.75889C6.03818 3.79994 5.78599 4.02319 6.11825 4.07696C6.01914 3.99862 6.13538 3.86304 6.14294 3.84671C6.31617 3.47218 6.1251 3.48158 6.57875 3.28558ZM8.6572 4.84061C8.02152 4.99974 8.52531 4.99988 8.51126 5.39328C8.58928 5.3691 8.67358 5.34224 8.7619 5.3118C8.73091 5.29834 8.70109 5.2844 8.67108 5.27034C8.67098 5.27037 8.67089 5.2704 8.67079 5.27044C8.66807 5.12701 8.66413 4.98352 8.6572 4.84061ZM17.9528 3.65196C17.9314 3.70109 17.9102 3.75031 17.8866 3.79847C17.8088 3.78577 17.7306 3.77344 17.6523 3.76091C17.6605 3.72774 17.6684 3.69419 17.6766 3.66102C17.7689 3.65946 17.8605 3.65816 17.9528 3.65196ZM3.50582 9.23749C3.3464 9.29391 3.57894 9.35463 3.435 9.45745C3.61032 9.48963 3.78218 9.5201 3.95549 9.55332C3.95806 9.45245 3.90007 9.41081 3.9723 9.33201C3.91471 9.3242 3.85657 9.3171 3.79847 9.31003C3.80468 9.33014 3.81235 9.35159 3.81757 9.3709C3.65668 9.34889 3.68783 9.17844 3.50558 9.23705C3.50566 9.2372 3.50574 9.23735 3.50582 9.23749ZM3.20425 10.3625C3.16519 10.3948 3.01953 10.5694 3.08317 10.6194C3.2955 10.768 3.30844 10.2072 3.39929 10.6512C3.43333 10.6594 3.46566 10.6708 3.49885 10.6806C3.53087 10.6155 3.56187 10.5553 3.59203 10.5033C3.46194 10.4576 3.33544 10.4073 3.20425 10.3625ZM6.72753 5.61755C6.6364 5.63733 6.3399 5.92564 6.52854 6.00474C6.58072 6.02865 6.63379 5.74763 6.70203 5.72564C6.74484 5.71179 6.75401 5.84483 6.81324 5.76569C6.78611 5.7182 6.75776 5.66472 6.72747 5.61799C6.72749 5.61784 6.72751 5.6177 6.72753 5.61755ZM6.57065 4.89507C6.49378 4.95513 6.41893 5.02189 6.34418 5.08504C6.46836 5.18063 6.55116 5.04085 6.64317 5.21697C6.62652 5.24146 6.61011 5.26583 6.59381 5.29034C6.55764 5.25957 6.52129 5.2289 6.48497 5.19832C6.46044 5.33043 6.52718 5.35658 6.3818 5.39497C6.59814 5.6221 6.67506 5.7614 6.77169 5.38035C6.79869 5.54755 7.061 6.00941 7.02605 5.60889C7.02038 5.53413 6.90303 5.53608 6.89723 5.52654C6.82354 5.4072 6.84131 5.30116 6.77 5.1892C6.73769 5.13853 6.67668 5.16782 6.63243 5.09739C6.6109 5.06295 6.62179 4.9311 6.57065 4.89507ZM7.03226 5.4604C7.04164 5.54866 7.20958 5.69245 7.26832 5.62259C7.36137 5.51343 7.0984 5.41996 7.03226 5.4604ZM17.9533 3.65176C17.9532 3.65183 17.953 3.65189 17.9528 3.65196C17.9529 3.65177 17.953 3.65159 17.9531 3.6514C17.9531 3.65152 17.9532 3.65164 17.9533 3.65176ZM3.41405 10.1175C3.42992 10.1737 3.41986 10.238 3.41378 10.2965C3.42329 10.3251 3.44024 10.3507 3.49481 10.372C3.46587 10.382 3.43661 10.3949 3.4069 10.4094C3.43889 10.4217 3.47103 10.4338 3.50269 10.446C3.52586 10.4169 3.54886 10.3914 3.57072 10.3712C3.6188 10.2944 3.65736 10.225 3.69181 10.1608C3.59924 10.1471 3.50713 10.1309 3.41405 10.1175ZM3.02633 11.0772C2.98598 11.2024 3.16168 11.1294 3.22827 11.1743C3.2526 11.1909 3.2565 11.2152 3.25674 11.2405C3.25874 11.2773 3.25093 11.315 3.31909 11.3222C3.32508 11.3013 3.33123 11.2803 3.3375 11.2592C3.35298 11.2048 3.36753 11.1528 3.38135 11.104C3.26298 11.0973 3.14383 11.0845 3.02628 11.0774C3.0263 11.0773 3.02632 11.0773 3.02633 11.0772ZM10.9318 4.18967C10.8284 4.18432 10.8384 4.06006 10.6852 4.24407C10.6854 4.24403 10.6855 4.244 10.6857 4.24396C10.8921 4.29118 11.1455 4.30391 11.2973 4.15579C11.148 4.07283 11.0927 4.19689 10.9318 4.18967ZM3.92123 9.11716C3.84571 9.05311 3.72122 9.15349 3.79301 9.21407C3.90975 9.30599 4.03672 9.20812 3.92123 9.11716ZM14.1856 2.80526C14.31 2.51215 14.0416 2.19593 13.775 2.35063C13.7522 2.36398 13.9319 2.4467 13.8828 2.50562C13.8782 2.51135 13.7817 2.50948 13.7609 2.55093C13.7393 2.59248 13.7694 2.6843 13.7332 2.72567C13.6704 2.79773 13.5095 2.68168 13.4659 2.77564C13.4606 2.78807 13.5633 2.90549 13.5696 2.90989C13.6704 2.97838 13.7514 2.81024 13.7671 2.80826C13.843 2.79841 13.8385 2.92698 13.8596 2.95599C13.8977 3.01065 13.96 2.95104 13.9641 2.95507C14.0841 3.06188 13.8198 3.04207 13.7877 3.09063C13.7004 3.22077 13.7928 3.3301 13.5768 3.41572C13.5558 3.42381 13.309 3.43579 13.6311 3.55461C13.0544 3.90062 13.9401 3.69957 14.0502 3.63559C14.0962 3.60305 14.0189 3.48428 14.0455 3.42814C14.1052 3.29972 14.2189 3.27325 14.2024 3.0967C14.1656 2.72551 14.0241 2.97509 13.9175 2.91769C13.9244 2.83642 13.9256 2.75743 13.9418 2.67749C13.9151 2.78496 14.1766 2.82703 14.1856 2.80599C14.1856 2.80575 14.1856 2.8055 14.1856 2.80526ZM12.5952 3.37307C12.4366 3.27987 12.4768 3.5115 12.3293 3.39554C12.2441 3.61997 12.4657 3.57581 12.4943 3.58443C12.6223 3.62173 12.6478 3.8499 12.7653 3.76402C12.7049 3.63476 12.6527 3.50302 12.5952 3.37307ZM13.8375 3.34369C13.7505 3.46763 13.9187 3.4564 13.9263 3.47897C14.0124 3.71534 13.5102 3.69746 13.8375 3.34369ZM6.03096 5.44716C5.98599 5.4637 6.06835 5.54769 6.05019 5.59722C6.03226 5.64622 5.86567 5.63567 5.90739 5.69378C5.95134 5.74884 6.24258 5.78515 6.07044 5.93984C6.09847 5.96918 6.1125 5.99554 6.13504 6.02387C6.18427 5.99333 6.23957 5.96206 6.29672 5.93051C6.20835 5.84888 6.11555 5.76338 6.02684 5.68749C6.01289 5.58912 6.09188 5.67873 6.09339 5.67781C6.09333 5.67771 6.09327 5.6776 6.09321 5.6775C6.1496 5.63365 6.13314 5.41018 6.03096 5.44716ZM9.68834 4.27781C9.6156 4.00154 9.61121 4.33717 9.58946 4.38289C9.56478 4.4288 9.47969 4.34868 9.54162 4.45632C9.62324 4.51464 9.69378 4.30906 9.68823 4.27746C9.68827 4.27757 9.6883 4.27769 9.68834 4.27781ZM11.8419 3.48707C11.7505 3.57811 11.7855 3.64465 11.6506 3.59541C11.6751 3.66 11.6993 3.7263 11.7224 3.79026C11.8009 3.76967 11.7506 3.57555 11.883 3.62947C11.9048 3.63872 11.8953 3.8032 11.971 3.73631C11.9299 3.6572 11.886 3.56933 11.8419 3.48707ZM11.3852 3.8899C11.5166 3.83527 11.4468 3.27072 11.2792 3.59131C11.2544 3.63912 11.2855 3.9313 11.3852 3.8899ZM7.17119 4.88433C6.94707 4.96235 7.23016 4.93917 7.31905 4.99549C6.84357 5.27173 7.36761 4.94805 7.5253 5.19352C7.55497 5.09366 7.60204 4.87487 7.45478 4.88045C7.39312 4.88316 7.44494 4.9538 7.44153 4.95479C7.33482 4.97578 7.2938 4.84231 7.17119 4.88433ZM12.8467 3.32761C12.8381 3.33293 12.8645 3.42666 12.8381 3.44941C12.8115 3.47206 12.738 3.41335 12.739 3.47279C12.7398 3.53264 12.8765 3.56193 12.9117 3.51367C12.9466 3.46506 12.9239 3.28036 12.8467 3.32761ZM11.9137 3.217C11.8146 3.30558 12.0586 3.62158 12.0796 3.61719C12.2878 3.56558 11.9301 3.32677 11.9137 3.217ZM7.46462 4.11624C7.25436 4.39174 7.57356 4.60205 7.80344 4.71598C7.80988 4.68348 7.81645 4.65093 7.82264 4.61874C7.82475 4.60737 7.82689 4.59603 7.82902 4.58474C7.82804 4.59875 7.82688 4.61282 7.82565 4.62685C7.80411 4.8326 7.7575 5.03006 7.92335 4.89016C7.94933 4.86713 7.98192 4.83442 8.02493 4.79016C7.80637 4.80875 7.9526 4.69134 7.95091 4.67826C7.90238 4.50528 7.82974 4.45734 7.75192 4.42814C7.64533 4.38794 7.53231 4.38017 7.46487 4.11615C7.46479 4.11618 7.4647 4.11621 7.46462 4.11624ZM13.2368 3.38203C13.3541 3.3664 13.6617 3.26928 13.5004 3.09581C13.4095 3.19004 13.3224 3.28545 13.2368 3.38203ZM3.69293 7.15253C3.54827 7.18366 3.5007 7.26379 3.44111 7.36854C3.62995 7.36052 3.60626 7.43009 3.6174 7.48236C3.63405 7.56122 3.70537 7.44258 3.71427 7.44756C3.83646 7.52833 3.80756 7.61712 3.91423 7.44179C3.93048 7.51191 3.94714 7.58184 3.96198 7.65255C4.05284 7.52287 4.15299 7.54191 4.3047 7.52007C4.01174 7.45004 4.23017 7.43739 4.17101 7.2654C4.14197 7.17833 3.76684 7.13633 3.69272 7.15286C3.69279 7.15275 3.69286 7.15264 3.69293 7.15253ZM7.15886 4.17532C7.14995 4.23442 7.15074 4.30925 7.14582 4.37482C7.11861 4.39205 7.09116 4.40873 7.06376 4.42622C7.04266 4.38575 7.02131 4.34311 7.00021 4.30453C6.95628 4.30856 6.99589 4.36064 6.98666 4.37096C6.98657 4.37074 6.98647 4.37051 6.98638 4.37028C6.85354 4.51748 6.78466 4.53745 6.59809 4.4667C6.65509 4.59386 6.71208 4.72101 6.76907 4.84817C6.79191 4.82337 6.8152 4.79884 6.83839 4.77447C6.82329 4.69929 6.80844 4.62399 6.79374 4.54869C6.84347 4.57201 6.89302 4.59523 6.94234 4.61899C6.95827 4.58283 6.97938 4.54304 6.99219 4.50914C7.27609 4.81179 6.87291 4.69558 6.93485 4.84572C6.97478 4.94092 7.27029 4.81012 7.28683 4.72666C7.28927 4.71435 7.11301 4.47308 7.28194 4.56723C7.3088 4.58208 7.54862 5.16147 7.47849 4.64254C7.46915 4.56873 7.26547 4.23004 7.15886 4.17532ZM5.94916 4.49729C6.30392 4.76402 5.47128 4.72379 5.90134 4.86859C5.91191 5.07257 5.92788 5.06099 6.07905 5.16557C6.09226 5.17511 6.06585 5.24684 6.07309 5.25029C6.18386 5.29279 6.24445 5.20783 6.32018 5.35346C6.33437 5.33634 6.34812 5.3206 6.36274 5.30342C6.21518 5.2049 6.29137 5.04945 6.28427 4.90777C6.28093 4.84353 6.22049 4.85297 6.21678 4.79711C6.21577 4.77646 6.30531 4.77474 6.28493 4.72451C6.23789 4.61127 6.11969 4.48421 5.99795 4.44392C5.9979 4.44381 5.99785 4.4437 5.99779 4.44359C5.9811 4.46089 5.9658 4.47947 5.94916 4.49729ZM9.812 3.31005C9.89759 3.51764 10.0315 3.5493 9.82584 3.71281C9.84822 3.75217 9.87059 3.79118 9.89265 3.83067C9.9302 3.81718 9.96679 3.80423 10.0055 3.7913C9.97469 3.12609 10.3644 3.7949 10.1188 3.37505C10.0922 3.32939 10.0093 3.40621 10.0729 3.25123C10.0728 3.25114 10.0726 3.25105 10.0724 3.25096C9.9498 3.32226 9.95249 3.40239 9.812 3.31005ZM8.9756 3.76099C8.96931 3.80765 8.9688 3.84672 8.97258 3.87872C8.98189 3.95474 9.00853 3.99407 9.04516 4.00733C9.1615 4.05711 9.42337 3.81477 9.31669 3.76073C9.29776 3.75113 9.05812 3.96697 8.9756 3.76099ZM11.2253 2.65253C11.0899 2.68868 11.1615 2.93045 11.203 3.01221C11.2448 3.09419 11.3067 2.97687 11.3231 2.9866C11.3761 3.01888 11.3047 3.07523 11.3746 3.12038C11.3834 3.12601 11.427 3.13096 11.4775 3.13438C11.5585 3.1393 11.6547 3.14828 11.6598 3.14026C11.7055 3.06742 11.5687 2.88639 11.5798 2.85933C11.6226 2.76829 11.7267 2.85716 11.7217 2.74558C11.7135 2.50642 11.6071 2.78119 11.5836 2.79189C11.5076 2.82211 11.481 2.69208 11.4095 2.68463C11.3803 2.68184 11.3573 2.69017 11.3371 2.70151C11.3133 2.71612 11.294 2.73679 11.2646 2.7406C11.2481 2.74273 11.2323 2.65111 11.2253 2.65253ZM10.9591 3.30002C11.0355 3.07536 10.6452 2.98255 10.6221 3.03459C10.5446 3.19615 10.9194 3.4095 10.9591 3.30002ZM6.63968 4.83762C6.70335 4.65652 6.37386 4.68397 6.31706 4.77427C6.35748 4.8181 6.6187 4.89906 6.63968 4.83762ZM7.54166 4.08769C7.46119 4.15531 7.61621 4.31855 7.72679 4.36041C7.75415 4.37049 7.77871 4.37354 7.79715 4.36599C7.78598 4.15313 7.74612 4.20948 7.67814 4.22566C7.67772 4.22576 7.6773 4.22585 7.67689 4.22593C7.61307 4.23822 7.62056 4.02245 7.54166 4.08769ZM12.8242 2.59704C12.7992 2.59732 12.4033 2.81727 12.6516 2.85705C12.6632 2.85882 12.7751 2.83491 12.8643 2.80784C12.9218 2.7905 12.97 2.77242 12.9772 2.75919C13.0123 2.6946 12.9071 2.60844 12.8371 2.59813C12.8326 2.59744 12.8283 2.59706 12.8242 2.59704ZM8.00999 3.60951C8.00933 3.79622 7.94807 3.81334 8.06728 3.99326C8.06736 3.99323 8.06744 3.99321 8.06752 3.99318C7.93528 4.10273 7.79543 3.70092 7.76353 3.72092C7.65001 3.79198 7.86151 4.04074 7.81748 4.16021C7.96191 4.01387 7.97489 4.22512 8.10764 4.19576C8.13775 4.18916 8.21339 4.03573 8.204 3.95841C8.19489 3.88123 8.06652 3.6845 8.00999 3.60951ZM13.4261 2.48713C13.2722 2.43182 13.1696 2.73076 13.3723 2.75726C13.4701 2.77113 13.5185 2.5213 13.4261 2.48713ZM2.18443 10.2254C2.26338 10.2248 2.3421 10.2245 2.4206 10.2243C2.42058 10.2827 2.42238 10.3404 2.42521 10.3974C2.41419 10.3498 2.40424 10.3016 2.39533 10.2524C2.33947 10.3427 2.19417 10.3532 2.18435 10.2257C2.18438 10.2256 2.18441 10.2255 2.18443 10.2254ZM1.40359 13.6974C1.32589 13.7255 1.53302 13.8431 1.5519 13.8365C1.69439 13.7804 1.51177 13.6558 1.40359 13.6974ZM6.17057 4.3046C6.00069 4.35136 6.26744 4.62734 6.37012 4.60661C6.28299 4.57061 6.26658 4.27889 6.17057 4.3046ZM1.62428 12.4318C1.65871 12.4253 1.69312 12.419 1.72803 12.4113C1.67126 12.4509 1.64039 12.4529 1.62428 12.4318ZM12.7178 2.28598C12.6903 2.26135 12.5055 2.2612 12.4846 2.2987C12.4421 2.37737 12.6106 2.55926 12.686 2.48732C12.6945 2.47955 12.7457 2.31065 12.7174 2.28602C12.7175 2.28601 12.7177 2.28599 12.7178 2.28598ZM1.98353 10.4207C1.98699 10.4213 1.99017 10.4223 1.99299 10.4236C1.98989 10.4226 1.98662 10.4218 1.98353 10.4207ZM0.458876 17.3513C0.464582 17.3507 0.470218 17.3505 0.475592 17.3509C0.470287 17.351 0.464683 17.3514 0.458876 17.3513ZM11.2391 2.22355C11.2076 2.17239 11.176 2.13695 11.1464 2.11407C11.0323 1.98933 10.999 2.16054 11.1352 2.26639C11.1406 2.27038 11.1661 2.25701 11.1889 2.24493C11.2107 2.23482 11.2307 2.2258 11.2391 2.22355ZM268.313 4.31881C267.739 4.29452 267.106 4.28996 266.47 4.28458C265.579 4.26987 264.782 4.23599 263.957 4.21399C263.904 4.21576 263.749 4.1919 263.697 4.18437C263.508 4.14518 263.323 4.1097 263.142 4.07885C263.051 4.06336 262.963 4.04923 262.87 4.03538C262.763 4.0179 262.729 4.02025 262.463 3.96991L262.572 3.98814C262.744 4.00616 262.717 3.99792 262.742 3.99991C262.754 3.99996 262.757 3.99982 262.759 3.99975C262.761 3.99958 262.751 3.99957 262.742 3.99959C262.733 3.99947 262.721 3.99942 262.708 3.99943C262.684 3.99935 262.63 4.00004 262.612 3.99989C262.56 3.99992 262.483 4.00061 262.422 4.00083C262.31 4.00101 262.165 4.00189 262.049 4.00156C261.783 4.00192 261.81 3.90038 261.737 3.88921C261.539 3.85833 261.425 3.98061 261.285 3.97609C260.59 3.95484 259.943 3.9575 259.263 3.94021C258.558 3.92265 258.884 3.59932 258.638 3.53058C258.153 3.39603 258.574 3.79163 258.388 3.88908C257.848 3.88124 257.291 3.85425 256.748 3.8263C256.88 3.78405 257.012 3.74262 257.144 3.70316C256.908 3.70208 256.565 3.64966 256.96 3.53064C256.871 3.50398 256.788 3.47217 256.696 3.4463C256.676 3.59572 256.256 3.62075 256.22 3.71007C256.184 3.79941 256.42 3.7718 256.419 3.77955C256.407 3.88979 255.431 3.76995 255.361 3.75988C255.175 3.73307 255.332 3.54374 255.175 3.56052C254.904 3.58926 255.096 3.95858 254.714 3.47154C254.574 3.63798 254.558 3.55431 254.373 3.54888C254.348 3.54824 254.37 3.64141 254.359 3.64419C254.082 3.7225 254.291 3.54145 254.29 3.53205C254.259 3.37243 253.964 3.45302 253.899 3.43964C253.103 3.27263 252.513 3.1612 251.678 3.14283C251.494 3.13913 250.945 3.22141 250.77 3.19957C250.6 3.17791 250.692 3.05933 250.596 3.00678C250.448 3.28973 250.333 3.32404 249.988 3.15138C249.877 3.35788 249.887 3.19377 249.653 3.24166C249.461 3.28111 249.149 3.53489 248.908 3.33359C249.161 3.34578 249.135 3.24623 249.4 3.17801C249.494 3.15523 250.451 3.12119 250.367 2.91627C250.331 2.8092 250.012 2.9185 250.001 2.89891C249.925 2.78501 250.101 2.6367 250.259 2.68185C250.224 2.7064 250.175 2.7317 250.132 2.7565C250.488 2.89073 250.225 2.34086 250.51 2.81968C250.545 2.87839 250.534 2.94112 250.592 3.00286C250.603 2.97623 250.532 2.91328 250.591 2.89976C250.654 2.88602 250.76 3.00648 250.775 2.90173C250.794 2.74948 250.56 2.81653 250.537 2.80839C250.537 2.80931 250.536 2.81023 250.536 2.81115C250.368 2.73587 250.715 2.71588 250.725 2.70123C250.824 2.60365 250.75 2.53317 250.904 2.45032C250.995 2.40301 251.221 2.42219 251.303 2.40528C251.385 2.38799 251.254 2.32035 251.309 2.30322C251.364 2.28609 251.436 2.33835 251.503 2.31842C251.531 2.30965 251.527 2.22976 251.541 2.22653C251.688 2.19117 251.596 2.36048 251.726 2.34626C251.809 2.33691 252.095 2.17283 251.893 2.13291C251.988 2.11387 252.086 2.099 252.178 2.08355C252.12 2.06155 252.054 2.04744 251.994 2.02131C252.18 2.0536 252.248 1.91456 252.361 1.90086C252.472 1.88723 252.579 2.0482 252.701 1.96423C252.958 1.78569 252.305 1.88487 252.227 1.85685C252.196 1.84585 252.311 1.71355 252.33 1.70929C252.411 1.69064 252.512 1.77952 252.577 1.77337C252.808 1.75075 252.937 1.62525 253.157 1.59386C253.894 1.48751 254.81 1.39135 255.51 1.34293C255.771 1.32501 255.932 1.45656 256.049 1.44907C256.323 1.43143 256.352 1.31153 256.592 1.29774C256.947 1.2769 257.454 1.3651 257.749 1.37838C257.958 1.38733 258.139 1.26655 258.192 1.2621C258.935 1.19784 259.838 1.17274 260.455 1.15266C260.746 1.14313 260.889 1.26828 260.945 1.26278C261.203 1.23896 261.136 1.13028 261.34 1.13539C261.446 1.13819 261.478 1.24347 261.492 1.24719C261.631 1.27811 261.652 1.13877 261.751 1.13132C261.926 1.11896 262.066 1.11657 262.247 1.11802C262.324 1.11911 262.409 1.12123 262.492 1.12422C262.531 1.12578 262.565 1.12764 262.618 1.12928C262.64 1.13018 262.66 1.1312 262.678 1.13232C262.684 1.13295 262.703 1.13331 262.724 1.13379C262.735 1.13405 262.745 1.13431 262.761 1.13474C262.792 1.13738 262.75 1.12825 262.938 1.14736C262.958 1.15118 263.019 1.15893 263.039 1.16424C262.991 1.16679 263.214 1.2067 263.337 1.23246C263.479 1.26099 263.623 1.29049 263.765 1.31803C263.812 1.32721 263.796 1.38683 263.827 1.38906C263.957 1.39718 263.915 1.29112 264.05 1.30928C264.124 1.31941 264.199 1.33229 264.274 1.3473L264.031 1.31972C264.227 1.32407 264.424 1.34068 264.627 1.35601C264.654 1.35807 264.664 1.43738 264.727 1.43943C264.79 1.44146 264.84 1.3682 264.938 1.37571C265.195 1.39526 265.446 1.49418 265.715 1.50904C265.76 1.51139 265.818 1.41835 265.885 1.4218C266.077 1.43169 266.35 1.51487 266.514 1.53111C266.53 1.53252 266.545 1.5335 266.559 1.53398C267.157 1.55392 267.71 1.50897 268.297 1.5319C268.435 1.53768 268.555 1.63224 268.629 1.63865C268.796 1.65342 268.673 1.56196 268.846 1.5735C269.097 1.59078 269.362 1.62074 269.597 1.6535C270.058 1.7262 270.489 1.73509 271.221 1.95354C271.631 2.09302 271.98 2.21994 272.272 2.28555C272.449 2.32546 272.635 2.36714 272.833 2.41759C273.132 2.49822 273.49 2.55914 273.96 2.79366C274.128 2.86831 274.273 2.91483 274.444 2.98558C274.599 3.04874 274.607 3.16994 274.757 3.22049C274.845 3.25024 274.923 3.26176 274.995 3.26659C275.127 3.26868 275.235 3.23264 275.425 3.29759C275.648 3.37399 275.835 3.61303 276.061 3.70427C276.287 3.79675 276.45 3.71375 276.724 3.83192C276.952 3.93327 277.223 4.14753 277.532 4.35746C277.601 4.40466 277.677 4.46049 277.763 4.53339C278.306 4.97011 278.81 5.56326 279.165 6.02504C279.518 6.49325 279.718 6.85735 279.875 7.04757C280.208 7.47799 280.379 7.89457 280.505 8.18701C280.628 8.4746 280.71 8.75189 280.771 8.98141C280.827 9.20303 280.89 9.41483 280.87 9.37393C281.088 9.8683 281.152 10.2445 281.216 10.5803C281.227 10.6411 281.237 10.6997 281.246 10.7511C281.328 11.1643 281.376 11.551 281.421 11.7991C281.448 12.0007 281.6 12.4588 281.595 13.0091C281.593 13.0374 281.59 13.0655 281.588 13.0933C281.581 13.1608 281.433 13.0747 281.485 13.2827C281.513 13.3935 281.648 13.5304 281.698 13.7605C281.742 13.9637 281.791 14.1623 281.85 14.365C282.142 16.5326 281.818 17.7121 281.909 19.3123C282.017 21.9614 282.951 24.6986 281.708 26.9127C281.65 27.0099 281.301 27.0163 281.195 26.9648C281.257 26.9 281.333 26.8218 281.407 26.7603C280.969 26.7303 281.079 26.7152 281.096 26.4214C281.107 26.2285 280.933 26.3925 280.874 26.2942C280.797 26.1766 280.555 25.5635 280.847 25.6702C280.796 25.6321 280.747 25.6009 280.697 25.5664C280.636 25.119 280.554 24.6971 280.463 24.2613C280.447 24.1869 280.357 24.1852 280.341 24.1075C280.298 23.8942 280.354 23.7364 280.342 23.5176C280.336 23.4007 280.231 23.3877 280.236 23.2348C280.241 23.0826 280.381 23.0808 280.226 22.8771C280.052 23.0151 280.173 22.4078 280.16 22.1941C280.158 22.1628 279.998 21.908 280.015 21.7723C280.032 21.6359 280.132 21.4278 280.073 21.2177C280.045 21.1191 279.922 21.06 279.914 20.9535C279.908 20.8785 280.017 20.7877 280.021 20.6929C280.025 20.5981 279.934 20.3938 279.932 20.356C279.925 20.2202 280.003 20.3695 280.007 20.2766C280.021 19.8302 280.059 19.3074 280.003 18.8686C279.997 18.8141 279.907 18.8903 279.903 18.8831C279.789 18.5156 279.909 18.7116 279.989 18.6117C280.067 18.516 280.016 17.812 279.858 17.8088C280.055 17.7842 279.902 17.6324 279.896 17.5928C279.871 17.4327 280.042 17.4611 279.987 17.31C279.967 17.255 279.853 17.3648 279.856 17.3052C279.862 17.1627 280.044 17.0149 280.059 16.8228C280.062 16.777 279.979 16.7617 279.98 16.6755C279.981 16.5887 280.071 16.2349 279.902 16.4049C280.035 16.177 279.958 16.1509 279.951 15.8953C279.949 15.8339 280.079 15.7496 280.031 15.6166C280.014 15.5735 279.886 15.5815 279.881 15.5194C279.869 15.3653 279.992 15.2127 279.976 15.0507C279.972 15.0019 279.955 14.935 279.96 14.9686C279.838 14.6441 279.697 14.2969 279.667 13.9421C279.657 13.8242 279.788 13.8334 279.768 13.6678C279.765 13.644 279.629 13.4576 279.629 13.3438C279.629 13.3196 279.634 13.2594 279.641 13.1895C279.66 13.1069 279.671 12.9835 279.666 12.9473C279.655 12.8561 279.529 12.8704 279.539 12.8133C279.563 12.6392 279.777 12.7178 279.476 12.586C279.59 12.479 279.539 12.349 279.694 12.2626C279.665 12.2582 279.643 12.2511 279.627 12.2418C279.53 12.1877 279.631 12.0679 279.553 11.9551C279.463 11.8226 279.084 11.7746 279.463 11.6704C279.405 11.6124 279.274 11.3672 279.259 11.3281C279.224 11.2317 279.293 11.2397 279.305 11.2006C279.307 11.1897 279.306 11.1747 279.298 11.1543C279.292 11.1367 279.224 11.1705 279.205 11.055C279.195 10.9695 279.068 10.4781 279.064 10.4605C279.065 10.1296 279.194 10.5932 279.286 10.6609C279.27 10.6795 279.253 10.698 279.236 10.7173C279.242 10.8787 279.382 10.7515 279.401 10.6699C279.42 10.588 279.31 10.4812 279.344 10.4099C279.361 10.3737 279.557 10.3254 279.563 10.4235C279.591 10.3083 279.695 10.4216 279.738 10.3659C279.772 10.3238 279.72 10.0879 279.63 9.96516C279.593 9.91629 279.558 9.8813 279.525 9.893C279.536 9.92563 279.55 9.96057 279.566 9.99527C279.592 10.0489 279.616 10.1054 279.633 10.1564C279.552 10.2606 279.268 10.2578 279.083 10.2258C278.912 10.1276 278.807 9.96637 278.873 9.79835C278.99 9.5158 279.24 9.8409 278.939 9.36473C278.954 9.44431 278.956 9.51608 278.969 9.59245C278.832 9.63877 278.951 9.47682 278.89 9.43091C278.86 9.40906 278.812 9.61122 278.736 9.46995C278.896 9.28434 278.67 9.24467 278.596 9.06546C278.65 9.10217 278.704 9.14265 278.758 9.1861C278.774 8.79037 279.117 9.58862 278.941 8.87312C278.981 8.95163 279.01 9.03515 279.049 9.11771C279.106 9.05074 279.34 9.04834 279.371 8.99375C279.429 8.88921 279.377 8.78843 279.325 8.69385C279.305 8.65881 279.286 8.62383 279.274 8.58812C279.255 8.53247 279.324 8.54175 279.322 8.53712C279.296 8.46006 279.223 8.51215 279.188 8.44975C279.148 8.37218 279.101 8.096 279.066 8.06169C278.987 7.97721 278.933 8.22589 278.914 8.22116C278.809 8.20314 278.795 8.05236 278.707 8.11907C278.962 8.34198 279.226 9.26266 278.723 8.56377C278.658 8.84767 278.402 8.86081 278.262 8.63034C278.144 8.4544 278.298 8.5248 278.329 8.37112C278.33 8.36339 278.312 8.31549 278.283 8.26635C278.209 8.15292 278.124 8.02448 278.079 8.03938C278.232 7.95392 278.291 7.76178 278.489 7.73262C278.518 7.72849 278.598 7.86337 278.687 7.73537C278.731 7.67133 278.821 7.52072 278.906 7.479C278.835 7.49028 278.757 7.50355 278.683 7.51381C278.543 7.33162 278.585 7.26487 278.619 7.09184C278.58 7.12378 278.464 7.33694 278.422 7.14973C278.42 7.13972 278.481 7.09274 278.462 6.99334C278.421 6.79273 278.413 6.73996 278.685 6.74553C278.593 6.66917 278.534 6.59651 278.49 6.52386C278.391 6.35802 278.412 6.18797 278.182 5.98131C278.009 6.22459 278.154 6.29362 278.414 6.55267C278.389 6.58248 278.362 6.61006 278.335 6.63805C278.314 6.6604 278.294 6.68293 278.274 6.70699C278.271 6.70062 278.269 6.69438 278.267 6.68824C278.113 6.2322 278.235 6.42384 277.961 6.29046C277.894 6.25681 277.689 5.95189 277.619 6.16971C277.603 6.22017 277.745 6.38907 277.673 6.41386C277.66 6.41761 277.465 6.23394 277.463 6.20508C277.435 5.83348 277.931 6.11927 277.281 5.56495C277.262 5.55038 277.199 5.60468 277.158 5.58199C277.082 5.53972 277.147 5.46813 277.076 5.43331C277.052 5.42141 277.018 5.41718 276.982 5.40983C276.905 5.3898 276.83 5.37095 276.811 5.26014C276.774 5.06781 276.961 5.05316 277.169 5.20001C277.257 5.26081 277.335 5.34862 277.364 5.43423C277.445 5.39154 277.393 5.25284 277.27 5.08624C276.852 4.60457 276.157 4.31852 276.083 4.29485C275.647 4.21032 276.323 4.45615 276.321 4.54877C276.32 4.58651 276.119 4.96018 276.406 4.79868C276.492 4.75165 276.341 4.55047 276.482 4.57345C276.626 4.59822 276.518 4.68325 276.522 4.69558C276.538 4.73759 276.689 4.76882 276.697 4.79454C276.813 5.17972 276.581 5.50858 276.554 4.79984C276.346 4.84034 276.564 5.21005 276.345 5.19376C276.086 5.17897 276.02 4.93246 275.995 4.91054C275.716 4.66241 275.968 5.09378 275.612 4.82923C275.41 4.68349 276.023 4.80692 275.506 4.59596C275.07 4.42589 275.264 4.61721 275.146 4.81016C275.118 4.85549 274.863 4.81831 275.186 4.92873C275.217 4.87872 275.264 4.81509 275.306 4.77417C275.367 4.84681 275.376 5.17045 275.411 5.19755C275.584 5.32969 275.64 5.18888 275.676 5.40387C275.68 5.18898 275.76 5.35794 275.827 5.34504C276.074 5.30004 275.872 5.1276 276.177 5.51269C276.171 5.4045 276.166 5.29951 276.156 5.19128C276.207 5.21448 276.258 5.23818 276.309 5.26246C276.287 5.47937 276.533 5.599 276.215 5.64562C276.423 5.82744 276.508 5.86237 276.629 5.8056C276.644 5.80106 276.659 5.7953 276.674 5.78841C276.704 5.77477 276.747 5.79753 276.79 5.83319C276.812 5.79368 276.894 5.68397 276.912 5.67777C277.073 5.62543 276.987 5.89668 276.889 5.93644C276.913 5.96675 276.931 5.99208 276.937 6.00144C276.975 6.06016 276.818 6.02866 276.836 6.08859C276.843 6.10761 276.988 6.2296 276.963 6.25708C276.809 6.43129 276.735 6.09202 277.035 6.63398C277.206 6.51095 276.98 6.32338 277.194 6.2316C277.428 6.13573 277.295 6.47251 277.543 6.31537C277.515 6.35665 277.488 6.38673 277.453 6.43044C277.718 6.55739 277.527 6.71199 277.533 6.80723C277.538 6.88283 277.612 7.0204 277.686 7.11737C277.771 7.23131 277.864 7.28536 277.803 7.03056C277.794 6.99818 277.783 6.96128 277.769 6.91945C277.797 6.94382 277.824 6.96957 277.85 6.99586C277.892 7.03595 277.932 7.07876 277.973 7.12005C277.625 7.38448 277.736 7.22588 277.921 7.64704C277.963 7.74102 277.82 7.87301 278.067 7.83831C277.869 7.94532 278.163 8.14483 278.163 8.18655C278.136 8.46169 277.501 7.95901 277.806 7.69058C277.617 7.67778 277.789 7.56985 277.702 7.4836C277.594 7.37928 277.548 7.37065 277.546 7.22087C277.543 7.19335 277.541 7.16211 277.54 7.12537C277.448 7.11217 277.454 7.17711 277.488 7.26332C277.542 7.42386 277.71 7.69389 277.341 7.48587C277.315 7.47268 277.286 7.45515 277.255 7.43572C276.974 7.2191 276.581 6.79722 276.069 6.43484C276.048 6.43674 275.869 6.33792 275.704 6.2687C275.532 6.19364 275.343 6.11763 275.155 6.04589C274.777 5.90245 274.399 5.77279 274.1 5.68014C273.899 5.62356 273.573 5.54077 273.376 5.47182C273.11 5.38317 272.852 5.27111 272.627 5.15469C272.518 5.11401 272.075 5.01672 271.68 4.94761C271.17 4.84676 270.755 4.70363 270.369 4.58052C270.338 4.5699 270.205 4.53895 270.046 4.51314C269.982 4.49966 269.508 4.44944 269.248 4.34594C269.14 4.29843 269.092 4.24133 269.165 4.17085C269.175 4.16121 269.222 4.15066 269.275 4.13432C269.4 4.09956 269.54 4.03407 269.309 3.87582C269.304 3.87241 269.299 3.86897 269.294 3.86548C269.353 3.98702 269.131 4.03256 269.114 4.04291C268.694 4.27088 268.935 4.35248 268.313 4.31881ZM266.372 2.09384C266.421 2.09827 266.466 2.10167 266.505 2.10405C267.189 2.14421 266.617 1.96975 266.798 1.6259C266.702 1.62335 266.61 1.62098 266.513 1.61857C266.495 1.61811 266.476 1.61757 266.457 1.61701C266.475 1.63294 266.494 1.64883 266.512 1.66465C266.522 1.67233 266.532 1.68002 266.542 1.68771C266.542 1.68771 266.542 1.68771 266.542 1.68771C266.532 1.71155 266.521 1.73538 266.511 1.75921C266.466 1.871 266.419 1.98251 266.372 2.09384ZM251.733 1.90325C251.766 1.85372 251.799 1.80411 251.835 1.75553C251.952 1.76692 252.079 1.77774 252.192 1.78924C252.179 1.82255 252.167 1.85623 252.154 1.88953C252.014 1.89251 251.871 1.89548 251.733 1.90325ZM277.497 5.49045C277.526 5.71254 277.69 5.53471 277.77 5.78756C277.884 5.64813 277.991 5.50736 278.098 5.36458C277.946 5.23734 277.867 5.25271 277.748 5.07382C277.726 5.13194 277.703 5.19022 277.679 5.24745C277.712 5.26313 277.748 5.27931 277.779 5.29576C277.701 5.44295 277.457 5.23316 277.496 5.49026C277.497 5.49032 277.497 5.49039 277.497 5.49045ZM278.687 6.87369C278.721 6.96881 278.834 7.31455 278.92 7.31073C279.218 7.31859 278.555 6.55891 279.133 7.06327C279.161 7.04186 279.191 7.02626 279.221 7.00775C279.163 6.89359 279.1 6.77194 279.028 6.64122C278.916 6.72239 278.799 6.79154 278.687 6.87369ZM269.67 2.24722C269.795 2.28034 270.498 2.25759 270.296 2.07072C270.232 2.01405 269.9 2.19886 269.792 2.17583C269.722 2.16061 269.817 2.0478 269.671 2.07532C269.67 2.13022 269.666 2.19071 269.67 2.24691C269.67 2.24701 269.67 2.24712 269.67 2.24722ZM269.323 2.92893C269.359 2.92786 269.395 2.92654 269.432 2.92517C269.541 2.92095 269.651 2.91433 269.76 2.91032C269.673 2.75743 269.458 2.82142 269.471 2.62298C269.512 2.61308 269.552 2.60312 269.593 2.59311C269.617 2.63991 269.641 2.68668 269.665 2.7334C269.801 2.64188 269.732 2.57902 269.959 2.63924C269.864 2.34447 269.85 2.18319 269.504 2.36883C269.479 2.38165 269.452 2.39627 269.423 2.41264C269.52 2.26127 269.516 1.72457 269.237 2.07427C269.187 2.13925 269.362 2.20649 269.362 2.21807C269.372 2.35952 269.264 2.43608 269.277 2.57017C269.283 2.63069 269.388 2.6427 269.394 2.7267C269.395 2.76749 269.283 2.86929 269.323 2.92893ZM269.11 2.19438C269.167 2.11535 269.023 1.89915 268.876 1.92883C268.652 1.97559 268.983 2.18974 269.11 2.19438ZM251.732 1.90346C251.732 1.90339 251.733 1.90332 251.733 1.90325C251.733 1.90344 251.733 1.90363 251.733 1.90381C251.732 1.90369 251.732 1.90358 251.732 1.90346ZM278.48 6.40274C278.516 6.41575 278.549 6.43661 278.579 6.4576C278.661 6.52011 278.725 6.58078 278.786 6.52788C278.801 6.59005 278.815 6.65099 278.827 6.71037C278.855 6.69126 278.884 6.67164 278.912 6.65271C278.863 6.55167 278.809 6.44647 278.744 6.33569C278.718 6.28718 278.691 6.23835 278.664 6.18894C278.602 6.25972 278.539 6.32949 278.48 6.40274ZM279.391 7.91182C279.494 8.12069 279.536 7.87616 279.627 7.8854C279.72 7.89846 279.758 8.1132 279.843 8.04431C279.788 7.91936 279.722 7.78118 279.642 7.6438C279.564 7.74041 279.475 7.82441 279.392 7.91223C279.392 7.9121 279.391 7.91196 279.391 7.91182ZM262.718 1.69222C262.763 1.69751 262.698 1.69349 262.865 1.71247C262.877 1.71471 262.913 1.71925 262.925 1.72237C262.936 1.7676 262.918 1.84685 263.168 1.75506C263.168 1.75503 263.167 1.75501 263.167 1.75498C263.086 1.70775 262.942 1.65426 262.944 1.62881C262.931 1.62533 262.891 1.62025 262.878 1.61774C262.69 1.59989 262.765 1.60731 262.723 1.60301C262.698 1.60105 262.691 1.59902 262.681 1.59713C262.661 1.59338 262.638 1.59028 262.611 1.58793C262.546 1.5835 262.524 1.58055 262.472 1.58149C262.365 1.58353 262.295 1.59717 262.202 1.62922C262.378 1.74934 262.483 1.64457 262.718 1.69222ZM277.343 4.87053C277.292 4.8785 277.305 4.93337 277.346 5.00067C277.381 5.07563 277.461 5.15891 277.524 5.14759C277.669 5.12242 277.578 4.92587 277.445 4.88962C277.41 4.87394 277.375 4.86696 277.343 4.87053ZM257.389 2.68232C257.198 2.97708 257.585 3.28926 257.983 3.13695C258.017 3.12363 257.755 3.0399 257.83 2.9812C257.838 2.97541 257.98 2.97788 258.014 2.93667C258.048 2.89536 258.008 2.80313 258.064 2.76218C258.164 2.69057 258.39 2.81059 258.466 2.71828C258.476 2.70592 258.329 2.58547 258.321 2.58096C258.176 2.50983 258.041 2.67738 258.018 2.67915C257.903 2.68832 257.916 2.55982 257.886 2.53064C257.829 2.47577 257.733 2.53538 257.726 2.53137C257.549 2.42453 257.95 2.44426 258.003 2.39642C258.144 2.26742 258.008 2.15575 258.35 2.07481C258.385 2.06712 258.783 2.06236 258.277 1.93455C259.252 1.60552 257.78 1.7798 257.622 1.85057C257.549 1.88333 257.664 2.00187 257.621 2.05814C257.524 2.18682 257.35 2.21436 257.371 2.39086C257.417 2.76189 257.636 2.51106 257.796 2.5688C257.782 2.65011 257.777 2.72912 257.749 2.80912C257.793 2.70133 257.404 2.66013 257.389 2.68159C257.389 2.68183 257.389 2.68208 257.389 2.68232ZM259.859 2.18072C260.079 2.28639 260.057 2.05195 260.266 2.18004C260.439 1.96369 260.085 1.98861 260.042 1.97803C259.858 1.93042 259.855 1.70095 259.665 1.77739C259.736 1.91106 259.793 2.04654 259.859 2.18072ZM257.939 2.14282C258.084 2.01933 257.819 2.02953 257.807 2.00713C257.684 1.76948 258.475 1.79196 257.939 2.14282ZM270.473 2.83677C270.549 2.85891 270.52 2.73756 270.597 2.71827C270.674 2.69633 270.899 2.85583 270.914 2.78915C270.935 2.71629 270.479 2.41133 270.995 2.50533C270.989 2.46169 271.003 2.43505 271.005 2.39784C270.854 2.35223 270.718 2.32223 270.589 2.29723C270.639 2.42312 270.688 2.55621 270.73 2.67979C270.639 2.75268 270.625 2.6309 270.621 2.62996C270.621 2.63008 270.621 2.6302 270.621 2.63031C270.487 2.61275 270.304 2.78971 270.473 2.83677ZM264.574 2.13202C264.543 2.41639 264.73 2.10356 264.804 2.0707C264.878 2.0379 264.974 2.14685 264.941 2.0229C264.826 1.93416 264.578 2.10024 264.574 2.13239C264.574 2.13227 264.574 2.13215 264.574 2.13202ZM261.052 2.14402C261.241 2.06911 261.211 1.9958 261.431 2.0739C261.421 2.00524 261.41 1.93507 261.4 1.86746C261.226 1.87123 261.246 2.07087 261.027 1.99693C260.993 1.98464 261.06 1.82272 260.912 1.87856C260.959 1.9625 261.003 2.05594 261.052 2.14402ZM261.965 1.8613C261.739 1.8784 261.596 2.44068 261.985 2.17765C262.041 2.1384 262.122 1.84874 261.965 1.8613ZM268.502 2.62278C268.866 2.66038 268.456 2.54513 268.365 2.45607C269.227 2.43631 268.267 2.47135 268.194 2.18692C268.086 2.26388 267.886 2.44301 268.099 2.50017C268.189 2.52414 268.159 2.43811 268.165 2.43865C268.33 2.46637 268.302 2.60381 268.502 2.62278ZM259.474 2.20623C259.487 2.20162 259.463 2.106 259.505 2.08547C259.548 2.06504 259.651 2.12932 259.659 2.06996C259.667 2.01021 259.464 1.97028 259.408 2.01533C259.35 2.06088 259.354 2.24699 259.474 2.20623ZM260.868 2.40125C261.043 2.32665 260.743 1.98074 260.701 1.98367C260.347 2.01291 260.879 2.28852 260.868 2.40125ZM267.643 3.19375C268.081 3.02601 267.774 2.70316 267.505 2.50909C267.469 2.54634 267.429 2.5836 267.394 2.62059C267.563 2.39295 267.856 2.1703 267.212 2.35786C267.561 2.41992 267.265 2.47573 267.264 2.4888C267.216 2.91308 267.738 2.72785 267.643 3.19374C267.643 3.19374 267.643 3.19375 267.643 3.19375ZM258.885 2.12281C258.701 2.12988 258.204 2.21877 258.442 2.39696C258.592 2.30552 258.74 2.2141 258.885 2.12281ZM274.407 4.74542C274.416 4.75837 274.424 4.77051 274.433 4.78196C274.531 4.90405 274.653 4.94895 274.813 5.0065C274.715 4.80093 274.823 4.82514 274.89 4.8116C274.993 4.79148 274.795 4.71696 274.799 4.70741C274.856 4.57266 274.991 4.60039 274.702 4.49181C274.792 4.47144 274.881 4.45099 274.971 4.43263C274.785 4.35221 274.745 4.26213 274.673 4.13561C274.659 4.11366 274.645 4.09079 274.629 4.06686C274.677 4.38855 274.545 4.14775 274.335 4.23062C274.231 4.27185 274.362 4.67029 274.408 4.74561C274.407 4.74555 274.407 4.74548 274.407 4.74542ZM268.086 3.26483C268.133 3.21511 268.174 3.14705 268.22 3.09014C268.267 3.08645 268.315 3.08365 268.36 3.08022C268.364 3.12592 268.367 3.17368 268.371 3.21768C268.432 3.2339 268.411 3.1695 268.429 3.16446C268.429 3.16471 268.429 3.16495 268.429 3.1652C268.693 3.09525 268.802 3.11294 268.987 3.27182C269.001 3.13314 269.014 2.99447 269.028 2.8558C268.98 2.86442 268.932 2.87303 268.885 2.88202C268.853 2.95449 268.823 3.02726 268.793 3.09999C268.744 3.05476 268.694 3.01011 268.643 2.96548C268.598 2.98956 268.546 3.01484 268.507 3.03897C268.314 2.63805 268.787 2.93003 268.803 2.7711C268.814 2.66562 268.314 2.64108 268.241 2.71164C268.23 2.72175 268.325 3.01574 268.151 2.85757C268.124 2.83282 268.136 2.20495 267.923 2.70634C267.893 2.77752 267.978 3.17004 268.086 3.26483ZM269.802 3.62359C269.589 3.18847 270.509 3.74648 270.137 3.35884C270.284 3.19451 270.265 3.19376 270.163 3.01327C270.154 2.99708 270.248 2.95976 270.242 2.95238C270.136 2.84506 269.987 2.87394 270.007 2.71106C269.974 2.71551 269.942 2.71934 269.909 2.72391C270.023 2.8944 269.798 2.97029 269.701 3.08978C269.656 3.1438 269.739 3.17256 269.701 3.21999C269.688 3.23731 269.573 3.18495 269.561 3.23805C269.536 3.35828 269.591 3.53203 269.706 3.6374C269.706 3.63752 269.706 3.63764 269.706 3.63776C269.738 3.63375 269.77 3.62793 269.802 3.62359ZM263.912 3.00549C263.912 2.80463 263.773 2.70328 264.007 2.65888L263.997 2.65774C264.025 2.64709 264.06 2.63633 264.101 2.62519C264.084 2.58103 264.067 2.53722 264.05 2.49306C264.034 2.49365 264.017 2.49425 264.001 2.49485L264.04 2.4992C263.994 2.49285 263.95 2.4868 263.904 2.48052C263.598 3.08558 263.397 2.30447 263.531 2.79745C263.545 2.85096 263.696 2.82074 263.533 2.93072C263.533 2.93087 263.533 2.93103 263.534 2.93118C263.733 2.9243 263.775 2.85257 263.912 3.00549ZM265.306 2.90316C265.784 2.45331 264.677 2.62007 264.857 2.75069C264.873 2.76225 265.349 2.67877 265.306 2.90316ZM261.646 3.09613C261.852 3.09812 261.851 2.8462 261.83 2.75605C261.809 2.66565 261.673 2.76161 261.653 2.74788C261.591 2.70244 261.718 2.66747 261.638 2.60507C261.608 2.5849 261.248 2.50574 261.232 2.51711C261.141 2.5801 261.282 2.78379 261.256 2.80837C261.174 2.88885 261.046 2.78455 261.028 2.89564C260.979 3.13298 261.195 2.87888 261.231 2.87378C261.342 2.85929 261.336 2.99226 261.416 3.01647C261.492 3.04079 261.556 2.99338 261.628 3.00066C261.653 3.00308 261.635 3.09561 261.646 3.09613ZM262.315 2.54469C262.108 2.74122 262.629 2.93403 262.696 2.88835C262.858 2.75203 262.417 2.45041 262.315 2.54469ZM269.191 2.93655C269.037 3.02147 269.232 3.13005 269.4 3.16982C269.463 3.18425 269.521 3.1887 269.558 3.17839C269.55 3.15118 269.489 3.09097 269.418 3.03653C269.332 2.97077 269.231 2.91484 269.191 2.93655ZM267.523 3.18997C267.706 3.15153 267.473 2.83396 267.321 2.83564C267.226 3.03829 267.314 2.99956 267.411 3.01018C267.51 3.02098 267.382 3.22011 267.523 3.18997ZM259.392 2.93657C259.425 2.93879 260.062 2.75007 259.693 2.69103C259.661 2.68675 259.225 2.72989 259.191 2.76246C259.125 2.82821 259.292 2.93053 259.392 2.93657ZM266.649 3.47482C266.75 3.29945 266.842 3.30348 266.759 3.09412C266.759 3.09412 266.758 3.09412 266.758 3.09412C267.003 3.03475 267.005 3.46026 267.058 3.45215C267.239 3.42385 267.072 3.11778 267.19 3.02077C266.921 3.10883 267.002 2.90635 266.799 2.88971C266.753 2.88609 266.569 3.00488 266.54 3.08039C266.512 3.15592 266.603 3.38513 266.649 3.47482ZM258.5 3.00816C258.717 3.06931 258.902 2.77658 258.605 2.74019C258.459 2.72228 258.366 2.97095 258.5 3.00816ZM277.999 7.67556C278.045 7.60765 278.091 7.53947 278.135 7.47031C278.192 7.52722 278.25 7.58473 278.309 7.64199C278.255 7.60164 278.201 7.5608 278.148 7.51999C278.205 7.6594 278.127 7.79186 277.999 7.67589C277.999 7.67578 277.999 7.67567 277.999 7.67556ZM279.673 12.4783C279.624 12.5659 279.875 12.6241 279.887 12.6038C279.978 12.4516 279.743 12.3585 279.673 12.4783ZM269.394 3.64835C269.627 3.70809 269.523 3.36013 269.385 3.291C269.378 3.28786 269.372 3.28531 269.366 3.28341C269.373 3.29095 269.379 3.29996 269.382 3.31012C269.397 3.35357 269.377 3.41791 269.36 3.47912C269.348 3.52416 269.338 3.56752 269.344 3.59958C269.35 3.62313 269.364 3.64067 269.394 3.64835ZM279.286 10.6609C279.311 10.6331 279.336 10.605 279.36 10.5744C279.338 10.6555 279.312 10.675 279.286 10.6609ZM259.5 3.25548C259.535 3.28241 259.822 3.29676 259.856 3.26109C259.931 3.18597 259.71 2.99126 259.581 3.05719C259.565 3.06432 259.463 3.22861 259.501 3.25546C259.501 3.25546 259.501 3.25547 259.5 3.25548ZM278.07 8.04436C278.073 8.04203 278.076 8.04038 278.079 8.03938C278.076 8.04094 278.073 8.04289 278.07 8.04436ZM279.841 17.8111C279.847 17.8096 279.853 17.8087 279.858 17.8088C279.853 17.8094 279.847 17.8107 279.841 17.8111ZM261.465 3.50577C261.57 3.85032 261.782 3.65915 261.606 3.49245C261.597 3.48366 261.483 3.50593 261.465 3.50577Z" fill="#419DDF"/>
</svg>
