<svg width="283" height="18" viewBox="0 0 283 18" fill="none" xmlns="http://www.w3.org/2000/svg">
<path d="M170.337 13.5653C180.473 13.5576 191.57 13.5114 201.746 13.5715C202.995 13.5789 202.91 13.6796 203.261 13.6929C204.219 13.7296 204.796 13.6108 205.494 13.6195C208.889 13.6615 212.065 13.6786 215.396 13.7167C218.827 13.7559 217.204 14.0691 218.396 14.1454C220.726 14.2948 218.744 13.8864 219.66 13.7948C222.33 13.8192 225.024 13.8635 227.699 13.9083C227.046 13.9464 226.393 13.9837 225.733 14.0191C226.899 14.0275 228.568 14.0905 226.615 14.1972C227.047 14.2266 227.45 14.261 227.893 14.2897C228.015 14.141 230.079 14.129 230.268 14.0408C230.456 13.9527 229.295 13.9729 229.303 13.9652C229.38 13.8554 234.141 14.0055 234.484 14.0178C235.392 14.0504 234.596 14.2347 235.368 14.2229C236.696 14.2026 235.811 13.8274 237.609 14.3261C238.324 14.1641 238.387 14.2483 239.292 14.2595C239.412 14.2609 239.319 14.1671 239.371 14.1646C240.742 14.095 239.689 14.2694 239.696 14.2789C239.82 14.4394 241.291 14.368 241.601 14.3834C245.49 14.5752 248.339 14.705 252.443 14.7495C253.33 14.7589 256.031 14.6938 256.89 14.7211C257.736 14.748 257.282 14.8637 257.725 14.9192C258.435 14.641 259.113 14.6103 260.707 14.7936C261.301 14.5906 261.224 14.7544 262.362 14.7138C263.308 14.6801 264.958 14.4367 266 14.6442C264.805 14.6253 264.929 14.725 263.584 14.7852C263.137 14.8051 258.469 14.8094 258.816 15.0168C258.997 15.1249 260.544 15.0256 260.604 15.0456C260.952 15.1617 260.089 15.3045 259.323 15.2545C259.514 15.231 259.744 15.2072 259.949 15.1838C258.23 15.0386 259.412 15.5964 258.105 15.1089C257.944 15.0491 258.007 14.9868 257.74 14.9232C257.685 14.9495 258.011 15.0147 257.731 15.0263C257.444 15.0381 256.901 14.9144 256.82 15.0186C256.699 15.1702 257.885 15.1105 257.974 15.1193C257.975 15.1184 257.976 15.1175 257.977 15.1166C258.766 15.1971 257.118 15.2063 257.039 15.2206C256.53 15.315 256.877 15.3878 256.112 15.4658C255.676 15.5102 254.565 15.484 254.154 15.4984C253.747 15.5131 254.381 15.5848 254.107 15.6002C253.833 15.6156 253.491 15.5611 253.169 15.5789C253.031 15.5868 253.039 15.6668 252.972 15.6696C252.257 15.7003 252.726 15.534 252.077 15.5441C251.657 15.5509 250.247 15.706 251.219 15.7522C250.752 15.7682 250.296 15.78 249.831 15.7926C250.125 15.8164 250.428 15.8326 250.714 15.8606C249.839 15.8225 249.443 15.9593 248.895 15.9695C248.347 15.9797 247.855 15.8154 247.252 15.8955C245.964 16.066 249.152 15.9872 249.548 16.0177C249.702 16.0296 249.11 16.1583 249.019 16.1619C248.614 16.178 248.134 16.086 247.822 16.0902C246.704 16.1056 246.019 16.227 244.953 16.2515C241.324 16.3348 236.823 16.4023 233.384 16.4289C232.104 16.4387 231.333 16.3022 230.759 16.3061C229.414 16.3152 229.25 16.4341 228.077 16.4405C226.332 16.4503 223.873 16.3464 222.416 16.324C221.408 16.3086 220.494 16.4237 220.232 16.4265C216.586 16.4678 212.151 16.4652 209.13 16.4666C207.71 16.4673 207.035 16.338 206.741 16.3418C205.48 16.3579 205.818 16.4685 204.796 16.4573C204.244 16.4514 204.14 16.3452 204.066 16.341C203.415 16.306 203.286 16.4447 202.778 16.4492C199.857 16.4755 197.044 16.3847 194.152 16.3714C193.942 16.3704 193.961 16.3089 193.825 16.3121C193.241 16.3272 193.513 16.4239 192.903 16.4309C191.634 16.446 190.332 16.43 188.987 16.4177C188.854 16.4165 188.794 16.3376 188.489 16.3375C188.184 16.3375 187.953 16.4124 187.473 16.4082C186.222 16.3974 184.986 16.3078 183.661 16.3029C183.441 16.3022 183.17 16.3974 182.84 16.3963C181.808 16.3932 180.279 16.3068 179.395 16.3037C176.476 16.2939 173.784 16.348 171.035 16.3487C170.389 16.3487 169.817 16.2605 169.48 16.2584C168.723 16.2539 169.294 16.3372 168.527 16.3375C162.256 16.3396 155.961 16.3018 149.616 16.3084C147.125 16.3109 144.092 16.397 141.684 16.3733C140.682 16.3631 140.501 16.248 139.793 16.2469C138.529 16.2455 138.3 16.3931 136.968 16.4079C135.904 16.4194 134.686 16.2721 133.579 16.2812C132.473 16.2903 131.962 16.4334 130.692 16.4505C129.645 16.4645 128.183 16.3996 127.044 16.4101C116.6 16.5066 106.317 16.5654 95.809 16.4535C92.1013 16.4139 87.9878 16.4345 84.1561 16.2938C83.7962 16.2805 84.3467 16.1423 83.1929 16.1713C82.573 16.187 81.7075 16.3061 80.2746 16.3121C71.7553 16.3471 62.668 16.0923 54.0056 16.1427C41.03 16.2187 27.5824 17.2023 16.3068 15.763C15.7538 15.6923 16.0537 15.3459 16.385 15.2475C16.6926 15.3178 16.9769 15.4014 17.2987 15.4808C17.7039 15.048 17.6325 15.1607 19.1345 15.1995C20.0592 15.2237 19.3206 15.0386 19.8135 14.986C20.4525 14.9182 23.4528 14.7044 22.8758 14.991C23.0617 14.9413 23.2334 14.8937 23.4146 14.845C25.5867 14.8017 27.697 14.7299 29.8214 14.6477C30.1884 14.6333 30.2053 14.5434 30.5843 14.529C31.6023 14.4898 32.4106 14.5489 33.4596 14.5398C34.0295 14.5349 34.1086 14.431 34.8549 14.4376C35.6007 14.4443 35.5844 14.5846 36.602 14.4321C35.9392 14.2561 38.8959 14.3838 39.9475 14.373C40.1001 14.3716 41.3517 14.2135 42.017 14.2316C42.6845 14.2495 43.6979 14.3505 44.7302 14.2932C45.2142 14.2662 45.5079 14.1431 46.03 14.1361C46.3972 14.1312 46.8383 14.2406 47.3032 14.2452C47.7679 14.2497 48.7736 14.1599 48.9578 14.1584C49.6229 14.1525 48.8892 14.2294 49.3441 14.2333C51.54 14.2508 54.0913 14.292 56.2563 14.2403C56.5225 14.234 56.1542 14.1433 56.1895 14.1403C57.9964 14.029 57.032 14.1472 57.5199 14.2283C57.9925 14.3069 61.4512 14.264 61.4767 14.1064C61.583 14.3038 62.3518 14.153 62.5515 14.1472C63.3287 14.1249 63.1762 14.2956 63.9296 14.2428C64.206 14.2236 63.6678 14.1081 63.9649 14.1115C64.6992 14.1199 65.3601 14.3054 66.3376 14.3239C66.5737 14.3285 66.6504 14.2459 67.07 14.2487C67.4902 14.2515 69.2512 14.3526 68.4385 14.1784C69.5066 14.318 69.7217 14.2413 70.9639 14.2452C71.2785 14.2464 71.6837 14.3795 72.3534 14.3382C72.5799 14.3242 72.5732 14.1959 72.9141 14.1948C73.6937 14.1921 74.4282 14.3249 75.4175 14.3302C77.2678 14.3403 79.2374 14.2469 81.1663 14.2802C81.6906 14.2893 81.5597 14.4183 82.3221 14.4208C82.4342 14.4208 83.3526 14.3092 83.8795 14.3197C84.1966 14.326 85.8398 14.4044 86.1712 14.4107C86.7192 14.4208 86.817 14.296 87.1172 14.3205C87.9851 14.3908 87.2889 14.5745 88.3332 14.3232C88.6765 14.4625 89.2868 14.4485 89.4823 14.62C89.8376 14.4321 90.2983 14.6126 90.9872 14.5497C91.6763 14.4867 92.2413 14.1228 92.4082 14.5144C92.7301 14.4668 94.1015 14.3855 94.3327 14.3796C95.0144 14.3628 94.6499 14.4711 95.1643 14.4565C95.2549 14.454 95.1601 14.38 95.7413 14.3873C96.1228 14.3922 98.918 14.3967 99.0849 14.4069C100.989 14.5228 98.0472 14.4803 97.6353 14.5605C97.5626 14.5394 97.4907 14.5183 97.4131 14.4975C96.5716 14.4625 97.0507 14.6299 97.4322 14.6687C97.8137 14.7076 98.5265 14.633 98.8436 14.6879C99.0016 14.7155 98.9037 14.9162 98.4259 14.8919C98.9372 14.9537 98.239 15.019 98.4412 15.077C98.6635 15.1407 100.961 15.1603 100.973 15.0498C100.544 15.0459 100.01 15.0497 99.576 15.0452C99.0086 14.8531 100.732 14.1969 102.313 14.4591C103.46 14.6487 101.569 14.7995 104.282 14.6403C103.865 14.6326 103.512 14.6147 103.133 14.6066C103.093 14.4626 103.708 14.621 104.025 14.5752C104.177 14.5527 103.239 14.4507 104.054 14.4168C104.754 14.6228 105.294 14.4156 106.469 14.4131C106.143 14.4498 105.815 14.4864 105.489 14.5231C107.475 14.6726 102.862 14.7219 106.724 14.8055C106.259 14.8121 105.797 14.8104 105.33 14.8205C105.556 14.8961 105.194 15.118 105.396 15.1649C105.928 15.288 106.714 15.2138 107.363 15.2246C107.647 15.2292 107.471 15.2891 107.494 15.2894C107.883 15.2961 107.797 15.2083 108.138 15.2027C108.567 15.1957 109.806 15.2811 110.007 15.2713C110.527 15.2465 109.662 15.0731 109.712 15.0602C110.043 14.9762 110.72 15.0459 110.684 14.9361C109.056 15.0116 104.362 14.9146 108.608 14.733C107.438 14.5556 107.776 14.311 109.459 14.2917C110.851 14.2756 109.953 14.3736 110.678 14.4814C110.771 14.4949 112.636 14.5464 112.732 14.4702C112.657 14.6457 113.264 14.8011 112.857 14.9822C112.797 15.0088 112.032 14.9983 112.299 15.1439C112.433 15.217 112.816 15.3762 112.754 15.4693C112.911 15.4045 113.076 15.3317 113.236 15.2642C114.382 15.2453 114.545 15.315 115.172 15.4358C115.144 15.3854 114.564 15.1736 115.444 15.238C115.489 15.2418 115.528 15.3178 115.975 15.3555C116.879 15.4311 117.068 15.4546 116.374 15.6778C118.245 15.5505 118.648 15.7993 120.567 15.7265C120.186 15.4396 119.511 15.5106 117.754 15.5659C117.678 15.4977 117.642 15.4302 117.563 15.3612C119.902 15.5159 118.746 15.5001 120.071 15.3616C120.396 15.3276 122.125 15.364 121.548 15.1708C121.412 15.1253 120.337 15.1306 120.461 15.0589C120.484 15.0453 121.79 15.0106 121.905 15.0291C123.35 15.2576 120.768 15.4169 124.747 15.3336C124.857 15.3311 124.895 15.2476 125.11 15.236C125.513 15.2143 125.518 15.3111 125.877 15.2887C126.237 15.2663 126.736 15.1362 127.277 15.2565C128.267 15.4756 125.933 15.6016 124.893 15.4854C124.471 15.7716 131.898 15.7779 132.359 15.7534C134.368 15.6467 131.024 15.7083 130.852 15.6289C130.78 15.5953 130.816 15.1695 129.97 15.4458C129.719 15.5277 130.766 15.6356 130.141 15.6807C129.517 15.7259 129.764 15.6005 129.719 15.5918C129.563 15.5618 128.899 15.6083 128.813 15.5905C127.487 15.3207 127.609 14.913 129.366 15.5152C130.131 15.3791 128.375 15.1621 129.326 15.0697C130.482 14.9574 131.326 15.1516 131.472 15.1604C133.214 15.2639 131.205 14.9804 133.333 15.071C134.518 15.1214 131.56 15.2597 134.266 15.2411C136.531 15.2254 135.308 15.1267 135.472 14.9024C135.511 14.8499 136.752 14.7855 135.062 14.8086C135.015 14.867 134.924 14.9441 134.817 14.9979C134.403 14.9553 133.712 14.6628 133.492 14.6526C132.416 14.604 132.468 14.7558 131.834 14.577C132.287 14.7726 131.55 14.6547 131.273 14.696C130.246 14.8482 131.593 14.9048 129.288 14.7092C129.588 14.8009 129.86 14.8909 130.151 14.9822C129.874 14.9853 129.598 14.9886 129.321 14.9917C128.909 14.7898 127.44 14.8156 128.77 14.6123C127.17 14.5546 126.524 14.5986 126.173 14.7557C126.106 14.7857 125.866 14.7977 125.584 14.8006C125.637 14.8447 125.705 14.9812 125.661 14.9979C125.263 15.1451 124.646 14.8908 124.856 14.7938C124.659 14.7891 124.502 14.7837 124.447 14.7813C124.097 14.7663 124.783 14.6785 124.499 14.6484C124.406 14.6386 123.42 14.6577 123.401 14.622C123.282 14.3933 124.905 14.5583 121.646 14.4254C121.567 14.6336 123.081 14.5878 122.692 14.809C122.275 15.0466 121.424 14.7279 121.238 15.0194C121.169 14.9714 121.138 14.9315 121.079 14.8769C119.76 15.0039 119.743 14.7611 119.34 14.7075C118.558 14.6029 114.962 14.6186 118.191 14.8289C117.719 14.8499 117.237 14.8596 116.767 14.8782C116.66 14.4429 116.946 14.6162 114.683 14.5497C114.185 14.535 114.023 14.3436 113.534 14.5709C113.6 14.3479 112.127 14.4826 111.989 14.4556C111.107 14.2796 114.382 14.0346 114.802 14.4288C115.355 14.2753 115.353 14.4783 115.971 14.4514C116.862 14.4125 116.986 14.373 118.045 14.5228C119.087 14.3118 113.966 14.4299 117.07 14.15C120.176 13.87 138.257 13.7139 142.475 13.6719C150.117 13.5959 154.135 13.5463 160.999 13.5589C161.677 13.56 166.788 13.5397 165.726 13.7836C165.573 13.8186 163.375 13.9113 165.26 14.1027C164.877 13.9897 165.986 13.9163 166.079 13.9044C168.213 13.6343 166.977 13.5681 170.337 13.5653ZM180.296 15.7403C175.911 15.6846 179.133 15.8476 178.222 16.2158C178.785 16.2168 179.345 16.2178 179.908 16.2189C179.76 16.1958 179.614 16.1728 179.466 16.1497C179.466 16.1497 179.465 16.1497 179.464 16.1497C179.741 16.0132 180.02 15.8767 180.296 15.7403ZM251.973 15.9867C251.802 16.0352 251.633 16.0838 251.448 16.1312C250.869 16.1161 250.291 16.1014 249.712 16.0863C249.781 16.0534 249.848 16.0202 249.917 15.9873C250.603 15.9887 251.286 15.9902 251.973 15.9867ZM124.28 15.5387C123.46 15.4039 123.534 15.6443 122.444 15.5348C122.578 15.7122 122.726 15.8858 122.867 16.0614C123.696 16.0352 123.885 15.9677 124.785 16.0111C124.681 15.954 124.573 15.8967 124.471 15.8393C124.321 15.8516 124.161 15.8655 124.016 15.8763C123.785 15.7167 125.224 15.6929 124.283 15.5383C124.282 15.5384 124.281 15.5385 124.28 15.5387ZM115.875 15.6101C115.434 15.587 113.687 15.5001 113.448 15.5736C112.64 15.8228 117.57 15.6647 113.936 15.8862C113.953 15.9212 113.936 15.9554 113.936 15.99C114.599 16.0023 115.26 16.0128 115.928 16.0226C115.892 15.8847 115.916 15.7486 115.875 15.6101ZM164.437 15.7556C163.759 15.7364 160.528 15.8536 161.581 16.0114C161.891 16.0576 163.334 15.8319 163.882 15.8417C164.237 15.848 163.839 15.9718 164.54 15.9263C164.509 15.8717 164.49 15.8113 164.436 15.756C164.436 15.7559 164.437 15.7558 164.437 15.7556ZM165.709 15.0355C165.008 15.0575 164.297 15.0855 163.591 15.1089C164.107 15.2499 165.12 15.1593 165.179 15.3577C164.986 15.3728 164.795 15.3877 164.602 15.4028C164.455 15.3594 164.309 15.316 164.164 15.2726C163.558 15.3804 163.925 15.4339 162.797 15.4028C163.479 15.7027 163.606 15.8637 165.537 15.5603C165.172 15.723 165.516 16.2532 166.586 15.8743C166.786 15.8039 165.95 15.7569 165.94 15.7457C165.812 15.6065 166.276 15.5177 166.138 15.3861C166.076 15.3266 165.566 15.3275 165.489 15.245C165.454 15.2047 165.939 15.0897 165.709 15.0355ZM167.106 15.7415C166.889 15.8259 167.63 16.026 168.274 15.9854C169.278 15.9224 167.695 15.7321 167.106 15.7415ZM251.977 15.9865C251.976 15.9866 251.975 15.9867 251.973 15.9867C251.974 15.9865 251.975 15.9864 251.975 15.9862C251.976 15.9863 251.977 15.9864 251.977 15.9865ZM118.15 15.7077C117.63 15.7794 116.861 15.7689 116.918 15.8829C116.665 15.8605 116.409 15.8385 116.157 15.8161C116.159 15.8503 116.164 15.8847 116.166 15.9186C116.927 15.9399 117.685 15.9614 118.445 15.9831C118.35 15.8914 118.262 15.7993 118.15 15.7077ZM109.864 15.6278C108.908 15.6163 109.71 15.7714 109.5 15.8463C109.29 15.9212 108.439 15.8602 108.539 15.9677C109.101 15.9719 109.688 15.9761 110.258 15.9799C110.108 15.8631 110.003 15.744 109.862 15.6278C109.863 15.6278 109.864 15.6278 109.864 15.6278ZM198.191 15.8624C197.542 15.8288 197.807 15.7104 196.527 15.849C196.528 15.849 196.529 15.849 196.53 15.849C197.748 15.9459 199.316 16.0323 200.661 15.9386C199.838 15.8137 199.211 15.9149 198.191 15.8624ZM126.548 15.8878C126.822 15.7941 125.547 15.7158 125.265 15.8029C124.81 15.9439 126.131 16.0303 126.548 15.8878ZM224.384 15.0318C225.37 14.7431 223.501 14.4191 221.543 14.559C221.374 14.5713 222.638 14.6631 222.263 14.7194C222.226 14.725 221.532 14.7181 221.36 14.7583C221.189 14.7985 221.369 14.8919 221.088 14.9311C220.594 14.9996 219.478 14.8727 219.109 14.9626C219.06 14.9747 219.752 15.0996 219.795 15.1043C220.506 15.1799 221.191 15.0166 221.3 15.0155C221.865 15.0099 221.78 15.138 221.923 15.168C222.192 15.2246 222.667 15.1681 222.7 15.1723C223.558 15.2845 221.598 15.2524 221.334 15.2986C220.621 15.4232 221.281 15.539 219.571 15.6093C219.409 15.616 217.466 15.6084 219.915 15.7518C215.106 16.0506 222.331 15.9218 223.115 15.856C223.477 15.8255 222.929 15.7034 223.149 15.6485C223.649 15.5229 224.503 15.5008 224.426 15.3237C224.262 14.9514 223.141 15.1953 222.368 15.1327C222.449 15.0519 222.48 14.973 222.631 14.8939C222.399 15.0003 224.312 15.0535 224.384 15.0326C224.384 15.0323 224.384 15.0321 224.384 15.0318ZM212.211 15.4572C211.131 15.3448 211.207 15.5798 210.218 15.4455C209.345 15.6565 211.066 15.6423 211.267 15.6542C212.182 15.7074 212.161 15.9368 213.098 15.8662C212.776 15.7305 212.514 15.5933 212.211 15.4572ZM221.605 15.554C220.883 15.673 222.176 15.671 222.228 15.6937C222.799 15.9351 218.928 15.8882 221.605 15.554ZM160.23 15.2829C159.863 15.2748 160.096 15.3887 159.772 15.4224C159.448 15.4563 158.34 15.3588 158.367 15.4297C158.396 15.5007 160.427 15.685 158.388 15.7249C158.457 15.7647 158.434 15.7945 158.467 15.8305C159.028 15.8316 159.593 15.8333 160.153 15.8344C159.846 15.7196 159.531 15.5989 159.235 15.4879C159.55 15.3966 159.727 15.5138 159.743 15.5138C159.743 15.5136 159.743 15.5135 159.743 15.5134C160.33 15.5042 161.054 15.3008 160.23 15.2829ZM189.125 15.6405C189.235 15.3553 188.369 15.6738 188.014 15.7091C187.659 15.7443 187.171 15.6388 187.354 15.7615C187.929 15.8462 189.113 15.6723 189.125 15.6401C189.125 15.6402 189.125 15.6403 189.125 15.6405ZM206.343 15.4577C205.437 15.527 205.581 15.6011 204.474 15.5165C204.517 15.5854 204.559 15.6559 204.602 15.7238C205.482 15.7252 205.42 15.525 206.438 15.6055C206.605 15.6188 206.248 15.7786 207.001 15.7273C206.782 15.6419 206.56 15.5472 206.343 15.4577ZM201.856 15.7133C202.895 15.7028 203.72 15.145 201.805 15.3966C201.522 15.4342 201.074 15.7214 201.856 15.7133ZM169.819 15.2688C168.051 15.2527 170.06 15.3427 170.52 15.4284C166.403 15.497 170.985 15.405 171.395 15.6901C171.898 15.6089 172.84 15.4232 171.794 15.3735C171.358 15.3528 171.517 15.4377 171.491 15.4374C170.687 15.4164 170.785 15.2775 169.819 15.2688ZM214.088 15.4434C214.021 15.4476 214.125 15.5439 213.913 15.5632C213.701 15.5823 213.22 15.5149 213.172 15.574C213.125 15.6335 214.089 15.6796 214.385 15.6363C214.681 15.5925 214.691 15.4064 214.088 15.4434ZM207.301 15.2061C206.418 15.2754 207.863 15.6302 208.055 15.6286C209.743 15.61 207.251 15.3185 207.301 15.2061ZM173.926 14.6662C171.794 14.8464 173.353 15.1596 174.688 15.3471C174.865 15.309 175.046 15.2708 175.22 15.2331C174.418 15.4647 173.015 15.6937 176.138 15.4918C174.428 15.4373 175.86 15.375 175.871 15.362C176.059 14.9364 173.527 15.134 173.927 14.6662C173.927 14.6662 173.926 14.6662 173.926 14.6662ZM216.961 15.5449C217.889 15.5435 220.301 15.47 219.176 15.2845C218.436 15.3713 217.7 15.4581 216.961 15.5449ZM139.028 14.6911C138.269 14.585 137.571 14.5868 136.636 14.5938C137.477 14.7481 136.924 14.7659 136.641 14.8037C136.21 14.8606 137.253 14.8559 137.256 14.8663C137.237 15.0129 136.572 15.0357 138.085 15.0322C137.711 15.0833 137.342 15.1347 136.968 15.1854C138.121 15.1921 138.393 15.2878 139.125 15.4046C138.414 15.1191 139.35 15.2979 140.199 15.1558C140.622 15.0846 139.413 14.7453 139.025 14.6911C139.026 14.6911 139.027 14.6911 139.028 14.6911ZM171.723 14.6088C171.503 14.6603 171.302 14.7299 171.09 14.7887C170.859 14.7943 170.627 14.7992 170.396 14.8048C170.367 14.7593 170.344 14.7117 170.31 14.668C170.005 14.6547 170.124 14.7181 170.034 14.724C170.034 14.7238 170.034 14.7235 170.034 14.7233C168.735 14.8072 168.203 14.7978 167.185 14.6572C167.185 14.7965 167.185 14.9359 167.185 15.0752C167.414 15.0619 167.645 15.049 167.873 15.036C167.995 14.9612 168.117 14.8862 168.239 14.8114C168.503 14.8527 168.766 14.8937 169.03 14.935C169.242 14.908 169.497 14.8797 169.681 14.8535C170.737 15.2429 168.336 14.9784 168.315 15.14C168.301 15.244 170.718 15.2394 171.066 15.1677C171.116 15.1572 170.594 14.8672 171.478 15.0183C171.617 15.0421 171.665 15.6695 172.619 15.1615C172.755 15.0894 172.28 14.6996 171.723 14.6088ZM162.945 14.4065C164.304 14.8079 159.288 14.3835 161.452 14.7138C160.835 14.8982 160.95 14.8958 161.572 15.0595C161.626 15.0741 161.197 15.1248 161.233 15.1312C161.815 15.2215 162.516 15.1737 162.521 15.3378C162.678 15.329 162.826 15.3213 162.983 15.3125C162.328 15.1579 163.37 15.0539 163.773 14.9234C163.956 14.8643 163.534 14.8461 163.689 14.7943C163.746 14.7754 164.335 14.8132 164.359 14.759C164.409 14.6365 164.039 14.471 163.412 14.3807C163.412 14.3806 163.412 14.3804 163.412 14.3803C163.255 14.3884 163.102 14.3981 162.945 14.4065ZM191.992 14.7399C192.223 14.9618 193.15 15.0253 191.369 15.1338C191.457 15.1775 191.548 15.2208 191.636 15.2645C191.937 15.2607 192.228 15.2569 192.533 15.2534C193.448 14.5997 195.119 15.3374 194.049 14.8738C193.932 14.8234 193.22 14.8797 193.923 14.7429C193.922 14.7428 193.921 14.7426 193.92 14.7425C192.938 14.7845 192.814 14.8631 191.992 14.7399ZM185.418 14.8947C183.153 15.3615 188.548 15.1552 187.647 15.0313C187.566 15.0201 185.242 15.1204 185.418 14.8947ZM203.594 14.4884C202.579 14.4803 202.512 14.7322 202.614 14.8229C202.717 14.9139 203.42 14.8219 203.51 14.8363C203.806 14.8835 203.179 14.9147 203.563 14.9794C203.69 15.0005 205.459 15.0903 205.54 15.0794C205.99 15.0192 205.332 14.8113 205.461 14.7876C205.88 14.7096 206.45 14.8177 206.572 14.7072C206.834 14.4714 205.772 14.7189 205.592 14.7229C205.051 14.7341 205.098 14.6014 204.693 14.5748C204.288 14.5482 204.023 14.5937 203.666 14.5843C203.547 14.5812 203.646 14.4892 203.594 14.4884ZM200.236 15.0203C201.297 14.8296 198.715 14.6222 198.408 14.6669C197.507 14.7995 199.729 15.1113 200.236 15.0203ZM166.348 15.0122C167.318 14.874 165.058 14.7621 164.412 14.8178C164.531 14.8752 166.014 15.0598 166.348 15.0122ZM174.517 14.6669C173.625 14.7099 174.808 15.0213 175.552 15.0164C175.988 14.8118 175.577 14.8523 175.091 14.844C174.605 14.8355 175.212 14.6334 174.517 14.6669ZM214.609 14.716C214.417 14.7127 211.316 14.8819 213.098 14.9522C213.234 14.9574 215.404 14.9276 215.569 14.8961C215.9 14.8324 215.105 14.7251 214.609 14.716ZM178.794 14.3646C178.322 14.5416 177.858 14.5392 178.291 14.7471C178.292 14.7471 178.293 14.7471 178.293 14.7471C177.099 14.8107 177.046 14.3855 176.788 14.3946C175.888 14.4265 176.741 14.7292 176.176 14.8286C177.49 14.7351 177.113 14.9392 178.112 14.9522C178.336 14.955 179.233 14.8331 179.364 14.7572C179.495 14.6812 179.037 14.4535 178.794 14.3646ZM218.99 14.6718C217.943 14.604 216.985 14.8909 218.436 14.9364C219.145 14.9588 219.629 14.7131 218.99 14.6718ZM114.366 14.6001C114.525 14.6753 114.69 14.7502 114.862 14.8247C114.475 14.8429 114.089 14.8615 113.703 14.88C114.008 14.8562 114.314 14.8328 114.621 14.8093C113.896 14.7831 113.565 14.6462 114.364 14.6001C114.364 14.6001 114.365 14.6001 114.366 14.6001ZM88.5601 14.5427C88.2359 14.4703 87.5969 14.6946 87.678 14.7121C88.2882 14.8425 89.0102 14.6432 88.5601 14.5427ZM164.914 14.3309C163.709 14.2995 164.538 14.6642 165.277 14.6892C164.825 14.6195 165.598 14.3487 164.914 14.3309ZM97.6353 14.5605C97.7435 14.5919 97.8526 14.6232 97.9739 14.6546C97.5925 14.611 97.5265 14.5817 97.6353 14.5605ZM214.116 14.3939C213.932 14.3659 212.571 14.3428 212.387 14.3774C212.006 14.4502 213.067 14.6515 213.692 14.5896C213.761 14.583 214.299 14.4219 214.113 14.3939C214.114 14.3939 214.115 14.3939 214.116 14.3939ZM112.735 14.4603C112.737 14.4638 112.736 14.4672 112.732 14.4702C112.733 14.467 112.733 14.4636 112.735 14.4603ZM61.4662 14.0897C61.4736 14.0954 61.4776 14.101 61.4767 14.1064C61.4739 14.1011 61.4681 14.0955 61.4662 14.0897ZM204.517 14.0842C204.064 13.7367 203.019 13.9216 203.844 14.0934C203.89 14.1024 204.407 14.0836 204.517 14.0842ZM10.7364 12.8442C10.8475 12.9013 11.2291 12.997 11.6364 13.0784C12.1604 13.191 12.5893 13.3449 12.9452 13.4625C13.0263 13.4962 13.39 13.5613 13.7152 13.6184C13.8534 13.6432 13.8329 13.7421 13.8709 13.7603C13.9412 13.7938 14.0017 13.7563 14.0587 13.7336C14.0848 13.7219 14.1087 13.7138 14.1328 13.7197C14.4728 13.8061 14.7678 13.8428 15.1306 13.8961C15.5016 13.9495 15.3147 14.2555 15.4448 14.3363C15.6995 14.4933 15.4916 14.0786 15.595 13.9899C15.8913 14.0227 16.1913 14.0731 16.4945 14.1233C16.4176 14.16 16.3471 14.1961 16.2697 14.2299C16.4012 14.2409 16.589 14.3072 16.3661 14.4099C16.4133 14.4402 16.4602 14.4754 16.5091 14.505C16.5245 14.3566 16.7585 14.3486 16.7815 14.2607C16.8041 14.1729 16.6727 14.191 16.6742 14.1833C16.6778 14.1452 16.7431 14.1395 16.833 14.1489C17.0131 14.1666 17.254 14.2416 17.2795 14.2504C17.3827 14.2866 17.2854 14.4677 17.3741 14.4589C17.5268 14.444 17.4396 14.0655 17.6265 14.5713C17.7138 14.4124 17.7181 14.4968 17.8202 14.5118C17.8338 14.5137 17.8267 14.4196 17.8328 14.4173C17.9907 14.3535 17.8647 14.5234 17.8652 14.5329C17.8737 14.6938 18.0425 14.6286 18.0776 14.6453C18.5104 14.8527 18.8291 14.9932 19.2929 15.0499C19.301 15.0509 19.3104 15.0514 19.3211 15.0515C19.3314 15.0507 19.3613 15.0563 19.3716 15.0573C19.4893 15.0805 19.7547 15.0761 19.8371 15.1151C19.9254 15.1574 19.8559 15.2629 19.8964 15.3259C20.0205 15.0641 20.0945 15.0455 20.2453 15.2513C20.3383 15.0591 20.3063 15.22 20.441 15.1966C20.4866 15.19 20.5398 15.1512 20.632 15.1312L20.6011 15.126C20.6526 15.0727 20.7351 15.0296 20.8095 15.1574C20.6829 15.1381 20.6915 15.2351 20.5805 15.2853L20.5996 15.2885C20.5943 15.2891 20.5889 15.2897 20.5833 15.2903C20.5008 15.2941 20 15.2346 20.0027 15.4417C20.0065 15.552 20.1961 15.479 20.1996 15.4993C20.2237 15.6199 20.105 15.748 20.0247 15.6854C20.0496 15.6654 20.0796 15.6457 20.1062 15.6259C19.9328 15.4535 19.9814 16.0248 19.9086 15.5201C19.8998 15.4581 19.9165 15.3977 19.8974 15.3302C19.8871 15.3551 19.9128 15.4253 19.8797 15.4318C19.845 15.438 19.8056 15.3059 19.779 15.407C19.7393 15.5541 19.8838 15.5179 19.8919 15.528C19.8922 15.5271 19.8924 15.5262 19.8927 15.5253C19.9696 15.6193 19.7813 15.5981 19.7694 15.6103C19.6961 15.6935 19.7229 15.7721 19.6213 15.8334C19.5634 15.8683 19.4397 15.8187 19.3904 15.8236C19.3405 15.8289 19.4002 15.9135 19.3656 15.9225C19.3303 15.9313 19.3022 15.8703 19.2616 15.8803C19.2444 15.8849 19.2294 15.9635 19.2211 15.9647C19.2053 15.9671 19.195 15.9642 19.1883 15.9578L19.2975 15.9702C19.2634 15.9467 19.2917 15.8365 19.2306 15.8432C19.1827 15.8487 19.0172 15.9993 19.1268 16.0485C19.0734 16.0632 19.0201 16.0734 18.9671 16.0845C18.9998 16.1092 19.0339 16.1264 19.0661 16.1553C18.9668 16.1144 18.9175 16.2498 18.8546 16.2582C18.7911 16.2664 18.7398 16.1005 18.6687 16.1784C18.5154 16.3441 18.8837 16.2769 18.9279 16.3085C18.9453 16.321 18.8735 16.4476 18.8631 16.4509C18.8156 16.4656 18.7643 16.372 18.7278 16.375C18.5992 16.3864 18.5167 16.5052 18.3935 16.5256C17.9751 16.5951 17.455 16.6415 17.0776 16.6563C16.9378 16.6619 16.8601 16.5237 16.801 16.5265C16.799 16.5267 16.797 16.5268 16.795 16.5269C16.6449 16.5367 16.6249 16.6519 16.4919 16.6558C16.2913 16.6621 16.0122 16.5527 15.8438 16.5263C15.727 16.5082 15.6183 16.6205 15.5882 16.6225C15.1649 16.6526 14.6326 16.6306 14.237 16.595C14.0528 16.5787 13.9818 16.4394 13.9451 16.4391C13.7883 16.4366 13.8144 16.5494 13.6962 16.525C13.6953 16.5248 13.6945 16.5246 13.6936 16.5244C13.635 16.5108 13.6369 16.4041 13.6294 16.3989C13.5624 16.3551 13.5307 16.4909 13.4734 16.4883C13.1391 16.4709 12.8205 16.3498 12.3794 16.238C12.3465 16.2293 12.364 16.1702 12.3416 16.168C12.2437 16.1588 12.2652 16.2649 12.1556 16.2415C12.1222 16.2341 12.0876 16.2251 12.0522 16.2147C11.9229 16.1789 11.8046 16.1252 11.6886 16.076C11.6752 16.0703 11.6936 15.9932 11.6624 15.983C11.6312 15.9728 11.5845 16.0363 11.5385 16.0171C11.4187 15.9674 11.3287 15.8463 11.2125 15.81C11.1932 15.804 11.1456 15.8898 11.1186 15.882C11.088 15.8731 11.0555 15.8531 11.0236 15.8309C10.9391 15.7849 10.8498 15.7274 10.7825 15.7097C10.4356 15.6162 10.0751 15.5904 9.63004 15.3989C9.52414 15.3521 9.46596 15.2226 9.4096 15.1886C9.40487 15.1857 9.40038 15.1832 9.39613 15.1808C9.3507 15.1574 9.34813 15.2441 9.29801 15.2174C9.05044 15.083 8.83654 15.0205 8.30156 14.8237C7.99487 14.7025 7.70208 14.5781 7.40186 14.4506C7.12179 14.3316 6.7436 14.2506 6.47024 14.0785C6.35682 14.0065 6.39018 13.893 6.30645 13.8443C6.15417 13.7537 6.05254 13.8673 5.8572 13.7536C5.76795 13.6996 5.6956 13.5933 5.60288 13.4603C5.57201 13.3936 5.54035 13.3299 5.49016 13.2884C5.37624 13.1936 5.22566 13.2473 5.08952 13.1321C4.97747 13.037 4.88857 12.8423 4.78114 12.7314C4.54307 12.4868 4.33733 12.2441 4.15397 12.0246C3.79134 11.5647 3.58463 11.2036 3.43045 11.0119C3.10034 10.5799 2.93688 10.1598 2.82576 9.86037C2.74167 9.64113 2.68289 9.42856 2.6409 9.23607C2.5808 8.94384 2.49352 8.62612 2.52418 8.64204C2.41513 8.3662 2.3742 8.13254 2.3684 7.91551C2.36789 7.86373 2.52009 7.89829 2.45176 7.75574C2.41575 7.68088 2.27154 7.59508 2.22759 7.42893C2.21334 7.37525 2.20045 7.32282 2.18938 7.27616C2.09238 6.86671 2.07195 6.48327 2.04396 6.21893C2.03045 5.99625 1.89922 5.5592 1.87146 5.03282C1.86548 4.80555 1.84692 4.59646 1.80218 4.40113C1.74316 4.14259 1.62766 3.90549 1.48707 3.68256C0.833335 2.55096 0.315982 1.26515 1.29052 0.137911C1.35132 0.064029 1.69917 0.0496717 1.80201 0.0735548C1.73745 0.118673 1.65939 0.162643 1.58596 0.209804C2.02066 0.191897 1.90836 0.203261 1.89428 0.375867C1.88577 0.48435 2.05664 0.373723 2.11682 0.42204C2.19411 0.482468 2.45627 0.789214 2.16314 0.766819C2.21542 0.780267 2.26538 0.792171 2.31649 0.80473C2.39653 1.04213 2.50435 1.26545 2.62584 1.48693C2.64701 1.5251 2.73566 1.51003 2.75726 1.55012C2.81525 1.65326 2.77344 1.75292 2.80438 1.86377C2.8211 1.9231 2.92481 1.91226 2.93456 1.99182C2.94449 2.07092 2.80712 2.10063 2.97992 2.17314C3.13539 2.06619 3.08161 2.39617 3.1235 2.5011C3.12903 2.51672 3.31681 2.6 3.31978 2.6726C3.32281 2.74541 3.25869 2.88065 3.34806 2.97287C3.38092 3.00714 3.46495 3.00958 3.51253 3.0357C3.52651 3.04455 3.5375 3.05528 3.54345 3.06907C3.56238 3.11309 3.47419 3.19942 3.48614 3.25727C3.49846 3.31504 3.6187 3.41661 3.62594 3.43987C3.65286 3.52169 3.55504 3.44889 3.56555 3.50647C3.6178 3.78451 3.63479 4.10993 3.72048 4.36912C3.73102 4.40115 3.81494 4.34382 3.81849 4.3477C3.9575 4.55846 3.82478 4.45315 3.7515 4.52258C3.7078 4.56407 3.72428 4.73653 3.77772 4.85679C3.80821 4.90064 3.85726 4.93084 3.91687 4.92206C3.72264 4.95941 3.8817 4.99382 3.89052 5.00663C3.92494 5.06136 3.75582 5.08777 3.82331 5.1411C3.84806 5.16044 3.94823 5.08572 3.95136 5.11194C3.95892 5.17574 3.79783 5.28792 3.81085 5.39783C3.81397 5.42459 3.89556 5.40911 3.90675 5.45719C3.91785 5.50208 3.88115 5.75083 4.02124 5.60245C3.98605 5.66504 3.97382 5.7068 3.97445 5.74265C3.97469 5.80309 4.01585 5.84444 4.03452 5.94384C4.04168 5.98338 3.9215 6.05942 3.97723 6.13023C3.99611 6.15418 4.12203 6.12941 4.13062 6.16913C4.15052 6.25955 4.03475 6.36588 4.04977 6.4734C4.06649 6.59443 4.12134 6.70707 4.16639 6.81858C4.19924 6.90604 4.22438 6.98782 4.2303 7.07078C4.23427 7.12713 4.10543 7.14384 4.12226 7.22272C4.12514 7.23474 4.25651 7.29888 4.26028 7.35089C4.2619 7.38339 4.23293 7.55717 4.23778 7.58747C4.245 7.639 4.36514 7.60332 4.35119 7.63542C4.31175 7.72662 4.12243 7.75012 4.38575 7.72588C4.35085 7.75002 4.32956 7.77069 4.31282 7.78979C4.28711 7.8624 4.27993 7.92226 4.17557 7.98484C4.36987 7.96499 4.22358 8.09037 4.30955 8.15373C4.39592 8.21813 4.76471 8.18564 4.39371 8.3123C4.45049 8.3374 4.57055 8.46606 4.58287 8.48738C4.61918 8.55374 4.50425 8.54582 4.53361 8.59465C4.53868 8.60315 4.60691 8.57321 4.61714 8.63307C4.6227 8.67611 4.70619 8.93517 4.70407 8.95046C4.66355 9.16067 4.59883 8.88707 4.51112 8.87001C4.52863 8.8562 4.54627 8.84246 4.5635 8.82843C4.57004 8.737 4.42583 8.83426 4.40192 8.88505C4.37796 8.93598 4.473 8.97993 4.43329 9.02945C4.4134 9.05446 4.22232 9.11741 4.22669 9.0594C4.18832 9.13369 4.10025 9.08378 4.05354 9.12489C4.02316 9.15168 4.0375 9.25334 4.07929 9.32218C4.10739 9.36853 4.14654 9.39983 4.18823 9.3823C4.17844 9.35381 4.16428 9.32229 4.15129 9.29126C4.14311 9.27174 4.13568 9.2526 4.13008 9.23427C4.20556 9.16909 4.40912 9.12349 4.57167 9.11078C4.74385 9.10608 4.87516 9.14724 4.78782 9.27746C4.66561 9.46354 4.44454 9.35393 4.71145 9.53731C4.69902 9.49608 4.69925 9.45563 4.68968 9.41667C4.818 9.35114 4.7022 9.47633 4.75785 9.48469C4.78432 9.48767 4.83506 9.36043 4.90062 9.41605C4.74775 9.56978 4.95647 9.52306 5.00979 9.605C4.96386 9.60072 4.91743 9.59408 4.87039 9.58558C4.83891 9.82898 4.56228 9.45181 4.69049 9.83432C4.65919 9.7976 4.63619 9.7554 4.60339 9.71743C4.54945 9.77584 4.33603 9.84895 4.30647 9.89214C4.23023 10.0082 4.34481 10.0546 4.38028 10.1251C4.39629 10.1565 4.33483 10.1728 4.33615 10.1754C4.359 10.2196 4.42423 10.1597 4.45337 10.1899C4.45912 10.1958 4.46453 10.2049 4.46981 10.2162C4.49398 10.2711 4.50226 10.3859 4.51922 10.3963C4.57209 10.429 4.66027 10.2519 4.67345 10.2485C4.76405 10.231 4.75021 10.3346 4.83888 10.2698C4.78085 10.2303 4.7154 10.1456 4.66772 10.0647C4.5871 9.91883 4.60211 9.79948 4.8373 9.93488C4.84507 9.93981 4.85306 9.94503 4.86126 9.95056C4.86496 9.93542 4.86933 9.92073 4.87432 9.90654C4.93532 9.78381 5.05722 9.70785 5.14812 9.69694C5.1952 9.70501 5.24238 9.73163 5.2821 9.77824C5.40084 9.91939 5.25292 9.87895 5.21552 10.0152C5.21248 10.0334 5.29147 10.2496 5.36075 10.2176C5.20811 10.3046 5.11416 10.4467 4.93614 10.504C4.91008 10.5125 4.87201 10.4334 4.76577 10.5375C4.71238 10.5897 4.60091 10.711 4.51859 10.755C4.58254 10.735 4.65391 10.7116 4.72063 10.6909C4.80547 10.7903 4.75609 10.8433 4.69218 10.9685C4.73304 10.9387 4.87712 10.7701 4.87621 10.8896C4.87576 10.8961 4.81367 10.9402 4.80967 11.0043C4.80238 11.1335 4.79646 11.1671 4.56331 11.2173C4.74723 11.3142 4.66975 11.4492 4.74422 11.5887C4.7593 11.6183 4.78267 11.647 4.82053 11.6738C4.92997 11.5632 4.9512 11.5063 4.92212 11.4574C4.89331 11.4101 4.82652 11.3667 4.74908 11.2971C4.80056 11.2513 4.85435 11.2102 4.90656 11.1643C4.93115 11.4297 4.89596 11.3938 4.99817 11.4012C5.01884 11.4018 5.04548 11.4041 5.07982 11.4107C5.12888 11.4203 5.21882 11.6014 5.33376 11.4325C5.36079 11.3929 5.28347 11.2976 5.3495 11.2663C5.36206 11.2605 5.47849 11.3587 5.47161 11.3801C5.38976 11.6495 5.07906 11.5091 5.42995 11.8251C5.43988 11.8337 5.50803 11.7852 5.53264 11.7973C5.57881 11.8202 5.50403 11.8816 5.54805 11.9002C5.59245 11.9191 5.72866 11.8794 5.67812 12.0054C5.58986 12.239 5.30785 12.1044 5.32188 11.9331C5.05047 12.0703 5.66881 12.7848 5.73944 12.7969C5.99476 12.895 5.65026 12.648 5.69409 12.5754C5.71162 12.545 6.0213 12.2536 5.75149 12.3706C5.67037 12.404 5.68159 12.5726 5.59522 12.5472C5.50863 12.5212 5.62151 12.458 5.62402 12.448C5.6328 12.4136 5.54321 12.3846 5.54926 12.3646C5.64382 12.0647 5.95635 11.8049 5.65068 12.3641C5.81224 12.3386 5.83221 12.0397 5.9752 12.0589C6.14586 12.0786 6.0739 12.2809 6.08028 12.2998C6.1511 12.5152 6.18389 12.1518 6.29599 12.3851C6.36151 12.5154 6.0154 12.3811 6.25925 12.583C6.29045 12.6083 6.31551 12.6251 6.33727 12.6361C6.47114 12.7034 6.44899 12.5539 6.58513 12.4194C6.62328 12.3827 6.75249 12.4057 6.6165 12.3228C6.61638 12.3227 6.61626 12.3226 6.61615 12.3225C6.57333 12.3626 6.51448 12.4133 6.46943 12.4453C6.46246 12.3819 6.60464 12.1151 6.59529 12.0922C6.54565 11.9784 6.44333 12.0899 6.52097 11.9155C6.41761 12.0883 6.44446 11.9492 6.39453 11.9572C6.20926 11.9846 6.26575 12.1276 6.23775 11.8118C6.1921 11.8976 6.14681 11.981 6.10298 12.0675C6.07934 12.0471 6.05562 12.0265 6.03224 12.0057C6.14858 11.8345 6.02581 11.7348 6.27214 11.7056C6.20225 11.5412 6.12704 11.5171 5.98102 11.5875C5.95329 11.601 5.92717 11.5882 5.9053 11.5658C5.87469 11.5982 5.77371 11.6903 5.75756 11.697C5.61436 11.7544 5.76938 11.5406 5.86025 11.499C5.85029 11.479 5.84387 11.462 5.84194 11.4558C5.82993 11.4161 5.94556 11.4211 5.94991 11.378C5.95123 11.3641 5.86988 11.2906 5.8969 11.267C6.07052 11.1168 6.04637 11.3592 5.93711 10.9946C5.7651 11.1126 5.90275 11.2188 5.70071 11.3182C5.48287 11.4244 5.67993 11.1559 5.43396 11.3136C5.46768 11.2787 5.49766 11.252 5.53738 11.214C5.39088 11.1803 5.47101 11.0862 5.52343 11.0133C5.53974 10.9918 5.55362 10.9723 5.558 10.9571C5.59591 10.8358 5.36976 10.5173 5.38832 10.9268C5.34194 10.896 5.30443 10.8568 5.26039 10.8229C5.61923 10.5757 5.49168 10.7004 5.41324 10.4505C5.39582 10.395 5.54817 10.2775 5.32557 10.3506C5.51902 10.239 5.31209 10.1639 5.32533 10.1351C5.41594 9.94936 5.83556 10.153 5.52278 10.3977C5.68564 10.3684 5.51364 10.4763 5.57256 10.519C5.65743 10.5796 5.69627 10.5677 5.63283 10.7419C5.8667 10.7156 5.47791 10.3334 5.88857 10.4532C5.95301 10.4701 6.03572 10.5206 6.12126 10.5719C6.48016 10.8531 6.91116 11.2588 7.32197 11.531C7.37101 11.532 7.6978 11.6917 7.80114 11.726C8.37561 11.9458 8.7901 12.0652 9.2615 12.2367C9.33406 12.2622 9.43113 12.2939 9.57011 12.3408C9.61988 12.3468 10.3666 12.6125 10.117 12.7799C10.0787 12.7998 9.75403 12.7707 9.93053 13.0476C9.92274 12.9219 10.0989 12.9161 10.1168 12.9117C10.474 12.8118 10.4117 12.6905 10.7181 12.8384C10.7214 12.838 10.7267 12.8398 10.7364 12.8442ZM11.0134 15.1846C10.5196 15.012 10.8545 15.2579 10.6615 15.5906C10.7298 15.6083 10.7965 15.6249 10.8622 15.641C10.85 15.6145 10.838 15.5882 10.8258 15.5616C10.8257 15.5616 10.8256 15.5616 10.8256 15.5616C10.889 15.4362 10.9516 15.3105 11.0134 15.1846ZM19.207 16.2853C19.1863 16.3333 19.1655 16.3813 19.1428 16.4281C19.0768 16.4113 19.0107 16.3946 18.9448 16.3777C18.9537 16.345 18.9626 16.312 18.9713 16.2793C19.0494 16.283 19.1281 16.2867 19.207 16.2853ZM5.23469 11.9087C5.28114 11.7492 5.09597 11.903 5.10523 11.7342C4.97327 11.8538 4.84577 11.9729 4.71647 12.093C4.79918 12.1579 4.8663 12.1347 4.90225 12.25C4.93869 12.2042 4.9754 12.1582 5.01265 12.1127C4.9916 12.1058 4.96855 12.0989 4.94904 12.0916C5.05768 11.9717 5.1838 12.0935 5.23519 11.9087C5.23502 11.9087 5.23486 11.9087 5.23469 11.9087ZM4.58849 11.1308C4.57925 11.0734 4.54737 10.8584 4.47139 10.8758C4.2105 10.9286 4.64452 11.3235 4.23558 11.0881C4.20694 11.1082 4.17693 11.1248 4.1476 11.1432C4.17658 11.2125 4.20828 11.2833 4.24352 11.3571C4.3576 11.2796 4.47406 11.2091 4.58849 11.1308ZM9.22623 14.546C9.17834 14.5036 8.82204 14.51 8.87732 14.6943C8.89475 14.7483 9.10145 14.5799 9.14663 14.6078C9.17563 14.6255 9.09769 14.7281 9.17313 14.7084C9.1904 14.6566 9.21075 14.5996 9.22593 14.5462C9.22603 14.5461 9.22613 14.546 9.22623 14.546ZM9.62058 13.9292C9.53869 13.918 9.45368 13.9147 9.37143 13.9097C9.37696 14.0613 9.51204 14.0177 9.44247 14.2039C9.41791 14.2101 9.39411 14.2166 9.36978 14.2232C9.37139 14.1772 9.37261 14.1312 9.37337 14.085C9.27422 14.1632 9.29435 14.2269 9.1914 14.1577C9.16316 14.4663 9.10942 14.6141 9.39801 14.4048C9.30381 14.542 9.12366 15.0399 9.36088 14.7317C9.40713 14.6754 9.35677 14.6009 9.36013 14.5904C9.40436 14.4578 9.48179 14.3948 9.5229 14.2692C9.54137 14.2122 9.4918 14.1917 9.51622 14.1124C9.52806 14.0736 9.62278 13.9892 9.62058 13.9292ZM9.46006 14.6316C9.40676 14.6996 9.37785 14.9073 9.44408 14.8964C9.55188 14.8823 9.51622 14.6472 9.46006 14.6316ZM19.2075 16.2851C19.2073 16.2852 19.2072 16.2853 19.207 16.2853C19.2071 16.2851 19.2072 16.285 19.2073 16.2848C19.2073 16.2849 19.2074 16.285 19.2075 16.2851ZM4.65942 11.4176C4.56229 11.4026 4.51876 11.3164 4.4271 11.3845C4.42865 11.3458 4.43024 11.3075 4.43268 11.2697C4.40394 11.2883 4.37529 11.3073 4.34685 11.3258C4.37875 11.4154 4.41346 11.5081 4.45432 11.6054C4.52243 11.5427 4.59167 11.481 4.65942 11.4176ZM4.21822 10.5879C4.1732 10.5043 4.09243 10.6586 4.01959 10.6853C3.94735 10.7125 3.95232 10.6172 3.87189 10.6892C3.89657 10.7287 3.92341 10.7735 3.95037 10.8196C4.0388 10.7419 4.1309 10.6658 4.21811 10.5877C4.21814 10.5878 4.21818 10.5878 4.21822 10.5879ZM13.013 15.836C12.9384 15.7908 12.9916 15.6801 12.8097 15.7907C12.8098 15.7907 12.8099 15.7907 12.8101 15.7907C12.9477 15.9125 13.1278 16.0243 13.2952 15.9511C13.2158 15.815 13.1291 15.9058 13.013 15.836ZM5.13853 12.3451C5.23198 12.3109 5.19131 12.1392 5.10227 12.1668C4.95617 12.2103 4.99436 12.3954 5.13853 12.3451ZM16.0967 15.2394C16.2151 14.953 16.009 14.625 15.7861 14.7595C15.7663 14.7713 15.9072 14.8665 15.8635 14.9218C15.8587 14.9272 15.7807 14.9185 15.7609 14.9581C15.74 14.9979 15.7584 15.0918 15.725 15.1301C15.6671 15.1972 15.5443 15.0669 15.4999 15.1555C15.4946 15.1674 15.5685 15.2945 15.5735 15.2994C15.6544 15.3773 15.7337 15.2159 15.7475 15.2151C15.8113 15.2111 15.7984 15.3389 15.8139 15.3693C15.8431 15.4267 15.8997 15.3714 15.9027 15.3756C15.9974 15.4901 15.7744 15.4529 15.7443 15.4982C15.6582 15.6206 15.7329 15.7386 15.5339 15.8035C15.5163 15.8096 15.291 15.7955 15.5693 15.947C15.0062 16.2294 15.8446 16.1253 15.9342 16.0602C15.9765 16.0307 15.9163 15.9073 15.9427 15.8529C16.0042 15.7287 16.1001 15.7085 16.0956 15.5313C16.0849 15.1587 15.9515 15.3999 15.8659 15.3352C15.8771 15.2546 15.8831 15.1759 15.9013 15.0972C15.8718 15.203 16.0886 15.261 16.0967 15.2401C16.0967 15.2399 16.0967 15.2396 16.0967 15.2394ZM14.6894 15.6165C14.571 15.4965 14.5631 15.7315 14.4567 15.5887C14.3362 15.7908 14.543 15.793 14.5654 15.806C14.6702 15.8662 14.6547 16.0951 14.7703 16.0309C14.7402 15.8933 14.7157 15.7545 14.6894 15.6165ZM15.7687 15.7543C15.6846 15.8713 15.83 15.8729 15.8365 15.8957C15.896 16.1387 15.4527 16.0806 15.7687 15.7543ZM8.95821 13.9549C8.92054 13.9343 8.91118 14.051 8.86497 14.0714C8.81869 14.0924 8.72373 13.9574 8.70356 14.0251C8.6821 14.0933 8.8633 14.3485 8.60903 14.3047C8.60432 14.3453 8.59177 14.3724 8.58407 14.4079C8.65261 14.4327 8.71865 14.456 8.78071 14.4771C8.78167 14.3569 8.78297 14.2303 8.78429 14.1139C8.84852 14.039 8.83157 14.1566 8.83355 14.1572C8.83359 14.1571 8.83362 14.157 8.83366 14.1569C8.90226 14.1695 9.04197 14.0006 8.95821 13.9549ZM11.9463 15.3425C12.0472 15.0754 11.8554 15.3476 11.8079 15.3695C11.7601 15.3909 11.7418 15.2743 11.7234 15.3973C11.7562 15.4965 11.9346 15.3721 11.9464 15.3421C11.9464 15.3423 11.9464 15.3424 11.9463 15.3425ZM14.0008 15.5555C13.9009 15.6048 13.8944 15.6693 13.8143 15.6153C13.8039 15.6081 13.7923 15.5987 13.7789 15.5868C13.7749 15.6558 13.7706 15.7263 13.7667 15.7942C13.7755 15.7955 13.7836 15.795 13.7912 15.7931C13.8718 15.7749 13.8947 15.6179 13.9944 15.7036C14.0126 15.7191 13.9512 15.873 14.047 15.8323C14.0305 15.7446 14.0154 15.6475 14.0008 15.5555ZM13.4606 15.7451C13.5797 15.7494 13.7417 15.2075 13.4943 15.4301C13.4576 15.4633 13.3705 15.7419 13.4606 15.7451ZM9.92965 14.3448C9.91078 14.3331 9.89535 14.3239 9.88336 14.3175C9.83851 14.2943 9.84293 14.3191 9.859 14.3607C9.88393 14.4104 9.93151 14.4804 9.94069 14.5289C9.87783 14.508 9.82981 14.4887 9.79492 14.4742C9.70432 14.442 9.73236 14.4564 9.77737 14.5053C9.85383 14.5768 9.97067 14.6845 9.94488 14.8175C10.0452 14.772 10.221 14.64 10.1155 14.5455C10.0718 14.5054 10.0579 14.5912 10.0549 14.5897C9.96554 14.5281 10.0348 14.4082 9.92965 14.3448ZM14.9082 15.6146C14.9001 15.6184 14.9078 15.7152 14.8819 15.7332C14.8561 15.7511 14.8037 15.6809 14.7948 15.7395C14.7861 15.7987 14.8973 15.8506 14.9335 15.8088C14.9698 15.7667 14.9791 15.5808 14.9082 15.6146ZM14.1404 15.3184C14.0304 15.3758 14.159 15.7473 14.1837 15.7479C14.3864 15.7494 14.1195 15.4299 14.1404 15.3184ZM10.583 13.9624C10.3166 14.0616 10.3553 14.4095 10.4621 14.638C10.4934 14.6076 10.525 14.5772 10.5551 14.5465C10.3997 14.7415 10.1629 14.9125 10.5909 14.8253C10.4055 14.7169 10.5902 14.7041 10.5943 14.6916C10.7274 14.2886 10.3955 14.3951 10.5832 13.9625C10.5831 13.9624 10.5831 13.9624 10.583 13.9624ZM15.2356 15.7296C15.3427 15.7322 15.6217 15.6666 15.4982 15.4775C15.4103 15.5617 15.3249 15.6459 15.2356 15.7296ZM7.00942 12.4532C6.99552 12.3213 6.93585 12.2863 6.86117 12.2421C6.83836 12.4143 6.78592 12.3997 6.73991 12.4134C6.67041 12.4339 6.76215 12.4929 6.75724 12.5014C6.67508 12.6222 6.59715 12.5998 6.7435 12.6903C6.6808 12.7112 6.6166 12.7307 6.55071 12.7469C6.66142 12.8299 6.6369 12.9253 6.65459 13.0723C6.72688 12.7827 6.73314 12.9959 6.88932 12.9204C6.96572 12.8818 7.01326 12.5192 7.00917 12.453C7.00925 12.4531 7.00934 12.4531 7.00942 12.4532ZM10.3953 13.8338C10.3564 13.8736 10.3113 13.93 10.2679 13.9752C10.2441 13.9708 10.2208 13.9655 10.1976 13.9604C10.2148 13.9183 10.2336 13.8745 10.25 13.8338C10.2309 13.8096 10.2122 13.871 10.2019 13.8724C10.202 13.8722 10.2021 13.872 10.2023 13.8718C10.1758 13.8751 10.1528 13.8764 10.1329 13.8753C10.0202 13.8585 9.98127 13.8077 9.93798 13.6582C9.87742 13.7837 9.81686 13.9092 9.7563 14.0347C9.78506 14.0338 9.81449 14.0339 9.84347 14.0341C9.88983 13.9737 9.93674 13.9136 9.98431 13.854C9.99367 13.9054 10.0014 13.9561 10.0086 14.0072C10.0277 14.0007 10.0485 13.9948 10.0688 13.9889C10.0838 13.9833 10.0983 13.9773 10.1112 13.971C10.0689 14.1687 10.0247 14.1817 9.97419 14.1566C9.92672 14.1327 9.8785 14.0782 9.83982 14.1493C9.81722 14.1915 9.85466 14.239 9.90712 14.2754C9.97922 14.3245 10.0766 14.3475 10.1125 14.3209C10.1215 14.3132 10.1855 14.0251 10.2155 14.2025C10.2171 14.2287 9.99593 14.8179 10.2859 14.3839C10.325 14.3214 10.4081 13.9371 10.3953 13.8338ZM9.5343 13.2221C9.55658 13.6525 9.12661 13.0627 9.26579 13.4561C9.14088 13.6095 9.15523 13.6115 9.17175 13.789C9.17306 13.8049 9.11111 13.838 9.1131 13.8455C9.14783 13.9515 9.23672 13.9309 9.18425 14.0865C9.20331 14.0838 9.22094 14.0816 9.23996 14.079C9.22262 13.9093 9.36473 13.8483 9.45466 13.7426C9.49533 13.6946 9.45511 13.6604 9.48996 13.6181C9.5029 13.6026 9.55557 13.6627 9.57784 13.6134C9.62787 13.5015 9.64446 13.3299 9.59884 13.2176C9.59888 13.2174 9.59892 13.2173 9.59896 13.2172C9.57742 13.218 9.5556 13.2206 9.5343 13.2221ZM12.5369 14.5892C12.521 14.6682 12.5212 14.7308 12.5175 14.7805C12.5135 14.8247 12.5076 14.8589 12.4835 14.8852C12.4598 14.9109 12.4189 14.929 12.3471 14.9415C12.343 14.9861 12.3393 15.0305 12.3352 15.0752C12.3625 15.0809 12.3891 15.0863 12.4164 15.0921C12.4237 15.0938 12.431 15.0954 12.4385 15.097C12.723 14.5028 12.7124 15.2525 12.7065 14.7765C12.7055 14.7246 12.6207 14.7615 12.724 14.6461C12.724 14.6459 12.7239 14.6458 12.7238 14.6457C12.6351 14.6598 12.5951 14.7105 12.5613 14.6456C12.5532 14.632 12.5452 14.6137 12.5369 14.5892ZM11.7741 14.5056C11.3973 14.8799 12.0349 14.8579 11.9772 14.7118C11.9715 14.6975 11.6909 14.7156 11.7741 14.5056ZM13.8096 14.5543C13.6952 14.5318 13.6568 14.7808 13.6569 14.8723C13.6571 14.964 13.748 14.8827 13.7566 14.8982C13.784 14.9493 13.7094 14.9714 13.7446 15.0411C13.7515 15.0544 13.8201 15.0998 13.877 15.1329C13.9168 15.1559 13.9507 15.1727 13.9551 15.1688C14.0132 15.1153 13.9652 14.8999 13.9827 14.8781C14.0389 14.8066 14.0889 14.9215 14.1153 14.8133C14.1717 14.5826 14.0263 14.8145 14.0054 14.8158C13.9511 14.8189 13.9623 14.7175 13.9369 14.6713C13.9334 14.6651 13.9292 14.6599 13.9241 14.656C13.8812 14.6237 13.8453 14.665 13.8057 14.6505C13.7926 14.6457 13.8154 14.5559 13.8096 14.5543ZM13.3644 15.0342C13.5073 14.8605 13.2466 14.6174 13.2089 14.6564C13.0897 14.7734 13.294 15.1173 13.3644 15.0342ZM9.6968 13.9374C9.85887 13.8589 9.65771 13.645 9.56256 13.6705C9.55745 13.7292 9.64454 13.9648 9.6968 13.9374ZM10.6416 13.9816C10.5386 13.9944 10.5659 14.3301 10.6515 14.3488C10.7539 14.165 10.6986 14.1919 10.6499 14.1689C10.6015 14.1457 10.7214 13.9707 10.6416 13.9816ZM15.0011 14.8906C14.9807 14.8872 14.6234 15.0369 14.8197 15.1182C14.8356 15.1247 15.0811 15.1063 15.1014 15.0753C15.1415 15.0131 15.0565 14.9023 15.0011 14.8906ZM11.1579 13.806C11.0674 13.9665 11.0179 13.9519 11.0153 14.1652C11.0154 14.1652 11.0155 14.1652 11.0155 14.1652C10.8708 14.1954 10.9719 13.7816 10.9437 13.7838C10.8445 13.7906 10.8538 14.1063 10.7688 14.1864C10.9324 14.1331 10.841 14.32 10.9474 14.3597C10.9715 14.3686 11.0979 14.2733 11.1292 14.2025C11.1605 14.1318 11.1626 13.8985 11.1579 13.806ZM15.4948 14.8645C15.3806 14.7932 15.2605 15.0762 15.4246 15.127C15.503 15.1519 15.5674 14.9079 15.4948 14.8645ZM5.35148 10.4468C5.29735 10.5021 5.24371 10.5576 5.19088 10.6136C5.15227 10.5863 5.11322 10.5588 5.07409 10.5313C5.11276 10.5482 5.15109 10.5653 5.18947 10.5824C5.16809 10.4988 5.26384 10.3938 5.35136 10.4466C5.3514 10.4466 5.35144 10.4467 5.35148 10.4468ZM4.19377 7.8339C4.24867 7.78105 4.01983 7.81514 4.0061 7.82749C3.93435 7.90611 4.03229 7.9195 4.11566 7.88374C4.12593 7.88 4.13589 7.87533 4.14517 7.86968C4.1638 7.85944 4.18073 7.84733 4.19377 7.8339ZM9.80038 13.2409C9.66245 13.1531 9.63598 13.5334 9.70794 13.5902C9.68164 13.504 9.87761 13.2917 9.80038 13.2409ZM4.51112 8.87001C4.48502 8.89056 4.45907 8.9114 4.43365 8.93372C4.46168 8.88198 4.48754 8.86647 4.51112 8.87001ZM14.9617 14.5664C14.9416 14.5375 14.7959 14.5067 14.7735 14.5399C14.7274 14.61 14.8319 14.818 14.905 14.7596C14.9128 14.7533 14.9809 14.5953 14.9614 14.5663C14.9615 14.5664 14.9616 14.5664 14.9617 14.5664ZM5.36928 10.2126C5.36647 10.2147 5.36359 10.2164 5.36075 10.2176C5.36359 10.216 5.36641 10.2142 5.36928 10.2126ZM3.93324 4.91883C3.92772 4.92018 3.92221 4.9213 3.91687 4.92206C3.92208 4.92106 3.92752 4.91983 3.93324 4.91883ZM13.9666 14.1669C13.9579 13.8154 13.8145 13.9836 13.8878 14.1661C13.8919 14.1757 13.9539 14.1646 13.9666 14.1669ZM263.071 17.7434C261.19 17.7103 259.128 17.7082 257.253 17.6044C257.019 17.5916 257.04 17.4913 256.975 17.4765C256.8 17.4357 256.691 17.552 256.561 17.5403C255.933 17.4836 255.347 17.4528 254.731 17.4002C254.097 17.3461 254.405 17.0401 254.186 16.9587C253.759 16.7992 254.116 17.216 253.944 17.3037C253.45 17.2676 252.957 17.2118 252.459 17.1553C252.581 17.12 252.703 17.0855 252.827 17.0531C252.61 17.0396 252.302 16.9693 252.667 16.8711C252.587 16.8399 252.514 16.8037 252.432 16.7731C252.405 16.9212 252.027 16.9243 251.989 17.0116C251.953 17.099 252.166 17.0837 252.165 17.0914C252.152 17.201 251.267 17.0299 251.209 17.0163C251.04 16.9797 251.193 16.7989 251.048 16.8074C250.801 16.8219 250.955 17.2007 250.636 16.6944C250.5 16.8532 250.497 16.769 250.324 16.7537C250.302 16.7518 250.317 16.846 250.307 16.8482C250.049 16.9117 250.25 16.742 250.249 16.7325C250.229 16.5715 249.954 16.6364 249.898 16.6197C249.18 16.4109 248.664 16.2689 247.9 16.2065C247.749 16.1934 247.229 16.2464 247.082 16.2156C246.918 16.1848 247.009 16.0712 246.926 16.0138C246.784 16.2887 246.673 16.3168 246.371 16.1264C246.255 16.3267 246.292 16.1638 246.062 16.199C245.907 16.229 245.548 16.4642 245.407 16.2536C245.498 16.265 245.54 16.2458 245.61 16.2173C245.662 16.1884 245.702 16.1493 245.844 16.1225C245.907 16.104 246.808 16.1208 246.729 15.9115C246.709 15.8029 246.401 15.895 246.396 15.8749C246.335 15.7573 246.493 15.6182 246.646 15.6718C246.609 15.6944 246.562 15.7171 246.522 15.7396C246.847 15.8925 246.631 15.3295 246.86 15.8224C246.888 15.8829 246.875 15.945 246.923 16.0097C246.934 15.9836 246.875 15.9171 246.927 15.9066C246.981 15.8961 247.084 16.0223 247.102 15.9184C247.128 15.7674 246.899 15.8218 246.884 15.8126C246.884 15.8135 246.884 15.8144 246.884 15.8153C246.739 15.7314 247.045 15.7294 247.064 15.7155C247.166 15.6234 247.102 15.5492 247.24 15.4744C247.318 15.4318 247.524 15.4628 247.604 15.4504C247.682 15.4375 247.562 15.363 247.615 15.3488C247.67 15.3347 247.731 15.3906 247.788 15.3741C247.813 15.3668 247.814 15.2869 247.826 15.2843C247.956 15.2566 247.867 15.4209 247.986 15.4136C248.062 15.4086 248.335 15.2599 248.151 15.2094C248.239 15.1954 248.33 15.1857 248.411 15.175C248.359 15.15 248.305 15.1326 248.25 15.1033C248.416 15.1453 248.483 15.01 248.585 15.0022C248.686 14.9945 248.774 15.1608 248.89 15.0834C249.138 14.9188 248.533 14.9833 248.467 14.9513C248.44 14.9387 248.55 14.8126 248.567 14.8093C248.642 14.795 248.729 14.889 248.787 14.8863C249.002 14.8759 249.124 14.7574 249.321 14.7375C250 14.6702 250.827 14.6221 251.467 14.6106C251.703 14.6063 251.843 14.7462 251.95 14.7449C252.202 14.7417 252.231 14.6234 252.449 14.6221C252.773 14.62 253.224 14.7345 253.494 14.7632C253.68 14.783 253.852 14.6719 253.9 14.6702C254.576 14.6447 255.394 14.6665 255.955 14.6782C256.218 14.6837 256.337 14.8159 256.393 14.8134C256.628 14.8028 256.568 14.6907 256.757 14.7063C256.859 14.7146 256.875 14.8212 256.889 14.8257C257.008 14.8635 257.035 14.7254 257.128 14.723C257.672 14.7095 258.193 14.8124 258.721 14.8379C258.759 14.8399 258.754 14.9012 258.78 14.8986C258.89 14.8861 258.841 14.7882 258.956 14.7838C259.196 14.7744 259.423 14.7956 259.68 14.8138C259.705 14.8155 259.714 14.8947 259.771 14.8961C259.828 14.8974 259.873 14.8236 259.961 14.8298C260.185 14.8458 260.421 14.9408 260.664 14.9512C260.704 14.9528 260.755 14.8589 260.815 14.8613C261.001 14.8687 261.295 14.9617 261.449 14.9684C261.999 14.9906 262.487 14.9474 262.992 14.9576C263.125 14.9606 263.224 15.0508 263.28 15.054C263.417 15.0614 263.321 14.9761 263.464 14.9787C263.522 14.9797 263.554 14.9804 263.628 14.9818C263.658 14.9824 263.684 14.9828 263.704 14.9832C263.713 14.9834 263.726 14.9837 263.744 14.9839C263.75 14.984 263.754 14.984 263.751 14.984C263.727 14.9866 263.802 14.9755 263.596 14.9946L263.5 15.0105C263.844 14.9496 263.985 14.9979 264.083 15.0108C264.178 15.0296 264.226 15.0442 264.264 15.0549C264.337 15.0759 264.367 15.0852 264.392 15.0923C264.44 15.1056 264.463 15.1102 264.493 15.1145C264.551 15.1225 264.631 15.1225 264.739 15.1036C264.784 15.0974 264.917 15.0764 264.962 15.0782C265.59 15.0716 266.215 15.0575 266.86 15.0303C267.047 15.0227 267.25 15.0009 267.473 14.9818C267.776 14.9539 268.078 14.9232 268.342 14.9315C268.525 14.9375 268.56 15.0517 268.689 15.0493C268.916 15.0441 268.953 14.8955 269.186 14.8714C269.371 14.8522 269.587 14.9882 269.766 14.964C269.947 14.9392 270.006 14.7888 270.22 14.7445C270.229 14.7426 270.238 14.7408 270.248 14.7392C270.35 14.7214 270.552 14.7373 270.745 14.6804C271.022 14.6255 271.204 14.458 272.038 14.5169C271.775 14.472 271.538 14.539 271.43 14.5871C271.315 14.6374 271.28 14.6681 271.266 14.6751C271.243 14.6892 271.299 14.6308 271.369 14.5459C271.443 14.4592 271.536 14.3436 271.691 14.1896C271.86 14.0465 272.034 13.7966 272.683 13.6184C272.98 13.5466 273.229 13.4979 273.445 13.4474C273.644 13.4073 273.88 13.3165 273.776 13.3632C273.9 13.2944 273.982 13.2438 274.14 13.1349C274.286 13.0303 274.667 12.7855 274.996 12.6806C274.939 12.7145 274.995 12.7142 275.1 12.6225C275.314 12.4573 275.434 12.1435 276.101 11.5251C276.308 11.3661 276.514 11.2214 276.722 11.096C276.777 11.0633 276.803 11.2292 276.927 11.0715C276.993 10.9868 277.018 10.7988 277.169 10.6325C277.287 10.5023 277.4 10.3744 277.478 10.2758C277.764 9.91092 277.977 9.76216 278.164 9.60315C278.346 9.45879 278.512 9.31743 278.544 9.2961C278.556 9.30457 278.646 9.17523 278.717 9.04699C278.793 8.91246 278.868 8.76093 278.958 8.57814C279.138 8.19613 279.4 7.7756 279.511 7.55189C279.63 7.30829 279.736 7.13602 279.813 6.9868C279.888 6.85058 279.935 6.69461 279.895 6.76486C279.904 6.71538 279.907 6.68306 279.936 6.57666C279.949 6.54101 279.944 6.53009 280.008 6.39171C280.021 6.36648 280.049 6.30042 280.137 6.1849C280.16 6.15592 280.188 6.12346 280.223 6.08708C280.26 6.04972 280.373 5.94107 280.535 5.86275C280.696 5.78042 280.957 5.71512 281.219 5.75884C281.486 5.79926 281.7 5.93585 281.822 6.05154C281.946 6.16613 282.015 6.28237 282.045 6.33474C282.07 6.38055 282.088 6.41934 282.102 6.45306C282.13 6.52035 282.144 6.56813 282.155 6.60693C282.169 6.66292 282.175 6.69692 282.18 6.72675C282.204 6.8975 282.197 6.89039 282.201 6.92572C282.203 6.94977 282.205 6.9641 282.207 6.95637C282.207 6.95014 282.209 6.94462 282.204 6.89595C282.2 6.86943 282.202 6.83758 282.168 6.71525C282.155 6.67106 282.137 6.61473 282.097 6.53206C282.075 6.48794 282.057 6.45149 282.005 6.37729C281.936 6.2812 281.827 6.14883 281.622 6.03317C281.429 5.9142 281.09 5.86065 280.894 5.89868C280.674 5.93061 280.512 6.01586 280.404 6.0896C280.172 6.26326 280.178 6.29915 280.131 6.35082C279.993 6.55206 280.017 6.54631 279.993 6.59237C279.979 6.62354 279.976 6.6335 279.971 6.64654C279.963 6.6678 279.96 6.67315 279.958 6.67688C279.955 6.68259 279.955 6.67672 279.955 6.66802C280.038 6.21148 280.076 5.96117 280.036 5.83009C280.012 5.23383 280.05 4.51923 280.227 3.87311C280.502 2.87744 280.724 1.9137 281.586 0.973843C281.671 0.881275 282.005 0.986438 282.094 1.06163C282.016 1.10869 281.926 1.14543 281.839 1.19489C282.256 1.33154 282.147 1.30204 282.068 1.57049C282.019 1.7358 282.222 1.62866 282.261 1.72538C282.312 1.85117 282.435 2.43773 282.169 2.28478C282.213 2.32737 282.254 2.36679 282.297 2.40744C282.274 2.8134 282.275 3.2148 282.253 3.63376C282.249 3.70564 282.336 3.73204 282.33 3.80718C282.316 4.00969 282.213 4.14206 282.163 4.33299C282.145 4.40034 282.178 4.44211 282.191 4.50026C282.198 4.52907 282.2 4.56114 282.185 4.60269C282.144 4.71965 282.008 4.68262 282.113 4.88609C282.308 4.82171 282.074 5.2646 282.063 5.44674C282.06 5.4732 282.188 5.70196 282.159 5.81347C282.144 5.86926 282.107 5.93863 282.08 6.01882C282.048 6.13379 282.018 6.25403 282.022 6.37774C282.025 6.49192 282.128 6.58769 282.105 6.69822C282.088 6.77548 281.958 6.82904 281.93 6.90779C281.907 6.97475 281.932 7.10747 281.943 7.15847C281.942 7.18017 281.941 7.19565 281.939 7.20493C281.915 7.30934 281.866 7.3777 281.87 7.31563C281.867 7.29521 281.864 7.27392 281.855 7.27548C281.851 7.27585 281.846 7.28178 281.837 7.29899C281.832 7.30892 281.829 7.31569 281.818 7.341C281.794 7.3808 281.828 7.36006 281.696 7.54752C281.675 7.54707 281.562 7.82669 281.056 7.85599C280.774 7.86 280.537 7.68818 280.449 7.57871C280.34 7.44314 280.354 7.44167 280.326 7.38959C280.254 7.22078 280.269 7.21575 280.258 7.17187C280.249 7.11414 280.249 7.09277 280.247 7.07215C280.245 7.03491 280.246 7.01598 280.246 6.99986C280.248 6.97838 280.243 6.9215 280.254 7.01453C280.258 7.03665 280.256 7.04878 280.281 7.13332C280.288 7.15688 280.298 7.18553 280.315 7.22307C280.335 7.25972 280.342 7.30318 280.451 7.4295C280.542 7.54147 280.8 7.71034 281.08 7.68971C281.356 7.67249 281.511 7.54368 281.588 7.47297C281.748 7.30714 281.739 7.26415 281.757 7.24039C281.77 7.21275 281.775 7.19641 281.778 7.18879C281.791 7.15205 281.787 7.15751 281.787 7.15727C281.784 7.162 281.778 7.17935 281.772 7.19934C281.583 7.79093 281.354 8.00746 281.273 8.26889C281.26 8.30685 281.366 8.30121 281.366 8.30737C281.359 8.37502 281.357 8.40995 281.353 8.42952C281.309 8.55148 281.281 8.41822 281.189 8.46415C281.06 8.54716 280.818 9.08701 280.968 9.15369C280.782 9.08381 280.866 9.26224 280.858 9.29361C280.847 9.3387 280.821 9.35557 280.792 9.36573C280.74 9.38448 280.68 9.37991 280.676 9.47495C280.674 9.53016 280.82 9.48232 280.795 9.53225C280.733 9.65671 280.512 9.70376 280.41 9.87795C280.385 9.92046 280.453 9.97047 280.409 10.0517C280.376 10.1272 280.05 10.4572 280.31 10.3718C280.233 10.4196 280.176 10.4623 280.126 10.5079C280.012 10.6085 279.977 10.7037 279.834 10.8408C279.783 10.8885 279.63 10.8497 279.562 10.9668C279.539 11.0063 279.626 11.1012 279.579 11.1446C279.474 11.2425 279.288 11.2293 279.182 11.3287C279.133 11.3747 279.095 11.4246 279.079 11.4583C278.904 11.7279 278.734 11.9763 278.515 12.163C278.435 12.2303 278.363 12.1211 278.255 12.2228C278.24 12.238 278.189 12.442 278.107 12.5036C278.058 12.5417 277.775 12.6953 277.725 12.7317C277.641 12.7934 277.711 12.8982 277.653 12.9178C277.485 12.9737 277.459 12.7502 277.482 13.0669C277.478 13.065 277.474 13.0633 277.47 13.0618C277.366 12.9834 277.316 13.0474 277.172 12.9599C277.28 13.1228 277.095 13.062 277.071 13.1975C277.048 13.3313 277.276 13.6348 276.944 13.4251C276.948 13.5003 276.845 13.7662 276.816 13.809C276.736 13.9306 276.704 13.8015 276.643 13.8937C276.631 13.9099 276.703 13.9434 276.609 14.0339C276.571 14.098 276.023 14.5337 275.95 14.5299C275.433 14.6481 276.176 14.3439 276.172 14.2019C276.198 14.2081 276.224 14.214 276.252 14.2184C276.426 14.116 276.228 14.0666 276.14 14.0885C276.054 14.1112 275.961 14.2656 275.867 14.2546C275.821 14.2482 275.746 14.0634 275.838 14.0333C275.719 14.0354 275.8 13.9071 275.735 13.8794C275.696 13.8628 275.573 13.9138 275.47 13.9574C275.376 13.9975 275.307 14.0591 275.329 14.103C275.38 14.0803 275.439 14.0534 275.498 14.0325C275.522 14.0237 275.546 14.0145 275.569 14.0061C275.646 14.0653 275.699 14.2454 275.644 14.4259C275.622 14.6275 275.63 14.7678 275.445 14.7194C275.178 14.6741 275.378 14.3505 275.047 14.7776C275.12 14.7373 275.187 14.7115 275.248 14.6777C275.338 14.7901 275.152 14.7285 275.126 14.8023C275.114 14.8383 275.326 14.8143 275.211 14.9359C274.986 14.8501 274.999 15.0627 274.808 15.1913C274.796 15.1988 274.784 15.2061 274.771 15.2129C274.781 15.2016 274.791 15.1902 274.801 15.1787C274.837 15.1224 274.871 15.066 274.904 15.0092C274.5 15.083 275.19 14.6092 274.62 14.8587C274.595 14.8697 274.567 14.8809 274.537 14.8917C274.562 14.8774 274.588 14.8628 274.614 14.8471C274.669 14.8132 274.724 14.7794 274.775 14.739C274.699 14.6972 274.64 14.4728 274.584 14.4524C274.511 14.4252 274.456 14.4437 274.404 14.475C274.361 14.5009 274.314 14.5397 274.261 14.5542C274.215 14.5667 274.221 14.5001 274.217 14.5012C274.156 14.5165 274.197 14.5948 274.142 14.6186C274.073 14.6497 273.838 14.6212 273.805 14.6378C273.719 14.6832 273.911 14.8167 273.906 14.8309C273.866 14.9272 273.728 14.8864 273.758 14.9922C274.026 14.885 274.946 14.6282 274.193 15.0938C274.475 15.1903 274.488 15.4535 274.138 15.5653C273.862 15.6478 274.019 15.5097 273.855 15.4361C273.833 15.4284 273.476 15.448 273.476 15.5255C273.455 15.3507 273.315 15.2202 273.353 15.0279C273.359 14.9997 273.5 14.9823 273.423 14.8492C273.384 14.7823 273.284 14.6401 273.277 14.5466C273.261 14.6157 273.245 14.6931 273.229 14.7652C273.078 14.8098 273.014 14.789 272.933 14.7385C272.883 14.7248 272.829 14.7122 272.763 14.7064C272.806 14.7443 273.01 14.8816 272.783 14.918C272.773 14.9206 272.722 14.8565 272.609 14.8929C272.396 14.9676 272.345 14.9946 272.324 14.7089C272.082 15.1077 271.869 15.0219 271.748 15.231C271.97 15.4177 271.986 15.3046 272.175 15.0124C272.236 15.0474 272.29 15.0883 272.351 15.1241C271.935 15.3484 272.1 15.1976 272.044 15.4539C272.023 15.5321 271.839 15.6087 271.99 15.7404C272.03 15.7767 272.172 15.6542 272.203 15.7192C272.215 15.7351 272.037 15.9109 272 15.8933C271.873 15.8467 271.891 15.7544 271.88 15.701C271.876 15.6443 271.857 15.6065 271.873 15.5975C271.777 15.5754 271.622 15.5795 271.428 15.6341C271.406 15.6403 271.412 15.7238 271.373 15.743C271.301 15.7793 271.28 15.6851 271.217 15.7217C271.154 15.7586 271.094 15.9068 270.969 15.8127C270.744 15.6424 271.121 15.4164 271.371 15.4897C271.384 15.2679 270.643 15.3981 270.337 15.4248C270.165 15.4429 270.042 15.4606 270.019 15.4702C269.684 15.6111 270.252 15.4918 270.296 15.563C270.308 15.5851 270.334 15.7969 270.389 15.8244C270.411 15.8368 270.439 15.8138 270.468 15.7241C270.493 15.6376 270.316 15.5548 270.405 15.4961C270.492 15.4366 270.476 15.5658 270.484 15.5734C270.513 15.5992 270.612 15.5326 270.63 15.5468C270.914 15.7605 270.975 16.1679 270.554 15.6385C270.448 15.7969 270.793 15.9521 270.644 16.0751C270.569 16.1342 270.493 16.1427 270.429 16.1299C270.33 16.1104 270.259 16.0452 270.242 16.0418C269.914 15.9742 270.311 16.2181 269.911 16.1661C269.691 16.1341 270.217 15.9515 269.728 16.0101C269.317 16.0522 269.545 16.136 269.527 16.3622C269.524 16.4149 269.293 16.4921 269.609 16.4513C269.614 16.3925 269.627 16.3146 269.643 16.2595C269.722 16.2975 269.874 16.5792 269.918 16.5855C270.128 16.6157 270.102 16.4647 270.242 16.6292C270.134 16.4445 270.288 16.5459 270.335 16.4984C270.457 16.3747 270.363 16.3262 270.458 16.3577C270.5 16.3702 270.576 16.3965 270.718 16.4279C270.642 16.3489 270.575 16.2692 270.507 16.1871C270.558 16.1762 270.609 16.1642 270.659 16.1515C270.772 16.3368 271.047 16.249 270.837 16.5029C271.158 16.4924 271.254 16.4201 271.282 16.2537C271.287 16.2217 271.326 16.2003 271.374 16.1871C271.356 16.1458 271.315 16.0151 271.319 15.997C271.362 15.8365 271.52 16.0671 271.499 16.1695C271.533 16.1683 271.558 16.17 271.568 16.1711C271.624 16.1784 271.53 16.2805 271.579 16.3038C271.597 16.309 271.726 16.2797 271.721 16.318C271.719 16.5111 271.667 16.4232 271.74 16.4724C271.905 16.5117 272.146 16.4841 272.328 16.4054C272.29 16.3065 272.161 16.3367 272.016 16.3229C271.867 16.3108 271.761 16.2428 271.843 16.141C271.955 15.9272 272.234 16.1097 272.116 15.8402C272.154 15.8722 272.183 15.9007 272.225 15.9371C272.354 15.6687 272.506 15.8364 272.606 15.8139C272.798 15.7529 273.191 15.322 272.662 15.5718C272.705 15.494 272.755 15.4252 272.8 15.3571C272.954 15.5079 272.996 15.5599 273.03 15.5552C273.048 15.5585 273.149 15.4662 273.106 15.519C273.11 15.5188 273.113 15.5186 273.117 15.5184C273.205 15.5141 273.272 15.696 273.312 15.4556C273.344 15.6766 273.582 15.4916 273.615 15.5127C273.803 15.6482 273.301 15.9848 273.142 15.6793C273.143 15.6657 273.143 15.6515 273.141 15.6366C273.26 15.7608 273.173 15.5664 273.155 15.6134C273.119 15.6937 273.136 15.7308 272.906 15.7588C272.921 15.8997 273.067 15.7704 273.154 15.7326C273.236 15.7015 273.285 15.7093 273.278 15.908C273.268 15.9745 273.227 16.078 273.106 16.2622C273.042 16.3549 272.965 16.467 272.804 16.6174C272.649 16.7413 272.345 17.0579 271.66 16.9974C271.833 17.0296 271.62 17.0556 271.42 17.1351C271.204 17.2081 270.926 17.3012 270.589 17.3642C269.552 17.5723 268.618 17.6005 268.255 17.6354C267.987 17.6552 267.743 17.6727 267.516 17.6885C266.663 17.7591 265.967 17.8255 265.033 17.8434L265.291 17.8141C265.193 17.8336 265.093 17.8501 264.985 17.8627C264.889 17.8769 264.42 17.9253 264.01 17.825C263.809 17.7792 263.646 17.7101 263.589 17.6601C263.534 17.6105 263.547 17.5681 263.593 17.5178C263.59 17.4871 264.219 17.5445 263.773 17.2372C263.829 17.3706 263.554 17.3687 263.598 17.3937C263.596 17.4174 263.658 17.5094 264.008 17.4805C263.991 17.4853 263.936 17.492 263.918 17.4955C263.718 17.5201 263.787 17.5154 263.754 17.5237C263.741 17.5296 263.731 17.5352 263.72 17.5407C263.699 17.5516 263.677 17.5619 263.673 17.572C263.656 17.5919 263.64 17.6098 263.624 17.6257C263.592 17.6576 263.563 17.682 263.517 17.7C263.468 17.7368 263.324 17.7475 263.071 17.7434ZM261.274 15.528C262.081 15.6019 261.489 15.4254 261.667 15.0612C261.558 15.0577 261.456 15.0544 261.355 15.051C261.381 15.0747 261.407 15.0984 261.433 15.122C261.433 15.122 261.433 15.122 261.433 15.122C261.381 15.2574 261.327 15.3927 261.274 15.528ZM248.016 14.9716C248.048 14.9239 248.081 14.8761 248.117 14.8295C248.225 14.8471 248.339 14.8645 248.439 14.8819C248.426 14.9145 248.413 14.9475 248.4 14.9801C248.28 14.9759 248.141 14.9711 248.016 14.9716ZM271.499 15.4162C271.68 15.5155 271.672 15.3449 271.905 15.3911C271.885 15.3916 271.862 15.3994 271.845 15.4171C271.841 15.2487 271.885 15.08 271.976 14.9259C271.973 14.9159 271.971 14.906 271.968 14.896C271.574 14.8838 271.553 14.979 271.306 14.9675C271.342 15.0192 271.377 15.0716 271.412 15.1246C271.448 15.107 271.489 15.0878 271.531 15.073C271.596 15.2235 271.255 15.2946 271.499 15.4166C271.499 15.4165 271.499 15.4163 271.499 15.4162ZM272.479 14.6723C272.535 14.6476 272.664 14.5708 272.887 14.5339C273.002 14.5281 273.113 14.5143 273.129 14.4697C273.179 14.3333 272.987 14.3475 272.848 14.3588C272.691 14.3872 272.605 14.4291 272.582 14.4241C272.567 14.4228 272.578 14.3667 272.828 14.2677C272.865 14.2444 272.913 14.2161 272.974 14.1823C272.964 14.1487 272.96 14.1145 272.953 14.0806C272.9 14.0865 272.846 14.0932 272.791 14.101C272.512 14.1595 272.345 14.2676 272.22 14.3504C272.313 14.4533 272.387 14.5677 272.479 14.6723ZM264.317 15.6697C264.394 15.7213 264.757 15.5865 264.625 15.4345C264.595 15.3928 264.454 15.6174 264.392 15.5958C264.356 15.5834 264.418 15.4694 264.341 15.5005C264.333 15.5544 264.322 15.614 264.317 15.6694C264.317 15.6695 264.317 15.6696 264.317 15.6697ZM263.942 16.3156C264.073 16.3315 264.207 16.3362 264.334 16.3273C264.263 16.1795 264.08 16.2269 264.121 16.0314C264.156 16.0253 264.189 16.0182 264.22 16.0099C264.233 16.0571 264.246 16.1042 264.262 16.1511C264.375 16.0592 264.322 16.0027 264.486 16.0449C264.386 15.7333 264.475 15.6025 264.118 15.8202C264.171 15.7508 264.218 15.584 264.22 15.4748C264.22 15.42 264.21 15.3794 264.164 15.3677C264.108 15.3595 264.061 15.3591 263.773 15.4444C263.65 15.484 263.876 15.5023 263.956 15.5456C264.049 15.5846 264.087 15.6134 264.089 15.619C264.084 15.7617 263.943 15.8169 263.948 15.954C263.956 16.0163 264.05 16.0429 264.039 16.1255C264.034 16.1662 263.916 16.2517 263.942 16.3156ZM263.703 15.5792C263.743 15.4955 263.614 15.2933 263.501 15.3316C263.319 15.3909 263.608 15.5873 263.703 15.5792ZM248.015 14.9718C248.015 14.9717 248.015 14.9716 248.016 14.9716C248.015 14.9718 248.015 14.9719 248.015 14.9721C248.015 14.972 248.015 14.9719 248.015 14.9718ZM272.018 14.9747C272.029 14.8534 272.167 14.7289 272.079 14.6562C272.142 14.6265 272.209 14.5949 272.284 14.5621C272.262 14.536 272.239 14.5103 272.217 14.4844C272.014 14.6256 271.89 14.7401 271.776 14.8316C271.855 14.8799 271.935 14.9291 272.018 14.9747ZM273.748 14.2851C273.905 14.2585 273.739 14.1397 273.754 14.0587C273.77 13.9783 273.906 14.0038 273.861 13.9045C273.786 13.9221 273.697 13.94 273.605 13.9568C273.655 14.0653 273.698 14.1774 273.748 14.285C273.748 14.285 273.748 14.2851 273.748 14.2851ZM257.962 15.3295C258.083 15.3659 258.031 15.4831 258.273 15.3501C258.273 15.3501 258.272 15.3501 258.272 15.3501C258.046 15.2478 257.761 15.1548 257.51 15.2428C257.659 15.3711 257.777 15.2727 257.962 15.3295ZM270.956 15.167C270.925 15.2705 271.184 15.2901 271.233 15.1929C271.306 15.0339 270.995 15.0098 270.956 15.167ZM253.1 16.0465C252.911 16.3308 253.247 16.6628 253.614 16.5315C253.646 16.52 253.413 16.4227 253.484 16.368C253.491 16.3626 253.62 16.3725 253.653 16.3331C253.685 16.2936 253.654 16.1994 253.707 16.1615C253.8 16.0952 254.003 16.2269 254.074 16.1386C254.083 16.1267 253.958 15.9989 253.95 15.9939C253.821 15.9153 253.69 16.0756 253.67 16.0762C253.565 16.0793 253.584 15.9517 253.558 15.921C253.509 15.8632 253.42 15.9177 253.414 15.9134C253.258 15.7974 253.62 15.838 253.67 15.793C253.806 15.6716 253.686 15.5529 254.003 15.49C254.033 15.4841 254.392 15.5001 253.943 15.3461C254.839 15.0682 253.501 15.1657 253.353 15.228C253.286 15.257 253.384 15.3813 253.342 15.4353C253.246 15.5587 253.089 15.5771 253.098 15.7545C253.12 16.1274 253.333 15.8884 253.474 15.9544C253.457 16.0348 253.45 16.1135 253.42 16.1919C253.465 16.0866 253.113 16.0251 253.1 16.0457C253.1 16.046 253.1 16.0462 253.1 16.0465ZM255.361 15.6741C255.558 15.791 255.55 15.5558 255.73 15.6944C255.897 15.4873 255.577 15.494 255.54 15.4812C255.371 15.424 255.382 15.1948 255.207 15.2613C255.263 15.3984 255.308 15.5367 255.361 15.6741ZM253.626 15.5365C253.763 15.4207 253.523 15.4171 253.514 15.3941C253.413 15.1503 254.13 15.2141 253.626 15.5365ZM264.901 16.1323C264.942 16.13 264.929 16.0815 264.929 16.0372C264.941 16.0356 264.975 16.0302 264.987 16.0306C264.991 16.0095 264.999 15.9897 265.018 15.9782C265.077 15.9429 265.284 16.0346 265.277 15.9639C265.269 15.8931 264.891 15.7192 265.265 15.6689C265.251 15.6294 265.254 15.5996 265.247 15.5637C265.156 15.5654 265.066 15.5664 264.975 15.5677C264.947 15.5666 264.865 15.5795 264.837 15.5833C264.828 15.585 264.819 15.5865 264.811 15.588C264.824 15.611 264.838 15.6342 264.852 15.6573C264.877 15.6538 264.951 15.6421 264.977 15.6431C265.024 15.7331 265.07 15.8246 265.115 15.9101C265.06 16.003 265.025 15.8867 265.021 15.8868C265.021 15.8869 265.021 15.887 265.021 15.8871C265.009 15.8885 264.996 15.8926 264.983 15.8986C264.967 15.898 264.919 15.9055 264.903 15.9078C264.835 15.9658 264.778 16.1367 264.901 16.1323ZM259.636 15.5902C259.609 15.8749 259.779 15.5602 259.845 15.5264C259.912 15.4927 259.999 15.6003 259.968 15.4768C259.865 15.3898 259.639 15.5585 259.636 15.5906C259.636 15.5905 259.636 15.5904 259.636 15.5902ZM256.447 15.6989C256.617 15.6336 256.592 15.5589 256.794 15.6482C256.788 15.5791 256.782 15.5085 256.776 15.4405C256.613 15.4353 256.62 15.6356 256.432 15.5508C256.402 15.5368 256.472 15.3785 256.33 15.4266C256.369 15.5128 256.408 15.6085 256.447 15.6989ZM257.283 15.4627C257.087 15.4687 256.923 16.0229 257.285 15.7796C257.338 15.7433 257.428 15.4581 257.283 15.4627ZM263.202 16.0423C263.514 16.0649 263.166 15.9676 263.075 15.8799C263.836 15.8272 262.994 15.9018 262.915 15.6148C262.827 15.6941 262.648 15.8759 262.838 15.9298C262.915 15.9521 262.888 15.8666 262.893 15.867C263.027 15.8909 263.032 16.03 263.202 16.0423ZM255.014 15.6797C255.026 15.6758 255.009 15.579 255.049 15.5607C255.089 15.5425 255.176 15.612 255.186 15.5531C255.196 15.4939 255.019 15.4436 254.963 15.4856C254.908 15.5281 254.901 15.7141 255.014 15.6797ZM256.263 15.9463C256.427 15.8808 256.169 15.5199 256.134 15.5207C255.822 15.532 256.275 15.8342 256.263 15.9463ZM262.426 16.6282C262.825 16.4568 262.536 16.1372 262.303 15.9444C262.27 15.9817 262.235 16.0192 262.201 16.0562C262.355 15.8279 262.628 15.6049 262.031 15.7936C262.357 15.8554 262.082 15.9115 262.078 15.9245C262.038 16.3493 262.513 16.1622 262.426 16.6282C262.426 16.6282 262.426 16.6282 262.426 16.6282ZM254.485 15.5658C254.313 15.5632 253.865 15.6262 254.069 15.8165C254.207 15.7329 254.346 15.6493 254.485 15.5658ZM268.874 16.6004C269.018 16.702 269.149 16.6959 269.325 16.6812C269.16 16.5337 269.263 16.5117 269.314 16.4716C269.392 16.4112 269.198 16.4243 269.197 16.4138C269.195 16.267 269.317 16.24 269.037 16.2538C269.105 16.2003 269.17 16.1463 269.238 16.0928C269.024 16.0947 268.972 16.0003 268.834 15.8877C268.972 16.1691 268.797 15.9959 268.644 16.142C268.568 16.2152 268.798 16.5486 268.874 16.6004C268.874 16.6004 268.874 16.6004 268.874 16.6004ZM262.834 16.6945C262.874 16.6439 262.911 16.5751 262.948 16.5171C262.995 16.5125 263.042 16.5086 263.086 16.504C263.09 16.5495 263.094 16.5972 263.099 16.641C263.156 16.6555 263.135 16.5917 263.152 16.5861C263.152 16.5864 263.152 16.5866 263.152 16.5868C263.263 16.5472 263.359 16.5306 263.437 16.5415C263.504 16.5523 263.595 16.5916 263.676 16.6632C263.678 16.5239 263.68 16.3846 263.682 16.2452C263.648 16.258 263.603 16.2702 263.549 16.2821C263.525 16.3565 263.507 16.4311 263.484 16.5056C263.44 16.4634 263.392 16.4214 263.338 16.379C263.288 16.4049 263.25 16.4325 263.217 16.458C263.033 16.0646 263.473 16.3384 263.477 16.1767C263.483 16.073 263.043 16.0684 262.96 16.1383C262.954 16.1486 263.036 16.4405 262.886 16.2861C262.861 16.2618 262.872 15.6344 262.681 16.1384C262.653 16.2099 262.737 16.6016 262.834 16.6945ZM264.41 17.0387C264.26 16.8257 264.477 16.8552 264.659 16.8595C264.845 16.8642 264.997 16.8644 264.748 16.7265C264.861 16.5298 264.824 16.537 264.697 16.3838C264.686 16.3701 264.759 16.3128 264.751 16.3069C264.642 16.2285 264.525 16.2754 264.527 16.111C264.502 16.1194 264.479 16.1264 264.453 16.1337C264.554 16.2927 264.378 16.3915 264.276 16.5069C264.231 16.5603 264.314 16.59 264.276 16.6371C264.261 16.6551 264.145 16.5975 264.13 16.6488C264.095 16.7658 264.141 16.9484 264.292 17.0553C264.292 17.0554 264.292 17.0556 264.292 17.0557C264.331 17.0517 264.371 17.045 264.41 17.0387ZM259.086 16.4783C259.048 16.2555 258.879 16.188 259.21 16.0872C259.195 16.0431 259.179 15.9994 259.164 15.9554C259.109 15.9579 259.055 15.9605 258.998 15.9627C258.81 16.6121 258.52 15.8676 258.705 16.3356C258.724 16.3864 258.861 16.3333 258.725 16.467C258.725 16.4671 258.725 16.4672 258.725 16.4674C258.912 16.4297 258.937 16.3516 259.086 16.4783ZM260.304 16.3516C260.737 15.8946 259.732 16.0779 259.897 16.2056C259.913 16.2172 260.337 16.1266 260.304 16.3516ZM256.933 16.6799C257.119 16.6923 257.137 16.4408 257.12 16.3496C257.104 16.2582 256.972 16.3472 256.956 16.3324C256.903 16.2839 257.019 16.2554 256.95 16.1891C256.927 16.1675 256.603 16.0701 256.587 16.0806C256.502 16.1389 256.619 16.3495 256.595 16.3727C256.515 16.4489 256.412 16.3383 256.387 16.4483C256.332 16.6829 256.536 16.44 256.569 16.4368C256.67 16.4279 256.658 16.5604 256.732 16.5888C256.806 16.617 256.856 16.5727 256.922 16.5837C256.943 16.5873 256.923 16.6788 256.933 16.6799ZM257.567 16.1626C257.367 16.3487 257.839 16.5671 257.895 16.5237C258.062 16.395 257.664 16.0739 257.567 16.1626ZM263.824 16.3099C263.752 16.3739 263.78 16.431 263.843 16.4884C263.913 16.5484 264.06 16.6046 264.131 16.589C264.11 16.5314 263.891 16.2721 263.824 16.3099ZM262.32 16.6251C262.482 16.5857 262.278 16.2697 262.132 16.2713C262.043 16.474 262.125 16.4353 262.217 16.4457C262.308 16.4562 262.19 16.6558 262.32 16.6251ZM254.9 16.4047C254.936 16.4088 255.513 16.2531 255.185 16.1751C255.161 16.1693 254.758 16.1896 254.727 16.2204C254.664 16.2826 254.809 16.3934 254.9 16.4047ZM261.515 16.9095C261.611 16.7346 261.698 16.7389 261.621 16.5292C261.62 16.5292 261.62 16.5292 261.62 16.5292C261.847 16.4707 261.844 16.8959 261.891 16.8879C262.052 16.8596 261.908 16.5536 262.01 16.4565C261.774 16.5446 261.845 16.3421 261.659 16.325C261.618 16.3212 261.44 16.4391 261.42 16.5146C261.396 16.5901 261.467 16.8195 261.515 16.9095ZM254.089 16.4298C254.281 16.5021 254.465 16.2195 254.197 16.1677C254.067 16.1422 253.972 16.3857 254.089 16.4298ZM273.161 15.4574C273.127 15.4053 273.093 15.3538 273.058 15.3027C273.053 15.2862 273.047 15.27 273.039 15.2543C273.041 15.2517 273.044 15.2492 273.046 15.2468C273.103 15.2172 273.162 15.1879 273.221 15.1589C273.171 15.1934 273.121 15.2278 273.072 15.2625C273.206 15.2604 273.291 15.3829 273.161 15.4573C273.161 15.4573 273.161 15.4574 273.161 15.4574ZM277.316 12.9214C277.329 12.9261 277.337 12.9238 277.34 12.9167C277.377 12.8656 277.333 12.6981 277.314 12.6956C277.247 12.6872 277.211 12.7179 277.2 12.7595C277.193 12.8165 277.249 12.9003 277.316 12.9214ZM263.912 17.0381C264.2 17.1341 264.056 16.7342 263.926 16.6712C264.001 16.7638 263.763 16.9803 263.912 17.0381ZM276.172 14.2019C276.132 14.1928 276.093 14.183 276.053 14.1738C276.148 14.1575 276.178 14.1692 276.172 14.2019ZM254.984 16.7288C255.017 16.7576 255.268 16.7866 255.303 16.7528C255.375 16.6817 255.184 16.4758 255.067 16.535C255.054 16.5413 254.951 16.7 254.985 16.7288C254.984 16.7288 254.984 16.7288 254.984 16.7288ZM273.477 15.5353C273.476 15.532 273.476 15.5286 273.476 15.5255C273.476 15.5287 273.477 15.532 273.477 15.5353ZM280.984 9.1594C280.978 9.15801 280.973 9.15615 280.968 9.15369C280.973 9.15557 280.979 9.15716 280.984 9.1594ZM256.753 17.0799C256.829 17.4293 257.025 17.249 256.877 17.0737C256.869 17.0644 256.773 17.0811 256.753 17.0799Z" fill="#419DDF"/>
</svg>
