<svg width="4" height="271" viewBox="0 0 4 271" fill="none" xmlns="http://www.w3.org/2000/svg">
<path d="M0.524226 104.023C0.516526 93.0583 0.470259 81.0543 0.53045 70.0461C0.537804 68.6946 0.638551 68.787 0.651849 68.4078C0.688542 67.3714 0.569703 66.7473 0.578424 65.9918C0.620416 62.3191 0.637511 58.8834 0.675652 55.2804C0.714847 51.5688 1.02801 53.3245 1.1043 52.0349C1.25371 49.5152 0.845341 51.6584 0.753656 50.668C0.778151 47.7794 0.82239 44.8652 0.867181 41.9714C0.90531 42.6778 0.942629 43.3844 0.97796 44.0986C0.986363 42.8374 1.0494 41.0322 1.15612 43.1443C1.18552 42.6775 1.21989 42.2417 1.24859 41.762C1.09988 41.6304 1.08791 39.3974 0.99975 39.1932C0.911562 38.9895 0.931826 40.2449 0.924127 40.2372C0.814286 40.154 0.964431 35.0038 0.976678 34.6324C1.00927 33.6505 1.19363 34.5114 1.18176 33.6761C1.16146 32.2394 0.786347 33.1965 1.28503 31.2518C1.12303 30.4781 1.20716 30.4106 1.21838 29.4309C1.21978 29.302 1.12598 29.4021 1.12353 29.3453C1.05391 27.8625 1.22834 29.0023 1.23779 28.9946C1.3983 28.8599 1.32695 27.2686 1.34234 26.9334C1.5341 22.7269 1.66393 19.6445 1.70837 15.2058C1.71782 14.2463 1.65269 11.3239 1.67999 10.3954C1.70693 9.47964 1.82258 9.97095 1.87811 9.49167C1.59989 8.72342 1.5692 7.99057 1.7525 6.26578C1.54955 5.62357 1.71326 5.70618 1.67266 4.47592C1.63903 3.45193 1.39558 1.66724 1.60308 0.540253C1.58419 1.8324 1.68388 1.6987 1.74407 3.15335C1.76401 3.63766 1.76827 8.68723 1.9757 8.31149C2.08383 8.11548 1.98452 6.44189 2.00445 6.3772C2.12064 6.00061 2.26342 6.93472 2.21338 7.76266C2.18993 7.5563 2.16614 7.30774 2.1427 7.08591C1.99747 8.94556 2.55525 7.66669 2.06781 9.08005C2.00801 9.25485 1.94567 9.18707 1.88214 9.47516C1.90841 9.53439 1.97356 9.18192 1.98523 9.48547C1.99699 9.79514 1.8733 10.383 1.97754 10.4707C2.12911 10.6017 2.06938 9.31891 2.07824 9.22241C2.07733 9.22144 2.07641 9.22031 2.0755 9.21933C2.15598 8.36591 2.16515 10.1483 2.1795 10.2334C2.27395 10.7848 2.34667 10.4088 2.42468 11.2361C2.46912 11.7082 2.44293 12.9104 2.45727 13.3541C2.47198 13.7948 2.54368 13.1091 2.55908 13.4057C2.57448 13.7023 2.51999 14.0716 2.53784 14.4197C2.54571 14.5688 2.62568 14.5612 2.62848 14.6333C2.65925 15.4069 2.4929 14.8994 2.50305 15.601C2.5098 16.0554 2.66486 17.5808 2.71106 16.5294C2.72715 17.0348 2.73893 17.5276 2.75153 18.0304C2.77531 17.7133 2.79148 17.3856 2.81946 17.0762C2.78136 18.0224 2.91822 18.4505 2.92841 19.0435C2.93855 19.6367 2.77432 20.1685 2.85443 20.821C3.02486 22.2138 2.94612 18.765 2.97656 18.3368C2.98853 18.1699 3.11717 18.8107 3.12085 18.9094C3.13694 19.3477 3.04495 19.8661 3.04907 20.2041C3.06447 21.4137 3.18588 22.1544 3.21039 23.3072C3.29368 27.2328 3.36122 32.1026 3.38782 35.8219C3.39762 37.207 3.26111 38.0403 3.26496 38.6619C3.27407 40.1162 3.39303 40.2944 3.39936 41.5629C3.40915 43.4509 3.3053 46.1107 3.2829 47.6866C3.2675 48.7775 3.38263 49.7653 3.38544 50.049C3.42673 53.9927 3.42414 58.7903 3.42554 62.0582C3.42624 63.5951 3.29686 64.3251 3.30066 64.6424C3.31676 66.0067 3.42737 65.6409 3.4162 66.7469C3.41026 67.3445 3.30408 67.4561 3.29993 67.5361C3.26494 68.2403 3.4036 68.3804 3.40815 68.9298C3.43438 72.0892 3.34363 75.1325 3.33033 78.2609C3.32928 78.4879 3.26785 78.4677 3.271 78.6148C3.28608 79.2461 3.38281 78.9526 3.38984 79.6123C3.40488 80.9845 3.3889 82.3935 3.37665 83.8482C3.37545 83.9923 3.29648 84.0571 3.29645 84.3867C3.29645 84.7168 3.37131 84.9671 3.36713 85.4854C3.35628 86.8395 3.26675 88.1758 3.26185 89.6098C3.26115 89.8471 3.35627 90.1411 3.35523 90.497C3.35208 91.6138 3.26573 93.2674 3.26258 94.2243C3.25278 97.3812 3.30692 100.294 3.30762 103.268C3.30758 103.966 3.21945 104.585 3.21735 104.949C3.21283 105.769 3.2961 105.15 3.29645 105.981C3.29855 112.764 3.26069 119.574 3.26734 126.437C3.2698 129.132 3.35596 132.413 3.33216 135.018C3.322 136.101 3.20687 136.298 3.20582 137.064C3.20445 138.43 3.35206 138.678 3.36677 140.119C3.37832 141.27 3.23096 142.588 3.24006 143.785C3.24916 144.981 3.39228 145.534 3.40943 146.908C3.42342 148.041 3.35847 149.622 3.36897 150.854C3.46555 162.151 3.52434 173.276 3.41236 184.642C3.37282 188.653 3.39338 193.103 3.2527 197.248C3.23938 197.637 3.10116 197.041 3.1302 198.29C3.14594 198.96 3.26504 199.896 3.27101 201.446C3.306 210.662 3.05124 220.492 3.10163 229.862C3.17758 243.899 4.16117 258.445 2.72187 270.643C2.6512 271.241 2.30483 270.917 2.20643 270.558C2.27676 270.225 2.36028 269.918 2.43971 269.57C2.00693 269.131 2.11961 269.209 2.15846 267.584C2.18258 266.584 1.99749 267.383 1.94495 266.849C1.87706 266.158 1.66329 262.913 1.9499 263.537C1.90021 263.336 1.8526 263.15 1.80396 262.954C1.76057 260.604 1.68881 258.322 1.60657 256.024C1.5922 255.627 1.50227 255.608 1.48792 255.198C1.44874 254.097 1.50782 253.223 1.49872 252.088C1.49382 251.471 1.3899 251.386 1.39655 250.579C1.40324 249.772 1.54353 249.789 1.39106 248.689C1.21503 249.406 1.34276 246.207 1.33191 245.07C1.33051 244.905 1.17238 243.551 1.19056 242.831C1.2084 242.109 1.30942 241.013 1.25208 239.896C1.22513 239.373 1.10198 239.055 1.09497 238.49C1.09007 238.093 1.19954 237.616 1.20411 237.113C1.20865 236.61 1.11879 235.522 1.11731 235.323C1.11136 234.603 1.18833 235.397 1.1922 234.905C1.2097 232.53 1.25094 229.77 1.19916 227.428C1.19288 227.14 1.10221 227.538 1.09919 227.5C0.987929 225.545 1.10607 226.589 1.18726 226.061C1.26576 225.55 1.22294 221.808 1.06531 221.781C1.2627 221.666 1.11194 220.834 1.10614 220.618C1.08377 219.777 1.25455 219.942 1.20172 219.127C1.18249 218.828 1.06705 219.411 1.07044 219.089C1.07884 218.295 1.26428 217.58 1.28284 216.523C1.28739 216.267 1.20478 216.184 1.20758 215.73C1.21043 215.276 1.31148 213.371 1.13727 214.25C1.27688 213.094 1.20025 212.862 1.2041 211.518C1.20528 211.178 1.3384 210.739 1.29712 210.015C1.28311 209.77 1.1548 209.777 1.15375 209.408C1.15099 208.565 1.28382 207.771 1.28907 206.7C1.29921 204.699 1.20583 202.568 1.23908 200.482C1.2482 199.915 1.37721 200.056 1.3797 199.231C1.3797 199.11 1.26814 198.117 1.27863 197.547C1.28493 197.204 1.36333 195.426 1.36963 195.068C1.37973 194.475 1.25496 194.369 1.27936 194.044C1.3497 193.106 1.53336 193.859 1.28211 192.729C1.42139 192.358 1.40745 191.698 1.57892 191.486C1.39101 191.102 1.57155 190.603 1.50861 189.858C1.44562 189.113 1.08167 188.502 1.47327 188.321C1.42568 187.973 1.34445 186.489 1.3385 186.239C1.32172 185.502 1.43004 185.896 1.41541 185.34C1.41296 185.242 1.33889 185.344 1.34619 184.715C1.35109 184.303 1.35564 181.279 1.36579 181.099C1.48175 179.039 1.43924 182.221 1.51941 182.667C1.49836 182.745 1.47723 182.823 1.45642 182.907C1.42145 183.817 1.58878 183.299 1.62763 182.886C1.66646 182.474 1.59191 181.703 1.64685 181.36C1.67444 181.189 1.87506 181.295 1.85083 181.811C1.91263 181.258 1.97788 182.014 2.03595 181.795C2.09962 181.554 2.11922 179.069 2.00867 179.056C2.00482 179.52 2.00864 180.098 2.00409 180.567C1.81197 181.181 1.15586 179.317 1.41797 177.607C1.60763 176.366 1.75845 178.411 1.59925 175.476C1.59154 175.927 1.5736 176.309 1.56555 176.719C1.42147 176.763 1.5799 176.098 1.53406 175.755C1.51165 175.59 1.40962 176.605 1.37567 175.724C1.58171 174.966 1.37446 174.382 1.37201 173.111C1.40876 173.464 1.44531 173.818 1.48206 174.171C1.63148 172.023 1.68077 177.013 1.76441 172.835C1.77105 173.338 1.76928 173.838 1.77942 174.343C1.85503 174.099 2.07695 174.49 2.12384 174.271C2.24692 173.696 2.17273 172.845 2.18354 172.144C2.18809 171.837 2.24801 172.027 2.24836 172.002C2.255 171.581 2.16716 171.674 2.16156 171.305C2.15457 170.841 2.23996 169.501 2.23023 169.283C2.20538 168.721 2.03206 169.657 2.01911 169.603C1.93516 169.245 2.00478 168.512 1.89496 168.551C1.97053 170.313 1.87352 175.39 1.6919 170.797C1.51447 172.063 1.26987 171.697 1.25061 169.877C1.23451 168.37 1.33252 169.342 1.44031 168.558C1.4538 168.457 1.50534 166.439 1.42914 166.336C1.60463 166.417 1.76004 165.76 1.9411 166.201C1.9677 166.265 1.95721 167.093 2.10279 166.804C2.17591 166.66 2.33507 166.245 2.42817 166.312C2.36344 166.142 2.29061 165.964 2.22309 165.791C2.20419 164.551 2.27392 164.374 2.39466 163.696C2.34426 163.727 2.13251 164.354 2.1969 163.402C2.20075 163.353 2.27675 163.311 2.31446 162.827C2.39004 161.85 2.41354 161.646 2.63672 162.396C2.50942 160.372 2.75817 159.936 2.68543 157.86C2.39852 158.273 2.46956 159.003 2.52485 160.903C2.45661 160.986 2.38907 161.025 2.32013 161.11C2.4748 158.58 2.45904 159.83 2.3205 158.397C2.28655 158.046 2.32288 156.175 2.1297 156.8C2.08425 156.947 2.08948 158.109 2.01783 157.976C2.00418 157.95 1.96947 156.537 1.98798 156.413C2.21649 154.85 2.37576 157.643 2.29248 153.339C2.29004 153.22 2.20651 153.178 2.19489 152.947C2.1732 152.511 2.26996 152.505 2.24762 152.116C2.22523 151.727 2.09509 151.187 2.2154 150.602C2.43447 149.531 2.56046 152.056 2.44428 153.181C2.73054 153.637 2.73684 145.603 2.71235 145.105C2.60563 142.931 2.66724 146.549 2.58783 146.735C2.55424 146.812 2.12841 146.774 2.40473 147.689C2.48661 147.96 2.5945 146.828 2.63965 147.504C2.6848 148.179 2.55941 147.912 2.55066 147.961C2.52068 148.129 2.56716 148.847 2.54938 148.941C2.27957 150.375 1.87186 150.243 2.47413 148.342C2.33799 147.514 2.12102 149.415 2.02863 148.386C1.91634 147.135 2.11052 146.222 2.11927 146.065C2.22281 144.18 1.93934 146.353 2.02991 144.051C2.0803 142.769 2.21856 145.969 2.20002 143.042C2.18427 140.592 2.08559 141.915 1.86127 141.737C1.80878 141.695 1.74443 140.352 1.76752 142.18C1.82595 142.232 1.90296 142.33 1.95685 142.446C1.91419 142.894 1.62174 143.642 1.61151 143.88C1.56287 145.043 1.71467 144.987 1.53589 145.673C1.73147 145.183 1.61362 145.98 1.65491 146.279C1.8071 147.39 1.86368 145.933 1.66809 148.427C1.75978 148.102 1.84977 147.808 1.9411 147.493C1.94425 147.792 1.94748 148.092 1.95062 148.391C1.74871 148.837 1.77453 150.426 1.57123 148.987C1.5135 150.718 1.55751 151.417 1.7146 151.796C1.74459 151.868 1.75658 152.128 1.75946 152.434C1.80363 152.376 1.94011 152.302 1.95685 152.35C2.10405 152.781 1.84975 153.449 1.75269 153.221C1.74804 153.435 1.74259 153.604 1.74024 153.663C1.72516 154.042 1.63739 153.3 1.6073 153.607C1.59752 153.708 1.61662 154.775 1.58093 154.795C1.35218 154.924 1.51722 153.168 1.38428 156.693C1.5925 156.778 1.54672 155.141 1.76789 155.562C2.00548 156.013 1.68677 156.934 1.97827 157.135C1.93035 157.21 1.89038 157.243 1.83582 157.307C1.96283 158.733 1.72004 158.752 1.66644 159.188C1.56181 160.034 1.57752 163.923 1.78784 160.431C1.80884 160.942 1.81855 161.463 1.8371 161.971C1.40186 162.087 1.57509 161.778 1.50861 164.225C1.49391 164.764 1.30248 164.94 1.52985 165.468C1.30682 165.397 1.44156 166.991 1.41449 167.14C1.23848 168.094 0.993466 164.551 1.38776 164.096C1.23424 163.498 1.43718 163.5 1.41028 162.833C1.37143 161.868 1.33191 161.734 1.48169 160.589C1.27067 159.462 1.38885 165.001 1.10889 161.643C0.828947 158.284 0.672791 138.725 0.630795 134.162C0.554856 125.895 0.505221 121.549 0.517818 114.123C0.518868 113.391 0.498634 107.861 0.742489 109.011C0.777483 109.176 0.870226 111.554 1.06164 109.514C0.948624 109.929 0.875236 108.729 0.863339 108.629C0.593183 106.321 0.527026 107.657 0.524226 104.023ZM2.69916 93.2494C2.64352 97.9924 2.80654 94.5079 3.17469 95.4932C3.17574 94.8845 3.17675 94.278 3.1778 93.6693C3.1547 93.8292 3.13168 93.987 3.10859 94.1469C3.10859 94.1476 3.10859 94.1483 3.10859 94.149C2.97213 93.8498 2.83562 93.5486 2.69916 93.2494ZM2.94562 15.7134C2.99409 15.8985 3.04266 16.0813 3.09009 16.2818C3.07504 16.9085 3.06027 17.5328 3.04523 18.1594C3.01234 18.0846 2.97906 18.0124 2.94617 17.9376C2.94756 17.1963 2.94909 16.4573 2.94562 15.7134ZM2.49756 153.844C2.36285 154.731 2.60325 154.651 2.49372 155.83C2.67113 155.685 2.84467 155.525 3.02033 155.373C2.99408 154.476 2.92662 154.272 2.96998 153.297C2.91296 153.411 2.85559 153.527 2.79822 153.638C2.81046 153.8 2.82437 153.973 2.83521 154.13C2.67565 154.38 2.65185 152.823 2.4972 153.841C2.49732 153.842 2.49744 153.843 2.49756 153.844ZM2.56898 162.936C2.54588 163.413 2.45905 165.303 2.53254 165.561C2.7817 166.436 2.62358 161.102 2.8451 165.033C2.88006 165.015 2.91431 165.033 2.94892 165.033C2.96117 164.316 2.97172 163.601 2.98151 162.879C2.84365 162.918 2.70754 162.892 2.56898 162.936ZM2.71454 110.404C2.69535 111.138 2.81255 114.634 2.97034 113.494C3.01654 113.159 2.7908 111.598 2.8006 111.005C2.80692 110.621 2.93069 111.051 2.8852 110.293C2.83064 110.326 2.77016 110.347 2.71491 110.406C2.71479 110.406 2.71466 110.405 2.71454 110.404ZM1.99439 109.029C2.01643 109.787 2.04437 110.556 2.06781 111.319C2.20881 110.762 2.11824 109.666 2.31665 109.602C2.3317 109.811 2.34665 110.017 2.3617 110.226C2.31831 110.386 2.27489 110.543 2.23151 110.7C2.33929 111.355 2.39284 110.959 2.3617 112.179C2.66161 111.441 2.82258 111.304 2.51917 109.215C2.68189 109.609 3.21209 109.238 2.83319 108.08C2.76285 107.863 2.71585 108.768 2.70465 108.778C2.56542 108.918 2.47656 108.416 2.34503 108.565C2.28554 108.632 2.28645 109.184 2.20386 109.266C2.16357 109.305 2.04862 108.78 1.99439 109.029ZM2.70044 107.518C2.78478 107.753 2.98491 106.95 2.94434 106.254C2.88135 105.168 2.69099 106.881 2.70044 107.518ZM2.94543 15.7093C2.9455 15.7107 2.94556 15.712 2.94562 15.7134C2.94543 15.7127 2.94525 15.712 2.94507 15.7113C2.94519 15.7107 2.94531 15.7099 2.94543 15.7093ZM2.66657 160.475C2.73827 161.037 2.72782 161.87 2.8418 161.808C2.81941 162.082 2.79737 162.358 2.77497 162.631C2.80924 162.629 2.84359 162.624 2.87751 162.621C2.89885 161.798 2.92027 160.978 2.94196 160.156C2.85028 160.259 2.75825 160.354 2.66657 160.475ZM2.58674 169.438C2.5752 170.472 2.73029 169.605 2.80518 169.832C2.88007 170.059 2.81915 170.98 2.92658 170.872C2.93078 170.263 2.935 169.628 2.93885 169.012C2.82197 169.175 2.70292 169.288 2.58674 169.44C2.58674 169.439 2.58674 169.439 2.58674 169.438ZM2.82129 73.892C2.78769 74.5934 2.66935 74.3071 2.80792 75.6922C2.80792 75.6911 2.80792 75.6901 2.80792 75.6891C2.90484 74.3712 2.99122 72.6746 2.89746 71.22C2.77261 72.1097 2.87378 72.7882 2.82129 73.892ZM2.84675 151.391C2.75297 151.095 2.67466 152.474 2.76179 152.778C2.90281 153.271 2.98917 151.842 2.84675 151.391ZM1.99072 45.5583C1.70203 44.4912 1.37799 46.5132 1.51794 48.6305C1.53019 48.8137 1.622 47.4467 1.67834 47.8516C1.68389 47.8926 1.67701 48.643 1.71716 48.8286C1.7574 49.0143 1.85082 48.8193 1.89001 49.1237C1.95851 49.6577 1.83159 50.8646 1.92151 51.2643C1.93356 51.3169 2.05849 50.5685 2.06323 50.5215C2.13881 49.753 1.97551 49.0124 1.97442 48.8936C1.96882 48.2823 2.09686 48.3747 2.12695 48.22C2.18355 47.9284 2.12696 47.4153 2.13116 47.3792C2.24345 46.4515 2.21132 48.5712 2.25751 48.8575C2.38208 49.6286 2.4979 48.9147 2.56824 50.7639C2.57486 50.9395 2.56734 53.0416 2.71069 50.3925C3.00952 55.594 2.88067 47.779 2.81488 46.9304C2.78438 46.5392 2.66234 47.1315 2.60742 46.8943C2.48181 46.3527 2.45966 45.4294 2.28259 45.5119C1.91033 45.69 2.15425 46.9026 2.09161 47.7382C2.01077 47.6505 1.93193 47.617 1.85284 47.4545C1.95923 47.7047 2.01245 45.6358 1.99145 45.5583C1.99121 45.5583 1.99096 45.5583 1.99072 45.5583ZM2.41608 58.726C2.30374 59.8944 2.53874 59.8117 2.40436 60.8821C2.61537 61.8261 2.6012 59.9642 2.6131 59.7473C2.66628 58.757 2.89573 58.7798 2.82514 57.7666C2.68937 58.1148 2.55219 58.3986 2.41608 58.726ZM2.51294 48.5635C2.63192 49.3449 2.6299 47.9465 2.65265 47.8898C2.89399 47.2723 2.84709 51.4595 2.51294 48.5635ZM2.24176 114.956C2.23372 115.353 2.34764 115.101 2.38129 115.451C2.41522 115.802 2.31773 117.001 2.38861 116.971C2.45965 116.94 2.64389 114.743 2.68378 116.948C2.72365 116.873 2.7534 116.898 2.78943 116.862C2.79048 116.256 2.79223 115.644 2.79328 115.038C2.67851 115.371 2.55777 115.712 2.44684 116.032C2.3555 115.691 2.47266 115.5 2.47266 115.482C2.47254 115.482 2.47241 115.482 2.47229 115.482C2.4631 114.848 2.25966 114.064 2.24176 114.956ZM2.59937 83.6986C2.31416 83.5799 2.63269 84.5161 2.66803 84.9005C2.70325 85.2847 2.59767 85.8127 2.7204 85.6143C2.80509 84.9927 2.6312 83.7115 2.599 83.6986C2.59912 83.6986 2.59925 83.6986 2.59937 83.6986ZM2.41663 65.0736C2.48586 66.053 2.56001 65.8975 2.4754 67.0956C2.54434 67.0491 2.61479 67.0028 2.68268 66.9563C2.68408 66.0047 2.48395 66.0715 2.56439 64.9704C2.57769 64.79 2.73754 65.1764 2.68616 64.3618C2.60084 64.5989 2.50615 64.8391 2.41663 65.0736ZM2.67224 69.9274C2.66172 68.8029 2.10386 67.911 2.35547 69.9821C2.39308 70.2891 2.68029 70.7731 2.67224 69.9274ZM2.22766 104.583C2.21158 106.496 2.30161 104.323 2.38733 103.825C2.4559 108.278 2.36387 103.322 2.64899 102.878C2.5678 102.333 2.38212 101.315 2.3324 102.446C2.31175 102.918 2.39665 102.746 2.3963 102.774C2.3753 103.644 2.23641 103.538 2.22766 104.583ZM2.40234 56.6958C2.40654 56.768 2.50285 56.655 2.5221 56.8846C2.5412 57.1144 2.4738 57.6346 2.5329 57.6862C2.59236 57.7375 2.63848 56.694 2.59515 56.3739C2.55141 56.0541 2.36526 56.0433 2.40234 56.6958ZM2.16504 64.0368C2.23434 64.9925 2.58912 63.4297 2.58746 63.2219C2.56892 61.3958 2.27737 64.091 2.16504 64.0368ZM1.62506 100.141C1.80528 102.447 2.11846 100.76 2.30603 99.3154C2.26791 99.1246 2.22973 98.9289 2.19196 98.7408C2.42363 99.6074 2.65261 101.126 2.45069 97.7473C2.39617 99.5967 2.33393 98.048 2.32086 98.0361C1.89532 97.8324 2.09295 100.572 1.62506 100.139C1.62506 100.139 1.62506 100.14 1.62506 100.141ZM2.50378 53.5875C2.50237 52.5839 2.42886 49.9748 2.24341 51.1921C2.33018 51.9915 2.41701 52.7881 2.50378 53.5875ZM1.64996 137.891C1.54393 138.711 1.54574 139.467 1.55273 140.478C1.70705 139.568 1.72478 140.166 1.76257 140.473C1.81947 140.939 1.8148 139.811 1.8252 139.808C1.97182 139.828 1.99459 140.548 1.99109 138.91C2.04216 139.315 2.09363 139.714 2.14435 140.119C2.15101 138.871 2.24666 138.577 2.36353 137.786C2.07798 138.554 2.25677 137.542 2.11469 136.624C2.04355 136.166 1.7042 137.474 1.64996 137.894C1.64996 137.893 1.64996 137.892 1.64996 137.891ZM1.56775 102.524C1.61919 102.761 1.68877 102.978 1.74756 103.208C1.75316 103.458 1.75807 103.708 1.76367 103.959C1.71819 103.99 1.67062 104.015 1.62689 104.052C1.61365 104.381 1.67697 104.253 1.68292 104.351C1.68268 104.351 1.68243 104.351 1.68219 104.351C1.76614 105.756 1.7567 106.331 1.61609 107.432C1.75543 107.432 1.89478 107.432 2.03412 107.432C2.02083 107.185 2.00787 106.935 1.99493 106.687C1.92006 106.556 1.84514 106.424 1.77026 106.292C1.81156 106.006 1.85257 105.722 1.89386 105.436C1.86694 105.207 1.8386 104.931 1.81238 104.732C2.20185 103.59 1.93726 106.187 2.09894 106.21C2.20287 106.225 2.19833 103.61 2.12659 103.233C2.11609 103.179 1.82607 103.744 1.97717 102.788C2.00097 102.638 2.62841 102.586 2.12036 101.554C2.04829 101.407 1.6585 101.92 1.56775 102.524ZM1.36542 112.019C1.7668 110.549 1.34237 115.975 1.67267 113.633C1.85707 114.301 1.85467 114.177 2.01837 113.504C2.03305 113.445 2.08371 113.91 2.09015 113.871C2.18044 113.241 2.13257 112.483 2.29669 112.478C2.28795 112.308 2.28017 112.148 2.27143 111.978C2.11678 112.686 2.01284 111.559 1.88232 111.123C1.82321 110.925 1.80497 111.381 1.75323 111.214C1.73434 111.152 1.77206 110.515 1.7179 110.489C1.59541 110.435 1.42989 110.835 1.3396 111.513C1.33948 111.513 1.33935 111.513 1.33923 111.513C1.34728 111.683 1.35702 111.849 1.36542 112.019ZM1.69885 80.5975C1.92072 80.3474 1.98423 79.3444 2.09271 81.2712C2.13641 81.1759 2.17975 81.0777 2.22345 80.9823C2.2196 80.6575 2.21578 80.3426 2.21228 80.0126C1.55864 79.0222 2.29629 77.2144 1.8327 78.3723C1.78231 78.4987 1.83861 79.2693 1.70178 78.5085C1.70166 78.5095 1.70154 78.5106 1.70141 78.5116C1.74341 79.5739 1.82202 79.7078 1.69885 80.5975ZM1.85358 87.7085C2.32041 90.1589 2.11406 84.3226 1.99017 85.2976C1.97898 85.3854 2.07929 87.8994 1.85358 87.7085ZM1.44726 68.0468C1.43922 69.1452 1.6911 69.218 1.7818 69.1073C1.87278 68.9964 1.78084 68.2357 1.79516 68.1376C1.84241 67.8177 1.87361 68.4961 1.93835 68.0808C1.95938 67.9433 2.04918 66.0299 2.03833 65.9423C1.97808 65.4555 1.77025 66.1671 1.74646 66.0279C1.66846 65.574 1.77658 64.9577 1.66607 64.826C1.43029 64.5424 1.6778 65.6915 1.68182 65.8855C1.69302 66.471 1.56028 66.4199 1.53369 66.8583C1.50714 67.2965 1.55262 67.5828 1.54321 67.9694C1.54007 68.098 1.4481 67.9911 1.44726 68.0468ZM1.97919 71.6791C1.78852 70.5318 1.58115 73.3254 1.62579 73.6568C1.75842 74.6317 2.07017 72.2285 1.97919 71.6791ZM1.97113 108.338C1.83291 107.289 1.72103 109.733 1.77667 110.432C1.83411 110.303 2.01871 108.699 1.97113 108.338ZM1.62579 99.5011C1.66884 100.466 1.98024 99.1864 1.97534 98.3817C1.77069 97.91 1.81125 98.3539 1.80286 98.88C1.79438 99.4055 1.59226 98.7485 1.62579 99.5011ZM1.67486 56.1315C1.67161 56.3396 1.84077 59.6938 1.91107 57.7666C1.91632 57.6196 1.88653 55.2717 1.85504 55.0937C1.79134 54.7356 1.68396 55.5951 1.67486 56.1315ZM1.32348 94.8742C1.50052 95.3848 1.49814 95.8873 1.70599 95.4179C1.70599 95.4172 1.70599 95.4165 1.70599 95.4158C1.76965 96.7079 1.34441 96.7651 1.35351 97.0437C1.38543 98.018 1.68809 97.0949 1.78748 97.706C1.69405 96.285 1.89812 96.6925 1.91107 95.6118C1.91387 95.3694 1.792 94.3992 1.71606 94.2573C1.64009 94.1157 1.41237 94.6112 1.32348 94.8742ZM1.63073 51.3932C1.5629 52.5254 1.84982 53.562 1.89532 51.9916C1.91772 51.2255 1.67203 50.702 1.63073 51.3932ZM1.55896 164.569C1.63419 164.396 1.7091 164.218 1.78363 164.032C1.80182 164.45 1.82039 164.868 1.83893 165.286C1.81513 164.956 1.7917 164.625 1.76825 164.292C1.74201 165.076 1.60516 165.435 1.55896 164.571C1.55896 164.57 1.55896 164.569 1.55896 164.569ZM1.50165 192.484C1.42921 192.834 1.65353 193.526 1.67102 193.438C1.80142 192.778 1.60209 191.997 1.50165 192.484ZM1.28979 109.889C1.25841 111.193 1.62314 110.296 1.64813 109.496C1.57838 109.986 1.30763 109.148 1.28979 109.889ZM1.51941 182.667C1.55077 182.55 1.58212 182.432 1.61353 182.3C1.56993 182.713 1.5406 182.784 1.51941 182.667ZM1.35278 56.6648C1.32479 56.864 1.30168 58.3363 1.3363 58.5352C1.40909 58.9479 1.61045 57.7997 1.54852 57.1239C1.54187 57.0491 1.38078 56.4668 1.35278 56.6679C1.35278 56.6669 1.35278 56.6659 1.35278 56.6648ZM1.41925 166.333C1.42274 166.331 1.42607 166.332 1.42914 166.336C1.42589 166.334 1.42252 166.335 1.41925 166.333ZM1.04865 221.792C1.05431 221.784 1.05992 221.78 1.06531 221.781C1.06002 221.784 1.05445 221.79 1.04865 221.792ZM1.04315 67.0492C0.695644 67.5392 0.880476 68.6689 1.0523 67.7765C1.06133 67.7266 1.04246 67.168 1.04315 67.0492Z" fill="#419DDF"/>
</svg>
