<svg width="4" height="272" viewBox="0 0 4 272" fill="none" xmlns="http://www.w3.org/2000/svg">
<path d="M0.141591 104.171C0.174436 93.2061 0.172557 81.202 0.273454 70.194C0.285805 68.8426 0.38621 68.9353 0.40091 68.5562C0.441435 67.5198 0.324905 66.8953 0.336419 66.1398C0.391992 62.4673 0.421792 59.0318 0.473256 55.4288C0.526175 51.7174 0.832848 53.4742 0.913905 52.1849C1.07263 49.6657 0.656337 51.8075 0.568314 50.8167C0.603491 47.9282 0.658506 45.0141 0.713997 42.1205C0.749514 42.8271 0.784219 43.5338 0.81691 44.2482C0.829976 42.987 0.899683 41.182 0.998599 43.2945C1.02972 42.8278 1.06571 42.3922 1.09618 41.9125C0.947951 41.7804 0.944247 39.5473 0.856838 39.3428C0.769404 39.1388 0.785026 40.3943 0.777355 40.3866C0.667823 40.3029 0.837011 35.1533 0.850632 34.782C0.88685 33.8002 1.06803 34.6617 1.05925 33.8264C1.04426 32.3897 0.665611 33.3454 1.17148 31.4025C1.01234 30.6282 1.09672 30.561 1.11156 29.5814C1.11344 29.4524 1.01927 29.5522 1.01703 29.4954C0.952895 28.0123 1.12311 29.1528 1.13259 29.1451C1.2936 29.011 1.22813 27.4194 1.24476 27.0843C1.45208 22.8784 1.5933 19.7967 1.65415 15.3581C1.66715 14.3987 1.61283 11.4759 1.64356 10.5475C1.67388 9.63184 1.78772 10.1236 1.84502 9.64453C1.56964 8.87531 1.54167 8.14227 1.73134 6.41818C1.53077 5.7753 1.69417 5.85843 1.65812 4.62802C1.62828 3.60391 1.39143 1.81836 1.6031 0.692108C1.57942 1.98422 1.67961 1.8508 1.73443 3.30573C1.75257 3.79001 1.73816 8.83975 1.94698 8.46475C2.05583 8.26907 1.96271 6.59518 1.98288 6.53052C2.10046 6.15442 2.23978 7.08902 2.18668 7.91678C2.164 7.7103 2.14113 7.46167 2.1185 7.23978C1.9664 9.09885 2.52891 7.82208 2.03624 9.23361C1.9758 9.40823 1.91371 9.34018 1.84911 9.62805C1.87517 9.68738 1.94161 9.33514 1.95216 9.63873C1.96278 9.94846 1.83692 10.5359 1.94083 10.6239C2.09192 10.7556 2.03693 9.47247 2.04615 9.37604C2.04524 9.37503 2.04433 9.37393 2.04342 9.37292C2.12705 8.51971 2.12964 10.3022 2.14367 10.3874C2.23607 10.9391 2.31019 10.5634 2.38514 11.3911C2.42784 11.8632 2.39719 13.0655 2.4099 13.5091C2.42298 13.9499 2.49722 13.2645 2.51152 13.5611C2.52581 13.8578 2.46997 14.2268 2.48653 14.575C2.49384 14.7242 2.57384 14.7168 2.57637 14.7889C2.60428 15.5626 2.43981 15.0546 2.44737 15.7561C2.45243 16.2106 2.60186 17.7366 2.65194 16.6854C2.66616 17.1908 2.67612 17.6837 2.68686 18.1866C2.71182 17.8695 2.7292 17.5418 2.75832 17.2325C2.71673 18.1786 2.852 18.6072 2.85999 19.2003C2.86795 19.7935 2.70175 20.3247 2.77944 20.9775C2.94472 22.3709 2.87873 18.9218 2.91076 18.4938C2.92335 18.3269 3.04962 18.9682 3.05293 19.0669C3.0674 19.5052 2.97349 20.0234 2.97637 20.3613C2.98729 21.571 3.10596 22.3121 3.12621 23.465C3.19498 27.3909 3.24451 32.2609 3.25736 35.9803C3.26204 37.3654 3.12244 38.1983 3.12399 38.8199C3.12773 40.2743 3.24603 40.4529 3.24767 41.7214C3.25048 43.6095 3.13679 46.2688 3.10857 47.8447C3.08914 48.9356 3.20061 49.9237 3.20237 50.2075C3.22908 54.1513 3.20875 58.9489 3.19806 62.2168C3.19308 63.7537 3.061 64.4832 3.06363 64.8005C3.07468 66.1649 3.18665 65.7995 3.17139 66.9055C3.16324 67.503 3.05664 67.6143 3.0522 67.6943C3.0146 68.3983 3.15274 68.539 3.15526 69.0884C3.16981 72.2478 3.0678 75.2908 3.04293 78.4191C3.04105 78.6461 2.97969 78.6258 2.9823 78.7728C2.99504 79.4042 3.09286 79.111 3.09745 79.7708C3.10742 81.143 3.08623 82.552 3.0686 84.0066C3.06686 84.1507 2.98766 84.2152 2.98641 84.5448C2.98519 84.8749 3.05912 85.1255 3.05302 85.6438C3.03717 86.9979 2.94269 88.3338 2.93249 89.7678C2.93091 90.0051 3.02495 90.2995 3.02259 90.6553C3.01531 91.7721 2.92285 93.4254 2.91616 94.3823C2.89469 97.5392 2.93806 100.452 2.92776 103.426C2.92514 104.124 2.83472 104.743 2.83127 105.107C2.82372 105.927 2.90928 105.308 2.90656 106.139C2.88357 112.922 2.82053 119.731 2.8018 126.595C2.79429 129.29 2.86832 132.571 2.83489 135.176C2.82073 136.259 2.70487 136.455 2.70099 137.221C2.69457 138.588 2.84125 138.836 2.85064 140.278C2.85793 141.428 2.7057 142.746 2.71037 143.943C2.71505 145.139 2.85613 145.692 2.86819 147.067C2.87799 148.199 2.8072 149.78 2.81314 151.013C2.86795 162.31 2.8856 173.435 2.73159 184.801C2.67722 188.811 2.68132 193.261 2.52531 197.406C2.51056 197.795 2.37454 197.199 2.39896 198.447C2.41223 199.118 2.52787 200.054 2.5281 201.604C2.52902 210.82 2.23791 220.649 2.25365 230.02C2.27769 244.056 3.20748 258.607 1.7231 270.799C1.65021 271.397 1.30504 271.071 1.20797 270.712C1.27953 270.38 1.36419 270.073 1.4449 269.725C1.01375 269.285 1.12614 269.362 1.17099 267.738C1.19881 266.738 1.01077 267.536 0.960209 267.003C0.894874 266.311 0.693101 263.065 0.977402 263.69C0.928455 263.489 0.881538 263.303 0.833622 263.107C0.798916 260.757 0.7356 258.474 0.661862 256.175C0.648955 255.778 0.559091 255.76 0.546262 255.35C0.511155 254.248 0.573468 253.374 0.568567 252.239C0.565947 251.623 0.462341 251.537 0.471975 250.73C0.481649 249.923 0.621872 249.941 0.47347 248.84C0.294797 249.556 0.434346 246.358 0.427709 245.221C0.42692 245.055 0.273793 243.701 0.29463 242.981C0.315146 242.259 0.420219 241.164 0.367006 240.047C0.341997 239.523 0.220019 239.205 0.215102 238.64C0.211672 238.243 0.322903 237.766 0.329325 237.263C0.335731 236.76 0.249895 235.672 0.249152 235.473C0.245864 234.753 0.319891 235.547 0.325587 235.055C0.351867 232.68 0.403317 229.92 0.360194 227.578C0.35498 227.29 0.262832 227.688 0.259951 227.65C0.155924 225.695 0.270208 226.739 0.353346 226.211C0.433741 225.7 0.404752 221.959 0.247226 221.931C0.445039 221.816 0.297352 220.984 0.292357 220.768C0.273091 219.927 0.443259 220.093 0.39345 219.278C0.375318 218.979 0.257733 219.56 0.262305 219.239C0.273641 218.445 0.461727 217.731 0.484198 216.673C0.489691 216.418 0.407393 216.335 0.411871 215.881C0.416394 215.426 0.524496 213.522 0.347033 214.4C0.490913 213.245 0.41515 213.012 0.423968 211.668C0.4264 211.328 0.561139 210.89 0.522543 210.166C0.509441 209.921 0.381101 209.927 0.381415 209.559C0.38177 208.715 0.517537 207.921 0.526743 206.851C0.544288 204.85 0.45879 202.719 0.49975 200.632C0.510971 200.065 0.639455 200.207 0.644998 199.382C0.645447 199.261 0.537557 198.267 0.550154 197.697C0.557722 197.354 0.642699 195.577 0.650324 195.219C0.662613 194.626 0.538234 194.52 0.563837 194.195C0.637648 193.257 0.818523 194.01 0.571448 192.88C0.712099 192.509 0.700607 191.849 0.872857 191.638C0.686371 191.253 0.868752 190.755 0.808565 190.01C0.74833 189.264 0.386648 188.651 0.778909 188.472C0.732604 188.124 0.656866 186.64 0.651842 186.39C0.637787 185.653 0.744648 186.047 0.732073 185.491C0.729986 185.393 0.655539 185.495 0.665167 184.866C0.671592 184.454 0.687317 181.43 0.698134 181.25C0.821711 179.19 0.767441 182.372 0.84596 182.818C0.824614 182.897 0.803201 182.974 0.782083 183.058C0.743742 183.968 0.912994 183.451 0.953363 183.038C0.993721 182.626 0.922026 181.854 0.978234 181.512C1.00645 181.341 1.20668 181.447 1.18054 181.964C1.24438 181.411 1.30684 182.167 1.36572 181.948C1.43028 181.708 1.45907 179.223 1.34857 179.209C1.343 179.673 1.34468 180.251 1.3384 180.721C1.14401 181.334 0.494795 179.467 0.763231 177.758C0.957479 176.518 1.10073 178.563 0.952382 175.628C0.943013 176.079 0.923658 176.461 0.914094 176.871C0.769851 176.914 0.930736 176.25 0.886167 175.906C0.864365 175.742 0.758585 176.757 0.727896 175.875C0.936737 175.117 0.731644 174.533 0.733896 173.262C0.769334 173.615 0.804583 173.969 0.840021 174.323C0.997389 172.175 1.02823 177.165 1.12731 172.988C1.13209 173.49 1.12847 173.991 1.13675 174.496C1.21325 174.251 1.43373 174.644 1.48143 174.425C1.60664 173.85 1.53559 172.999 1.54899 172.298C1.55468 171.991 1.61389 172.182 1.61434 172.156C1.62253 171.736 1.53436 171.828 1.53012 171.459C1.52484 170.995 1.61519 169.655 1.60626 169.438C1.58349 168.875 1.40671 169.811 1.39396 169.757C1.31133 169.398 1.38366 168.666 1.2737 168.704C1.34276 170.466 1.22697 175.543 1.06234 170.949C0.880232 172.215 0.636977 171.848 0.624457 170.027C0.613929 168.521 0.708345 169.493 0.819029 168.709C0.832897 168.608 0.891892 166.591 0.816076 166.487C0.991269 166.569 1.14911 165.913 1.32854 166.354C1.35489 166.419 1.34134 167.246 1.48799 166.958C1.56165 166.814 1.72234 166.4 1.81518 166.467C1.75108 166.297 1.67892 166.118 1.61203 165.945C1.59772 164.705 1.66811 164.529 1.79135 163.851C1.74084 163.882 1.52677 164.508 1.59468 163.556C1.59871 163.507 1.67487 163.465 1.71436 162.982C1.79355 162.005 1.81781 161.801 2.03822 162.552C1.9184 160.527 2.16876 160.092 2.1037 158.016C1.81527 158.428 1.8836 159.158 1.93186 161.059C1.86332 161.141 1.79564 161.179 1.72639 161.264C1.89041 158.735 1.87003 159.985 1.73679 158.551C1.70414 158.2 1.74738 156.33 1.5519 156.953C1.5059 157.101 1.50684 158.263 1.43567 158.129C1.42212 158.103 1.39264 156.691 1.41161 156.566C1.6459 155.004 1.79484 157.798 1.72748 153.493C1.72547 153.374 1.6421 153.332 1.63133 153.101C1.61125 152.665 1.70803 152.66 1.68714 152.27C1.66618 151.881 1.53804 151.341 1.66051 150.756C1.88354 149.686 2.0002 152.212 1.87985 153.336C2.16443 153.793 2.20044 145.759 2.17778 145.261C2.07911 143.087 2.12733 146.705 2.04724 146.891C2.01337 146.968 1.58768 146.928 1.86061 147.844C1.94149 148.115 2.05357 146.984 2.09622 147.659C2.13886 148.335 2.01447 148.067 2.00554 148.116C1.97493 148.284 2.01876 149.003 2.00064 149.096C1.72552 150.529 1.3183 150.396 1.92759 148.497C1.79452 147.669 1.57052 149.569 1.48194 148.539C1.37427 147.288 1.57183 146.376 1.58116 146.218C1.69167 144.334 1.40017 146.506 1.49925 144.204C1.55438 142.923 1.6808 146.123 1.67308 143.196C1.6664 140.746 1.56283 142.068 1.33917 141.89C1.28684 141.847 1.22745 140.505 1.24378 142.333C1.30202 142.385 1.37866 142.483 1.43213 142.599C1.38781 143.047 1.09259 143.794 1.08149 144.031C1.02855 145.194 1.18055 145.139 0.999235 145.824C1.19662 145.335 1.07582 146.132 1.11601 146.431C1.26409 147.543 1.32605 146.086 1.12125 148.579C1.21414 148.254 1.30521 147.961 1.39771 147.646C1.39976 147.946 1.40187 148.245 1.40392 148.544C1.20035 148.989 1.2203 150.579 1.02232 149.139C0.958188 150.869 0.999618 151.569 1.1553 151.949C1.18502 152.021 1.19605 152.281 1.1978 152.586C1.24219 152.529 1.37894 152.455 1.3955 152.503C1.54111 152.935 1.28434 153.601 1.18812 153.373C1.18268 153.587 1.17661 153.756 1.17403 153.816C1.15756 154.194 1.07253 153.452 1.04131 153.759C1.03115 153.86 1.04631 154.926 1.01055 154.947C0.781312 155.075 0.952846 153.32 0.806871 156.844C1.01478 156.93 0.975047 155.293 1.19466 155.714C1.43059 156.166 1.10847 157.086 1.39923 157.288C1.35103 157.363 1.31094 157.396 1.25614 157.46C1.37788 158.886 1.13502 158.904 1.07981 159.34C0.972049 160.186 0.97338 164.075 1.19661 160.584C1.21572 161.094 1.22351 161.616 1.24017 162.124C0.804503 162.238 0.978882 161.929 0.903349 164.377C0.886659 164.916 0.694585 165.091 0.919992 165.62C0.697233 165.547 0.826072 167.142 0.798456 167.291C0.618914 168.244 0.387007 164.7 0.782976 164.247C0.631673 163.649 0.834601 163.652 0.810171 162.984C0.774894 162.019 0.735867 161.885 0.889879 160.74C0.683027 159.612 0.780721 165.152 0.513179 161.793C0.245662 158.433 0.161834 138.873 0.136712 134.31C0.0913404 126.043 0.0577776 121.697 0.0978327 114.271C0.101591 113.539 0.101804 108.009 0.341408 109.159C0.375792 109.324 0.459739 111.703 0.658698 109.664C0.544145 110.078 0.475194 108.879 0.463669 108.778C0.202051 106.469 0.130953 107.805 0.141591 104.171ZM2.35635 93.4053C2.28317 98.1481 2.45908 94.6642 2.82357 95.6509C2.82688 95.0421 2.83013 94.4357 2.83343 93.827C2.80975 93.9867 2.78614 94.1445 2.76245 94.3044C2.76245 94.305 2.76245 94.3057 2.76244 94.3064C2.62709 94.0067 2.4917 93.705 2.35635 93.4053ZM2.88952 15.8702C2.93731 16.0555 2.9852 16.2385 3.03188 16.4392C3.01452 17.0658 2.99744 17.69 2.98008 18.3166C2.94747 18.2417 2.91445 18.1693 2.88184 18.0944C2.88598 17.3531 2.89024 16.6141 2.88952 15.8702ZM1.93069 153.999C1.79269 154.886 2.03339 154.807 1.9195 155.985C2.09744 155.841 2.27158 155.682 2.4478 155.53C2.42486 154.633 2.35815 154.429 2.40512 153.454C2.34768 153.567 2.28989 153.683 2.23211 153.794C2.24374 153.956 2.25702 154.129 2.26727 154.286C2.10679 154.536 2.08874 152.978 1.93033 153.996C1.93045 153.997 1.93057 153.998 1.93069 153.999ZM1.96848 163.091C1.94362 163.568 1.8498 165.458 1.92233 165.717C2.16826 166.592 2.02986 161.258 2.23684 165.189C2.27187 165.172 2.30606 165.19 2.34066 165.19C2.35556 164.473 2.36875 163.758 2.38122 163.036C2.24322 163.074 2.1072 163.048 1.96848 163.091ZM2.30829 110.56C2.28639 111.294 2.39066 114.79 2.55267 113.651C2.6001 113.316 2.38014 111.754 2.39213 111.161C2.39987 110.777 2.52205 111.208 2.47936 110.449C2.42468 110.483 2.36412 110.503 2.30865 110.562C2.30853 110.562 2.30841 110.561 2.30829 110.56ZM1.59323 109.182C1.61247 109.941 1.63756 110.709 1.65818 111.473C1.80124 110.916 1.71473 109.82 1.91338 109.756C1.92765 109.965 1.94184 110.172 1.95611 110.381C1.91214 110.54 1.86813 110.697 1.82417 110.855C1.92953 111.51 1.98455 111.113 1.94889 112.333C2.25152 111.597 2.413 111.46 2.11732 109.37C2.27858 109.765 2.81016 109.396 2.43554 108.236C2.366 108.02 2.31566 108.924 2.30442 108.934C2.16467 109.073 2.07767 108.571 1.94559 108.72C1.88585 108.786 1.88472 109.338 1.80182 109.421C1.76139 109.458 1.64839 108.933 1.59323 109.182ZM2.30487 107.674C2.38833 107.909 2.59143 107.107 2.55344 106.411C2.49446 105.325 2.29778 107.037 2.30487 107.674ZM2.88935 15.8661C2.8894 15.8675 2.88946 15.8689 2.88952 15.8702C2.88934 15.8696 2.88916 15.8689 2.88897 15.8682C2.8891 15.8675 2.88922 15.8668 2.88935 15.8661ZM2.07517 160.631C2.14479 161.194 2.13126 162.026 2.24547 161.965C2.22207 162.238 2.199 162.514 2.1756 162.788C2.20988 162.785 2.24424 162.78 2.27817 162.778C2.30256 161.955 2.32701 161.135 2.35174 160.312C2.25968 160.415 2.1673 160.51 2.07517 160.631ZM1.96219 169.594C1.94684 170.628 2.10513 169.761 2.17918 169.988C2.25323 170.216 2.1889 171.137 2.29673 171.029C2.30319 170.42 2.30975 169.785 2.31588 169.169C2.1984 169.331 2.07893 169.444 1.96219 169.596C1.96219 169.595 1.96219 169.594 1.96219 169.594ZM2.55006 74.0483C2.51386 74.7496 2.39658 74.4629 2.53003 75.8485C2.53004 75.8475 2.53004 75.8464 2.53005 75.8454C2.63184 74.5278 2.72449 72.8316 2.63611 71.3767C2.50797 72.2659 2.60662 72.9448 2.55006 74.0483ZM2.28894 151.547C2.19626 151.251 2.11284 152.63 2.19885 152.935C2.33805 153.428 2.42969 151.999 2.28894 151.547ZM1.82427 45.7116C1.53953 44.6435 1.20801 46.6642 1.34013 48.7821C1.3517 48.9653 1.44856 47.5986 1.50341 48.0038C1.5088 48.0447 1.49915 48.7951 1.53861 48.9809C1.57817 49.1667 1.6723 48.9721 1.71037 49.2766C1.7769 49.8109 1.64551 51.0173 1.73395 51.4173C1.74581 51.47 1.8735 50.722 1.87842 50.6751C1.95685 49.9068 1.79628 49.1656 1.79564 49.0468C1.7923 48.4355 1.91999 48.5284 1.95065 48.3737C2.00833 48.0825 1.95364 47.5691 1.95797 47.533C2.07369 46.6057 2.03372 48.7253 2.07885 49.0118C2.20058 49.7833 2.31903 49.0698 2.38253 50.9194C2.3885 51.095 2.37321 53.197 2.52636 50.5485C2.80595 55.7511 2.706 47.9355 2.64335 47.0868C2.61429 46.6955 2.49007 47.2873 2.43602 47.0499C2.31241 46.5078 2.29367 45.5844 2.11631 45.6663C1.74339 45.843 1.98282 47.0565 1.9171 47.8918C1.83658 47.8039 1.75786 47.7701 1.67938 47.6073C1.78484 47.8578 1.84571 45.7891 1.825 45.7116C1.82475 45.7116 1.82451 45.7116 1.82427 45.7116ZM2.20093 58.8809C2.08427 60.0489 2.31957 59.9671 2.18124 61.0369C2.38875 61.9817 2.38147 60.1198 2.39417 59.9029C2.45102 58.9128 2.68038 58.9365 2.61353 57.923C2.47648 58.2707 2.33825 58.5539 2.20093 58.8809ZM2.33537 48.7187C2.45146 49.5005 2.45461 48.1022 2.47757 48.0456C2.72119 47.4289 2.65881 51.616 2.33537 48.7187ZM1.81869 115.11C1.80917 115.507 1.92403 115.256 1.95638 115.606C1.98902 115.956 1.88709 117.155 1.95809 117.125C2.02924 117.095 2.2216 114.898 2.25334 117.104C2.29349 117.029 2.32314 117.055 2.3593 117.019C2.3626 116.412 2.3666 115.801 2.36989 115.195C2.25389 115.527 2.13189 115.867 2.01979 116.187C1.92971 115.846 2.04757 115.655 2.04764 115.637C2.04751 115.637 2.04739 115.637 2.04727 115.637C2.04043 115.003 1.83988 114.219 1.81869 115.11ZM2.29187 83.8542C2.0071 83.7344 2.32217 84.6718 2.35609 85.0562C2.38989 85.4406 2.28236 85.9682 2.40582 85.7703C2.4928 85.149 2.32365 83.8672 2.29151 83.8541C2.29163 83.8542 2.29175 83.8542 2.29187 83.8542ZM2.178 65.2285C2.24361 66.2081 2.31834 66.0529 2.2293 67.2507C2.29842 67.2045 2.36903 67.1584 2.43709 67.1122C2.44201 66.1606 2.24164 66.2266 2.32615 65.1259C2.34012 64.9454 2.49854 65.3326 2.45017 64.5177C2.36397 64.7544 2.26839 64.9943 2.178 65.2285ZM2.41567 70.0832C2.4093 68.9587 1.85475 68.0648 2.0987 70.1367C2.13517 70.4438 2.42059 70.929 2.41567 70.0832ZM1.84294 104.737C1.81979 106.65 1.91785 104.477 2.00542 103.979C2.05752 108.433 1.98381 103.477 2.27057 103.033C2.1914 102.489 2.00949 101.47 1.95558 102.601C1.93319 103.073 2.01873 102.901 2.01827 102.929C1.99405 103.798 1.85556 103.692 1.84294 104.737ZM2.1947 56.8506C2.19863 56.9229 2.29536 56.8102 2.31375 57.0398C2.33201 57.2698 2.26269 57.7897 2.32159 57.8414C2.38087 57.893 2.43085 56.8497 2.3887 56.5294C2.34614 56.2095 2.16003 56.198 2.1947 56.8506ZM1.93025 64.1908C1.99602 65.1468 2.35658 63.5852 2.35569 63.3774C2.34389 61.5511 2.04239 64.2454 1.93025 64.1908ZM1.25677 100.293C1.42847 102.599 1.74788 100.913 1.94079 99.4698C1.90337 99.2789 1.86592 99.0831 1.82884 98.8948C2.0573 99.7623 2.28067 101.282 2.09124 97.9023C2.02989 99.7515 1.97337 98.2026 1.96035 98.1906C1.53557 97.9853 1.72306 100.726 1.25678 100.291C1.25678 100.291 1.25677 100.292 1.25677 100.293ZM2.30764 53.7427C2.30993 52.7391 2.24607 50.1297 2.05612 51.3463C2.13993 52.146 2.22382 52.943 2.30764 53.7427ZM1.14208 138.043C1.03302 138.863 1.03203 139.619 1.03529 140.63C1.19297 139.72 1.20849 140.319 1.24514 140.626C1.30032 141.091 1.29982 139.964 1.31023 139.96C1.45677 139.982 1.47688 140.701 1.47944 139.064C1.52901 139.468 1.579 139.868 1.62823 140.273C1.6395 139.025 1.73624 138.732 1.85603 137.94C1.56764 138.708 1.75017 137.697 1.61149 136.778C1.54205 136.319 1.19786 137.626 1.14207 138.046C1.14208 138.045 1.14208 138.044 1.14208 138.043ZM1.19065 102.675C1.24121 102.913 1.30999 103.13 1.36793 103.36C1.3726 103.61 1.37659 103.861 1.38126 104.111C1.33567 104.142 1.28801 104.168 1.24414 104.204C1.22969 104.533 1.29348 104.405 1.29907 104.503C1.29882 104.503 1.29858 104.503 1.29833 104.503C1.37708 105.908 1.36552 106.484 1.22084 107.584C1.36018 107.585 1.49952 107.585 1.63887 107.586C1.62649 107.338 1.61446 107.088 1.60244 106.841C1.52805 106.709 1.45362 106.577 1.37923 106.445C1.42158 106.159 1.46364 105.875 1.50599 105.589C1.47991 105.359 1.4526 105.084 1.42711 104.885C1.82081 103.744 1.54662 106.34 1.70821 106.363C1.81208 106.379 1.81721 103.764 1.74686 103.387C1.73656 103.333 1.44446 103.897 1.59909 102.941C1.62344 102.792 2.25108 102.741 1.74685 101.708C1.67531 101.561 1.28363 102.072 1.19065 102.675ZM0.953207 112.17C1.36002 110.701 0.915534 116.126 1.25449 113.785C1.43641 114.454 1.43447 114.33 1.60067 113.658C1.61556 113.599 1.6645 114.064 1.67109 114.024C1.7637 113.395 1.71864 112.637 1.88278 112.632C1.87467 112.462 1.86748 112.302 1.85936 112.132C1.70209 112.84 1.60233 111.713 1.47342 111.276C1.41504 111.078 1.39512 111.534 1.344 111.367C1.32534 111.305 1.36541 110.668 1.31134 110.641C1.18906 110.587 1.02205 110.986 0.929259 111.664C0.929137 111.664 0.929015 111.664 0.928892 111.664C0.936309 111.834 0.945445 112 0.953207 112.17ZM1.40283 80.7498C1.62562 80.5004 1.69284 79.4978 1.7942 81.4249C1.83825 81.3297 1.88195 81.2317 1.926 81.1365C1.92336 80.8116 1.9207 80.4968 1.91842 80.1667C1.26844 79.1739 2.01277 77.3689 1.54491 78.525C1.49405 78.6512 1.5475 79.4221 1.41348 78.6607C1.41336 78.6617 1.41323 78.6628 1.41311 78.6638C1.45118 79.7263 1.52929 79.8604 1.40283 80.7498ZM1.53126 87.8613C1.98903 90.3134 1.80426 84.4764 1.67677 85.4509C1.66525 85.5386 1.75627 88.053 1.53126 87.8613ZM1.19765 68.1981C1.18554 69.2965 1.43715 69.3702 1.52826 69.2598C1.61965 69.1492 1.53053 68.3882 1.54522 68.2901C1.59364 67.9705 1.62234 68.6489 1.68861 68.2339C1.71015 68.0965 1.80702 66.1834 1.7965 66.0957C1.73805 65.6087 1.52759 66.3196 1.50431 66.1803C1.42799 65.7261 1.53839 65.1101 1.42837 64.9781C1.19364 64.6936 1.4369 65.8436 1.4402 66.0377C1.44924 66.6232 1.31669 66.5716 1.28847 67.0099C1.26031 67.448 1.30472 67.7345 1.29389 68.121C1.29027 68.2497 1.1987 68.1423 1.19765 68.1981ZM1.71614 71.8324C1.52971 70.6843 1.31202 73.4772 1.35544 73.8087C1.48446 74.7841 1.8051 72.3821 1.71614 71.8324ZM1.57253 108.491C1.43819 107.441 1.31727 109.886 1.37033 110.585C1.42825 110.455 1.61878 108.852 1.57253 108.491ZM1.25987 99.653C1.29935 100.618 1.61548 99.3397 1.61356 98.535C1.41065 98.0625 1.44957 98.5065 1.43923 99.0326C1.42881 99.5581 1.22912 98.9003 1.25987 99.653ZM1.46931 56.2836C1.46529 56.4917 1.62205 59.8466 1.69947 57.9196C1.70526 57.7726 1.68416 55.4245 1.65333 55.2465C1.59095 54.8882 1.48039 55.7472 1.46931 56.2836ZM0.974673 95.025C1.14982 95.5363 1.14558 96.0387 1.35517 95.5701C1.35517 95.5694 1.35517 95.5688 1.35518 95.568C1.41406 96.8604 0.988611 96.9161 0.99668 97.1946C1.02499 98.1691 1.33107 97.2471 1.42819 97.8586C1.34002 96.4372 1.54258 96.8454 1.55953 95.7648C1.56323 95.5224 1.44495 94.5517 1.36953 94.4096C1.29408 94.2677 1.06453 94.7623 0.974673 95.025ZM1.4427 51.5452C1.37069 52.6771 1.65377 53.7148 1.70508 52.1445C1.73031 51.3785 1.48656 50.8541 1.4427 51.5452ZM0.952432 164.721C1.0283 164.548 1.10387 164.37 1.17909 164.185C1.19573 164.603 1.21275 165.021 1.22975 165.439C1.20717 165.108 1.18496 164.778 1.16274 164.445C1.1336 165.229 0.995423 165.587 0.952424 164.723C0.952427 164.722 0.95243 164.721 0.952432 164.721ZM0.791898 192.635C0.718162 192.986 0.93992 193.678 0.957742 193.59C1.09057 192.93 0.894137 192.149 0.791898 192.635ZM0.885462 110.039C0.84926 111.343 1.2173 110.448 1.24525 109.649C1.17369 110.137 0.90604 109.299 0.885462 110.039ZM0.84596 182.818C0.877748 182.701 0.909542 182.583 0.94143 182.452C0.896302 182.865 0.866714 182.936 0.84596 182.818ZM1.14526 56.8158C1.11654 57.0148 1.08798 58.4871 1.12186 58.6861C1.19313 59.099 1.39873 57.9516 1.3393 57.2756C1.33293 57.2008 1.17399 56.6178 1.14525 56.8189C1.14525 56.8178 1.14525 56.8168 1.14526 56.8158ZM0.8062 166.484C0.809699 166.482 0.813025 166.483 0.816076 166.487C0.812828 166.486 0.80946 166.486 0.8062 166.484ZM0.230521 221.942C0.236208 221.934 0.241839 221.93 0.247226 221.931C0.241922 221.934 0.236331 221.94 0.230521 221.942ZM0.797229 67.199C0.447917 67.6878 0.62857 68.8181 0.803695 67.9263C0.81291 67.8764 0.796106 67.3178 0.797229 67.199Z" fill="#419DDF"/>
</svg>
