<svg width="4" height="232" viewBox="0 0 4 232" fill="none" xmlns="http://www.w3.org/2000/svg">
<path d="M0.524234 88.7636C0.516534 79.3587 0.470268 69.0622 0.530459 59.6197C0.537813 58.4604 0.638561 58.5396 0.651859 58.2144C0.688552 57.3254 0.569712 56.7901 0.578433 56.142C0.620425 52.9917 0.637521 50.0447 0.675662 46.9542C0.714857 43.7705 1.02802 45.2765 1.10431 44.1703C1.25372 42.0089 0.845352 43.8474 0.753666 42.9978C0.778161 40.52 0.8224 38.0203 0.867191 35.5381C0.90532 36.1441 0.942639 36.7502 0.977971 37.3628C0.986374 36.281 1.04941 34.7326 1.15613 36.5443C1.18553 36.1438 1.21991 35.77 1.2486 35.3585C1.09989 35.2457 1.08792 33.3303 0.99976 33.1551C0.911572 32.9803 0.931836 34.0573 0.924138 34.0507C0.814297 33.9792 0.964442 29.5616 0.976689 29.243C1.00928 28.4008 1.19364 29.1392 1.18177 28.4227C1.16147 27.1904 0.786357 28.0114 1.28504 26.3432C1.12304 25.6796 1.20717 25.6217 1.21839 24.7814C1.21979 24.6707 1.12599 24.7566 1.12354 24.7079C1.05392 23.436 1.22835 24.4137 1.2378 24.4071C1.39831 24.2916 1.32696 22.9266 1.34235 22.6391C1.53411 19.0308 1.66394 16.387 1.70838 12.5796C1.71783 11.7565 1.6527 9.24979 1.68 8.45332C1.70694 7.66785 1.82259 8.08928 1.87812 7.67817C1.5999 7.01916 1.56922 6.39054 1.75251 4.91111C1.54956 4.36025 1.71327 4.43111 1.67268 3.37581C1.63905 2.49746 1.39559 0.966648 1.6031 -6.01411e-05C1.5842 1.10835 1.6839 0.993564 1.74409 2.24137C1.76402 2.65675 1.76828 6.98813 1.97572 6.66585C2.08384 6.49772 1.98453 5.06214 2.00446 5.00666C2.12065 4.68364 2.26343 5.48489 2.21339 6.19509C2.18994 6.01808 2.16616 5.80482 2.14271 5.6146C1.99748 7.20967 2.55527 6.11279 2.06782 7.3251C2.00803 7.47502 1.94568 7.41687 1.88215 7.66401C1.90843 7.71478 1.97357 7.41249 1.98524 7.67286C1.997 7.93845 1.87331 8.44274 1.97755 8.51793C2.12913 8.63031 2.06939 7.53 2.07826 7.44721C2.07734 7.4463 2.07642 7.44542 2.07551 7.44456C2.15599 6.71247 2.16517 8.24139 2.17951 8.31439C2.27396 8.78735 2.34668 8.46483 2.42469 9.17452C2.46914 9.57938 2.44294 10.6107 2.45729 10.9912C2.47199 11.3693 2.5437 10.7811 2.55909 11.0354C2.57449 11.2899 2.52 11.6066 2.53785 11.9053C2.54572 12.0331 2.62569 12.0266 2.62849 12.0885C2.65926 12.752 2.49291 12.3168 2.50306 12.9185C2.50981 13.3084 2.66488 14.6167 2.71107 13.7149C2.72716 14.1484 2.73894 14.5711 2.75154 15.0024C2.77533 14.7304 2.79149 14.4493 2.81947 14.1839C2.78138 14.9955 2.91824 15.3627 2.92842 15.8714C2.93857 16.3802 2.77433 16.8363 2.85444 17.3961C3.02487 18.5908 2.94613 15.6325 2.97657 15.2653C2.98854 15.1221 3.11719 15.6717 3.12086 15.7564C3.13695 16.1323 3.04496 16.5771 3.04908 16.8669C3.06448 17.9045 3.1859 18.5398 3.2104 19.5287C3.29369 22.8959 3.36123 27.073 3.38783 30.2633C3.39763 31.4514 3.26112 32.1662 3.26497 32.6994C3.27408 33.9468 3.39304 34.0997 3.39937 35.1877C3.40917 36.8072 3.30531 39.0887 3.28291 40.4405C3.26751 41.3763 3.38264 42.2235 3.38545 42.4669C3.42674 45.8496 3.42415 49.9648 3.42555 52.7679C3.42625 54.0863 3.29687 54.7124 3.30067 54.9846C3.31677 56.1548 3.42738 55.841 3.41621 56.7898C3.41027 57.3023 3.30409 57.3981 3.29994 57.4667C3.26494 58.0707 3.40361 58.1909 3.40816 58.6622C3.43439 61.3722 3.34364 63.9826 3.33034 66.6661C3.32929 66.8607 3.26786 66.8435 3.27101 66.9696C3.28608 67.5111 3.38282 67.2593 3.38985 67.8253C3.40489 69.0022 3.38891 70.2108 3.37666 71.4586C3.37545 71.5822 3.29649 71.6378 3.29646 71.9205C3.29646 72.2037 3.37132 72.4184 3.36714 72.863C3.35629 74.0245 3.26675 75.1707 3.26185 76.4008C3.26115 76.6043 3.35628 76.8565 3.35524 77.1618C3.35209 78.1197 3.26574 79.5381 3.26259 80.3589C3.25279 83.0668 3.30693 85.565 3.30763 88.1159C3.30759 88.7153 3.21946 89.2464 3.21736 89.5582C3.21284 90.2613 3.29611 89.7308 3.29646 90.4431C3.29856 96.2617 3.2607 102.103 3.26735 107.99C3.2698 110.302 3.35596 113.116 3.33217 115.35C3.32201 116.279 3.20687 116.448 3.20582 117.105C3.20446 118.277 3.35206 118.49 3.36677 119.726C3.37832 120.713 3.23097 121.844 3.24006 122.87C3.24916 123.897 3.39229 124.37 3.40944 125.55C3.42342 126.521 3.35847 127.877 3.36897 128.934C3.46556 138.624 3.52435 148.166 3.41237 157.916C3.37282 161.357 3.39338 165.173 3.2527 168.729C3.23938 169.063 3.10116 168.552 3.1302 169.623C3.14595 170.198 3.26505 171.001 3.27101 172.33C3.306 180.235 3.05124 188.667 3.10164 196.705C3.17758 208.744 4.16117 221.222 2.72187 231.685C2.65119 232.198 2.30483 231.919 2.20643 231.612C2.27676 231.327 2.36028 231.063 2.43971 230.764C2.00693 230.388 2.11961 230.455 2.15846 229.061C2.18258 228.203 1.99749 228.888 1.94495 228.431C1.87706 227.838 1.66329 225.054 1.9499 225.589C1.90021 225.417 1.8526 225.258 1.80396 225.089C1.76057 223.074 1.68881 221.116 1.60657 219.145C1.5922 218.804 1.50227 218.788 1.48792 218.437C1.44874 217.492 1.50782 216.742 1.49872 215.769C1.49383 215.24 1.3899 215.167 1.39655 214.474C1.40324 213.782 1.54353 213.797 1.39106 212.853C1.21504 213.468 1.34276 210.725 1.33191 209.749C1.33052 209.607 1.17238 208.446 1.19056 207.829C1.2084 207.209 1.30942 206.269 1.25208 205.311C1.22514 204.862 1.10198 204.59 1.09498 204.105C1.09008 203.764 1.19954 203.355 1.20411 202.924C1.20865 202.492 1.1188 201.559 1.11731 201.388C1.11137 200.771 1.18833 201.452 1.1922 201.03C1.2097 198.993 1.25095 196.625 1.19916 194.616C1.19288 194.369 1.10221 194.711 1.09919 194.678C0.987931 193.002 1.10607 193.897 1.18726 193.444C1.26577 193.005 1.22294 189.796 1.06531 189.772C1.2627 189.674 1.11194 188.96 1.10615 188.775C1.08377 188.054 1.25455 188.195 1.20173 187.496C1.18249 187.24 1.06706 187.739 1.07044 187.464C1.07884 186.782 1.26428 186.169 1.28284 185.262C1.28739 185.043 1.20479 184.972 1.20759 184.583C1.21043 184.193 1.31149 182.559 1.13727 183.313C1.27688 182.322 1.20026 182.122 1.20411 180.97C1.20528 180.678 1.3384 180.302 1.29712 179.68C1.28312 179.47 1.1548 179.476 1.15375 179.16C1.15099 178.437 1.28382 177.755 1.28907 176.837C1.29921 175.12 1.20584 173.293 1.23908 171.503C1.2482 171.016 1.37721 171.138 1.37971 170.43C1.37971 170.326 1.26814 169.474 1.27863 168.985C1.28493 168.691 1.36334 167.167 1.36963 166.859C1.37973 166.351 1.25496 166.26 1.27936 165.981C1.3497 165.176 1.53336 165.822 1.28211 164.853C1.42139 164.534 1.40746 163.968 1.57893 163.787C1.39102 163.457 1.57156 163.03 1.50861 162.39C1.44562 161.751 1.08168 161.227 1.47327 161.072C1.42568 160.773 1.34446 159.501 1.33851 159.286C1.32172 158.654 1.43004 158.992 1.41541 158.514C1.41296 158.43 1.33889 158.518 1.3462 157.979C1.3511 157.625 1.35564 155.032 1.36579 154.877C1.48175 153.11 1.43925 155.84 1.51942 156.222C1.49836 156.289 1.47723 156.356 1.45643 156.428C1.42145 157.209 1.58879 156.764 1.62763 156.41C1.66646 156.056 1.59192 155.395 1.64686 155.101C1.67444 154.954 1.87507 155.045 1.85084 155.488C1.91263 155.014 1.97788 155.662 2.03596 155.474C2.09962 155.268 2.11922 153.136 2.00868 153.125C2.00483 153.523 2.00864 154.018 2.0041 154.421C1.81197 154.947 1.15586 153.348 1.41797 151.881C1.60764 150.817 1.75845 152.571 1.59925 150.054C1.59155 150.441 1.57361 150.769 1.56556 151.12C1.42148 151.158 1.5799 150.587 1.53406 150.293C1.51165 150.152 1.40963 151.023 1.37568 150.266C1.58172 149.616 1.37446 149.116 1.37202 148.025C1.40876 148.328 1.44532 148.632 1.48206 148.935C1.63149 147.092 1.68078 151.372 1.76441 147.789C1.77105 148.22 1.76929 148.649 1.77943 149.082C1.85503 148.872 2.07696 149.208 2.12385 149.02C2.24693 148.527 2.17273 147.797 2.18354 147.196C2.18809 146.933 2.24801 147.096 2.24836 147.074C2.255 146.713 2.16717 146.793 2.16157 146.476C2.15458 146.078 2.23996 144.928 2.23023 144.742C2.20539 144.26 2.03206 145.063 2.01911 145.016C1.93516 144.709 2.00478 144.081 1.89497 144.114C1.97054 145.625 1.87352 149.98 1.6919 146.04C1.51448 147.126 1.26987 146.813 1.25062 145.251C1.23452 143.959 1.33253 144.792 1.44031 144.12C1.45381 144.033 1.50534 142.302 1.42914 142.214C1.60464 142.283 1.76005 141.72 1.94111 142.098C1.96771 142.153 1.95721 142.863 2.10279 142.616C2.17592 142.492 2.33508 142.136 2.42817 142.193C2.36344 142.047 2.29062 141.895 2.22309 141.747C2.2042 140.682 2.27393 140.531 2.39466 139.949C2.34427 139.976 2.13252 140.514 2.19691 139.697C2.20076 139.655 2.27676 139.619 2.31446 139.204C2.39004 138.366 2.41355 138.191 2.63673 138.834C2.50943 137.098 2.75817 136.724 2.68544 134.944C2.39853 135.298 2.46956 135.924 2.52485 137.554C2.45662 137.625 2.38907 137.658 2.32014 137.731C2.4748 135.561 2.45905 136.633 2.32051 135.404C2.28656 135.103 2.32288 133.498 2.12971 134.034C2.08426 134.16 2.08949 135.157 2.01783 135.043C2.00419 135.021 1.96947 133.809 1.98798 133.702C2.2165 132.361 2.37577 134.757 2.29249 131.065C2.29004 130.963 2.20652 130.928 2.19489 130.729C2.1732 130.355 2.26996 130.35 2.24763 130.016C2.22523 129.682 2.09509 129.22 2.2154 128.717C2.43447 127.799 2.56047 129.965 2.44428 130.93C2.73055 131.321 2.73685 124.43 2.71235 124.003C2.60564 122.138 2.66724 125.241 2.58784 125.401C2.55425 125.467 2.12842 125.434 2.40473 126.219C2.48662 126.452 2.59451 125.481 2.63966 126.06C2.6848 126.64 2.55942 126.41 2.55067 126.452C2.52068 126.596 2.56717 127.213 2.54939 127.293C2.27957 128.523 1.87186 128.41 2.47413 126.78C2.338 126.069 2.12102 127.699 2.02863 126.817C1.91634 125.744 2.11052 124.961 2.11927 124.826C2.22281 123.209 1.93935 125.073 2.02992 123.098C2.08031 121.999 2.21857 124.744 2.20002 122.233C2.18427 120.131 2.08559 121.266 1.86127 121.114C1.80879 121.077 1.74443 119.926 1.76752 121.494C1.82596 121.538 1.90297 121.622 1.95686 121.721C1.91419 122.106 1.62174 122.747 1.61152 122.951C1.56288 123.949 1.71467 123.901 1.5359 124.489C1.73147 124.069 1.61362 124.753 1.65491 125.01C1.8071 125.963 1.86368 124.713 1.6681 126.852C1.75979 126.573 1.84977 126.321 1.94111 126.051C1.94426 126.308 1.94748 126.565 1.95063 126.821C1.74871 127.204 1.77454 128.567 1.57123 127.333C1.5135 128.817 1.55752 129.417 1.71461 129.742C1.7446 129.804 1.75658 130.027 1.75947 130.289C1.80364 130.239 1.94012 130.176 1.95686 130.217C2.10406 130.587 1.84976 131.159 1.75269 130.964C1.74805 131.147 1.7426 131.293 1.74024 131.344C1.72517 131.669 1.6374 131.032 1.60731 131.295C1.59753 131.382 1.61662 132.297 1.58094 132.315C1.35218 132.425 1.51722 130.919 1.38428 133.943C1.59251 134.016 1.54672 132.611 1.76789 132.972C2.00549 133.359 1.68677 134.149 1.97828 134.321C1.93035 134.386 1.89039 134.414 1.83582 134.469C1.96283 135.692 1.72005 135.709 1.66645 136.082C1.56181 136.808 1.57753 140.144 1.78785 137.149C1.80885 137.587 1.81856 138.034 1.8371 138.47C1.40186 138.569 1.5751 138.304 1.50861 140.403C1.49392 140.866 1.30249 141.016 1.52985 141.47C1.30683 141.408 1.44156 142.776 1.4145 142.903C1.23848 143.722 0.99347 140.682 1.38776 140.293C1.23425 139.78 1.43718 139.782 1.41028 139.209C1.37144 138.381 1.33192 138.266 1.4817 137.284C1.27067 136.317 1.38885 141.069 1.10889 138.188C0.828952 135.307 0.672797 118.53 0.630801 114.616C0.554862 107.525 0.505228 103.797 0.517825 97.4276C0.518875 96.7993 0.498641 92.0563 0.742496 93.0421C0.777491 93.1837 0.870233 95.2237 1.06165 93.4739C0.948631 93.8299 0.875244 92.8009 0.863346 92.7147C0.593191 90.7346 0.527033 91.8808 0.524234 88.7636ZM2.69917 79.5227C2.64353 83.5911 2.80655 80.6022 3.1747 81.4473C3.17575 80.9251 3.17676 80.4049 3.17781 79.8828C3.15471 80.02 3.13169 80.1553 3.10859 80.2925C3.10859 80.2931 3.10859 80.2937 3.10859 80.2943C2.97213 80.0376 2.83563 79.7793 2.69917 79.5227ZM2.94563 13.015C2.9941 13.1737 3.04267 13.3306 3.0901 13.5025C3.07505 14.0401 3.06028 14.5755 3.04524 15.113C3.01235 15.0489 2.97907 14.987 2.94618 14.9228C2.94758 14.2869 2.9491 13.653 2.94563 13.015ZM2.49757 131.499C2.36286 132.26 2.60326 132.191 2.49372 133.202C2.67113 133.078 2.84468 132.941 3.02034 132.81C2.99409 132.04 2.92662 131.866 2.96998 131.03C2.91296 131.127 2.8556 131.227 2.79823 131.322C2.81046 131.461 2.82438 131.609 2.83522 131.744C2.67566 131.958 2.65185 130.622 2.4972 131.496C2.49732 131.497 2.49745 131.498 2.49757 131.499ZM2.56898 139.297C2.54588 139.707 2.45905 141.328 2.53254 141.549C2.78171 142.299 2.62358 137.724 2.8451 141.096C2.88006 141.081 2.91432 141.096 2.94893 141.096C2.96117 140.481 2.97172 139.868 2.98152 139.249C2.84366 139.282 2.70754 139.26 2.56898 139.297ZM2.71455 94.2376C2.69535 94.8666 2.81255 97.8654 2.97035 96.8878C3.01654 96.6002 2.79081 95.2614 2.80061 94.7526C2.80693 94.423 2.93069 94.7924 2.8852 94.142C2.83065 94.1707 2.77017 94.1885 2.71492 94.2393C2.71479 94.2388 2.71467 94.2381 2.71455 94.2376ZM1.99439 93.058C2.01644 93.7084 2.04437 94.3676 2.06782 95.0225C2.20882 94.5445 2.11825 93.6044 2.31666 93.5491C2.3317 93.7282 2.34666 93.9053 2.3617 94.0845C2.31832 94.2216 2.2749 94.3566 2.23152 94.4915C2.3393 95.0535 2.39285 94.7131 2.3617 95.7596C2.66161 95.1268 2.82258 95.0093 2.51918 93.2173C2.6819 93.5558 3.2121 93.2371 2.8332 92.2439C2.76286 92.058 2.71586 92.8341 2.70466 92.843C2.56543 92.9623 2.47657 92.5318 2.34504 92.6598C2.28555 92.7173 2.28646 93.1907 2.20387 93.2615C2.16358 93.2942 2.04863 92.8439 1.99439 93.058ZM2.70045 91.7616C2.78478 91.963 2.98492 91.275 2.94435 90.6776C2.88136 89.7462 2.691 91.2151 2.70045 91.7616ZM2.94545 13.0114C2.94551 13.0126 2.94557 13.0138 2.94563 13.015C2.94545 13.0144 2.94526 13.0138 2.94508 13.0132C2.9452 13.0126 2.94532 13.012 2.94545 13.0114ZM2.66658 137.187C2.73827 137.669 2.72782 138.383 2.84181 138.33C2.81941 138.565 2.79737 138.802 2.77497 139.036C2.80925 139.034 2.84359 139.03 2.87751 139.027C2.89886 138.322 2.92027 137.618 2.94197 136.912C2.85029 137.001 2.75826 137.083 2.66658 137.187ZM2.58674 144.875C2.57521 145.762 2.7303 145.018 2.80519 145.213C2.88008 145.407 2.81915 146.198 2.92659 146.105C2.93079 145.583 2.93501 145.038 2.93885 144.509C2.82197 144.649 2.70293 144.746 2.58674 144.876C2.58674 144.876 2.58674 144.875 2.58674 144.875ZM2.8213 62.9185C2.7877 63.5202 2.66936 63.2746 2.80793 64.4627C2.80793 64.4618 2.80793 64.4609 2.80793 64.46C2.90485 63.3295 2.99123 61.8743 2.89747 60.6266C2.77262 61.3898 2.87379 61.9718 2.8213 62.9185ZM2.84675 129.394C2.75298 129.14 2.67466 130.324 2.76179 130.585C2.90281 131.007 2.98918 129.782 2.84675 129.394ZM1.99073 38.6149C1.70204 37.6996 1.378 39.434 1.51795 41.2501C1.5302 41.4072 1.62201 40.2347 1.67835 40.582C1.6839 40.6172 1.67702 41.2608 1.71717 41.42C1.75741 41.5793 1.85083 41.4121 1.89002 41.6731C1.95852 42.1312 1.8316 43.1664 1.92152 43.5093C1.93357 43.5544 2.0585 42.9124 2.06324 42.8721C2.13882 42.2129 1.97552 41.5777 1.97443 41.4758C1.96884 40.9514 2.09687 41.0307 2.12696 40.8979C2.18356 40.6479 2.12698 40.2077 2.13117 40.1768C2.24346 39.381 2.21133 41.1993 2.25752 41.4448C2.38209 42.1062 2.49791 41.4939 2.56825 43.0801C2.57487 43.2307 2.56735 45.0338 2.7107 42.7615C3.00953 47.2232 2.88068 40.5197 2.81489 39.7918C2.78439 39.4563 2.66235 39.9643 2.60743 39.7609C2.48182 39.2962 2.45967 38.5043 2.2826 38.5751C1.91034 38.7278 2.15426 39.7679 2.09162 40.4847C2.01078 40.4095 1.93194 40.3808 1.85285 40.2413C1.95924 40.456 2.01246 38.6813 1.99146 38.6149C1.99122 38.6149 1.99098 38.6149 1.99073 38.6149ZM2.41609 49.9097C2.30375 50.9119 2.53875 50.841 2.40437 51.7591C2.61538 52.5688 2.60121 50.9717 2.61311 50.7858C2.66629 49.9363 2.89574 49.9559 2.82515 49.0867C2.68938 49.3854 2.5522 49.6288 2.41609 49.9097ZM2.51295 41.1926C2.63193 41.8629 2.62991 40.6634 2.65266 40.6148C2.894 40.0851 2.8471 43.6767 2.51295 41.1926ZM2.24177 98.1417C2.23372 98.4823 2.34764 98.2662 2.3813 98.5665C2.41523 98.8672 2.31774 99.8956 2.38862 99.8699C2.45966 99.8434 2.64389 97.9588 2.68379 99.8504C2.72366 99.7864 2.75341 99.8079 2.78944 99.777C2.79049 99.2571 2.79224 98.7324 2.79329 98.2125C2.67851 98.4979 2.55777 98.7904 2.44685 99.0647C2.35551 98.7726 2.47267 98.6085 2.47267 98.593C2.47254 98.593 2.47242 98.593 2.4723 98.593C2.46311 98.0489 2.25967 97.377 2.24177 98.1417ZM2.59938 71.3303C2.31416 71.2285 2.6327 72.0316 2.66804 72.3612C2.70326 72.6908 2.59768 73.1437 2.72041 72.9736C2.80509 72.4404 2.6312 71.3414 2.59901 71.3303C2.59913 71.3303 2.59925 71.3303 2.59938 71.3303ZM2.41664 55.3544C2.48587 56.1945 2.56001 56.0611 2.47541 57.0888C2.54435 57.049 2.6148 57.0092 2.68269 56.9694C2.68409 56.1531 2.48396 56.2105 2.5644 55.266C2.5777 55.1111 2.73755 55.4427 2.68617 54.7439C2.60085 54.9472 2.50616 55.1533 2.41664 55.3544ZM2.67225 59.5179C2.66173 58.5533 2.10387 57.7882 2.35548 59.5648C2.39309 59.8281 2.6803 60.2433 2.67225 59.5179ZM2.22767 89.2441C2.21159 90.8849 2.30161 89.0209 2.38734 88.5937C2.45591 92.4136 2.36388 88.1625 2.649 87.7814C2.56781 87.3146 2.38213 86.4411 2.33241 87.4115C2.31176 87.8164 2.39666 87.6686 2.39631 87.6929C2.37531 88.4384 2.23642 88.3481 2.22767 89.2441ZM2.40235 48.1682C2.40655 48.2302 2.50286 48.1333 2.5221 48.3302C2.54121 48.5273 2.47381 48.9735 2.53291 49.0177C2.59237 49.0618 2.63849 48.1667 2.59516 47.8922C2.55142 47.6178 2.36527 47.6085 2.40235 48.1682ZM2.16505 54.4651C2.23435 55.2849 2.58913 53.9444 2.58747 53.7661C2.56893 52.1997 2.27738 54.5116 2.16505 54.4651ZM1.62507 85.4338C1.80529 87.4116 2.11846 85.9648 2.30604 84.7258C2.26792 84.5622 2.22974 84.3944 2.19196 84.233C2.42363 84.9763 2.65262 86.2791 2.45069 83.3808C2.39617 84.9672 2.33394 83.6388 2.32087 83.6286C1.89533 83.4538 2.09295 85.8037 1.62507 85.432C1.62507 85.4326 1.62507 85.4332 1.62507 85.4338ZM2.50379 45.502C2.50238 44.6412 2.42887 42.4032 2.24342 43.4473C2.33019 44.133 2.41702 44.8164 2.50379 45.502ZM1.64997 117.815C1.54393 118.518 1.54574 119.167 1.55274 120.034C1.70706 119.253 1.72479 119.766 1.76258 120.03C1.81947 120.429 1.81481 119.462 1.8252 119.459C1.97182 119.476 1.99459 120.093 1.9911 118.689C2.04217 119.036 2.09363 119.379 2.14436 119.726C2.15102 118.655 2.24667 118.403 2.36354 117.724C2.07799 118.384 2.25677 117.516 2.11469 116.728C2.04356 116.335 1.7042 117.457 1.64997 117.817C1.64997 117.816 1.64997 117.816 1.64997 117.815ZM1.56776 87.4779C1.61919 87.6814 1.68878 87.8677 1.74757 88.0645C1.75317 88.2792 1.75808 88.4941 1.76368 88.7087C1.7182 88.7353 1.67063 88.7574 1.6269 88.7884C1.61366 89.0712 1.67698 88.961 1.68293 89.045C1.68269 89.045 1.68244 89.045 1.6822 89.045C1.76614 90.2503 1.7567 90.7439 1.6161 91.6882C1.75544 91.6882 1.89478 91.6882 2.03413 91.6882C2.02084 91.476 2.00788 91.2615 1.99494 91.0493C1.92007 90.9365 1.84515 90.8232 1.77027 90.7104C1.81157 90.4648 1.85257 90.2215 1.89387 89.9759C1.86694 89.7792 1.83861 89.5427 1.81239 89.3724C2.20186 88.3924 1.93727 90.6197 2.09895 90.6396C2.20288 90.6528 2.19833 88.4097 2.1266 88.0867C2.1161 88.0402 1.82608 88.525 1.97718 87.7044C2.00098 87.5761 2.62842 87.5309 2.12037 86.6461C2.0483 86.52 1.65851 86.9603 1.56776 87.4779ZM1.36542 95.6224C1.76681 94.3614 1.34238 99.0156 1.67268 97.0073C1.85707 97.5802 1.85467 97.4739 2.01838 96.8967C2.03305 96.8459 2.08372 97.2447 2.09016 97.2108C2.18045 96.671 2.13257 96.0206 2.2967 96.0162C2.28796 95.8703 2.28018 95.733 2.27143 95.587C2.11678 96.195 2.01285 95.2282 1.88233 94.8543C1.82322 94.6841 1.80498 95.0754 1.75324 94.9322C1.73435 94.8791 1.77206 94.3326 1.7179 94.3101C1.59542 94.2637 1.42989 94.607 1.33961 95.1888C1.33948 95.1888 1.33936 95.1888 1.33924 95.1888C1.34728 95.3347 1.35703 95.4765 1.36542 95.6224ZM1.69886 68.6703C1.92073 68.4557 1.98424 67.5955 2.09272 69.2482C2.13642 69.1664 2.17976 69.0822 2.22346 69.0004C2.21961 68.7217 2.21579 68.4517 2.21229 68.1686C1.55865 67.3191 2.29629 65.7684 1.83271 66.7616C1.78232 66.8701 1.83862 67.5311 1.70179 66.8784C1.70167 66.8793 1.70155 66.8802 1.70142 66.8811C1.74342 67.7923 1.82203 67.9071 1.69886 68.6703ZM1.85358 74.7699C2.32042 76.8717 2.11406 71.8656 1.99018 72.7019C1.97898 72.7771 2.0793 74.9336 1.85358 74.7699ZM1.44727 57.9047C1.43923 58.847 1.6911 58.9094 1.78181 58.8144C1.87278 58.7193 1.78085 58.0668 1.79517 57.9826C1.84242 57.7082 1.87362 58.2901 1.93836 57.9339C1.95939 57.816 2.04918 56.1747 2.03834 56.0995C1.97809 55.682 1.77026 56.2924 1.74647 56.173C1.66847 55.7836 1.77659 55.255 1.66608 55.1421C1.4303 54.8988 1.67781 55.8845 1.68183 56.0509C1.69303 56.5531 1.56029 56.5092 1.5337 56.8853C1.50715 57.2612 1.55262 57.5067 1.54322 57.8383C1.54008 57.9487 1.44811 57.8569 1.44727 57.9047ZM1.9792 61.0204C1.78852 60.0363 1.58116 62.4325 1.6258 62.7168C1.75843 63.5531 2.07018 61.4916 1.9792 61.0204ZM1.97114 92.4651C1.83292 91.565 1.72104 93.6619 1.77668 94.2614C1.83412 94.1503 2.01872 92.7748 1.97114 92.4651ZM1.6258 84.8851C1.66884 85.7125 1.98025 84.6153 1.97535 83.925C1.7707 83.5204 1.81126 83.9011 1.80286 84.3524C1.79439 84.8032 1.59227 84.2396 1.6258 84.8851ZM1.67487 47.6842C1.67162 47.8627 1.84078 50.7399 1.91108 49.0867C1.91633 48.9606 1.88654 46.9466 1.85505 46.794C1.79135 46.4868 1.68397 47.2241 1.67487 47.6842ZM1.32349 80.9164C1.50052 81.3544 1.49815 81.7854 1.706 81.3827C1.706 81.3821 1.706 81.3815 1.706 81.3809C1.76966 82.4893 1.34442 82.5384 1.35352 82.7773C1.38544 83.613 1.6881 82.8212 1.78748 83.3454C1.69406 82.1265 1.89813 82.476 1.91108 81.5491C1.91388 81.3411 1.79201 80.5089 1.71607 80.3872C1.6401 80.2657 1.41238 80.6908 1.32349 80.9164ZM1.63074 43.6199C1.56291 44.591 1.84983 45.4802 1.89533 44.1331C1.91773 43.4761 1.67204 43.0269 1.63074 43.6199ZM1.55897 140.698C1.6342 140.55 1.70911 140.397 1.78364 140.238C1.80183 140.596 1.8204 140.955 1.83894 141.313C1.81514 141.03 1.7917 140.746 1.76826 140.461C1.74201 141.133 1.60516 141.441 1.55897 140.7C1.55897 140.699 1.55897 140.699 1.55897 140.698ZM1.50165 164.642C1.42921 164.943 1.65353 165.536 1.67103 165.461C1.80142 164.895 1.60209 164.225 1.50165 164.642ZM1.2898 93.7951C1.25842 94.9137 1.62314 94.1445 1.64814 93.4588C1.57839 93.8783 1.30764 93.1604 1.2898 93.7951ZM1.51942 156.222C1.55077 156.121 1.58213 156.02 1.61353 155.908C1.56993 156.261 1.54061 156.323 1.51942 156.222ZM1.35279 48.1417C1.3248 48.3125 1.30169 49.5754 1.33631 49.746C1.4091 50.1 1.61046 49.1151 1.54853 48.5355C1.54188 48.4713 1.38079 47.9718 1.35279 48.1443C1.35279 48.1435 1.35279 48.1426 1.35279 48.1417ZM1.41926 142.211C1.42275 142.209 1.42608 142.21 1.42914 142.214C1.42589 142.213 1.42252 142.213 1.41926 142.211ZM1.04865 189.782C1.05431 189.775 1.05992 189.772 1.06531 189.772C1.06002 189.775 1.05445 189.78 1.04865 189.782ZM1.04316 57.049C0.695654 57.4694 0.880485 58.4384 1.05231 57.6729C1.06134 57.63 1.04247 57.1509 1.04316 57.049Z" fill="#419DDF"/>
</svg>
