<svg width="4" height="464" viewBox="0 0 4 464" fill="none" xmlns="http://www.w3.org/2000/svg">
<path d="M0.141584 177.548C0.174429 158.735 0.17255 138.139 0.273447 119.252C0.285798 116.933 0.386204 117.092 0.400904 116.441C0.44143 114.663 0.324898 113.592 0.336413 112.296C0.391986 105.995 0.421785 100.1 0.47325 93.918C0.526169 87.55 0.832843 90.563 0.913901 88.3504C1.07263 84.0275 0.656332 87.7039 0.568308 86.0044C0.603485 81.0483 0.658501 76.0482 0.713992 71.0834C0.749509 72.2955 0.784214 73.508 0.816905 74.7334C0.829972 72.5694 0.899678 69.4724 0.998595 73.0965C1.02972 72.2956 1.06571 71.5479 1.09618 70.7249C0.947947 70.4989 0.944242 66.6675 0.856833 66.317C0.769399 65.9672 0.785021 68.1215 0.77735 68.1081C0.667818 67.965 0.837006 59.1289 0.850627 58.4917C0.886845 56.8071 1.06803 58.2845 1.05924 56.8513C1.04426 54.3863 0.665605 56.0276 1.17148 52.692C1.01234 51.3643 1.09672 51.2486 1.11156 49.5677C1.11344 49.3465 1.01927 49.518 1.01703 49.4206C0.952891 46.8763 1.12311 48.8323 1.13258 48.8191C1.29359 48.5884 1.22812 45.858 1.24476 45.2828C1.45208 38.0658 1.5933 32.7777 1.65415 25.162C1.66715 23.5157 1.61283 18.5014 1.64356 16.9083C1.67388 15.3372 1.78772 16.1804 1.84502 15.3582C1.56964 14.0394 1.54167 12.782 1.73134 9.82309C1.53076 8.72083 1.69417 8.86285 1.65812 6.75195C1.62828 4.9949 1.39142 1.93237 1.6031 -0.000854492C1.57942 2.21619 1.67961 1.98691 1.73442 4.48291C1.75257 5.31369 1.73816 13.9779 1.94698 13.3335C2.05583 12.9975 1.96271 10.1257 1.98288 10.0148C2.10046 9.3689 2.23979 10.972 2.18668 12.3924C2.164 12.0383 2.14113 11.6118 2.1185 11.2311C1.9664 14.4214 2.52891 12.2285 2.03624 14.6524C1.9758 14.9521 1.91371 14.8357 1.84911 15.3299C1.87517 15.4315 1.94161 14.827 1.95216 15.3478C1.96278 15.879 1.83692 16.8876 1.94083 17.0382C2.09192 17.2633 2.03693 15.0623 2.04615 14.8967C2.04524 14.8949 2.04433 14.8931 2.04342 14.8914C2.12705 13.4272 2.12964 16.4854 2.14367 16.6315C2.23608 17.5777 2.31019 16.9327 2.38514 18.3525C2.42784 19.1624 2.39719 21.2252 2.4099 21.9864C2.42298 22.7428 2.49722 21.5662 2.51152 22.0751C2.52582 22.5841 2.46997 23.2176 2.48653 23.815C2.49384 24.0707 2.57385 24.0578 2.57638 24.1816C2.60429 25.5089 2.43982 24.6379 2.44737 25.8416C2.45244 26.6214 2.60186 29.2389 2.65194 27.4351C2.66617 28.3023 2.67613 29.1478 2.68686 30.0106C2.71182 29.4665 2.7292 28.9043 2.75832 28.3734C2.71673 29.9968 2.85201 30.7316 2.85999 31.7491C2.86795 32.7669 2.70175 33.6789 2.77945 34.7987C2.94472 37.1888 2.87874 31.2713 2.91076 30.5367C2.92335 30.2504 3.04962 31.3501 3.05293 31.5194C3.06741 32.2715 2.97349 33.1608 2.97637 33.7407C2.98729 35.8161 3.10597 37.0872 3.12621 39.0652C3.19498 45.8008 3.24452 54.1562 3.25736 60.5377C3.26204 62.9142 3.12245 64.3438 3.124 65.4103C3.12773 67.9055 3.24604 68.2115 3.24767 70.3879C3.25049 73.6273 3.1368 78.1906 3.10857 80.8945C3.08914 82.7664 3.20062 84.4612 3.20238 84.9481C3.22909 91.7146 3.20875 99.946 3.19807 105.553C3.19308 108.19 3.06101 109.442 3.06364 109.987C3.07469 112.327 3.18665 111.7 3.17139 113.598C3.16324 114.623 3.05664 114.814 3.0522 114.952C3.0146 116.16 3.15275 116.4 3.15526 117.343C3.16981 122.764 3.06781 127.985 3.04294 133.353C3.04105 133.742 2.9797 133.707 2.98231 133.96C2.99505 135.043 3.09287 134.54 3.09745 135.672C3.10743 138.026 3.08623 140.443 3.06861 142.939C3.06687 143.187 2.98766 143.297 2.98641 143.863C2.98519 144.429 3.05912 144.859 3.05303 145.748C3.03717 148.072 2.9427 150.364 2.93249 152.825C2.93092 153.232 3.02495 153.736 3.0226 154.347C3.01532 156.263 2.92285 159.1 2.91616 160.742C2.89469 166.158 2.93806 171.156 2.92777 176.258C2.92514 177.457 2.83472 178.519 2.83128 179.143C2.82373 180.549 2.90929 179.488 2.90656 180.913C2.88358 192.552 2.82054 204.235 2.80181 216.011C2.7943 220.635 2.86833 226.265 2.8349 230.734C2.82074 232.592 2.70487 232.929 2.70099 234.244C2.69458 236.588 2.84126 237.014 2.85064 239.487C2.85794 241.461 2.70571 243.722 2.71038 245.775C2.71505 247.829 2.85614 248.777 2.8682 251.135C2.878 253.078 2.8072 255.791 2.81314 257.906C2.86795 277.289 2.88561 296.375 2.7316 315.877C2.67722 322.759 2.68133 330.394 2.52532 337.505C2.51056 338.173 2.37455 337.151 2.39897 339.293C2.41224 340.443 2.52787 342.05 2.5281 344.709C2.52902 360.521 2.23791 377.386 2.25366 393.464C2.2777 417.547 3.20749 442.508 1.7231 463.432C1.65021 464.458 1.30505 463.901 1.20797 463.286C1.27953 462.715 1.36419 462.188 1.4449 461.591C1.01375 460.838 1.12614 460.97 1.17099 458.183C1.19881 456.466 1.01077 457.837 0.960208 456.922C0.894874 455.736 0.693099 450.167 0.977401 451.238C0.928455 450.893 0.881537 450.575 0.833621 450.238C0.798915 446.207 0.735598 442.29 0.661861 438.347C0.648953 437.666 0.559089 437.634 0.54626 436.93C0.511153 435.041 0.573465 433.541 0.568564 431.594C0.565944 430.536 0.462338 430.389 0.471972 429.004C0.481646 427.62 0.62187 427.65 0.473468 425.761C0.294794 426.991 0.434343 421.504 0.427706 419.552C0.426917 419.269 0.273789 416.945 0.294627 415.711C0.315142 414.472 0.420216 412.591 0.367003 410.675C0.341994 409.777 0.220015 409.231 0.215098 408.262C0.211667 407.581 0.322899 406.762 0.329321 405.9C0.335728 405.037 0.249891 403.17 0.249148 402.828C0.24586 401.594 0.319887 402.956 0.325583 402.112C0.351864 398.036 0.403313 393.301 0.36019 389.283C0.354976 388.789 0.262828 389.472 0.259947 389.406C0.155919 386.052 0.270204 387.843 0.353343 386.937C0.433738 386.06 0.404749 379.641 0.247221 379.593C0.445035 379.396 0.297348 377.969 0.292353 377.598C0.273087 376.156 0.443256 376.439 0.393447 375.041C0.375314 374.528 0.257729 375.527 0.262301 374.975C0.273637 373.612 0.461723 372.386 0.484195 370.572C0.489688 370.134 0.40739 369.991 0.411868 369.212C0.416391 368.433 0.524493 365.164 0.347029 366.672C0.49091 364.69 0.415146 364.291 0.423964 361.985C0.426396 361.401 0.561136 360.65 0.52254 359.407C0.509438 358.986 0.381097 358.998 0.381411 358.366C0.381766 356.919 0.517534 355.556 0.52674 353.72C0.544285 350.285 0.458787 346.63 0.499747 343.05C0.510967 342.077 0.639452 342.32 0.644996 340.905C0.645444 340.697 0.537553 338.992 0.550151 338.014C0.557718 337.426 0.642696 334.376 0.650321 333.761C0.66261 332.744 0.538231 332.562 0.563834 332.005C0.637645 330.394 0.818521 331.687 0.571444 329.748C0.712097 329.111 0.700604 327.978 0.872855 327.616C0.686369 326.956 0.86875 326.102 0.808563 324.823C0.748327 323.544 0.386644 322.494 0.778907 322.185C0.732601 321.588 0.656863 319.042 0.651839 318.613C0.637784 317.348 0.744645 318.025 0.73207 317.07C0.729983 316.902 0.655536 317.078 0.665164 315.999C0.671589 315.291 0.687314 310.103 0.698131 309.793C0.821709 306.259 0.767438 311.719 0.845958 312.484C0.824612 312.619 0.803199 312.752 0.782081 312.896C0.74374 314.458 0.912992 313.569 0.953361 312.861C0.99372 312.153 0.922024 310.83 0.978233 310.241C1.00645 309.948 1.20668 310.13 1.18054 311.017C1.24438 310.068 1.30684 311.364 1.36572 310.989C1.43028 310.577 1.45907 306.313 1.34857 306.29C1.343 307.086 1.34468 308.077 1.3384 308.883C1.14401 309.936 0.494791 306.735 0.763229 303.802C0.957477 301.674 1.10073 305.183 0.952381 300.147C0.943011 300.921 0.923657 301.576 0.914092 302.28C0.769848 302.354 0.930734 301.213 0.886165 300.625C0.864363 300.342 0.758582 302.084 0.727893 300.571C0.936735 299.271 0.731641 298.269 0.733893 296.088C0.769332 296.694 0.80458 297.301 0.840018 297.908C0.997388 294.222 1.02823 302.784 1.12731 295.616C1.13209 296.479 1.12847 297.337 1.13675 298.204C1.21325 297.784 1.43373 298.457 1.48143 298.081C1.60664 297.094 1.53559 295.634 1.54899 294.431C1.55468 293.904 1.61389 294.231 1.61434 294.187C1.62253 293.466 1.53436 293.625 1.53012 292.992C1.52485 292.196 1.61519 289.896 1.60626 289.523C1.5835 288.558 1.40671 290.164 1.39396 290.071C1.31133 289.456 1.38366 288.2 1.2737 288.265C1.34276 291.288 1.22697 300 1.06234 292.118C0.88023 294.291 0.636974 293.663 0.624453 290.539C0.613926 287.954 0.708342 289.622 0.819026 288.277C0.832894 288.103 0.891889 284.642 0.816074 284.464C0.991268 284.603 1.1491 283.477 1.32854 284.233C1.35489 284.344 1.34134 285.765 1.48799 285.269C1.56165 285.022 1.72234 284.311 1.81519 284.426C1.75108 284.133 1.67892 283.828 1.61203 283.531C1.59772 281.403 1.66811 281.1 1.79135 279.937C1.74084 279.99 1.52677 281.065 1.59468 279.432C1.59871 279.348 1.67487 279.276 1.71436 278.446C1.79356 276.769 1.81782 276.419 2.03822 277.707C1.91841 274.234 2.16877 273.486 2.1037 269.924C1.81527 270.632 1.88361 271.884 1.93187 275.146C1.86333 275.287 1.79564 275.353 1.72639 275.499C1.89041 271.159 1.87003 273.304 1.73679 270.844C1.70414 270.242 1.74738 267.033 1.5519 268.104C1.5059 268.356 1.50684 270.35 1.43567 270.121C1.42212 270.077 1.39264 267.653 1.41161 267.44C1.6459 264.758 1.79484 269.551 1.72748 262.166C1.72547 261.962 1.6421 261.89 1.63133 261.493C1.61125 260.745 1.70803 260.736 1.68714 260.068C1.66618 259.4 1.53804 258.474 1.66051 257.47C1.88354 255.633 2.0002 259.966 1.87986 261.895C2.16443 262.679 2.20044 248.894 2.17779 248.04C2.07911 244.31 2.12734 250.517 2.04725 250.836C2.01337 250.969 1.58768 250.902 1.86061 252.473C1.94149 252.938 2.05357 250.996 2.09622 252.155C2.13887 253.315 2.01447 252.855 2.00554 252.939C1.97494 253.227 2.01876 254.461 2.00064 254.62C1.72552 257.08 1.3183 256.854 1.92759 253.594C1.79452 252.173 1.57052 255.433 1.48194 253.667C1.37427 251.521 1.57183 249.955 1.58116 249.685C1.69167 246.451 1.40017 250.179 1.49925 246.229C1.55438 244.03 1.6808 249.521 1.67308 244.499C1.6664 240.295 1.56283 242.565 1.33916 242.259C1.28684 242.187 1.22744 239.883 1.24377 243.02C1.30201 243.108 1.37866 243.276 1.43213 243.475C1.38781 244.244 1.09259 245.527 1.08149 245.935C1.02854 247.93 1.18054 247.834 0.999233 249.011C1.19662 248.171 1.07582 249.539 1.11601 250.052C1.26409 251.958 1.32605 249.459 1.12125 253.737C1.21414 253.18 1.30521 252.676 1.39771 252.136C1.39976 252.649 1.40187 253.163 1.40392 253.676C1.20035 254.441 1.2203 257.167 1.02232 254.698C0.958186 257.667 0.999616 258.867 1.1553 259.518C1.18502 259.642 1.19605 260.088 1.1978 260.612C1.24219 260.513 1.37894 260.386 1.3955 260.469C1.54111 261.208 1.28434 262.353 1.18812 261.963C1.18268 262.329 1.17661 262.619 1.17403 262.722C1.15755 263.371 1.07253 262.098 1.04131 262.624C1.03115 262.798 1.0463 264.628 1.01054 264.663C0.78131 264.883 0.952844 261.872 0.806869 267.92C1.01478 268.066 0.975045 265.257 1.19466 265.979C1.43059 266.754 1.10847 268.333 1.39923 268.679C1.35103 268.807 1.31094 268.863 1.25614 268.974C1.37788 271.421 1.13502 271.453 1.07981 272.2C0.972047 273.652 0.973378 280.325 1.19661 274.333C1.21572 275.21 1.2235 276.104 1.24017 276.976C0.804501 277.174 0.97888 276.644 0.903346 280.843C0.886657 281.768 0.694582 282.068 0.91999 282.976C0.69723 282.852 0.826069 285.588 0.798453 285.843C0.61891 287.48 0.387003 281.4 0.782973 280.621C0.63167 279.595 0.834599 279.599 0.810168 278.453C0.774891 276.798 0.735864 276.568 0.889877 274.604C0.683024 272.669 0.780718 282.174 0.513175 276.412C0.245657 270.648 0.161828 237.088 0.136705 229.259C0.0913339 215.076 0.0577708 207.618 0.097826 194.878C0.101584 193.621 0.101798 184.134 0.341402 186.106C0.375786 186.39 0.459734 190.47 0.658694 186.971C0.544141 187.682 0.475189 185.624 0.463664 185.452C0.202045 181.49 0.130946 183.783 0.141584 177.548ZM2.35635 159.068C2.28318 167.206 2.45908 161.228 2.82358 162.919C2.82688 161.874 2.83014 160.834 2.83344 159.789C2.80975 160.064 2.78614 160.335 2.76246 160.609C2.76245 160.61 2.76245 160.611 2.76245 160.612C2.62709 160.099 2.49171 159.582 2.35635 159.068ZM2.88952 26.0355C2.93731 26.3531 2.9852 26.667 3.03189 27.0111C3.01453 28.0862 2.99745 29.1573 2.98009 30.2325C2.94747 30.104 2.91446 29.9801 2.88185 29.8517C2.88598 28.5797 2.89024 27.3118 2.88952 26.0355ZM1.93069 263.033C1.7927 264.555 2.03339 264.418 1.9195 266.441C2.09744 266.193 2.27158 265.918 2.4478 265.658C2.42487 264.118 2.35816 263.768 2.40512 262.096C2.34768 262.291 2.28989 262.49 2.23211 262.68C2.24374 262.958 2.25702 263.255 2.26728 263.524C2.1068 263.953 2.08875 261.281 1.93033 263.028C1.93045 263.03 1.93057 263.032 1.93069 263.033ZM1.96848 278.633C1.94362 279.451 1.8498 282.695 1.92233 283.137C2.16827 284.638 2.02986 275.487 2.23685 282.232C2.27187 282.201 2.30606 282.232 2.34067 282.232C2.35557 281.002 2.36876 279.775 2.38123 278.536C2.24322 278.602 2.1072 278.558 1.96848 278.633ZM2.3083 188.502C2.28639 189.76 2.39066 195.758 2.55267 193.803C2.6001 193.228 2.38014 190.55 2.39214 189.532C2.39987 188.873 2.52205 189.612 2.47936 188.311C2.42469 188.368 2.36412 188.404 2.30866 188.505C2.30854 188.504 2.30842 188.503 2.3083 188.502ZM1.59323 186.141C1.61247 187.442 1.63756 188.761 1.65818 190.07C1.80124 189.115 1.71473 187.234 1.91338 187.124C1.92765 187.482 1.94184 187.836 1.95611 188.195C1.91214 188.469 1.86813 188.739 1.82417 189.009C1.92953 190.133 1.98455 189.452 1.94889 191.545C2.25153 190.28 2.413 190.046 2.11732 186.46C2.27858 187.138 2.81016 186.502 2.43554 184.514C2.36601 184.142 2.31566 185.694 2.30442 185.712C2.16467 185.951 2.07767 185.089 1.94559 185.345C1.88585 185.46 1.88472 186.407 1.80182 186.548C1.7614 186.614 1.64839 185.713 1.59323 186.141ZM2.30487 183.549C2.38834 183.952 2.59144 182.576 2.55344 181.381C2.49447 179.518 2.29778 182.456 2.30487 183.549ZM2.88935 26.0284C2.88941 26.0308 2.88946 26.0331 2.88952 26.0355C2.88934 26.0343 2.88916 26.0331 2.88898 26.032C2.8891 26.0308 2.88923 26.0296 2.88935 26.0284ZM2.07517 274.411C2.14479 275.376 2.13126 276.804 2.24548 276.699C2.22207 277.168 2.19901 277.642 2.1756 278.111C2.20988 278.107 2.24425 278.098 2.27818 278.093C2.30256 276.682 2.32701 275.275 2.35175 273.863C2.25969 274.04 2.1673 274.204 2.07517 274.411ZM1.9622 289.789C1.94684 291.563 2.10514 290.076 2.17919 290.466C2.25324 290.855 2.1889 292.436 2.29674 292.25C2.30319 291.206 2.30976 290.117 2.31589 289.059C2.1984 289.337 2.07894 289.532 1.96219 289.793C1.96219 289.792 1.96219 289.79 1.9622 289.789ZM2.55006 125.856C2.51387 127.059 2.39659 126.568 2.53004 128.944C2.53004 128.942 2.53005 128.941 2.53005 128.939C2.63184 126.678 2.72449 123.767 2.63611 121.271C2.50798 122.798 2.60663 123.962 2.55006 125.856ZM2.28894 258.825C2.19626 258.317 2.11285 260.683 2.19885 261.205C2.33805 262.051 2.4297 259.6 2.28894 258.825ZM1.82427 77.2401C1.53953 75.4087 1.208 78.8771 1.34013 82.5103C1.3517 82.8245 1.44856 80.4793 1.50341 81.1743C1.5088 81.2445 1.49915 82.5319 1.53861 82.8506C1.57817 83.1693 1.6723 82.8349 1.71037 83.3571C1.7769 84.2737 1.64551 86.3439 1.73395 87.03C1.74581 87.1203 1.8735 85.8365 1.87842 85.7559C1.95685 84.4375 1.79628 83.1664 1.79564 82.9626C1.7923 81.9138 1.91999 82.0725 1.95065 81.8071C2.00833 81.3071 1.95364 80.4265 1.95797 80.3646C2.07369 78.773 2.03372 82.4101 2.07885 82.9013C2.20058 84.2245 2.31903 82.9999 2.38253 86.1729C2.3885 86.4742 2.37321 90.0808 2.52636 85.536C2.80595 94.4612 2.706 81.0522 2.64335 79.596C2.61429 78.9249 2.49007 79.9408 2.43603 79.5337C2.31242 78.6041 2.29368 77.0199 2.11631 77.1611C1.74339 77.4659 1.98282 79.5468 1.9171 80.9804C1.83658 80.8298 1.75786 80.7722 1.67937 80.4932C1.78484 80.9226 1.84571 77.373 1.825 77.2401C1.82475 77.2401 1.82451 77.2401 1.82427 77.2401ZM2.20093 99.8336C2.08427 101.838 2.31958 101.697 2.18124 103.533C2.38875 105.153 2.38148 101.958 2.39417 101.586C2.45102 99.8874 2.68038 99.927 2.61353 98.1884C2.47648 98.7855 2.33825 99.272 2.20093 99.8336ZM2.33537 82.3974C2.45146 83.7384 2.45461 81.3391 2.47757 81.2419C2.7212 80.1829 2.65881 87.3669 2.33537 82.3974ZM1.81869 196.31C1.80917 196.991 1.92403 196.559 1.95638 197.16C1.98902 197.762 1.88709 199.819 1.95809 199.767C2.02924 199.714 2.2216 195.945 2.25334 199.729C2.29349 199.601 2.32314 199.644 2.35931 199.582C2.3626 198.542 2.36661 197.493 2.3699 196.453C2.2539 197.023 2.13189 197.608 2.01979 198.157C1.92971 197.572 2.04757 197.244 2.04764 197.213C2.04752 197.213 2.04739 197.213 2.04727 197.213C2.04043 196.125 1.83988 194.78 1.81869 196.31ZM2.29188 142.681C2.0071 142.477 2.32217 144.084 2.3561 144.743C2.38989 145.402 2.28236 146.308 2.40582 145.968C2.49281 144.902 2.32366 142.703 2.29151 142.681C2.29163 142.681 2.29175 142.681 2.29188 142.681ZM2.17801 110.725C2.24361 112.405 2.31834 112.138 2.22931 114.194C2.29842 114.114 2.36903 114.035 2.4371 113.955C2.44202 112.323 2.24164 112.437 2.32615 110.548C2.34012 110.238 2.49854 110.902 2.45017 109.504C2.36398 109.91 2.26839 110.322 2.17801 110.725ZM2.41567 119.053C2.40931 117.124 1.85475 115.592 2.0987 119.146C2.13517 119.673 2.42059 120.504 2.41567 119.053ZM1.84295 178.512C1.81979 181.795 1.91785 178.066 2.00542 177.212C2.05752 184.853 1.98382 176.349 2.27058 175.587C2.1914 174.654 2.00949 172.906 1.95558 174.847C1.93319 175.657 2.01873 175.361 2.01827 175.41C1.99406 176.901 1.85556 176.72 1.84295 178.512ZM2.1947 96.3502C2.19864 96.4742 2.29536 96.2805 2.31376 96.6744C2.33201 97.0687 2.26269 97.9612 2.3216 98.0497C2.38087 98.1379 2.43085 96.3477 2.3887 95.7984C2.34614 95.2495 2.16003 95.2306 2.1947 96.3502ZM1.93025 108.945C1.99602 110.585 2.35658 107.904 2.35569 107.548C2.3439 104.415 2.04239 109.038 1.93025 108.945ZM1.25677 170.889C1.42847 174.846 1.74788 171.953 1.94079 169.475C1.90338 169.148 1.86592 168.812 1.82884 168.489C2.05731 169.976 2.28067 172.582 2.09124 166.785C2.02989 169.958 1.97337 167.3 1.96035 167.28C1.53557 166.93 1.72306 171.63 1.25678 170.886C1.25678 170.887 1.25677 170.888 1.25677 170.889ZM2.30764 91.0173C2.30993 89.2954 2.24607 84.8187 2.05612 86.9068C2.13993 88.2786 2.22382 89.6456 2.30764 91.0173ZM1.14208 235.66C1.03301 237.067 1.03203 238.364 1.03529 240.099C1.19297 238.537 1.20848 239.564 1.24514 240.09C1.30031 240.889 1.29982 238.954 1.31023 238.949C1.45677 238.985 1.47688 240.219 1.47944 237.409C1.52901 238.104 1.579 238.79 1.62823 239.484C1.6395 237.343 1.73624 236.839 1.85603 235.481C1.56764 236.799 1.75017 235.063 1.61149 233.487C1.54205 232.701 1.19786 234.944 1.14207 235.665C1.14207 235.663 1.14208 235.662 1.14208 235.66ZM1.19065 174.978C1.24121 175.385 1.30999 175.758 1.36793 176.152C1.3726 176.581 1.37659 177.011 1.38126 177.441C1.33567 177.494 1.288 177.538 1.24414 177.6C1.22968 178.165 1.29348 177.945 1.29906 178.113C1.29882 178.113 1.29858 178.113 1.29833 178.113C1.37708 180.524 1.36551 181.511 1.22084 183.4C1.36018 183.4 1.49952 183.401 1.63887 183.401C1.62649 182.976 1.61446 182.547 1.60244 182.123C1.52805 181.897 1.45361 181.67 1.37923 181.444C1.42158 180.953 1.46364 180.467 1.50599 179.976C1.47991 179.582 1.4526 179.109 1.42711 178.768C1.82081 176.809 1.54662 181.263 1.70821 181.303C1.81208 181.33 1.81721 176.843 1.74686 176.197C1.73656 176.104 1.44446 177.073 1.59909 175.432C1.62344 175.175 2.25108 175.087 1.74685 173.315C1.67532 173.063 1.28363 173.943 1.19065 174.978ZM0.953204 191.269C1.36002 188.747 0.915531 198.056 1.25449 194.04C1.43641 195.186 1.43447 194.973 1.60067 193.819C1.61556 193.718 1.6645 194.515 1.67109 194.448C1.7637 193.368 1.71864 192.067 1.88278 192.059C1.87467 191.767 1.86748 191.492 1.85936 191.2C1.70209 192.416 1.60233 190.482 1.47342 189.734C1.41504 189.393 1.39512 190.176 1.344 189.889C1.32534 189.783 1.36541 188.69 1.31134 188.645C1.18906 188.552 1.02205 189.238 0.929256 190.402C0.929134 190.402 0.929012 190.402 0.92889 190.402C0.936306 190.693 0.945442 190.977 0.953204 191.269ZM1.40283 137.358C1.62562 136.93 1.69284 135.209 1.7942 138.515C1.83825 138.352 1.88195 138.183 1.926 138.02C1.92336 137.462 1.9207 136.922 1.91842 136.356C1.26844 134.655 2.01277 131.555 1.54491 133.541C1.49405 133.757 1.5475 135.08 1.41348 133.774C1.41336 133.776 1.41323 133.778 1.4131 133.779C1.45117 135.602 1.52929 135.832 1.40283 137.358ZM1.53126 149.559C1.98903 153.765 1.80426 143.751 1.67677 145.423C1.66525 145.574 1.75627 149.887 1.53126 149.559ZM1.19765 115.824C1.18554 117.708 1.43715 117.834 1.52826 117.644C1.61965 117.454 1.53053 116.149 1.54522 115.98C1.59364 115.432 1.62234 116.596 1.68861 115.883C1.71015 115.647 1.80702 112.365 1.7965 112.214C1.73805 111.379 1.52759 112.599 1.50431 112.36C1.42799 111.581 1.53839 110.524 1.42837 110.298C1.19364 109.811 1.4369 111.783 1.4402 112.116C1.44923 113.121 1.31669 113.033 1.28847 113.785C1.26031 114.536 1.30472 115.028 1.29388 115.691C1.29027 115.912 1.1987 115.728 1.19765 115.824ZM1.71614 122.057C1.52971 120.088 1.31202 124.881 1.35543 125.449C1.48446 127.123 1.8051 123 1.71614 122.057ZM1.57253 184.955C1.43819 183.154 1.31727 187.348 1.37033 188.547C1.42824 188.325 1.61878 185.574 1.57253 184.955ZM1.25987 169.792C1.29935 171.447 1.61548 169.253 1.61356 167.872C1.41065 167.062 1.44957 167.824 1.43923 168.727C1.42881 169.628 1.22912 168.501 1.25987 169.792ZM1.46931 95.3804C1.46529 95.7375 1.62205 101.493 1.69947 98.1864C1.70526 97.9342 1.68416 93.9056 1.65332 93.6002C1.59095 92.9857 1.48039 94.4601 1.46931 95.3804ZM0.97467 161.853C1.14981 162.729 1.14558 163.591 1.35517 162.786C1.35517 162.785 1.35517 162.784 1.35517 162.783C1.41405 165 0.988608 165.097 0.996677 165.575C1.02499 167.247 1.33107 165.664 1.42819 166.713C1.34002 164.274 1.54258 164.974 1.55953 163.12C1.56322 162.704 1.44494 161.039 1.36953 160.795C1.29408 160.552 1.06453 161.402 0.97467 161.853ZM1.4427 87.2506C1.37069 89.193 1.65377 90.9722 1.70508 88.2778C1.73031 86.9635 1.48655 86.0648 1.4427 87.2506ZM0.95243 281.432C1.0283 281.136 1.10387 280.831 1.17908 280.513C1.19573 281.229 1.21275 281.947 1.22975 282.663C1.20717 282.097 1.18496 281.529 1.16274 280.958C1.1336 282.304 0.995421 282.919 0.952423 281.436C0.952425 281.435 0.952428 281.434 0.95243 281.432ZM0.791896 329.327C0.718159 329.929 0.939918 331.115 0.95774 330.965C1.09057 329.833 0.894136 328.492 0.791896 329.327ZM0.885459 187.614C0.849257 189.851 1.21729 188.313 1.24525 186.942C1.17369 187.781 0.906037 186.344 0.885459 187.614ZM0.845958 312.484C0.877746 312.283 0.90954 312.081 0.941429 311.856C0.8963 312.563 0.866712 312.686 0.845958 312.484ZM1.14526 96.2948C1.11653 96.6364 1.08798 99.1626 1.12186 99.5039C1.19312 100.212 1.39873 98.2425 1.3393 97.0829C1.33293 96.9546 1.17398 95.9551 1.14524 96.3001C1.14525 96.2984 1.14525 96.2967 1.14526 96.2948ZM0.806197 284.459C0.809697 284.455 0.813022 284.457 0.816074 284.464C0.812826 284.462 0.809458 284.462 0.806197 284.459ZM0.230517 379.613C0.236204 379.599 0.241835 379.592 0.247221 379.593C0.241918 379.598 0.236327 379.609 0.230517 379.613ZM0.797225 114.111C0.447911 114.951 0.628565 116.89 0.803691 115.359C0.812906 115.273 0.796102 114.315 0.797225 114.111Z" fill="#419DDF"/>
</svg>
