<svg width="4" height="80" viewBox="0 0 4 80" fill="none" xmlns="http://www.w3.org/2000/svg">
<path d="M0.524232 30.6122C0.516532 27.3687 0.470265 23.8177 0.530457 20.5612C0.537811 20.1615 0.638558 20.1888 0.651856 20.0766C0.688549 19.77 0.569709 19.5854 0.57843 19.3619C0.620423 18.2754 0.637519 17.2591 0.67566 16.1932C0.714854 15.0953 1.02802 15.6147 1.10431 15.2332C1.25372 14.4878 0.845349 15.1218 0.753663 14.8288C0.778158 13.9743 0.822398 13.1122 0.867188 12.2562C0.905318 12.4652 0.942636 12.6742 0.977968 12.8855C0.986371 12.5124 1.0494 11.9783 1.15613 12.6032C1.18553 12.4651 1.2199 12.3361 1.2486 12.1942C1.09988 12.1553 1.08792 11.4947 0.999757 11.4343C0.911569 11.3741 0.931834 11.7455 0.924134 11.7432C0.814294 11.7186 0.964438 10.195 0.976686 10.0852C1.00927 9.7947 1.19364 10.0494 1.18176 9.80225C1.16147 9.37725 0.786354 9.66039 1.28504 9.08509C1.12303 8.85622 1.20717 8.83625 1.21839 8.54646C1.21979 8.50829 1.12599 8.53791 1.12354 8.52113C1.05392 8.08249 1.22835 8.41964 1.2378 8.41737C1.39831 8.37753 1.32695 7.90679 1.34235 7.80762C1.53411 6.56323 1.66394 5.65145 1.70838 4.33839C1.71782 4.05452 1.6527 3.19004 1.68 2.91534C1.70693 2.64444 1.82259 2.78979 1.87812 2.64801C1.5999 2.42074 1.56921 2.20395 1.75251 1.69373C1.54956 1.50375 1.71327 1.52818 1.67267 1.16425C1.63904 0.861321 1.39559 0.333405 1.60309 1.73493e-08C1.58419 0.382263 1.68389 0.342674 1.74408 0.77301C1.76402 0.91626 1.76828 2.41004 1.97571 2.29889C2.08384 2.24091 1.98453 1.74581 2.00446 1.72668C2.12064 1.6153 2.26343 1.89161 2.21338 2.13654C2.18994 2.07548 2.16615 2.00197 2.14271 1.93634C1.99748 2.48644 2.55526 2.10816 2.06782 2.52625C2.00802 2.57794 1.94568 2.55791 1.88215 2.64313C1.90842 2.66064 1.97357 2.55638 1.98523 2.64618C1.99699 2.73778 1.87331 2.9117 1.97754 2.93762C2.12912 2.97639 2.06939 2.59691 2.07825 2.56836C2.07734 2.56805 2.07642 2.56775 2.07551 2.56744C2.15598 2.31496 2.16516 2.84227 2.17951 2.86743C2.27395 3.03054 2.34668 2.91932 2.42469 3.16406C2.46913 3.3037 2.44293 3.65936 2.45728 3.79059C2.47199 3.92099 2.54369 3.71812 2.55909 3.80585C2.57448 3.89361 2.52 4.00282 2.53785 4.10584C2.54572 4.14993 2.62569 4.14765 2.62849 4.16901C2.65926 4.39784 2.49291 4.24774 2.50306 4.45527C2.50981 4.58971 2.66487 5.04093 2.71107 4.72993C2.72716 4.87943 2.73894 5.02522 2.75153 5.17396C2.77532 5.08013 2.79149 4.98318 2.81947 4.89167C2.78137 5.17157 2.91823 5.29822 2.92841 5.47364C2.93856 5.64911 2.77433 5.80643 2.85444 5.99946C3.02487 6.41147 2.94613 5.39124 2.97657 5.26459C2.98854 5.21522 3.11718 5.40475 3.12086 5.43397C3.13695 5.56362 3.04495 5.717 3.04908 5.81696C3.06448 6.17478 3.18589 6.3939 3.2104 6.73493C3.29369 7.89619 3.36123 9.33678 3.38783 10.437C3.39763 10.8468 3.26111 11.0933 3.26496 11.2772C3.27407 11.7074 3.39304 11.7601 3.39936 12.1353C3.40916 12.6938 3.30531 13.4806 3.28291 13.9469C3.26751 14.2696 3.38264 14.5618 3.38545 14.6457C3.42674 15.8123 3.42415 17.2315 3.42555 18.1983C3.42625 18.6529 3.29687 18.8689 3.30067 18.9627C3.31677 19.3663 3.42738 19.2581 3.41621 19.5853C3.41027 19.762 3.30408 19.7951 3.29994 19.8187C3.26494 20.027 3.4036 20.0685 3.40815 20.231C3.43438 21.1656 3.34363 22.0659 3.33033 22.9914C3.32928 23.0585 3.26786 23.0525 3.27101 23.096C3.28608 23.2828 3.38282 23.196 3.38984 23.3911C3.40489 23.797 3.38891 24.2138 3.37666 24.6442C3.37545 24.6868 3.29649 24.706 3.29646 24.8035C3.29646 24.9011 3.37131 24.9752 3.36714 25.1285C3.35629 25.5291 3.26675 25.9244 3.26185 26.3486C3.26115 26.4188 3.35627 26.5058 3.35524 26.611C3.35209 26.9414 3.26573 27.4306 3.26258 27.7136C3.25279 28.6475 3.30693 29.5091 3.30763 30.3888C3.30759 30.5955 3.21946 30.7787 3.21736 30.8863C3.21283 31.1287 3.29611 30.9458 3.29646 31.1914C3.29856 33.1981 3.2607 35.2125 3.26735 37.2428C3.2698 38.0401 3.35596 39.0106 3.33216 39.7812C3.32201 40.1017 3.20687 40.1598 3.20582 40.3864C3.20446 40.7906 3.35206 40.8639 3.36677 41.2903C3.37832 41.6306 3.23097 42.0206 3.24006 42.3746C3.24916 42.7286 3.39229 42.892 3.40944 43.2987C3.42342 43.6336 3.35847 44.1013 3.36897 44.466C3.46555 47.8079 3.52434 51.0986 3.41237 54.4611C3.37282 55.6476 3.39338 56.9639 3.2527 58.1901C3.23938 58.3052 3.10116 58.1291 3.1302 58.4983C3.14595 58.6967 3.26505 58.9736 3.27101 59.4321C3.306 62.1583 3.05124 65.0662 3.10164 67.8382C3.17758 71.9904 4.16117 76.2936 2.72187 79.9018C2.65119 80.0788 2.30483 79.9828 2.20643 79.8768C2.27676 79.7784 2.36028 79.6874 2.43971 79.5844C2.00693 79.4547 2.11961 79.4776 2.15846 78.997C2.18258 78.701 1.99749 78.9374 1.94495 78.7797C1.87706 78.5752 1.66329 77.6151 1.9499 77.7998C1.90021 77.7402 1.8526 77.6853 1.80396 77.6273C1.76057 76.9323 1.68881 76.257 1.60657 75.5772C1.5922 75.4597 1.50227 75.4543 1.48792 75.333C1.44874 75.0072 1.50782 74.7486 1.49872 74.4129C1.49383 74.2306 1.3899 74.2053 1.39655 73.9664C1.40324 73.7278 1.54353 73.733 1.39106 73.4074C1.21504 73.6195 1.34276 72.6733 1.33191 72.3368C1.33051 72.288 1.17238 71.8875 1.19056 71.6746C1.2084 71.461 1.30942 71.1367 1.25208 70.8063C1.22513 70.6515 1.10198 70.5575 1.09498 70.3904C1.09008 70.2729 1.19954 70.1318 1.20411 69.983C1.20865 69.8343 1.11879 69.5125 1.11731 69.4535C1.11137 69.2407 1.18833 69.4755 1.1922 69.3299C1.2097 68.6272 1.25095 67.8108 1.19916 67.118C1.19288 67.0328 1.10221 67.1507 1.09919 67.1393C0.98793 66.5611 1.10607 66.8698 1.18726 66.7136C1.26577 66.5624 1.22294 65.4556 1.06531 65.4474C1.2627 65.4135 1.11194 65.1674 1.10614 65.1035C1.08377 64.8548 1.25455 64.9036 1.20173 64.6625C1.18249 64.5741 1.06706 64.7463 1.07044 64.6512C1.07884 64.4163 1.26428 64.2048 1.28284 63.892C1.28739 63.8164 1.20479 63.7919 1.20759 63.6576C1.21043 63.5231 1.31149 62.9596 1.13727 63.2197C1.27688 62.8779 1.20026 62.8091 1.20411 62.4116C1.20528 62.3109 1.3384 62.1812 1.29712 61.9669C1.28312 61.8944 1.1548 61.8966 1.15375 61.7875C1.15099 61.538 1.28382 61.303 1.28907 60.9864C1.29921 60.3943 1.20583 59.764 1.23908 59.1468C1.2482 58.979 1.37721 59.0209 1.3797 58.7769C1.3797 58.7411 1.26814 58.4472 1.27863 58.2786C1.28493 58.1771 1.36333 57.6513 1.36963 57.5452C1.37973 57.3699 1.25496 57.3385 1.27936 57.2425C1.3497 56.9648 1.53336 57.1876 1.28211 56.8534C1.42139 56.7435 1.40745 56.5482 1.57892 56.4856C1.39102 56.372 1.57155 56.2246 1.50861 56.0041C1.44562 55.7836 1.08167 55.6028 1.47327 55.5494C1.42568 55.4464 1.34445 55.0075 1.33851 54.9335C1.32172 54.7154 1.43004 54.832 1.41541 54.6674C1.41296 54.6384 1.33889 54.6688 1.3462 54.4828C1.3511 54.3607 1.35564 53.4662 1.36579 53.4128C1.48175 52.8034 1.43925 53.7449 1.51941 53.8767C1.49836 53.9 1.47723 53.923 1.45643 53.9478C1.42145 54.2171 1.58879 54.0638 1.62763 53.9417C1.66646 53.8196 1.59192 53.5915 1.64686 53.49C1.67444 53.4395 1.87507 53.4708 1.85084 53.6237C1.91263 53.4601 1.97788 53.6835 2.03596 53.6188C2.09962 53.5477 2.11922 52.8125 2.00867 52.8086C2.00483 52.9459 2.00864 53.1168 2.0041 53.2557C1.81197 53.4373 1.15586 52.8857 1.41797 52.3798C1.60764 52.0129 1.75845 52.6178 1.59925 51.7496C1.59155 51.8831 1.57361 51.9961 1.56556 52.1174C1.42147 52.1303 1.5799 51.9335 1.53406 51.832C1.51165 51.7833 1.40963 52.0837 1.37568 51.8229C1.58171 51.5986 1.37446 51.426 1.37201 51.0499C1.40876 51.1544 1.44532 51.259 1.48206 51.3636C1.63149 50.728 1.68078 52.2042 1.76441 50.9684C1.77105 51.1171 1.76929 51.2651 1.77943 51.4145C1.85503 51.3421 2.07696 51.458 2.12385 51.3932C2.24692 51.2231 2.17273 50.9714 2.18354 50.7639C2.18809 50.6731 2.24801 50.7294 2.24836 50.7218C2.255 50.5974 2.16717 50.6249 2.16157 50.5158C2.15458 50.3785 2.23996 49.9819 2.23023 49.9176C2.20539 49.7513 2.03206 50.0283 2.01911 50.0123C1.93516 49.9062 2.00478 49.6896 1.89497 49.701C1.97054 50.2222 1.87352 51.7242 1.6919 50.3653C1.51448 50.74 1.26987 50.6318 1.25061 50.0931C1.23452 49.6475 1.33253 49.9351 1.44031 49.7031C1.45381 49.6731 1.50534 49.0763 1.42914 49.0458C1.60464 49.0697 1.76005 48.8755 1.94111 49.0058C1.9677 49.0249 1.95721 49.2698 2.10279 49.1843C2.17592 49.1416 2.33508 49.019 2.42817 49.0387C2.36344 48.9884 2.29062 48.9357 2.22309 48.8846C2.20419 48.5176 2.27393 48.4655 2.39466 48.2648C2.34427 48.274 2.13252 48.4594 2.19691 48.1778C2.20076 48.1634 2.27676 48.1509 2.31446 48.0079C2.39004 47.7187 2.41355 47.6584 2.63673 47.8803C2.50942 47.2815 2.75817 47.1525 2.68543 46.5384C2.39852 46.6605 2.46956 46.8764 2.52485 47.4387C2.45661 47.4631 2.38907 47.4746 2.32014 47.4997C2.4748 46.7513 2.45904 47.1211 2.3205 46.6971C2.28656 46.5934 2.32288 46.0401 2.12971 46.2247C2.08425 46.2683 2.08949 46.612 2.01783 46.5726C2.00419 46.565 1.96947 46.1471 1.98798 46.1103C2.2165 45.6479 2.37576 46.4742 2.29249 45.2008C2.29004 45.1658 2.20652 45.1534 2.19489 45.0849C2.1732 44.956 2.26996 44.9543 2.24763 44.8392C2.22523 44.724 2.09509 44.5644 2.2154 44.3912C2.43447 44.0746 2.56047 44.8215 2.44428 45.1542C2.73054 45.2892 2.73685 42.9125 2.71235 42.7652C2.60564 42.1222 2.66724 43.1923 2.58784 43.2474C2.55425 43.2703 2.12842 43.2589 2.40473 43.5297C2.48661 43.6098 2.59451 43.275 2.63966 43.4748C2.6848 43.6747 2.55942 43.5955 2.55067 43.61C2.52068 43.6597 2.56717 43.8723 2.54939 43.8999C2.27957 44.3241 1.87186 44.2852 2.47413 43.7229C2.338 43.478 2.12102 44.0401 2.02863 43.7357C1.91634 43.3657 2.11052 43.0956 2.11927 43.0491C2.22281 42.4915 1.93935 43.1344 2.02991 42.4534C2.08031 42.0741 2.21856 43.0209 2.20002 42.1549C2.18427 41.43 2.08559 41.8215 1.86127 41.7688C1.80879 41.7564 1.74443 41.3593 1.76752 41.9001C1.82595 41.9153 1.90296 41.9442 1.95685 41.9785C1.91419 42.1112 1.62174 42.3323 1.61152 42.4027C1.56288 42.7468 1.71467 42.7302 1.53589 42.9331C1.73147 42.7882 1.61362 43.024 1.65491 43.1125C1.8071 43.4412 1.86368 43.0103 1.6681 43.7479C1.75978 43.6518 1.84977 43.5648 1.94111 43.4717C1.94426 43.5602 1.94748 43.6488 1.95063 43.7372C1.74871 43.8692 1.77453 44.3393 1.57123 43.9136C1.5135 44.4255 1.55752 44.6325 1.71461 44.7446C1.74459 44.7659 1.75658 44.8428 1.75947 44.9332C1.80364 44.9161 1.94012 44.8942 1.95685 44.9085C2.10406 45.0359 1.84976 45.2334 1.75269 45.1661C1.74805 45.2293 1.7426 45.2793 1.74024 45.297C1.72516 45.409 1.63739 45.1894 1.60731 45.2802C1.59753 45.3101 1.61662 45.6257 1.58094 45.6318C1.35218 45.6698 1.51722 45.1505 1.38428 46.1933C1.5925 46.2185 1.54672 45.7341 1.76789 45.8585C2.00549 45.992 1.68677 46.2644 1.97828 46.3239C1.93035 46.346 1.89038 46.3558 1.83582 46.3749C1.96283 46.7967 1.72005 46.8023 1.66645 46.9312C1.56181 47.1815 1.57753 48.332 1.78785 47.2989C1.80884 47.45 1.81856 47.6042 1.8371 47.7546C1.40186 47.7889 1.57509 47.6973 1.50861 48.4214C1.49391 48.5808 1.30249 48.6327 1.52985 48.7891C1.30683 48.7679 1.44156 49.2395 1.41449 49.2835C1.23848 49.5658 0.993469 48.5176 1.38776 48.3832C1.23425 48.2063 1.43718 48.2069 1.41028 48.0094C1.37144 47.724 1.33192 47.6844 1.48169 47.3456C1.27067 47.0122 1.38885 48.6509 1.10889 47.6575C0.82895 46.6638 0.672795 40.8777 0.6308 39.5279C0.554861 37.0825 0.505226 35.7968 0.517823 33.6002C0.518873 33.3835 0.498639 31.7478 0.742494 32.0877C0.777489 32.1366 0.870231 32.8401 1.06165 32.2367C0.948629 32.3594 0.875242 32.0046 0.863344 31.9748C0.593189 31.292 0.527031 31.6873 0.524232 30.6122ZM2.69917 27.4253C2.64353 28.8283 2.80655 27.7976 3.17469 28.089C3.17574 27.909 3.17676 27.7295 3.17781 27.5495C3.15471 27.5968 3.13169 27.6435 3.10859 27.6908C3.10859 27.691 3.10859 27.6912 3.10859 27.6914C2.97213 27.6029 2.83563 27.5138 2.69917 27.4253ZM2.94563 4.48853C2.9941 4.54327 3.04267 4.59737 3.0901 4.65668C3.07505 4.84204 3.06028 5.02673 3.04524 5.2121C3.01235 5.18997 2.97907 5.16861 2.94618 5.14649C2.94757 4.92718 2.9491 4.70857 2.94563 4.48853ZM2.49757 45.3504C2.36286 45.6128 2.60325 45.5892 2.49372 45.9378C2.67113 45.8951 2.84468 45.8477 3.02034 45.8027C2.99408 45.5373 2.92662 45.4769 2.96998 45.1886C2.91296 45.2222 2.8556 45.2565 2.79823 45.2893C2.81046 45.3374 2.82438 45.3884 2.83521 45.4349C2.67566 45.5089 2.65185 45.0482 2.4972 45.3495C2.49732 45.3498 2.49745 45.3501 2.49757 45.3504ZM2.56898 48.0399C2.54588 48.1811 2.45905 48.7403 2.53254 48.8166C2.78171 49.0752 2.62358 47.4975 2.8451 48.6603C2.88006 48.655 2.91431 48.6603 2.94892 48.6603C2.96117 48.4482 2.97172 48.2367 2.98152 48.0231C2.84365 48.0346 2.70754 48.0269 2.56898 48.0399ZM2.71455 32.5C2.69535 32.717 2.81255 33.7512 2.97035 33.414C3.01654 33.3148 2.79081 32.8531 2.80061 32.6776C2.80692 32.564 2.93069 32.6914 2.8852 32.4671C2.83065 32.477 2.77016 32.4831 2.71491 32.5006C2.71479 32.5004 2.71467 32.5002 2.71455 32.5ZM1.99439 32.0932C2.01644 32.3175 2.04437 32.5449 2.06782 32.7707C2.20882 32.6059 2.11824 32.2817 2.31666 32.2626C2.3317 32.3244 2.34666 32.3855 2.3617 32.4472C2.31832 32.4945 2.2749 32.5411 2.23151 32.5876C2.3393 32.7814 2.39285 32.664 2.3617 33.0249C2.66161 32.8067 2.82258 32.7662 2.51917 32.1482C2.68189 32.2649 3.2121 32.155 2.8332 31.8125C2.76286 31.7484 2.71586 32.016 2.70466 32.0191C2.56542 32.0602 2.47657 31.9117 2.34504 31.9559C2.28555 31.9757 2.28645 32.139 2.20386 32.1634C2.16358 32.1747 2.04863 32.0194 1.99439 32.0932ZM2.70045 31.6461C2.78478 31.7156 2.98492 31.4783 2.94435 31.2723C2.88135 30.9511 2.691 31.4577 2.70045 31.6461ZM2.94544 4.48731C2.9455 4.48772 2.94557 4.48813 2.94563 4.48853C2.94544 4.48833 2.94526 4.48813 2.94508 4.48792C2.9452 4.48772 2.94532 4.48752 2.94544 4.48731ZM2.66657 47.3121C2.73827 47.4784 2.72782 47.7245 2.84181 47.7063C2.81941 47.7872 2.79737 47.869 2.77497 47.9499C2.80924 47.9491 2.84359 47.9476 2.87751 47.9468C2.89886 47.7035 2.92027 47.4608 2.94197 47.2175C2.85029 47.248 2.75825 47.2762 2.66657 47.3121ZM2.58674 49.9634C2.57521 50.2693 2.7303 50.0129 2.80519 50.08C2.88008 50.1471 2.81915 50.4197 2.92659 50.3876C2.93078 50.2076 2.935 50.0197 2.93885 49.8374C2.82197 49.8855 2.70292 49.919 2.58674 49.964C2.58674 49.9638 2.58674 49.9636 2.58674 49.9634ZM2.8213 21.6989C2.7877 21.9064 2.66936 21.8218 2.80793 22.2315C2.80793 22.2312 2.80793 22.2309 2.80793 22.2306C2.90485 21.8407 2.99123 21.3388 2.89747 20.9085C2.77262 21.1717 2.87378 21.3724 2.8213 21.6989ZM2.84675 44.6247C2.75298 44.5371 2.67466 44.9451 2.76179 45.0351C2.90281 45.1808 2.98918 44.7582 2.84675 44.6247ZM1.99073 13.3173C1.70204 13.0016 1.378 13.5997 1.51795 14.2261C1.5302 14.2803 1.62201 13.8759 1.67835 13.9957C1.6839 14.0078 1.67702 14.2298 1.71717 14.2847C1.75741 14.3396 1.85082 14.2819 1.89002 14.372C1.95852 14.5299 1.83159 14.887 1.92151 15.0052C1.93356 15.0208 2.05849 14.7994 2.06324 14.7855C2.13882 14.5581 1.97552 14.339 1.97443 14.3039C1.96883 14.1231 2.09686 14.1504 2.12696 14.1046C2.18356 14.0184 2.12697 13.8666 2.13117 13.8559C2.24346 13.5815 2.21133 14.2085 2.25751 14.2932C2.38209 14.5213 2.49791 14.3101 2.56824 14.8572C2.57487 14.9091 2.56735 15.531 2.7107 14.7473C3.00953 16.286 2.88068 13.9742 2.81489 13.7232C2.78439 13.6074 2.66235 13.7826 2.60743 13.7125C2.48182 13.5522 2.45966 13.2791 2.2826 13.3035C1.91033 13.3562 2.15426 13.7149 2.09162 13.9621C2.01078 13.9362 1.93194 13.9262 1.85285 13.8782C1.95923 13.9522 2.01246 13.3401 1.99146 13.3173C1.99122 13.3173 1.99097 13.3173 1.99073 13.3173ZM2.41608 17.2125C2.30375 17.5582 2.53875 17.5337 2.40436 17.8504C2.61537 18.1296 2.60121 17.5788 2.61311 17.5147C2.66629 17.2217 2.89574 17.2285 2.82514 16.9287C2.68938 17.0317 2.5522 17.1157 2.41608 17.2125ZM2.51295 14.2063C2.63192 14.4374 2.62991 14.0238 2.65266 14.007C2.894 13.8243 2.8471 15.0629 2.51295 14.2063ZM2.24177 33.8465C2.23372 33.9639 2.34764 33.8894 2.38129 33.9929C2.41523 34.0967 2.31773 34.4514 2.38862 34.4425C2.45966 34.4333 2.64389 33.7834 2.68379 34.4358C2.72366 34.4137 2.75341 34.4211 2.78944 34.4104C2.79049 34.2311 2.79223 34.0502 2.79328 33.8709C2.67851 33.9693 2.55777 34.0702 2.44685 34.1648C2.35551 34.064 2.47266 34.0074 2.47266 34.0021C2.47254 34.0021 2.47242 34.0021 2.4723 34.0021C2.46311 33.8145 2.25967 33.5827 2.24177 33.8465ZM2.59937 24.5999C2.31416 24.5648 2.63269 24.8418 2.66804 24.9555C2.70326 25.0691 2.59767 25.2253 2.72041 25.1666C2.80509 24.9828 2.6312 24.6038 2.59901 24.5999C2.59913 24.5999 2.59925 24.5999 2.59937 24.5999ZM2.41663 19.0903C2.48586 19.38 2.56001 19.334 2.47541 19.6884C2.54435 19.6747 2.6148 19.661 2.68269 19.6472C2.68409 19.3657 2.48396 19.3855 2.5644 19.0598C2.5777 19.0064 2.73755 19.1207 2.68617 18.8797C2.60085 18.9499 2.50615 19.0209 2.41663 19.0903ZM2.67225 20.5261C2.66172 20.1935 2.10387 19.9296 2.35548 20.5423C2.39308 20.6331 2.6803 20.7763 2.67225 20.5261ZM2.22767 30.7779C2.21159 31.3438 2.30161 30.7009 2.38734 30.5536C2.45591 31.871 2.36388 30.4049 2.649 30.2735C2.5678 30.1125 2.38213 29.8112 2.3324 30.1459C2.31176 30.2855 2.39666 30.2346 2.39631 30.2429C2.37531 30.5 2.23642 30.4689 2.22767 30.7779ZM2.40235 16.6119C2.40655 16.6333 2.50285 16.5999 2.5221 16.6678C2.54121 16.7358 2.47381 16.8897 2.53291 16.9049C2.59237 16.9201 2.63849 16.6114 2.59516 16.5167C2.55142 16.4221 2.36527 16.4189 2.40235 16.6119ZM2.16505 18.7836C2.23434 19.0663 2.58913 18.604 2.58747 18.5425C2.56892 18.0023 2.27738 18.7996 2.16505 18.7836ZM1.62507 29.4638C1.80529 30.1459 2.11846 29.647 2.30604 29.2197C2.26791 29.1633 2.22974 29.1054 2.19196 29.0497C2.42363 29.3061 2.65261 29.7554 2.45069 28.7558C2.39617 29.3029 2.33393 28.8448 2.32087 28.8413C1.89533 28.781 2.09295 29.5914 1.62507 29.4632C1.62507 29.4634 1.62507 29.4636 1.62507 29.4638ZM2.50379 15.6925C2.50237 15.3956 2.42886 14.6238 2.24341 14.9838C2.33019 15.2203 2.41702 15.456 2.50379 15.6925ZM1.64997 40.6311C1.54393 40.8738 1.54574 41.0974 1.55274 41.3965C1.70706 41.1272 1.72479 41.3042 1.76258 41.395C1.81947 41.5327 1.81481 41.1991 1.8252 41.1982C1.97182 41.2043 1.99459 41.417 1.9911 40.9327C2.04217 41.0524 2.09363 41.1706 2.14436 41.2903C2.15102 40.9211 2.24667 40.8342 2.36353 40.6C2.07798 40.8274 2.25677 40.528 2.11469 40.2564C2.04356 40.1208 1.7042 40.5077 1.64997 40.6321C1.64997 40.6318 1.64997 40.6314 1.64997 40.6311ZM1.56775 30.1688C1.61919 30.239 1.68878 30.3032 1.74756 30.3711C1.75316 30.4451 1.75808 30.5193 1.76368 30.5933C1.7182 30.6024 1.67063 30.6101 1.6269 30.6208C1.61366 30.7183 1.67698 30.6803 1.68293 30.7093C1.68268 30.7093 1.68244 30.7093 1.68219 30.7093C1.76614 31.1249 1.7567 31.2952 1.61609 31.6208C1.75544 31.6208 1.89478 31.6208 2.03412 31.6208C2.02084 31.5476 2.00788 31.4737 1.99494 31.4005C1.92007 31.3616 1.84514 31.3225 1.77027 31.2836C1.81156 31.1989 1.85257 31.115 1.89387 31.0303C1.86694 30.9624 1.83861 30.8809 1.81238 30.8222C2.20186 30.4842 1.93727 31.2523 2.09894 31.2592C2.20288 31.2637 2.19833 30.4902 2.12659 30.3787C2.1161 30.3627 1.82608 30.5299 1.97718 30.2469C2.00097 30.2027 2.62842 30.1871 2.12037 29.8819C2.04829 29.8384 1.6585 29.9903 1.56775 30.1688ZM1.36542 32.9776C1.7668 32.5427 1.34238 34.1479 1.67267 33.4552C1.85707 33.6528 1.85467 33.6162 2.01838 33.4171C2.03305 33.3996 2.08372 33.5371 2.09016 33.5254C2.18044 33.3393 2.13257 33.115 2.2967 33.1134C2.28795 33.0631 2.28017 33.0158 2.27143 32.9654C2.11678 33.1751 2.01285 32.8417 1.88233 32.7127C1.82322 32.654 1.80498 32.789 1.75324 32.7396C1.73435 32.7213 1.77206 32.5328 1.7179 32.5251C1.59542 32.509 1.42989 32.6274 1.3396 32.8281C1.33948 32.8281 1.33936 32.8281 1.33924 32.8281C1.34728 32.8784 1.35703 32.9273 1.36542 32.9776ZM1.69886 23.6826C1.92073 23.6086 1.98423 23.3119 2.09272 23.8819C2.13642 23.8536 2.17976 23.8246 2.22346 23.7964C2.21961 23.7003 2.21579 23.6072 2.21229 23.5095C1.55864 23.2166 2.29629 22.6818 1.83271 23.0243C1.78231 23.0617 1.83862 23.2897 1.70179 23.0646C1.70166 23.0649 1.70154 23.0652 1.70142 23.0655C1.74342 23.3798 1.82203 23.4194 1.69886 23.6826ZM1.85358 25.7862C2.32042 26.511 2.11406 24.7845 1.99018 25.073C1.97898 25.0989 2.0793 25.8426 1.85358 25.7862ZM1.44727 19.9698C1.43922 20.2947 1.6911 20.3163 1.7818 20.2835C1.87278 20.2507 1.78085 20.0257 1.79517 19.9967C1.84241 19.902 1.87362 20.1027 1.93836 19.9799C1.95938 19.9392 2.04918 19.3732 2.03834 19.3472C1.97809 19.2032 1.77026 19.4138 1.74646 19.3726C1.66847 19.2383 1.77658 19.056 1.66608 19.017C1.4303 18.9331 1.67781 19.2731 1.68183 19.3305C1.69303 19.5037 1.56029 19.4885 1.5337 19.6182C1.50715 19.7478 1.55262 19.8326 1.54322 19.9469C1.54008 19.985 1.44811 19.9533 1.44727 19.9698ZM1.97919 21.0443C1.78852 20.7049 1.58115 21.5313 1.6258 21.6293C1.75843 21.9178 2.07018 21.2068 1.97919 21.0443ZM1.97114 31.8888C1.83291 31.5783 1.72104 32.3015 1.77668 32.5083C1.83412 32.4699 2.01872 31.9956 1.97114 31.8888ZM1.6258 29.2746C1.66884 29.56 1.98025 29.1816 1.97535 28.9435C1.7707 28.804 1.81126 28.9353 1.80286 29.0909C1.79438 29.2464 1.59227 29.052 1.6258 29.2746ZM1.67487 16.445C1.67162 16.5066 1.84078 17.4989 1.91108 16.9287C1.91633 16.8852 1.88654 16.1907 1.85505 16.138C1.79135 16.0321 1.68397 16.2864 1.67487 16.445ZM1.32349 27.9059C1.50052 28.057 1.49814 28.2056 1.706 28.0667C1.706 28.0665 1.706 28.0663 1.706 28.0661C1.76966 28.4484 1.34442 28.4653 1.35352 28.5477C1.38543 28.8359 1.6881 28.5628 1.78748 28.7436C1.69406 28.3232 1.89813 28.4438 1.91108 28.1241C1.91388 28.0524 1.79201 27.7654 1.71607 27.7234C1.6401 27.6815 1.41238 27.8281 1.32349 27.9059ZM1.63074 15.0434C1.56291 15.3783 1.84982 15.6849 1.89533 15.2204C1.91773 14.9937 1.67204 14.8389 1.63074 15.0434ZM1.55897 48.523C1.63419 48.4719 1.70911 48.4192 1.78364 48.3643C1.80183 48.4879 1.82039 48.6115 1.83893 48.7351C1.81514 48.6374 1.7917 48.5396 1.76826 48.4412C1.74201 48.6732 1.60516 48.7792 1.55897 48.5236C1.55897 48.5234 1.55897 48.5232 1.55897 48.523ZM1.50165 56.7808C1.42921 56.8845 1.65353 57.089 1.67103 57.063C1.80142 56.8678 1.60209 56.6367 1.50165 56.7808ZM1.2898 32.3474C1.25842 32.7332 1.62314 32.4679 1.64814 32.2315C1.57839 32.3761 1.30764 32.1285 1.2898 32.3474ZM1.51941 53.8767C1.55077 53.8421 1.58213 53.8072 1.61353 53.7684C1.56993 53.8904 1.5406 53.9115 1.51941 53.8767ZM1.35279 16.6028C1.3248 16.6617 1.30169 17.0973 1.33631 17.1561C1.4091 17.2782 1.61046 16.9385 1.54853 16.7386C1.54188 16.7165 1.38078 16.5442 1.35279 16.6037C1.35279 16.6034 1.35279 16.6031 1.35279 16.6028ZM1.41926 49.0448C1.42275 49.0442 1.42608 49.0445 1.42914 49.0458C1.42589 49.0453 1.42252 49.0454 1.41926 49.0448ZM1.04865 65.4508C1.05431 65.4484 1.05992 65.4472 1.06531 65.4474C1.06002 65.4484 1.05445 65.4502 1.04865 65.4508ZM1.04315 19.6747C0.695651 19.8197 0.880483 20.1538 1.05231 19.8898C1.06134 19.8751 1.04247 19.7099 1.04315 19.6747Z" fill="#419DDF"/>
</svg>
