<svg width="5" height="557" viewBox="0 0 5 557" fill="none" xmlns="http://www.w3.org/2000/svg">
<path d="M4.24106 213.132C4.16767 190.549 4.12517 165.825 3.98356 143.152C3.96621 140.369 3.86615 140.559 3.85005 139.779C3.80569 137.644 3.91991 136.358 3.90561 134.802C3.83645 127.238 3.79395 120.162 3.72916 112.741C3.66252 105.096 3.36234 108.714 3.27651 106.058C3.10847 100.869 3.53269 105.281 3.61705 103.241C3.57119 97.2917 3.5054 91.2895 3.43921 85.3295C3.4063 86.7847 3.37421 88.2402 3.34416 89.7113C3.32643 87.1137 3.25005 83.3958 3.15894 87.7465C3.12609 86.7851 3.08849 85.8876 3.05625 84.8996C3.20399 84.6282 3.19944 80.0288 3.28609 79.608C3.37277 79.188 3.36179 81.7739 3.36943 81.758C3.47866 81.5862 3.29043 70.9791 3.27543 70.2142C3.23558 68.192 3.05759 69.9658 3.06328 68.2453C3.07296 65.2862 3.45514 67.2561 2.94208 63.2524C3.09836 61.6583 3.01373 61.5196 2.99527 59.5019C2.99291 59.2363 3.08745 59.442 3.08948 59.3252C3.14814 56.2708 2.98214 58.6191 2.97263 58.6032C2.81112 58.3265 2.87071 55.0487 2.85283 54.3582C2.62996 45.6949 2.47735 39.3471 2.40008 30.2049C2.38353 28.2287 2.42704 22.2093 2.39288 20.2969C2.35917 18.411 2.24715 19.4234 2.18808 18.4363C2.46062 16.8531 2.48588 15.3434 2.28983 11.7917C2.48803 10.4683 2.32493 10.6389 2.35643 8.10492C2.38248 5.99567 2.61274 2.31908 2.3969 -0.00142506C2.42536 2.6599 2.32467 2.38482 2.27524 5.3812C2.25888 6.37859 2.29197 16.7791 2.08176 16.006C1.97218 15.6026 2.05911 12.1552 2.0387 12.0221C1.91973 11.2469 1.78386 13.1713 1.84003 14.8764C1.86195 14.4513 1.88389 13.9393 1.9057 13.4823C2.06468 17.312 1.49744 14.68 1.99534 17.5892C2.05642 17.949 2.11826 17.8092 2.18393 18.4024C2.15809 18.5244 2.09034 17.7988 2.08092 18.424C2.07145 19.0618 2.19948 20.2722 2.09589 20.4531C1.94528 20.7235 1.99553 18.0813 1.98595 17.8825C1.98686 17.8803 1.98777 17.8783 1.98868 17.8761C1.90189 16.1187 1.90589 19.7897 1.89217 19.9652C1.80181 21.1011 1.7263 20.3269 1.65441 22.0313C1.61346 23.0036 1.64855 25.4799 1.63748 26.3936C1.62603 27.3016 1.54926 25.8892 1.53606 26.5003C1.52286 27.1112 1.58007 27.8716 1.5648 28.5888C1.55803 28.8958 1.478 28.8803 1.47574 29.029C1.45069 30.6224 1.61328 29.5767 1.60832 31.0216C1.60494 31.9576 1.46115 35.1 1.40718 32.9347C1.39483 33.9756 1.38669 34.9907 1.37782 36.0264C1.35168 35.3731 1.33309 34.6983 1.30283 34.0612C1.34792 36.0098 1.21423 36.8921 1.20843 38.1136C1.20267 39.3353 1.37083 40.43 1.29555 41.7743C1.13542 44.6436 1.18866 37.54 1.15505 36.6582C1.14184 36.3144 1.01794 37.6347 1.01499 37.838C1.00214 38.7408 1.09797 39.8084 1.09635 40.5044C1.0899 42.9959 0.973959 44.5217 0.95798 46.8963C0.903724 54.9819 0.872194 65.0122 0.873104 72.6727C0.873548 75.5256 1.01622 77.2415 1.01697 78.5219C1.01862 81.5172 0.900971 81.8845 0.904026 84.4973C0.90819 88.3859 1.03172 93.8638 1.06577 97.1096C1.08923 99.3566 0.981412 101.391 0.980701 101.976C0.968573 110.098 1.00665 119.98 1.02941 126.711C1.04008 129.876 1.17486 131.379 1.1734 132.033C1.1674 134.843 1.05408 134.09 1.07343 136.368C1.08379 137.598 1.1908 137.828 1.19554 137.993C1.23574 139.443 1.09812 139.732 1.09763 140.864C1.09476 147.371 1.20802 153.639 1.24446 160.082C1.24719 160.55 1.30846 160.508 1.3064 160.811C1.29599 162.111 1.19709 161.507 1.19494 162.866C1.19004 165.692 1.21645 168.594 1.23945 171.59C1.24172 171.887 1.32117 172.02 1.32363 172.699C1.32608 173.379 1.25307 173.895 1.26108 174.962C1.28194 177.751 1.38136 180.503 1.39687 183.457C1.39932 183.945 1.30638 184.551 1.31005 185.284C1.32146 187.585 1.42004 190.99 1.43026 192.961C1.46341 199.463 1.43081 205.462 1.4521 211.587C1.45731 213.026 1.55002 214.301 1.55481 215.05C1.56539 216.738 1.47754 215.465 1.48333 217.175C1.5314 231.146 1.61962 245.171 1.66373 259.307C1.68121 264.859 1.61931 271.616 1.66237 276.982C1.68054 279.212 1.79713 279.617 1.80384 281.195C1.81531 284.009 1.66955 284.52 1.66549 287.489C1.66245 289.858 1.81955 292.573 1.81931 295.038C1.81906 297.503 1.68002 298.641 1.67304 301.472C1.66743 303.804 1.74407 307.06 1.74269 309.599C1.72965 332.868 1.75313 355.78 1.94917 379.191C2.01838 387.451 2.03073 396.616 2.20206 405.153C2.21826 405.955 2.35207 404.727 2.33226 407.298C2.32148 408.68 2.2093 410.608 2.2148 413.801C2.24796 432.782 2.57542 453.027 2.59433 472.327C2.62219 501.237 1.74619 531.202 3.27568 556.319C3.35078 557.551 3.69474 556.881 3.79049 556.143C3.7177 555.458 3.6319 554.825 3.54991 554.108C3.97944 553.204 3.86733 553.363 3.81647 550.017C3.78495 547.957 3.97595 549.602 4.02454 548.503C4.08732 547.079 4.27709 540.394 3.9951 541.681C4.0433 541.266 4.08953 540.883 4.13672 540.48C4.16274 535.64 4.21761 530.938 4.28285 526.205C4.29429 525.387 4.38409 525.349 4.3954 524.504C4.42644 522.236 4.36089 520.435 4.36159 518.098C4.36194 516.828 4.46523 516.652 4.45261 514.989C4.43995 513.327 4.29979 513.364 4.44412 511.097C4.62545 512.573 4.47407 505.985 4.4765 503.643C4.47668 503.303 4.6248 500.513 4.6013 499.031C4.57812 497.544 4.46899 495.287 4.51807 492.986C4.54115 491.908 4.66195 491.253 4.66478 490.09C4.66674 489.272 4.55374 488.289 4.54546 487.254C4.5372 486.218 4.61901 483.977 4.61902 483.567C4.61964 482.085 4.54855 483.72 4.54104 482.707C4.50597 477.814 4.44432 472.13 4.47878 467.306C4.48293 466.713 4.57655 467.533 4.57929 467.454C4.67609 463.428 4.56566 465.578 4.48057 464.491C4.39829 463.438 4.41344 455.732 4.57087 455.675C4.37263 455.439 4.51724 453.725 4.52144 453.28C4.53759 451.548 4.36804 451.889 4.41483 450.21C4.43186 449.594 4.5516 450.793 4.54584 450.131C4.53156 448.495 4.34083 447.023 4.31445 444.845C4.30801 444.319 4.39001 444.148 4.38385 443.213C4.37765 442.277 4.2625 438.354 4.44321 440.164C4.29506 437.785 4.36996 437.305 4.35618 434.538C4.35249 433.837 4.21613 432.934 4.25204 431.442C4.26424 430.937 4.39261 430.952 4.39093 430.192C4.38746 428.455 4.24875 426.82 4.23559 424.615C4.21064 420.493 4.28826 416.104 4.23958 411.807C4.22627 410.639 4.09831 410.931 4.08971 409.232C4.08882 408.982 4.19303 406.936 4.17833 405.762C4.16949 405.055 4.07794 401.395 4.06899 400.656C4.05451 399.435 4.1785 399.217 4.15169 398.548C4.07441 396.615 3.89632 398.167 4.13922 395.839C3.99719 395.075 4.00625 393.715 3.83321 393.28C4.01828 392.488 3.83406 391.462 3.89149 389.927C3.94896 388.391 4.30839 387.131 3.91546 386.761C3.96048 386.043 4.03073 382.988 4.03483 382.472C4.04616 380.954 3.94075 381.766 3.95127 380.62C3.95299 380.418 4.02782 380.629 4.01587 379.334C4.00792 378.484 3.98101 372.256 3.96953 371.885C3.83833 367.642 3.90437 374.197 3.8275 375.115C3.84914 375.277 3.87084 375.437 3.89226 375.61C3.93397 377.484 3.7628 376.418 3.72091 375.568C3.67902 374.718 3.74787 373.129 3.69039 372.423C3.66154 372.071 3.4617 372.29 3.48975 373.355C3.42387 372.216 3.3642 373.771 3.30451 373.321C3.23907 372.826 3.20109 367.707 3.31154 367.68C3.31882 368.636 3.31928 369.826 3.32729 370.793C3.52396 372.056 4.16628 368.213 3.89152 364.692C3.69268 362.138 3.55699 366.351 3.69449 360.305C3.70553 361.235 3.72629 362.021 3.73737 362.866C3.88178 362.955 3.71843 361.585 3.76173 360.879C3.78293 360.539 3.89246 362.63 3.91989 360.814C3.70825 359.254 3.91118 358.051 3.90423 355.432C3.8701 356.16 3.83616 356.889 3.80202 357.617C3.63671 353.192 3.62433 363.471 3.5098 354.866C3.50687 355.902 3.51234 356.932 3.50594 357.973C3.42852 357.469 3.20949 358.277 3.16098 357.825C3.03365 356.641 3.10155 354.889 3.08556 353.444C3.07874 352.812 3.02023 353.204 3.01969 353.151C3.00994 352.286 3.09846 352.476 3.10133 351.717C3.10489 350.761 3.00959 348 3.01771 347.552C3.0384 346.394 3.21865 348.322 3.23119 348.21C3.31249 347.472 3.23746 345.964 3.34756 346.043C3.28502 349.672 3.41958 360.129 3.56723 350.668C3.75402 353.275 3.99592 352.521 4.00171 348.771C4.00667 345.668 3.91584 347.67 3.80226 346.056C3.78802 345.847 3.72156 341.692 3.797 341.479C3.6221 341.646 3.46184 340.295 3.28404 341.203C3.25792 341.335 3.27453 343.041 3.12682 342.446C3.05262 342.149 2.8904 341.296 2.7978 341.434C2.86127 341.083 2.93278 340.716 2.99902 340.36C3.00875 337.805 2.93771 337.442 2.81196 336.045C2.86258 336.109 3.07897 337.399 3.00754 335.439C3.00333 335.338 2.92702 335.252 2.88574 334.256C2.80293 332.243 2.77791 331.823 2.56028 333.369C2.67262 329.199 2.42064 328.302 2.47803 324.026C2.76799 324.875 2.70235 326.379 2.66112 330.294C2.72997 330.464 2.79779 330.543 2.86736 330.718C2.69398 325.508 2.71899 328.083 2.84693 325.13C2.87828 324.407 2.82812 320.555 3.02591 321.84C3.07245 322.143 3.07581 324.537 3.14648 324.262C3.15994 324.209 3.1842 321.299 3.16477 321.043C2.9247 317.824 2.78609 323.578 2.83753 314.712C2.8391 314.468 2.92232 314.382 2.93223 313.904C2.9507 313.007 2.8539 312.996 2.87335 312.194C2.89287 311.392 3.01902 310.28 2.89438 309.075C2.66739 306.871 2.56007 312.072 2.68457 314.387C2.40169 315.329 2.33597 298.781 2.35678 297.756C2.44742 293.278 2.41257 300.729 2.49335 301.112C2.52751 301.271 2.95305 301.191 2.68351 303.077C2.60363 303.635 2.48737 301.304 2.44721 302.695C2.40707 304.087 2.53047 303.535 2.53958 303.636C2.57081 303.982 2.52964 305.463 2.54811 305.655C2.82853 308.608 3.23527 308.335 2.61894 304.422C2.74895 302.717 2.97998 306.63 3.06476 304.51C3.1678 301.933 2.96687 300.053 2.95696 299.729C2.83948 295.848 3.13901 300.323 3.03142 295.582C2.97155 292.941 2.85696 299.533 2.85385 293.504C2.85148 288.457 2.95994 291.182 3.18295 290.815C3.23512 290.728 3.28955 287.963 3.27998 291.728C3.22193 291.835 3.14564 292.036 3.09261 292.275C3.13858 293.199 3.43656 294.737 3.44855 295.227C3.50579 297.623 3.35358 297.508 3.53743 298.92C3.33823 297.912 3.46198 299.553 3.4229 300.17C3.27893 302.458 3.21157 299.458 3.4256 304.594C3.33151 303.925 3.23935 303.319 3.14568 302.672C3.14475 303.288 3.14374 303.904 3.1428 304.52C3.34801 305.439 3.33394 308.712 3.5266 305.747C3.59713 309.311 3.55829 310.752 3.40401 311.533C3.37455 311.682 3.36449 312.217 3.36386 312.847C3.31926 312.728 3.18224 312.576 3.16586 312.675C3.02184 313.563 3.28108 314.937 3.37646 314.468C3.38268 314.908 3.38938 315.256 3.39218 315.379C3.41006 316.159 3.49234 314.63 3.5247 315.262C3.53522 315.47 3.52401 317.667 3.55985 317.71C3.78956 317.974 3.61154 314.359 3.77054 321.619C3.56295 321.795 3.59663 318.422 3.37857 319.289C3.14431 320.22 3.46983 322.115 3.17982 322.53C3.2283 322.684 3.26851 322.752 3.32355 322.884C3.20708 325.822 3.45001 325.86 3.50683 326.757C3.61772 328.499 3.63077 336.51 3.39462 329.318C3.3774 330.37 3.37155 331.444 3.35676 332.491C3.79286 332.728 3.61733 332.091 3.70192 337.132C3.7206 338.242 3.91332 338.603 3.68987 339.692C3.91237 339.544 3.78942 342.828 3.81759 343.134C4.00066 345.099 4.21946 337.8 3.82181 336.866C3.97091 335.634 3.76799 335.639 3.78995 334.263C3.82166 332.276 3.86019 332 3.70194 329.642C3.90463 327.32 3.82742 338.73 4.08254 331.812C4.33764 324.893 4.34914 284.606 4.35739 275.208C4.37219 258.182 4.38968 249.23 4.32217 233.936C4.3157 232.427 4.29504 221.039 4.05969 223.406C4.02592 223.746 3.95076 228.645 3.74426 224.444C3.86035 225.299 3.92486 222.828 3.93602 222.621C4.1891 217.865 4.26514 220.617 4.24106 213.132ZM1.98647 190.951C2.07718 200.72 1.88839 193.543 1.52754 195.574C1.52199 194.32 1.51649 193.071 1.51094 191.817C1.53521 192.147 1.5594 192.472 1.58368 192.801C1.58369 192.802 1.58369 192.804 1.5837 192.805C1.71794 192.189 1.85222 191.568 1.98647 190.951ZM1.16659 31.2548C1.11948 31.6361 1.07227 32.013 1.02632 32.4261C1.046 33.7166 1.06539 35.0025 1.08507 36.293C1.11741 36.1388 1.15015 35.9901 1.18249 35.8358C1.17561 34.3089 1.16862 32.787 1.16659 31.2548ZM2.63619 315.754C2.77747 317.581 2.53648 317.417 2.65473 319.844C2.47625 319.547 2.30152 319.217 2.12474 318.905C2.14435 317.057 2.21031 316.637 2.15974 314.629C2.2176 314.863 2.27582 315.102 2.33401 315.33C2.32298 315.664 2.31034 316.02 2.30066 316.344C2.46207 316.858 2.47436 313.65 2.63654 315.747C2.63642 315.75 2.63631 315.752 2.63619 315.754ZM2.63202 334.48C2.65865 335.463 2.75946 339.356 2.68788 339.887C2.44518 341.689 2.56386 330.704 2.37141 338.801C2.33632 338.764 2.3022 338.801 2.26759 338.801C2.25004 337.324 2.2342 335.852 2.21907 334.364C2.35721 334.444 2.49314 334.39 2.63202 334.48ZM2.09796 226.284C2.12257 227.794 2.03123 234.995 1.86501 232.649C1.81634 231.958 2.03052 228.743 2.01634 227.521C2.00718 226.73 1.8866 227.617 1.92648 226.055C1.98128 226.124 2.04192 226.166 2.0976 226.288C2.09772 226.287 2.09784 226.286 2.09796 226.284ZM2.80794 223.449C2.7915 225.011 2.76925 226.594 2.75145 228.166C2.60633 227.019 2.6888 224.762 2.48991 224.63C2.47641 225.06 2.46298 225.485 2.44948 225.915C2.49404 226.244 2.53863 226.568 2.58318 226.892C2.48024 228.242 2.42375 227.425 2.46392 229.937C2.15856 228.419 1.99658 228.138 2.28453 223.833C2.12473 224.647 1.59178 223.884 1.96211 221.497C2.03085 221.051 2.08454 222.914 2.09582 222.935C2.23608 223.221 2.32123 222.187 2.45386 222.494C2.51385 222.632 2.51702 223.769 2.60022 223.939C2.64079 224.017 2.75186 222.935 2.80794 223.449ZM2.09071 220.339C2.00811 220.822 1.80205 219.171 1.83747 217.737C1.89243 215.5 2.09545 219.027 2.09071 220.339ZM1.16674 31.2463C1.16669 31.2492 1.16664 31.2518 1.16659 31.2548C1.16677 31.2534 1.16695 31.252 1.16712 31.2505C1.167 31.2492 1.16687 31.2477 1.16674 31.2463ZM2.51623 329.413C2.44869 330.571 2.4653 332.285 2.35086 332.158C2.37527 332.721 2.39936 333.291 2.42378 333.854C2.38949 333.849 2.3551 333.838 2.32116 333.833C2.29373 332.139 2.26625 330.449 2.23847 328.755C2.33092 328.967 2.42365 329.163 2.51623 329.413ZM2.66235 347.872C2.68153 350.002 2.52003 348.217 2.44682 348.685C2.37361 349.153 2.44135 351.05 2.33311 350.827C2.32441 349.573 2.31549 348.266 2.30709 346.996C2.42517 347.33 2.54505 347.564 2.66236 347.877C2.66236 347.875 2.66235 347.874 2.66235 347.872ZM1.72118 151.082C1.75997 152.526 1.87619 151.936 1.74786 154.79C1.74785 154.787 1.74784 154.785 1.74784 154.783C1.64117 152.069 1.54225 148.575 1.62525 145.579C1.75667 147.411 1.66053 148.809 1.72118 151.082ZM2.26887 310.702C2.36045 310.092 2.44897 312.933 2.36409 313.56C2.22671 314.575 2.12978 311.633 2.26887 310.702ZM2.3422 92.7215C2.62299 90.5226 2.96199 94.686 2.8377 99.0474C2.8268 99.4246 2.72489 96.6095 2.67154 97.4438C2.66629 97.5281 2.67872 99.0736 2.63994 99.4561C2.60107 99.8387 2.50622 99.4374 2.46928 100.064C2.40473 101.165 2.54058 103.65 2.45361 104.473C2.44195 104.582 2.31149 103.041 2.3064 102.944C2.22513 101.361 2.38296 99.8355 2.38316 99.5909C2.38424 98.3318 2.25689 98.5225 2.22565 98.2039C2.1669 97.6038 2.21969 96.5466 2.21523 96.4722C2.09608 94.562 2.14389 98.9278 2.09982 99.5175C1.98094 101.106 1.85985 99.6361 1.80319 103.445C1.79786 103.807 1.82093 108.136 1.65798 102.681C1.39763 113.395 1.46868 97.2984 1.52819 95.5504C1.5558 94.7446 1.68222 95.9642 1.73538 95.4753C1.85699 94.3593 1.87231 92.4575 2.04999 92.6269C2.42357 92.9924 2.18861 95.4906 2.25743 97.2115C2.33762 97.0307 2.41621 96.9613 2.4941 96.6264C2.38957 97.142 2.32104 92.8809 2.34147 92.7215C2.34171 92.7215 2.34196 92.7215 2.3422 92.7215ZM2.01423 119.844C2.1352 122.25 1.8996 122.08 2.04189 124.285C1.83787 126.23 1.83826 122.395 1.82476 121.948C1.76425 119.909 1.53498 119.956 1.59808 117.869C1.73641 118.586 1.8757 119.17 2.01423 119.844ZM1.84221 98.9128C1.72901 100.523 1.72068 97.6427 1.69752 97.5259C1.45161 96.2549 1.52948 104.879 1.84221 98.9128ZM2.60439 235.657C2.61538 236.475 2.49959 235.956 2.46853 236.677C2.43719 237.4 2.54355 239.869 2.47244 239.807C2.40118 239.744 2.2007 235.219 2.17711 239.761C2.13668 239.608 2.10713 239.66 2.07083 239.585C2.06529 238.337 2.05902 237.077 2.05349 235.829C2.17072 236.514 2.29398 237.216 2.40727 237.874C2.49609 237.172 2.37752 236.779 2.37739 236.741C2.37751 236.741 2.37763 236.741 2.37776 236.741C2.38225 235.435 2.5799 233.821 2.60439 235.657ZM2.01563 171.279C2.29996 171.034 1.98835 172.963 1.95585 173.755C1.92347 174.546 2.03296 175.634 1.90876 175.225C1.81948 173.945 1.98389 171.306 2.01599 171.279C2.01587 171.279 2.01575 171.279 2.01563 171.279ZM2.06062 132.918C1.99864 134.935 1.92334 134.615 2.0168 137.082C1.94752 136.987 1.87673 136.892 1.8085 136.796C1.80006 134.836 2.00068 134.973 1.9121 132.706C1.89746 132.334 1.74047 133.131 1.78583 131.453C1.8729 131.94 1.96937 132.435 2.06062 132.918ZM1.84091 142.916C1.84312 140.6 2.39437 138.761 2.15808 143.027C2.12274 143.66 1.83911 144.658 1.84091 142.916ZM2.54178 214.292C2.57201 218.232 2.46591 213.756 2.3765 212.731C2.34087 221.903 2.39625 211.695 2.10784 210.781C2.18501 209.66 2.36316 207.562 2.42124 209.892C2.44538 210.864 2.35921 210.509 2.35977 210.568C2.3872 212.358 2.52531 212.141 2.54178 214.292ZM2.01295 115.662C2.00928 115.811 1.91214 115.579 1.89459 116.051C1.87719 116.525 1.94844 117.596 1.88972 117.702C1.83063 117.808 1.7768 115.659 1.81776 115C1.85914 114.341 2.0452 114.318 2.01295 115.662ZM2.30454 130.781C2.24231 132.75 1.87597 129.532 1.87609 129.104C1.88113 125.343 2.19261 130.893 2.30454 130.781ZM3.11153 205.141C2.94836 209.891 2.62271 206.417 2.42445 203.443C2.46117 203.05 2.4979 202.647 2.53428 202.259C2.30902 204.045 2.09127 207.174 2.2682 200.214C2.3364 204.023 2.38719 200.833 2.40016 200.809C2.8242 200.387 2.64683 206.031 3.11151 205.136C3.11152 205.138 3.11152 205.139 3.11153 205.141ZM1.88852 109.261C1.88252 107.193 1.93673 101.819 2.13118 104.326C2.05032 105.973 1.96938 107.614 1.88852 109.261ZM3.36581 282.893C3.47791 284.582 3.48169 286.139 3.48217 288.222C3.32112 286.347 3.30782 287.58 3.27229 288.212C3.21884 289.171 3.21517 286.848 3.20475 286.842C3.05829 286.885 3.04083 288.366 3.03222 284.994C2.98414 285.827 2.93563 286.651 2.8879 287.484C2.87201 284.914 2.77419 284.309 2.65147 282.679C2.9427 284.261 2.75643 282.177 2.89172 280.285C2.95946 279.341 3.30849 282.034 3.36583 282.899C3.36582 282.897 3.36581 282.895 3.36581 282.893ZM3.18646 210.049C3.13678 210.538 3.0688 210.985 3.01171 211.458C3.00796 211.973 3.0049 212.49 3.00115 213.005C3.04686 213.069 3.09462 213.121 3.13862 213.196C3.15429 213.875 3.09002 213.61 3.0848 213.812C3.08504 213.812 3.08529 213.812 3.08553 213.812C3.01198 216.706 3.02567 217.892 3.17442 220.159C3.03508 220.159 2.89574 220.16 2.75639 220.16C2.76785 219.65 2.77896 219.135 2.79007 218.626C2.86397 218.355 2.93792 218.082 3.01182 217.811C2.96841 217.222 2.9253 216.638 2.88189 216.048C2.90712 215.576 2.93341 215.008 2.95817 214.599C2.56025 212.247 2.84404 217.594 2.68253 217.642C2.57872 217.675 2.56392 212.288 2.63287 211.513C2.64297 211.401 2.93717 212.564 2.77899 210.594C2.75409 210.286 2.12626 210.18 2.62668 208.053C2.69767 207.75 3.09125 208.806 3.18646 210.049ZM3.45901 229.604C3.04676 226.578 3.51131 237.752 3.1637 232.931C2.98425 234.307 2.98573 234.052 2.81705 232.667C2.80194 232.545 2.75471 233.502 2.74798 233.421C2.65304 232.125 2.6953 230.563 2.53114 230.553C2.53862 230.203 2.54522 229.873 2.5527 229.523C2.71259 230.982 2.80819 228.66 2.93549 227.762C2.99313 227.353 3.01474 228.293 3.06525 227.949C3.08368 227.821 3.04125 226.509 3.09522 226.455C3.2173 226.343 3.38579 227.166 3.48109 228.563C3.48121 228.563 3.48134 228.563 3.48146 228.563C3.47467 228.914 3.46615 229.254 3.45901 229.604ZM2.8932 164.889C2.66948 164.374 2.59856 162.309 2.50433 166.278C2.45992 166.082 2.41586 165.879 2.37145 165.683C2.3729 165.014 2.37439 164.366 2.37545 163.686C3.02177 161.644 2.27075 157.923 2.7429 160.306C2.79422 160.566 2.74362 162.154 2.87482 160.586C2.87495 160.588 2.87508 160.59 2.87521 160.593C2.84107 162.781 2.76345 163.057 2.8932 164.889ZM2.79107 179.536C2.34236 184.584 2.50555 172.563 2.63664 174.57C2.64849 174.751 2.56676 179.929 2.79107 179.536ZM3.05197 139.038C3.06814 141.3 2.8168 141.451 2.72528 141.223C2.63348 140.995 2.71979 139.428 2.70474 139.226C2.65513 138.567 2.62895 139.965 2.56113 139.11C2.53909 138.827 2.43515 134.886 2.44534 134.705C2.50199 133.702 2.71508 135.168 2.73785 134.881C2.81248 133.946 2.69981 132.677 2.80934 132.405C3.04303 131.82 2.80401 134.188 2.80143 134.587C2.79456 135.793 2.92692 135.687 2.95676 136.59C2.98654 137.493 2.94319 138.083 2.95545 138.879C2.95954 139.144 3.05072 138.923 3.05197 139.038ZM2.54691 146.521C2.7291 144.157 2.95712 149.91 2.91493 150.593C2.78951 152.602 2.45999 147.653 2.54691 146.521ZM2.82608 222.025C2.95654 219.864 3.0865 224.898 3.03603 226.338C2.97763 226.071 2.78117 222.769 2.82608 222.025ZM3.10606 203.823C3.07015 205.81 2.74929 203.177 2.74824 201.519C2.9494 200.547 2.91212 201.461 2.92441 202.545C2.93677 203.627 3.13403 202.273 3.10606 203.823ZM2.73625 114.497C2.74104 114.926 2.59669 121.835 2.51214 117.866C2.5058 117.563 2.51822 112.727 2.5484 112.36C2.60945 111.623 2.72319 113.393 2.73625 114.497ZM3.37415 194.292C3.2009 195.345 3.20699 196.38 2.99567 195.414C2.99566 195.412 2.99566 195.411 2.99565 195.409C2.94155 198.071 3.36721 198.187 3.36017 198.761C3.33546 200.768 3.02597 198.868 2.93111 200.127C3.01402 197.199 2.81296 198.04 2.79202 195.814C2.78743 195.314 2.90212 193.316 2.97701 193.023C3.05194 192.731 3.28332 193.751 3.37415 194.292ZM2.74534 104.738C2.82154 107.07 2.5423 109.206 2.48518 105.971C2.45711 104.394 2.69893 103.314 2.74534 104.738ZM3.65411 337.84C3.5776 337.484 3.50137 337.118 3.42547 336.736C3.41037 337.596 3.39489 338.457 3.37944 339.318C3.4008 338.637 3.42179 337.956 3.44277 337.271C3.47482 338.886 3.61432 339.624 3.65412 337.844C3.65412 337.843 3.65411 337.841 3.65411 337.84ZM3.91786 395.334C3.9929 396.056 3.77369 397.481 3.75555 397.3C3.62027 395.941 3.81382 394.332 3.91786 395.334ZM3.51888 225.217C3.55991 227.902 3.18855 226.057 3.15765 224.41C3.23101 225.417 3.49557 223.693 3.51888 225.217ZM3.8275 375.115C3.79528 374.874 3.76305 374.631 3.73067 374.361C3.77733 375.21 3.80718 375.357 3.8275 375.115ZM3.06228 115.595C3.09173 116.005 3.12574 119.037 3.09259 119.447C3.02285 120.297 2.813 117.933 2.86993 116.541C2.87603 116.387 3.03282 115.187 3.0623 115.601C3.06229 115.599 3.06228 115.597 3.06228 115.595ZM3.80686 341.473C3.80335 341.468 3.80003 341.471 3.797 341.479C3.80024 341.476 3.80361 341.477 3.80686 341.473ZM4.58761 455.698C4.5819 455.681 4.57625 455.673 4.57087 455.675C4.57618 455.681 4.5818 455.694 4.58761 455.698ZM3.4487 136.982C3.79983 137.99 3.62335 140.317 3.44493 138.48C3.43553 138.377 3.45027 137.226 3.4487 136.982Z" fill="#419DDF"/>
</svg>
